<svg fill="none" height="88" viewBox="0 0 47 88" width="47" xmlns="http://www.w3.org/2000/svg" xmlns:xlink="http://www.w3.org/1999/xlink"><linearGradient id="a" gradientUnits="userSpaceOnUse" x1="58.2386" x2="12.0203" y1="-45.1626" y2="80.1315"><stop offset=".01" stop-color="#f2662a"/><stop offset=".17" stop-color="#e44525"/><stop offset=".36" stop-color="#e44525"/><stop offset=".48" stop-color="#ea5025"/><stop offset=".67" stop-color="#f15e26"/><stop offset=".75" stop-color="#e76127"/><stop offset=".89" stop-color="#dc6428"/><stop offset=".92" stop-color="#ec6729"/><stop offset=".94" stop-color="#f0672a"/><stop offset=".96" stop-color="#d55928"/><stop offset=".98" stop-color="#c45127"/><stop offset=".99" stop-color="#be4e27"/></linearGradient><linearGradient id="b" gradientUnits="userSpaceOnUse" x1="10.0648" x2="32.5252" y1="-21.9862" y2="64.2135"><stop offset="0" stop-color="#f9a573"/><stop offset=".54" stop-color="#f89e5a"/><stop offset=".9" stop-color="#f89e5a"/></linearGradient><linearGradient id="c" gradientUnits="userSpaceOnUse" x1="22.1774" x2="37.3148" y1="-18.4767" y2="66.5025"><stop offset="0" stop-color="#f9a573"/><stop offset=".54" stop-color="#f89e5a"/><stop offset=".9" stop-color="#f79154"/></linearGradient><linearGradient id="d" gradientUnits="userSpaceOnUse" x1="2" x2="37.7428" y1="21.5" y2="69.3387"><stop offset=".00000000015" stop-color="#f9a26e"/><stop offset="1" stop-color="#f89e5a"/></linearGradient><path d="m46.0188 25.1196c0-.3614.0481-.7227.0801-1.0841s.0721-.9396.0961-1.4133c.024-.4738 0-.7469.0561-1.1163.056-.3694.04-.9315.048-1.4053 0-.0803 0-.1686 0-.257 0-.6344 0-1.2688 0-1.9032 0-.1124 0-.2168 0-.3292 0-.6157-.024-1.234-.0721-1.8551l-.048-.6504c-.048-.5621-.1041-1.1162-.1762-1.6703 0-.1687 0-.3454-.064-.522v-.2088c-.0961-.6665-.2243-1.3331-.3684-1.9835-.1281-.3855-.2963-.80307-.4805-1.26883 0 0 0 0 0-.04016-.1521-.37743-.3443-.76289-.5445-1.15638-.048-.10439-.1121-.20879-.1681-.32121-.1922-.33728-.4004-.67456-.6246-1.01184l-.1762-.25697c-.245-.34908-.5125-.68171-.8008-.99577l-.2162-.20879c-.3208-.29676-.6664-.56542-1.033-.80305l-5.245-3.45308c.3689.23779.7172.50643 1.041.80305.3855.36864.7366.77183 1.049 1.20456l.1681.265c.0349.04901.067.09996.0961.15258l-2.7786-1.83897c-.5433-.35559-1.1373-.62636-1.7617-.803038h-.0401c-.1201 0-.2402-.040152-.3603-.072274-.5086-.106791-1.026-.165936-1.5455-.17667-1.2025.023784-2.3961.212925-3.5474.562132-2.3759 1.30228-4.6392 2.80114-6.7665 4.48097l.6566.43364c-2.146 1.60609-4.2841 3.37278-6.278 5.027-1.7217 1.4134-3.3472 2.7545-4.8046 3.8948-.4325.3774-.9129.803-1.41739 1.1885s-.88886.6906-1.37733 1.0681l-.64063.4898-.24823.1847-.45642.3614-.28028.2248-.45644.3614-.26425.2168-.68867.5782-.08008.0803-.59257.53-.21619.2088-.44044.4337-.22422.2248-.41639.4577c-.06291.0631-.12175.1302-.17617.2008-.18418.2168-.36836.4336-.52851.6585-.27338.3765-.51703.7739-.7287 1.1885l-.04805.1124c-.0876.183-.16513.3707-.23223.5622 0 0 .00001.0722-.04003.1124-.04003.0401 0 .1044 0 .1526 0 .0481-.05605.2248-.08008.3372-.02402.1125 0 .0884 0 .1365-.00745.0506-.00745.102 0 .1526v.2891.1365.3453c.00859.132.02463.2634.04805.3935 0 .0803-.00001.1606.04804.241.04805.0803.07206.3372.12011.5219s.08009.2972.13614.4497c.05606.1526.12011.3614.19218.5461s.05607.1767.09611.265l.10408.2168c.07207.1606.14414.3212.22422.4818l.26426.4979c.08809.1606.18419.3132.28028.4738s.20018.3212.31229.4819c.1121.1606.20819.3051.3203.4497.11211.1445.23222.3051.35234.4497.12012.1445.23223.273.35234.4015.05991.0733.1241.143.1922.2088.08809.0963.18418.1766.27226.2569l.2162.2088c.23955.2072.49089.4002.75273.5782l3.20307 2.1281c-.16015 0-.32832.0642-.48848.0803-.16015.0161-.32029 0-.48044 0-1.09723-.0393-2.15966-.3963-3.05895-1.0279l5.23707 3.4611c.9015.6331 1.9669.9902 3.0669 1.0279h.4725c2.3062-.2489 4.4843-1.8711 6.4702-3.8867 0 .3453-.0721.6906-.1041 1.0279-.3844 2.2271-.6913 4.4114-.9209 6.5528-.4564 4.216-1.081 8.4962-1.6896 12.6319-.8008 5.4365-1.6016 11.0659-2.074 16.6229v.2971c0 .4257-.0721.8593-.1041 1.2929v.4257c0 .3131-.0401.6183-.0481.9235v.1445.6103.5059c0 .2891.0481.5702.0721.8513 0 .1204 0 .2489.0401.3693.0569.349.1317.6948.2242 1.036 0 .0963.072.1847.0961.281.024.0964.1041.3293.1681.4899.0641.1606.0881.1606.1281.2409.0498.1103.1059.2176.1682.3212.1219.219.264.426.4244.6184.0721.0883.1281.1766.2082.265.0313.0359.0607.0734.0881.1124.2271.2257.4767.4275.7447.6023l3.4513 2.2726.5446.3613c-1.4408-.0596-2.858-.3863-4.1801-.9636-.2591-.1297-.5104-.2745-.7527-.4336l5.237 3.4611c.2435.1594.4976.3016.7608.4256 1.8612.8027 3.8769 1.1812 5.9017 1.1082 1.0249 0 2.0739 0 3.0669-.0883l1.6976-.0723c1.2988.0353 2.5916-.1877 3.8039-.6564 1.2122-.4686 2.3199-1.1735 3.2589-2.074.2622-.2722.5057-.5619.7287-.8672l.0401-.0482c.0269-.0384.051-.0786.072-.1205.1522-.2088.2963-.4176.4324-.6344l.1362-.2489c.048-.0723.072-.1687.1121-.2409.04-.0723.1041-.1526.1441-.241.1121-.2329.1922-.4898.2883-.7307s.2242-.514.3123-.8031c.0302-.0682.0569-.1379.0801-.2088.1441-.4497.2642-.9154.3683-1.3892 0-.1044.0481-.2168.0641-.3212.048-.2249.0961-.4497.1361-.6746s.0481-.4096.0721-.6023c.048-.3533.0961-.6986.1281-1.052.032-.3533.0641-.7066.0881-1.06 0-.1766 0-.3613 0-.538v-.1687c0-.1525 0-.3051 0-.4577s0-.2248 0-.3373c0-.1124 0-.265 0-.4015 0-.8673 0-1.7346 0-2.5938-.0561-1.7266-.0801-3.4611-.0881-5.2037 0-.4979 0-1.0038 0-1.5097 0-1.3331 0-2.6661 0-4.0153 0-.4336 0-.8753 0-1.3169 0-1.6864.0881-3.3809.1442-5.0672 0-.1205 0-.249 0-.3694.064-1.6061.1281-3.2122.2081-4.8183 0-.4979.0481-1.0038.0801-1.5017.0641-1.2929.1281-2.5777.2002-3.8546l.0721-1.3892c.0961-1.6061.1922-3.2122.2883-4.8183l.056-1.044c.1121-1.8791.3363-3.9108.5606-6.079.08-.803.1601-1.5579.2402-2.3449 0-.3372.0561-.6745.0961-1.0118.1762-.4336.2242-.9155.2642-1.3973z" fill="url(#a)"/><path d="m38.8525 7.64608c-.4985-1.72602-1.4113-3.30317-2.6585-4.5934-.5413-.52487-1.1808-.93703-1.8818-1.21269-.7009-.27567-1.4494-.40937-2.2022-.3934-1.1131.02118-2.218.19684-3.2831.52198-2.1106 1.16116-4.1315 2.47916-6.0458 3.94294-2.2662 1.69442-4.5244 3.5655-6.6384 5.31609-1.7217 1.4134-3.3472 2.7545-4.8046 3.8948-.4324.3774-.9129.803-1.41738 1.1885-.50449.3855-.88886.6906-1.37733 1.068-3.05894 2.3369-7.20694 5.541-6.99874 8.8335.22421 2.9552 3.34722 7.8778 6.53428 7.8939h.32832c3.32315-.3533 6.70245-4.5532 9.41705-7.9421.8488-1.068 1.6576-2.0799 2.4023-2.8668l1.6016-1.7185-.3043 2.3047c-.5285 4.0875-.961 8.2472-1.3614 12.2785-.2402 2.1629-.4751 4.315-.7046 6.4565-.4564 4.2159-1.0811 8.4961-1.6896 12.6318-.8008 5.4366-1.6016 11.0659-2.074 16.623v.2971c-.2883 3.4691-.6567 7.7734 2.7626 9.4598 1.6493.7079 3.437 1.0319 5.2291.9476 1.0009 0 2.0099 0 2.9868-.0883l1.3213-.0562h.4004c2.6185-.0643 4.5804-.8031 6.0057-2.2807 2.7787-2.8508 3.0029-8.0304 2.8348-12.6639-.3604-11.2988.3123-22.8225.9849-33.9607l.0481-1.0359c.1121-1.9193.3363-3.967.5605-6.1513.6086-6.0389 1.3133-12.8808.024-18.69482z" fill="url(#b)"/><path d="m32.1309 1.43878c.7528-.01597 1.5012.11773 2.2022.39339.7009.27566 1.3405.68783 1.8817 1.21269 1.2473 1.29023 2.1601 2.86739 2.6586 4.5934 1.2973 5.81404.5846 12.65594-.04 18.67874-.2243 2.1843-.4485 4.2321-.5606 6.1513l-.048 1.0359c-.6727 11.1382-1.3453 22.6619-.985 33.9607.1682 4.6657-.056 9.8132-2.8347 12.664-1.4254 1.4615-3.3873 2.2164-6.0058 2.2806h-.4004c2.7066-19.0883 4.5324-38.3131 4.0039-57.5701-.1922-6.5046 0-15.33005-7.263-18.38161-.6157-.25262-1.2538-.44621-1.9058-.57819 1.9143-1.46378 3.9352-2.78178 6.0458-3.94294 1.0559-.31406 2.1498-.48158 3.2511-.49788z" fill="url(#c)" opacity=".36"/><path d="m40.3092 7.28426c-.597-1.96839-1.6445-3.76961-3.0589-5.25993-1.3932-1.32339-3.2462-2.0494332-5.165-2.02366692-1.3306.03049242-2.6497.25501892-3.9158.66652292-4.2521 2.224424-8.9125 6.079034-13.0125 9.467914-1.7056 1.4133-3.3152 2.7464-4.8046 3.8786-.45644.4016-.92089.8031-1.42537 1.1886-.50449.3854-.85681.6745-1.33727 1.0439-3.3232 2.5456-7.879573 6.0308-7.5752802 10.0461.2642542 3.6458 4.0038502 9.2349 8.0077002 9.251h.48044c4.00388-.4256 7.55128-4.8986 10.45008-8.4962.2482-.2971.4804-.6023.7127-.8914-.4004 3.3086-.7367 6.6171-1.0651 9.8534-.2242 2.1923-.4324 4.3525-.6726 6.5046-.4564 4.1919-1.073 8.456-1.6816 12.5756-.8008 5.4607-1.6016 11.1222-2.074 16.7194v.2971c-.3203 3.694-.7447 8.7451 3.5794 10.8732 1.8628.7976 3.8773 1.1759 5.9017 1.1082 1.033 0 2.082-.0482 3.0669-.0883l1.6977-.0723c3.0028-.0803 5.3731-.9958 7.0628-2.7384 3.155-3.2121 3.4193-8.7531 3.2431-13.7079-.3524-11.2426.3203-22.7422.9689-33.8482l.0641-1.036c.1121-1.8791.3363-3.9188.5605-6.079.6246-6.1834 1.3453-13.1378-.008-19.23284zm-13.6131 75.22894c-.9769.0482-1.9859.0964-2.9868.0884-1.7921.0842-3.5798-.2397-5.2291-.9476-3.4193-1.6864-3.0509-5.9907-2.7626-9.4599v-.2971c.4724-5.557 1.2892-11.1864 2.074-16.6229.6085-4.1357 1.2332-8.4159 1.6896-12.6319.2295-2.1414.4564-4.315.6806-6.5207.4004-4.0152.8008-8.191 1.3613-12.2785l.3043-2.3047-1.6015 1.7185c-.7367.803-1.5455 1.7988-2.4023 2.8668-2.7146 3.3889-6.0939 7.5888-9.41707 7.9421h-.32832c-3.20308 0-6.31007-4.9387-6.53428-7.8939-.24023-3.2523 3.9398-6.4243 6.99874-8.8335.48847-.3774.95292-.7307 1.37733-1.068.4244-.3373.9849-.803 1.4174-1.1885 1.4814-1.1403 3.1069-2.4814 4.8046-3.8948 2.114-1.75059 4.3722-3.62168 6.6384-5.3161 1.9143-1.46378 3.9352-2.78177 6.0458-3.94293 1.0651-.32515 2.17-.50081 3.2831-.52198.7528-.01598 1.5012.11773 2.2022.39339.7009.27566 1.3405.68782 1.8817 1.21269 1.2473 1.29023 2.1601 2.86739 2.6586 4.5934 1.2973 5.81403.5846 12.65593-.04 18.67873-.2243 2.1843-.4485 4.2321-.5606 6.1513l-.048 1.036c-.6727 11.1381-1.3453 22.6618-.985 33.9606.1682 4.6657-.056 9.8132-2.8347 12.664-1.4254 1.4615-3.3873 2.2164-6.0058 2.2806h-.4004z" fill="url(#d)"/></svg>