<svg fill="none" height="92" viewBox="0 0 69 92" width="69" xmlns="http://www.w3.org/2000/svg" xmlns:xlink="http://www.w3.org/1999/xlink"><linearGradient id="a" gradientUnits="userSpaceOnUse" x1="55.0812" x2="24.1026" y1="2.3821" y2="91.5212"><stop offset="0" stop-color="#63a7df"/><stop offset=".278367" stop-color="#336dbf"/><stop offset=".310467" stop-color="#3c77c5"/><stop offset=".944695" stop-color="#204578"/><stop offset="1" stop-color="#204578"/></linearGradient><linearGradient id="b" gradientUnits="userSpaceOnUse" x1="22.9464" x2="50.4395" y1="22.095" y2="120.324"><stop offset="0" stop-color="#63a7df"/><stop offset="1" stop-color="#3c77c5"/></linearGradient><linearGradient id="c" gradientUnits="userSpaceOnUse" x1="13.4565" x2="45.2098" y1="7.2413" y2="87.5435"><stop offset="0" stop-color="#9ed5f3"/><stop offset=".0102041" stop-color="#9ed5f3"/><stop offset="1" stop-color="#63a7df"/></linearGradient><path d="m50.7056 26.8167-26.367-21.27171-.6761-1.09648 6.3101-2.41226 12.3947-.43859 12.1694 5.921 7.8875 9.64904 1.5776 25.2191-28.846 23.684-12.8454 7.8947-4.0565-5.921z" fill="#4e84cc" stroke="#000"/><path d="m27.5045 91.8252c-.1298 0-.259 0-.3888-.0012-3.5138-.0181-6.6514-.2772-9.6135-.8228-.6491-.1117-1.3005-.2503-1.9363-.3912-2.2572-.5199-4.1707-1.2801-5.6971-2.2567l-3.00177-1.9234-2.39121-1.5315c1.49218.9187 3.33771 1.6374 5.50176 2.1368.63582.1386 1.28662.2778 1.93572.39 2.9603.5427 6.0979.8059 9.6141.8211.1298.0012.2614.0012.3912.0012 4.8353 0 9.7229-.4661 14.4482-.9316 1.1725-.1158 2.3461-.2334 3.5204-.3375 6.1676-.5666 13.7733-1.5742 18.0101-4.38 2.9561-1.9579 3.7854-5.6649 2.4591-11.014-.5968-2.4502-1.6568-4.1853-3.238-5.2566-.0462-.0322-.0931-.0632-.1406-.0936l5.5877 3.5772.012.0087c.3402.2205.6509.4795.9453.7585l.1172.0953.1172.1445c.0601.0625.1232.1198.1833.1807.0289.0292.0577.059.0853.0906.1449.1713.2837.3515.4171.5403l.0679.1112c.0397.0573.0727.1198.1094.1783.101.1585.2049.3123.2993.4819.1063.1988.2013.4175.2986.6321l.0697.1287.0307.0807.0325.0678.036.0895.0487.1515c.1935.5005.3678 1.0298.5096 1.6093.1544.6252.2692 1.2181.366 1.7982.012.0708.0354.1498.0438.2211.0187.1123.0229.2158.0385.3251.0174.1328.0469.2714.0607.4018.0198.1713.0367.3409.0517.5076l.0108.155.0018.0181.009.1327c.006.0959-.003.1819.0012.276.0157.3.0325.6024.0271.8866-.003.0696-.0151.1275-.0181.1959-.0132.331-.048.6409-.0877.9509-.0198.1573-.0186.3292-.0451.4807l-.0312.1339-.0156.1251-.0181.0807c-.0517.2415-.1111.4784-.1803.7059l-.0342.0959-.0126.0526-.0445.1035c-.0439.131-.0883.2661-.1388.393-.0685.1667-.1442.3292-.2254.4883l-.009.0228-.003.0035-.003.0082-.0415.0626c-.1646.3152-.3473.6146-.5565.8935l-.0577.0638-.0384.0596c-.137.1714-.2837.3357-.4357.4912l-.0913.0755c-.2975.2918-.6184.5655-.9802.8052-.1629.1082-.3317.2111-.5012.3147-.2861.169-.5847.3321-.8954.4882l-.3035.1498-.0355.0157-.0084.0047-.2806.1299c-.3053.1385-.6202.2719-.9465.4005-.1407.0556-.2963.1006-.4411.1527-.2771.1023-.5607.2-.8474.2941-.4008.1351-.8083.2626-1.229.3819-.2986.0854-.5973.1678-.9044.2473-.4339.1112-.872.2158-1.3179.3152-.3113.0696-.6178.1404-.9351.2035-.4723.096-.9513.1837-1.4315.2673-.2914.0515-.5805.1082-.8738.155-.0733.0123-.1448.0269-.2175.0386l-.3768.059c-.2103.0322-.4189.0538-.628.0837-.7193.104-1.4327.2-2.1478.2853-.3065.0369-.6088.0761-.9135.1094-.9435.1064-1.8786.2023-2.7788.2854-1.1713.1029-2.3449.2175-3.5192.3362-1.0986.1094-2.2091.2158-3.3209.3176-.3558.0327-.7079.0608-1.0631.0912-.7896.0696-1.5811.1357-2.3738.1953-.4423.0328-.884.0602-1.3263.0901-.7428.0485-1.4849.0906-2.2283.1239-.4285.0205-.854.0404-1.2825.055-.2776.0082-.5552.0269-.8305.0334-.6767.0163-1.3509.0251-2.0252.0251zm-5.6172-5.0842c-.1153 0-.2307-.0006-.3461-.0011-.6442-.0071-1.2686-.0182-1.8864-.0357-2.6647-.0889-5.1051-.3398-7.4375-.762-.6243-.1094-1.2433-.2363-1.8629-.3754-1.9952-.4562-3.67487-1.1094-5.0114-1.9386l-.13582-.0871c-.05949-.0381-.11779-.0767-.17488-.1153 1.38341.9246 3.16945 1.6468 5.3221 2.1392.6196.1392 1.2404.2667 1.8629.3772 2.3336.421 4.7747.6713 7.4375.7608.6178.0187 1.2452.0298 1.8876.0351.1172.0006.235.0012.3528.0012 4.7643 0 9.6201-.4667 14.3123-.9199 1.1863-.1181 2.3606-.2339 3.5343-.3515 5.9531-.5403 13.3106-1.4959 17.2408-4.0988.0042-.0029.0078-.0058.012-.0081-.0048.0029-.009.0058-.0138.0093-3.9296 2.6017-11.2883 3.5579-17.2408 4.0988-1.1719.1181-2.3462.2339-3.5325.3515-4.6952.4532-9.5546.9204-14.3202.9204zm-18.16809-4.3684c-.01562-.0146-.03065-.0292-.04567-.0438l-.00601-.007c.01683.0169.03426.0339.05168.0508zm-1.54878-2.1912-.00799-.0181c-.00872-.0199-.01713-.0398-.02536-.0596.01105.0257.02205.052.03335.0777zm-.46719-1.6011c-.00186-.0094-.00348-.0187-.00541-.0281-.00186-.0129-.00396-.0257-.00582-.0386-.00072-.0058-.00145-.0117-.00193-.0175.00427.028.00847.0561.01316.0842zm-.09338-1.3228c-.00024-.0065-.00024-.0123-.00048-.0187.00024-.0123.00047-.0252.00066-.0375.00048-.0046.00072-.0093.0012-.014-.00048.0234-.00096.0468-.00138.0702zm48.65224-2.8117c1.5577-2.4801 1.1557-5.3672-.2518-7.8145.589-.0626 1.1256-.1018 1.6286-.1147-.5024.0152-1.036.0603-1.6099.1474 1.3888 2.4146 1.7914 5.3017.2331 7.7818zm-27.7696-2.0713 2.1647-1.6363c.1712-.1327.3497-.2707.5348-.414-.1857.1439-.3648.2825-.5366.4164zm3.0156-2.2965c.1094-.0854.2206-.1719.3329-.2608.131-.1023.2645-.207.3991-.3134-.1352.107-.2687.2116-.3997.3146-.1123.0883-.2235.1748-.3323.2596zm2.8744-.3012c1.253-.9982 2.6238-2.0935 3.9645-3.1719 1.7205-1.3795 3.3822-2.7169 4.6628-3.7157 12.8413-10.0374 25.4151-21.0963 25.7841-35.9944.1797-7.0438-2.7169-13.9806-7.9284-19.04725-.0181-.01813-.0367-.03626-.0553-.05439-.2903-.2807-.586-.55379-.8864-.81928-1.0018-.8842-2.0625-1.68245-3.1719-2.39239l2.2668 1.45147 3.3215 2.12686c1.0222.65438 2.0024 1.38364 2.9339 2.18598.3828.3298.7566.6713 1.122 1.0257l.1905.1848c.4116.4041.7854.8368 1.1658 1.2637.1755.1971.3678.3819.5349.5825.5673.6737 1.0985 1.3696 1.5907 2.0883.0655.0959.1172.2.1833.2965.4159.6268.8137 1.266 1.1749 1.9233.1466.2644.2626.5421.3984.8117.2296.4544.4706.9029.6719 1.3679.0258.0602.0469.1227.0715.183.0457.1088.0871.2193.1316.3292.2722.6678.5168 1.3462.7302 2.0339.0348.1082.0709.2146.1033.3234.2212.7368.3997 1.4836.5505 2.2368.0325.1597.0625.3187.0914.4796.0378.2087.0853.4157.1177.6257.0607.3994.0914.8023.131 1.2041.0259.231.0607.4608.0776.6924.0595.7818.0895 1.5678.0733 2.3555l-.003.1181c-.0186.7725-.0781 1.5316-.1623 2.2848-.0252.2398-.0637.4737-.0949.7111-.0445.3093-.0739.6234-.1286.9292-.0337.1989-.0854.3924-.1238.5895-.0283.1415-.0403.2883-.0728.4287-.0402.1924-.0931.3801-.1388.5713-.0595.2497-.1208.4988-.1845.7468-.0384.1415-.0673.2842-.1057.4234-.0391.1403-.0956.2748-.1383.4146-.0775.2602-.143.5257-.2289.783-.0944.2912-.2164.5725-.3215.8608-.0685.1901-.119.3866-.1905.5755-.0764.1929-.1527.3842-.2308.5742l-.0547.1246c-.0769.1842-.1658.3637-.247.5473-.173.3965-.3395.7936-.53 1.1837l-.1935.3906-.0403.0737-.0301.0637-.0823.1468c-.4711.9175-.9909 1.8187-1.5468 2.7058-.0722.1147-.1377.2304-.2098.3439-.0456.0719-.0859.145-.1304.2146-.1712.262-.3437.5228-.5204.7813-.2488.3655-.5319.7199-.7927 1.0795-.1893.2602-.3521.5287-.5468.7865-.1142.1503-.241.2954-.357.4445-.2807.3631-.5751.7222-.8678 1.0801-.3948.4807-.7909.9591-1.2025 1.4304-.3143.3591-.6328.7158-.9591 1.0707-.4237.462-.851.9211-1.2915 1.3772-.3365.3486-.6749.6965-1.021 1.0415-.4537.4527-.9147.9012-1.384 1.3486-.3522.3345-.7049.6719-1.0643 1.0041-.4862.4491-.982.8947-1.479 1.3379-.3563.3188-.7133.6381-1.0763.9544-.5288.4603-1.0643.9135-1.6021 1.3673-.3444.2912-.6827.5818-1.0295.8696-.6045.5005-1.2181.9964-1.8317 1.4929-.2872.2316-.5691.4673-.8582.6977-.9014.7187-1.804 1.4333-2.7109 2.1421-.0156.0122-.0312.0245-.0475.0374-.6484.155-1.2926.3129-1.9326.4684-2.0733.5053-4.2049 1.024-6.3359 1.4082-.6238.1064-2.741.6269-4.9729 1.1731-.3053.0795-.625.159-.9291.2239zm-.3708-1.6771c1.0637-.8486 2.1863-1.7526 3.2902-2.645.1389-.11.2771-.2199.4147-.3293-.1382.11-.2764.2199-.4159.3304-1.1027.8918-2.2253 1.7953-3.289 2.6439zm4.2103-3.3766c1.3413-1.0684 2.6021-2.0819 3.6346-2.8976-1.0313.8163-2.2933 1.8292-3.6346 2.8976zm13.8136-11.3613c4.3425-3.9672 8.1934-8.1684 10.9266-12.7379-2.7332 4.5695-6.5835 8.7707-10.9266 12.7379zm-31.0791-8.0116c-.0066 0-.0132 0-.0198 0-1.0673-.0059-1.97-.2574-2.7308-.7439l-2.30464-1.476-3.21872-2.0614c.74698.4608 1.62859.6977 2.66343.7035h.02825c.19411 0 .39182-.0088.59434-.0246.05474-.004.10994-.0093.16584-.0146.0084-.0006.0163-.0011.0241-.0023 6.8911-.6696 9.9013-5.8935 12.7961-10.9578 2.8227-4.8947 5.482-9.5309 11.4381-10.3023.4459-.0579.8924-.0859 1.3371-.0859h.0378c2.8732.0152 5.6743 1.2111 7.5667 3.2029.2217.2339.4279.4754.6178.7239-.8408-.2216-1.7127-.3432-2.5956-.3473-.021-.0006-.0426-.0006-.0637-.0006-.4375 0-.8749.0286-1.3112.0848-.4297.0561-.8372.1362-1.232.2316-.125.0292-.244.0661-.3678.0994-.2668.0737-.5318.1544-.786.2462-.1256.0462-.2524.0918-.375.1421-.2548.1011-.4994.2123-.7368.3298-.101.0491-.2031.0947-.3005.1468-.3245.1743-.6412.3596-.9429.5631l-.1118.0819c-.265.1836-.5204.376-.7686.5789-.0931.0755-.1821.1568-.2746.2351-.1881.1661-.3756.3363-.5559.5129-.0914.0889-.1833.1778-.2716.269-.1924.1947-.375.3965-.5559.6029-.0661.0731-.1316.1433-.1959.2187-.2404.2848-.4772.5772-.7056.8801l-.0408.055c-.5764.7684-1.1178 1.5883-1.6437 2.4392l-.0156.0222c-.5276.8596-1.0408 1.7479-1.5589 2.6468-.4976.8713-.9993 1.7455-1.524 2.6023l-.0727.1228c-.521.8444-1.0673 1.6649-1.6496 2.4467l-.0649.0954-.08.0988c-.2452.3222-.4964.638-.759.9427l-.03.0374c-.2717.3123-.5553.6128-.845.9041-.0853.0854-.1754.1672-.262.2509-.2169.2058-.4393.4064-.6682.5994-.1022.0865-.205.1731-.3125.2573-.2494.1988-.5103.3871-.7771.5672-.0823.0562-.1622.1158-.244.1696-.3527.2257-.7163.4339-1.0973.6246-.0872.0432-.1791.0795-.2674.1204-.3017.1433-.6136.2749-.9369.393-.1359.0503-.2747.0965-.4165.1421-.3041.0988-.6208.1871-.9405.2649-.1424.0328-.2776.0702-.4225.0994-.4651.0948-.9423.1755-1.4489.2228-.262.0264-.5186.0381-.7662.0381zm-5.56606-5.0819c-.72896-.0041-1.34554-.1696-1.85996-.4935l-.02103-.0135c-.11899-.076-.23077-.1602-.33954-.2532-.05889-.0509-.11598-.1041-.17187-.1602l-.00902-.0106c.60396.6123 1.39542.9252 2.40263.9293h.02944c.17849 0 .36238-.01.55288-.0293 2.07693-.1988 3.75663-.876 5.18083-1.8783-1.4242 1.0029-3.1045 1.6807-5.18143 1.8795-.20192.0199-.39543.0298-.58293.0298zm-2.40142-.931c-.0036-.0035-.00721-.0076-.01142-.0111.00421.0035.00782.0076.01142.0111zm35.60128-1.1228c2.3017-2.3502 4.0733-5.0385 4.4838-8.1876.009-.0597.0168-.1199.024-.1801.0078-.076.015-.1521.021-.2281.2242-2.5567-.6809-5.0403-2.5763-7.0309-2.1911-2.3094-5.4777-3.6971-8.7752-3.7146-.0186-.0006-.0366-.0006-.0552-.0006.0186 0 .0366 0 .0552.0006 3.2975.0152 6.5841 1.4052 8.777 3.714 1.9501 2.0497 2.8522 4.6233 2.5535 7.2596-.3666 3.2268-2.1617 5.9724-4.5078 8.3677zm-36.43841-.1502c-.00601-.0129-.01202-.0258-.01743-.0392-.00481-.0111-.00962-.0223-.01443-.034.01082.0246.02104.0492.03186.0732zm-.76683-5.4368c0-.0182 0-.0363 0-.0544.0006-.0316.00181-.0626.00301-.093-.0012.0491-.0018.0982-.00301.1474zm.06791-1.6369c.00181-.038.00361-.076.00542-.114.02944-.4304.05828-.8374.08593-1.1971l.01623-.3544-.01623.3544c-.02945.393-.0625.8357-.09135 1.3111zm.26503-3.114c.0006-.0041.0012-.0082.0018-.0123-.0006.0041-.0012.0082-.0018.0123zm.0024-.0146c.02644-.1883.05589-.3766.08714-.5637.01021-.0591.02043-.1182.03065-.1767.01021-.0567.02103-.114.03185-.1707-.05649.3023-.10637.6064-.14964.9111zm.85997-3.6976c.00541-.017.01021-.0334.01562-.0497.00301-.0088.00601-.0176.00842-.0263l.01983-.0579c-.01503.0444-.02945.0888-.04387.1339zm1.34674-3.2491.02224-.0445c.00961-.0193.01983-.0386.03005-.0579-.01743.034-.03486.0679-.05229.1024zm22.49919-.8819c1.1094-.5117 2.348-.8778 3.7488-1.0596.2542-.031.5084-.0562.7614-.0737-.253.0175-.5072.0427-.7614.0743-1.4008.1812-2.6394.5479-3.7488 1.059zm-19.4974-3.9005.0012-.003c.0655-.0865.1316-.1731.1983-.259-.0673.0871-.134.1743-.1995.262zm6.277-6.47132.0042-.00352c.0336-.02748.0673-.05438.101-.08187-.0349.02807-.0704.05732-.1052.08539zm33.555-5.07423-.009-.00586zm-21.1218-1.55204c.5234-.15029 1.0481-.28537 1.5733-.40467.1562-.03509.3131-.069.4693-.10117-.1556.03217-.3119.06608-.4675.10117-.5258.1193-1.0511.25438-1.5751.40467z" fill="url(#a)"/><path d="m21.8917 86.7383c-.1178 0-.2356-.0006-.3528-.0012-.6424-.0053-1.2698-.0164-1.8876-.0351-2.6628-.0895-5.1039-.3397-7.4374-.7608-.6226-.1105-1.2434-.238-1.863-.3772-2.15261-.4924-3.93866-1.2146-5.32207-2.1392-.04567-.0304-.09074-.0608-.13521-.0918-.43449-.2999-.82752-.621-1.17787-.9614-.01743-.0169-.03486-.0339-.05169-.0508-.65276-.6456-1.15437-1.3608-1.4971-2.1404-.0113-.0257-.02229-.052-.03335-.0777-.20355-.4842-.3479-.993-.43384-1.5234-.00468-.0281-.00889-.0562-.01316-.0842-.05985-.4006-.08659-.8141-.08022-1.2386.00042-.0234.0009-.0468.00138-.0702.02206-.9509.20895-1.9596.55799-3.0163.44957-1.3585 1.16778-2.7971 2.15094-4.2965 2.7013-4.1175 6.435-7.5403 10.066-10.621 4.2139-3.5678 8.8882-6.78 13.4176-9.8847 1.0324-.7122 2.0649-1.4234 3.0943-2.1403 1.0018-.6971 2.0012-1.3994 2.9928-2.1123l1.0192-.7292c2.5349-1.8006 5.3738-3.8169 7.6802-6.1725 2.3462-2.3953 4.1412-5.1409 4.5078-8.3677.2987-2.6363-.6033-5.2099-2.5534-7.2596-2.1929-2.3088-5.4796-3.6988-8.777-3.714-.0186-.0006-.0367-.0006-.0553-.0006-.2566 0-.5156.0099-.7758.0275-.253.0175-.5072.0427-.7615.0736-1.4008.1819-2.6394.548-3.7487 1.0597-4.2488 1.959-6.5991 6.0479-8.884 10.0239-1.8569 3.2468-3.6502 6.3748-6.3875 8.3017-1.4243 1.0023-3.104 1.6795-5.1809 1.8783-.1905.0193-.37439.0293-.55288.0293-.00961 0-.01983 0-.02944 0-1.00721-.0041-1.79866-.317-2.40263-.9293-.0036-.0035-.00721-.0076-.01142-.0111-.33894-.3468-.60997-.776-.82571-1.262-.01082-.0239-.02104-.0485-.03185-.0731-.64123-1.5011-.76923-3.5239-.73497-5.3636.0012-.0492.0018-.0983.003-.1474.01202-.5181.03666-1.0199.0649-1.4895.02885-.4754.0619-.9181.09135-1.3111l.01623-.3544c.03666-.4859.08954-.969.15745-1.4485.0006-.0041.0012-.0082.0018-.0123 0-.0005.00061-.0017.00061-.0023.04326-.3047.09314-.6088.14963-.9111.17548-.9433.41286-1.8731.71033-2.7865.01442-.0451.02885-.0895.04387-.134.32872-.9883.72836-1.9584 1.19771-2.9058.03486-.0696.06971-.1397.10517-.2093.01743-.0345.03485-.0685.05228-.1024.82872-1.6181 1.8209-3.1853 2.94947-4.68.0655-.0878.1322-.1749.1995-.262 1.7488-2.2725 3.8095-4.3696 6.0775-6.20934.0349-.02807.0703-.0573.1052-.08537 1.0967-.88304 2.2404-1.70584 3.42-2.45964 1.3257-.84619 2.6959-1.60408 4.095-2.26197.0006-.00059.0006-.00058.0012-.00058 8.4242.36258 17.349 4.65609 22.6044 10.6923 7.1874 8.2613 4.8268 19.4109-1.2957 27.646-4.1478 5.5952-9.5666 9.5087-14.8749 14.0361-3.0318 2.5813-6.5017 5.4473-8.3148 8.9467-1.476 2.886-.1725 3.7012 1.7776 3.7099h.0517c.3401 0 .6983-.0263 1.0655-.0678-.1124.0889-.2236.1754-.333.2608-.1069.0836-.2127.1655-.3161.2462-.1851.1433-.3635.2813-.5348.414l-2.1647 1.6363-.3725.2819 3.188-.5959c.5667-.1065 2.4357-.5579 4.4098-1.0369 2.0145-.4935 4.2921-1.0544 4.8564-1.1608 2.1875-.3819 4.3503-.9158 6.4531-1.4357 2.0162-.4865 4.1063-1.0081 6.179-1.3871.1923-.0351.384-.069.5757-.1011.0325-.0053.0649-.0106.0974-.0158.7848-.1258 1.4867-.2234 2.1304-.2918h.0006c1.4074 2.4473 1.8094 5.3344.2518 7.8145 1.5582-2.4801 1.1556-5.3672-.2332-7.7818.5739-.0871 1.1076-.1322 1.61-.1474.1201-.0029.2391-.0046.3557-.0046.0391 0 .0781.0005.1166.0005 3.8059.0188 5.7446 1.593 6.6796 5.4181 1.1569 4.6871.5529 7.8614-1.7962 9.4304-.0042.0023-.0078.0052-.012.0081-3.9303 2.6029-11.2878 3.5585-17.2409 4.0988-1.1737.1176-2.3479.2334-3.5342.3515-4.6923.4532-9.548.9199-14.3124.9199zm7.7439-83.704c.5241-.15029 1.0493-.28538 1.5751-.40467.1557-.03509.3119-.06901.4676-.10116.0012 0 .0018-.00002.0024-.00061-.1569.03275-.3137.06668-.47.10177-.5258.11929-1.051.25438-1.5751.40467z" fill="url(#b)"/><path d="m21.9162 88.2471c-.1298 0-.2614 0-.3912-.0012-3.5162-.0152-6.6538-.2784-9.6141-.821-.6491-.1123-1.2999-.2515-1.93571-.3901-2.16404-.4994-4.00958-1.2181-5.50175-2.1368-1.79296-1.1029-3.07588-2.4942-3.787177-4.1374-1.418078-3.2304-.6262561-7.2625 2.262307-11.6806 2.8055-4.283 6.64021-7.7859 10.36193-10.9461 4.2872-3.6246 8.9891-6.8625 13.53-9.9935 2.0402-1.3907 4.0642-2.7953 6.0738-4.224l1.0198-.7304c4.8648-3.4555 10.908-7.7496 11.5697-13.4981.0997-.8707.0384-1.7362-.1743-2.5719-.2524-.9906-.7176-1.9392-1.3798-2.8047-.1899-.2485-.396-.49-.6178-.7239-1.8924-1.9918-4.6935-3.1877-7.5666-3.2029-.0127 0-.0253 0-.0379 0-.4447 0-.8912.028-1.3371.0859-5.9561.7714-8.6154 5.4076-11.438 10.3023-2.8949 5.0643-5.905 10.2882-12.7962 10.9578-.0084.0012-.0168.0017-.0253.0023-.0552.0053-.1105.01-.16462.0146-.20252.0158-.40024.0246-.59435.0246-.00901 0-.01863 0-.02824 0-1.03485-.0058-1.91645-.2427-2.66344-.7035-.3155-.1947-.60757-.4292-.8768-.7035-2.49397-2.5263-2.10034-7.6906-1.86837-10.7894l.03365-.3538c.21334-3.0427 1.02283-5.9753 2.39482-8.7291 4.61355-9.2894 14.45115-17.05779 24.46855-19.33321 1.9705-.440931 3.9453-.658483 5.9014-.658483h.143c6.2758.030411 12.3058 2.294713 17.0414 6.470693.3016.26609.5985.54037.89.82166.018.01813.0366.03625.0553.05379 5.2115 5.06665 8.1081 12.00345 7.9284 19.04725-.369 14.8981-12.9428 25.9571-25.7841 35.9944-1.2806.9988-2.9422 2.3362-4.6628 3.7158-1.3407 1.0783-2.7115 2.1736-3.9645 3.1719.3041-.065.6238-.1445.9291-.224 2.2319-.5462 4.3491-1.0667 4.9729-1.1731 2.131-.3842 4.2626-.9029 6.3359-1.4082.64-.1555 1.2842-.3134 1.9327-.4684 1.6304-.3901 3.2848-.7643 4.9543-1.0474 1.8317-.3099 3.2746-.452 4.5456-.452h.0757c.2073.0012.4111.007.6112.0164 1.759.0871 3.2109.5163 4.3786 1.3076 1.5811 1.0713 2.6412 2.8064 3.2379 5.2566 1.3263 5.3491.497 9.0561-2.4591 11.014-4.2367 2.8058-11.8425 3.8134-18.0101 4.3801-1.1743.1041-2.3479.2216-3.5204.3374-4.7253.4655-9.6129.9316-14.4482.9316zm-16.57558-4.6193c1.33652.8292 3.0162 1.4824 5.01138 1.9386.6196.1392 1.2386.2661 1.863.3754 2.3323.4222 4.7728.6731 7.4374.762.6178.0175 1.2422.0287 1.8864.0357.1154.0006.2308.0011.3462.0011 4.7655 0 9.6249-.4672 14.3202-.9204 1.1862-.1176 2.3605-.2333 3.5324-.3515 5.9525-.5409 13.3112-1.497 17.2408-4.0988.0048-.0035.009-.0064.0139-.0093 2.3491-1.569 2.9531-4.7433 1.7962-9.4304-.9351-3.8251-2.8738-5.3993-6.6796-5.418-.0385 0-.0775-.0006-.1166-.0006-.1166 0-.2356.0017-.3558.0047-.503.0128-1.0396.052-1.6286.1146-.0006 0-.0006 0-.0006 0-.6436.0684-1.3455.166-2.1304.2918-.0324.0052-.0655.0105-.0985.0158-.1911.0321-.3828.066-.5745.1011-2.0727.379-4.1629.9006-6.1791 1.3872-2.1027.5198-4.2656 1.0538-6.453 1.4356-.5643.1065-2.842.6673-4.8564 1.1608-1.9741.479-3.8431.9304-4.4098 1.0369l-3.1881.5959.3726-.2819 2.1629-1.6339c.1718-.1339.3509-.2725.5366-.4164.1034-.0807.2091-.1626.3161-.2462.1088-.0848.22-.1713.3324-.2596.131-.1029.2644-.2076.3996-.3146.5607-.441 1.1562-.9129 1.7716-1.4041 1.0637-.8485 2.1863-1.752 3.289-2.6439.1395-.1105.2777-.2204.4159-.3304.1695-.1345.3377-.269.5054-.4023 1.3414-1.0684 2.6034-2.0813 3.6346-2.8976.0415-.0334.0835-.0661.1244-.0983 3.4525-2.6994 6.8846-5.4701 10.0546-8.3654 4.3431-3.9672 8.1935-8.1684 10.9266-12.7379 2.5312-4.2316 4.1051-8.7801 4.2265-13.752.1617-6.6742-2.5841-13.2414-7.5306-18.02435-4.557-4.40465-10.5377-6.80579-16.7859-6.83737-.042-.00059-.0847-.0006-.1268-.0006-1.676 0-3.3702.17075-5.0612.51929-.0006.00058-.0012.0006-.0024.0006-.1563.03216-.3131.06608-.4694.10116-.5252.1193-1.0499.25439-1.5733.40468-1.6238.46607-3.235 1.07894-4.8119 1.8187-.0006 0-.0006-.00001-.0012.00057-1.399.65789-2.7692 1.41579-4.0949 2.26198-5.4603 3.48654-10.1544 8.46254-12.91154 14.00924-.47716.9655-.88281 1.9544-1.21514 2.9626-.0024.0087-.00541.0175-.00841.0263-.32332.9847-.57632 1.9882-.75781 3.0069-.01021.0585-.02043.1176-.03065.1767-.11298.6695-.19591 1.3456-.24699 2.0268l-.01803.355c-.19832 2.6637-.57752 7.6093 1.4453 9.6572.00361.0036.00722.0071.01022.0106.05589.0561.11298.1093.17188.1602.11418.0988.23437.1877.36057.2667.51442.3239 1.131.4894 1.85996.4935.1875 0 .381-.0099.58292-.0298 2.07692-.1988 3.75722-.8766 5.18142-1.8795 2.7374-1.9269 4.5306-5.0549 6.3876-8.3017 2.2848-3.976 4.6352-8.0648 8.884-10.0239 1.1093-.5111 2.3479-.8778 3.7487-1.059.2542-.0316.5084-.0568.7614-.0743.2602-.0176.5193-.0275.7759-.0275.0186 0 .0366 0 .0553.0006 3.2974.0175 6.584 1.4052 8.7751 3.7146 1.8955 1.9906 2.8005 4.4742 2.5763 7.0309-.0066.076-.0144.1526-.0228.2292-.0072.0597-.0144.1199-.0222.179-.4105 3.1491-2.1821 5.8374-4.4838 8.1876-2.3065 2.3556-5.1454 4.3719-7.6802 6.1725l-1.0192.7292c-.9916.7129-1.991 1.4152-2.9928 2.1123-1.0294.717-2.0625 1.4281-3.0943 2.1403-4.5294 3.1047-9.2037 6.317-13.4176 9.8848-3.631 3.0806-7.36471 6.5034-10.06601 10.6209-.98317 1.4994-1.70137 2.938-2.15095 4.2965-.3512 1.0619-.53827 2.0754-.55919 3.0304-.00018.0122-.00042.0251-.00066.0374-.00751.4374.01995.8625.08263 1.2748.00187.0129.00397.0258.00583.0386.0899.5696.24724 1.114.47259 1.6304.53335 1.2146 1.45203 2.2737 2.72787 3.155.14363.0988.29206.1959.44471.2906z" fill="url(#c)"/></svg>