<svg fill="none" height="92" viewBox="0 0 74 92" width="74" xmlns="http://www.w3.org/2000/svg" xmlns:xlink="http://www.w3.org/1999/xlink"><linearGradient id="a" gradientUnits="userSpaceOnUse" x1="46" x2="26.1563" y1="-4" y2="88.2421"><stop offset=".07" stop-color="#35bfbf"/><stop offset=".99" stop-color="#268787"/></linearGradient><linearGradient id="b" gradientUnits="userSpaceOnUse" x1="2" x2="95.4972" y1="41.5" y2="44.1006"><stop offset="0" stop-color="#00cadc"/><stop offset="1" stop-color="#00becf"/></linearGradient><linearGradient id="c" gradientUnits="userSpaceOnUse" x1="21.248" x2="66.7537" y1="44.2673" y2="44.2673"><stop offset="0" stop-color="#00becf"/><stop offset="1" stop-color="#00abba"/></linearGradient><linearGradient id="d" gradientUnits="userSpaceOnUse" x1="17" x2="64.5" y1="44" y2="44.0266"><stop offset="0" stop-color="#40e3e3"/><stop offset="1" stop-color="#8cd1d1"/></linearGradient><path d="m16.4489 59.6346c.6521.6854 1.3162 1.3708 1.9923 2.0387l.0957.0937.4307.416c.5325.5155 1.071 1.0252 1.6154 1.5173l.712.6268c.4906.4336.9931.8554 1.5077 1.2596l.694.5859c.7359.5858 1.4837 1.1072 2.2436 1.5993l5.564 3.5854c-.7658-.498-1.5136-1.037-2.2495-1.6052-.2274-.1699-.4487-.3515-.6701-.5332-.5265-.4159-1.047-.8494-1.5556-1.3005-.2213-.1934-.4427-.3808-.6581-.5859-.5983-.5272-1.1547-1.0662-1.7171-1.6169-.1077-.1054-.2213-.2051-.329-.3164-.718-.703-1.4239-1.4294-2.1179-2.1559l-.1795-.1816c-.1257-.1289-.2573-.2343-.3829-.3456l-.2513-.2285c-.2513-.205-.5086-.3925-.7718-.5858l-5.5641-3.5854c.2633.1758.5265.3691.7778.5858l.2274.2051c.1974.1582.3948.3281.5863.5273z" fill="#268787"/><path d="m73.8618 61.9888c0-.2519.0419-.5096.0479-.7615 0-.0703 0-.1348 0-.2051 0-.3456 0-.6854 0-1.0311 0-.3456 0-.6737 0-1.0135s-.0778-.8377-.1256-1.2595c-.0359-.3223-.0599-.6503-.1077-.9667 0-.041 0-.082 0-.1289-.0958-.6151-.2214-1.2303-.365-1.8513-.0359-.1581-.0778-.3163-.1196-.4745-.1317-.5272-.2812-1.0545-.4488-1.5759-.0538-.1758-.1077-.3515-.1675-.5214-.2154-.6268-.4487-1.2478-.7119-1.863l-.03-.0527c-.323-.7499-.682-1.4822-1.0769-2.2086-.2572-.4629-.5384-.9198-.8376-1.3768-.0837-.1171-.1735-.2343-.2572-.3573-.2274-.3281-.4547-.6562-.706-.9784l-.0778-.1055c-.0837-.1054-.1795-.1991-.2632-.3046-.2992-.369-.5983-.7323-.9334-1.0897-.1555-.1699-.317-.3339-.4786-.5038-.1615-.1699-.2991-.3281-.4607-.4862-.1615-.1582-.1914-.1641-.2752-.2519-.5265-.5039-1.0649-.9901-1.6273-1.4529l-.347-.2988c-.5983-.4745-1.1966-.9315-1.8427-1.3592l-.4188-.2753-2.5308-1.6287c.5086-.8201.9752-1.6286 1.382-2.4371.371-.744.6881-1.4763.9812-2.2086 0-.082.0778-.164.1077-.246l.0958-.252c.0478-.1288.0777-.2519.1196-.3749s.1436-.3632.2034-.539c.1077-.3398.1975-.6737.2932-1.0076 0-.0821.0538-.1699.0778-.2519l.0478-.1992v-.0352l.0299-.1113c0-.0586 0-.1113 0-.164.0958-.3925.1855-.7851.2513-1.1717.0419-.2285.0599-.4628.0958-.6913 0-.123.0358-.2519.0478-.375.0598-.5506.1077-1.0955.1197-1.6344 0-.0938 0-.1817 0-.2754s0-.2871 0-.4277c0-.5858-.0539-1.1189-.1197-1.6696 0-.1113 0-.2168-.0359-.3281.0029-.0527.0029-.1055 0-.1582-.0538-.3515-.1555-.6971-.2333-1.0486-.0778-.3516-.0957-.5859-.1675-.8261l-.0539-.1816-.0299-.0937c-.0419-.1406-.1077-.2754-.1556-.416-.1615-.5038-.323-1.0076-.5384-1.5056-.0359-.0761-.0778-.1523-.1137-.2343l-.0478-.123c-.0659-.1465-.1377-.2988-.2094-.4453l-.1736-.3222c-.0837-.1699-.1794-.3398-.2692-.5097-.1436-.2636-.3051-.5273-.4607-.7909-.1017-.164-.1974-.3222-.3051-.4862-.1795-.2812-.3769-.5859-.5983-.8378-.0957-.1406-.1854-.2753-.2931-.4101-.3111-.4159-.6342-.826-.9812-1.2303-.2034-.2343-.4128-.4686-.6282-.6971l-.0718-.0762c-.0479-.0468-.1017-.0878-.1436-.1347s-.1855-.2051-.2812-.2988c-.347-.3456-.7299-.6561-1.0949-.9783-.2153-.1817-.4068-.3808-.5982-.5859-.6923-.5677-1.4175-1.09581-2.1718-1.58177l-5.5641-3.58536c.7533.48738 1.4784 1.01547 2.1718 1.58179.2273.18161.4248.38079.6402.58584.4666.40423.9333.81432 1.3521 1.24785.1555.15818.3051.32219.4547.48622l-.4966-.31634-1.4897-.96079-.2513-.16402-2.806-1.81027c-.682-.43353-1.388-.8319-2.1119-1.20684l-.694-.33976c-.5146-.24606-1.0291-.48039-1.5616-.69716-.1256-.05272-.2453-.12305-.3769-.16991l.0838.05274-.0838-.05274c-.1256-.05273-.2632-.08787-.3889-.13474-.688-.25777-1.388-.49798-2.094-.70888l-.4966-.15233c-.8615-.24605-1.741-.45109-2.6264-.62099l-.6581-.11131c-.7-.12303-1.4-.21676-2.1-.29292l-.7658-.08201c-.8975-.07616-1.7949-.12887-2.6923-.13473-3.4867-.0448-6.9528.5288-10.2307 1.69308-.4009.15231-.8017.30463-1.1966.46866-.3949.16404-.9034.3808-1.3342.58585l.7599.49212-.353.16402c-.4308.19919-.8556.39837-1.2744.58584l-.5983.29879c-.4487.23434-.8914.48039-1.3162.7323l-.3829.21676c-.5385.32026-1.059.65421-1.5615 1.00181-.1317.08787-.2573.18745-.3829.27533-.371.26363-.7299.53311-1.0769.8026-.1616.12303-.3111.24606-.4667.37495-.3231.26363-.5983.52725-.9274.79672-.1256.1172-.2572.2285-.3769.3457-.4068.3749-.78972.7616-1.14271 1.1717-.04786.0468-.08376.0937-.12564.1406-.3111.3456-.59827.6971-.8675 1.0428-.0359.0527-.08377.0996-.11966.1464-.0359.0469-.15555.2344-.23932.3457l-.35298.5155c-.10769.1699-.20941.3398-.31112.5156-.10171.1757-.20939.3515-.30512.5272l-.09572.1758c-.0359.0703-.05386.1347-.08377.205-.17093.3444-.32077.6985-.44872 1.0604 0 .0644-.05982.1348-.08375.2051s0 .0703 0 .1054c-.08852.2852-.16242.5746-.22138.867 0 .0703-.04188.1465-.05384.2168v.0351c-.06027.3467-.09425.6972-.1017 1.0487v.0879c-.00112.2861.01888.572.05983.8553v.0996c.00921.0398.0212.079.0359.1172.07098.4317.19138.8542.35895 1.2596v.0468c.1415.3121.30963.6119.50258.8964.05385.082.10769.164.16752.2401.20461.2837.43058.552.67605.8027.01983.0219.03785.0454.05386.0703.14359.1406.30512.2694.46067.4042.15556.1347.16155.1523.25129.2226.26563.2106.54327.4062.83161.5859l4.87007 3.1459c-.1316 0-.2513.041-.3889.0352-.9459-.0162-1.8791-.2153-2.7461-.5859-.94-.3782-1.84312-.839-2.6983-1.3767l5.5641 3.5854c.8534.539 1.7568.998 2.6982 1.3709.866.3738 1.7999.573 2.7462.5858.4021.0003.8032-.0409 1.1965-.123l.2274-.041c.3655-.0816.7221-.1973 1.0649-.3457.0718 0 .1316-.0586.1915-.082.3316-.1507.6516-.325.9572-.5214l.0718-.041c.322-.2155.6316-.4482.9274-.6972l.1854-.1581c.2573-.2285.5146-.4629.7539-.7089l.0538-.0586c.4368-.4511.8496-.9256 1.2505-1.4178l.3111-.3866c.3649-.4687.7299-.9315 1.0769-1.3943s.5983-.7733.8735-1.1424c1.2728-1.5883 2.8939-2.8762 4.7435-3.7686 1.8495-.8923 3.8801-1.3663 5.9419-1.3868.8152.0041 1.6276.0944 2.423.2695 1.2294.2824 2.4035.7593 3.4761 1.4118.1368.2456.2606.4978.3709.7558.0479.1054.0838.2168.1197.3222.1136.2988.2094.5859.2931.9081 0 .1406.0658.2812.0898.4218.0538.2577.0837.5214.1136.785.03.2636.0419.4335.0419.6561.0168.3912.0008.7831-.0478 1.1717-.0714.514-.1855 1.0215-.3411 1.5173 0 .0528 0 .1055-.0418.1582-.1584.4863-.3586.9587-.5983 1.4119-.2584.4999-.5586.978-.8975 1.4295-.298.3877-.6197.7574-.9632 1.1072-.1137.1113-.2333.2168-.353.3222-.2453.2344-.5026.4629-.7658.6796l-.4308.334c-.2692.205-.5504.3983-.8316.5858l-.4307.2812c-.347.2168-.6941.4159-1.053.5858l-.2752.1524c-.4547.2343-.9154.4511-1.3821.6502l-.4068.17-1.0231.4042-.5205.1816c-.3111.1113-.5983.2167-.9333.3105l-.5086.1582-.9991.2812-.3949.1054c-.4487.1172-.8914.2227-1.3162.3164l-.2812.0586-.9812.1933-.4307.0762c-.2573.0468-.5086.0937-.7479.1288l-.3889.0586-.6761.0996-.3051.041-.7897.0937-.7957.0762-1.2684.1347-.3171.0411-.9872.1289-.4547.0761c-.2812.0469-.5683.0937-.8495.1523-.1676 0-.3291.0762-.4966.1172-.2573.0586-.5145.1172-.7658.1875l-.5086.1698c-.2313.0782-.4587.1602-.682.2461-.1675.0703-.3231.1523-.4846.2285-.2052.0947-.4049.2003-.5983.3164-.1512.0914-.297.1912-.4368.2987-.1734.1252-.3392.2601-.4965.4043-.1292.1198-.2511.2469-.365.3808-.0718.082-.1615.1523-.2333.2402-.1141.1534-.218.3139-.3111.4804l-.0958.1757c-.0825.1646-.1525.335-.2094.5097-.0034.0194-.0034.0392 0 .0586-.0028.0351-.0028.0703 0 .1054 0 .0937-.0538.1875-.0718.2812-.0228.1338-.0368.2688-.0418.4043v.0468c-.006.1746.006.3492.0359.5214 0 .0352 0 .0762.0359.1172.0298.1597.0739.3165.1316.4687.0359.0878.0419.1757.0778.2636l.0897.1933c.1155.2233.2496.4368.4009.6386.0478.0644.1077.123.1555.1875.1114.1434.2313.2803.359.4101l.0478.0527c.0247.0229.0507.0444.0778.0644.3167.3078.6633.5844 1.0351.8261l4.3375 2.7944c-.694-.0585-1.3641-.1464-2.0222-.2636-1.1473-.2144-2.2396-.6505-3.2128-1.283l5.5641 3.5854c.9735.6307 2.0658 1.0648 3.2128 1.2771 1.3818.2456 2.7836.3672 4.188.3632h.9932c2.2104-.2317 4.4071-.5759 6.5811-1.0311 2.821-.6478 5.7012-1.0167 8.5974-1.1013 1.5552-.0045 3.1043.1924 4.6068.5858.7052.1986 1.3871.4696 2.0342.8085.1256.2812.2213.5858.323.8612.0419.1347.1017.2577.1376.3925.1335.4433.2335.8956.2992 1.3533.0864.5818.1244 1.1696.1136 1.7575.0046.4461-.0174.8921-.0658 1.3357-.0718.621-.2153 1.2069-.341 1.7927-.0957.4277-.1914.8495-.3111 1.2537-.1197.4043-.2692.8085-.4188 1.2069-.1496.3983-.2991.7791-.4726 1.1717-.2707.6024-.5764 1.1892-.9154 1.7575l-.1077.1523c-.3874.6008-.8172 1.1744-1.2863 1.7165l-.1436.1758c-.4818.5332-.9995 1.0342-1.5496 1.4997l-.2812.2402c-.5524.4494-1.1361.8605-1.747 1.2303-.1077.0703-.2213.1347-.341.1992-.6376.3752-1.3013.706-1.9863.9901l-.2872.1113c-.7539.3017-1.5274.5542-2.3154.7557-1.699.4359-3.4486.6545-5.205.6503-3.2361-.0359-6.4184-.8144-9.2914-2.2731l-.3171-.2519c-.5265-.4218-1.053-.8612-1.5675-1.3123l-.7299-.6444c-.5505-.498-1.0949-1.0135-1.6393-1.5349-.1556-.1582-.3231-.3105-.4847-.4687-.7219-.7147-1.4339-1.4392-2.1358-2.1735l-.1496-.1523-.0957-.0762c-.326-.3215-.6826-.6118-1.065-.867l-5.564-3.5854c-.9368-.6134-2.038-.9416-3.165-.9432-.3024.0031-.6043.0266-.90339.0703l-.28718.0469c-.21592.0351-.42965.082-.64017.1406l-.29914.082c-.25128.0821-.50257.1699-.75385.2754l-.13759.0527c-.29316.1289-.59829.2753-.85555.4335-.08974.0469-.16753.0996-.25129.1523-.2094.1231-.40683.252-.59828.3926l-.26325.1816c-.21538.164-.42478.3339-.62819.5096l-.15557.1289c-.24529.2226-.48461.457-.71196.703l-.17351.1934c-.16752.1874-.33502.3866-.49058.5858 0 .041-.0718.082-.10171.1289l-.05385.0761c-.317.4361-.60096.8943-.84957 1.3709-.02013.028-.03812.0574-.05384.0879-.01554.0257-.0276.0533-.0359.082-.17297.3523-.32478.7142-.45469 1.0838 0 .0293-.00001.0586-.02992.0879-.02992.0293-.00001.1055-.04189.1582-.07788.2523-.14178.5084-.19143.7675 0 .0585-.0359.1171-.04189.1698l-.03589.2227c-.0512.3434-.07919.6898-.08377 1.0369v.0528.123c-.00447.4055.02153.8108.07778 1.2127v.1698.1231c.06271.3651.14459.7269.2453 1.0838.10544.3615.23535.7158.38888 1.0604l.0359.1054c.02991.0645.0718.1289.10171.1933.11966.2578.25128.5097.38889.7558l.16751.2929c.19146.3164.38889.6269.59829.9315v.041c.23932.3164.4906.6327.75385.9374.06381.082.1356.164.21537.246.20342.2285.41282.4511.63418.6796.04701.046.09097.0949.13163.1464l.06582.0528c.62412.6123 1.28329 1.1893 1.97434 1.7282.0452.0403.09317.0775.14358.1113.71196.5507 1.44785 1.078 2.20768 1.5642l4.78624 3.0991.4727.3047.2812.1816c2.1434 1.3505 4.3965 2.5262 6.7367 3.515-.9752-.2519-1.9265-.5389-2.8478-.8729-3.6078-1.2771-7.0592-2.9433-10.29058-4.9679l5.56408 3.5795c3.2621 2.0321 6.7483 3.6966 10.3922 4.9621 3.9239 1.363 8.0596 2.0489 12.223 2.027 10.0512.0469 19.9229-3.3217 26.4024-9.0103.7837-.6913 1.5137-1.4177 2.2137-2.1559.2034-.2167.4008-.4394.5982-.662.4966-.5858.9693-1.1248 1.424-1.7048.1077-.1406.2393-.2753.3529-.4159.1137-.1406.1376-.2168.2154-.3222.3171-.4277.5983-.8671.8975-1.3065.1794-.2753.3709-.5565.5444-.8377.2991-.4863.5684-.9843.8316-1.4764.1137-.2109.2453-.4101.347-.621 0-.041.0419-.0937.0658-.1347.1257-.2578.2393-.5214.359-.785.1974-.4277.3949-.8495.5684-1.283.1137-.2929.2154-.5858.3231-.8788.1077-.2929.2333-.5858.335-.9022.0359-.1172.0658-.2343.1017-.3515.0838-.2636.1556-.5331.2273-.8026.1197-.4335.2334-.8671.3351-1.3006.0658-.2753.1196-.5507.1735-.8319.0359-.1816.0838-.3691.1137-.5507s.0658-.5038.1017-.7615c.0359-.2578.0837-.5859.1136-.8319.0539-.4629.0838-.9198.1077-1.3827zm-33.5758-44.4596c1.0318.0675 2.0489.2765 3.0214.621.2154.2343.4307.4745.6341.7206l.2334.3046c.2094.2812.4068.5858.5983.8671l.1436.2284c.0658.1172.1136.2344.1734.3515zm9.4709 32.0456c.8571.1007 1.7051.2652 2.5367.4921.0718 0 .1376.0528.2034.0703.1197.1406.2394.2754.3471.4218.1076.1465.1615.1992.2333.3047.2775.4194.5196.8602.7239 1.3181z" fill="url(#a)"/><path d="m63.7056 45.1874c-2.5755-4.4066-6.4965-7.9121-11.2119-10.0237l-.8376-.3574.4847-.7323c5.6717-8.6061 5.5939-16.4037-.2334-23.1994-4.5649-5.30778-12.3247-8.48892-20.7785-8.53578-3.3663-.03854-6.7129.50895-9.8836 1.61693h.5384l-.5983.04101c-8.7709 3.22214-15.22636 9.42624-15.32807 14.75744-.0718 2.9819 1.95041 5.3839 5.82727 6.9598.6736.2764 1.3939.4274 2.1239.4452 2.9077 0 5.0675-2.8179 6.9821-5.3312.2871-.3925.5982-.785.8854-1.1716 1.4255-1.7775 3.2412-3.2181 5.3126-4.2149 2.0713-.9969 4.3452-1.5246 6.6531-1.544.9319.0042 1.8605.1063 2.7701.3046 5.247 1.1717 10.3743 6.0694 9.6444 11.4885-1.2504 9.2797-14.8974 11.4591-19.0614 11.9043l-.7957.0761c-3.4043.3515-7.6402.7909-9.2496 3.603-.2862.4739-.4446 1.0113-.4603 1.5616-.0157.5504.1118 1.0956.3706 1.5844.4957.8403 1.1728 1.5646 1.984 2.1221.8112.5576 1.737.935 2.7126 1.1059 1.282.2206 2.5811.3323 3.8828.3339h.9274c2.1412-.2179 4.2684-.5524 6.3717-1.0018 2.9306-.661 5.9205-1.0377 8.9264-1.1248 1.7016-.0027 3.3959.218 5.0376.6561 5.4743 1.4822 8.6034 6.0167 7.9632 11.547-.8436 7.159-5.5162 12.4726-12.5042 14.2126-1.699.4359-3.4486.6545-5.2051.6503-8.8905-.041-15.705-5.9229-21.7297-12.2442-.5577-.6288-1.2445-1.1353-2.0156-1.4866s-1.6092-.5394-2.4596-.5521c-4.06236 0-8.44779 3.9603-9.04608 8.2018-1.352128 9.6723 13.60498 15.8119 18.18788 17.4347 3.7466 1.2876 7.6901 1.9394 11.6606 1.9274h1.1547c9.2495-.205 18.2119-3.3685 24.1349-8.5943 9.9615-8.77 12.7196-21.7934 6.8623-32.4206z" fill="url(#b)"/><path d="m31.1317 2.33846c8.4538.04687 16.2136 3.228 20.7785 8.53574 5.8273 6.7841 5.9051 14.5934.2333 23.1994l-.4846.7323.8376.3574c4.7154 2.1117 8.6364 5.6172 11.2119 10.0238 5.8573 10.6272 3.0992 23.6505-6.8623 32.4088-5.9231 5.2258-14.8854 8.3893-24.1349 8.5944 3.1713-.7102 6.2635-1.7247 9.2316-3.0288 9.5726-4.2708 16.2913-12.3672 18.2537-22.1918 2.1299-10.7209-4.4632-22.1566-15.9085-24.3242 4.1222-5.0969 6.306-11.1311 4.6487-17.5753-1.9145-7.5399-10.129-12.1973-17.446-14.19503-2.4284-.66758-4.9383-1.00854-7.4606-1.01349-.9254 0-1.8527.03514-2.7821.10544 3.1701-1.11196 6.5166-1.66344 9.8837-1.62866z" fill="url(#c)"/><path d="m65.1437 44.4901c-2.61-4.4426-6.4937-8.0378-11.17-10.3402 5.582-8.9341 5.3128-17.0773-.8197-24.23631-4.858-5.64754-13.0785-9.039597-22.0109-9.086464-3.5895-.040449-7.1568.554994-10.5299 1.757544-9.3512 3.42719-16.23147 10.21713-16.35711 16.14003-.06581 2.5308 1.07094 6.0517 6.79651 8.3717.8671.3705 1.8003.5696 2.7462.5858 3.7452 0 6.1503-3.1694 8.2802-5.9756.3052-.3925.5983-.7733.8735-1.1717 1.2729-1.5883 2.894-2.8762 4.7435-3.7685 1.8495-.8924 3.8802-1.3664 5.9419-1.3869.8153.0041 1.6277.0944 2.4231.2695 4.5709 1.0135 9.0581 5.2198 8.4418 9.8304-.8854 6.5087-9.6982 9.7309-17.6554 10.5921l-.7838.0761c-3.5897.3633-8.4897.873-10.4939 4.3997-.4101.6764-.6373 1.4439-.6604 2.2301-.023.7862.159 1.5651.5288 2.2633.6056 1.0585 1.4435 1.9721 2.4532 2.6752 1.0098.703 2.1662 1.178 3.386 1.3906 1.3825.2405 2.784.3601 4.188.3574h.9932c2.2104-.2324 4.4071-.5766 6.5812-1.0311 2.8188-.6482 5.6971-1.0172 8.5913-1.1014 1.5551-.002 3.1039.1949 4.6069.5859 4.6965 1.2771 7.3649 5.173 6.8085 9.9593-.7659 6.5087-4.9898 11.3302-11.3136 12.8886-1.5732.3963-3.1919.5932-4.8163.5858-8.2503-.041-14.7477-5.6651-20.5152-11.7169-.7112-.7837-1.5811-1.4139-2.5544-1.8506-.9734-.4368-2.0289-.6704-3.0994-.6861-4.87005 0-9.937543 4.511-10.64352 9.4907-1.53161 10.8381 14.28712 17.3585 19.14512 19.0985 3.9239 1.363 8.0596 2.0489 12.223 2.027 10.0572.0469 19.923-3.3159 26.3964-9.0044 10.5598-9.2387 13.4495-23.0061 7.2752-34.2191zm-63.41835 22.303c.59829-4.2239 4.98372-8.2018 9.04605-8.2018.8504.0127 1.6885.2008 2.4597.5521.7711.3513 1.4579.8578 2.0155 1.4866 6.0248 6.3213 12.8392 12.2032 21.7298 12.2442 1.7564.0042 3.506-.2144 5.2051-.6503 6.988-1.7575 11.6606-7.0301 12.5041-14.2126.6402-5.5303-2.4888-10.0648-7.9631-11.547-1.6418-.4381-3.336-.6587-5.0376-.6561-3.006.0871-5.9959.4639-8.9264 1.1248-2.1033.4494-4.2305.7839-6.3718 1.0018h-.9273c-1.3017-.0016-2.6009-.1133-3.8829-.3339-.9756-.1709-1.9013-.5483-2.7125-1.1059-.8112-.5575-1.4883-1.2818-1.9841-2.1221-.2587-.4888-.3863-1.034-.3706-1.5843.0157-.5504.1741-1.0878.4604-1.5617 1.6094-2.812 5.8452-3.2514 9.2495-3.6029l.7957-.0762c4.188-.4452 17.811-2.6246 19.0614-11.9043.7299-5.4191-4.3974-10.3167-9.6444-11.4884-.9095-.1983-1.8382-.3005-2.77-.3047-2.308.0194-4.5819.5471-6.6532 1.544-2.0714.9969-3.8871 2.4374-5.3126 4.2149-.2931.3808-.5982.7733-.8854 1.1717-1.9145 2.5132-4.0744 5.3487-6.982 5.3311-.7301-.0178-1.4504-.1688-2.1239-.4452-3.87694-1.5759-5.89914-3.9779-5.82734-6.9598.10171-5.3312 6.58114-11.53528 15.38794-14.78086 3.1707-1.10798 6.5173-1.65547 9.8837-1.61693 8.4538.04687 16.2135 3.228 20.7785 8.53579 5.8273 6.784 5.905 14.5933.2333 23.1994l-.4846.7323.8376.3573c4.7153 2.1117 8.6363 5.6172 11.2119 10.0238 5.8572 10.6272 3.0991 23.6505-6.8624 32.4089-5.923 5.2257-14.8854 8.3893-24.1349 8.5943h-1.1547c-3.9705.012-7.914-.6398-11.6606-1.9274-4.6008-1.5818-19.557939-7.7214-18.18188-17.4406z" fill="url(#d)"/></svg>