<svg fill="none" height="94" viewBox="0 0 75 94" width="75" xmlns="http://www.w3.org/2000/svg" xmlns:xlink="http://www.w3.org/1999/xlink"><linearGradient id="a" gradientUnits="userSpaceOnUse" x1="38.8633" x2="27.564" y1="1.20605" y2="89.3336"><stop offset=".31" stop-color="#f26b4f"/><stop offset="1" stop-color="#935d44"/></linearGradient><linearGradient id="b" gradientUnits="userSpaceOnUse" x1="46.022" x2="34.744" y1="2.11346" y2="90.055"><stop offset=".31" stop-color="#e43d25"/><stop offset="1" stop-color="#935d44"/></linearGradient><linearGradient id="c" gradientUnits="userSpaceOnUse" x1="10.8155" x2="70.4409" y1="19.0744" y2="74.9125"><stop offset=".02" stop-color="#f7975e"/><stop offset="1" stop-color="#f47741"/></linearGradient><linearGradient id="d" gradientUnits="userSpaceOnUse" x1="11.7472" x2="71.986" y1="17.554" y2="73.9775"><stop offset=".02" stop-color="#f7975e"/><stop offset="1" stop-color="#f9a573"/></linearGradient><linearGradient id="e" gradientUnits="userSpaceOnUse" x1="339.061" x2="339.488" y1="45.0433" y2="45.0433"><stop offset="0" stop-color="#f89b65"/><stop offset="1" stop-color="#f89b65"/></linearGradient><linearGradient id="f" gradientUnits="userSpaceOnUse" x1="47.5742" x2="67.6339" y1="45.0988" y2="45.0988"><stop offset=".02" stop-color="#f68b5d"/><stop offset="1" stop-color="#f47741"/></linearGradient><path d="m23.827 56.613c3.5399-.1312 7.181-.1421 10.6872-.1531h5.338l6.0235-.1312h.7418v-.6998c.3259-4.6911.5281-8.3215.6293-11.7222.1798-5.9704.4495-12.3673 1.2136-18.5893l.3372-2.7446-5.6189-3.5757-1.7756 2.1869c-1.2474 1.5419-2.5173 3.1384-3.7984 4.7567l-.8316 1.0935c-1.2737 1.6184-2.5511 3.2695-3.8322 4.9535l-.3708.4811-1.607 2.187-.0899.1203c-.7867 1.0935-1.607 2.1104-2.4386 3.1711-.3147.4046-.6181.8092-.9328 1.2028-1.0227 1.2903-2.0565 2.5807-3.0792 3.8272-1.0226 1.2466-2.079 2.5916-3.1242 3.9147l-.9664 1.2466c-.5057.6561-1.0226 1.3012-1.5171 1.9573l-1.2249 1.7715-.9103 1.2356 5.6189 3.5757zm17.2052-3.9037h-.7417c-2.0003.0546-4.0119.0984-6.0235.1312-1.7418 0-3.5287 0-5.338 0h-1.9104l.618-.7873.8766-1.0935 2.8657-3.5757 3.0005-3.7507.9102-1.181c.5844-.7545 1.1238-1.498 1.7532-2.2635l.8091-1.0934c1.1238-1.5637 2.3374-3.0946 3.5174-4.6146.2023-.2624.3934-.5248.5957-.7763-.1012 2.1869-.1911 4.3739-.2585 6.5609-.1011 3.4117-.2922 7.0311-.6181 11.7221z" fill="url(#a)"/><path d="m74.7573 61.621v-.0547c-.0426-.2623-.1026-.5216-.1797-.7764 0-.0984-.09-.1859-.1237-.2843s0-.1093 0-.164-.0899-.1531-.1236-.2296c-.0337-.0766 0-.1422-.0899-.2078l-.1349-.2187c-.1175-.1676-.245-.3282-.382-.4811l-.1911-.2297c-.2329-.2361-.4931-.4453-.7754-.6232l-5.6189-3.5757c.2874.1886.5546.4047.7978.6451.0674.0656.1236.1531.191.2296.1434.1544.2749.3189.3934.4921.1012.164.191.3281.2697.4811.0787.1531 0 .1313.0787.1859l-2.2925-1.5527c-.3186-.195-.6577-.3563-1.0115-.4811h-.1348l-.2135-.0547c-.454-.13-.9213-.2106-1.3935-.2406-.6855 0-1.3598-.0656-2.0341-.0984v-2.8321-1.6949c0-1.3997 0-2.8103 0-4.2318v-1.8043c0-1.9355 0-3.8928.0787-5.8501 0-2.187.1124-4.4396.191-6.6594l.1011-2.1869c0-1.1591.1012-2.351.1461-3.6195 0-.328 0-.7107 0-1.0935 0-.0765 0-.164 0-.2405 0-.4593 0-.9623.0674-1.4762 0-.1531 0-.3062 0-.4702 0-.5687.0788-1.1591.1237-1.7715.045-.6123.1123-1.5199.1573-2.2635 0-.2406 0-.4702 0-.7108 0-.4374 0-.8747 0-1.2903 0-.1093 0-.1968 0-.3061 0-.1094 0-.1859 0-.2734s0-.2734 0-.4155c0-.1422 0-.4703 0-.689 0-.2186 0-.2514 0-.3827 0-.1312 0-.3717 0-.5467 0-.3499 0-.667-.0899-.9842v-.3499-.2952c-.0797-.4391-.1848-.8736-.3147-1.3013 0-.1312-.0898-.2514-.1236-.3827-.0337-.1312-.1236-.39362-.2022-.57951l-.1686-.41553c-.0022-.02548-.0022-.05108 0-.07656-.2133-.48639-.4611-.95772-.7417-1.41059l-.1461-.22963-.0787-.12029c-.2963-.419-.627-.81395-.9889-1.18097l-.1012-.12026-.0674-.05468c-.0479-.04461-.093-.09209-.1349-.14216-.3458-.31844-.7221-.60404-1.1237-.85292l-3.0342-1.9464-2.5398-1.6293c.4408.28781.851.61748 1.2249.98414l.1686.16402c.4135.40835.7895.85108 1.1238 1.32313l-2.9893-1.9136c-.3228-.20346-.6653-.3756-1.0227-.51394h-.1011-.1236l-.5057-.14216-.2136-.06561c-.2516-.0569-.5069-.09709-.7641-.12028.2135.27337.4158.54673.6069.83104-.3697-.07721-.7459-.12113-1.1238-.13121-2.0318.13334-3.9483.96686-5.4055 2.35099-7.8665 6.56088-14.5193 15.01358-20.644 23.10538-2.4723 3.2804-5.1357 6.5062-7.698 9.6227-1.1238 1.3778-2.2476 2.7884-3.3714 4.188l-.6854.8529c-1.1463 1.4216-2.2701 2.8577-3.37142 4.3084l-.31469.4155c-.4645.5905-.91396 1.1919-1.3485 1.8043l-.82041 1.0934-.65175.8748-.13492.175-.66299.9404c-.026.0462-.0561.0901-.08993.1312-.21352.3062-.41577.6124-.60682.9295v.0546c-.19104.3172-.37083.6233-.53939.9404-.01177.0395-.03086.0765-.05625.1094-.19724.3889-.36616.7909-.50565 1.2028v.0875.0875c-.09222.2715-.1636.5492-.21352.831v.0984c-.03298.2029-.05548.4073-.06743.6124v.0875c-.00548.0545-.00548.1095 0 .164v.4811.1312c-.00476.0327-.00476.0658 0 .0985.05356.3222.14401.6377.2697.9404 0 .1093.11234.2187.16853.328.05619.1094.07872.1422.12367.2187.12307.2042.25813.4014.40455.5905.24723.2916.5057.5759.77541.8529l.30338.2734.2922.2515c.38418.3308.78958.6376 1.21371.9185l4.15804 2.6572 1.41598.9076c-2.32657-.3509-4.5556-1.1582-6.55171-2.3729l5.61891 3.5757c3.8322 2.4494 8.7656 2.8103 12.4628 2.8321h2.1578 1.1799c2.8432-.0874 9.26-.3061 13.8788-.3061v.6014c-.2585 2.9852-.5169 5.9595-.7192 8.9447 0 .3171 0 .6561-.0786 1.006 0 .6561-.1237 1.3559-.1349 2.0448v.1312.2516.4155.4702.3936c-.0054.0619-.0054.1241 0 .1859.0051.04.0051.0804 0 .1203.0616.3502.1557.6942.281 1.0279v.0765.1094c.0796.1734.1774.3383.2921.492 0 .0656.1011.1203.1461.175.0453.0609.094.1194.1461.175l.3259.2843c.135.1081.2777.2068.4271.2952l4.8435 3.1055c-.2248 0-.4608 0-.6856-.0547-1.8026-.2278-3.5303-.8442-5.057-1.8042l1.4272.9076 4.158 2.6681c1.5331.9556 3.2634 1.5716 5.0684 1.8042.6327.0884 1.2711.1323 1.9103.1312h1.1238l.5732-.0656c.1798 0 .3708 0 .5506-.0656l.5282-.0984.5619-.1203c.2023 0 .3933-.1093.5956-.164l.4046-.1203c.2149-.0669.4251-.1472.6293-.2405l.3708-.1422c.1798-.0765.3484-.175.517-.2624l.4046-.2078.472-.3062.3596-.2296c.2622-.1968.5094-.4046.7417-.6233.2999-.2789.5744-.5825.8203-.9076l.1911-.2952c.1343-.1941.258-.3948.3708-.6014.0273-.0527.0499-.1076.0675-.1641 0-.0984.0899-.1968.1236-.2952s.1236-.2624.1686-.4046c.0449-.1422.0787-.2952.1124-.4483.0278-.0935.0503-.1884.0674-.2843v-.1422c.0522-.3257.0822-.6545.0899-.9841v-4.2209c0-.4155 0-.842 0-1.2794v-.503c0-.6233 0-1.2575 0-1.8917v-.1312c0-2.8321 0-5.6861-.0675-8.0371h1.7644.4383 1.2249.2697l2.3263-.1094c.329-.0243.6557-.0718.9777-.1421l.2697-.0656c.2286-.0526.4537-.1183.6742-.1969h.1686l.1461-.0656.236-.0984.2023-.0875c.0444-.0354.0935-.0648.146-.0875l.517-.3061.236-.1531c.2121-.1483.4148-.309.6069-.4812h.0674l.1798-.164.1236-.1421c.1349-.1312.2585-.2625.3821-.4046l.1124-.1203.1011-.1312.1124-.1312c.0183-.0388.0409-.0755.0674-.1094.0675-.0984.1461-.1968.2136-.3062.1461-.2187.2809-.4483.4045-.6779.0288-.0821.0625-.1624.1011-.2406.1124-.2406.2136-.4811.3035-.7326.0018-.0365.0018-.073 0-.1094 0-.0984 0-.2077.0786-.3062l.1124-.4045c-.0056-.0363-.0056-.0731 0-.1094v-.1531c.0577-.3177.0878-.6396.0899-.9622v-.0985c.1213-.4468.1929-.9051.2135-1.3668zm-14.6092-3.0837h.7979c1.8542 0 4.1917.0547 6.619.175v.2406c-.0009.3124-.0347.6238-.101.9294-.0172.0959-.0397.1908-.0675.2843 0 .2078-.1124.4156-.1798.6233l-.1686.3828c-.0671.1725-.146.3405-.236.5029-.1011.175-.2022.339-.3146.5031l-.2922.4045c-.137.1646-.2833.3216-.4383.4703-.1124.1202-.2247.2296-.3484.3389-.1701.1433-.3503.2749-.5394.3937-.1227.0936-.2503.1812-.3821.2624-.2249.1141-.4577.2127-.6967.2953l-.3709.153c-.3874.1142-.7872.184-1.1912.2078-1.5171.0875-3.1579.1531-5.0571.1859.1124-2.69.1911-5.3909.2586-8.0809zm-13.7103 29.721c-.6896-.0157-1.377-.0815-2.0565-.1968-.0642-.1863-.1168-.3762-.1573-.5686-.0054-.0984-.0054-.1969 0-.2953v-.4264c0-.1422 0-.2953 0-.4484v-.7873c0-.6998.0787-1.3996.1461-2.0557 0-.3609.0562-.6889.0787-1.006.2022-2.9853.4494-5.9595.7191-8.9447.1236-1.52.2585-3.04.3821-4.5599v-.3718l-.2247-.2296-.1349-.1094-5.6189-3.5757c-.3259-.2077-1.1238-.3499-4.63-.3717-4.675 0-11.7774.2077-14.8228.3061h-1.1238-2.1127c-2.8323.0624-5.6572-.3065-8.3723-1.0935l-.16852-.1749c-.14998-.189-.28879-.3862-.4158-.5905 0-.0547-.05621-.1203-.08992-.175-.03372-.0546-.1461-.2733-.21353-.4045-.12244-.3038-.21279-.6189-.26969-.9404v-.2187c-.01078-.1602-.01078-.321 0-.4812-.00561-.0837-.00561-.1677 0-.2515-.01112-.2076-.01112-.4156 0-.6233 0 0 0-.0656 0-.0984.04604-.2815.11365-.5593.20227-.831l.06742-.1859c.13964-.4048.30864-.7995.50572-1.181.02532-.064.05532-.1261.08986-.1859.15733-.3062.32592-.6123.51697-.9185l.07867-.1312c.16857-.2734.35959-.5468.5394-.8201l.14609-.2187c.20229-.2843.40455-.5796.61806-.8639l.2024-.2734.6068-.8091v-.0547l.1461-.1968.6293-.853c.5394-.7326 1.1238-1.4762 1.6632-2.1869 1.1238-1.4434 2.2476-2.8868 3.3714-4.3084.2247-.2843.4607-.5686.6854-.8638 1.1238-1.3997 2.2476-2.7994 3.3714-4.1771 2.5623-3.1165 5.2144-6.3532 7.6868-9.6227 6.1359-8.0918 12.7662-16.5335 20.644-23.10539.8591-.73204 1.8247-1.33636 2.8656-1.79331.1686.503.326 1.01694.4608 1.55275 0 .16402.0787.33898.1124.50301.1348.54674.2472 1.09348.3371 1.68396l.0674.33898c.0899.5905.1574 1.2028.2248 1.8152l.0674.503c.0675.7873.1237 1.5855.1686 2.4166v.7545 1.7605 1.0935 1.4762 1.7059 1.0934c0 .6015-.0562 1.2138-.0899 1.8262 0 .3608 0 .7107-.0674 1.0934 0 .6561-.0787 1.3232-.1236 1.9902l-.0674.9732-.1686 2.3947c0 .678-.1012 1.3559-.1461 2.0339-.045.678-.0787 1.0935-.1124 1.5746l-.2248 2.0995-.0674 1.006c0 .7545-.0786 1.52-.1236 2.2854v.8201c-.0562 1.0279-.0899 2.0558-.1124 3.0946-.0674 2.7665-.1124 5.5549-.1798 8.3433s-.1236 5.4674-.236 8.2668c-.0053.0215-.0053.044 0 .0656 0 1.0934-.1012 2.2854-.1574 3.4226-.236 4.3739-.5843 8.8244-1.1799 13.2093 0 .2624-.0787.5795-.1236.9076v.1859c-.045.3499-.1012.7144-.1686 1.0935.0053.0399.0053.0803 0 .1202 0 .3062-.1011.6452-.1573.9842s-.0787.3827-.1124.5795l-.1685.8201c-.0342.2099-.0792.4179-.1349.6233-.0562.2734-.1237.5577-.1911.842l-.1685.6233c-.0674.2952-.1574.5795-.236.8639-.0787.2843-.1236.4155-.1911.6232-.0674.2078-.2135.6343-.3259.9514l-.1685.4483z" fill="url(#b)"/><path d="m30.965 34.7113c-2.0565 2.7665-4.2817 5.5439-6.4506 8.2011-2.3375 2.8977-4.7423 5.9048-6.9674 8.9556l-.9103 1.2357 1.607-.0656c3.54-.1312 7.1811-.1422 10.6873-.1422h5.338c2.0116 0 4.0231-.0765 6.0235-.1312h.7417v-.6998c.3259-4.6911.5169-8.3105.618-11.7222.1911-5.9704.4496-12.3673 1.2137-18.5893l.3484-2.7446-1.7756 2.187c-3.3601 4.2318-6.9899 8.7807-10.4737 13.5155zm9.1476 5.5439c-.1011 3.2149-.2809 6.6375-.5843 10.9896l-5.2706.1093c-1.7531 0-3.5175 0-5.3043 0-3.023 0-6.1134 0-9.1813.0984 1.9441-2.6134 4.0231-5.1612 6.0235-7.6544 2.1689-2.69 4.4052-5.4674 6.4843-8.2777 2.8881-3.9037 5.8774-7.6544 8.7543-11.2847-.5507 5.4127-.7754 10.8692-.9665 16.0195z" fill="url(#c)"/><path d="m63.8798 53.7156c-2.7196-.1749-5.4616-.2296-7.653-.2405-.1011-8.1903-.1124-16.9491.2248-25.7407l.0898-2.187c.0562-1.1591.1124-2.351.1461-3.6085-.0124-1.6975.0626-3.3945.2248-5.0847.3297-2.8256.3523-5.6771.0674-8.50731-.9103-4.80041-4.1243-8.037127-7.9901-8.048062-2.4387.109883-4.7523 1.081922-6.5067 2.733712-7.9902 6.67027-14.6992 15.18856-20.8801 23.35686-2.4498 3.2805-5.102 6.4625-7.653 9.5789-3.0904 3.7507-6.27071 7.6545-9.18132 11.6238l-.80917 1.0935c-2.50605 3.2805-5.9111 7.8622-2.5622 12.0283 3.87707 4.8223 10.64229 5.3909 15.37339 5.4675h2.1577 1.1912c3.023-.0984 10.1141-.3281 14.7329-.3062 1.9441 0 2.9106.0765 3.3714.1093l-.3372 3.9475c-.2584 2.9962-.5169 5.9923-.708 8.9776 0 .2952-.0562.6232-.0899.9622-.2247 2.515-.5281 5.9486 1.8768 7.7091 2.1847 1.519 4.8107 2.3196 7.4957 2.2854 2.8781.1211 5.6941-.8379 7.8665-2.6791.66-.5963 1.1863-1.3188 1.546-2.1222.3597-.8035.545-1.6706.5442-2.5469 0-4.4943 0-11.263-.0787-15.9868 2.3151 0 4.248-.0984 6.0124-.2187 1.8557-.1869 3.5768-1.0289 4.8379-2.3667 1.261-1.3379 1.9746-3.079 2.0059-4.8941.0899-2.4603-1.3373-5.0737-5.3155-5.3362zm-23.8918 32.575c-1.7419-1.2685-1.4834-4.1115-1.2699-6.386 0-.3499.0675-.6889.0787-1.006.2023-2.9852.4608-5.9595.7192-8.9447.1237-1.5199.2585-3.0399.3933-4.5598v-.3609l-.2359-.2406c-.2697-.2843-.4833-.503-4.7986-.5248-4.675 0-11.7773.2077-14.8228.3062h-1.1238-2.1127c-4.7874 0-10.68728-.6015-14.12608-4.8333-2.6409031-3.2804.15733-6.9545 2.59596-10.2131l.82041-1.0935c2.88814-3.9584 6.05721-7.8184 9.13631-11.5691 2.5623-3.1164 5.2257-6.3531 7.698-9.6227 6.1247-8.0918 12.7663-16.5335 20.6441-23.10534 1.4572-1.38413 3.3736-2.21764 5.4054-2.35099.3779.01008.7541.054 1.1238.13121 2.8881.6561 4.7087 3.68505 5.2705 6.6812.2635 2.71082.2371 5.44092-.0786 8.14652-.1649 1.7265-.2362 3.4602-.2135 5.194 0 1.2029-.1012 2.3838-.1574 3.532l-.0898 2.1869c-.3597 9.0869-.3147 18.1191-.2248 26.539v.7326h.7978c2.3038 0 5.3269.0765 8.3498.2624 3.5063.2297 3.8771 2.6791 3.8659 3.7288-.0103 1.427-.5582 2.8008-1.54 3.8609s-2.3292 1.7329-3.7868 1.8909c-1.9554.1093-4.0906.1859-6.7428.2187h-.7978v.7435c.0674 4.7348.1123 12.0284.1011 16.7413-.0036.6727-.1478 1.3376-.4241 1.9543-.2763.6166-.6788 1.172-1.1829 1.6323-1.595 1.3206-3.5946 2.0896-5.6864 2.187-.3484 0-.708 0-1.1238 0-2.3002.0496-4.5591-.6003-6.4618-1.8589z" fill="url(#d)"/><path d="m63.7664 55.2565c-3.023-.1859-6.046-.2297-8.3498-.2625h-.7416v-.7326c-.09-8.4199-.1349-17.4958.2247-26.5389l.0899-2.187c0-1.1482.1124-2.3291.1573-3.532-.0227-1.7338.0486-3.4675.2135-5.194.3158-2.7056.3421-5.4357.0787-8.1465-.5619-2.99615-2.3824-6.02511-5.2706-6.6812-.3696-.07721-.7458-.12113-1.1237-.13121-2.0318.13334-3.9483.96686-5.4055 2.35099-7.8665 6.56092-14.5193 15.01352-20.644 23.10532-2.4723 3.2805-5.1357 6.5063-7.6979 9.6227-3.0792 3.7507-6.2483 7.6544-9.13645 11.5691l-.82041 1.0935c-2.43862 3.2805-5.236857 6.9546-2.59595 10.2132 3.4388 4.2318 9.33871 4.8113 14.12601 4.8332h2.1128 1.1238c3.0454-.0984 10.1141-.3281 14.8228-.3062 4.3153 0 4.4951.2406 4.7986.5249l.2359.2405v.3609c-.1348 1.5199-.2697 3.0399-.3933 4.5598-.2585 2.9852-.5169 5.9595-.7192 8.9447 0 .3171 0 .6561-.0787 1.0061-.2135 2.2744-.472 5.1175 1.2699 6.3859 1.9019 1.3062 4.179 1.995 6.5068 1.9683h1.1238c2.0917-.0974 4.0914-.8665 5.6863-2.187.5042-.4603.9066-1.0157 1.1829-1.6324.2763-.6166.4206-1.2815.4241-1.9542 0-4.7348 0-12.0284-.1011-16.7413v-.7436h.7979c2.6521 0 4.7873-.1093 6.7427-.2187 1.4576-.1579 2.805-.8307 3.7868-1.8908s1.5297-2.4339 1.54-3.8609c-.0899-1.1919-.4607-3.6413-3.967-3.8381zm-20.8463-33.5045c-.7642 6.2001-1.0226 12.597-1.2137 18.5893-.1011 3.4117-.2922 7.0311-.6181 11.7222v.6998h-.7417c-2.0003.0547-4.0119.0984-6.0235.1312-1.7418 0-3.5287 0-5.338 0-3.5062 0-7.1473 0-10.6872.1422l-1.607.0656.9102-1.2357c2.2476-3.0508 4.6301-6.0579 6.9675-8.9556 2.169-2.6572 4.3941-5.4674 6.4506-8.2011 3.495-4.7348 7.1136-9.2838 10.5299-13.5265l1.7756-2.187z" fill="url(#e)"/><path d="m50.114 1.97168c2.8881.65609 4.7087 3.68505 5.2706 6.6812.2634 2.71082.237 5.44092-.0787 8.14652-.1649 1.7265-.2362 3.4602-.2135 5.194 0 1.2028-.1012 2.3838-.1574 3.532l-.0898 2.1869c-.3596 9.0869-.3147 18.1191-.2248 26.539v.7326h.7979c2.3037 0 5.3268.0765 8.3498.2624 3.5062.2297 3.877 2.6791 3.8658 3.7288-.0102 1.427-.5582 2.8008-1.54 3.8609s-2.3292 1.7329-3.7868 1.8909c-1.9554.1093-4.0906.1858-6.7428.2187h-.7978v.7435c.0674 4.7348.1123 12.0284.1011 16.7413-.0035.6727-.1478 1.3376-.4241 1.9543-.2763.6166-.6788 1.172-1.1829 1.6323-1.5949 1.3205-3.5946 2.0896-5.6864 2.187 1.7644-3.6085 2.4499-8.5839 2.787-11.0333 1.4834-11.0223 1.5059-22.2196 1.7644-33.3076.3933-16.2382 3.8658-33.0561-2.0116-41.89142z" fill="url(#f)" opacity=".36"/></svg>