<svg fill="none" height="91" viewBox="0 0 76 91" width="76" xmlns="http://www.w3.org/2000/svg" xmlns:xlink="http://www.w3.org/1999/xlink"><linearGradient id="a"><stop offset="0" stop-color="#54a6dc"/><stop offset=".28" stop-color="#1172ba"/><stop offset=".31" stop-color="#257abf"/><stop offset=".94" stop-color="#094977"/></linearGradient><linearGradient id="b" gradientUnits="userSpaceOnUse" x1="31.6791" x2="13.5567" xlink:href="#a" y1=".748969" y2="104.773"/><linearGradient id="c" gradientUnits="userSpaceOnUse" x1="47.5378" x2="29.1683" xlink:href="#a" y1="2.48351" y2="107.951"/><linearGradient id="d" gradientUnits="userSpaceOnUse" x1=".040861" x2="69.6297" y1="43.8206" y2="43.8206"><stop offset=".01" stop-color="#96cff1"/><stop offset="1" stop-color="#54a6dc"/></linearGradient><linearGradient id="e"><stop offset="0" stop-color="#54a6dc"/><stop offset="1" stop-color="#257abf"/></linearGradient><linearGradient id="f" gradientUnits="userSpaceOnUse" x1="-32.3141" x2="97.4174" xlink:href="#e" y1="-9.6117" y2="92.2542"/><linearGradient id="g" gradientUnits="userSpaceOnUse" x1="18.0879" x2="68.025" xlink:href="#e" y1="34.2098" y2="34.2098"/><path d="m11.3512 59.4258c1.7952 1.2599 3.5905 2.7425 5.3498 4.1841 2.0678 1.7831 4.2418 3.4444 6.5107 4.9752l5.5711 3.5864c-2.2738-1.5292-4.4519-3.1906-6.5226-4.9752-1.7234-1.4416-3.5306-2.9301-5.3498-4.1841l-.353-.2403-5.5652-3.5864.0479.0352-.0479-.0352z" fill="url(#b)"/><path d="m75.0825 58.16c.0539-.586.0898-1.2013.1017-1.799 0-.0352 0-.0645 0-.0997 0-.0351 0-.1875 0-.2812 0-.5274 0-1.049-.0359-1.5706 0-.1758 0-.3574-.0359-.5332-.0419-.586-.1017-1.172-.1915-1.758-.0028-.0312-.0028-.0626 0-.0938-.0598-.3926-.1376-.7794-.2154-1.172-.0598-.2754-.1257-.545-.1915-.8204s-.1436-.6212-.2334-.9318c-.0538-.1875-.1256-.375-.1795-.586-.0897-.293-.1795-.586-.2812-.8731-.1018-.2872-.1556-.4044-.2334-.586-.0778-.1817-.2035-.5391-.3172-.8029.0025-.0214.0025-.043 0-.0644-.0419-.0938-.0897-.1817-.1316-.2754-.1855-.4102-.371-.8146-.5984-1.2131-.0838-.1758-.1796-.3457-.2753-.5215-.1795-.3399-.371-.6739-.5984-1.008-.1017-.1816-.2094-.3574-.3231-.5332-.2214-.3458-.4429-.6798-.6762-1.0197l-.3172-.457c-.3531-.4806-.7121-.9552-1.1011-1.424-.5984-.7033-1.1968-1.3772-1.861-2.0335l-.1496-.1699c-.1197-.1172-.2633-.2227-.383-.3399-.5984-.586-1.1968-1.131-1.873-1.6643-.2274-.1816-.4488-.3692-.6822-.5508-.8378-.6505-1.6935-1.2834-2.6031-1.8694l-5.5652-3.5863c.9096.586 1.7953 1.213 2.6031 1.8635l.6882.586c.6463.5332 1.2686 1.0841 1.861 1.6525.1795.1758.371.3399.5446.5157l.0359.041c-.2035-.1348-.401-.2871-.5984-.4219l-5.5652-3.5805c-.2394-.1582-.5027-.2989-.754-.4512-6.4286-3.8562-13.8126-5.9152-21.3512-5.9539-.8078 0-1.6157 0-2.3936.0645.0419-.7091.0718-1.3713.0957-2.0042 3.2507.3509 6.5198.5114 9.79.4806 1.7952 0 3.5306.0469 5.2301.1348 1.6994.0879 3.4827.2402 5.242.3984 2.5612.2169 5.2121.4454 7.8332.463h.7899c.5616-.0098 1.1217-.0607 1.6755-.1524.0438-.0026.0878-.0026.1316 0h.0479c.1436 0 .2813-.0703.4189-.0996.3531-.0762.7121-.1641 1.0592-.2696.0897 0 .1795-.0351.2633-.0644h.0658c.1676-.0528.3291-.1231.4967-.1875l.4009-.1524c.399-.1563.7819-.3321 1.149-.5274l.1017-.0527c.4114-.2156.8109-.4523 1.1968-.7091l.3231-.2227c.2693-.1934.5386-.3926.7899-.586.1197-.0938.2274-.1875.3411-.2872.2574-.2226.5027-.457.7421-.6973.0837-.082.1675-.1582.2393-.2403.3033-.3188.5889-.6533.8558-1.002l.0359-.0469c0-.0293.0418-.0703.0658-.0996.1675-.2344.3411-.4688.4907-.715.1256-.1933.2393-.3985.353-.586 0-.0351.03-.0761.0479-.1054.0157-.0325.0337-.0639.0539-.0938.1256-.2461.2154-.504.3171-.7559.0658-.1583.1496-.3106.2035-.4689 0 0 0-.041 0-.0644.0124-.0203.0224-.042.0299-.0645.1312-.3986.2332-.806.3052-1.2189v-.1582l.1197-.3457c0-.0586.0299-.1172.0478-.17.0846-.2855.1545-.5749.2095-.8673.0168-.0539.0307-.1087.0419-.1641.0027-.0214.0027-.043 0-.0644.0625-.3702.0985-.7442.1077-1.1193.0029-.0292.0029-.0587 0-.0879 0-.0469 0-.0938 0-.1406.0043-.3921-.0217-.78385-.0778-1.17204.0029-.03315.0029-.06649 0-.09963 0 0 0 .00001 0-.04101-.0483-.29798-.1122-.59333-.1915-.88488 0-.07032-.0539-.14065-.0718-.21097-.0662-.21874-.1441-.43389-.2334-.64459.0026-.02533.0026-.05085 0-.07618-.0898-.20511-.1855-.41021-.2932-.58601-.0826-.15121-.1766-.29616-.2813-.43364l-.2154-.293c-.3743-.33619-.7744-.64377-1.1968-.92004l-5.5652-3.58635c.4239.27637.8242.58601 1.1968.92588l.2155.28714c.1067.13606.2008.2812.2812.43365.0957.1758.1795.36332.2573.54498l-2.3936-1.54706c-.4577-.29029-.9334-.55254-1.4242-.78525-.8976-.04688-1.7952-.06446-2.6809-.09376.0778.24612.1496.49226.2095.74424-3.8657-.1465-7.9349-.22854-12.3751-.25198-3.2853 0-6.5825 0-9.8857.03516-1.6097 0-3.2374.03515-4.871.04101-3.5127 0-7.145.04688-10.7175.16408h-.9216c-3.2912.08204-7.3783.19339-9.8198 2.17409-.3484.28851-.6744.60189-.9754.9376l-.2514.293c-.0837.10548-.1855.20512-.2633.3106-.0777.10549-.1137.2051-.1855.30472-.19226.27611-.37002.56167-.53254.85557-.04787.09962-.11969.18751-.17355.28713-.05385.09962-.05983.15237-.08975.22269-.19056.40157-.36033.8123-.50865 1.23062 0 .0879-.07181.16407-.09575.25197-.02394.08791.00001.06447-.02991.09377-.06583.21096-.11969.43365-.17953.65047s-.14362.49812-.19747.75592c-.05386.2579-.09575.4747-.14362.7149-.04788.2403-.08976.3927-.11968.5861-.00295.0351-.00295.0703 0 .1054-.17953 1.0431-.30519 2.1038-.43086 3.1586-.12566 1.0548-.25133 2.2503-.35905 3.4106-.0359.3106-.05983.6153-.08975.9317-.10772 1.2306-.20945 2.473-.28126 3.7446v.041c-.05186.922-.08776 1.8538-.1077 2.7953v.92.9669c0 1.301.04188 2.596.13763 3.9028l.04787.9025c0 .1992 0 .4336.04188.6856v.2696c0 .2754.04189.586.06583.8848v.2403c.0359.334.06582.6739.10173 1.0314v.2051c.04787.375.09575.7618.15559 1.1427v.0938c.04189.2519.08378.4981.13165.75.01216.0909.03015.1809.05385.2696.04189.1992.0778.3985.12567.586 0 .0938.04188.1817.06582.2696.05984.2226.11969.4395.18551.6504.01118.0496.02516.0985.04189.1465.08377.254.17353.4942.26928.7208-.00156.0156-.00156.0313 0 .0469 0 .0352.03591.0645.04787.0996.08378.1817.17354.3575.2633.5157l.10772.1758c.10306.163.21911.3178.34707.463 0 0 0 .0351.04189.0468.11257.1196.2391.2258.377.3165l2.72872 1.758c-.3829.0697-.7715.105-1.1609.1055-.5256.0001-1.04894-.0689-1.55586-.2051-.31881-.0856-.62177-.2201-.89761-.3985l5.56517 3.5864c.2753.1794.5784.314.8976.3984.5092.1361 1.0341.207 1.5619.211 1.9293-.0654 3.7834-.7489 5.2779-1.9455 3.8478-2.8715 9.0479-4.4361 14.6251-4.4068.6942 0 1.3823.0293 2.0645.0762 4.6119.3065 9.0719 1.7389 12.9735 4.1665l-5.5652-3.5805c-.5984-.3809-1.1968-.7267-1.8371-1.0607l-.5146-.2578c1.9976.4661 3.9392 1.1379 5.7925 2.0041.3292.2872.6762.586.9754.8673s.5985.6329.9156.961c.377.4278.7241.879 1.0532 1.3303l.2693.3867c.2513.3692.4847.7443.7061 1.1252.0598.0996.1197.1992.1736.2988.2507.4607.4764.9341.6761 1.4182.1496.3574.2693.7266.389 1.0899.0718.2169.1616.4337.2214.6564.1257.4395.2095.8848.2932 1.3302 0 .1641.0778.3282.1018.4923v.1347c.0658.4923.1137.9904.1316 1.4885v.4864c0 .4395 0 .879-.0299 1.3244v.3516c-.0539.586-.1316 1.172-.2453 1.7873-.1182.6199-.274 1.2324-.4668 1.8342-.0479.1348-.1077.2696-.1556.4043-.1859.5309-.4017 1.0513-.6463 1.5588-.1256.2637-.2513.5216-.3889.7735-.1377.252-.1855.3399-.2873.5099-.1974.3223-.4009.6328-.5984.9434l-.2633.3751c-.0778.1113-.1735.2168-.2633.3281-.3931.5051-.8147.9883-1.2626 1.4475-.1317.1406-.2633.2812-.401.4102-.5243.4792-1.0757.9292-1.6516 1.3478l-.2752.1992c-.5326.3985-1.0831.7677-1.6516 1.1193l-.5206.3165c-.6583.375-1.3285.7383-2.0227 1.0548l-.2573.1113c-.5984.2813-1.2746.5391-1.9268.7735l-.5984.1993c-.7301.2402-1.4662.4629-2.2142.6446h-.1496c-.7121.1641-1.4242.293-2.1363.3985l-.5984.082c-.76.0996-1.514.1758-2.262.2051-.2633 0-.5266 0-.7899 0-2.8946-.0421-5.7368-.7636-8.2879-2.1038-1.2866-.9845-2.5552-2.0158-3.8059-3.053-1.7952-1.4826-3.4767-2.8773-5.236-4.1021l-.3052-.2051-5.5652-3.5864c-.85815-.6151-1.8771-.9789-2.93819-1.0489-.25897.0017-.51655.0372-.76596.1055-.06352.0113-.12567.029-.18551.0527-.23937.0684-.46868.1669-.68218.293-.21365.1425-.41391.3033-.59841.4805l-.13764.129c-.5235.5379-.95762 1.1528-1.28657 1.8224v.0352c-.26943.5346-.49553 1.0891-.67621 1.6584v.0645.0879c-.11369.3633-.2214.7383-.31116 1.1192l-.05386.211c-.08977.3867-.17354.7794-.23936 1.172.00339.0154.00339.0314 0 .0469-.08378.4864-.14961.9728-.19748 1.4474-.04787.4747-.10173 1.0021-.14362 1.4826v.4337c-.02992.3398-.04787.6739-.06583 1.002v.2696.375.3985c0 .2579.02993.5157.05985.7619-.0059.0995-.0059.1992 0 .2988-.00297.0253-.00297.0509 0 .0762.04998.316.11791.629.20346.9376 0 .0586.04787.1172.06582.1758.06612.2245.14402.4455.23338.6622.02033.0339.03832.0692.05385.1055.12372.2533.26156.4998.41291.7383.07181.1231.13165.2403.20944.3634.26402.3847.56025.7473.88564 1.0841l.2633.2637c.29322.2988.59842.586.93951.8321.17952.1523.34109.3164.52061.4571.55212.4412 1.12737.8539 1.72342 1.2365h.04188l5.52331 3.557c1.355.8578 2.7777 1.6083 4.2547 2.2444-1.2158-.312-2.4142-.6856-3.5905-1.1193-.5086-.1933-1.0532-.4043-1.6217-.6387-1.9204-.7695-3.7652-1.7091-5.5113-2.807l5.5652 3.5805c1.7441 1.0995 3.5868 2.041 5.5053 2.8129.5984.2344 1.1191.4512 1.6277.6387 4.6191 1.6665 9.505 2.5119 14.4276 2.4964 5.6358.0312 11.235-.8886 16.552-2.7191.8617-.3047 1.7054-.6387 2.5372-.9962l.766-.3457c.5685-.2579 1.1369-.5274 1.6935-.8087l.8377-.4395c.5326-.2872 1.0592-.586 1.5798-.9025.2514-.1523.5027-.293.748-.4512.6284-.3985 1.2507-.8145 1.8491-1.2423.1077-.0762.2274-.1465.3351-.2286.7002-.5098 1.3823-1.0489 2.0466-1.5998.1915-.1641.377-.3398.5984-.5039.4608-.4044.9155-.8146 1.3584-1.2365l.6582-.6563c.401-.4044.7899-.8146 1.1968-1.2365.2035-.2227.407-.4454.5984-.6739.4189-.4923.8258-.9962 1.1969-1.5002.1077-.1348.2274-.2637.3291-.4043 0 0 .0359-.0586.0598-.0821.5565-.7501 1.0771-1.5177 1.5738-2.2971.1317-.211.2514-.4219.377-.6329.383-.6329.742-1.2717 1.0831-1.9221.0719-.1407.1616-.2696.2274-.4102.0659-.1406.0838-.1817.1257-.2696.2513-.5098.4847-1.0255.7121-1.547.0957-.2286.2095-.4571.3052-.6974.3052-.7501.5984-1.5119.8438-2.2913v-.041c.2214-.6856.4248-1.3771.5984-2.0745.1735-.6973.3231-1.4064.4548-2.1037 0-.0879.0418-.1817.0538-.2637.012-.0821 0-.1993.0419-.2989.0778-.4629.1317-.9259.1855-1.3888-.0419-.0528-.0179-.211 0-.3692z" fill="url(#c)"/><path d="m63.6875 36.1204c-6.6603-8.0576-18.1617-13.0738-30.076-13.1441-2.7871-.0254-5.5692.2379-8.2999.7853 0-.4337.0539-.8732.0898-1.3069.1556-1.6056.2393-2.9944.2812-4.2602 3.2508.3498 6.5197.5122 9.79.4864 1.7952 0 3.5306.041 5.23.1289 1.6995.0879 3.4828.2403 5.2421.3985 2.5612.2168 5.2121.4453 7.8332.4629h.7898c5.7687-.0762 11.4715-4.6119 12.2495-9.74527.4163-1.0795.5984-2.23214.5345-3.38438-.0639-1.15225-.3723-2.2788-.9056-3.30781-.0803-.15245-.1745-.29757-.2812-.43364l-.2154-.28715c-.8072-.71463-1.7189-1.30717-2.7048-1.758022l-.3352-.082031c-4.5897-.199243-9.4608-.322308-14.8644-.351608-3.2972 0-6.5825-.000001-9.9096.035159-1.6157 0-3.2434.035165-4.8591.041025-3.5306 0-7.1809.04688-10.7713.164081h-.9276c-3.5306.093761-7.9408.205094-10.8132 2.537396-3.71609 3.00036-4.26064 7.64735-4.78723 11.96035-.59841 4.9694-1.10706 10.8529-.68818 16.7657l.05386.8732c.20945 3.5863.56848 10.2609 4.13499 11.2337.50692.1362 1.03026.2052 1.55586.2051 1.9316-.0582 3.7893-.7401 5.2839-1.9397 3.8478-2.8714 9.048-4.4361 14.6251-4.4068 7.6477.0352 14.9602 3.0004 19.1491 7.7236 1.5158 1.6781 2.6134 3.6777 3.2063 5.8415.5929 2.1639.665 4.433.2106 6.6287-1.6337 8.6143-11.274 13.6071-19.5201 13.947-.2453 0-.4847 0-.7241 0-6.5286-.0352-11.6509-4.272-16.5998-8.3682-1.7354-1.4416-3.5366-2.93-5.3497-4.1841-1.2017-.9233-2.66383-1.4633-4.18889-1.547-4.27862 0-6.361076 5.2154-6.863738 10.1262-.412901 3.8149-.742026 7.1258 2.327808 10.3254 3.21344 3.3578 7.74342 5.3151 10.87302 6.4871 4.6211 1.6669 9.509 2.5123 14.4336 2.4964 5.6381.042 11.2414-.868 16.5639-2.6898 12.1597-4.272 21.2196-13.8004 24.2356-25.4913 2.1901-8.4092.4667-16.3437-5.0087-22.9656zm-19.7475 47.0505c-5.133 1.7718-10.541 2.6581-15.9834 2.6194-4.7284.0254-9.4229-.7825-13.8592-2.385-2.992-1.1193-7.27658-2.9652-10.27461-6.0886-2.59708-2.7132-2.31583-5.4206-1.92088-9.1652.4129-4.061 2.04057-8.7901 5.25402-8.7901 1.18636.0891 2.31725.5284 3.24337 1.26 1.7653 1.2189 3.4468 2.6194 5.2361 4.102 5.1882 4.2837 10.5439 8.708 17.659 8.7432h.7899c9.0958-.3633 19.2447-5.7077 21.028-15.1893.5073-2.4116.4328-4.9059-.2175-7.2845-.6503-2.3785-1.8585-4.5755-3.5285-6.4163-4.4522-5.0631-12.2494-8.2334-20.3459-8.2744-5.9362-.0293-11.4834 1.6525-15.6304 4.7291-1.2098.9785-2.7112 1.5461-4.2786 1.6173-.3799-.0006-.7581-.0499-1.12501-.1465-2.45945-.668-2.83046-7.3426-2.99203-9.8507l-.04788-.9025c-.42487-5.8073.10771-11.6029.70014-16.7129.46676-4.0024.95147-8.1572 4.18888-10.76493 2.4415-1.9807 6.5286-2.09204 9.8198-2.17408h.9216c3.5904-.1172 7.1809-.14064 10.7175-.16408 1.6336 0 3.2613-.00001 4.871-.04103 3.3032-.04102 6.5825-.04688 9.8857-.03516 4.4402 0 8.5093.10548 12.3751.25198l2.256.09963c.7966.36321 1.5281.84999 2.1662 1.44157l.1855.29887c.442.8832.6911 1.84698.7312 2.82976.0402.98278-.1293 1.96296-.4978 2.87794-.5984 3.96143-5.26 8.45023-10.6936 8.50293h-.7659c-2.5492 0-5.1643-.2461-7.7015-.4629-1.7593-.1582-3.5247-.3047-5.2959-.3985-1.7713-.0938-3.4888-.1113-5.29-.1348-3.5043.0414-7.0073-.1544-10.4841-.586l-.9215-.1523v.8848c0 1.4767-.1017 3.0648-.2932 5.0162-.0659.7736-.0958 1.5647-.1197 2.3441v.9962l1.0113-.2403c2.9215-.6608 5.9119-.9853 8.9103-.9669 11.4296.0586 22.4762 4.8697 28.8313 12.5757 5.1582 6.2351 6.7919 13.736 4.7453 21.6822-.681 2.6367-1.6856 5.1829-2.992 7.583-4.3822 7.8955-11.6099 13.91-20.2741 16.8711z" fill="url(#d)"/><path d="m62.4138 37.0579c-6.3551-7.706-17.4017-12.5171-28.8313-12.5757-2.9844-.0153-5.9605.3092-8.8684.9669l-1.0113.2402v-.9962c0-.8028.0539-1.5939.1197-2.344.1915-1.9514.2812-3.516.2932-5.0162v-.9083l.9215.1406c3.4768.4316 6.9798.6274 10.4841.586 1.7953 0 3.5905.0469 5.29.1348 1.6994.0879 3.5366.2403 5.2959.3985 2.5372.2168 5.1523.4454 7.7015.4629h.7659c5.4336-.0527 10.1251-4.5415 10.7235-8.64943.3546-.89368.5143-1.85012.469-2.80787-.0454-.95775-.2948-1.89561-.7323-2.75333l-.2573-.39849c-.6304-.54135-1.3355-.99308-2.0944-1.34195l-2.256-.09962c-3.8658-.14651-7.9349-.22854-12.3751-.25198-3.2853 0-6.5825 0-9.8857.03516-1.6097 0-3.2374.03516-4.871.04102-3.5127 0-7.145.04688-10.7175.16408h-.9216c-3.2912.08204-7.3783.19338-9.8198 2.17408-3.2374 2.60773-3.72211 6.76253-4.18887 10.97003-.59841 4.9049-1.10705 10.7005-.68218 16.5078l.04787.9025c.1496 2.5081.52061 9.1827 2.99208 9.8507.3668.0966.745.1459 1.125.1465 1.5674-.0713 3.0688-.6388 4.2786-1.6173 4.1469-3.0766 9.6942-4.7584 15.6304-4.7291 8.1084.041 15.9056 3.2113 20.3458 8.2744 1.67 1.8408 2.8782 4.0378 3.5286 6.4163.6503 2.3785.7248 4.8729.2175 7.2845-1.7953 9.4816-11.9323 14.826-21.0281 15.1893-.2633 0-.5266 0-.7899 0-7.115-.0351-12.4708-4.4595-17.659-8.7432-1.7952-1.4767-3.4707-2.8773-5.236-4.102-.92616-.7316-2.05705-1.1709-3.24341-1.26-3.21345 0-4.84111 4.6881-5.25401 8.7901-.39495 3.7446-.67621 6.4461 1.92088 9.1652 2.99203 3.1234 7.30054 4.9693 10.27464 6.0886 4.4344 1.6018 9.1268 2.4097 13.8531 2.385 5.4419.0377 10.8494-.8465 15.9835-2.6135 8.646-2.9672 15.8584-8.9735 20.2381-16.8536 1.3064-2.4 2.3111-4.9462 2.9921-7.5829 2.0346-7.9345.4009-15.4354-4.7693-21.6705z" fill="url(#f)"/><path d="m60.4252 2.09668 2.256.09963c.759.34886 1.464.8006 2.0944 1.34194l.2573.3985c.4375.85772.687 1.79558.7323 2.75332.0454.95775-.1144 1.91419-.469 2.80787-.5984 4.10206-5.2899 8.59676-10.7234 8.64946h-.766c-2.5492 0-5.1643-.2461-7.7015-.4629-1.7593-.1583-3.5246-.3048-5.2959-.3985-1.7713-.0938-3.4887-.1114-5.2899-.1348-3.5043.0414-7.0074-.1544-10.4841-.586l-.9216-.1407v.8849c0 1.4767-.1017 3.0648-.2932 5.0162-.0658.7735-.0957 1.5647-.1197 2.344v.9963l1.0113-.2403c2.9216-.6608 5.9119-.9853 8.9103-.9669 11.4296.0586 22.4762 4.8697 28.8313 12.5757 5.1583 6.2351 6.7919 13.736 4.7454 21.6822-.6811 2.6367-1.6857 5.1829-2.9921 7.583.7948-2.3504 1.3343-4.7762 1.6097-7.2372 1.2986-11.31-3.8417-21.2017-13.9129-27.1673-6.3463-3.6653-13.5765-5.6053-20.9443-5.6198-3.888-.033-7.7591.5063-11.4834 1.5998-1.004-3.5806-1.4578-7.2878-1.3464-10.9993.0897-1.5823 1.2805-1.887 2.609-1.8811.4368 0 .8857.0351 1.3165.0703.4309.0352.748.0645 1.0831.0645 2.1543 0 4.147-.0762 6.1337-.1465 7.4502-.2344 14.9602-.9201 22.2129-2.7484 4.494-1.1369 8.4435-3.15858 9.0599-7.84663.0983-.7647.0577-1.5404-.1197-2.29129z" fill="url(#g)"/></svg>