<svg fill="none" height="88" viewBox="0 0 68 88" width="68" xmlns="http://www.w3.org/2000/svg" xmlns:xlink="http://www.w3.org/1999/xlink"><linearGradient id="a" gradientUnits="userSpaceOnUse" x1="49.2711" x2="31.0289" y1="7.74965" y2="84.4899"><stop offset=".01" stop-color="#ee6c87"/><stop offset=".17" stop-color="#f27b93"/><stop offset=".36" stop-color="#f27b93"/><stop offset=".67" stop-color="#ec6e8b"/><stop offset=".77" stop-color="#ea657c"/><stop offset=".89" stop-color="#e85e71"/><stop offset=".91" stop-color="#eb677e"/><stop offset=".94" stop-color="#ed6b84"/><stop offset=".96" stop-color="#e45a6d"/><stop offset=".98" stop-color="#dd4e5c"/><stop offset=".99" stop-color="#db4a56"/></linearGradient><linearGradient id="b" gradientUnits="userSpaceOnUse" x1="45.7398" x2="27.4633" y1="6.78983" y2="83.6766"><stop offset=".01" stop-color="#ee6c87"/><stop offset=".17" stop-color="#f27b93"/><stop offset=".27" stop-color="#ec6e8b"/><stop offset=".32" stop-color="#ea657c"/><stop offset=".38" stop-color="#e85e71"/><stop offset=".44" stop-color="#eb667b"/><stop offset=".58" stop-color="#f0768d"/><stop offset=".69" stop-color="#f27b93"/><stop offset=".73" stop-color="#ee7288"/><stop offset=".9" stop-color="#e05564"/><stop offset=".99" stop-color="#db4a56"/></linearGradient><linearGradient id="c" gradientUnits="userSpaceOnUse" x1="-2.70054" x2="55.0656" y1="-13.2968" y2="78.1771"><stop offset="0" stop-color="#f69ea4"/><stop offset=".54" stop-color="#f48895"/><stop offset=".9" stop-color="#f48895"/></linearGradient><linearGradient id="d" gradientUnits="userSpaceOnUse" x1="-3.07983" x2="51.3821" y1="-18.4479" y2="79.3826"><stop offset="0" stop-color="#f69ea4"/><stop offset=".54" stop-color="#f48895"/><stop offset=".9" stop-color="#f16b78"/></linearGradient><linearGradient id="e"><stop offset="0" stop-color="#f69ea4"/><stop offset="1" stop-color="#f48895"/></linearGradient><linearGradient id="f" gradientUnits="userSpaceOnUse" x1="-22.8325" x2="64.6507" xlink:href="#e" y1="17.1063" y2="57.3237"/><linearGradient id="g" gradientUnits="userSpaceOnUse" x1="-2.57828" x2="52.3352" xlink:href="#e" y1="13.3285" y2="82.1821"/><path d="m20.3184 57.691v.1228c.0481.3158.1141.6316.1921.9532.1003.3961.2225.7865.3662 1.1696.042.1111.0961.2164.1381.3216.042.1053.036.1228.06.1813s.0961.193.1441.2866c.048.0935.09.2105.1441.3158l.12.2163c.0841.1638.1741.3158.2702.4737.096.1579.132.2339.2041.345l.132.1872c.0961.1462.1981.2807.3002.421.102.1404.1741.2398.2701.3568l.1261.1637.3302.3684.3361.3684.1201.1287v.0351c.0609.0496.119.1023.1741.1579l.06.0526c.1621.1521.3182.3041.4862.4503l.3122.2632.2762.2163c.114.0936.2401.1813.3601.2749.1201.0935.3062.2164.4563.3158l.3181.2222 5.3667 3.4678c2.9395 1.8646 6.3617 2.8786 9.8691 2.924 1.3027.0204 2.6015-.1471 3.8539-.4971.4828-.1385.9527-.3166 1.4047-.5322l.1561-.0701c.4385-.2102.8599-.4527 1.2606-.7252l.2041-.1403c.3982-.2816.7754-.5903 1.1286-.924l.1861-.1754c.3607-.3552.6957-.7343 1.0025-1.1345l.0481-.0527c0-.0351.042-.076.066-.1052.3332-.4569.6302-.9378.8884-1.4386v-.0351c0-.0351 0-.076.042-.1111.1929-.3926.3593-.7969.4983-1.2105 0-.0585.054-.1112.072-.1696.0181-.0585 0-.0761.0301-.1053.1382-.4433.2484-.8944.3301-1.3509 0-.0351 0-.0643 0-.0994s0-.1228 0-.1813c.0701-.4572.1122-.918.1261-1.3801 0-.0643 0-.1228 0-.1813v-.1111c0-.1462 0-.2924 0-.4386 0-.2339 0-.462-.03-.6959s-.036-.3392-.0541-.5087c-.018-.1696 0-.31-.054-.4737l-.066-.3684c-.0914-.5057-.2137-1.0056-.3662-1.4971-.048-.1579-.1141-.31-.1681-.4737-.114-.3392-.2281-.6725-.3722-1.0117 0 0 0-.0526-.03-.0819-.102-.2339-.2221-.4619-.3362-.69-.114-.2281-.1921-.4152-.3061-.6199-.1141-.2047-.3302-.5848-.4983-.8363-.108-.1695-.2041-.345-.3121-.5146-.2041-.2924-.4262-.5848-.6424-.8655-.108-.1403-.2041-.2807-.3181-.421-.2341-.2866-.4863-.5497-.7384-.8246-.1201-.1228-.2281-.2573-.3482-.3742-.2401-.2398-.5042-.462-.7624-.6843-.138-.1228-.2701-.2631-.4202-.3801-.4179-.3409-.8548-.6591-1.3086-.9532l-.0781-.0468.0841.0468-2.4493-1.5789-2.9235-1.8831-.174-.1111-.2582-.152-.3782-.2164-.6003-.3041-.2221-.1052-.2581-.117c-.2581-.117-.5223-.2222-.7924-.3216l-.2942-.1112-.156-.0467-.1681-.0468c-.2522-.0819-.5043-.1579-.7624-.2164h-.036c-.1801-.0468-.3662-.0702-.5463-.0994s-.2882-.0585-.4322-.076c-.1441-.0176-.1981-.041-.3002-.0527-.44-.054-.8831-.0813-1.3267-.0818-1.1007-.003-2.1962.1467-3.2536.4444-.3662.1053-.7384.2281-1.0986.3626l-.3601.1579c-.2402.0994-.4803.1988-.7144.3099-.1381.0643-.2701.1462-.4022.2164s-.4322.2222-.6423.345l-.4143.2632c-.192.1228-.3902.2456-.6003.3801s-.2761.2105-.4082.3158c-.132.1052-.3662.269-.5402.4152l-.3962.3509-.4923.4503-.3722.3918c-.1501.1579-.3001.3158-.4442.4795s-.2341.2865-.3482.4327c-.114.1462-.1921.2164-.2761.3334l-.1141.1696-.3301.4736c-.1141.1755-.2282.3509-.3362.5264-.1081.1754-.1861.3274-.2762.4912-.09.1637-.138.2281-.1981.3509-.06.1228-.036.1052-.06.152-.2334.4837-.434.9819-.6003 1.4912v.0527c0 .0643 0 .1403-.054.2046-.1141.3802-.2101.7661-.2882 1.1696 0 .0819-.042.1521-.054.2281v.2515c-.054.3508-.084.7076-.102 1.0643 0 .0994 0 .1988-.0301.2982-.03.0994 0 .0702 0 .1053.0238.5122.084 1.0222.1801 1.5263zm15.608 9.8304c-2.0712-.0297-4.1195-.426-6.0451-1.1696l-.2041-.2281c-.1201-.1345-.2461-.2748-.3602-.4152-.1141-.1403-.1861-.2398-.2821-.3626-.0961-.1228-.2101-.2982-.3122-.4444s-.1621-.2573-.2401-.3918c-.0781-.1345-.1861-.3099-.2702-.4737-.084-.1637-.144-.2807-.2101-.421-.066-.1404-.12-.2632-.1741-.3977-.1803-.4316-.3287-.8753-.4442-1.3275-.078-.3158-.132-.6316-.1801-.9474-.0656-.463-.0957-.9302-.09-1.3976 0-.1111 0-.2164 0-.3275.0109-.3252.0429-.6495.096-.9707 0-.1346.036-.2632.0661-.3919.0622-.3275.1424-.6515.2401-.9707.03-.0994.054-.1988.084-.2983.149-.4417.3275-.8734.5343-1.2924.042-.0935.09-.1812.1381-.269.2806-.5388.6016-1.0568.9605-1.5497l.3421-.4327c.0901-.1111.1801-.2281.2822-.3392.102-.1111.2761-.3041.4142-.4561l.3181-.3217c.1441-.1462.2942-.2748.4503-.4152.1561-.1403.2221-.2046.3421-.3041.1201-.0994.3182-.2456.4743-.3684l.3722-.2748c.1621-.117.3301-.2223.5042-.3275l.3842-.2515.5403-.2865.3902-.2047c.1921-.0994.3962-.1813.6003-.2632l.3602-.152c.3182-.1228.6423-.2281.9725-.3216.9127-.2584 1.859-.3865 2.8094-.3802 1.0194.0088 2.0315.1685 3.0015.4737 1.905 2.0066 3.2016 4.4884 3.7459 7.1696 1.1646 6.4327-3.0915 10.1637-6.2371 11.0701-1.0963.297-2.2299.4426-3.3677.4328zm-3.7039 1.0526-.5523-.1345zm-1.2427-.3099c-.1861-.0527-.3661-.117-.5522-.1755.1921.0585.3722.1228.5583.1755zm-1.2006-.3977-.5522-.2047zm16.9947-13.4502-.1081-.3392c0 .076.054.1462.078.2222.0241.076 0 .0643.012.0994zm-.5163-1.4562c-.036-.0819-.066-.1637-.1021-.2397l.0421.0818c.006.0351.018.0877.042.1404zm-1.5068-2.8304c-.06-.0935-.126-.1813-.1861-.2631l.1321.1754zm-.8764-1.1696c-.0841-.1111-.1681-.2163-.2581-.3216l.126.1404c.0403.047.0783.0958.1141.1461zm-1.0505-1.1696-.1021-.1052zm-9.8811 20.9123c.1801 0 .3542.0701.5283.0935-.1741-.0234-.3482-.0643-.5283-.0935zm1.3147.1812c.1501 0 .3002.041.4502.0527-.15-.0117-.3001-.0351-.4502-.0527z" fill="url(#a)"/><path d="m67.4829 64.9592c0-.3216.042-.6432.054-.9707 0-.1404 0-.2807 0-.4269s0-.2632 0-.4035c0-.4796 0-.9649-.036-1.4503 0-.2456 0-.4912-.0421-.7427-.042-.5497-.108-1.0994-.18-1.6491 0-.1404 0-.2749-.0481-.4152v-.1053c-.042-.2632-.096-.5205-.144-.7778-.0721-.3625-.1321-.7251-.2162-1.0818-.084-.3568-.138-.5497-.2101-.8246-.072-.2749-.168-.6784-.2701-1.0117-.102-.3333-.1801-.5848-.2701-.8421-.0901-.2573-.2161-.6491-.3302-.9707l-.3302-.8422c-.084-.2046-.156-.4093-.2461-.5847-.03-.0819-.078-.1638-.114-.2457-.2882-.6432-.6004-1.2807-.9245-1.9064-.036-.0702-.0661-.1403-.1021-.2047-.3722-.6842-.7804-1.345-1.2006-1.9941-.126-.193-.2581-.3743-.3902-.5848-.132-.2105-.3662-.5439-.5643-.807l-.084-.1111-.072-.0468.072.0468c-.1201-.1579-.2521-.3041-.3782-.462s-.3302-.4094-.4982-.5848c-.3662-.4386-.7504-.8538-1.1406-1.2632-.1141-.1169-.2101-.2456-.3242-.3567l-.1621-.1462c-.3481-.345-.7203-.6725-1.0865-.9941-.1741-.1579-.3422-.3158-.5223-.462-.5583-.462-1.1346-.9006-1.7349-1.31-.156-.1111-.3181-.2163-.4802-.3216l-.5223-.3333-1.987-1.2866-2.8574-1.8421c.162.0995.3181.2106.4802.3158.6003.4094 1.2006.848 1.7349 1.31.1801.1462.3482.3099.5223.4619.3721.3217.7383.6492 1.0865.9942.1621.1579.3182.3333.4803.5029.072.0702.132.1462.198.2164l-4.9585-3.2047c-4.4001-2.7418-9.5202-4.1858-14.7434-4.1579-4.0456-.0184-8.0514.778-11.766 2.3392 0-.152 0-.2982 0-.4503 0-.152.036-.4152.06-.6257s.054-.4444.0901-.6667c.036-.2222.072-.4035.108-.5848.036-.1812.0841-.4269.1321-.6374s.102-.4269.1621-.6374c.06-.2105.12-.4211.1801-.6374.06-.2164.126-.3918.1981-.5848.072-.193.15-.4328.2341-.6433l.2521-.5848c.09-.1988.1741-.3977.2701-.5848.0961-.1871.1921-.3918.2942-.5848.102-.193.2461-.4444.3722-.6608.126-.2164.2161-.3567.3241-.5263.1081-.1696.2882-.4328.4383-.6491.15-.2164.2221-.31.3421-.462.2964-.4284.6171-.8403.9605-1.2339l.1021-.1111c.378-.3739.7768-.7273 1.1946-1.0585l.3782-.2924c.3181-.2456.6423-.4795.9845-.7018.138-.0877.2761-.1813.4202-.2631.4779-.2861.973-.5439 1.4827-.772 2.1895-.9209 4.5551-1.3774 6.9396-1.3391 4.5098.1351 8.9259 1.2881 12.9005 3.3684l3.956 2.5555c.612.3976 1.3295.613 2.0651.6199.6461-.0171 1.2817-.1635 1.8672-.4301.5856-.2666 1.1086-.6477 1.5365-1.1196l.3241-.3392.1201-.1462c.0222-.0298.0422-.0611.06-.0935.0301-.0351.0661-.0644.0901-.0995.024-.035.084-.1462.1321-.2163.048-.0702.2041-.269.2941-.4152s.1081-.2281.1681-.3392.072-.1053.102-.1638c.0301-.0584.0421-.1111.0661-.1578.1908-.3927.3552-.7971.4922-1.2106l.0961-.3099c.12-.4269.2161-.8714.3001-1.3158-.0034-.0252-.0034-.0508 0-.076 0-.0702 0-.1345 0-.2047.0907-.581.1449-1.1669.1621-1.7544 0-.0702 0-.1403 0-.2164 0-.076 0-.0877 0-.1345 0-.152 0-.304 0-.4561 0-.2631 0-.5205 0-.7778 0-.1637-.03-.3216-.048-.4795s0-.3743-.06-.5556c0-.0467 0-.0935-.0301-.1462-.042-.2631-.102-.5204-.162-.7719-.0361-.1462-.0661-.3041-.1021-.4444-.1025-.37-.2288-.7333-.3782-1.0877-.1306-.3122-.2872-.6134-.4682-.9006-.2056-.3242-.4301-.6366-.6724-.9357l-.096-.1169c-.036-.041-.0841-.0761-.1201-.117-.1921-.2281-.3842-.4561-.6003-.6725-.132-.1345-.2881-.2515-.4262-.3801-.1381-.12869-.2521-.23395-.3902-.34506-.468-.40067-.9634-.76994-1.4827-1.10526l-5.3668-3.46782c.5221.34111 1.0213.71418 1.4948 1.11695l.3602.31579c.3775.34005.7343.70129 1.0685 1.08187.054.07017.1201.12865.1741.19883.2403.30056.4647.61285.6723.93567.1632.267.3076.54443.4323.8304l-5.1146-3.29823c-1.8616-1.14796-3.8835-2.02837-6.0031-2.61403-.7984-.23976-1.6448-.45614-2.5333-.66081-2.3861-.53799-4.8265-.81456-7.2757-.82456-6.7211-.04851-13.2893 1.95345-18.7835 5.72512-.8224.5848-1.6028 1.16959-2.3592 1.81286-.2461.20468-.4682.42688-.7083.63738-.4923.4386-.9845.8772-1.4468 1.3392-.2701.269-.5222.5497-.7804.8246-.4082.4327-.8104.8655-1.2006 1.3099-.2581.3041-.4982.5848-.7444.924-.2461.3392-.4442.5263-.6483.8012-.11404.1462-.20409.3099-.31214.4561-.40221.5848-.7804 1.1228-1.15259 1.7017-.22211.3334-.44422.6667-.65433 1.0059-.41421.69-.7984 1.3918-1.20061 2.1052-.10805.2047-.23412.4036-.34218.5848 0 .0351 0 .0761-.04802.1112-.47424.9473-.91846 1.9122-1.31466 2.8888-.07204.1638-.12607.3392-.1921.503-.32417.8187-.60031 1.6432-.90046 2.4736l-.07203.1872c-.07804.2456-.13207.4912-.21011.7368-.22812.7485-.45023 1.4971-.64232 2.2515-.09605.3918-.1861.7777-.27615 1.1695-.15608.6784-.30015 1.3626-.42622 2.0468-.03602.2164-.09604.4328-.13206.6491-.03601.2164-.04202.3509-.07204.5264-.15008.9181-.26413 1.8304-.36018 2.7426 0 .2398-.06603.4796-.08404.7135-.10805 1.1345-.16809 2.2573-.1921 3.3742v.2515.614c0 .9065 0 1.8012.05402 2.6901 0 .3275.03003.6608.05404.9941.07204 1.117.17408 2.2281.32416 3.3041.04202.2983.08404.5848.13207.9006.06003.3918.13806.7544.2041 1.1696.10205.5848.21011 1.2105.32417 1.7953s.2101.9766.31816 1.4561c.13207.5848.26413 1.1696.41421 1.7544.11406.4562.24012.8947.37219 1.3333.16208.5848.32416 1.117.50425 1.655.13807.4152.27614.8187.42622 1.2222.18609.5263.38419 1.0468.6003 1.5497.07804.1989.14407.4094.22811.5848.08405.1755.20411.4328.30617.6491.15007.3392.30614.6726.46222 1 .22212.4445.45023.8772.68435 1.3041.16208.2983.31817.5848.48625.8948.26414.4503.54628.8889.83443 1.3216.15007.2398.30015.4795.45623.7134.45022.6492.91846 1.2807 1.41069 1.8772.3602.4386.7624.9006 1.2006 1.3685.1561.1754.3362.3567.5043.5321.2761.2866.5403.5848.8404.8713l.048.0527c-.7503-.4035-1.4947-.8304-2.2211-1.269.5103.5848 1.0565 1.1696 1.6328 1.7251l.0781.0702.3602.3392c.4622.4503.9424.8947 1.4347 1.3275.1981.1812.4022.3508.6003.5263.4562.3859.9185.7602 1.3927 1.1286l.6003.462c.6663.5029 1.3507.9883 2.041 1.4328h.0301-.0301l3.1877 2.0643 2.137 1.3742c-.2521-.0818-.5162-.152-.7684-.2456-1.7518-.6828-3.4241-1.5454-4.9885-2.5731l5.3667 3.4679c1.5652 1.0264 3.2373 1.8889 4.9886 2.5731 3.1961 1.166 6.5821 1.7603 9.995 1.7543.6004 0 1.2006 0 1.7649-.0409l.5403-.0409c.4082-.0293.8164-.0585 1.2006-.0995l.6363-.076c.3722-.0468.7444-.0935 1.1106-.152l.6724-.117c.3541-.0643.7083-.1286 1.0565-.2047l.6843-.152c.3422-.0819.6844-.1638 1.0205-.2573l.6784-.1872c.3362-.0935.6723-.1988 1.0025-.3041l.6603-.2163c.3362-.117.6664-.2398.9905-.3626l.6003-.2398c.3422-.1403.6784-.2865 1.0146-.4386.1861-.0818.3782-.1578.5582-.2456.3842-.1754.7684-.3684 1.1406-.5848l.3782-.1929c.4923-.2573.9785-.5322 1.4528-.8188l.3962-.2514c.3361-.2105.6723-.4211.9965-.6374l.5342-.386c.2642-.1871.5343-.3801.7864-.5848.2522-.2047.3722-.2982.5583-.4444s.4682-.3802.6964-.5848c.2281-.2047.3601-.3217.5402-.4854.1801-.1638.4323-.3977.6424-.5848s.3421-.3392.5042-.5088l.2942-.2924.102-.1111c.0601-.0643.1141-.1403.1741-.2047.3122-.3391.6003-.69.8885-1.0467.108-.1345.2221-.269.3241-.4035l.1141-.1404c.3362-.4561.6603-.924.9665-1.3977.3061-.4736.6483-1.0877.9304-1.6549.2582-.5088.4863-1.0292.7024-1.5614.066-.1579.1201-.3275.1801-.4854.108-.2924.2281-.5848.3242-.883 0-.0936.048-.193.078-.2866.072-.2164.1261-.4327.1861-.6491.096-.3567.1921-.7076.2701-1.0702.0521-.23.1001-.4581.1441-.6842.036-.1754.084-.3509.1141-.5321.03-.1813.042-.3392.066-.503.042-.304.084-.5848.12-.9064.0361-.3216.1922-.5848.2162-.9006zm-48.1084 14.4327c-.4563-.3976-.8885-.807-1.3207-1.2163.3241.2222.6363.4561.9665.6666l5.2286 3.3743c-.2521-.0819-.5162-.1462-.7624-.2456-.7328-.2812-1.4502-.5994-2.149-.9533-.4743-.3684-.9365-.7426-1.3867-1.1286-.1921-.1637-.3903-.3275-.5763-.4971zm33.4669-57.1109.2582.1696c-.145.0243-.2913.0399-.4383.0468-.1393-.0124-.2777-.0339-.4142-.0643-.7383-.4269-1.4647-.8363-2.083-1.234-.2461-.1637-.5163-.3099-.7744-.4678 1.1785.4554 2.3308.9727 3.4517 1.5497zm-.6543 16.8362c.1201.0994.2341.2105.3482.3099.3542.3275.7143.6492 1.0505.9942.1441.1462.2761.3099.4202.462l-4.3342-2.8012c.8571.3002 1.6968.6458 2.5153 1.0351zm-3.0856-17.69c1.1097.4237 2.1958.9039 3.2537 1.4386l.5403.3509h-.2462c-.3191-.0059-.6361-.0531-.9424-.1404l-2.0891-1.3333c-.1681-.117-.3182-.2105-.5163-.3158zm-7.0055-15.70169c2.4547.00486 4.9012.27751 7.2937.81286 1.8694.4236 3.6957 1.01078 5.4568 1.75438.06.06433.126.12866.18.19299.0541.06432.1801.18713.2642.28654.2161.26957.4165.55071.6003.8421.1494.23854.278.48892.3842.74852.1304.3081.2388.6247.3241.9474 0 .0643 0 .1345.0481.2047.066.269.126.5497.1741.8479.036.2047.054.4211.072.6374.018.2164.042.2924.054.4386s0 .4503 0 .6725v.4445.1345c-.0165.5875-.0706 1.1734-.1621 1.7544v.1052c-.15-.1052-.2941-.2163-.4502-.3216l-2.2331-1.5029-3.0976-2c-1.555-1.0031-3.2252-1.8255-4.9765-2.4503-2.8423-1.01575-5.8395-1.55937-8.8665-1.60818h-.4142c-1.4209-.00486-2.8399.09877-4.2442.30994-2.2768.32854-4.4978.95404-6.6033 1.85964-1.3841.586-2.7069 1.3008-3.95 2.1345-.6239.4197-1.225.8706-1.8009 1.3509-.1801.152-.3482.3158-.5283.4737-.3842.3391-.7624.6842-1.1286 1.0467-.2041.1989-.3962.4152-.6003.6199-.3242.345-.6423.6959-.9485 1.0585-.1981.2281-.3842.4678-.6003.7076s-.3061.3626-.4502.5848-.1981.2982-.3002.4444c-.2941.4094-.6003.8246-.8524 1.2456-.1921.2983-.3842.5848-.5643.9006-.2701.4445-.5162.9006-.7624 1.3626-.114.2164-.2461.4269-.3602.6491-.048.0936-.09.1988-.138.2924-.1861.386-.3602.7836-.5343 1.1696s-.3242.7193-.4682 1.0877c-.1441.3684-.3062.8187-.4563 1.2339-.096.2807-.2161.5848-.3061.8421-.03.0877-.054.1813-.0781.2749-.126.3859-.2281.7719-.3361 1.1696-.1081.3976-.2281.7953-.3182 1.1695-.09.3743-.1681.772-.2461 1.1696-.06.3041-.1381.5848-.19211.9182 0 .1052-.03002.2105-.04203.3216-.06603.3801-.10805.7661-.15607 1.1696-.04803.4035-.10806.8187-.14408 1.228-.03602.4094-.04801.772-.06602 1.1696-.01801.3977-.04803.5848-.04803.8889v.3509 1.2515c0 .4152 0 .7777.05403 1.1695.05403.3919.08404.8188.13207 1.2281.03601.2866.04802.5848.09004.8597 0 .0935.04202.1812.06003.269.09005.5848.21007 1.0994.33617 1.6374.06.269.1081.538.1801.8011.2113.7917.4638 1.5725.7564 2.3392l5.3667 3.462c6.4653-6.0292 14.7615-10.3508 23.4119-10.3099 3.6109.0254 7.1737.8093 10.4453 2.2982.1861.1696.3842.3334.5703.5146.1861.1813.3902.4036.6003.5848.2101.1813.4202.4503.6003.6843.1801.2339.3662.4502.5462.6842.1801.2339.3602.4678.5283.7076.1681.2397.3242.4912.4803.7368.156.2456.3061.4854.4502.7368.1441.2515.2761.5088.4022.7661s.2641.5205.3842.7895.1621.3918.2461.5848c.2161.5204.4022 1.0526.6003 1.5906.048.1696.1081.3392.1561.5088.1882.68.3405 1.369.4562 2.0643.0481.3216.0781.6433.1141.9649 0 .2281.06.4562.078.6842v.9591.731c0 .5263-.042 1.0585-.096 1.5848 0 .152-.042.2982-.0601.4503-.048.3918-.102.7777-.174 1.1695-.0361.1813-.0721.3626-.1141.5498-.072.345-.1561.6959-.2521 1.0409-.0541.193-.1081.3918-.1681.5848-.1021.3392-.2221.6725-.3422 1.0058-.072.193-.1381.3918-.2161.5848-.1561.3977-.3362.7895-.5223 1.1696-.054.1228-.108.2456-.168.3684-.3002.5848-.6364 1.1696-1.0026 1.7544-.3661.5848-.6903 1.0409-1.0565 1.5322l-.1861.2397c-.5831.774-1.2146 1.5123-1.8909 2.2105-.6671.6815-1.3769 1.3221-2.1251 1.9182l-.1681.1403c-.7134.5577-1.459 1.0751-2.2331 1.5497l-.2942.1871c-.7568.4471-1.5362.857-2.3352 1.2281l-.3662.1638c-.799.355-1.6166.6693-2.4492.9415l-.3902.1228c-.8462.2666-1.7057.4911-2.5753.6725l-.3542.0643c-.8944.1755-1.8009.3158-2.7194.4094-.078 0-.162 0-.2401 0-.9665.0877-1.933.1345-2.9115.1286-3.1097-.0225-6.1996-.4855-9.1726-1.3742-1.9036-.5765-3.7699-1.2639-5.5889-2.0585-.3601-.3977-.7083-.7953-1.0145-1.1696-.4982-.5848-.9665-1.2339-1.4167-1.883-.1501-.2164-.2881-.4445-.4322-.6608-.2942-.4562-.6003-.9123-.8704-1.3918-.1501-.2632-.3002-.5439-.4503-.8129-.2461-.462-.4922-.924-.7263-1.4035-.1441-.2983-.2822-.5848-.4203-.9006-.1981-.4444-.3902-.9006-.6003-1.3567-.2101-.4562-.3782-.9591-.55824-1.4503-.18009-.4912-.31216-.8655-.46224-1.3158s-.32416-1.0409-.47424-1.5731c-.15007-.5321-.27014-.9181-.3902-1.3918s-.27614-1.1345-.4082-1.7134c-.10806-.4796-.21611-.9591-.31816-1.4562-.12006-.5848-.22813-1.2456-.33618-1.8772-.10806-.6315-.22811-1.2924-.32416-1.9649-.15008-1.0877-.25213-2.2046-.33017-3.3333 0-.3099-.03602-.6199-.04803-.9298-.04202-.9181-.06003-1.848-.05402-2.7953 0-.2573 0-.5146 0-.7719 0-1.1287.08405-2.2632.1921-3.4094 0-.2164.05402-.4386.07803-.655.09605-.9356.22212-1.8771.3722-2.8187.06003-.3684.12606-.7427.19209-1.1169.13207-.7018.27614-1.4035.43822-2.0994.09005-.3801.1741-.7603.27014-1.1345.19811-.7778.42021-1.5497.66033-2.3392.08405-.2865.16209-.5848.25814-.8596.29615-.8889.61831-1.772.96649-2.6492.048-.1052.084-.2163.1261-.3274.4002-.9747.8384-1.9494 1.3146-2.924.1321-.2573.2822-.5088.4202-.7719.3662-.6959.7384-1.386 1.1466-2.0644.2101-.3391.4322-.6666.6484-1 .3721-.5847.7563-1.1695 1.1645-1.7134.3062-.4211.6004-.8363.9485-1.2456.2522-.3158.4983-.6257.7564-.9298.3782-.4445.7744-.8772 1.2006-1.3041.2581-.2807.5103-.5848.7804-.8304.4622-.4562.9485-.8948 1.4407-1.3334.2402-.2163.4683-.4386.7144-.6432.7564-.6316 1.5368-1.2398 2.3592-1.8129 5.5319-3.76458 12.1382-5.74068 18.8856-5.64909z" fill="url(#b)"/><path d="m49.706 38.1182c-4.376-2.8693-9.5407-4.382-14.8155-4.3392-5.8432-.1024-11.5634 1.6416-16.3042 4.9708l-.7564.538-.4082-.807c-.4832-.9076-.8213-1.8818-1.0025-2.8889-1.3327-7.6725 2.9234-15.9824 9.6769-18.9298 2.4023-1.015 4.9997-1.5175 7.6178-1.4736 5.4028.0292 11.5739 1.9941 16.8626 5.4034l.1921.1755c.2069.3005.4865.5467.8142.717.3277.1704.6933.2595 1.0647.2596.4374-.0172.8668-.1198 1.2628-.3016.3959-.1818.7504-.4392 1.0424-.7569.7457-.8084 1.2774-1.7821 1.5488-2.8362.8344-2.7953.6003-6.4328-.6003-8.26317-1.879-2.92396-5.877-5.14033-11.88-6.5029-2.3862-.53798-4.8265-.81455-7.2757-.82456-6.7212-.0485-13.2894 1.95345-18.7836 5.72513-13.76494 9.5965-17.96107233 27.8946-16.00408 41.7601 1.27865 9.1169 3.95601 16.035 8.15818 21.152.7263.8772 1.6028 1.8421 2.5873 2.8245 3.0015 2.924 6.9815 6.0351 11.0636 7.5673 3.0084 1.1215 6.2036 1.6925 9.4248 1.6841 9.989.0468 19.81-4.8011 24.3843-12.0701 6.2192-9.8479 2.3893-25.766-7.87-32.7835zm-9.935 30.3742c-1.2527.348-2.5515.5135-3.8539.4912-6.2372-.0292-13.765-3.6257-15.4039-10.2163-1.6748-6.7778 3.6499-13.1637 9.6829-14.8713 1.0575-.2978 2.153-.4474 3.2537-.4445 7.0356.0351 12.5644 6.4327 13.6329 12.3158 1.2066 6.6315-2.7734 11.4151-7.3117 12.7251z" fill="url(#c)"/><path d="m36.6903 8.63385c7.726.04093 15.3739 3.22225 19.8101 9.21635-.2724 1.0474-.8018 2.0147-1.5428 2.8187-.2911.3216-.6458.5826-1.043.7675-.3971.1849-.8284.2898-1.2682.3085-.3657-.0019-.7255-.0902-1.0485-.2572-.3231-.1671-.5998-.4079-.8064-.7018l-.1921-.1755c-5.2887-3.4093-11.4058-5.3742-16.8625-5.4035-2.6182-.0438-5.2156.4587-7.6179 1.4737-6.7534 2.924-11.0096 11.2573-9.6769 18.9298.1812 1.007.5193 1.9812 1.0025 2.8888l.4082.8071.7564-.5381c4.732-3.3306 10.4431-5.0805 16.2802-4.9882 5.2748-.0428 10.4395 1.4698 14.8155 4.3391 10.2593 7.0175 14.0892 22.9356 7.87 32.7835-4.5803 7.269-14.4073 12.117-24.3843 12.0702-3.2212.0083-6.4164-.5626-9.4248-1.6842-4.0821-1.5322-8.0921-4.6316-11.0636-7.5673 2.9873 1.5962 6.1329 2.8932 9.3887 3.8714 2.9807.891 6.0789 1.3539 9.1967 1.3742 8.9205.0468 17.4088-3.7251 22.3133-11.5379 6.1892-9.8187 2.9475-22.5964-7.8039-27.7777-3.4493-1.6816-7.2486-2.5699-11.1057-2.5965-8.6864-.0409-16.9766 4.2807-23.4118 10.3158-4.48432-11.3918.2581-27.3801 10.6674-34.3976 4.3395-2.889 9.4878-4.4042 14.7434-4.33915z" fill="url(#d)" opacity=".36"/><path d="m50.6087 36.9483c-4.6296-3.0375-10.0923-4.6436-15.6739-4.6081-5.8548-.089-11.5992 1.5568-16.4724 4.7193-.2213-.5436-.3842-1.108-.4862-1.6842-1.0926-6.2106 1.9089-14.3977 8.7884-17.3801 2.1974-.9222 4.5714-1.3767 6.9636-1.3333 5.0966 0 10.8775 1.8713 15.89 5.0701.3564.456.8145.8272 1.3396 1.0855.5252.2584 1.1037.3971 1.692.4058.6461-.0172 1.2817-.1636 1.8672-.4302.5856-.2666 1.1086-.6477 1.5365-1.1196 2.9595-2.9239 3.1636-9.7017 1.2006-12.8654-2.0951-3.29824-6.4113-5.70759-12.8345-7.16372-4.6734-1.043996-9.5192-1.125512-14.2268-.23933-4.7077.88618-9.1734 2.72053-13.1111 5.38551-14.28122 9.94144-18.60942 28.83614-16.628412 43.14024 1.320672 9.3567 4.088072 16.5204 8.476302 21.8478 3.00151 3.6491 8.54831 8.6959 14.28121 10.8597 3.1928 1.1706 6.5777 1.7651 9.9891 1.7543 10.5233.0527 20.8666-5.0818 25.7291-12.7777 6.6933-10.6023 2.7433-27.152-8.3203-34.6666zm-48.62464 12.8187c-1.9569959-13.8654 2.23914-32.1636 16.00414-41.76007 5.4942-3.77168 12.0624-5.77363 18.7835-5.72513 2.4492.01001 4.8896.28658 7.2757.82456 6.0031 1.36257 10.0011 3.55554 11.88 6.5029 1.2006 1.85384 1.4288 5.46784.6003 8.26314-.2724 1.0474-.8018 2.0147-1.5427 2.8187-.296.3201-.6556.5784-1.057.7593-.4013.181-.8362.2807-1.2782.2933-.3658-.0019-.7255-.0902-1.0486-.2572-.3231-.1671-.5997-.4079-.8064-.7018l-.1921-.1755c-5.2887-3.4093-11.4058-5.3742-16.8625-5.4035-2.6182-.0438-5.2156.4587-7.6179 1.4737-6.7534 2.924-11.0096 11.2573-9.6769 18.9298.1812 1.007.5193 1.9812 1.0025 2.8889l.4082.807.7564-.538c4.732-3.3307 10.4431-5.0805 16.2803-4.9883 5.2747-.0428 10.4394 1.4698 14.8155 4.3391 10.2592 7.0176 14.0891 22.9356 7.87 32.7836-4.5804 7.2689-14.4073 12.1169-24.3844 12.0701-3.2212.0083-6.4163-.5626-9.4248-1.6842-4.0821-1.5322-8.0921-4.6316-11.0636-7.5672-.9845-.9825-1.8609-1.9474-2.5873-2.8246-4.20215-5.1169-6.8795-12.035-8.15815-21.152zm35.01574 33.7543c8.8005-1.0175 17.1087-5.6433 21.2688-12.228-4.1661 6.5906-12.4923 11.1871-21.2928 12.2046z" fill="url(#f)"/><path d="m33.458 43.4453c7.0296.0351 12.5584 6.4327 13.6329 12.3216 1.2006 6.6316-2.7734 11.4152-7.3177 12.7251-1.2527.348-2.5514.5136-3.8539.4912-6.2372-.0292-13.765-3.6257-15.4039-10.2163-1.6748-6.7778 3.6499-13.1695 9.6829-14.8771 1.0601-.2953 2.1572-.4449 3.2597-.4445zm5.871 23.6491c3.1516-.9065 7.4077-4.6141 6.2432-11.076-.9785-5.31-5.889-11.076-12.1322-11.1111-.9502-.0034-1.8961.1246-2.8094.3801-5.3487 1.5088-10.0972 7.152-8.6084 13.1345 1.4467 5.8479 8.2542 9.0643 13.9091 9.0935 1.1476.0153 2.2916-.1284 3.3977-.4269z" fill="url(#g)"/></svg>