<svg fill="none" height="88" viewBox="0 0 72 88" width="72" xmlns="http://www.w3.org/2000/svg" xmlns:xlink="http://www.w3.org/1999/xlink"><linearGradient id="a" gradientUnits="userSpaceOnUse" x1="49.7499" x2="-4.21486" y1="-3.55479" y2="92.0941"><stop offset="0" stop-color="#00b3c7"/><stop offset="1" stop-color="#006873"/></linearGradient><linearGradient id="b" gradientUnits="userSpaceOnUse" x1="-2.71791" x2="49.0459" y1="25.8229" y2="58.2299"><stop offset="0" stop-color="#8fd2dd"/><stop offset="1" stop-color="#00b3c7"/></linearGradient><linearGradient id="c" gradientUnits="userSpaceOnUse" x1="3.07633" x2="64.4832" y1="42.4216" y2="42.4216"><stop offset=".02" stop-color="#00b3c7"/><stop offset="1" stop-color="#0095b6"/></linearGradient><linearGradient id="d" gradientUnits="userSpaceOnUse" x1="1.52285" x2="76.2877" y1="39.7319" y2="48.3803"><stop offset=".02" stop-color="#00c7c7"/><stop offset="1" stop-color="#34c7c7"/></linearGradient><path d="m71.3607 11.3721s0 0 0-.0664c0-.2434 0-.4979 0-.7635-.0501-.1986-.1139-.3945-.191-.58646 0-.12171-.1401-.23237-.2037-.35409-.0347-.08404-.0774-.16546-.1274-.24343-.1823-.29571-.4-.57388-.6495-.82989v-.05531c-.552-.53697-1.1665-1.02274-1.8338-1.44953l-5.3613-3.47448c.6641.43021 1.2783.91569 1.8338 1.44954.2717.27323.5107.56986.7132.88523.05.07797.0926.15939.1273.24343v.06639l-3.1073-2.01386c-.8502-.54565-1.7739-.99899-2.7507-1.34995-1.227-.46172-2.5079-.80673-3.8204-1.02905l-.5094-.06639c-.5113-.05641-1.0256-.08965-1.5409-.09958-2.3304 0-4.9284.44259-7.0678.47579-1.2735 0-2.4705 0-3.7058.06639-1.9356 0-3.8204.05533-5.807.11066l-4.1515.14385-3.5021.0885h-1.2735l-2.5469.08851h-1.5154-2.547c-1.1461 0-2.2795.00003-3.4129-.07743-1.9357-.07746-4.0624-.22133-6.2018-.23239-2.69872-.08496-5.39445.22938-7.97194.9295-.74683.21688-1.44168.55063-2.05028.98478l.67494.4426c-.11101.06829-.21732.1422-.31837.22132l-.15285.15489-.29287.29878-.22921.35406-.12736.3209v.18812.1549.32089.1217.12174c-.01265.16579-.01265.33215 0 .49794v.1549c.02721.16775.06547.33401.11461.49794 0 .08853.06368.17704.08915.26556s.10185.28768.16552.4426v.12173l.08915.17705c.06368.14384.14009.2766.20376.42044.06368.14385.10189.1992.16556.29878l.25471.44263.17827.2877.30562.4758.1783.2434.38203.5201.15281.2102c.16555.2213.34384.4315.52213.6528l.61128.7082.11461.1217.48392.5311.21647.2103c.12735.1475.25472.2803.38207.3983l.0764.0775.12736.1217.49663.4869.20376.1881c.20376.1992.42023.3873.62399.5533.35458.3175.73788.6097 1.14616.8741l4.89017 3.1646c-2.0877-.2293-4.07562-.9103-5.78162-1.9806l5.36132 3.4744c2.4554 1.4962 5.4083 2.2504 8.4049 2.1467 2.1049-.0267 4.204-.1969 6.2782-.509 4.9284-.6529 10.6335-1.4274 16.7716-2.4344-.2674.3652-.5348.7193-.8659 1.1066-5.667 6.7608-11.2066 13.3556-16.5552 19.9725-1.3498 1.6709-2.6615 3.3749-3.9477 5.09l-.3566.4537c-.2547.3319-.4839.675-.7386 1.0069-.9423 1.2836-1.872 2.5671-2.7889 3.8507-.3311.4536-.6622.9073-.9806 1.361-1.1461 1.6155-2.2667 3.22-3.3874 4.8133l-2.1776 3.2642c-.4585.6639-.9679 1.3279-1.5027 2.0028-.1656.1992-.3184.4094-.4967.6197-.5603.6971-1.1461 1.4053-1.74465 2.1245l-1.34988 1.7151-.43297.5311c-.48392.5975-.95513 1.1951-1.41358 1.8036l-.15281.1881-.15281.2324c-.43298.5643-.84051 1.1065-1.20981 1.7262l-.08912.1217c-.39477.6086-.73863 1.2282-1.057 1.8368 0 .0775-.08915.1439-.12736.2213l-.0764.1881c-.28528.5697-.53189 1.1535-.7386 1.7483v.1328c-.09039.2915-.16268.587-.21651.8852v.1217c0 .2213-.06365.4426-.06365.6529v.343l.20376.3762c.17853.2717.38753.5275.62399.7635.02088-.0047.04281-.0047.06369 0 .29271.2891.62158.5489.98056.7746 1.57911 1.0253 3.16248 2.0507 4.75007 3.0761-2.02388-.2072-3.95747-.8458-5.62877-1.859l5.24671 3.5077c2.25534 1.3248 4.91854 2.0267 7.64084 2.0138 2.5029.0081 4.9844-.4014 7.3098-1.2061l.4201-.2434c.3292-.1837.6402-.391.9297-.6196.5349-.6308 1.0442-1.2836 1.5409-1.9475v-.0553l.191-.2877c.5731-.7746 1.1207-1.5602 1.6555-2.3458l.5731-.841 1.5919-2.4343c.9551-1.4938 1.9611-3.0319 2.9799-4.4925l1.0824-1.4938.7641-1.0401 1.2735-2.213c3.3492-5.5326 6.8004-11.1758 10.4934-16.5977l1.5282-2.2684c3.1836-4.6916 6.4565-9.5382 9.9076-14.2519 2.305-3.9945 4.4571-7.5686 6.5583-10.9324.4203-.6971.917-1.4163 1.4264-2.213.3311-.4869.6622-.9959 1.006-1.516l.3056-.4868c.3311-.509.6495-1.018.9552-1.5491l.14-.2213c.2674-.4648.5222-.9295.7641-1.4053l.1529-.3541c.0764-.1438.14-.2877.2037-.4315.284-.6003.5306-1.2135.7386-1.8368.134-.4373.2403-.8805.3184-1.3278v-.1771c-.0063-.0441-.0063-.0887 0-.1328.1401-.4037.2549-.8137.3438-1.2282z" fill="url(#a)"/><path d="m63.6555 5.9942c-2.1094-1.86979-4.8639-3.08982-7.8446-3.47447-.6166-.10377-1.2439-.15198-1.872-.14385-1.3031.0088-2.6045.08639-3.8969.23236-1.1206.11065-2.1775.21026-3.1963.23239l-4.037.06639c-1.821 0-3.6421.05533-5.4504.11066-1.8083.05532-3.5912.11064-5.3741.19916-3.3238.12172-6.7112.26557-10.0986.24344-1.1844 0-2.3687-.00001-3.553-.07747l-1.4518-.06639c-1.5154-.06639-3.0945-.14386-4.6736-.15492-2.62851-.09162-5.25573.20778-7.76818.88523-.4791.13889-.93674.32842-1.36262.56433-.37511.19154-.70019.44884-.95453.75556-.25433.30672-.43235.65612-.52271 1.02591-.687672 2.93227 3.59122 7.62387 6.2273 9.95867 2.11397 1.8589 4.86464 2.733 8.67234 2.7552 2.0316-.0324 4.0577-.1951 6.0618-.4869 5.4504-.7414 11.8814-1.6044 18.8473-2.7884.771-.0658 1.5365-.173 2.2923-.3209.8678-.183 1.756-.2832 2.6488-.2987.533-.0005 1.0637.059 1.5791.177l1.2735.2766-.9042.9295c-.8967.9569-1.6977 1.9786-2.3941 3.054-.5819.876-1.2152 1.7255-1.8975 2.545-5.667 6.7608-11.2066 13.3556-16.5552 19.9725-4.3425 5.3445-8.3284 11.0652-12.1998 16.5978l-2.1012 2.9101c-1.0697 1.5491-2.3687 3.0983-3.74404 4.747-2.78891 3.3195-5.67967 6.805-6.864 10.3127-.24219.6653-.35834 1.3604-.34386 2.0581.05673.1387.12927.2722.2165.3984 1.59185 2.4011 5.48865 3.3195 8.494 3.3195h1.2735c1.9546-.1246 3.8729-.5245 5.6797-1.184l.5985-.3873c1.9803-2.465 3.7917-5.0291 5.425-7.6792.9679-1.4938 1.9739-3.065 3.0182-4.5367.3565-.509.7258-1.0069 1.1079-1.5159l.7004-.9848 1.2734-2.1466c3.3493-5.5326 6.8131-11.198 10.5189-16.5978l1.541-2.2794c3.1837-4.6916 6.4565-9.5492 9.8821-14.2076 2.2796-3.9613 4.4317-7.5465 6.5457-10.9214.4457-.7081.9296-1.4495 1.4517-2.213 1.704-2.3359 3.0726-4.8442 4.0751-7.469.3385-.98297.4975-2.006.4712-3.0318-.1339-.50654-.4145-.97498-.815-1.361z" fill="url(#b)"/><path d="m53.9007 2.34365c.628-.00812 1.2553.04009 1.8719.14385 2.9855.39374 5.7406 1.62568 7.8447 3.50767.393.37347.6731.82591.815 1.31672.0263 1.02581-.1327 2.04887-.4712 3.03191-1.0026 2.6248-2.3711 5.1331-4.0751 7.4689-.5221.7525-1.0061 1.4938-1.4518 2.2131-2.114 3.3748-4.2661 6.9599-6.5457 10.9213-3.4256 4.6584-6.6984 9.516-9.8821 14.2076l-1.5409 2.2794c-3.7058 5.4441-7.1696 11.1426-10.5189 16.5978l-1.2734 2.1466-.7004.9848c-.3821.509-.7514 1.0069-1.108 1.5159-1.0442 1.4717-2.0502 3.043-3.0181 4.5368-1.6333 2.65-3.4448 5.2141-5.425 7.6791l-.5985.3873c-1.8069.6595-3.7252 1.0594-5.6797 1.184 10.2642-15.3142 20.5284-30.6283 30.7926-45.9425 3.3492-4.9682 7.1824-9.505 10.8245-14.2851 2.687-3.563 6.5202-8.3985 5.9089-13.05689-.573-4.42606-6.8259-4.99037-10.4043-5.31126-1.3493-.12702-2.7052-.19349-4.0624-.19917-6.9659 0-14.0081 1.29463-20.8849 2.11345-2.3718.27927-4.7635.41237-7.157.39833-2.5555-.01763-5.1073-.17282-7.64079-.46472-2.19934-.22986-4.37212-.62228-6.49472-1.17293.42588-.23591.88353-.42541 1.36263-.5643 2.51244-.67745 5.13966-.97685 7.76818-.88524 1.5791 0 3.1582.08854 4.6737.15493l1.4517.06639c1.1844 0 2.3687.07747 3.553.07747 3.3874 0 6.7749-.12172 10.0986-.24344 1.7829-.08852 3.5785-.1549 5.3741-.19916s3.6294-.08853 5.4505-.11066l4.0368-.06639c1.0188 0 2.0758-.12174 3.1965-.23239 1.2973-.13532 2.6029-.20183 3.9096-.19917z" fill="url(#c)"/><path d="m65.986 7.03437c-.2056-.77896-.645-1.49667-1.2735-2.08022-2.3092-2.09513-5.3478-3.47164-8.6468-3.91707-.693-.111348-1.3965-.166903-2.1013-.165975-1.2734 0-2.7379.110642-4.1005.232355-1.0952.12172-2.1395.22131-3.0819.24344-1.3499 0-2.6742 0-4.0241.06639-1.8338 0-3.6676 0-5.4887.11065-1.821.11066-3.5912.11064-5.3995.18809-3.2855.13279-6.6348.26558-9.9968.25451-1.1716 0-2.3432 0-3.502-.07746l-1.4518-.06639c-1.5409-.07745-3.12-.1549-4.7373-.16597-2.79398-.09427-5.58568.23139-8.25209.96266-.93366.21919-1.78172.65376-2.45429 1.25763-.672574.60388-1.144608 1.35457-1.366126 2.17258-1.018778 4.32651 5.386796 10.17991 6.685736 11.30861 1.28711 1.0682 2.81163 1.8969 4.48017 2.4354 1.6686.5384 3.4461.7753 5.2237.696 2.1048-.0266 4.204-.1968 6.2782-.509 5.4759-.7303 11.9069-1.6045 18.8346-2.7774.8004-.0713 1.5955-.1821 2.3814-.3319.7354-.1724 1.4925-.2653 2.2541-.2766-.6113.7413-1.1079 1.4716-1.6046 2.213-.5449.8368-1.1444 1.6459-1.7956 2.4233-5.6796 6.7608-11.2193 13.3888-16.5551 20.0057-4.3553 5.3666-8.3667 11.0652-12.2508 16.6642l-2.1649 2.9654c-1.057 1.4938-2.33048 3.0319-3.69309 4.6474-2.87805 3.4523-5.85799 7.0153-7.13146 10.7775-.299913.8678-.437511 1.7719-.407519 2.6777v.2545c.110388.2553.242336.503.394769.7414 1.92295 2.899 6.22729 3.9834 9.793 4.0388 2.5033-.0004 4.9837-.4134 7.3098-1.2172l.4202-.2324c.3341-.1867.6493-.3977.9424-.6307 2.0378-2.5373 3.9045-5.1753 5.5905-7.9005.9551-1.5049 1.9611-3.0429 2.9799-4.4925.3566-.509.7259-1.0069 1.0825-1.5048l.7641-1.0401 1.2734-2.2131c3.3493-5.5325 6.8004-11.1647 10.4934-16.5977l1.5282-2.2794c3.1837-4.6806 6.4566-9.5382 9.9077-14.2519 2.305-3.9945 4.4698-7.5686 6.5583-10.9324.433-.6971.9169-1.4163 1.4263-2.213 1.802-2.4475 3.2398-5.0836 4.2789-7.8452.4199-1.17074.6219-2.39224.5985-3.61833zm-55.2432 75.48643c-2.83988 0-6.73668-.9295-8.32852-3.3195-.08723-.1262-.15977-.2596-.21651-.3984-.01447-.6977.10168-1.3928.34386-2.0581 1.18433-3.5076 4.0751-6.9599 6.864-10.3127 1.37537-1.6487 2.67427-3.1978 3.74397-4.7469l2.114-3.0098c3.8204-5.5325 7.8573-11.2311 12.1999-16.5977 5.3613-6.6391 10.9009-13.2118 16.5551-19.9726.6823-.8195 1.3156-1.669 1.8975-2.545.6964-1.0754 1.4974-2.0971 2.3941-3.0539l.9042-.9295-1.2735-.2767c-.5153-.1179-1.0461-.1774-1.5791-.177-.8928.0156-1.781.1158-2.6488.2988-.7558.1478-1.5213.255-2.2922.3209-6.9659 1.1839-13.397 2.047-18.8474 2.7884-2.0036.2935-4.0301.4526-6.0618.4758-3.8204 0-6.55839-.8852-8.67235-2.7442-2.63609-2.2905-6.914942-6.98208-6.22727-9.9586.09036-.3698.26838-.71919.52271-1.02591.25434-.30672.57942-.56406.95453-.7556.42588-.23591.88352-.42544 1.36262-.56433 2.51245-.67745 5.13963-.97682 7.76816-.8852 1.5791 0 3.1582.08854 4.6737.15493l1.4517.06639c1.1844 0 2.3687.07743 3.553.07743 3.3874 0 6.7749-.12172 10.0986-.24344 1.7829-.08852 3.5785-.1549 5.3741-.19916s3.6294-.08853 5.4504-.11066l4.0369-.06639c1.0188 0 2.0758-.12171 3.1965-.23236 1.2923-.14597 2.5936-.22356 3.8968-.23236.628-.00812 1.2554.04009 1.872.14386 2.9855.39373 5.7406 1.62564 7.8446 3.50763.393.37346.6731.82594.815 1.31675.0192 1.08593-.1526 2.16803-.5094 3.20892-1.0151 2.5586-2.3699 5.0057-4.0369 7.2919-.5221.7524-1.006 1.4938-1.4518 2.213-2.1139 3.3749-4.266 6.96-6.5455 10.9214-3.4257 4.6584-6.6985 9.516-9.8822 14.2076l-1.5409 2.2794c-3.7058 5.4441-7.1697 11.1426-10.5189 16.5978l-1.2735 2.1466-.7004.9848c-.382.509-.7513 1.0069-1.1079 1.5159-1.0443 1.4717-2.0503 3.0429-3.0181 4.5367-1.6333 2.65-3.4448 5.2142-5.425 7.6792-.2038.1328-.4076.2656-.8023.498-1.7518.6035-3.5975.9764-5.476 1.1065-.4584.0774-.8659.0885-1.4517.0774z" fill="url(#d)"/></svg>