<svg fill="none" height="88" viewBox="0 0 73 88" width="73" xmlns="http://www.w3.org/2000/svg" xmlns:xlink="http://www.w3.org/1999/xlink"><linearGradient id="a" gradientUnits="userSpaceOnUse" x1="52.5894" x2="27.3128" y1="6.8057" y2="84.7432"><stop offset="0" stop-color="#ffaa30"/><stop offset=".28" stop-color="#cc8927"/><stop offset=".94" stop-color="#ad7421"/></linearGradient><linearGradient id="b"><stop offset=".01" stop-color="#ffc97b"/><stop offset="1" stop-color="#ff9e14"/></linearGradient><linearGradient id="c" gradientUnits="userSpaceOnUse" x1="20.9387" x2="50.1263" xlink:href="#b" y1="22.8354" y2="24.0095"/><linearGradient id="d" gradientUnits="userSpaceOnUse" x1="19.5106" x2="48.6982" xlink:href="#b" y1="57.4964" y2="58.6705"/><linearGradient id="e" gradientUnits="userSpaceOnUse" x1="59.6752" x2="-14.6878" y1="75.9135" y2="-17.1344"><stop offset="0" stop-color="#ffab31"/><stop offset="1" stop-color="#ff9700"/></linearGradient><linearGradient id="f" gradientUnits="userSpaceOnUse" x1="1.98633" x2="65.3395" y1="42.3919" y2="42.3919"><stop offset="0" stop-color="#fda01b"/><stop offset="1" stop-color="#f58700"/></linearGradient><linearGradient id="g" gradientUnits="userSpaceOnUse" x1="16.5" x2="63.3071" y1="38" y2="45.7096"><stop offset=".01" stop-color="#fbb858"/><stop offset="1" stop-color="#ffa31f"/></linearGradient><path d="m72.2096 58.3121c0-.1525 0-.305 0-.4575 0-.1526 0-.4106 0-.5866 0-.5866-.0655-1.1731-.1311-1.7597 0-.1701-.0298-.3402-.0536-.5044-.0238-.1643 0-.1584 0-.2347-.0477-.2933-.1311-.5865-.1906-.874-.0596-.2874-.1252-.7742-.2205-1.1731l-.0775-.2815c-.0146-.0403-.0266-.0814-.0357-.1232-.0417-.1467-.1013-.2933-.143-.4399-.137-.4458-.2681-.8916-.4349-1.3316l-.0477-.0351.0477.0351-.1431-.3636h-.0297.0297c0-.0645-.0655-.1291-.0893-.1995-.0239-.0703-.0477-.1349-.0775-.2053-.1906-.4575-.4349-.8915-.6613-1.3373-.1311-.2522-.2384-.5162-.3754-.7684-.4278-.7692-.9034-1.5116-1.424-2.2231-.3637-.4903-.7619-.9548-1.1916-1.3902-.0537-.0528-.0954-.1173-.149-.1701s-.1609-.1408-.2383-.217c-.0775-.0763-.1788-.1877-.2801-.2816-.1489-.1407-.3157-.2698-.4766-.3988-.1609-.1291-.2264-.1995-.3456-.2933-.3816-.3114-.7794-.6031-1.1916-.874l-.0596-.0469-5.0644-3.3024c.2025-.1818.4051-.3637.5958-.5514.1906-.1877.2562-.2639.3873-.3871.28-.2874.56-.5866.8222-.8564l.4409-.4986c.2264-.258.4528-.5161.6673-.7742l.4409-.5866.3873-.4927c.0477-.0645.0834-.1291.1311-.1877.0476-.0587.1489-.1936.2145-.2933.286-.4047.56-.8095.8103-1.2201l.0357-.0586c.3337-.5338.6316-1.0793.9116-1.6189.0417-.0822.0954-.1643.1371-.2523.2859-.5865.5302-1.1731.7626-1.7597l.1788-.4927c.0774-.2229.1668-.4399.2442-.6628.0775-.2229.1549-.5396.2264-.8095.0298-.0938.0596-.1818.0835-.2756.1251-.4869.2323-.9679.3157-1.4547 0-.0997.0001-.1995.0418-.305.0417-.1056 0-.0822 0-.1232 0-.0411 0-.2346.0357-.352 0-.217.0536-.434.0715-.6569 0-.0704 0-.1467 0-.2229 0-.0763 0-.1701 0-.2522 0-.0822 0-.3402.0298-.5103s0-.393 0-.5866 0-.3168 0-.4693c-.0298-.5044-.0715-.9971-.143-1.4898 0-.1526-.0477-.3109-.0775-.4634-.0715-.3872-.1608-.7684-.2621-1.1438-.1893-.6825-.4221-1.3525-.6971-2.0061 0-.0645-.0417-.129-.0656-.1877l-.0655-.129-.0715-.1819c-.1072-.2405-.2324-.4692-.3515-.698-.1192-.2287-.1549-.3226-.2443-.481l-.0536-.1056c-.1669-.2932-.3516-.5865-.5422-.8681-.0656-.0997-.1192-.2053-.1907-.305-.2741-.4047-.5601-.7919-.8699-1.1731v-.0294c-.1132-.1349-.2383-.2639-.3575-.3929-.2264-.2581-.4468-.5162-.6911-.7626l-.0358-.041c-.0536-.0587-.1191-.1056-.1728-.1584-.286-.2816-.5958-.5573-.8758-.8212-.0656-.0587-.1371-.0997-.2026-.1525-.5989-.50538-1.2276-.97546-1.8828-1.40778h-.0298l-2.2521-1.47227-3.0745-2.00606c.6527.43539 1.2793.90737 1.8769 1.41362.3634.30501.7149.62176 1.0486.95024l.2383.22289c.2264.22876.435.47512.6495.71561.0715.08799.1549.17011.2323.25809l-1.8232-1.17313-2.6633-1.7597-.1489-.09971h-.0298l.1549.09385-.1549-.09385c-.2324-.15251-.4946-.28156-.7329-.42233-.3634-.21117-.7209-.43406-1.1022-.62762l-.1073-.05866-.0774-.04107-.0715-.03519.0893.05866-.0893-.05279c-.2682-.12904-.5541-.24049-.8342-.36954-.28-.12904-.6673-.31088-1.0188-.44579-.3516-.13491-.715-.26982-1.0785-.39887-.3634-.12904-.709-.25808-1.0724-.3754-.0688-.01992-.1364-.04341-.2026-.07038l-.8043-.23464-.5006-.12317c-.4349-.11145-.8698-.21116-1.3107-.31088-.4409-.09971-.7329-.16424-1.1023-.23463s-.9176-.15837-1.3823-.22876c-.2443-.04106-.4886-.09385-.7328-.12318h-.0418l-.3515-.04106c-.5183-.06452-1.0486-.11145-1.573-.16424-.3455-.02933-.6792-.06452-1.0248-.08798-.5958-.04106-1.1916-.06452-1.7874-.08212-.2503 0-.5005-.02932-.7507-.03519h-.2145c-.1788 0-.3397 0-.5065 0h-.1013l-1.0188.04106h-.2264c-.3218 0-.6376.04692-.9474.08211l1.0308.67456h-.2205c-.3634 0-.7268.05866-1.0903.09972l-.6614.10557c-.3277.04693-.6554.09386-.9771.15838s-.4647.09385-.7031.14664l-.9294.21117c-.2384.05865-.4707.12904-.7091.19356l-.8996.25809c-.2443.07626-.4767.15837-.715.24049l-.8699.30502-.709.28155-.8461.3578c-.2324.09972-.4588.2053-.6912.31675l-.8162.39886c-.2264.11732-.4528.23463-.6733.35781s-.5303.28742-.7865.43992c-.2562.15251-.4349.25223-.6554.38714-.2204.13491-.5064.31674-.7507.48098l-.6256.42233c-.2443.1701-.4826.34607-.721.52204l-.5958.4458-.6852.58656-.5481.46926-.6494.58657c-.1669.16419-.3397.32259-.5065.49269s-.4111.4341-.5958.6511-.3039.3285-.4469.4986-.3992.481-.5958.7215-.2562.3167-.3813.4809l-.0358.047c-.286.3871-.56.7801-.8162 1.1731s-.5184.874-.7508 1.3374v.0352c-.0163.0301-.0303.0615-.0417.0938-.3254.6763-.6079 1.3717-.846 2.0823 0 .0822-.0656.1467-.0894.2288s-.0417.1466-.0655.2229c-.0557.1877-.1093.3832-.1609.5866-.0775.2874-.1549.5865-.2205.8798-.0476.1994-.0893.3989-.1251.5866-.0357.1877-.0655.2874-.0894.434-.0238.1467-.0357.305-.0595.4576-.0239.1525-.0656.4516-.0954.6862-.0297.2347-.0536.5866-.0774.8975-.0239.3109 0 .4516-.0358.6745v.3109.7567.434c0 .5104.0537 1.0207.1132 1.531l.0358.2698c0 .2112.1072.4399.1549.657.0477.217.0953.4575.1609.6921.0655.2346.1906.5866.2979.8447.1072.258.1668.4927.274.7508l.0477.1349c.1788.4164.3813.8446.5958 1.267l.143.2815c.2384.4517.4886.9092.7507 1.355l.0894.1466c.286.481.5958.9503.9057 1.4019.0655.0997.131.1936.2025.2874.3158.4517.6376.8916.9712 1.3022l.0358.0469c.3217.393.6375.7567.9533 1.0969l.2085.217c.0596.0646.1192.135.1788.1936.274.2757.5481.5279.8103.7508l.8103.6804-.9295.5103c-.5958.3168-1.1618.6511-1.7219.9913-.1907.1115-.3634.2347-.5481.3461-.3694.2346-.7329.4634-1.0904.7039l-.6256.4399c-.3098.2229-.5958.4399-.9176.6628l-.6256.4928c-.28.217-.5541.4399-.8222.6628s-.3992.346-.59581.522c-.19662.176-.50644.4458-.74477.6746l-.56007.5396c-.22641.2288-.44686.4575-.66731.6922l-.50645.5572c-.20258.2346-.3992.4634-.59582.7039s-.30982.3754-.45877.5866l-.19663.2463c-.20854.2874-.41111.5866-.59582.8623-.39324.5865-.75071 1.1731-1.08437 1.7948l-.25025.4634c-.09533.1819-.20257.3578-.29195.5397-.14299.2874-.26216.5865-.39324.8681-.07745.1818-.16683.3578-.24429.5396-.26215.6277-.50644 1.2611-.70902 1.8946-.00267.0156-.00267.0314 0 .047-.19662.5865-.35748 1.22-.49452 1.8301-.04171.1818-.07746.3636-.11321.5396s-.08938.4047-.12513.5866c-.03575.1818-.07744.5572-.11319.8388 0 .1583-.04171.3108-.05958.4692-.05959.5866-.10129 1.1321-.11321 1.6952v.1466.481c0 .4751.02979.9444.07149 1.4136 0 .2171.0417.4282.06554.6394.02383.2111.03575.3871.06554.5866.0298.1994.04172.217.05959.3284l-.86991-.5865.04172.305c0 .0762.03575.1466.04767.2229.11321.6687.25024 1.3315.42899 1.9884 0 .0704.03575.1408.05362.2112.01788.0704-.00001.0704.02978.1056v.0411c.1927.6492.42144 1.2876.68519 1.9121.01626.0579.03616.1147.05959.1702.08341.1994.1847.3871.28003.5865.09533.1995.19066.4458.29791.6687l.15492.2757c.07745.1466.16087.2933.24428.4399.2145.3813.4409.7508.67923 1.1204l.25025.3871c.03575.0469.06554.0997.09533.1466h.02978-.02978c.23833.3402.50047.6746.76859 1.0031.08342.1114.16088.2229.25025.3284.36941.4517.76265.8916 1.19164 1.314l.10128.0997.03576.041.04169.0352.16683.1643.06555.0469-.06555-.0469c.13108.1349.29195.2463.42899.3754.48261.4458.97714.8857 1.50742 1.3021.08341.0646.14896.1408.23238.1995l.44686.2874-.44686-.2933c.46473.3578.95332.698 1.45972 1.0265l5.279 3.449c-2.0184-.7341-3.9469-1.6884-5.7497-2.8448l5.3266 3.4783c3.2017 2.0345 6.7532 3.4776 10.4805 4.2585.9592.2111 1.9364.3754 2.9195.522l.3694.0645.5004.0528.8997.0997.5959.0587 1.0188.0704h.1013.0953c.6852.0352 1.3704.0528 2.0615.0586.7925 0 1.5909 0 2.3833-.0586l.6792-.0469c.4826-.0352.9653-.0587 1.4479-.1056l.2323-.0293.5303-.0646c.3575-.041.715-.0762 1.0665-.129.1847 0 .3635-.0587.5422-.088.3516-.0528.7091-.1173 1.0665-.1818.3575-.0646.8461-.1525 1.2691-.2405.4231-.088.7329-.1584 1.1023-.2464.2205-.0528.4409-.088.6554-.1466.2145-.0587.3932-.1115.5958-.1643l.9414-.2522c.423-.1232.8461-.2522 1.2631-.3871.3099-.0997.5959-.1936.9176-.2992l.3754-.1231c.1966-.0704.3872-.1584.5958-.2288.5124-.1877 1.0248-.3871 1.5253-.5866l.9175-.393c.4886-.2111.9653-.434 1.4419-.6687l.8818-.4282c.4886-.2522.9652-.5161 1.4419-.786.2562-.1407.5124-.2815.7626-.4281.5958-.3461 1.1619-.7098 1.722-1.0852.1072-.0704.2264-.1349.3276-.2112l.0715-.0469.0775-.0528.423-.2933c.2145-.1466.4111-.3108.5958-.4692.3337-.2405.6554-.481.9712-.7332s.5363-.4341.7984-.657c.2622-.2229.5958-.5162.9176-.786.3217-.2698.4886-.4575.7328-.6921.2443-.2346.5959-.5514.8521-.8388s.4528-.4869.6792-.7332c.2264-.2464.5183-.5866.7686-.8681.0774-.0997.1668-.1877.2443-.2816.1966-.2405.3753-.4927.566-.7332.0834-.1114.1728-.2112.2562-.3226l.0894-.129.0893-.1174c.2801-.3871.5482-.7742.8044-1.1731v-.0293l.0477-.0763.286-.4634.0476-.0762c.1788-.2933.3456-.5866.5124-.8799.1669-.2932.3754-.7097.5541-1.0675.1073-.2112.1907-.4224.292-.6335.1013-.2112.1668-.3168.2383-.4751.0715-.1584.0715-.2053.1132-.305.3396-.786.6554-1.5779.9116-2.3463l.1788-.5866c.0893-.2991.1728-.5865.2442-.9033l.0358-.1408.0357-.1642c.0477-.1994.1013-.3989.143-.5866 0-.0997 0-.1994.0477-.2991.0417-.2288.1013-.4575.143-.6863.0775-.4751.137-.9444.1907-1.4195-.0026-.0488-.0026-.0978 0-.1466.0536-.5338.0953-1.1145.1072-1.6952zm-21.6162 5.3084c-.1788.2112-.3635.4223-.5541.6276l-.3397.3578c-.2145.2053-.4349.4048-.6553.5866-.1073.088-.2086.1877-.3099.2698-.334.279-.682.5414-1.0427.786-3.7238 2.5281-9.1577 4.018-14.5081 3.9946-.5958 0-1.144 0-1.704-.0587-2.4538-.145-4.868-.6778-7.1498-1.5779-.2324-.2405-.4588-.481-.6674-.7391-.3011-.3616-.5759-.7438-.8222-1.1437-.0834-.1291-.143-.2699-.2204-.4048l-.155-.2991 5.13 3.3493c-.461-.3031-.9009-.6363-1.3167-.9972l-.3396-.3109c-.3811-.3407-.7374-.7072-1.0665-1.0968-.235-.2878-.4519-.5895-.6495-.9034-.0596-.0938-.1132-.1877-.1668-.2815-.142-.2416-.2713-.4903-.3873-.745-.0358-.0762-.0774-.1583-.1132-.2405-.1132-.2815-.2145-.5865-.3039-.8563-.0005-.0098-.0005-.0196 0-.0294-.0851-.299-.1528-.6025-.2025-.9091v-.1936c-.0527-.3732-.0786-.7495-.0775-1.1262v-.1408c.0081-.3536.0399-.7063.0953-1.0558l.0536-.2698c.0537-.2699.1192-.5397.1967-.8036 0-.088.0476-.176.0774-.2581.1193-.3571.2626-.7059.429-1.0441 0-.0528.0536-.1056.0834-.1584.2228-.4405.4819-.8622.7746-1.2611.0213-.0243.0412-.0498.0596-.0763.2145-.2815.4588-.5572.709-.827l.2264-.2346c.2944-.2903.6047-.5644.9295-.8212 3.2353-2.5047 8.4487-3.9359 14.2996-3.9007 1.5633.0027 3.1245.1164 4.6712.3402 2.46.3299 4.8247 1.1545 6.9472 2.4225.1132.2347.1966.4751.286.7156.0536.1408.1073.2875.1549.4282.0477.1408.1073.4048.149.5866s.0715.2757.0893.4165c.0179.1407.0298.2463.0418.3695.0328.2863.0507.5741.0536.8623v.4868c0 .1642 0 .4282-.0596.6394-.0596.2111-.0536.346-.0834.5161s-.1073.4517-.1668.6746c-.0596.2229-.0954.3167-.149.4751-.1224.3559-.2656.7045-.429 1.0441-.0417.0821-.0715.1701-.1132.2522-.2002.4041-.425.7958-.6733 1.1732-.2145.3343-.4528.651-.6911.9678zm5.0882-55.88803.1847.08798c.143.12905.286.24636.4231.38128l.423.41645c.1668.17597.3277.35781.4826.53964.0409.04026.0787.08339.1132.12905l-3.6166-2.34627c.3277.11732.6554.2229.9772.35195.3217.12904.6732.28741 1.0128.43992zm4.7666 31.77433c.2681.2287.5243.4575.7745.698.1252.1232.2503.2463.3695.3754.2842.2991.5527.6123.8043.9385l-2.9374-1.9122-.3634-.2405-.5958-.3754.5541-.5103c.3515.2346.6911.4751 1.0129.7332zm1.4538 2.5809-3.1757-2.0706c.709.2346 1.3882.5103 2.0496.7977l.2741.2816c.2979.3167.5779.6511.846.9913zm-45.8005 39.0887c-.9294-.348-1.8212-.7292-2.6752-1.1438-.2324-.1994-.4766-.3988-.6971-.5865s-.4945-.4282-.7209-.6511-.3992-.4458-.5959-.6687zm32.3052-30.8944c.4528.1232.8997.2581 1.3346.4047l.5959.2171.3992.1701c.2323.2463.4468.5103.6554.7742.1072.1291.2204.2581.3217.393.3002.419.5633.8624.7865 1.3257l-4.987-3.2555c-.2085-.1349-.4469-.2463-.6673-.3754.3217.0645.6554.1115.9652.1877.2026.0411.3932.1056.5899.1584zm-5.0704-21.703c-.1906.176-.3813.3461-.5958.5162s-.5243.3872-.7924.5866-.429.3109-.6554.4516c-.2264.1408-.5958.3461-.8938.5104-.2979.1642-.4587.258-.6971.3754-.2383.1173-.6554.2932-.995.4281-.2323.0998-.4647.2053-.709.2933-.3575.1291-.7209.2288-1.0844.3344-.2324.0704-.4588.1466-.6911.2053-.4052.0997-.8163.1642-1.2215.2287-.1966.0352-.3872.0822-.5958.1056-.5925.0774-1.1897.1146-1.7874.1115-.1728 0-.3337 0-.4946 0-.1847-.1525-.3872-.2875-.56-.4517-.0656-.0704-.143-.129-.2086-.1994-.171-.1872-.3321-.383-.4826-.5866-.0774-.0938-.1608-.1818-.2323-.2815-.22-.2992-.4191-.6128-.5959-.9385-.1364-.2538-.2597-.5142-.3694-.7802-.0774-.1877-.137-.3813-.2025-.5866-.0298-.1055-.0775-.2111-.1073-.3167-.0826-.2973-.1482-.5988-.1966-.9033-.0505-.3556-.0744-.7144-.0715-1.0734 0-.1115 0-.2288 0-.3461s.0298-.3989.0596-.5866.0298-.2463.0536-.3695.0834-.3519.1311-.522c.0274-.121.0612-.2404.1013-.3579.0715-.2053.1549-.3988.2442-.5865.0477-.0997.0835-.2053.1371-.3109.188-.3564.4073-.696.6554-1.0148.0596-.0762.1311-.1525.1966-.2287.1844-.2293.3834-.4467.5958-.6511.1013-.0997.2086-.1877.3098-.2816.2205-.1877.4469-.3636.6912-.5337l.3277-.2288c.3642-.2365.7444-.4482 1.138-.6335 1.7152-.7545 3.5796-1.1231 5.4577-1.0793 1.9537.0103 3.888.3824 5.702 1.0969.1489.0587.3217.0997.4647.1642l.1728.0939c.1728.0821.3277.176.4886.264l.0476.1231c.0556.1604.1033.3187.143.4752.0298.129.0596.2522.0834.3812.0239.1291.0477.2757.0596.4106.028.218.0439.4373.0477.657v.3343c0 .1115 0 .3461-.0477.5221-.0477.1759 0 .258-.0477.3871-.0365.1801-.0822.3582-.137.5338-.0298.1231-.0596.2463-.0953.3695-.1125.3305-.2458.6537-.3992.9678-.1469.2941-.31.5799-.4886.8564-.2221.3189-.4608.6262-.715.9209-.1608.1877-.3158.3813-.4885.5866-.1728.2053-.4231.3695-.6554.5807zm.5243-10.5875c.3456.0939.6793.2288 1.0248.352.0418.0586.0954.1114.143.1701.2221.3039.4212.6235.5959.9561.1251.2405.2323.4868.3336.7332.0072.0301.0172.0596.0298.088l-4.1707-2.71c.5252.0757 1.0462.1775 1.561.305zm-14.24 14.3181c-.0715-.0939-.1549-.1818-.2264-.2757-.2632-.3501-.5002-.7187-.709-1.1027-.1013-.1877-.1788-.3754-.2622-.5866l3.5273 2.3052c-.2979 0-.5959 0-.8878-.0587-.4882-.0526-.972-.1388-1.4478-.258z" fill="url(#a)"/><path d="m31.0557 32.637c-1.6083-.1984-3.1459-.7698-4.4862-1.6672-1.3403-.8973-2.4452-2.095-3.2237-3.4946-.6917-1.2374-1.0708-2.6205-1.105-4.0325s.2774-2.8113.9084-4.0797c1.0196-1.869 2.6361-3.3553 4.5997-4.2292 1.9291-.862 4.0308-1.285 6.1488-1.2376 4.3733 0 9.694 1.7597 11.7317 5.5958.5931 1.0889.8677 2.3185.793 3.552-.0747 1.2334-.4957 2.4222-1.2161 3.434-2.3356 3.5957-7.7456 6.288-12.5777 6.2587-.526.003-1.0516-.0304-1.5729-.0997zm-6.554-12.6229c-.5232 1.0632-.7769 2.2354-.7396 3.4163.0374 1.1808.3647 2.3352.9541 3.3644.6595 1.1921 1.598 2.2123 2.7377 2.9763s2.4479 1.2498 3.8163 1.417c.4543.0589.9121.0883 1.3703.088 4.3197 0 9.1875-2.3756 11.261-5.5724.5723-.803.9085-1.7459.9716-2.7249s-.1494-1.9562-.6141-2.824c-1.4776-2.8038-5.7556-4.7688-10.3732-4.7922-1.8781-.0445-3.7427.3242-5.4577 1.0793-1.6692.7354-3.0467 1.9905-3.9205 3.5722z" fill="url(#c)"/><path d="m40.4774 46.2519c5.6602.8212 10.2718 3.6368 12.0295 7.3321 1.3168 2.751 1.0129 5.7484-.9056 8.6812-1.0166 1.5785-2.3459 2.939-3.9086 4.0004-3.7239 2.5281-9.1577 4.018-14.5082 3.9945-6.3871-.0352-11.7971-2.1644-14.8417-5.8656-3.6584-4.4228-2.8183-10.5582 1.9602-14.2712 3.5034-2.7275 9.0743-4.2761 15.2827-4.2409 1.6374.0092 3.272.1326 4.8917.3695zm9.8369 15.2508c1.6206-2.4871 1.8947-5.021.7984-7.3028-1.5491-3.2554-5.7199-5.7366-10.8677-6.4874-1.5471-.2206-3.108-.3343-4.6712-.3402-5.8629-.0293-11.0763 1.396-14.2996 3.9007-4.0933 3.1909-4.8321 8.4582-1.71 12.2357 2.7586 3.3317 7.7456 5.2791 13.6501 5.2791 5.0526 0 10.1289-1.3608 13.6204-3.7247 1.3924-.9536 2.5807-2.1673 3.4975-3.5722z" fill="url(#d)"/><path d="m61.5281 42.8194c-2.0436-2.7979-5.5827-4.9154-10.248-6.1414l-1.4121-.3636 1.1201-.9033c7.1916-5.7777 10.5758-13.3679 8.8003-19.8553-3.2174-11.8428-17.7971-13.42653-24.1723-13.53211-.0775 0-.1549 0-.3933 0-8.5916-.04106-18.0592 4.99169-22.498 11.96011-2.1092 3.32-3.07443 7.8952-2.562 12.2475.4349 3.7247 4.0217 9.344 6.8161 11.6961l.8103.6804-.9295.5103c-4.8916 2.6572-8.89549 6.0827-11.2728 9.6667-3.50936 5.2791-4.766538 11.1447-3.5749 16.5118.25012 1.1476.60508 2.2705 1.06055 3.3552 2.8063 6.5871 9.13985 11.2738 17.83875 13.2036 2.6917.5913 5.4405.8941 8.1984.9033 13.972.0704 27.6221-6.9391 33.1751-17.0398 4.3257-7.9303 4.0575-16.2713-.7567-22.8995zm-38.3765-23.4627c1.0196-1.8689 2.6361-3.3552 4.5997-4.2291 1.9291-.862 4.0308-1.285 6.1488-1.2377 4.3733 0 9.694 1.7597 11.7317 5.5959.5931 1.0889.8677 2.3185.793 3.5519-.0747 1.2335-.4957 2.4223-1.2161 3.4341-2.3356 3.5956-7.7456 6.288-12.5777 6.2586-.526.003-1.0516-.0303-1.5729-.0997-1.6083-.1984-3.1459-.7697-4.4862-1.6671-1.3403-.8973-2.4452-2.0951-3.2237-3.4947-.6907-1.2366-1.0692-2.6186-1.1034-4.0295s.2768-2.8091.9068-4.0768zm-2.848 30.8065c3.5034-2.7275 9.0743-4.2761 15.2827-4.2409 1.6369.0033 3.2716.121 4.8916.352 5.6603.8212 10.2719 3.6367 12.0296 7.332 1.3167 2.751 1.0129 5.7484-.9057 8.6812-1.0165 1.5785-2.3459 2.939-3.9085 4.0004-3.7239 2.5281-9.1577 4.018-14.5082 3.9945-6.3871-.0352-11.7971-2.1644-14.8418-5.8656-3.6583-4.4286-2.8182-10.5758 1.9603-14.2536z" fill="url(#e)"/><path d="m35.6142 2.03027c6.3753.10559 20.9549 1.68931 24.1723 13.53213 1.7875 6.4815-1.5848 14.0776-8.8002 19.8494l-1.1201.9033 1.4121.3636c4.6652 1.226 8.2044 3.3435 10.248 6.1414 4.8142 6.6282 5.0823 14.9692.7329 22.8761-5.553 10.1007-19.2032 17.1101-33.1751 17.0397-2.7577-.0072-5.5065-.3081-8.1985-.8974-8.6989-1.9298-15.03242-6.6165-17.83872-13.2036-.45546-1.0847-.81043-2.2076-1.06055-3.3552 6.27395 7.8483 17.64217 13.2095 28.56347 13.2682 1.6856.0097 3.3692-.1138 5.0346-.3696 12.0713-1.8829 23.7374-10.5113 24.0413-22.9406.2562-10.6227-11.3206-15.5792-20.9132-16.6995 5.559-3.4432 11.9163-6.6224 14.7882-12.5526 2.8718-5.9301-.286-12.7343-4.713-17.01038-3.7185-3.38199-8.253-5.77258-13.1735-6.94495z" fill="url(#f)"/><path d="m62.7777 41.952c-2.0317-2.798-5.3921-4.9683-9.7356-6.3232 6.9234-5.9947 10.0693-13.7374 8.2401-20.4419-2.4964-9.12694-11.9163-14.458833-26.0491-14.664131-9.1041-.046926-19.1079 5.279101-23.8327 12.663931-2.29388 3.5957-3.33655 8.517-2.78244 13.1743.44687 3.7775 3.67024 9.1035 6.55404 11.9484-4.6951 2.6923-8.55002 6.0944-10.90946 9.649-4.534166 6.81-5.49939 14.5469-2.6633 21.2161 2.97908 7.0388 9.69986 12.0422 18.89336 14.0776 2.8059.6117 5.6702.9263 8.544.9385 14.526.0763 28.7303-7.2617 34.5574-17.8375 4.6533-8.382 4.3495-17.292-.8163-24.4011zm-57.19841 6.8041c2.38327-3.5839 6.38121-7.0094 11.27291-9.6666l.9294-.5103-.8103-.6804c-2.7944-2.3463-6.3812-7.9715-6.8161-11.6962-.51244-4.3523.4528-8.9275 2.562-12.2475 4.4388-6.96836 13.9064-12.0011 22.8913-11.94245 6.3752.10558 20.9549 1.68931 24.1723 13.53205 1.7874 6.4816-1.5849 14.0776-8.8002 19.8494l-1.1202.9034 1.4121.3636c4.6653 1.226 8.2044 3.3435 10.248 6.1414 4.8143 6.6282 5.0824 14.9692.7329 22.8761-5.553 10.1007-19.2032 17.1101-33.1751 17.0397-2.755-.0019-5.5018-.2969-8.1925-.8798-8.6989-1.9298-15.03243-6.6165-17.83873-13.2036-.45547-1.0847-.81043-2.2076-1.06055-3.3552-1.14993-5.3729.08937-11.2327 3.59874-16.506z" fill="url(#g)"/></svg>