<svg fill="none" height="88" viewBox="0 0 68 88" width="68" xmlns="http://www.w3.org/2000/svg" xmlns:xlink="http://www.w3.org/1999/xlink"><linearGradient id="a"><stop offset="0" stop-color="#f48996"/><stop offset=".05" stop-color="#f38290"/><stop offset=".2" stop-color="#f17785"/><stop offset=".41" stop-color="#f0707f"/><stop offset="1" stop-color="#f38897"/></linearGradient><radialGradient id="b" cx="0" cy="0" gradientTransform="matrix(15.5565 0 0 15.1756 31.0974 30.5773)" gradientUnits="userSpaceOnUse" r="1" xlink:href="#a"/><radialGradient id="c" cx="0" cy="0" gradientTransform="matrix(2.74068 0 0 2.67359 14.7625 64.6255)" gradientUnits="userSpaceOnUse" r="1" xlink:href="#a"/><radialGradient id="d" cx="0" cy="0" gradientTransform="matrix(39.0352 0 0 38.0795 34.5778 44.5365)" gradientUnits="userSpaceOnUse" r="1" xlink:href="#a"/><linearGradient id="e"><stop offset="0" stop-color="#f37e80"/><stop offset=".85" stop-color="#e67372"/></linearGradient><linearGradient id="f" gradientUnits="userSpaceOnUse" x1="-31.3917" x2="75.0155" xlink:href="#e" y1="27.5406" y2="56.1259"/><linearGradient id="g" gradientUnits="userSpaceOnUse" x1="10.0625" x2="60.6362" xlink:href="#e" y1="42.4229" y2="42.4229"/><linearGradient id="h"><stop offset="0" stop-color="#e6e6e5"/><stop offset=".81" stop-color="#f58e93"/></linearGradient><linearGradient id="i" gradientUnits="userSpaceOnUse" x1="-3.88808" x2="72.0908" xlink:href="#h" y1="3.66014" y2="65.6601"/><linearGradient id="j" gradientUnits="userSpaceOnUse" x1="-11.4749" x2="64.2276" xlink:href="#h" y1="13.0085" y2="74.7794"/><path d="m22.0777 39.5516 5.3614 3.4692c1.9581 1.3022 4.2635 2.0179 6.6328 2.0593 1.1007.0052 2.196-.1485 3.2505-.4563.3718-.1053.7376-.2281 1.0975-.3685.1139-.041.2278-.0995.3418-.1463.2459-.0994.4917-.1989.7316-.3159l.4019-.2165c.2159-.1111.4318-.2223.6417-.3451.2099-.1229.2758-.1755.4197-.2692l.5997-.3744c.144-.0994.2819-.2106.4138-.3159.132-.1053.3599-.2691.5338-.4154l.3958-.351c.1679-.1462.3358-.2925.4918-.4505.1559-.1579.2458-.2573.3718-.3802.1259-.1229.3058-.3276.4498-.4973.1439-.1697.2219-.2691.3298-.4037.108-.1345.2039-.234.2939-.3568.0899-.1229.0779-.1229.1199-.1755.108-.1463.2039-.2925.3058-.4447.102-.1521.2399-.3685.3539-.585.1139-.2164.1799-.3159.2699-.4739.0899-.1579.1379-.234.1979-.351s.036-.0994.0599-.1521c.2358-.4808.4362-.9774.5998-1.486v-.0585c0-.0702.0359-.1462.0539-.2164.114-.3744.2099-.7547.2879-1.1701 0-.076.042-.1521.0539-.2281.012-.0761 0-.1638 0-.2457.0524-.355.0865-.7123.102-1.0707 0-.0994.03-.1989.03-.2983 0-.0995 0-.0702 0-.0995.0057-.5284-.0304-1.0565-.1079-1.5796 0-.0468 0-.0877 0-.1345-.048-.3101-.114-.6318-.192-.9477-.1289-.5109-.2973-1.0116-.5037-1.4977 0-.0585-.036-.1229-.06-.1756-.024-.0526-.09-.1813-.1319-.2749-.042-.0936-.1619-.3335-.2459-.4973s-.1919-.3451-.2939-.5148c-.1019-.1697-.1919-.3101-.2938-.4622-.102-.1521-.2159-.3218-.3358-.4797l-.3299-.4388c-.126-.1521-.2579-.2983-.3898-.4504l-.3658-.3979c-.042-.0468-.084-.0994-.132-.1462s-.1379-.1112-.1979-.1755c-.2519-.2399-.5097-.4681-.7796-.6904-.102-.0877-.2039-.1755-.3119-.2574-.3658-.2925-.7496-.585-1.1454-.8249l-1.1994-.7839-4.15-2.6853c-.5607-.3533-1.1414-.6756-1.7392-.9653-.108-.0526-.2159-.1111-.3238-.1579-.5863-.2724-1.1868-.5146-1.7992-.7255l-.1499-.0643-.2879-.082c-.3538-.1111-.7136-.2164-1.0735-.31l-.4557-.1112c-.4738-.1111-.9536-.2106-1.4273-.2808h-.066c-.3299-.0526-.6537-.0819-.9776-.1111-.0959 0-.1919 0-.2938-.0351-.4198-.0351-.8396-.0527-1.2534-.0527-1.3001-.017-2.5962.1445-3.8502.4797-.4811.1443-.9503.3242-1.4033.5383l-.1559.0702c-.4369.2145-.8578.4589-1.2594.7312l-.1979.1346c-.3996.2839-.7783.5947-1.1335.9302l-.1799.1755c-.3625.355-.6991.7342-1.0075 1.135-.0125.0186-.0266.0362-.042.0526 0 .0351-.0419.0702-.0659.0995-.335.4609-.6337.9459-.8936 1.4508-.0166.0341-.0306.0693-.042.1054-.2127.4079-.3951.8302-.5457 1.2636 0 .0527-.048.0995-.066.158s0 .0643 0 .0936c-.1415.4489-.2537.9062-.3358 1.369v.0877.1755c-.0698.4594-.1119.9224-.126 1.3865v.1814.1112.4621c0 .1521 0 .4329.03.6553.03.2223.036.3393.054.5148s0 .31.054.4739l.0659.3744c.0907.5041.2128 1.0023.3659 1.4918.0479.1697.1199.3452.1799.5148.1139.3276.2219.6494.3598.9712l.03.0877c.1079.2457.2339.4797.3538.7137.1199.2341.1799.4037.2879.5851.1079.1813.3238.5499.4917.819.108.1814.2099.3627.3299.5382.1799.275.3838.5324.5997.7957.1259.1638.2399.3393.3778.4973.1379.1579.4198.4739.6357.7079s.2939.3393.4498.4972c.2519.2574.5277.4856.7976.7255.1259.1111.2459.2281.3718.3334.4112.3594.8415.6973 1.2894 1.0121zm14.0573-19.4054c.3538.0878.7076.1931 1.0614.3042l.4378.1463c.3359.1112.6537.2633.9835.392l.102.1053c.1259.1228.2399.2574.3598.3861.12.1287.2699.3101.3959.468.1259.158.2158.275.3238.4154.1079.1404.2399.3276.3478.4973.108.1696.1919.2983.2819.4504.0899.1521.1259.2165.1859.3218l-5.3434-3.4458c-.1919-.1229-.3958-.2341-.5997-.3511.3298.0585.6596.1112.9835.1873zm-11.6584 20.3766c-.2279-.2457-.4618-.4856-.6717-.743s-.2819-.3861-.4258-.585c-.1439-.199-.3658-.468-.5278-.7138l-.1919-.3159c.066.0468.132.1053.2039.1463l4.9716 3.2176c-1.024-.0787-2.0325-.2912-2.9985-.6318-.12-.1287-.2279-.2457-.3598-.3744zm4.2279 1.0881c-.2819 0-.5457-.0468-.8156-.0643-.2819-.1931-.5637-.392-.8276-.585-.1319-.1053-.2459-.2282-.3718-.3335-.2339-.2106-.4678-.4095-.6897-.6319-.2219-.2223-.3418-.3744-.5157-.585-.174-.2106-.3119-.3393-.4618-.5207-.1499-.1813-.3059-.4036-.4558-.585s-.2819-.3686-.4078-.585c-.1259-.2165-.2579-.4154-.3838-.626-.126-.2106-.2459-.3978-.3598-.585-.114-.1872-.1979-.4154-.2999-.6202-.1019-.2047-.2159-.4329-.3118-.6552-.096-.2223-.2339-.6201-.3419-.9302-.0479-.1462-.1079-.2866-.1499-.4329-.1374-.45-.2495-.907-.3359-1.369-.0539-.2808-.0839-.585-.1139-.8248 0-.1522-.036-.3043-.048-.4505 0-.2691-.0299-.5266-.0299-.784 0-.0877 0-.1755 0-.2632 0-.0878 0-.0761 0-.1112.0115-.4233.0515-.8455.1199-1.2637l.054-.3276c.0674-.3594.1555-.7149.2638-1.0647 0-.041 0-.0761.03-.1112.1301-.3806.2823-.7536.4558-1.1174l.1259-.2399c.217-.4054.4614-.7963.7317-1.17l.1199-.1463c.2848-.373.5975-.725.9356-1.053l.1199-.1053c.3298-.3056.6805-.589 1.0495-.8483l.102-.0585c.3533-.2436.7264-.4588 1.1154-.6435l.054-.0293c.3676-.1732.7486-.3179 1.1395-.4329 1.1006-.3096 2.2432-.4536 3.3883-.4271 3.1938.0335 6.3126.9483 8.9957 2.6385l.1139.1989c.084.158.162.3218.2399.4856.078.1638.138.3042.198.4621.2055.4845.3738.9831.5037 1.4919.0863.353.1523.7104.1979 1.0706.0776.5309.1136 1.0667.108 1.6029v.3511c0 .39-.036.78-.108 1.17l-.0719.4154c-.0774.3946-.1755.7852-.2939 1.17 0 .0936-.048.1873-.078.275-.1651.5099-.3655 1.0084-.5997 1.4918-.0779.1639-.1619.316-.2459.4739l-.2878.5148c-.108.1756-.2159.3394-.3299.509-.1139.1697-.2219.3393-.3418.5031s-.2399.3101-.3598.4681c-.12.1579-.2459.31-.3779.4621-.1319.1521-.2758.3043-.4198.4505-.1439.1463-.2578.2808-.3958.4154-.1379.1345-.3118.2866-.4677.4329-.156.1462-.2759.2516-.4198.3686-.144.117-.3419.2691-.5158.4036-.1739.1346-.2819.2224-.4318.3218-.1499.0995-.3718.2516-.5637.3686s-.2819.193-.4318.2808-.4078.2223-.5997.3335c-.1919.1111-.2759.1521-.4198.2223s-.4738.2106-.7137.31c-.1199.0527-.2399.1112-.3598.158-.3598.1346-.7256.2574-1.0975.3627-1.0729.2926-2.1847.4266-3.2984.3978z" fill="url(#b)"/><path d="m17.9289 66.8077-.3238-.3627-.06-.0468c-.1826-.1795-.3835-.3402-.5997-.4798l-5.3614-3.4692c.3665.2508.6955.5501.9775.8893z" fill="url(#c)"/><path d="m67.5379 44.8934c0-.5851-.048-1.1408-.072-1.7083 0-.3627 0-.7313-.0479-1.094-.078-1.1701-.1859-2.3752-.3478-3.5102-.042-.2925-.084-.585-.132-.8775s-.1319-.7138-.1919-1.0765c-.108-.6728-.2219-1.3455-.3538-1.9891-.102-.4914-.2099-.9653-.3179-1.445-.1379-.585-.2758-1.2286-.4318-1.8253-.1199-.468-.2519-.9243-.3838-1.3807-.1679-.585-.3358-1.1232-.5097-1.6731-.15-.4447-.3059-.8834-.4618-1.3164-.1559-.4329-.3838-1.0296-.5997-1.5327-.084-.2048-.156-.4212-.2399-.626-.084-.2048-.2339-.4973-.3538-.7489-.12-.2515-.2939-.6552-.4498-.9711-.2399-.4856-.4858-.9594-.7437-1.4216-.1559-.2925-.3118-.585-.4798-.8776-.2878-.4855-.5997-.9594-.8935-1.4216-.156-.234-.2999-.4739-.4558-.702-.4738-.6786-.9595-1.3339-1.4753-1.9599-.3298-.4037-.7016-.8248-1.0915-1.2519l-.3118-.3452c-.3199-.3432-.6557-.6942-1.0075-1.053l-.2219-.2282c0-.0351-.066-.0644-.102-.0995-.4198-.4153-.8576-.8366-1.3253-1.2578l-.2999-.2633c-.3718-.3334-.7556-.6669-1.1454-.9945l-.5218-.4212c-.3538-.2867-.7136-.5851-1.0854-.84831l-.5158-.38611c-.5338-.39197-1.0795-.77809-1.6372-1.13496l-5.3615-3.46921c.5578.36272 1.1095.74883 1.6493 1.17006.1619.11115.3178.23399.4737.351.3898.29251.7737.58504 1.1455.89511.1559.12286.3178.25154.4677.38025.4198.35101.8276.70203 1.1995 1.0589l.2399.20478c.2818.26326.5517.52651.8216.78977-.3599-.25741-.7257-.50895-1.0975-.74881l-5.3614-3.4634c-1.1639-.76104-2.3848-1.43572-3.6523-2.01836-.4018-.18136-.8096-.35101-1.1994-.50311-3.0841-1.14332-6.3561-1.72818-9.6554-1.72585-.8336 0-1.6612.03513-2.4888.09948l-.6836.05849c-.6957.07021-1.3914.15797-2.081.26913l-.3179.04096h-.1319c-.3059.05265-.5997.12286-.9056.18721-.3058.06435-.6717.1287-1.0015.2106s-.5997.15209-.8936.23399l-.8276.21646c-.0326.01519-.0668.02696-.1019.0351-.8576.25741-1.6912.54996-2.5188.87172l-.5518.22232c-.8336.33931-1.6552.702-2.4468 1.10567l.7017.45049-.5278.26327-.5097.28666c-.3658.19891-.7257.39781-1.0795.58502-.1979.11701-.3898.24572-.5997.36858l-.9296.58502-.5997.42706c-.2818.21061-.56371.42124-.83958.6377l-.56971.46802c-.26388.22231-.52176.45045-.77364.67861l-.52775.49729c-.24588.2399-.48576.4914-.72564.743-.23989.2515-.31185.3276-.46177.4973-.25188.2866-.49177.585-.73165.8834-.11395.1404-.23389.2808-.34184.4212l-.04799.0585c-.32384.4329-.59971.8775-.91156 1.328-.30548.4831-.5857.981-.83959 1.4918-.04798.0936-.08396.1931-.13194.2808l-.1799.3979c-.23389.5148-.44381 1.0413-.63571 1.5795 0 .0936-.07196.1931-.10194.2867-.01856.042-.03459.0849-.04799.1287-.18591.585-.34183 1.17-.47976 1.7551-.03599.1579-.06597.3159-.09596.4739-.04798.2515-.11395.4972-.15593.7488s-.06595.5031-.09594.7488c-.02998.2457-.06598.4388-.08997.6553-.05997.585-.10194 1.17-.11993 1.7551v.3393.0643c0 .4563 0 .9127.03598 1.369v.8424c.04198.5851.11394 1.1057.18591 1.6557 0 .2106.03597.427.06596.6318.10795.6903.2459 1.3748.40782 2.0593.04797.2106.10194.4154.15591.626.12594.4973.26988.9887.41981 1.4801.06596.2106.13193.4212.2039.6318.1999.5851.41581 1.1584.64769 1.72.04198.0936.07195.1872.11393.2809-.00257.0233-.00257.0468 0 .0702.10195.2398.23389.468.34184.7078.2219.4739.4378.9478.68368 1.4041.14993.2867.32385.585.48577.8307.23988.4213.47976.8366.74363 1.2403.18592.2867.39581.5558.59972.8366.2039.2808.52775.743.80961 1.0998.28187.3569.46178.5324.69567.7957.23389.2632.5997.6727.88756.9887.05997.0643.11395.1345.17392.193.28786.2867.59971.55.89358.8191.1739.1579.3418.3218.5218.4739.5637.4738 1.1454.9301 1.7511 1.3455l.4618.3042 5.3674 3.4693-.06-.0351.06.0351c.7107.4543 1.4476.8684 2.2069 1.2402-3.0082-.676-5.8707-1.8642-8.4559-3.5102l5.3614 3.4693c4.5308 2.8306 9.8045 4.322 15.1847 4.2941 4.6085.0455 9.1645-.956 13.3076-2.9252v.0468c0 .1989.0001.4037-.0359.5851-.036.1813-.066.585-.108.8541 0 .1814-.042.3569-.072.5324-.0599.3685-.1379.7313-.2219 1.0882 0 .0936-.0359.193-.0599.2866-.108.4505-.2399.8951-.3838 1.3339-.084.2457-.18.4855-.2699.7312-.09.2458-.144.4154-.2279.5851-.084.1696-.1919.4153-.2879.626-.0959.2106-.1979.4563-.3118.6786-.2339.4563-.4858.9068-.7497 1.3456-.0599.0936-.1259.1755-.1859.2691-.2099.3393-.4318.6727-.6717.9887l-.2398.31c-.3059.392-.6297.7781-.9656 1.1701-.1019.117-.2099.234-.3178.3451-.4115.4259-.8459.8302-1.3014 1.2111l-.2099.1579c-.4019.319-.8202.6178-1.2534.8951l-.4138.2575c-.506.3059-1.0307.5814-1.5712.8248-2.4069 1.0057-5.0044 1.5041-7.6224 1.4626-4.3659 0-9.1816-1.3163-13.6494-3.5862l-4.0601-2.6268c-.3547-.2329-.77178-.359-1.19938-.3627-.4387.0234-.86798.1334-1.26177.3235-.3938.1901-.74391.4562-1.02913.7822-.15469.1586-.29891.3267-.43179.5031l-.02998.0526c-.17396.2374-.32838.4878-.46179.7489-.01841.0371-.0405.0724-.06596.1053l-.03598.0994c-.15853.3223-.29477.6546-.4078.9946v.0643c-.0028.0351-.0028.0703 0 .1053-.14225.4424-.25248.894-.32985 1.3515v.076.0995c-.09513.5946-.15121 1.1945-.16792 1.796v.0761.076.9829.1872c0 .2749.04798.5382.08397.7956v.1404.0936c.05397.3394.11994.667.2039.9829l.03598.1111c.07796.2692.16192.5207.25787.7606 0 .0468.03598.0994.05397.1404l.04199.0877c.09622.2183.20845.4294.33583.6319.18164.2965.38193.5818.59972.8541.05997.0761.13793.1521.20389.2282.14993.1755.29986.351.46778.5207l.07196.0585c.16792.1638.35385.3217.53976.4797.18591.1579.24587.2223.3838.3334.32984.2574.67768.5149 1.0555.7547l.4078.2633c-.55173-.0702-1.10347-.1521-1.65521-.2399.26987.1989.54575.392.83361.5851l4.54583 2.9251c-1.758-.58-3.4375-1.3658-5.00162-2.3401l5.36142 3.4692c2.7642 1.6697 5.8099 2.8482 8.9957 3.4809 2.5014.5679 5.0601.8603 7.6283.8717.7976 0 1.5953 0 2.3989-.0819.2339 0 .4677-.0351.6956-.0526.5997-.0527 1.1995-.117 1.7992-.1931l.6836-.0936c.7617-.117 1.5233-.2574 2.2729-.4212h.06c.7796-.1755 1.5533-.3861 2.3149-.585l.5997-.1931c.5997-.1814 1.1515-.3803 1.7152-.585l.5997-.234c.6957-.275 1.3794-.5851 2.051-.8893l.102-.0468.0719-.0292c.3359-.1639.6657-.3335 1.0015-.509.168-.0936.3419-.1814.5098-.2808l.4678-.2691.4258-.2516.5457-.3159.3358-.2165.21-.1345c.2878-.1873.5997-.3803.8575-.5851.8097-.585 1.5893-1.17 2.3329-1.7551.4738-.3978.9296-.7956 1.3794-1.211.1259-.117.2338-.2457.3598-.3627.3838-.3627.7496-.7371 1.1095-1.1174.2159-.2164.4437-.4212.6476-.6435s.2519-.2984.3839-.4446l.4437-.509c.162-.1872.3299-.3744.4858-.585.1619-.1931.2939-.4037.4498-.5851.1559-.1813.4138-.4972.5997-.7547.1859-.2574.2579-.3919.3958-.585.138-.193.3419-.4329.4978-.6611.1559-.2281.4258-.6318.6357-.9477.1379-.2165.2699-.4388.4078-.6611l.1499-.2399.2579-.4153c.4798-.8074.9235-1.6323 1.3493-2.4688.0217-.0461.0457-.091.072-.1346.072-.1463.132-.2984.2039-.4446.2339-.4856.4798-.9712.6957-1.4626.1199-.2632.2219-.5382.3298-.8015.108-.2632.2459-.585.3598-.8834.3119-.7722.5998-1.5561.8636-2.3401.048-.1462.114-.2984.1619-.4505 0-.0409 0-.0877.042-.1345.3279-1.0297.6237-2.0691.8876-3.1182.0659-.2633.12-.5207.1799-.784.102-.4212.2099-.8424.2939-1.2636.0539-.2516.1079-.5032.1559-.7606s.072-.4387.1079-.6552c0-.117.054-.234.072-.351s.03-.2633.054-.392c.1919-1.17.3538-2.3401.4618-3.5102v-.193c.1019-1.1291.1619-2.2524.1919-3.3639 0-.1229 0-.2516 0-.3744 0-.1229 0-.1405 0-.2107v-.4504zm-20.3902-36.66965c.4918.40953.9776.8249 1.4453 1.24612.0295.02582.0575.05317.084.08191.2938.26326.5697.53242.8516.80152-.3419-.234-.6777-.47391-1.0315-.69622l-5.2115-3.37563c.2518.08776.5157.1521.7676.24571.7197.27496 1.4513.58505 2.177.97116.1619.12871.3358.25741.4977.39196zm-31.3229 40.57765-.2579-.234c-.3598-.3277-.7137-.6494-1.0555-1.0005-.3418-.351-.5997-.6435-.8756-.9711-.2758-.3276-.4797-.5324-.7016-.8132s-.5398-.7196-.8037-1.0881c-.2638-.3686-.4138-.5851-.5997-.8483-.2638-.392-.4917-.8074-.7316-1.211-.1679-.2867-.3479-.5851-.4978-.8542-.2399-.4446-.44377-.9009-.65367-1.3573-.13194-.2749-.28185-.5499-.4018-.8307-.03598-.0819-.05997-.1638-.09595-.2457-.23989-.585-.46178-1.1701-.65969-1.7551l-.19789-.585c-.15593-.509-.29986-1.018-.4318-1.5328-.04798-.1931-.10195-.3803-.14993-.585-.15592-.6904-.29987-1.3865-.40781-2.0827 0-.1287.00001-.2575-.04197-.3862-.08396-.6318-.16792-1.2636-.2099-1.8954 0-.2575 0-.509 0-.7606 0-.509-.04198-1.0179-.02998-1.521 0-.1053 0-.2107 0-.316 0-.585.05997-1.17.12593-1.7551 0-.2164.05397-.4329.08395-.6493.06597-.509.14994-1.018.25189-1.5153.03598-.1521.06597-.3042.09596-.4563.14992-.6494.32384-1.287.52775-1.9072.02998-.0877.06595-.1696.09593-.2515.19191-.5441.40781-1.0823.6417-1.603.05997-.1346.11994-.2691.18591-.3978.28544-.6034.60788-1.1895.96554-1.7551.29983-.4797.59973-.9419.97153-1.3982l.2579-.3277c.2638-.3334.5337-.661.8156-.9828.1379-.1521.2759-.2984.4198-.4446.2459-.2691.5037-.5324.7676-.7957.1619-.1579.3299-.31.4978-.4622.2639-.2398.5277-.4797.8036-.7078l.5517-.4505c.2759-.2223.5638-.4388.8516-.6494l.5997-.4212c.3059-.2106.5997-.4095.9356-.585.1919-.1229.3838-.2458.5997-.3628.3538-.21642.7136-.41533 1.0795-.58499.1739-.0936.3358-.19304.5097-.2808.5458-.28081 1.0975-.54992 1.6612-.80149h1.3854c3.7563.02437 7.4964.48189 11.1426 1.3631 2.1963.54548 4.3227 1.33048 6.339 2.34008.1619.1287.3178.2691.4737.4037.5038.4271.9955.8659 1.4633 1.3222.2459.234.4798.4739.7137.7137.4857.5032.9535 1.0238 1.4033 1.5562.1799.2106.3599.4154.5338.6318.5997.7489 1.1634 1.5153 1.6911 2.3401.108.158.1979.3218.2999.4798.4198.6552.8216 1.328 1.1994 2.0125.1559.2866.3059.585.4558.8658.3058.585.5997 1.2052.8756 1.8194.1379.3101.2819.6202.4138.9361.1739.4212.3358.8424.4978 1.2695.1619.4271.2758.7372.4078 1.1116.1319.3744.2878.8951.4257 1.3455.138.4505.2219.7372.3239 1.1057.1259.4622.2339.9244.3478 1.3866.114.4621.18.7429.2579 1.1232.078.3803.1739.9244.2579 1.3865.066.3686.1319.7372.1919 1.1057.1599 1.1116.2798 2.227.3598 3.3464 0 .2515 0 .5031.042.7488.06 1.018.0839 2.0359.072 3.048v.4681c0 .8951-.066 1.7901-.138 2.6735-.1019 1.2169-.2578 2.4221-.4558 3.6155-.0779.5032-.1859.9946-.2818 1.4919-.096.4972-.2039 1.0471-.3239 1.562-.1199.5148-.2638 1.0121-.4018 1.5152 0 .0878-.0479.1755-.0779.2691 0-.1287 0-.2574-.036-.3861l-.054-.3159c-.0824-.4296-.1925-.8536-.3298-1.2695-.042-.1288-.096-.2633-.144-.392-.0479-.1287-.1079-.3101-.1739-.468-.066-.158-.2219-.4973-.3538-.7547l-.4078-.8074-5.3614-3.4692-.7557.5499c-3.9986 2.7399-8.6628 4.411-13.5288 4.8472s-9.7643-.3777-14.2078-2.3608z" fill="url(#d)"/><path d="m60.1783 35.3039c-1.2774-9.1089-3.9521-16.0298-8.1501-21.1488-2.8846-3.5102-8.186-8.35419-13.6374-10.41349-3.0063-1.11119-6.1946-1.6801-9.4095-1.67903-4.513-.01003-8.9748.93192-13.0797 2.76132-4.7677 2.12365-8.79778 5.3589-11.28658 9.3136-6.21302 9.8636-2.39886 25.7998 7.86218 32.7968 4.3639 2.8709 9.5135 4.3918 14.7769 4.3643 5.8355.1008 11.5482-1.6392 16.2882-4.961l.7556-.55.4078.8074c.474.9116.8113 1.8849 1.0016 2.89 1.3313 7.6873-2.9086 16.0064-9.6554 18.9491-2.4068 1.0057-5.0043 1.5041-7.6223 1.4626-5.3974 0-11.5625-1.995-16.8459-5.394l-.1919-.1872c-.2097-.2964-.4876-.5407-.8115-.7134s-.68473-.269-1.05364-.2812c-.43871.0234-.86798.1335-1.26178.3235-.39379.1901-.74391.4562-1.02912.7822-2.39885 2.3987-2.60276 8.4713-.94156 11.0746.95525 1.4425 2.24552 2.6451 3.7662 3.5102 2.5181 1.415 5.251 2.4301 8.0961 3.0071 4.4499.9884 9.0619 1.0641 13.5434.2221 4.4815-.8419 8.7347-2.583 12.4901-5.113 13.7514-9.6471 17.9434-27.941 15.9883-41.8237zm-28.1864 5.8503c-1.0545.3077-2.1499.4615-3.2505.4563-7.0286-.0351-12.5519-6.4353-13.6194-12.3324-1.1995-6.6167 2.7706-11.4081 7.3044-12.7302 1.254-.3353 2.5501-.4967 3.8502-.4797 6.237.0292 13.7574 3.6154 15.3886 10.2087 1.6492 6.7922-3.6702 13.169-9.6973 14.8773z" fill="url(#f)"/><path d="m28.9834 2.06173c3.2149-.00107 6.4032.56785 9.4095 1.67904 5.4514 2.0593 10.7528 6.89743 13.6374 10.41353 4.198 5.119 6.8727 12.0398 8.1501 21.1487 1.9551 13.8828-2.2369 32.1767-15.9883 41.7887-3.7554 2.53-8.0086 4.2711-12.4901 5.113s-9.0935.7663-13.5434-.2222c-2.8451-.577-5.578-1.592-8.0961-3.007 2.2333.2836 4.4826.4301 6.7348.4387 1.6192 0 3.1904-.0467 4.6897-.1696 19.1068-1.5796 29.8117-17.0828 31.185-34.0721 1.3614-16.3164-6.279-34.5167-24.2763-39.00389-3.6368-.87689-7.3665-1.33437-11.1127-1.36309h-1.3853c4.1081-1.82418 8.5721-2.76017 13.0857-2.74379z" fill="url(#g)" opacity=".25"/><path d="m26.2774 16.0686c6.237.0292 13.7574 3.6154 15.3886 10.2087 1.6732 6.7922-3.6462 13.169-9.6733 14.8773-1.0545.3077-2.1498.4615-3.2505.4563-7.0286-.0351-12.5519-6.4353-13.6194-12.3324-1.1994-6.6167 2.7706-11.408 7.3045-12.7302 1.2539-.3352 2.55-.4967 3.8501-.4797zm5.2835 23.6878c5.3434-1.5152 10.0872-7.1549 8.5999-13.1456-1.4393-5.8503-8.2461-9.0504-13.8954-9.0796-1.1453-.0218-2.2874.1241-3.3884.4329-3.1484.9009-7.4064 4.5983-6.2249 11.057.9655 5.3296 5.8651 11.1156 12.1021 11.1156.9493.0038 1.8944-.1243 2.8067-.3803z" fill="url(#i)"/><path d="m61.7079 35.0991c-1.3194-9.3604-4.084-16.527-8.4679-21.8449-2.9986-3.66818-8.5399-8.7111-14.2672-10.864-3.1856-1.18894-6.5684-1.79578-9.9792-1.79019-10.5129-.052652-20.84596 5.0839-25.70362 12.79459-6.71078 10.6417-2.764688 27.1921 8.28802 34.7332 4.6273 3.0385 10.0865 4.6452 15.6645 4.61 5.837.0828 11.5632-1.559 16.4261-4.7095.2252.5383.3882 1.0996.4857 1.6732 1.0795 6.1837-1.907 14.38-8.7678 17.3753-2.1995.9219-4.575 1.3767-6.9686 1.3339-5.0916 0-10.8668-1.8721-15.8744-5.0722-.3532-.4599-.81-.8347-1.335-1.0954-.5251-.2606-1.1044-.4003-1.69353-.4081-.6449.017-1.27937.1629-1.86421.4285-.58485.2657-1.10766.6455-1.53614 1.116-2.95658 2.9251-3.16049 9.7231-1.19943 12.8706 2.093 3.2996 6.41691 5.7216 12.82181 7.1666 2.5021.563 5.0606.8534 7.6284.8658 7.0415.0538 13.9239-2.043 19.6825-5.9965 14.3151-9.9806 18.681-28.8829 16.66-43.1869zm-55.41338 40.367c-1.6612-2.6033-1.48128-8.6759.94155-11.0746.28522-.326.63533-.5921 1.02913-.7822.3938-.19.82307-.3001 1.26178-.3235.36891.0122.72972.1085 1.05362.2812s.6018.417.8115.7134l.1919.1872c5.2834 3.399 11.3945 5.3647 16.8459 5.394 2.618.0415 5.2155-.4569 7.6223-1.4626 6.7468-2.9252 10.9868-11.2618 9.6554-18.9491-.1903-1.0051-.5276-1.9784-1.0015-2.89l-.4078-.8074-.7557.55c-4.7355 3.3343-10.4487 5.0867-16.2881 4.9961-5.2614.0264-10.4088-1.4945-14.7709-4.3643-10.24912-7.0204-14.07528-22.9332-7.86226-32.7967 2.4888-3.9548 6.51886-7.19004 11.28656-9.3137 4.1049-1.8294 8.5667-2.77135 13.0797-2.76132 3.2149-.00107 6.4032.56785 9.4095 1.67903 5.4514 2.0593 10.7528 6.89749 13.6375 10.41349 4.1979 5.119 6.8726 12.0399 8.15 21.1488 1.9551 13.8827-2.2369 32.1766-15.9883 41.7886-3.7553 2.53-8.0086 4.2711-12.4901 5.113-4.4815.842-9.0934.7663-13.5434-.2221-2.8451-.577-5.578-1.5921-8.0961-3.0071-1.5215-.8611-2.81378-2.0596-3.77218-3.4984z" fill="url(#j)"/></svg>