<?xml version="1.0" encoding="utf-8"?>
<!-- Generator: Adobe Illustrator 26.0.1, SVG Export Plug-In . SVG Version: 6.00 Build 0)  -->
<svg version="1.1" id="Layer_1" xmlns="http://www.w3.org/2000/svg" xmlns:xlink="http://www.w3.org/1999/xlink" x="0px" y="0px"
	 viewBox="0 0 194.3 259.3" style="enable-background:new 0 0 194.3 259.3;" xml:space="preserve">
<style type="text/css">
	.st0{clip-path:url(#SVGID_00000008113206699560677630000005582361065020256656_);}
	.st1{fill:#032364;}
	.st2{clip-path:url(#SVGID_00000127726288187170316290000003849392553260633271_);}
	.st3{fill:#F57B20;}
	.st4{fill:#F57B1F;}
</style>
<g>
	<defs>
		<rect id="SVGID_1_" x="57.2" y="51.4" width="57.8" height="100.6"/>
	</defs>
	<clipPath id="SVGID_00000106107337154523842460000007893924818278780305_">
		<use xlink:href="#SVGID_1_"  style="overflow:visible;"/>
	</clipPath>
	<g style="clip-path:url(#SVGID_00000106107337154523842460000007893924818278780305_);">
		<path class="st1" d="M73.8,52.4L105.4,94c0.8,1.1,1.6,2.2,2.3,3.4c0.7,1.2,1.4,2.3,2,3.6c0.6,1.2,1.1,2.5,1.6,3.7
			c0.5,1.3,0.9,2.6,1.2,3.9s0.6,2.6,0.8,4c0.2,1.3,0.4,2.7,0.4,4c0.1,1.4,0.1,2.7,0,4.1c-0.1,1.4-0.2,2.7-0.4,4
			c-0.2,1.3-0.4,2.7-0.8,4c-0.3,1.3-0.7,2.6-1.2,3.9c-0.4,1.3-1,2.5-1.5,3.8c-0.6,1.2-1.2,2.4-1.9,3.6c-0.7,1.2-1.4,2.3-2.2,3.4
			c-0.8,1.1-1.7,2.1-2.6,3.2c-0.9,1-1.9,2-2.9,2.9c-1,0.9-2,1.8-3.1,2.6l-31.6-41.6c-0.8-1.1-1.6-2.2-2.3-3.4
			c-0.7-1.2-1.4-2.3-2-3.6s-1.1-2.5-1.6-3.7c-0.5-1.3-0.9-2.6-1.2-3.9c-0.3-1.3-0.6-2.6-0.8-4c-0.2-1.3-0.4-2.7-0.4-4
			c-0.1-1.3-0.1-2.7,0-4.1c0.1-1.4,0.2-2.7,0.4-4c0.2-1.3,0.4-2.7,0.8-4c0.3-1.3,0.7-2.6,1.2-3.9c0.4-1.3,1-2.5,1.5-3.8
			c0.6-1.2,1.2-2.4,1.9-3.6c0.7-1.2,1.4-2.3,2.2-3.4c0.8-1.1,1.7-2.2,2.6-3.2c0.9-1,1.9-2,2.9-2.9C71.6,54.1,72.7,53.2,73.8,52.4z"
			/>
	</g>
</g>
<g>
	<defs>
		<rect id="SVGID_00000027576141528403159760000005758704970156808837_" x="80.3" width="56.9" height="100.7"/>
	</defs>
	<clipPath id="SVGID_00000075853139472642261730000008179238015643428243_">
		<use xlink:href="#SVGID_00000027576141528403159760000005758704970156808837_"  style="overflow:visible;"/>
	</clipPath>
	<g style="clip-path:url(#SVGID_00000075853139472642261730000008179238015643428243_);">
		<path class="st3" d="M97.1,0.1l31.6,41.6c0.8,1.1,1.6,2.2,2.3,3.4c0.7,1.2,1.4,2.3,2,3.6c0.6,1.2,1.1,2.5,1.6,3.7
			c0.5,1.3,0.9,2.6,1.2,3.9s0.6,2.6,0.8,4c0.2,1.3,0.4,2.7,0.4,4c0.1,1.4,0.1,2.7,0,4.1c-0.1,1.4-0.2,2.7-0.4,4
			c-0.2,1.3-0.4,2.7-0.8,4c-0.3,1.3-0.7,2.6-1.2,3.9c-0.4,1.3-1,2.5-1.5,3.8c-0.6,1.2-1.2,2.4-1.9,3.6c-0.7,1.2-1.4,2.3-2.2,3.4
			c-0.8,1.1-1.7,2.1-2.6,3.2c-0.9,1-1.9,2-2.9,2.9c-1,0.9-2.1,1.8-3.1,2.6L89,58c-0.8-1.1-1.6-2.2-2.3-3.4c-0.7-1.2-1.4-2.3-2-3.6
			s-1.1-2.5-1.6-3.7c-0.5-1.3-0.9-2.6-1.2-3.9s-0.6-2.6-0.8-4c-0.2-1.3-0.4-2.7-0.4-4s-0.1-2.7,0-4.1c0.1-1.4,0.2-2.7,0.4-4
			c0.2-1.3,0.4-2.7,0.8-4c0.3-1.3,0.7-2.6,1.2-3.9c0.4-1.3,1-2.5,1.5-3.8c0.6-1.2,1.2-2.4,1.9-3.6c0.7-1.2,1.4-2.3,2.2-3.4
			c0.8-1.1,1.7-2.2,2.6-3.2c0.9-1,1.9-2,2.9-2.9C95,1.7,96,0.9,97.1,0.1z"/>
	</g>
</g>
<g>
	<g transform="translate(113.214841, 249.988913)">
		<g>
			<path class="st1" d="M-80.9-45.4v1h0c-0.2,2.3-0.9,4.2-2,5.7c-1,1.6-2.2,2.7-3.6,3.4c-1.3,0.8-2.9,1.3-4.8,1.6
				c-1,0.2-2.1,0.2-3.2,0.2h-0.2l-18.5,0.2l0.9-1.1c0.4-0.5,0.7-1,0.8-1.6v-0.1c0.3-0.8,0.4-1.6,0.4-2.6v-31.7c0-1-0.1-1.8-0.4-2.6
				v-0.1c-0.2-0.5-0.4-1-0.8-1.5l-0.9-1.2l15.5,0.1h0.3c4.5,0,7.8,0.6,9.8,1.8c1.5,0.8,2.7,2,3.7,3.5c1,1.5,1.6,3.4,1.9,5.6h0.1v2.4
				H-82c-0.2,1.7-0.6,3.3-1.4,4.7c-0.6,1.1-1.2,2-1.9,2.6c1,0.8,1.8,1.7,2.5,2.8c1,1.6,1.6,3.4,1.8,5.6h0V-45.4z M-104.6-69.7v12
				l8,0.1c0.8,0,1.8-0.1,2.8-0.2c1-0.1,1.7-0.3,2.1-0.5c0.8-0.4,1.5-1,2.1-1.9c0.6-0.9,1-2,1-3.5c0-1.4-0.3-2.5-1-3.4
				c-0.6-0.9-1.3-1.5-2.1-1.9c-1-0.5-2.8-0.8-5.6-0.8H-104.6z M-104.6-39.5h8.4c2.7,0,4.6-0.3,5.6-0.8c2.1-1.1,3.1-2.8,3.1-5.3
				c0-1.7-0.5-3-1.5-4c-0.8-0.9-1.7-1.4-3-1.6c-1.5-0.2-3.2-0.3-5.1-0.3h-0.5l-7,0.1V-39.5z"/>
		</g>
	</g>
</g>
<g>
	<g transform="translate(140.337909, 249.988913)">
		<g>
			<path class="st1" d="M-90.4-32.7h0.5c2.9,0,5.6-0.7,8-2.2v1.6h6.2l0.1-24.7c0-0.1,0-0.2,0-0.4c0-0.2,0-0.3,0-0.4
				c0.2-1.3,0.7-2.5,1.6-3.6l0.5-0.5h-8.5v1.6c-2.4-1.5-5-2.2-7.8-2.2c-2,0-4,0.4-5.9,1.2c-1.9,0.8-3.5,1.9-4.9,3.3v0.1
				c-2,2.2-3.3,4.8-3.8,8v0.2c0,0.1-0.1,0.3-0.1,0.5c0,0.2,0,0.4-0.1,0.7c0,0.3,0,0.6,0,0.9c0,0.3,0,0.7,0,1.1c0,0.3,0,0.7,0,1.1
				c0,0.4,0.1,0.8,0.1,1.2v0.1c0.5,2.6,1.4,4.9,2.8,6.9c1.2,1.6,2.7,2.9,4.3,3.8C-95.1-33.3-92.8-32.7-90.4-32.7z M-90.2-38.6h-0.1
				c-1.2,0-2.4-0.4-3.6-1.1c-2.1-1.2-3.5-3.5-4-6.7c0-0.3-0.1-0.5-0.1-0.8c0-0.3,0-0.5,0-0.8c0-0.2,0-0.5,0-0.7c0-0.2,0-0.4,0-0.6
				c0-0.2,0-0.3,0-0.5c0-0.1,0-0.2,0-0.3l0-0.1h0.1c0.2-1.9,0.9-3.6,2.1-5c0.7-0.9,1.6-1.5,2.6-2c1-0.5,2.1-0.7,3.2-0.7
				c2.4,0,4.3,1,5.9,2.9c1,1.4,1.6,3,1.9,4.9c0.2,1.2,0.2,2.5,0,3.8c-0.5,3.2-1.9,5.5-4.1,6.7c-1.2,0.7-2.4,1.1-3.8,1.1H-90.2z"/>
		</g>
	</g>
</g>
<g>
	<g transform="translate(166.277967, 249.988913)">
		<g>
			<path class="st1" d="M-75.5-49.7c1.4,0.8,2.4,1.8,2.9,3c0.8,1.4,1.2,3.1,1.2,5.1v0.1c0,1.7-0.4,3.2-1.3,4.5
				c-0.6,0.9-1.5,1.7-2.6,2.4c-1.2,0.7-2.7,1.2-4.5,1.6c-1.2,0.2-2.3,0.2-3.1,0.2h-0.5c-3.4,0-6.2-0.6-8.4-1.9
				c-0.8-0.4-1.6-1.1-2.3-1.9c-0.7-0.8-1.3-1.7-1.6-2.7l-0.2-0.5c1.5,0.1,2.6,0,3.4-0.3c0.8-0.3,1.4-0.7,2.1-1.4l0.1,0.4
				c0.2,0.8,1,1.5,2.3,2c1.3,0.5,2.9,0.7,4.7,0.7c1.9,0,3.5-0.3,4.6-1c1.2-0.6,1.9-1.4,1.9-2.5c0.1-1.6-0.5-2.6-1.8-3.2
				c-0.2-0.1-0.4-0.2-0.6-0.2c-0.2-0.1-0.4-0.1-0.7-0.2c-0.3-0.1-0.5-0.1-0.7-0.1c-0.2,0-0.5-0.1-0.8-0.1c-0.3,0-0.6-0.1-0.8-0.1
				c-0.2,0-0.5-0.1-0.9-0.1c-0.4,0-0.7,0-0.8-0.1c-0.1,0-0.5,0-1.1-0.1c-0.6-0.1-1-0.1-1.1-0.1c-0.2,0-0.5-0.1-1-0.1
				c-0.5-0.1-0.9-0.1-1.1-0.2c-0.2-0.1-0.6-0.1-1-0.2c-0.4-0.1-0.7-0.2-1.1-0.3c-0.3-0.1-0.6-0.3-0.9-0.4c-1.3-0.7-2.2-1.6-2.8-2.6
				c-0.7-1.3-1.1-2.8-1.2-4.4v-0.2c0.1-1.8,0.5-3.2,1.4-4.5s1.8-2.1,2.9-2.7c1.2-0.7,2.7-1.1,4.4-1.3c1.2-0.2,2.3-0.3,3.1-0.3h1.4
				c2.8,0,5.2,0.5,7.2,1.6c0.8,0.4,1.5,1,2.2,1.9c0.7,0.9,1.2,1.9,1.4,3.2l0.1,0.2c-1.5,0-2.6,0.1-3.3,0.4c-0.7,0.3-1.3,0.7-1.9,1.4
				c0-0.1-0.1-0.3-0.2-0.5c-0.1-0.2-0.3-0.5-0.6-0.9c-0.3-0.4-0.7-0.7-1.1-0.9c-1.4-0.6-2.9-0.8-4.7-0.8c-2,0-3.6,0.3-4.7,0.9
				c-1.1,0.6-1.6,1.3-1.7,2.2c0,1.3,0.4,2.2,1.4,2.6c0.9,0.4,2.7,0.7,5.2,0.8c1.2,0.1,2.1,0.1,2.7,0.2c0.7,0.1,1.5,0.2,2.5,0.5
				C-77.1-50.4-76.2-50.1-75.5-49.7z"/>
		</g>
	</g>
</g>
<g>
	<g transform="translate(186.969787, 249.988913)">
		<g>
			<path class="st1" d="M-61-50.9v0.2c0,0.1,0,0.3,0,0.5c0,0.2,0,0.4,0.1,0.7c0,0.3,0,0.6,0,0.9c0,0.3,0,0.7,0,1c0,0.4,0,0.8,0,1.2
				c0,0.4-0.1,0.9-0.1,1.3c-0.4,2.5-1.4,4.8-2.8,6.8c-1.3,1.6-2.7,2.8-4.4,3.7c-2.2,1.2-4.5,1.8-7,1.8c-2.4,0-4.6-0.6-6.8-1.8
				c-1.7-0.9-3.1-2.2-4.2-3.7c-1.4-1.9-2.3-4.2-2.9-6.8c-0.1-0.4-0.1-0.9-0.1-1.3c0-0.4,0-0.8,0-1.2c0-0.4,0-0.7,0-1
				c0-0.3,0-0.6,0-0.9c0-0.3,0-0.5,0-0.7c0-0.2,0-0.4,0-0.5l0-0.2v-0.1c0.6-3.1,1.9-5.8,3.9-7.9c2.8-3,6.2-4.5,10.1-4.5
				c2.2,0,4.2,0.4,6,1.3c1.9,0.8,3.4,2,4.7,3.6C-62.7-56.5-61.6-54-61-50.9z M-67.7-46.3c0.1-0.6,0.1-1.2,0.1-1.8
				c0-0.6,0-1.1-0.1-1.4l0-0.5c-0.2-1.7-0.8-3.4-1.9-4.9c-0.7-0.9-1.5-1.5-2.5-2c-1-0.5-2.1-0.7-3.2-0.7c-2,0-3.8,0.9-5.2,2.6
				c-1.1,1.3-1.8,3-2.1,5l0,0.2c0,0.2-0.1,0.3-0.1,0.6c0,0.2,0,0.5,0,0.8c0,0.3,0,0.6,0,1c0,0.4,0.1,0.7,0.1,1.1
				c0.5,3.2,1.8,5.4,3.8,6.6c1.1,0.7,2.3,1,3.6,1h0.5c0,0,0.1,0,0.2,0c0.1,0,0.3,0,0.4-0.1c0.2,0,0.3-0.1,0.5-0.1
				c0.2-0.1,0.4-0.1,0.6-0.2c0.2-0.1,0.4-0.2,0.7-0.3c0.2-0.1,0.5-0.3,0.7-0.4C-69.4-41-68.1-43.2-67.7-46.3z"/>
		</g>
	</g>
</g>
<g>
	<g transform="translate(210.436296, 249.988913)">
		<g>
			<path class="st1" d="M-64.2-62.9c-1.5,0-3.1,0.2-4.5,0.6c-1.5,0.4-2.6,0.9-3.5,1.4v-1.9h-6.6l-2.3-0.1c0.4,0.4,0.7,0.9,1.1,1.5
				c0.9,1.7,1.4,3.4,1.4,5.1l0.1,23.1h6.4v-11.6c-0.1-2.9,0.1-5.3,0.6-7.2c0.4-1.5,1.2-2.7,2.5-3.5c1.2-0.8,2.8-1.3,4.8-1.3
				c1.8,0.1,3.3,0.5,4.4,1.4c1.1,0.8,1.8,2,2.1,3.5c0.4,1.7,0.5,4.1,0.5,7.2V-33h6.5v-0.1h0.1v-11.3c0-1.8-0.1-3.3-0.1-4.6
				c-0.1-1.3-0.3-2.7-0.5-4c-0.2-1.3-0.6-2.5-1-3.4c-0.4-1-1-1.8-1.7-2.7c-0.7-0.8-1.5-1.5-2.4-2c-0.9-0.5-2-0.9-3.3-1.2
				C-61.1-62.7-62.6-62.9-64.2-62.9z"/>
		</g>
	</g>
</g>
<g>
	<g transform="translate(235.838631, 249.988913)">
		<g>
			<path class="st1" d="M-58.5-32.7h0.5c2.9,0,5.6-0.7,8-2.2v1.6h6.2l0.1-24.7c0-0.1,0-0.2,0-0.4c0-0.2,0-0.3,0-0.4
				c0.2-1.3,0.7-2.5,1.6-3.6l0.5-0.5H-50v1.6c-2.4-1.5-5-2.2-7.8-2.2c-2,0-4,0.4-5.9,1.2c-1.9,0.8-3.5,1.9-4.9,3.3v0.1
				c-2,2.2-3.3,4.8-3.8,8v0.2c0,0.1-0.1,0.3-0.1,0.5c0,0.2,0,0.4-0.1,0.7c0,0.3,0,0.6,0,0.9c0,0.3,0,0.7,0,1.1c0,0.3,0,0.7,0,1.1
				c0,0.4,0.1,0.8,0.1,1.2v0.1c0.5,2.6,1.4,4.9,2.8,6.9c1.2,1.6,2.7,2.9,4.3,3.8C-63.3-33.3-61-32.7-58.5-32.7z M-58.3-38.6h-0.1
				c-1.2,0-2.4-0.4-3.6-1.1c-2.1-1.2-3.5-3.5-4-6.7c0-0.3-0.1-0.5-0.1-0.8c0-0.3,0-0.5,0-0.8c0-0.2,0-0.5,0-0.7c0-0.2,0-0.4,0-0.6
				c0-0.2,0-0.3,0-0.5c0-0.1,0-0.2,0-0.3l0-0.1h0.1c0.2-1.9,0.9-3.6,2.1-5c0.7-0.9,1.6-1.5,2.6-2c1-0.5,2.1-0.7,3.2-0.7
				c2.4,0,4.3,1,5.9,2.9c1,1.4,1.6,3,1.9,4.9c0.2,1.2,0.2,2.5,0,3.8c-0.5,3.2-1.9,5.5-4.1,6.7c-1.2,0.7-2.4,1.1-3.8,1.1H-58.3z"/>
		</g>
	</g>
</g>
<g>
	<g transform="translate(149.58328, 274.986868)">
		<g>
			<path class="st4" d="M-90.8-24.9c-3.1,0-5.5-0.8-7.2-2.4c-1.7-1.6-2.6-3.8-2.6-6.6c0-3,0.9-5.4,2.9-7.2c1.9-1.8,4.5-2.6,7.7-2.6
				h2.5v-2.4h3.3V-28h4.4c0.1,0,0.2,0.1,0.2,0.1v2.7c0,0.1-0.1,0.2-0.2,0.2H-90.8z M-87.5-28v-12.7h-2.4c-2.3,0-4.1,0.6-5.4,1.8
				c-1.3,1.2-1.9,2.8-1.9,5c0,1.9,0.5,3.4,1.6,4.4c1.1,1,2.7,1.5,4.7,1.5H-87.5z M-92.8-49.7c-0.6,0-1.1-0.2-1.5-0.5
				c-0.4-0.4-0.6-0.9-0.6-1.8c0-0.8,0.2-1.4,0.6-1.8c0.4-0.4,0.9-0.6,1.5-0.6c0.7,0,1.2,0.2,1.6,0.6c0.4,0.4,0.6,1,0.6,1.7
				c0,0.7-0.2,1.3-0.6,1.7C-91.6-49.9-92.2-49.7-92.8-49.7z M-86.1-49.7c-0.7,0-1.2-0.2-1.6-0.6c-0.4-0.4-0.6-1-0.6-1.7
				c0-0.8,0.2-1.3,0.6-1.7c0.4-0.4,0.9-0.6,1.6-0.6c0.7,0,1.2,0.2,1.6,0.6c0.4,0.4,0.6,1,0.6,1.7s-0.2,1.3-0.6,1.7
				S-85.4-49.7-86.1-49.7z"/>
		</g>
	</g>
</g>
<g>
	<g transform="translate(166.518115, 274.986868)">
		<g>
			<path class="st4" d="M-97.7-24.9c-0.1,0-0.2-0.1-0.2-0.2v-2.7c0-0.1,0.1-0.1,0.2-0.1h5.1v-15.7h3.4v18.8H-97.7z M-90.9-47.4
				c-0.7,0-1.2-0.2-1.6-0.6c-0.4-0.4-0.6-1-0.6-1.7c0-0.8,0.2-1.3,0.6-1.7c0.4-0.4,0.9-0.6,1.6-0.6c0.7,0,1.2,0.2,1.6,0.6
				c0.4,0.4,0.6,1,0.6,1.7s-0.2,1.3-0.6,1.7S-90.2-47.4-90.9-47.4z"/>
		</g>
	</g>
</g>
<g>
	<g transform="translate(174.803427, 274.986868)">
		<g>
			<path class="st4" d="M-79.6-28v-12.7h-1.7c-2.3,0-4.1,0.6-5.4,1.8c-1.3,1.2-1.9,2.9-1.9,5.1c0,2,0.4,3.5,1.3,4.4
				c0.9,0.9,2.2,1.4,4,1.4H-79.6z M-76.3-24c0,2.6-0.8,4.7-2.3,6.2c-1.6,1.5-3.8,2.2-6.6,2.2c-2.6,0-4.9-0.7-7-2l1.5-2.6
				c0.8,0.4,1.7,0.8,2.6,1.1c0.9,0.3,1.9,0.5,2.9,0.5c1.8,0,3.1-0.5,4.1-1.4c1-0.9,1.5-2.2,1.5-3.8v-1.1h-3.8
				c-2.8,0-4.9-0.8-6.4-2.3c-1.5-1.5-2.2-3.7-2.2-6.5c0-3,1-5.5,2.9-7.2c1.9-1.8,4.5-2.7,7.7-2.7h5.1V-28h3.2c0.1,0,0.2,0.1,0.2,0.1
				v2.7c0,0.1-0.1,0.2-0.2,0.2h-3.2V-24z"/>
		</g>
	</g>
</g>
<g>
	<g transform="translate(190.407568, 274.986868)">
		<g>
			<path class="st4" d="M-64.5-24.9c-1.2,0-2.2-0.2-3.2-0.6c-1-0.4-2-1.1-3-2.1c-0.6,0.8-1.3,1.4-2.3,2c-0.9,0.5-2.1,0.8-3.4,0.8
				h-13.3c-0.1,0-0.2-0.1-0.2-0.2v-2.7c0-0.1,0.1-0.1,0.2-0.1h5.5v-12.7h3.3V-28h4.2c1.2,0,2.2-0.4,2.9-1.2c0.7-0.8,1-1.9,1-3.2
				v-8.2h3.3v9.3l0,0.4c0.6,1.1,1.3,1.9,2.1,2.3c0.8,0.4,1.7,0.7,2.9,0.7h2.4v-15.7h3.3V-28h5.2c0.1,0,0.2,0.1,0.2,0.1v2.7
				c0,0.1-0.1,0.2-0.2,0.2H-64.5z"/>
		</g>
	</g>
</g>
<g>
	<g transform="translate(216.699743, 274.986868)">
		<g>
			<path class="st4" d="M-81-24.9c-0.1,0-0.2-0.1-0.2-0.2v-2.7c0-0.1,0.1-0.1,0.2-0.1h5.1v-15.7h3.4v18.8H-81z M-74.3-17.2
				c-0.7,0-1.2-0.2-1.6-0.6c-0.4-0.4-0.6-1-0.6-1.7c0-0.7,0.2-1.3,0.6-1.7c0.4-0.4,0.9-0.6,1.6-0.6c0.7,0,1.2,0.2,1.6,0.6
				c0.4,0.4,0.6,1,0.6,1.7c0,0.7-0.2,1.3-0.6,1.7C-73.1-17.4-73.6-17.2-74.3-17.2z"/>
		</g>
	</g>
</g>
</svg>
