<svg enable-background="new 0 0 194.3 259.3" viewBox="0 0 194.3 259.3" xmlns="http://www.w3.org/2000/svg" xmlns:xlink="http://www.w3.org/1999/xlink"><clipPath id="a"><path d="m57.2 51.4h57.8v100.6h-57.8z"/></clipPath><clipPath id="b"><path d="m80.3 0h56.9v100.7h-56.9z"/></clipPath><g clip-path="url(#a)"><path d="m73.8 52.4 31.6 41.6c.8 1.1 1.6 2.2 2.3 3.4s1.4 2.3 2 3.6c.6 1.2 1.1 2.5 1.6 3.7.5 1.3.9 2.6 1.2 3.9s.6 2.6.8 4c.2 1.3.4 2.7.4 4 .1 1.4.1 2.7 0 4.1s-.2 2.7-.4 4-.4 2.7-.8 4c-.3 1.3-.7 2.6-1.2 3.9-.4 1.3-1 2.5-1.5 3.8-.6 1.2-1.2 2.4-1.9 3.6s-1.4 2.3-2.2 3.4-1.7 2.1-2.6 3.2c-.9 1-1.9 2-2.9 2.9s-2 1.8-3.1 2.6l-31.6-41.6c-.8-1.1-1.6-2.2-2.3-3.4s-1.4-2.3-2-3.6-1.1-2.5-1.6-3.7c-.5-1.3-.9-2.6-1.2-3.9s-.6-2.6-.8-4c-.2-1.3-.4-2.7-.4-4-.1-1.3-.1-2.7 0-4.1s.2-2.7.4-4 .4-2.7.8-4c.3-1.3.7-2.6 1.2-3.9.4-1.3 1-2.5 1.5-3.8.6-1.2 1.2-2.4 1.9-3.6s1.4-2.3 2.2-3.4 1.7-2.2 2.6-3.2 1.9-2 2.9-2.9c.9-.9 2-1.8 3.1-2.6z" fill="#032364"/></g><g clip-path="url(#b)"><path d="m97.1.1 31.6 41.6c.8 1.1 1.6 2.2 2.3 3.4s1.4 2.3 2 3.6c.6 1.2 1.1 2.5 1.6 3.7.5 1.3.9 2.6 1.2 3.9s.6 2.6.8 4c.2 1.3.4 2.7.4 4 .1 1.4.1 2.7 0 4.1s-.2 2.7-.4 4-.4 2.7-.8 4c-.3 1.3-.7 2.6-1.2 3.9-.4 1.3-1 2.5-1.5 3.8-.6 1.2-1.2 2.4-1.9 3.6s-1.4 2.3-2.2 3.4-1.7 2.1-2.6 3.2c-.9 1-1.9 2-2.9 2.9s-2.1 1.8-3.1 2.6l-31.4-41.8c-.8-1.1-1.6-2.2-2.3-3.4s-1.4-2.3-2-3.6-1.1-2.5-1.6-3.7c-.5-1.3-.9-2.6-1.2-3.9s-.6-2.6-.8-4c-.2-1.3-.4-2.7-.4-4s-.1-2.7 0-4.1.2-2.7.4-4 .4-2.7.8-4c.3-1.3.7-2.6 1.2-3.9.4-1.3 1-2.5 1.5-3.8.6-1.2 1.2-2.4 1.9-3.6s1.4-2.3 2.2-3.4 1.7-2.2 2.6-3.2 1.9-2 2.9-2.9c.8-.8 1.8-1.6 2.9-2.4z" fill="#f57b20"/></g><g fill="#032364"><path d="m-80.9-45.4v1c-.2 2.3-.9 4.2-2 5.7-1 1.6-2.2 2.7-3.6 3.4-1.3.8-2.9 1.3-4.8 1.6-1 .2-2.1.2-3.2.2h-.2l-18.5.2.9-1.1c.4-.5.7-1 .8-1.6v-.1c.3-.8.4-1.6.4-2.6v-31.7c0-1-.1-1.8-.4-2.6v-.1c-.2-.5-.4-1-.8-1.5l-.9-1.2 15.5.1h.3c4.5 0 7.8.6 9.8 1.8 1.5.8 2.7 2 3.7 3.5s1.6 3.4 1.9 5.6h.1v2.4h-.1c-.2 1.7-.6 3.3-1.4 4.7-.6 1.1-1.2 2-1.9 2.6 1 .8 1.8 1.7 2.5 2.8 1 1.6 1.6 3.4 1.8 5.6v1.3zm-23.7-24.3v12l8 .1c.8 0 1.8-.1 2.8-.2s1.7-.3 2.1-.5c.8-.4 1.5-1 2.1-1.9s1-2 1-3.5c0-1.4-.3-2.5-1-3.4-.6-.9-1.3-1.5-2.1-1.9-1-.5-2.8-.8-5.6-.8h-7.3zm0 30.2h8.4c2.7 0 4.6-.3 5.6-.8 2.1-1.1 3.1-2.8 3.1-5.3 0-1.7-.5-3-1.5-4-.8-.9-1.7-1.4-3-1.6-1.5-.2-3.2-.3-5.1-.3h-.5l-7 .1z" transform="translate(113.214841 249.988913)"/><path d="m-90.4-32.7h.5c2.9 0 5.6-.7 8-2.2v1.6h6.2l.1-24.7c0-.1 0-.2 0-.4s0-.3 0-.4c.2-1.3.7-2.5 1.6-3.6l.5-.5h-8.5v1.6c-2.4-1.5-5-2.2-7.8-2.2-2 0-4 .4-5.9 1.2s-3.5 1.9-4.9 3.3v.1c-2 2.2-3.3 4.8-3.8 8v.2c0 .1-.1.3-.1.5s0 .4-.1.7v.9 1.1 1.1c0 .4.1.8.1 1.2v.1c.5 2.6 1.4 4.9 2.8 6.9 1.2 1.6 2.7 2.9 4.3 3.8 2.3 1.1 4.6 1.7 7 1.7zm.2-5.9h-.1c-1.2 0-2.4-.4-3.6-1.1-2.1-1.2-3.5-3.5-4-6.7 0-.3-.1-.5-.1-.8s0-.5 0-.8c0-.2 0-.5 0-.7s0-.4 0-.6 0-.3 0-.5c0-.1 0-.2 0-.3v-.1h.1c.2-1.9.9-3.6 2.1-5 .7-.9 1.6-1.5 2.6-2s2.1-.7 3.2-.7c2.4 0 4.3 1 5.9 2.9 1 1.4 1.6 3 1.9 4.9.2 1.2.2 2.5 0 3.8-.5 3.2-1.9 5.5-4.1 6.7-1.2.7-2.4 1.1-3.8 1.1h-.1z" transform="translate(140.337909 249.988913)"/><path d="m-75.5-49.7c1.4.8 2.4 1.8 2.9 3 .8 1.4 1.2 3.1 1.2 5.1v.1c0 1.7-.4 3.2-1.3 4.5-.6.9-1.5 1.7-2.6 2.4-1.2.7-2.7 1.2-4.5 1.6-1.2.2-2.3.2-3.1.2h-.5c-3.4 0-6.2-.6-8.4-1.9-.8-.4-1.6-1.1-2.3-1.9s-1.3-1.7-1.6-2.7l-.2-.5c1.5.1 2.6 0 3.4-.3s1.4-.7 2.1-1.4l.1.4c.2.8 1 1.5 2.3 2s2.9.7 4.7.7c1.9 0 3.5-.3 4.6-1 1.2-.6 1.9-1.4 1.9-2.5.1-1.6-.5-2.6-1.8-3.2-.2-.1-.4-.2-.6-.2-.2-.1-.4-.1-.7-.2s-.5-.1-.7-.1-.5-.1-.8-.1-.6-.1-.8-.1-.5-.1-.9-.1-.7 0-.8-.1c-.1 0-.5 0-1.1-.1s-1-.1-1.1-.1c-.2 0-.5-.1-1-.1-.5-.1-.9-.1-1.1-.2s-.6-.1-1-.2-.7-.2-1.1-.3c-.3-.1-.6-.3-.9-.4-1.3-.7-2.2-1.6-2.8-2.6-.7-1.3-1.1-2.8-1.2-4.4v-.2c.1-1.8.5-3.2 1.4-4.5s1.8-2.1 2.9-2.7c1.2-.7 2.7-1.1 4.4-1.3 1.2-.2 2.3-.3 3.1-.3h1.4c2.8 0 5.2.5 7.2 1.6.8.4 1.5 1 2.2 1.9s1.2 1.9 1.4 3.2l.1.2c-1.5 0-2.6.1-3.3.4s-1.3.7-1.9 1.4c0-.1-.1-.3-.2-.5s-.3-.5-.6-.9-.7-.7-1.1-.9c-1.4-.6-2.9-.8-4.7-.8-2 0-3.6.3-4.7.9s-1.6 1.3-1.7 2.2c0 1.3.4 2.2 1.4 2.6.9.4 2.7.7 5.2.8 1.2.1 2.1.1 2.7.2.7.1 1.5.2 2.5.5.4.2 1.3.5 2 .9z" transform="translate(166.277967 249.988913)"/><path d="m-61-50.9v.2.5c0 .2 0 .4.1.7v.9 1 1.2c0 .4-.1.9-.1 1.3-.4 2.5-1.4 4.8-2.8 6.8-1.3 1.6-2.7 2.8-4.4 3.7-2.2 1.2-4.5 1.8-7 1.8-2.4 0-4.6-.6-6.8-1.8-1.7-.9-3.1-2.2-4.2-3.7-1.4-1.9-2.3-4.2-2.9-6.8-.1-.4-.1-.9-.1-1.3s0-.8 0-1.2 0-.7 0-1 0-.6 0-.9 0-.5 0-.7 0-.4 0-.5v-.2-.1c.6-3.1 1.9-5.8 3.9-7.9 2.8-3 6.2-4.5 10.1-4.5 2.2 0 4.2.4 6 1.3 1.9.8 3.4 2 4.7 3.6 1.8 2 2.9 4.5 3.5 7.6zm-6.7 4.6c.1-.6.1-1.2.1-1.8s0-1.1-.1-1.4v-.5c-.2-1.7-.8-3.4-1.9-4.9-.7-.9-1.5-1.5-2.5-2s-2.1-.7-3.2-.7c-2 0-3.8.9-5.2 2.6-1.1 1.3-1.8 3-2.1 5v.2c0 .2-.1.3-.1.6v.8 1c0 .4.1.7.1 1.1.5 3.2 1.8 5.4 3.8 6.6 1.1.7 2.3 1 3.6 1h.5.2c.1 0 .3 0 .4-.1.2 0 .3-.1.5-.1.2-.1.4-.1.6-.2s.4-.2.7-.3c.2-.1.5-.3.7-.4 2.2-1.2 3.5-3.4 3.9-6.5z" transform="translate(186.969787 249.988913)"/><path d="m-64.2-62.9c-1.5 0-3.1.2-4.5.6-1.5.4-2.6.9-3.5 1.4v-1.9h-6.6l-2.3-.1c.4.4.7.9 1.1 1.5.9 1.7 1.4 3.4 1.4 5.1l.1 23.1h6.4v-11.6c-.1-2.9.1-5.3.6-7.2.4-1.5 1.2-2.7 2.5-3.5 1.2-.8 2.8-1.3 4.8-1.3 1.8.1 3.3.5 4.4 1.4 1.1.8 1.8 2 2.1 3.5.4 1.7.5 4.1.5 7.2v11.7h6.5v-.1h.1v-11.3c0-1.8-.1-3.3-.1-4.6-.1-1.3-.3-2.7-.5-4s-.6-2.5-1-3.4c-.4-1-1-1.8-1.7-2.7-.7-.8-1.5-1.5-2.4-2s-2-.9-3.3-1.2c-1.5-.4-3-.6-4.6-.6z" transform="translate(210.436296 249.988913)"/><path d="m-58.5-32.7h.5c2.9 0 5.6-.7 8-2.2v1.6h6.2l.1-24.7c0-.1 0-.2 0-.4s0-.3 0-.4c.2-1.3.7-2.5 1.6-3.6l.5-.5h-8.4v1.6c-2.4-1.5-5-2.2-7.8-2.2-2 0-4 .4-5.9 1.2s-3.5 1.9-4.9 3.3v.1c-2 2.2-3.3 4.8-3.8 8v.2c0 .1-.1.3-.1.5s0 .4-.1.7v.9 1.1 1.1c0 .4.1.8.1 1.2v.1c.5 2.6 1.4 4.9 2.8 6.9 1.2 1.6 2.7 2.9 4.3 3.8 2.1 1.1 4.4 1.7 6.9 1.7zm.2-5.9h-.1c-1.2 0-2.4-.4-3.6-1.1-2.1-1.2-3.5-3.5-4-6.7 0-.3-.1-.5-.1-.8s0-.5 0-.8c0-.2 0-.5 0-.7s0-.4 0-.6 0-.3 0-.5c0-.1 0-.2 0-.3v-.1h.1c.2-1.9.9-3.6 2.1-5 .7-.9 1.6-1.5 2.6-2s2.1-.7 3.2-.7c2.4 0 4.3 1 5.9 2.9 1 1.4 1.6 3 1.9 4.9.2 1.2.2 2.5 0 3.8-.5 3.2-1.9 5.5-4.1 6.7-1.2.7-2.4 1.1-3.8 1.1h-.1z" transform="translate(235.838631 249.988913)"/></g><path d="m-90.8-24.9c-3.1 0-5.5-.8-7.2-2.4s-2.6-3.8-2.6-6.6c0-3 .9-5.4 2.9-7.2 1.9-1.8 4.5-2.6 7.7-2.6h2.5v-2.4h3.3v18.1h4.4c.1 0 .2.1.2.1v2.7c0 .1-.1.2-.2.2h-11zm3.3-3.1v-12.7h-2.4c-2.3 0-4.1.6-5.4 1.8s-1.9 2.8-1.9 5c0 1.9.5 3.4 1.6 4.4s2.7 1.5 4.7 1.5zm-5.3-21.7c-.6 0-1.1-.2-1.5-.5-.4-.4-.6-.9-.6-1.8 0-.8.2-1.4.6-1.8s.9-.6 1.5-.6c.7 0 1.2.2 1.6.6s.6 1 .6 1.7-.2 1.3-.6 1.7c-.4.5-1 .7-1.6.7zm6.7 0c-.7 0-1.2-.2-1.6-.6s-.6-1-.6-1.7c0-.8.2-1.3.6-1.7s.9-.6 1.6-.6 1.2.2 1.6.6.6 1 .6 1.7-.2 1.3-.6 1.7-.9.6-1.6.6z" fill="#f57b1f" transform="translate(149.58328 274.986868)"/><path d="m-97.7-24.9c-.1 0-.2-.1-.2-.2v-2.7c0-.1.1-.1.2-.1h5.1v-15.7h3.4v18.8h-8.5zm6.8-22.5c-.7 0-1.2-.2-1.6-.6s-.6-1-.6-1.7c0-.8.2-1.3.6-1.7s.9-.6 1.6-.6 1.2.2 1.6.6.6 1 .6 1.7-.2 1.3-.6 1.7-.9.6-1.6.6z" fill="#f57b1f" transform="translate(166.518115 274.986868)"/><path d="m-79.6-28v-12.7h-1.7c-2.3 0-4.1.6-5.4 1.8s-1.9 2.9-1.9 5.1c0 2 .4 3.5 1.3 4.4s2.2 1.4 4 1.4zm3.3 4c0 2.6-.8 4.7-2.3 6.2-1.6 1.5-3.8 2.2-6.6 2.2-2.6 0-4.9-.7-7-2l1.5-2.6c.8.4 1.7.8 2.6 1.1s1.9.5 2.9.5c1.8 0 3.1-.5 4.1-1.4s1.5-2.2 1.5-3.8v-1.1h-3.8c-2.8 0-4.9-.8-6.4-2.3s-2.2-3.7-2.2-6.5c0-3 1-5.5 2.9-7.2 1.9-1.8 4.5-2.7 7.7-2.7h5.1v15.6h3.2c.1 0 .2.1.2.1v2.7c0 .1-.1.2-.2.2h-3.2z" fill="#f57b1f" transform="translate(174.803427 274.986868)"/><path d="m-64.5-24.9c-1.2 0-2.2-.2-3.2-.6s-2-1.1-3-2.1c-.6.8-1.3 1.4-2.3 2-.9.5-2.1.8-3.4.8h-13.3c-.1 0-.2-.1-.2-.2v-2.7c0-.1.1-.1.2-.1h5.5v-12.7h3.3v12.5h4.2c1.2 0 2.2-.4 2.9-1.2s1-1.9 1-3.2v-8.2h3.3v9.3.4c.6 1.1 1.3 1.9 2.1 2.3s1.7.7 2.9.7h2.4v-15.7h3.3v15.6h5.2c.1 0 .2.1.2.1v2.7c0 .1-.1.2-.2.2h-10.9z" fill="#f57b1f" transform="translate(190.407568 274.986868)"/><path d="m-81-24.9c-.1 0-.2-.1-.2-.2v-2.7c0-.1.1-.1.2-.1h5.1v-15.7h3.4v18.8h-8.5zm6.7 7.7c-.7 0-1.2-.2-1.6-.6s-.6-1-.6-1.7.2-1.3.6-1.7.9-.6 1.6-.6 1.2.2 1.6.6.6 1 .6 1.7-.2 1.3-.6 1.7-.9.6-1.6.6z" fill="#f57b1f" transform="translate(216.699743 274.986868)"/></svg>