<svg viewBox="0 0 396.84 285.32" xmlns="http://www.w3.org/2000/svg"><path d="m378.27 142.09-171.57 88.57-.14-.26-.13.26-171.57-88.57a8.91 8.91 0 0 1 -3.83-12l5.54-10.74 170 87.76 170-87.76 5.54 10.74a8.91 8.91 0 0 1 -3.84 12z" fill="#009245" transform="translate(-6.66 -13.41)"/><path d="m337.34 125.11-130.26 62.7-.11-.19-.09.19-130.26-62.7a6.12 6.12 0 0 1 -2.91-8.51l4.21-7.6 129.08 62.13 129-62.13 4.2 7.6a6.11 6.11 0 0 1 -2.86 8.51z" fill="#f15a24" transform="translate(-6.66 -13.41)"/><ellipse cx="143.58" cy="139.61" fill="#f15a24" rx="11.48" ry="72.13" transform="matrix(.4229346 -.90616021 .90616021 .4229346 -50.31 197.25)"/><ellipse cx="271.12" cy="139.34" fill="#f15a24" rx="71.5" ry="11.48" transform="matrix(.90616021 -.4229346 .4229346 .90616021 -40.15 114.34)"/><g fill="#006837"><path d="m175.73 107.15-59.11-85.51 14.61-8.43z"/><path d="m230.79 122.66 85.51-59.11 8.43 14.61z"/><path d="m219.79 110.8 50.35-90.94 14.05 9.34z"/><path d="m181.19 104.58-33.53-98.39 16.36-4.13z"/><path d="m161.99 117.95-92.28-47.86 8.96-14.3z"/><path d="m164.85 113.45-72.17-74.82 13.06-10.69z"/><path d="m192.04 103.95-17.17-102.52 16.81-1.43z"/><path d="m200.39 103.64 8.45-103.61 16.65 2.73z"/><path d="m210.92 106.45 28.15-100.07 15.81 5.88z"/><path d="m226.19 119.58 64.2-81.75 12.38 11.47z"/></g><path d="m293.59 226.51a36.64 36.64 0 0 0 17.65 48.56l38.95 18.18-4.31 5.48-134.8-62.92 107.42-53.31 85 43-6.91 8.78-54.45-25.42a36.24 36.24 0 0 0 -15.34-3.41 36.68 36.68 0 0 0 -33.21 21.06z" fill="#22b573" transform="translate(-6.66 -13.41)"/><path d="m116.57 225.51a36.64 36.64 0 0 1 -17.65 48.56l-38.92 18.18 4.31 5.48 134.8-62.92-107.45-53.31-85 43 6.91 8.78 54.43-25.42a36.24 36.24 0 0 1 15.34-3.41 36.68 36.68 0 0 1 33.23 21.06z" fill="#22b573" transform="translate(-6.66 -13.41)"/></svg>