<svg fill="none" height="95" viewBox="0 0 54 95" width="54" xmlns="http://www.w3.org/2000/svg"><path d="m52.8724 83.0311c-4.0275-10.1522-18.5799-43.8742-18.5799-43.8742l-.3839-14.3633h-13.9071l-.3838 14.3633s-14.56355 33.722-18.58549 43.8742c-4.02195 10.1522 5.00656 11.9212 5.00656 11.9212h20.93853 20.9386s8.9785-1.769 4.9565-11.9212z" fill="#fff"/><path d="m37.4854 23.069c0 1.5854-1.4574 2.8705-3.2542 2.8705h-14.5636c-1.7968 0-3.2542-1.2851-3.2542-2.8705 0-1.591 1.4574-2.876 3.2542-2.876h14.5636c1.7968 0 3.2542 1.285 3.2542 2.876z" fill="#fff"/><path d="m41.0013 60.557h-28.1036c-3.86615 9.0619-7.93816 18.6968-9.76833 23.3195-1.04582 2.6312-1.15707 4.7396-.33933 6.2582.929 1.7356 2.90938 2.4032 3.48792 2.57h20.67154 20.666c.6008-.1724 2.57-.8399 3.4935-2.57.8177-1.5186.7009-3.627-.3394-6.2582-1.8301-4.6339-5.9077-14.2687-9.7683-23.3195z" fill="#00a4d6"/><path d="m27.4168 60.557h-14.5191c-3.86615 9.0619-7.93816 18.6968-9.76833 23.3195-1.04582 2.6312-1.15707 4.7396-.33933 6.2582.929 1.7356 2.90938 2.4032 3.48792 2.57h21.13884z" fill="#27a9df"/><path d="m30.3149 48.0185c.085-.2676.2476-.5039.467-.6791.2194-.1751.4859-.2812.7656-.3048.2798-.0236.5603.0363.806.1722.2456.1359.4455.3417.5741.5912.1287.2495.1804.5316.1486.8106-.0317.2789-.1455.5422-.327.7564s-.4225.3698-.6924.4469c-.2699.0772-.5567.0726-.824-.0133-.1774-.0563-.3419-.147-.4842-.267-.1422-.12-.2593-.267-.3446-.4324s-.1371-.346-.1523-.5315c-.0153-.1854.0062-.3721.0632-.5492z" fill="#00a4d6"/><path d="m32.4343 54.9386c.1454-.4564.4229-.8594.7974-1.158.3746-.2986.8293-.4793 1.3066-.5192.4773-.04.9557.0626 1.3747.2948.4189.2321.7595.5834.9787 1.0093.2192.4258.3071.9072.2525 1.383-.0546.4759-.2492.9248-.5591 1.29s-.7212.6302-1.1818.7615c-.4607.1313-.9499.1229-1.4058-.0241-.3022-.0967-.5823-.2519-.8244-.4569s-.4415-.4558-.5866-.7378c-.1452-.2821-.2334-.59-.2595-.9062s.0104-.6344.1073-.9364z" fill="#00a4d6"/><path d="m27.1331 59.2553c.1473-.4612.4282-.8683.8069-1.1698.3788-.3016.8385-.484 1.321-.5243.4824-.0403.966.0635 1.3895.2981.4235.2345.768.5894.9898 1.0198.2217.4304.3109.9168.2562 1.3979-.0547.481-.2508.935-.5636 1.3046-.3127.3696-.7281.6381-1.1934.7716-.4654.1335-.9599.1259-1.421-.0216-.3069-.0967-.5916-.2532-.8377-.4605s-.4487-.4613-.5961-.7473-.2367-.5984-.2627-.9191.0117-.6434.1111-.9494z" fill="#00a4d6"/><g fill="#fff"><path d="m32.2954 18.3462c.0011.2808-.0811.5556-.2363.7896s-.3764.4167-.6355.5249-.5445.1371-.82.083c-.2756-.0541-.5288-.1888-.7278-.3869-.1989-.1982-.3346-.4509-.3898-.7263-.0551-.2753-.0274-.5608.0798-.8203s.289-.4814.5224-.6375.5079-.2395.7887-.2395c.186-.0007.3703.0353.5424.106s.3285.1746.4603.3059.2364.2873.3077.4591c.0714.1718.1081.356.1081.542z"/><path d="m28.1732 12.4051c-.0011.4783-.144.9456-.4105 1.3428-.2666.3973-.6449.7065-1.0872.8888-.4422.1823-.9286.2295-1.3977.1355-.469-.094-.8996-.3249-1.2375-.6636-.3379-.3386-.5678-.7698-.6607-1.239-.0929-.4693-.0447-.9556.1386-1.3974.1834-.4419.4935-.8194.8913-1.0851.3979-.2656.8655-.40742 1.3439-.40742.3184-.00074.6338.06152.9281.18322s.5616.3004.7866.5259c.2249.2254.403.4931.524.7877.121.2945.1826.6101.1811.9286z"/><path d="m35.5664 4.68948c0 .9275-.275 1.83417-.7903 2.60535s-1.2477 1.37222-2.1046 1.72715c-.8569.35494-1.7997.44782-2.7094.26687-.9097-.18094-1.7453-.62758-2.4011-1.28342s-1.1025-1.49141-1.2834-2.40108c-.181-.90968-.0881-1.85256.2668-2.70945.355-.85689.956-1.58929 1.7272-2.104574.7712-.515287 1.6779-.79032269 2.6053-.79032269.6161-.00073207 1.2262.12004369 1.7955.35545369.5693.235409 1.0866.580811 1.5222 1.016413.4356.43561.781.95286 1.0164 1.52215.2354.56928.3562 1.17943.3554 1.79546z"/></g></svg>