<svg fill="none" height="82" viewBox="0 0 68 82" width="68" xmlns="http://www.w3.org/2000/svg"><path d="m18.8116.490234h-16.64019c-1.199255 0-2.17144052.972186-2.17144052 2.171446v77.15712c0 1.1993.97218552 2.1715 2.17144052 2.1715h16.64019c1.1993 0 2.1715-.9722 2.1715-2.1715v-77.15712c0-1.19926-.9722-2.171446-2.1715-2.171446z" fill="#3da3cb"/><path d="m9.22699 4.44975h-9.22702052v1.73974h9.22702052z" fill="#3da3cb" opacity=".5"/><path d="m4.61349 11.6342h-4.61352052v1.7397h4.61352052z" fill="#3da3cb" opacity=".5"/><path d="m9.22699 18.8187h-9.22702052v1.7397h9.22702052z" fill="#3da3cb" opacity=".5"/><path d="m4.61349 26.0032h-4.61352052v1.7397h4.61352052z" fill="#3da3cb" opacity=".5"/><path d="m9.22699 33.1875h-9.22702052v1.7398h9.22702052z" fill="#3da3cb" opacity=".5"/><path d="m4.61349 40.3752h-4.61352052v1.7398h4.61352052z" fill="#3da3cb" opacity=".5"/><path d="m9.22699 47.5565h-9.22702052v1.7397h9.22702052z" fill="#3da3cb" opacity=".5"/><path d="m4.61349 54.7442h-4.61352052v1.7397h4.61352052z" fill="#3da3cb" opacity=".5"/><path d="m9.22699 61.9286h-9.22702052v1.7397h9.22702052z" fill="#3da3cb" opacity=".5"/><path d="m4.61349 69.113h-4.61352052v1.7398h4.61352052z" fill="#3da3cb" opacity=".5"/><path d="m9.22699 76.2975h-9.22702052v1.7397h9.22702052z" fill="#3da3cb" opacity=".5"/><g fill="#3695b2" opacity=".2"><path d="m18.6254 2.32017c-.1331-.00043-.265.02543-.3881.07607-.1232.05065-.2351.1251-.3293.21908-.0943.09398-.1691.20566-.2202.3286-.051.12295-.0773.25475-.0773.38787v6.27915c.0146.25884.1277.50226.3162.68036.1884.1781.4378.2773.6971.2773.2592 0 .5087-.0992.6971-.2773s.3015-.42152.3161-.68036v-6.27915c0-.13285-.0262-.26438-.077-.38712s-.1254-.23427-.2193-.32821-.2055-.16845-.3282-.21929-.2543-.077-.3871-.077z" opacity=".2"/><path d="m18.6246 11.4923c-.2686 0-.5262.1065-.7164.2961-.1903.1896-.2976.4469-.2984.7155v2.1231c-.0078.1379.0126.2759.06.4056s.1208.2484.2157.3487c.0948.1004.2092.1803.336.2349.1268.0547.2634.0828.4015.0828s.2747-.0281.4015-.0828c.1269-.0546.2412-.1345.336-.2349.0949-.1003.1683-.219.2157-.3487s.0678-.2677.06-.4056v-2.1263c-.0017-.2675-.1089-.5235-.2983-.7123-.1895-.1888-.4458-.2952-.7133-.2961z" opacity=".2"/></g><path d="m18.6247 40.894c-.2692 0-.5273.1069-.7176.2972s-.2972.4485-.2972.7176v15.2839c-.0078.1379.0126.2759.06.4056s.1208.2483.2157.3487c.0948.1003.2091.1802.336.2349.1268.0546.2634.0828.4015.0828s.2747-.0282.4015-.0828c.1268-.0547.2412-.1346.336-.2349.0949-.1004.1682-.219.2157-.3487.0474-.1297.0678-.2677.06-.4056v-15.2839c0-.2686-.1065-.5262-.2961-.7165-.1896-.1902-.4469-.2975-.7155-.2983z" fill="#3695b2" opacity=".04"/><path d="m18.6247 70.9463c-.2686 0-.5262.1064-.7165.2961-.1902.1896-.2975.4469-.2983.7155v7.1361c-.0078.1379.0126.2759.06.4056s.1208.2483.2157.3487c.0948.1003.2091.1803.336.2349.1268.0546.2634.0828.4015.0828s.2747-.0282.4015-.0828.2412-.1346.336-.2349c.0949-.1004.1682-.219.2157-.3487.0474-.1297.0678-.2677.06-.4056v-7.12c.0017-.1341-.0232-.2672-.0732-.3916s-.1242-.2377-.2183-.3332c-.0941-.0956-.2061-.1715-.3297-.2235s-.2563-.079-.3904-.0794z" fill="#3695b2" opacity=".04"/><g fill="#3da3cb"><path d="m29.4565.490234v81.509666h35.9738zm6.6464 33.754066 18.0965 40.9965h-18.0965z"/><path d="m31.789 10.091h-2.3325v1.0632h2.3325z" opacity=".5"/><path d="m31.789 14.45h-2.3325v1.0632h2.3325z" opacity=".5"/><path d="m31.789 18.809h-2.3325v1.0632h2.3325z" opacity=".5"/><path d="m31.789 23.168h-2.3325v1.0632h2.3325z" opacity=".5"/><path d="m31.789 27.527h-2.3325v1.0632h2.3325z" opacity=".5"/><path d="m31.789 31.886h-2.3325v1.0631h2.3325z" opacity=".5"/><path d="m31.789 36.245h-2.3325v1.0632h2.3325z" opacity=".5"/><path d="m31.789 40.604h-2.3325v1.0631h2.3325z" opacity=".5"/><path d="m31.789 44.963h-2.3325v1.0632h2.3325z" opacity=".5"/><path d="m31.789 49.322h-2.3325v1.0632h2.3325z" opacity=".5"/><path d="m31.789 53.681h-2.3325v1.0632h2.3325z" opacity=".5"/><path d="m31.789 58.04h-2.3325v1.0632h2.3325z" opacity=".5"/><path d="m31.789 62.4022h-2.3325v1.0632h2.3325z" opacity=".5"/><path d="m31.789 66.7612h-2.3325v1.0631h2.3325z" opacity=".5"/><path d="m31.789 71.1202h-2.3325v1.0631h2.3325z" opacity=".5"/><path d="m31.789 75.4792h-2.3325v1.0631h2.3325z" opacity=".5"/><path d="m31.789 79.8382h-2.3325v1.0632h2.3325z" opacity=".5"/></g><path d="m29.4565.490234h1.8589l35.9223 81.500066h-1.8074z" fill="#3695b2"/><path d="m36.1029 34.2443v40.9965h18.0964l-.6379-1.3983h-15.7864l-.4607-36.8565z" fill="#3695b2"/></svg>