<svg fill="none" height="82" viewBox="0 0 39 82" width="39" xmlns="http://www.w3.org/2000/svg"><path d="m27.4742 20.2102.2992 3.0485-.0259 1.7032v4.7699l1.6532.6849-.3643-9.6503z" fill="#404041"/><path d="m.600299 15.2716-.380664.6658.19056 1.6623 17.902105 8.386-.1573-7.6692-1.2989.7135-7.92985-1.9956-2.641-2.9521-2.68739 1.8074z" fill="#404041"/><path d="m.219635 15.9374 3.520575.3293 2.54504-1.8283 2.25988 2.8466 8.31097 2.2676 1.3475-.7859-.0241-1.5886-1.5463 1.1852-7.42179-1.7596-2.92616-3.6656-2.73469 2.4281-3.093068-.4534-.237857.835z" fill="#a6a8ab"/><path d="m37.0645 40.606c.1132 7.5232-5.966 13.7148-13.5766 13.829-7.6106.1141-13.87128-5.8924-13.98543-13.4165-.08778-5.8728 3.59693-10.9347 8.83893-12.9271l-.1632-10.9119c-.0189-1.2599.4635-2.4757 1.341-3.3799s2.0783-1.4228 3.3381-1.4417c1.2599-.0188 2.4757.4635 3.3799 1.341.9042.8776 1.4228 2.0783 1.4416 3.3382l.1638 10.9124c5.3015 1.8323 9.1359 6.7814 9.2219 12.6565z" fill="#6ca1d6"/><path d="m18.3432 28.09-.1632-10.9119c-.0151-1.0517.3194-2.0786.951-2.9197.6315-.841 1.5245-1.4486 2.5386-1.7274 1.7282.5039 3.0271 2.3376 3.0608 4.5479l.1633 10.9124c4.4597 1.8469 7.6965 6.8047 7.7847 12.6774.1069 7.1272-4.4606 13.0409-10.3816 13.7281-7.0625-.4917-12.6861-6.253-12.79298-13.3815-.08732-5.871 3.59748-10.9328 8.83938-12.9253z" fill="#6ca1d6"/><path d="m36.5242 41.3c-.0017-.1-.0199-.1991-.0537-.2933.0041-.0501.0109-.0996.015-.1492h-.0814c-.8518-1.6168-6.298-2.8652-12.8935-2.8652-6.5954 0-12.0407 1.2466-12.893 2.8652h-.0818c.0041.0496.0118.0991.0163.1492-.035.0939-.0534.1931-.0545.2933.0031.1846.0588.3644.1605.5185.9624 5.7118 6.3467 10.0864 12.8525 10.0864 6.5059 0 11.8902-4.3746 12.8535-10.0864.1012-.1543.1567-.334.1601-.5185z" fill="#f27369"/><path d="m36.5242 41.3c0 1.8269-5.8264 3.3064-13.0136 3.3064-7.1871 0-13.013-1.4795-13.013-3.3064s5.8282-3.3059 13.0139-3.3059c7.1858 0 13.0127 1.4799 13.0127 3.3059z" fill="#f27369"/><path d="m18.3432 28.09-.1632-10.9119c-.0151-1.0517.3194-2.0786.951-2.9197.6315-.841 1.5245-1.4486 2.5386-1.7274 1.7282.5039 3.0271 2.3376 3.0608 4.5479l.1633 10.9124c4.4597 1.8469 7.6965 6.8047 7.7847 12.6774.1069 7.1272-4.4606 13.0409-10.3816 13.7281-7.0625-.4917-12.6861-6.253-12.79298-13.3815-.08732-5.871 3.59748-10.9328 8.83938-12.9253z" fill="#021d37"/><path d="m24.3757 54.3895c-6.3353-.357-11.4336-6.193-11.5418-13.4224-.0874-5.8732 3.144-10.9278 7.7492-12.9098l-.1642-10.9151c-.0341-2.3195 1.4008-4.2706 3.3287-4.7154 1.0896.1898 2.0787.7539 2.7969 1.5949.7182.8411 1.1203 1.9064 1.1371 3.0122l.1637 10.9124c5.2988 1.8356 9.1332 6.7847 9.2192 12.6597.1105 7.2276-5.4981 13.2241-12.6888 13.7835z" fill="#9fbad3"/><path d="m29.0364 13.6048c0 2.2071-2.9252 3.9949-6.5336 3.9949s-6.5345-1.7878-6.5345-3.9949 2.9252-3.99494 6.5345-3.99494 6.5336 1.78874 6.5336 3.99494z" fill="#6ca1d6"/><path d="m29.0364 12.9381c0 1.8382-2.4632 3.3286-5.503 3.3286-3.0399 0-5.5008-1.4904-5.5008-3.3286 0-1.8383 2.4628-3.32824 5.5008-3.32824s5.503 1.49034 5.503 3.32824z" fill="#6ca1d6"/><path d="m27.7475 13.6048c0 2.2071-2.6378 3.9949-5.8896 3.9949s-5.8896-1.7878-5.8896-3.9949 2.6378-3.99494 5.8896-3.99494 5.8896 1.78874 5.8896 3.99494z" fill="#6ca1d6"/><path d="m27.5306 14.6813 1.5058-8.42558h-12.1803l1.1779 6.90748z" fill="#58595b"/><g fill="#a6a8ab"><path d="m27.5306 14.6813 1.5058-8.42558h-12.1803l1.1779 6.90748z"/><path d="m26.9607 14.5903 1.8492-7.42586.2265-.90868-9.7872-.52165v7.62379l.8427.1346z"/><path d="m25.9129 14.4384 2.5373-8.21402-7.1649-.49027-.4884 7.87119z"/><path d="m20.1856 13.6048s-.7276-6.18254 8.6598-6.58185l-1.3148 7.65965z"/></g><path d="m22.9467 8.69204c-3.3628 0-6.0906-1.13699-6.0906-2.54322s2.7288-2.54276 6.0906-2.54276c3.3619 0 6.0897 1.13698 6.0897 2.54276 0 1.40577-2.7278 2.54322-6.0897 2.54322z" fill="#bbbdbf"/><path d="m21.3936.57576v5.6804h3.0844l.01-5.6804z" fill="#6ca1d6"/><path d="m21.9161.57576v5.6804h2.5619l.01-5.6804z" fill="#6ca1d6"/><path d="m24.1624.57576h-1.1229v5.6804h1.1229z" fill="#6ca1d6"/><path d="m38.4966 69.1658v12.1326l-2.022-2.4918z" fill="#262626"/><path d="m-.00003052 79.9277 2.57096052-12.1763 35.92567 1.4144-2.022 10.202z" fill="#929497"/><path d="m6.93924 76.0914v-75.29052h-2.29399l-.01637 75.29052z" fill="#6d6e70"/><path d="m6.92241.80088h-1.90151v75.29052h1.90151z" fill="#a6a8ab"/><path d="m6.70777.80088h-.84365v75.29052h.84365z" fill="#a6a8ab"/><path d="m5.79272 1.70503c-.63354 0-1.14746-.38203-1.14746-.85274 0-.470714.51392-.85229 1.14746-.85229.63353 0 1.14653.381121 1.14653.85229 0 .47117-.51346.85274-1.14653.85274z" fill="#929497"/><path d="m-.00003052 80.8472v-.9195l36.47463052-1.1211 2.022 2.4918z" fill="#404041"/><path d="m5.02091 76.0915 7.04119 3.5615 23.7844-.8278-4.8281-1.443h-12.6774l3.3132 1.8792-6.4495.2824-8.28229-3.4523h-2.29353z" fill="#bbbdbf"/><path d="m-.00003052 23.2515v-5.9665h3.44326052l2.84202 2.3486 2.61462-1.867 7.44823 2.7379.508 4.0254 7.983-.1469 2.8225 1.0251h.8727l-.2883 9.4543-3.7639-1.0347-8.5138 1.9752-1.0051-4.8881-6.64092-2.0425-2.53821 2.4477-1.79327-3.4737-3.99083052-.2838z" fill="#58595b"/><path d="m31.6192 77.3822-1.4003-6.0397-10.7832.3243-1.0947 5.7154z" fill="#aac0d2"/><path d="m24.89 68.5933c.125.122.2349.2585.3275.4065.0947.1475.1768.3027.2456.4639.0669.1668.121.3385.1619.5135l.0427.2729c.0069.0937.0069.1901.0087.2851-.0034.0982-.0134.1961-.03.2929-.0142.1002-.0391.1985-.0742.2934-.0274.0997-.0692.1948-.1241.2824-.0582.0869-.0992.186-.1774.257-.0714.0755-.1465.1469-.2224.2155-.0837.0569-.1733.1042-.2579.1542-.0831.0503-.1735.0875-.2678.1105l-.2684.0801.0232-.011c-.3454.096-.6751.2412-.9792.4312-.3006.1903-.571.4245-.8022.6949-.1107.1298-.2105.2686-.2984.4148-.0786.1396-.1505.282-.1673.3934-.0255.116-.0032.1619.0218.1846.0678.0613.146.1098.231.1433.1325.0591.2712.1033.4134.1319.1465.0455.3157.0691.4749.1082.1591.0391.3342.0605.5002.0983.1719.025.3429.0609.5153.0946.3502.0532.7004.1241 1.0574.1887l.5367.1128c.1792.0391.3602.0846.5416.141v.095c-.3565.1128-.7215.1966-1.0915.2506-.1842.0232-.3679.0555-.5535.0664-.1855.0109-.372.0264-.5589.0305s-.3757 0-.564-.0095c-.1882-.0096-.3811-.0342-.5721-.0642-.1966-.0339-.3904-.0824-.5798-.145-.2067-.0675-.405-.1582-.5913-.2702-.2362-.1379-.4275-.3412-.5507-.5853-.0282-.0767-.0518-.1549-.071-.2342-.0092-.0784-.0113-.1574-.0064-.2361.0117-.138.0507-.2723.1147-.3952.1041-.1975.2474-.3718.4211-.5121.1502-.1267.3095-.2422.4766-.3456.3211-.2047.6367-.3903.9433-.5913.3065-.201.5912-.4284.8927-.6653l.0237-.011.1701-.1364c.0567-.0392.1075-.0866.1505-.1405l.1292-.1442c.0309-.0524.0647-.1029.1014-.1515.0396-.0454.0541-.1055.0846-.1546.0324-.0503.0575-.105.0746-.1623.0272-.0561.0471-.1154.0591-.1765.0187-.0626.033-.1264.0427-.191l.0282-.2038.011-.2137c.0049-.1499.0016-.2999-.01-.4494-.0037-.1546-.0255-.3101-.0383-.4716l-.0563-.4934z" fill="#856348"/><path d="m31.6297 77.3822-1.3922-6.137-6.9443 1.7896-.2419 4.3474z" fill="#aac0d2"/><path d="m31.0184 77.3822-.971-5.3239-4.4911-2.9316.5499 8.2555z" fill="#aac0d2"/><path d="m30.2189 71.5171c0 1.4931-2.4018 2.7042-5.3639 2.7042s-5.3629-1.2111-5.3629-2.7042 2.4004-2.7042 5.3629-2.7042c2.9626 0 5.3639 1.2106 5.3639 2.7042z" fill="#b6c4ce"/><path d="m24.825 68.8134.0364.3183c.0127.1615.0346.3184.0382.4717.0116.1494.015.2994.01.4493l-.0109.2137-.0282.2038c-.0098.0646-.0241.1284-.0428.191-.012.0612-.0318.1205-.0591.1765-.0171.0573-.0422.112-.0746.1623-.0304.0492-.0455.1101-.0846.1547-.0366.0485-.0705.099-.1014.1514l-.1291.1442c-.0431.0539-.0938.1013-.1506.1405l-.1701.1365-.0236.0109c-.3016.2369-.584.4666-.8928.6653-.3088.1988-.6222.388-.9432.5913-.1671.1034-.3264.2189-.4767.3456-.0953.0819-.1833.172-.2628.2693.2246.0909.4536.1705.6862.2383.0169-.0314.0346-.0637.0523-.0951.0879-.1462.1877-.285.2984-.4148.2312-.2703.5017-.5046.8023-.6949.304-.1899.6337-.3351.9791-.4311l-.0232.0109.2684-.0801c.0944-.023.1847-.0602.2678-.1105.0846-.05.1742-.0973.2579-.1541.076-.0687.151-.1401.2224-.2156.0782-.071.1192-.1701.1774-.257.0549-.0876.0967-.1827.1241-.2824.0352-.0949.06-.1932.0742-.2934.0166-.0968.0266-.1946.03-.2928 0-.0951 0-.1915-.0087-.2852l-.0427-.2729c-.0408-.175-.095-.3467-.1619-.5134-.0688-.1613-.1509-.3164-.2456-.4639-.04-.0623-.0837-.1219-.1287-.182-.0782 0-.1546-.0059-.2338-.0059z" fill="#856348"/><path d="m23.2341 74.0949c.5361.0849 1.0781.1271 1.6209.1264 2.9621 0 5.3639-1.2111 5.3639-2.7042-.0008-.0987-.0119-.197-.0332-.2933l-5.6281-1.4963z" fill="#aac0d2"/><path d="m30.2189 71.5171c-.0024-.1259-.0214-.251-.0564-.372l-.885-1.157c-.0037-.0027-2.8198-.075-2.8198-.075l-.5685 4.2114c2.6956-.1169 4.3297-1.3612 4.3297-2.6074z" fill="#aac0d2"/><path d="m26.9202 71.0532-.0063-2.5878h-4.155v2.5878z" fill="#aac0d2"/><path d="m25.594 71.0532c.0252-.0724.0428-.1472.0524-.2233.0166-.0968.0266-.1946.03-.2928 0-.0951 0-.1915-.0087-.2852l-.0427-.2729c-.0409-.175-.095-.3467-.1619-.5134-.0688-.1613-.1509-.3165-.2456-.4639-.04-.0623-.0837-.1219-.1287-.182-.0783 0-.1547-.0059-.2338-.0059h-.03l.0364.3184c.0127.1614.0345.3183.0382.4716.0116.1495.015.2995.01.4493l-.0109.2138-.0282.2037c-.0098.0646-.0241.1285-.0428.1911-.012.0611-.0318.1204-.0591.1764-.0171.0574-.0422.112-.0746.1624-.0101.0177-.0191.0361-.0268.055z" fill="#856348"/><path d="m26.9239 71.0532-.0091-2.5878h-2.6747l-.0841 2.5878z" fill="#aac0d2"/><path d="m26.9203 71.0532-.0019-.6981-.2351-1.2284-1.6632-.6613.1724 2.5878z" fill="#aac0d2"/><path d="m26.9357 68.6146c0 .6508-.9346 1.1774-2.0884 1.1774s-2.0884-.5266-2.0884-1.1774.9346-1.1757 2.0884-1.1757 2.0884.5253 2.0884 1.1757z" fill="#bbc6cf"/><path d="m22.2245 67.3326s-.1974 2.4076 3.7957.6799c3.9931-1.7278-1.6509-7.123-1.1825-12.8921-.694 6.4872-2.9147 7.374-2.6132 12.2122z" fill="#ffed62"/><path d="m26.3258 68.5969c0 .3579-.6171.6481-1.3789.6481s-1.3794-.2902-1.3794-.6481c0-.358.6176-.6477 1.3794-.6477s1.3789.2902 1.3789.6477z" fill="#363a39"/><path d="m22.2245 67.3326s-.1974 2.4076 3.7957.6799c3.9931-1.7278-1.6509-7.123-1.1825-12.8921-.694 6.4872-2.9147 7.374-2.6132 12.2122z" fill="#ffe020"/><path d="m23.2319 67.3571s-.121 1.3049 2.3263.3689c2.4472-.936-1.012-3.8612-.7241-6.9889-.4257 3.5183-1.7869 3.9972-1.6022 6.62z" fill="#ee9f37"/><path d="m24.805 68.6364.367-.171s-.0196-3.069-.5048-2.6724c-.4853.3966.1378 2.8434.1378 2.8434z" fill="#754c28"/><path d="m-.00003052 16.2667v1.0183l2.83611052.3147 2.30991 3.7161 3.17629-2.0957 7.64602 1.6973.8878 4.4907 7.9248-.1014 3.4651 1.0929.2883-.9915-3.5874-2.032-6.6569 1.1538-1.4339-4.6021-7.95623-2.1612-3.39914 1.4535-1.50993-2.4745z" fill="#929497"/><path d="m5.14597 21.3158.63807 10.0042 2.53822-2.4478v-9.6521z" fill="#a6a8ab"/><path d="m16.8561 25.4081-.8878 10.3948 8.5138-1.9752 3.7639 1.0347v-8.4629l-3.4651-1.0928z" fill="#a6a8ab"/><path d="m2.83607 17.5997 1.15473 10.2466 1.79326 3.4737-.63808-10.0041-2.11935-3.7162z" fill="#6d6e70"/><path d="m15.9683 20.9174-.0259.2597-.9792 9.7377 1.0051 4.8881.8878-10.3948z" fill="#6d6e70"/></svg>