<svg fill="none" height="73" viewBox="0 0 51 73" width="51" xmlns="http://www.w3.org/2000/svg" xmlns:xlink="http://www.w3.org/1999/xlink"><linearGradient id="a"><stop offset="0" stop-color="#4c5670"/><stop offset=".12" stop-color="#757d91"/><stop offset=".26" stop-color="#9fa4b2"/><stop offset=".4" stop-color="#c2c5ce"/><stop offset=".55" stop-color="#dddfe4"/><stop offset=".69" stop-color="#f0f1f3"/><stop offset=".84" stop-color="#fbfbfc"/><stop offset="1" stop-color="#fff"/></linearGradient><radialGradient id="b" cx="0" cy="0" gradientTransform="matrix(11.2112 0 0 3.92392 11.208 69.1236)" gradientUnits="userSpaceOnUse" r="1" xlink:href="#a"/><radialGradient id="c" cx="0" cy="0" gradientTransform="matrix(800.592 0 0 277.029 3125.27 91.4634)" gradientUnits="userSpaceOnUse" r="1" xlink:href="#a"/><radialGradient id="d" cx="23.6123" cy="44.8511" gradientUnits="userSpaceOnUse" r="21.9295"><stop offset=".26" stop-color="#3fb6ea"/><stop offset=".38" stop-color="#3bb0e4"/><stop offset=".56" stop-color="#309fd2"/><stop offset=".76" stop-color="#1e83b5"/><stop offset=".98" stop-color="#055d8d"/><stop offset="1" stop-color="#025989"/></radialGradient><radialGradient id="e" cx="21.8793" cy="13.9551" gradientUnits="userSpaceOnUse" r="15.6034"><stop offset="0" stop-color="#f00"/><stop offset=".26" stop-color="#fc0202"/><stop offset=".48" stop-color="#f1090a"/><stop offset=".68" stop-color="#e01417"/><stop offset=".88" stop-color="#c72329"/><stop offset=".92" stop-color="#c1272d"/></radialGradient><linearGradient id="f"><stop offset="0" stop-color="#fff"/><stop offset=".38" stop-color="#fcfcfc"/><stop offset=".71" stop-color="#f1f1f1"/><stop offset=".92" stop-color="#e6e6e6"/></linearGradient><radialGradient id="g" cx="26.937" cy="25.7974" gradientUnits="userSpaceOnUse" r="12.0997" xlink:href="#f"/><radialGradient id="h" cx="0" cy="0" gradientTransform="matrix(102.405 0 0 107.966 261.783 573.734)" gradientUnits="userSpaceOnUse" r="1" xlink:href="#f"/><path d="m22.4192 69.1196c0 2.1442-5.0232 3.8804-11.2112 3.8804-6.18795 0-11.20803052-1.7362-11.20803052-3.8804 0-2.1443 5.02322052-3.8773 11.20803052-3.8773 6.1849 0 11.2112 1.7361 11.2112 3.8773z" fill="url(#b)"/><path d="m50.6906 69.1196c0 2.1442-5.0233 3.8804-11.2112 3.8804-6.188 0-11.2081-1.7362-11.2081-3.8804 0-2.1443 5.0232-3.8773 11.2081-3.8773 6.1848 0 11.2112 1.7361 11.2112 3.8773z" fill="url(#c)"/><path d="m44.4366 57.3997c-1.8366-8.2444-5.6762-34.0543-14.0273-34.0543s-7.9273 4.4989-20.99079 24.843c-13.06352 20.344 2.14429 21.2042 2.14429 21.2042 7.067-.4269 3.6387-4.4989 6.6401-9.6383 3.0013-5.1394 3.6512-3.2117 7.2805-3.2117s5.9965-.8571 6.21 2.3546c.2134 3.2118.2166 10.4954 8.1407 10.4954 7.9242 0 5.9211-6.0718 4.6025-11.9929zm-13.9206-7.5662c-5.0232-.2135-9.9711-.1099-7.6039-3.4535 2.5713-3.6418 4.2855-12.5298 5.8898-12.4231 1.6043.1068 6.7468 16.0932 1.7141 15.8766z" fill="#00226d"/><path d="m43.1526 55.8802c-1.8335-8.2444-5.6762-34.0543-14.0274-34.0543-8.3511 0-7.9272 4.4989-20.99074 24.843-13.06352 20.344 2.14114 21.2168 2.14114 21.2168 7.0671-.427 3.6418-4.4958 6.6401-9.6383 2.9982-5.1425 3.6418-3.2337 7.2837-3.2337 3.6418 0 5.9964-.8571 6.2099 2.3578.2135 3.2148.2135 10.5142 8.1376 10.5142 7.9242 0 5.9117-6.0844 4.6057-12.0055zm-13.9206-7.5631c-5.0232-.2166-9.9711-.113-7.6039-3.4534 2.5712-3.6639 4.2823-12.5424 5.8772-12.4357 1.5948.1068 6.7593 16.1026 1.7267 15.8891z" fill="url(#d)"/><path d="m15.0602 26.1113c1.3783-5.0483.8634-9.6602-.361-14.7023-.5557-2.30127-1.8052-9.70738-5.58207-7.05449-1.79894 1.2558-2.99824 3.54137-4.14102 5.35915-.36732-2.31697-.3893-5.06718 1.68592-6.62752.96069-.72837 2.16626-.74092 3.20544-1.28406.94183-.49604 1.64193-1.340571 2.62153-1.80208 2.1976.417555 4.5899.70639 6.4422 2.05638 2.0941 1.52581 2.6467 4.51776 4.9982 5.65113 2.6466 1.2558 4.681 1.41906 6.8127 3.65129 1.7675 1.8523 3.8679 3.2023 5.2336 5.425 1.328 2.1726 2.5116 4.3954 2.9951 6.907-1.5258 0-2.9418.4929-4.4895.3642-2.0282-.1664-2.9606.4112-4.7438 1.2558-2.339 1.0894-6.8316 3.623-9.2208 2.1976-1.5698-.9418-3.5853-1.2558-5.2681-.1099-.4019-.9167-.0314-1.9496.1319-2.8758z" fill="url(#e)"/><path d="m17.1763 31.4485c2.6623.1005 5.0577-.1978 7.7075-.4144 2.7408-.2198 5.491.0754 8.2223-.1884 2.6718-.2574 5.5287-.9418 8.1408-1.5415 2.7565-.6279 2.4614-5.0232-.1224-5.83-.5495-.8665-1.2119-1.7739-2.2291-2.1098-1.3971-.4615-2.1725.4364-3.4032.8257-1.7425-1.8837-4.1379-.405-6.301-.6059-2.5336-.2355-3.8271.0753-6.2037 1.215-1.9257.9514-3.9916 1.5874-6.1189 1.8837-1.5886.2009-5.0421-.7158-5.9651 1.0109-.6279 1.1365.2794 2.8884.4238 4.0814.4113 3.5319 3.2871 1.576 5.849 1.6733z" fill="#ccc"/><path d="m17.1763 30.6856c2.6623.1005 5.0577-.1977 7.7075-.4144 2.7408-.2197 5.491.0754 8.2223-.1883 2.6718-.2575 5.5287-.9419 8.1408-1.5415 2.7565-.6279 2.4614-5.0233-.1224-5.8301-.5495-.8665-1.2119-1.777-2.2291-2.1098-1.3971-.4615-2.1725.4364-3.4032.8257-1.7425-1.8837-4.1379-.405-6.301-.6059-2.5336-.2355-3.8271.0753-6.2037 1.215-1.9257.9514-3.9916 1.5874-6.1189 1.8837-1.5886.2009-5.0421-.7158-5.9651 1.0109-.6279 1.1365.2794 2.8884.4238 4.0814.4113 3.5319 3.2871 1.576 5.849 1.6733z" fill="url(#g)"/><path d="m3.07043 10.6209c.38616.6625-.20407 1.237-.46465 1.8461.2407-.1099.48818-.2043.74092-.2826.22291.5149.23861 1.1554.47407 1.6859 1.00778-1.0862 1.07999.6436 1.92766.9984.31395-.2669.62791-.3422.86337-.7315-.03272.1483-.02687.3025.01699.4479.04386.1455.12426.2772.23353.3827s.24376.1812.39062.2199.3012.0391.44827.0012c.01196-.5237-.0954-1.0434-.31395-1.5195 1.2558.9858 1.28092.0314 1.63569-.8225.28569-.6782.98585-1.4662.98585-2.2731-.03111.0406-.04794.0903-.04794.1413 0 .0511.01683.1008.04794.1413.3861-.3139.4175-.92615.2668-1.36254-2.23532.79434-2.86323-3.70777-5.59146-2.37034-1.69534.83197-1.53209 2.69057-2.23848 4.11278.19465-.2229.4207-.405.62477-.6154z" fill="url(#h)"/></svg>