<svg fill="none" height="71" viewBox="0 0 53 71" width="53" xmlns="http://www.w3.org/2000/svg"><path d="m.323593 27.6881c0-13.5046 9.216887-24.83157 21.556707-27.68441336.1124-.01303978.226.00869656.3256.06227636.0996.05358.1804.136427.2315.23736.0843.348108.0362.715127-.1351 1.029727-.2025.47266-.7216 1.17743-2.0257 1.76403 0 0-.1519.50643 1.2661 1.77671l-3.9501 1.68807s.8061-1.59523.1773-2.44349c-9.03969 4.08514-15.42906 12.87153-15.42906 23.27853 0 14.0828 11.60556 25.4984 25.92036 25.4984 3.7191.0045 7.3965-.7839 10.7869-2.3127 0 0 3.5069-.1308 3.8825 0 .1369.0442.2593.1244.3545.2321.1519.4221-.3714.7639-.422.8061-3.6212 2.3763-7.7609 3.8469-12.0697 4.2877v3.4859c.7005.3629 1.3378 1.0846 1.6458 2.4435 0 0 .1309 2.1101 3.9164 3.5238 3.7855 1.4138 7.9635 1.7303 9.4616 2.7727 1.2239.844 1.9498 1.6416 1.4138 2.8571h-37.86777c-.53596-1.2155.18991-2.0046 1.41377-2.8571 1.4982-1.0424 5.6762-1.3674 9.4617-2.7727s3.9163-3.5238 3.9163-3.5238c.3081-1.3589.9453-2.0806 1.6459-2.4435v-3.431c-14.2727-1.1606-25.477307-13.3738-25.477307-28.2753z" fill="#544337"/><path d="m47.1802 69.5018c.1206.2313.1835.4883.1835.7491s-.0629.5178-.1835.7491h-37.86777c-.12161-.231-.18515-.4881-.18515-.7491s.06354-.5181.18515-.7491z" fill="#f2f2d8"/><path d="m4.54378 27.7219c-.00835 4.7938 1.4056 9.4824 4.06293 13.4723 2.65729 3.99 6.43859 7.1019 10.86519 8.942s9.2996 2.3257 14.0023 1.3953 9.0236-3.235 12.4161-6.6221c3.3924-3.3871 5.7037-7.7045 6.6415-12.4057s.4599-9.5749-1.3733-14.0044c-1.8331-4.4295-4.9391-8.2156-8.9249-10.87922-3.9857-2.66358-8.6721-4.08489-13.4659-4.08406-6.4194-.00448-12.5777 2.54101-17.1204 7.07658-4.54277 4.5357-7.09792 10.6899-7.10352 17.1093z" fill="#00a4d6"/><path d="m29.4724 3.55713c6.2859.18576 12.252 2.81335 16.6325 7.32527 4.3806 4.5119 6.8308 10.553 6.8308 16.8416s-2.4502 12.3298-6.8308 16.8417c-4.3805 4.5119-10.3466 7.1395-16.6325 7.3252z" fill="#27a9df"/><g fill="#94c40e"><path d="m12.1107 28.2536c1.4264-.9242 2.3084-1.2154 2.262-3.0554-.038-1.3462-.2026-3.5787 1.2998-4.2708.5461-.1931 1.142-.1931 1.6881 0 .0886-.7976-.7301-1.5868-.4431-2.4266.3629-1.0593 1.266-1.6037 2.2113-2.0553.815-.3897 1.5483-.9311 2.1608-1.5952 1.1352-1.2323 2.2282-2.2705 3.8741-2.7727 2.9542-.9073 6.9844-.2321 9.3309 1.8358 1.8737 1.6459 4.5367 5.634 2.4266 7.9509-1.3843 1.5192-3.718 1.4855-5.5833 1.8189-1.3041.2321-2.8824.7722-2.6123 2.3928.1772 1.0635 1.1901 1.7936 1.1057 2.9162-.0887 1.2196-1.207 2.2535-.8821 3.5365.325 1.2829 1.781 1.8104 2.1608 3.0849.5064 1.7092-.1562 3.7982-.1393 5.5327 0 1.3336.422 3.0807-1.3462 3.2833-1.9877.2321-4.1696-1.0171-5.7986-1.9919-1.515-.9031-3.2622-1.6881-4.6169-2.8149-1.4686-1.2154-1.2956-2.6207-1.9202-4.2202-.9579-2.4393-9.9596-4.0387-5.1781-7.149z"/><path d="m24.4673 3.79763c.095-.03545.1961-.05184.2975-.04822s.2011.02718.2933.06933c-.2827.04642-.5613.09706-.844.15192.0679-.07866.1552-.13829.2532-.17303z"/><path d="m26.0498 5.21143c.114.91156-.7385 1.26605-.844 2.04679-.1646 1.5066 2.0721.57394 2.8148 1.12257 1.7936 1.32092-.422 3.24111-1.9455 3.08071-1.342-.1392-2.722-2.00034-4.0682-1.304-1.4602.7512.0464 2.4646-.8947 3.1904-.5529.4221-1.1184-.27-1.2407-.768-.0802-.3376.8904-2.7347-.4643-2.1987-.633.2489-.6414 2.1438-1.0213 2.6587-.4684.633-.844-.0633-1.5741-.1098-.9158-.059-.6626.5234-.844.8441-.2129-.0231-.4282-.003-.633.0591-.1604-.2912-.1224-.8694-.9454-.612-.5688.1669-1.0483.5523-1.3336 1.072.5571.3545 1.4729-.2448 2.279-.46.0239.0559.0663.1018.1201.1302.0537.0285.1156.0376.1753.0259.0706-.0013.1395-.0221.199-.0601.0596-.038.1075-.0917.1386-.1551h.0844c1.84.3418-.0886 1.802-1.034 1.9117-1.3209.1477-1.8146.4769-.8693 1.5826 1.0339 1.2028-.3503 1.6121-.5866 2.9541-.1309.7343.0506 1.4982-.1309 2.2283-.2003.5491-.4473 1.08-.7385 1.5868-.3671.8187-.1266 2.1945-.844 2.7262-1.0804.8019-3.30021.92-3.6125-.5824-.12661-.6119.11816-.8693-.54019-.9284-.45578-.0422-1.26607.4895-1.51506.844-.33761.4727-.29119.9496-.73853 1.38-.31088.2373-.60036.5014-.86513.7892 0-.1857 0-.3714 0-.5571.00178-4.6592 1.34981-9.2188 3.88191-13.13s6.1404-7.00744 10.3908-8.91621c.4999.14141.987.32494 1.4559.54862.3768.15996.785.23207 1.1937.21086.4087-.0212.8073-.13516 1.1654-.33324.4158-.1561.7817-.42144 1.0593-.76808.249-.37981.1983-1.02128.5275-1.36312.2785-.05486.5571-.1055.844-.15192.2537.14832.4711.35149.6361.59465.165.24315.2736.52014.3177.81067z"/><path d="m15.6681 13.9978c-.0597.0117-.1215.0026-.1753-.0259-.0537-.0284-.0961-.0743-.1201-.1302.2049-.0621.4202-.0822.633-.0591-.031.0634-.0789.1171-.1385.1551s-.1285.0588-.1991.0601z"/><path d="m5.15591 33.1027c-.21528-.9336-.37453-1.8792-.47688-2.8318.34183 1.0044.79339 2.2156.47688 2.8318z"/><path d="m15.2547 41.2265c.6034-.249 1.4559.6964 1.8779 1.0002.7217.5275 1.4771.7554 2.241 1.1648.7638.4093 1.8357 2.0383 1.3757 3.0048-1.0128 2.148-3.0554-1.5573-3.4816-2.2325-.2617-.4136-3.7096-2.2283-2.013-2.9373z"/><path d="m49.4679 32.3894c.0422-2.5701-1.8105-3.9374-2.3676-6.2627-.6456-2.701 2.0215-4.2202 2.3549-6.6131.1182-.844-.3039-1.6121-.4516-2.4266-.0782-.7358.0322-1.4794.3208-2.1607 2.159 3.4585 3.4074 7.4073 3.6288 11.4785.2214 4.0711-.5915 8.132-2.3628 11.8043-.0957-.0954-.1781-.2033-.2447-.3208-.9538-1.6838-.9074-3.6589-.8778-5.4989z"/></g></svg>