<svg viewBox="0 0 1167.37 1351.64" xmlns="http://www.w3.org/2000/svg"><circle cx="583.69" cy="675.82" fill="#ddd" opacity=".5" r="583.69"/><path d="m587.63 957.85c-3.44 0-7.8-2.49-7.8-9.1l1.57-68.4c0-6.61 2.79-12 6.23-12s6.22 5.36 6.22 12v69.33c0 6.61-2.78 8.17-6.22 8.17z" fill="#f8b65c"/><path d="m962.12 98.67-.46 23.66-10.31 520.3h-27.54l-10.99-520.3-.5-23.66z" fill="#074f94"/><path d="m255.68 98.67-.47 23.66-10.3 520.3h-27.52l-11.02-520.3-.5-23.66z" fill="#074f94"/><path d="m205.87 98.67h49.81l-.47 50.37h-48.84z" fill="#033049"/><path d="m962.12 98.67-.46 50.37h-48.84l-.5-50.37z" fill="#033049"/><path d="m251 648.86h-39.72l-.13-6.09-11.63-550.33h62.48zm-27.53-12.45h15.33l10.52-531.52h-37.08z"/><path d="m244.9 706.78h-27.52l-11.5 542.88h49.79z" fill="#074f94"/><rect fill="#074f94" height="81.48" rx="3.35" width="44.56" x="208.49" y="633.42"/><path d="m242.64 721.13h-23.73a16.67 16.67 0 0 1 -16.64-16.65v-60.64a16.67 16.67 0 0 1 16.64-16.65h23.73a16.67 16.67 0 0 1 16.64 16.65v60.64a16.67 16.67 0 0 1 -16.64 16.65zm-23.73-81.49a4.2 4.2 0 0 0 -4.19 4.2v60.64a4.2 4.2 0 0 0 4.19 4.2h23.73a4.2 4.2 0 0 0 4.19-4.2v-60.64a4.2 4.2 0 0 0 -4.19-4.2z"/><path d="m957.45 648.86h-39.73l-.13-6.09-11.59-550.33h62.5zm-27.54-12.45h15.33l10.52-531.52h-37.08z"/><path d="m951.34 706.78h-27.52l-11.5 542.88h49.79z" fill="#074f94"/><rect fill="#074f94" height="81.48" rx="3.35" width="44.56" x="914.93" y="633.42"/><path d="m949.08 721.13h-23.73a16.67 16.67 0 0 1 -16.64-16.65v-60.64a16.67 16.67 0 0 1 16.64-16.65h23.73a16.67 16.67 0 0 1 16.64 16.65v60.64a16.67 16.67 0 0 1 -16.64 16.65zm-23.73-81.49a4.2 4.2 0 0 0 -4.19 4.2v60.64a4.2 4.2 0 0 0 4.19 4.2h23.73a4.2 4.2 0 0 0 4.19-4.2v-60.64a4.2 4.2 0 0 0 -4.19-4.2z"/><path d="m889.29 1038.86c-4.83 88.18-42.77 163.82-54 184.49h-506.15c-11.23-20.67-49.21-96.4-54-184.62 0 0 202.42-102.63 614.15.13z" fill="#f8b65c"/><path d="m372.46 1059.06s159.08-111.76 215.17-111.76 204.12 110 204.12 110-155.75 95.83-419.29 1.76z" fill="#fccb60"/><path d="m889.29 1038.86c-5.67 103.68-57.15 190.06-57.15 190.06h-499.85s-51.52-86.44-57.15-190.19c0 0 261.86 79.5 614.15.13z" fill="#f69600"/><path d="m858.47 331.32-.56 2.34-7.16 29.34v.15c-39.59 123.36-179 173.1-225.3 239.44a92 92 0 0 0 -9.94 18c-2.77 4.75-1.73 11.73-4.5 16.49-7.1 9.35-7.44 107.24-23.32 107.24-18.54 0-22.18-97.81-29.13-107.3-3.45-4.72-1.74-9.11-3.83-14.57-3.59-9.37-9.21-18.27-16.38-26.94-.62-1.09-1.12-1.74-1.59-1.9-51.76-60.61-178.14-110.32-219.97-222.07 9.27-4.8 62.75-28.55 158.84.78 106.08 32.34 255.37 94.94 382.62-40.78a1.14 1.14 0 0 0 .22-.22z" fill="#f69600"/><path d="m593.86 768.88v71.19c0 6.92-2.79 12.52-6.23 12.52s-6.22-5.6-6.22-12.52v-71.19c0-6.92 2.78-12.52 6.22-12.52s6.23 5.64 6.23 12.52z" fill="#f69600"/><path d="m205.87 1196.69h49.81l-.47 50.36h-48.84z" fill="#033049"/><path d="m962.12 1196.69-.46 50.36h-48.84l-.5-50.36z" fill="#033049"/><path d="m262 1255.88h-62.5l11.76-555.33h39.74zm-49.78-12.45h37.08l-10.5-530.43h-15.33z"/><path d="m968.46 1255.88h-62.46l11.76-555.33h39.73zm-49.78-12.45h37.08l-10.52-530.43h-15.33z"/><path d="m698.79 63.59c153.52 8.87 168.65 135.84 162.05 244.76a225.79 225.79 0 0 1 -2.59 23.19c-.09.71-.21 1.43-.34 2.12a213.52 213.52 0 0 1 -7.16 29.34v.15c-15.16 47.22-44.92 83.64-78.5 114.34-54.2 49.51-118.25 84.12-146.83 125.05-6.35 9.12-11 18.55-13.29 28.51a64.69 64.69 0 0 0 -1.81 15.22 77.72 77.72 0 0 0 1 12.61c14.5 91 186.79 98.46 255 248.12 19.92 43.67 25.33 89.24 23 131.86-4.83 88.18-42.77 163.82-54 184.49-2 3.64-3.11 5.57-3.11 5.57h-499.92s-1.16-1.93-3.15-5.57c-11.23-20.67-49.21-96.4-54-184.62-2.34-42.58 3.08-88.09 23-131.73 70.63-155 257.8-157.51 261-258.08 0-.87 0-1.74 0-2.65 0-18.55-7.88-35.08-20.89-50.8-.53-.65-1.06-1.27-1.59-1.9-51.66-60.57-178.04-110.28-219.87-222.03a217 217 0 0 1 -13.2-63.19c-6.6-108.92 8.53-235.89 162-244.76zm.45-15.59h-234.08-.45c-55.88 3.23-99.27 21.82-129 55.26-50.48 56.84-51.39 144.78-47.68 206a234.18 234.18 0 0 0 14.17 67.74c29 77.49 94.07 125.16 151.48 167.23 28 20.53 54.48 39.92 71.19 59.47.43.5.88 1 1.33 1.59v.06.07c11.81 14.27 17.31 27.25 17.31 40.87v2.09c-1.28 39.91-41.09 63-91.49 92.26-57.62 33.46-129.43 75.13-168.02 159.9-18.94 41.56-27.13 88.34-24.35 139 4.95 91.16 44 169.39 55.87 191.2 2.09 3.82 3.32 5.89 3.45 6.11l4.53 7.59h517.5l4.53-7.59c.14-.23 1.39-2.33 3.45-6.17 11.82-21.67 50.88-99.71 55.88-191 2.82-50.74-5.38-97.57-24.35-139.17-38.57-84.51-108.71-126.15-165.07-159.61-46.48-27.6-83.19-49.4-88.78-84.47a62.76 62.76 0 0 1 -.81-10.16 49.18 49.18 0 0 1 1.38-11.6 66.39 66.39 0 0 1 9.9-21.74l1-1.48c15.6-22.33 44.85-44.21 75.81-67.37 22.74-17 46.26-34.61 68.73-55.16 42.44-38.78 68.76-77.25 82.82-121.06l.27-.84v-.18a230.49 230.49 0 0 0 7.39-30.48c.15-.81.29-1.66.41-2.5a244.45 244.45 0 0 0 2.72-24.54c3.71-61.23 2.8-149.16-47.68-206-29.71-33.44-73.11-52-129-55.27h-.44z"/><path d="m870.73 100.32v26.86a21.84 21.84 0 0 1 -21.85 21.82h-530.39a21.85 21.85 0 0 1 -21.85-21.86v-26.82z" fill="#074f94"/><path d="m296.64 100.32h574.09v22.01h-574.09z" fill="#033049"/><path d="m848.87 155.27h-530.37a28.11 28.11 0 0 1 -28.08-28.09v-33.08h586.58v33.08a28.12 28.12 0 0 1 -28.13 28.09zm-546-48.72v20.63a15.65 15.65 0 0 0 15.63 15.63h530.37a15.65 15.65 0 0 0 15.64-15.63v-20.63z"/><path d="m1007.45 36.66v33.22a30.42 30.42 0 0 1 -30.45 30.44h-786.66a30.42 30.42 0 0 1 -30.41-30.44v-33.22a30.42 30.42 0 0 1 30.41-30.44h786.66a30.43 30.43 0 0 1 30.45 30.44z" fill="#0c6fc1"/><path d="m1007.45 36.66v15.48h-847.52v-15.48a30.42 30.42 0 0 1 30.41-30.44h786.66a30.43 30.43 0 0 1 30.45 30.44z" fill="#2693dd"/><path d="m977 106.55h-786.66a36.7 36.7 0 0 1 -36.65-36.66v-33.23a36.69 36.69 0 0 1 36.65-36.66h786.66a36.69 36.69 0 0 1 36.65 36.66v33.23a36.7 36.7 0 0 1 -36.65 36.66zm-786.66-94.1a24.23 24.23 0 0 0 -24.2 24.21v33.23a24.23 24.23 0 0 0 24.2 24.21h786.66a24.23 24.23 0 0 0 24.2-24.21v-33.23a24.23 24.23 0 0 0 -24.2-24.21z"/><path d="m289.38 1204.56h588.62a0 0 0 0 1 0 0v42.68a6 6 0 0 1 -6 6h-576.59a6 6 0 0 1 -6-6v-42.68a0 0 0 0 1 -.03 0z" fill="#074f94" transform="matrix(-1 0 0 -1 1167.37 2457.84)"/><path d="m293.75 1226.33h579.87v22.01h-579.87z" fill="#033049"/><path d="m884.22 1259.5h-601.07v-36.15a25 25 0 0 1 25-25h551.06a25 25 0 0 1 25 25zm-588.62-12.45h576.17v-23.7a12.58 12.58 0 0 0 -12.56-12.56h-551a12.58 12.58 0 0 0 -12.56 12.56z"/><path d="m1007.45 1280.94v34.83a29.63 29.63 0 0 1 -29.61 29.64h-788.31a29.62 29.62 0 0 1 -29.6-29.64v-34.83a29.62 29.62 0 0 1 29.6-29.63h788.31a29.62 29.62 0 0 1 29.61 29.63z" fill="#0c6fc1"/><path d="m1007.45 1298.37v17.4a29.63 29.63 0 0 1 -29.61 29.64h-788.31a29.62 29.62 0 0 1 -29.6-29.64v-17.4z" fill="#2693dd"/><path d="m422.13 1331h-175.31a10.89 10.89 0 0 1 -10.89-10.89 10.9 10.9 0 0 1 10.89-10.89h175.31a10.89 10.89 0 0 1 10.87 10.92 10.88 10.88 0 0 1 -10.87 10.86z" fill="#62c3f9"/><path d="m211.44 1331a10.88 10.88 0 0 1 -10.89-10.89 10.89 10.89 0 0 1 10.89-10.89 10.9 10.9 0 0 1 10.89 10.89 10.89 10.89 0 0 1 -10.89 10.89z" fill="#62c3f9"/><path d="m977.83 1351.64h-788.29a35.9 35.9 0 0 1 -35.85-35.86v-34.84a35.89 35.89 0 0 1 35.85-35.85h788.29a35.89 35.89 0 0 1 35.85 35.85v34.84a35.9 35.9 0 0 1 -35.85 35.86zm-788.29-94.1a23.43 23.43 0 0 0 -23.4 23.4v34.84a23.43 23.43 0 0 0 23.4 23.4h788.29a23.43 23.43 0 0 0 23.4-23.4v-34.84a23.43 23.43 0 0 0 -23.4-23.4z"/><rect fill="#62c3f9" height="21.78" rx="10.89" width="197.09" x="781.97" y="23.3"/><path d="m757.47 45.08a10.9 10.9 0 0 1 -10.89-10.89 10.89 10.89 0 0 1 10.89-10.89 10.88 10.88 0 0 1 10.89 10.89 10.89 10.89 0 0 1 -10.89 10.89z" fill="#62c3f9"/><path d="m897.07 1039.29c-4.05 73.84-30.78 138.87-46.63 171.49h-536.44c-15.81-32.69-42.58-97.87-46.6-171.61-2.7-49.46 5.26-95 23.69-135.41 37.6-82.52 108.23-123.48 165-156.41 52.48-30.45 93.94-54.51 95.34-98.68 0-.81 0-1.59 0-2.4 0-15.31-6.26-30.32-19.09-45.85-.52-.65-1-1.18-1.49-1.74-17.34-20.3-44.14-39.94-72.53-60.76-56.53-41.4-120.59-88.34-148.79-163.64a226.25 226.25 0 0 1 -13.66-65.46c-3-48.41-3-113.84 22.84-166h527.03c25.84 52.17 25.81 117.63 22.88 166a236.44 236.44 0 0 1 -2.68 24c-.09.59-.21 1.43-.37 2.24a225.17 225.17 0 0 1 -7.25 29.82l-.19.59c-13.63 42.53-39.25 79.87-80.65 117.72-22.2 20.27-45.54 37.76-68.14 54.66-31.47 23.54-61.23 45.79-77.54 69.14l-1.21 1.77a74 74 0 0 0 -10.93 24.07 58 58 0 0 0 -1.59 13.44 71.59 71.59 0 0 0 .9 11.36c6.17 38.7 44.27 61.33 92.49 90 55.43 32.91 124.41 73.87 161.95 156.17 18.43 40.4 26.4 86 23.66 135.49z" fill="#fff" opacity=".1"/><path d="m727.76 877.86a496.81 496.81 0 0 0 -40.93-65.23 8.62 8.62 0 0 1 6.93-13.77h.14a29.6 29.6 0 0 1 18.8 6.74c12.6 10.33 36.66 32.84 59.36 69.62a5.38 5.38 0 0 1 -4.56 8.19h-30.65a10.3 10.3 0 0 1 -9.09-5.55z" fill="#fcf7d0" opacity=".5"/><path d="m789.82 1162.25a21 21 0 0 1 -20.38-25.78c17.06-72.32 5.48-140.81-14.53-197a18.13 18.13 0 0 1 17-24.17 31.14 31.14 0 0 1 18 5.7 31.67 31.67 0 0 1 11.51 15c18.39 49.91 29.62 114.69 21.31 196.41a33.19 33.19 0 0 1 -32.91 29.84z" fill="#fcf7d0" opacity=".5"/><path d="m471.78 413.12a413.87 413.87 0 0 0 41.84 48.6 7.17 7.17 0 0 1 -4 12.2h-.11a24.66 24.66 0 0 1 -16.32-3.2c-11.66-6.93-34.28-22.46-57.56-49.91a4.47 4.47 0 0 1 2.74-7.31l25.22-3.83a8.58 8.58 0 0 1 8.19 3.45z" fill="#fcf7d0" opacity=".5"/><path d="m428.53 388.13a21.08 21.08 0 0 1 -3.45.25 23 23 0 0 1 -20.08-11.71c-23.19-41.29-41.9-97.76-43.7-173.51a22 22 0 0 1 22-22.56 22 22 0 0 1 21.9 24c-5.18 61.18 12.44 115.8 35.54 159.46a16.58 16.58 0 0 1 -12.21 24.07z" fill="#fcf7d0" opacity=".5"/><g fill="#f8b65c"><path d="m805.21 443.37c-1.08 1.28-2.18 2.56-3.28 3.82 1.07-1.26 2.2-2.54 3.28-3.82z"/><path d="m800.89 448.38-2.31 2.62z"/><path d="m811.88 435.13-2.43 3.07z"/><path d="m808.5 439.38q-1.35 1.65-2.71 3.29 1.37-1.67 2.71-3.29z"/><path d="m797.25 452.46-2.15 2.34z"/><path d="m783.93 466.32 1.19-1.18z"/><path d="m818.91 425.71q-3 4.26-6.21 8.37 3.18-4.08 6.21-8.37z"/><path d="m475.63 372.32c106.08 32.34 255.37 94.94 382.62-40.78-185.74-30.75-410.09 32.58-411.95 33.11 9.29 2.01 19.06 4.53 29.33 7.67z"/><path d="m788.81 461.41-1.6 1.63z"/><path d="m850.72 363.1q-.84 2.61-1.74 5.18.9-2.56 1.74-5.18z"/><path d="m793.75 456.25q-1.56 1.67-3.15 3.32 1.59-1.65 3.15-3.32z"/><path d="m831.15 406.79c-.68 1.18-1.38 2.35-2.08 3.5.7-1.15 1.4-2.29 2.08-3.5z"/><path d="m844.45 380.13c-.69 1.64-1.39 3.26-2.11 4.88.72-1.62 1.42-3.24 2.11-4.88z"/><path d="m846.45 375.13q-.81 2.08-1.65 4.14.84-2.05 1.65-4.14z"/><path d="m857.91 333.66-7.16 29.34a213.52 213.52 0 0 0 7.16-29.34z"/><path d="m822 421.32c-.76 1.12-1.53 2.22-2.3 3.32.74-1.1 1.51-2.2 2.3-3.32z"/><path d="m841.74 386.33c-.55 1.2-1.1 2.4-1.67 3.59.57-1.19 1.12-2.39 1.67-3.59z"/><path d="m848.42 369.85c-.44 1.23-.89 2.44-1.35 3.65.46-1.21.93-2.42 1.35-3.65z"/><path d="m828.43 411.35q-1.38 2.25-2.82 4.49 1.44-2.23 2.82-4.49z"/><path d="m839.35 391.43c-.6 1.24-1.22 2.48-1.85 3.71.63-1.23 1.25-2.47 1.85-3.71z"/><path d="m825.44 416.1c-.89 1.37-1.79 2.74-2.7 4.09.91-1.35 1.81-2.72 2.7-4.09z"/><path d="m834 401.74c-.69 1.25-1.39 2.5-2.11 3.74.74-1.24 1.44-2.48 2.11-3.74z"/><path d="m837 396.18q-1.22 2.35-2.47 4.67 1.24-2.31 2.47-4.67z"/><path d="m593.86 814.82v25.25c0 6.92-2.79 12.52-6.23 12.52s-6.22-5.6-6.22-12.52v-28.17a25.53 25.53 0 0 0 6.22.9 13.48 13.48 0 0 1 6.23 2.02z"/></g></svg>