<svg enable-background="new 0 0 1742.3 1600" viewBox="0 0 1742.3 1600" xmlns="http://www.w3.org/2000/svg"><path d="m281.6 1597.8 10.5 2.2 1.8-2.2z" fill="none"/><path d="m299.8 1590.6 131-84.1 124.8-80 249.2-157.7 332.9-204.3h-961.9c-.6 3 3.5 6.2-3.9 6.8-3 3-.4 4.2-5.7 4.2-.9 0-5.8 5.3-6.5 6.3-1.3 1.7-1.3 4.3-2.3 6.2-1.4 2.6-4.8 0-5.1 2.8-.5 5.5-6.4 5.4-6.6 7.5-.2 1.8.9 2.9 2.7 2.9 2.8 0 7.8 3.8 8.6 6.5 1.8-.9 1.8 3.4 4.4 3.4 1.9 0 5.8.7 7.4.2 1-.4 6.7 7.7 6.7 10 0 5.3 1.8 4.7-2.7 6.5-2.2.8-12.3-1-14.4-1.8-2.7-1-3.2-4-6.8-3.7-2.1.8-11.5-7.6-14-3-4 7.3-1.6 11.6-10.1 5.7-.9-.6-1.4-3.1-2.6-3.2-4.8-.5-9.1 3.3-13.3 3.3-6 0-11.5 2.6-17.8 4.7-4.9 1.6-13.1 13.8-14.5 18.4-4.8-3.6-5.7 2-7.4 6-2.4 5.8-4.3 1-6.5 8.4.3 2 1.6 6.7 1.1 8.3-1.3 4-4.6 2.2-6.5 3.9-2.1 1.9-.7 3.5-1.8 5.3-3.6 5.8-1.3 10.5 4.7 12 .8-2.4 8.8 1.6 9.8 1.5 4.2-.5 3.8 2.4 7.6 4.4 9.2 4.6 3.2 14-.6 20.6-1.2.4-1.7 6-4.6 1.3-1.5-2.5-2.6-4-4.7-.9-1.8 2.8-2.3-.7-3.2-1.2-1.5-.9-3 3.8-3.9 4.7-2.7 2.7-6.7-1.3-7 1.8-.2 2.3 3.7 7.6 4 10.7.6 5.9-4.6 8.4-8.8 11.4-1.1.8-2.7-.1-3.3 1.1-4 7.1-16.4 11.3-22.9 18.6l.9 7.3 3.8 5.2c1.7 3.5 5.1 9.6 2.7 13.4-1.1 1.7-6 4.7-2.7 6.1 6 2.5 6.7 5.5 7.9 11.3 1.1 5.5 6 10.5 6.6 15.6-.3.5-1.6 3.5-.6 3.7.1.4 5 .2 6 3 .7 2.1-.2 4.9.2 7.1.6 3.3-1 2.9-2.5 5.1-1.9 2.7 2.3 8.1-3.3 7.8-10.7-.6-5.1 29.9-1.8 35.9 3 4.2 13.2 4.3 10.8 12.4-2 6.4-11.8 11.1-14.1 18.9-2.8 9.2-3.8 20.3-9.6 28.1l-12.6 10.6-5.3 6.4 4.9.6c.7-.2 2.3-2.5 3-1.3 1.6 2.7 1.3 3.1 4.8 4 2.3.6 2.9 1.5 4.5 3 1.4 1.3 2.5-.9 3.8.1 1.9 1.4 3.8-.4 6.1-.7 3.8-.6 1.9 3 4.5 3.9 2.5.7 12.4-2.3 13.6 1 2.2 6 1.9 7 8.2 9.1v.5c-7.4 2.5.8 6.8 4.8 7 14.2.9 8.1 5.5 11 16.8.2.8 5.3 8.4 6.3 9.1 3.8 2.6 4.8 7.2 6.2 11.3-3.5 12.1 7.6 5.5 13.3 5.5 7 0 9.1 6 15.5.6 5.3-4.5 15.1 7.9 21.5 11.1 11.4 5.7 15.9 16.1 25.1 23.6l7.8 9.9 24.2 2.5 4 3.1 44.7 6.8 32.2 6.6h12.3z"/><path d="m1289.3 971.5 86.9-26.1 2.9-5.5 7.2-9 9.6-21.9 18.7-45.6 27-39-4.8-117.6 2.6-16.8v-19l13.5-39 .3-33.9 20.6-32.6 8.2-12.7-.7-21.7h-1459.2c-.9 1.5-1.9 3-3 3.7-10.6 6.8-2.4 5.5-3 15.3-.2 3-2.1 5.5-2.9 8.3-.7 2.5-3.8 3.9-4.3 5.3-.2 0-.3 0-.3.2h-.2c0 .1 0 .1-.2.1 0 .1-.2.2-.3.2-.1.2-.2 0-.2.2-3.6 0-4.2 1.3-7 2.3v.4c2.1.7 4.2.7 6.1 2.3 1.5 1.2-4 3.5-.4 6.7 1.2 1 5.7 4.6 5.7 5.9.1 0 .1.1.1.2 1.9.6-3.6 5.6-2.7 6.8-1.5 1.9 7.8 4.2 8.8 4.4 1.3-.5 1-.5 1.2-.6.4-1.7 1.8-1.2 2.7-1 .8 3.2 9.9 9 12.6 11.5l8.6 7.9c2.5 2.3 5.3 3.7 7.8 5.8 1.2.9-1 11.9.1 15.4 1.6 5.3.7 11.3.7 17-2.9 9.9 5.1 28.8 8.1 38.3 2.7 8.8-6.1 5.1-6.5 10.8-.5 5.9-4.6 10.2-4.6 15.9-1.2 2.9-3.9 3-4.8 6.2-.7 2.7 2.3 4.5 1.6 6.6-2.5 7.3-2.4 6.6-.5 14.2.9 3.5 1.1 8.6-.3 11.9-1 2.3-3.8 1.6-3.8 4.8l.1 11.1c0 5.8 1.1 7.1-1.5 12.4-1.1 11.6 7.5 22.5 10.8 33.1 1.6 5.1 4.4 9.9 4.4 15.4 0 2.8-.5 5.5-.5 8.3 0 2.6 3.2 5.9 2.9 8 3.2 6.7 5.7 12.9 7.7 19.5 2.2.8 7.4.5 9.7 1.3 1.7.6 2.6 2.6 4 3.6 4.1 2.9 8.5.8 12.6-.4 2.4-.7 4.4 1.1 6.8 1.1.8-2.6 3.3-.2 5-1.6 5.3-2.7 1.8-.1 5.8 1.4 2 .7 4.2-.4 7.1.6 5.5 1.9 7.7-5.3 12.2-.5 1.1 1.2 7.4 1.9 8.4.8 2.8-3.1 7.3.8 12-1.1 7.5-3.1 3.7-14.7 7.8-16.5 1.1-.5 8-4.7 8-.4 1.9.6-.1 7.2 1.1 8.8 1.2 1.7 4 5.2 5.7 6.4 2.1 1 5.3 3.8 7.4 1.6 2.4-2.4 1.2.2 3.4 2.1 3.6 3.2 8.6-1.7 11.6-2.7.6 1.7-1 13.1-2.3 13.8-4.8 2.4-8.7-8-10.7-3.6-.6 1.3-3.2 10.1-2.7 10.5 1.6 1.2 2.8 1.2 1.9 3.6-1.8 5.1-9.6 8.1-14.3 9.6-4.6 1.4-4-.3-4 4.5 0 4.4-1.1 3.9 3.5 3.9 1.6 0 3.2.6 4.7.6 1.8 0 3.3-1.1 4.8-.9 1.8.2 1.1 4.2 4.5.8 2.4-2.4 2.9 1.3 5.5 0 3.6-.5 4.5-3.5 5.7 1.3 1.4 5.5-1 3.2 3.7 5.5.4.2 1.7 4.2 1.9 4.9.9-.2 2.1-.1 3.4.3l34.7-106.9-101.9-74h125.9l39-119.8 38.9 119.8h125.9l-101.9 74 38.9 119.8-101.9-74-90.3 65.6c.7.3 1.2.6 1.4 1 .7 1.4 1.3 3.7 2.6 4.6 2.9 2 1.8 0 4 3.7 1.7 3 4.1 4.3 3.2 9.2-1.1 1.8-4 5.2-5.7 5.7 0 .2 0 .2-.1.2 0 1.1 2.2 4.7 3.2 5 0 .1.3.7.3.7 0 .5.4 4.1.6 4.1 0 .2.2.2.2.5 7 2.3 2.4 3.7 5.1 7 2.5 3.1 6.4 1.4 8.2 4.9 2 3.7.6 4.3-2.7 5.3 0 2.1 1.5 4.1 1.3 6-.1 1.4-2.4 4.7-1.4 6.1-4.2 5.6 2.8 8.4 6.5 10 8.8 3.9 1.5 6.3-3.4 8.3-4.4 0-2.6 7.5-3.8 7.9 0 .8-2.6 1.1-3.2 2.1-.6 1.3.5 2.8 0 4.1-1.1 3-5.6 3.1-8 4.5-4.4 2.7-9.3 10.4-7.7 15.2 1.5 4.5-2.2 6.3-3.4 10-2.9 0-4.4 1-6.6 2.7-3.2-2.5-5.9-1.8-9.5-2.8-5.6-1.6-3.1 3.2-5.5 2.3-3.8-1.3-2.3.7-2.3 2.8-2.9 1-3.9 2.2-4.2 3.4h961.8zm-71.2-227.2 38.9-119.8 38.9 119.8h125.9l-101.9 74 38.9 119.8-101.9-74-101.9 74 38.9-119.8-101.9-74z" fill="#fff" stroke="#000" stroke-width="1.5"/><path d="m1480.1 483.1-15.8-36.3-15.2-33.4 8.2-76.6-.6-17.3 30.6-58.6 87.9-15.4 22-4.5 19.2-17.8 47.7-53.3 77.8-85.7c0-.7.1-1.3.2-1.8 1.3-4.1-5.2-2.5-5.2-8 0-1.2.1-2.5.2-3.7.2-2.3.5-4.6-.1-6.7-1-3.9-4.2-4.6-5-7.8-1.8-7.2-6.9-14.4 2.2-19.4 6.1-3.4-4.4-9.3-5.8-11.3-2.2-3.1-1.5-5.6-6.6-5.8-4.7-.3-1.9-7.2-7.1-5.5-.2.1-4.9 3-5.5 2.8-2.8-1.1-.8-4.2-5.1-3.2-6 1.4-1-7.7-2-11.3-.3-1.1-.8-1.9-1.4-2.4l-2.2 1.9c-2.3.3-9 12.2-11.3 14.7-4 4.3-8.3 7.9-13 11.3-3.6 2.6-3 6.6-5.3 9.2-1.3 1.4-8.6 4.5-11.2 6.2-2.8 1.8-4.8 1.7-7.3 3-7.4 0-10.4 6.4-17.1 7.8l-26 5.4c-17.5 3.7-36.4 10.8-54.3 9.1-3.8.8-3.8 3.5-8.4 2.2-3.4-.9-5.8.1-8.6 2.3-6.2 4.6-11.1 3.1-16.7 6.6-5.2 3.2-32.9 1-40.3 1.8-3.4.3-21.3-.6-24.2-1.9-3.8 0-7.9.4-11.4 1.9-1 .4-7.6 5-8 3.2-1.8-.4.4-7.3-6.4-7.8-4.9-.3-7.8-4.3-13.5-2.9-7.8 1.9-24.7-6.1-34.5-6.6-7.6-.4-14.3-4.1-20.3-4.6-2.9-.2-6.5 1.2-9.9 1.2-8.1 0-7 8-10.4 8-3.6 0-6.1-8.4-8.9-6.9-3.2 1.8-4.3.9-7.3-1-4.5-2.8-4.4 5.3-7 6.3-5.1 2-12.8-.1-17.9 3.2-9.3 6-13.1 8.9-23.6 12.1-8.8 2.7-16.9 17.1-28.5 12.8-11.4 1-25.7 1-27.7 15.3-.4 2.6-22.7 14.9-27.3 17.7-7.6 4.7-10.1 3-17.8 10-5.9 5.4-17.3 9.8-25.5 8.5-1.4.5-15.8 2.9-14.6 5.7-5.9 3.4-1.1 8.3-12.6 8.3-6.3 0-14.3 6.3-20.1 9.1-10.9 5.1-25.6 11.7-37 13.4-7.4 1.1-14.9.2-21.9 2.3-9.4 4.2-12.6 7.5-23.3 7.5-8.3 0-18.6 1.4-25.8 5.8-12.4 7.7-38.7 5.2-53.8 7.4l-3.3.5-1 .1c-14.7 1.3-21.7 6.7-36.1-.2-10.5-5-27.3-9.7-39.2-9.7-4.4 0-21.7 1.6-24.5 3.7-.4-.2-1.7 0-2.1 0l-41.1-1-7.4-5.1c-8.3-4.6-12.4-12.3-19-18.5-3.8-3.5-12.9-8.1-12.9-13.6 0-6.8-4.5 1.8-6.3-2.3-1.6-3.6-10.4-9.4-10.4-9.6-1.2 0-8.7-3.9-10.9-4.7-7.7-4.9-23.1-11.7-31.8-10-3.3.7-30.3-6-30.6-7.1-5 0-2.2-3-7.3 1.5-2.7 2.5-5.9 3.1-9.4 3.5-.9.1-5.6-1.2-5.8-.6-.4 0-2.7 4.5-7.8 4.5-4.2.5-7.8 9.4-13 5.4l-1.9.6c-.3.8-2.1 3.3-2.5 4.4-1 0-5.8-2-6.1-1.2-3.2 0-5.8 7.9-7.8 10-1.9 1.9-9.6 3.3-12.4 3.6l-8.2 2-9.9 9.6-6.5.2-11.7 6.2-9.4 2.5-3.1 4.6-14.3-.6-6.4-2.9-5.6 5.1-2.4-.2-3.5-2.8-9.4 9.1-35.7 17.4-.3 7-3 5.4-8.4.2-4.8-3.8h-4.5l-11.6-4.3-22.5-4.2-1.1 2.3-15.4-4.1-14.5 6-4.4-7-9.3 7.4-6.3 6.8-6.4-2.7c-2.8-2.8-.1-5.2-5.3-6.8-.5-.1-3.4-.3-3.5-.6-.2 0-.2 0-.2-.1h-.2c-.1-.2-.2-.1-.2-.4-.1 0-.3-7.2-.8-8.7-.7-2 4.2-3.8 5.6-4.9 6.9-5.4-1.7-9.9-7.9-9.9-2.7 0-2.3-1.1-3.8-1.6 0-1.3-.2-4.8 1.5-5.3v-.6c-2.5-.8-4.3-1.1-7.4-1.1-.1-.2-2.8-2.2-3.2-2.3-3.4-2.1-5.8 0-9.1-3.6-2.5-2.9-4.7.1-7.6 1.2-1.7.6-5.7.5-7.4.2-7.9-1.6-19.4-4.1-25.5-9.5-1.7-1.1-3-2.3-4.8-3-1.5-.6-3.6.3-5.1-.1-4-1-4-5.6-9.3-3.1-2.1 1-5.2.7-7.3-.1-1.6-.6-.5 2.3-.5 2.9 0 8.6-5.4 7.7-8.2 13-1.8 3.2-4.4 8-5.4 11.6-.8 2.7.9 5.4 1.9 7.9.9 2.2-.2 7.8-2.4 8.5 0 2.8-7.4 10.5-9.9 11.3 0 .2-.1.4-.2.4 0 2.6.1 6-.6 8.5 0 3.8 0 9.5 2.6 12.1 1.9 1.9 1.7 5.4.7 8.1-2 5.5-3.3 12.2-6.3 17.1-1.8 3-6.6 4.3-4.6 8.3.3.7 3.2 4.8 1.9 5.2.3 1.2 2.2 4.5 1.8 5.5-1.2 3.1-1 3.9.9 6.8.4 3.1-.6 3.6 1.9 5.5 1.4 1.1 2.7 1.7 3.1 3.8.8 5 2.2 4.7 6.1 6.2 1.6.6.5.4 1.3 1.5-1.3.4.2 6.1.5 6.9 1.3 3.3-1.3 3.7-3.5 5.3 1.1 5.6 1 5.6 5.9 3.2 5.2-2.6 2.5-.8 7.2 1.1 7.6 3-3.4 10.3 5.9 13 1.6.4 10.4.6 4.7 4.5s2 7.9 1.4 13.1c-.5 4.3-6.4 1.8-7.9 2.4-1.1.4-1.8 2.7-3.8 1.7-1.1-.6-3.5-1.7-4.4-2.4-1.6 4.8-.7 7.3-6.1 4.6-1.8-.9-11.7-5.3-12.2-4.1-2.1 4.8-3.8 2-5.3-.7-2.4-4.3-6-2.1-9.5-1.8-2.9 2.1-.5 8.1-5.6 4.3-.9 2.6-1.1 4.3-2.9 7-2.9 4.6-2.7 2.8-5.3-.2-1.2-1.4-3.4-.4-5.3-.2-3.1.3-4.7-1.3-7.1-2.8-3-2-4.8-2.2-4.8 2.3 0 3.5 4.3 8.3-3 9.1-3.2.4-.1 4.3-1.1 5.8-2.5 3.9.8 2.6 3 5.3 2.3 2.9.1 5.5-.7 8.1-2.7 2.7-.3 7.4.3 10.5 2.5 5.1-3.1 5.7-.6 11.3 1.6 3.6 2.2 8-2.1 9.6-1.7.6 1.7 4.4.3 6.7-1.5 2.5-6.4 4.5-9.2 3.7-4.5-1.3-7.8-4.7-12.6-4.7-4.3 0 1.2 12.7 1.5 14.2 1 4.1-2.7 5.7-6.3 4.5-1.3-.5-4-2.6-4-2.7-2-1.5-7.3.2-9.5.8-13.6 4.5-15.3 20.1-11.6 32.1 1.4 4.6-1.7 7.8-2.9 11.7-2.1 6.9-7.5-.5-7.5-4.5 0-6-9-12.4-14.5-12.1l-5.3.2h-.2c-1.1-3.4-9.3-4.3-12.4-3.4-6.2 0-.6-8.3.2-11.3 1.1-4 .9-7.7-4.3-7.7-.3 0-2.8.9-2.9.4-1.5 1.1-3.3-2.2-4.8 1.8-1.2 3-3.2 2-5.7 2-2.2 0-2.4.4-3.8 1.9l-3.8-1.9c-.5.8-1.5 1.3-3.3 1.3-3.9 0-4.5 6.1-5.5 9.1-1 2.7.7 8.7-2.8 9.9-4.8 1.6-4.6 4.9-10.6 4.9-3.5 0-3.5-2.5-8.2-1 .9 1.4 3.9 1 3.6 4-.4 3.8 2.8 4.9 3.6 9.2.7 3.6.2 7.3 1.7 10.8 2.4 5.4 3.9 8.4.3 13.3-1.7 2.3.2 4.1-.6 6.3-.6 1.8-3.9.9-5.1 2.9-.4.1-1.4 2.5-2.7 4.8h1459.5z" fill="#ce1126"/><g fill="#007a3d"><path d="m398.9 938.1-38.9-119.8 101.9-74h-126l-38.9-119.8-38.9 119.8h-126l101.9 74-34.6 106.5c1.4.5 2.7 1.2 3.3 2.2.9 1.5 2.7 2.1 4 2.7l90.3-65.6z"/><path d="m1155.1 938.1 101.9-74 101.9 74-38.9-119.8 101.8-74h-125.9l-38.9-119.8-38.9 119.8h-126l101.9 74z"/></g></svg>