<svg fill="none" height="153" viewBox="0 0 166 153" width="166" xmlns="http://www.w3.org/2000/svg"><path d="m83.0803 7.66998-66.26 40.83002" stroke="#584a4b" stroke-miterlimit="10" stroke-width="4.54"/><path d="m83.0781 7.66998 66.2799 40.83002" stroke="#584a4b" stroke-miterlimit="10" stroke-width="4.54"/><path d="m165.808 143.12c0 5.44-3.46 9.85-7.74 9.85h-149.92957c-4.27 0-7.739992-4.41-7.739992-9.85v-88.35c0-5.44 3.469992-9.85 7.739992-9.85h149.99957c4.28 0 7.74 4.41 7.74 9.85z" fill="#f49524"/><path d="m151.468 135.46c0 4.5-2.86 8.15-6.4 8.15h-123.9298c-3.54 0-6.3999-3.65-6.3999-8.15v-73c0-4.49 2.8599-8.14 6.3999-8.14h123.9998c3.54 0 6.4 3.65 6.4 8.14z" fill="#126d59"/><path d="m144.201 135.9c0 4.25-2.72 7.71-6.06 7.71h-117.3895c-3.35 0-6.0601-3.46-6.0601-7.71v-69.16c0-4.26 2.7101-7.71 6.0601-7.71h117.3895c3.34 0 6.06 3.45 6.06 7.71z" fill="#138971"/><path d="m90.2503 7.68001c0 1.41809-.4206 2.80429-1.2085 3.98339-.7878 1.1791-1.9076 2.0981-3.2177 2.6408-1.3102.5427-2.7518.6847-4.1426.408-1.3909-.2766-2.6684-.9595-3.6712-1.9622-1.0027-1.0028-1.6857-2.2804-1.9624-3.6712-.2766-1.39085-.1347-2.8325.408-4.14264.5427-1.31015 1.4618-2.42994 2.6409-3.21779 1.1791-.787851 2.5653-1.20836 3.9834-1.20836 1.9016 0 3.7254.7554 5.07 2.10004 1.3447 1.34463 2.1001 3.16836 2.1001 5.06996z" fill="#f8ac22"/><path d="m87.9099 7.67998c0 .95528-.2832 1.8891-.8139 2.68342-.5308.7943-1.2852 1.4133-2.1678 1.7789-.8825.3656-1.8536.4612-2.7905.2749-.9369-.1864-1.7976-.6464-2.4731-1.3219s-1.1354-1.53612-1.3218-2.47305c-.1864-.93692-.0907-1.90808.2749-2.79065.3656-.88256.9845-1.6369 1.7788-2.16763s1.7281-.81399 2.6834-.81399c1.281 0 2.5094.50887 3.4152 1.41467s1.4148 2.13433 1.4148 3.41533z" fill="#f59924"/><path d="m107.059 92.74c1.74 1.75 2.13 4.19.87 5.46s-3.72.88-5.46-.87-2.14-4.19-.87-5.46 3.71-.87 5.46.87z" fill="#fff"/><path d="m119.948 73.433-18.382 18.388 6.33 6.3275 18.382-18.388z" fill="#fff"/><g fill="#d4d4d4"><path d="m125.44 74.36c1.74 1.75 2.14 4.19.87 5.46s-3.71.87-5.46-.88-2.13-4.18-.87-5.45 3.71-.88 5.46.87z"/><path d="m107.499 98.97c.09.09.2-.17.24-.2-.21-.05-.27.26-.24.2z"/><path d="m105.419 98.47.09-.08-.4.11z"/><path d="m103.691 97.68c0 .49.68.18.91.49v.12l.3-.27c-.21-.06-.45-.1-.67-.15-.194-.0094-.382-.0754-.54-.19z"/><path d="m103.07 96.36c0 .2-.26.07.22.15v-.06z"/><path d="m103.261 96.45c.2.06-.08-.2 0 0z"/><path d="m102.299 96.25.31-.07c0-.12-.25-.21-.15-.26-.32 0-.27.12-.16.33z"/><path d="m101.961 96.55h.15c.03-.12-.04-.15-.15 0z"/><path d="m102.429 96.43-.32.05c0 .08.001.23.151 0-.07.07.019.01.169-.05z"/><path d="m102.578 96.55c.12.14.29.26 0 .33.49.08.56-.25 0-.33z"/><path d="m103.43 98.09.13.19.21-.08c-.1.04-.3-.25-.34-.11z"/><path d="m100.661 95.61v.4l.22-.06c-.04-.09-.23-.19-.22-.34z"/><path d="m100.701 96.01-.33.11c.26.07.32.01.33-.11z"/><path d="m101.771 96.98.57-.2-.65.18z"/><path d="m99.5016 95.4.2099-.2-.3599.3z"/><path d="m98.7207 95.36c.14-.18-.16-.34 0-.44-.2203.0358-.4235.1409-.5801.3.0999-.035.2077-.0403.3106-.0155.1028.0248.1965.0788.2695.1555z"/><path d="m97.8398 95.42c.1041-.0552.2015-.1223.2901-.2-.1097.0454-.2086.1136-.2901.2z"/><path d="m99.8696 95.98c-.0071-.0624-.0277-.1225-.0605-.1761-.0328-.0535-.077-.0993-.1294-.1339l.0801.29z"/><path d="m99.9112 95.98s-.02.04 0 0z"/><path d="m101.14 96.55c-.21.12-.59.21-.31.51.12-.16-.05-.33.31-.51z"/><path d="m99.9883 96.35.2997.12c0-.07 0-.19.07-.24z"/><path d="m99.8281 96.41.1701-.07-.12-.04z"/><path d="m98.3801 95.7c-.1371.0959-.303.1418-.4699.13.1716.0699.3547.1072.54.11.03-.08.1299-.24-.0701-.24z"/><path d="m98.4793 95.99c.13.08.2098 0 .2998-.06-.1095.0152-.2204.0152-.3298 0 0 0-.02.08.03.06z"/><path d="m97.3711 95.55c.0709.0612.1479.1149.23.16-.07-.11-.2-.25-.23-.16z"/><path d="m98.9686 95.78c-.02-.07-.01-.04 0 0z"/><path d="m98.9714 95.78c-.0698.0412-.1339.0917-.1902.15.0823-.0093.163-.0295.24-.06-.0187-.0287-.0352-.0588-.0498-.09z"/><path d="m95.8389 97.6c.0017-.0711.0245-.1401.0654-.1983.0409-.0581.0982-.1029.1645-.1286.0664-.0256.1389-.0311.2083-.0156.0694.0154.1327.0511.1819.1025.28-.19.0998-1-.1802-1.5 0 .11.0002.22-.3098.37.12.14.6899.32.4399.56-.4.14-.33-.09-.52-.22.16.31-.4901.48-.3701.95l.1601-.09.17-.09c0 .07-.11.21-.01.26z"/><path d="m96.8792 95.87h.1201c-.1739-.0729-.3257-.1902-.4402-.34-.22.13-.26.23-.27.31h.6301z"/><path d="m97.5703 95.86c-.1.28-.41.38-.23.69.36 0 .26-.22.49-.33-.6 0 .18-.15-.25-.33.1073-.0327.2181-.0529.3301-.06-.1077-.0364-.2116-.0833-.3101-.14 0 0 0 .05 0 0 .004.0332.004.0668 0 .1-.17-.07 0-.08 0-.1s0 0 0 0l-.6198.13c.1925.0496.3924.0632.5898.04z"/><path d="m100.359 97.55c-.004-.0232-.004-.0469 0-.07 0 0-.07.07 0 .07z"/><path d="m100.142 97.37c.05 0 .1-.13.23-.07s0 .13 0 .22.32-.14.1-.32c-.21-.14-.46-.55-.4-.58-.023.2522.001.5063.07.75z"/><path d="m98.8906 96.64-.5.09.22.26v-.14c.27.08.23-.1.28-.21z"/><path d="m96.2004 95.67.0601-.3-.28.42z"/><path d="m95.5507 95.72.01-.26-.1701.17z"/><path d="m62.8616 94.45-.0999.09c.0437-.0159.0794-.0482.0999-.09z"/><path d="m63.6791 94.39v-.13c-.02.07-.03.12 0 .13z"/><path d="m80.8687 97.67c-.15-.26-.2901-.65-.3101-.36v.28c.0532-.0232.1128-.0279.1689-.0134.0562.0145.1058.0474.1412.0934z"/><path d="m71.3281 95.32v.11l.26-.17z"/><path d="m70.6282 96.27-.1399-.29c.0307.1036.0778.2015.1399.29z"/><path d="m58.5508 96.55v.33c.21-.1.05-.17 0-.33z"/><path d="m89.1396 96.7c-.144-.066-.3016-.0969-.4599-.09.23.12.4599.32.4599.09z"/><path d="m62.8518 91.43c-.09.07-.1298.13-.1198.2s.1398-.08.1198-.2z"/><path d="m88.1406 96.7c.0366.0037.0736.0037.1101 0 .1161-.0789.2502-.1271.3899-.14-.14-.01-.34-.08-.5.14z"/><path d="m38.8683 95.83s0 0 0-.06-.02.04 0 .06z"/><path d="m37.7305 89.44c.0503.0546.0939.115.1299.18 0 0-.0299-.07-.1299-.18z"/><path d="m93.7297 96.87c-.0324.0394-.0501.0889-.05.14.0007-.0509.0183-.1002.05-.14z"/><path d="m87.2188 98.66s.0399.04 0 0z"/><path d="m93.1409 95.95c-.0561-.0303-.1169-.0506-.18-.06.0565.0294.1172.0497.18.06z"/><path d="m93.1406 95.82h.1299c-.02-.04-.0399-.06-.1299 0z"/><path d="m92.7617 95.88c.0726-.0148.1474-.0148.22 0z"/><path d="m49.4695 99.81c-.17.11-.11.08 0 0z"/><path d="m76.4414 99.77c.34-.25.4301-.16.5501 0l.1398-.82-.34.42c-.17.18-.3499.4-.3499.4z"/><path d="m60.9314 95.09.3599.13c-.16.52-.4198.46-.0498.7-.15-.41.0798-.53.3298-.65s.4801-.19.3701-.62l.23.13c-.06 0-.0501.06-.0901.06.43.33.0801-.72.5801-.66.17 0 .2899.15.1999.27l.3201-.27c.0212 0 .0416.0084.0566.0234s.0235.0354.0235.0566-.0085.0416-.0235.0566-.0354.0234-.0566.0234c.0806-.0322.1644-.0556.25-.07h.27c.0912-.163.2018-.3141.3298-.45.15.12-.0699.09 0 .2l.3101-.21c.11.22-.1498.45-.3498.42.25.89.2698-.26.8098.34l-.2801.07c.12.53.3401.38.5601.71 0-.16-.4599-.85-.1299-1 .08.08.1899.12.3899 0-.05.3.1201.25.3601.3l-.1101.4c.26-.06.29-.27.48-.41.26.11.23.43.2099.7.4.17-.1398-.57.3702-.51.31.27.5998.2 1.1198.11.19.23-.1398.22-.0898.36l.3301-.21v.16c.23 0 .17-.38.5-.36.28-.38.3299.85.8899.57 0 .15-.15.21-.19.37.3854-.0097.7667-.0806 1.1299-.21l.21.42c-.1-.4.4001-.55.8401-.66 0-.18-.0001-.34-.0501-.42l.5601.06c0 .1-.09.19-.25.3h.1298c.0801.23-.1198.38-.3498.52 0-.1 0-.21 0-.31-.2404.1273-.4385.3219-.5701.56.0651-.0207.1349-.0207.2 0-.06.05-.1099.09-.1199.14s.08 0 .21-.07l-.1302.47.1202-.15.4299.59c.6689-.2938 1.407-.3943 2.1301-.29-.34.19-.31.46-.53.8 0-.48-.6099-.16-.9099-.44.0245.0218.0429.0495.0534.0805.0106.031.0129.0642.0069.0964-.0061.0322-.0204.0623-.0415.0874s-.0482.0443-.0789.0557h.8101c-.18.28-.0002.3.0998.51.21-.63.6901-.1 1.0501-.12-.1.2-.2701.35-.5501.13.09.62.82-.4 1 .15-.08 0-.1099-.1-.1999 0 .28-.07.6499.31.4699.42h-.09c.48.36 1.6602.83 1.9502.33-.119.2348-.2528.4619-.4002.68 0 0 .4401-.33.8501-.66s.8001-.69.8001-.68c-.25.41-.2701 1.6-.8501 1.67.0735.0887.1713.154.2815.188.1101.034.228.034.3386.002-.07-.1-.0001-.72.1299-.72.19.61.1499.34.4799.91-.12-.15.24-.8.45-.73-.07.1-.16.72-.26.77l.3801-.29.3699-.29c-.17.09-.1598.59-.0698.82 0-.15.5099.13.6899.08l-.22-.21c.66.21.7899-.94 1.3999-.83-.08.14-.2599.9.0701 1 .2-.36.74-1.8 1.22-2.08l.1101.21c.0681-.0359.1318-.0795.1899-.13l.19-.14c-.1523.4073-.3432.7991-.5701 1.17-.2266.382-.495.737-.8001 1.06.25.17.0702.26.4502.24.15.2-.21.3-.33.31l.9299.13c-.05-.42.6701-.48.6001-.85 0 0-.22.14-.46.27l-.48.23c.0232-.297.1433-.579.3421-.801.1987-.2222.465-.3729.7578-.429.17.16 0 .79 0 .93.07-.15.5501-.34.6201-.24l-.23.26c.36.12.5-.62.94-.28.13 0 .4899.49.4699.23-.3405-.7396-.5113-1.5459-.5-2.36.3373.1533.656.3445.95.57.29.35-.1699 1 .0801 1.27.0028-.12.0449-.2361.1198-.33.16.07.0001.37.3001.27 0-.45.6201-.08.0801-.4.27-.17.3299 0 .6699 0-.16-.26.1402-1 .4102-1.18.0166.1096.0613.2129.1298.3.61-.07 1.0001.07 1.5201 0 .08.1.37.18.29.39.07-.1.12-.26.28-.3.41.32-.37.13 0 .54 0-.26.3799-.44.5899-.64-.14-.37-.5798 0-.7898.23-.0311-.3019.0247-.6064.1611-.8776.1365-.2711.3477-.4975.6086-.6524.4301-.22.2601.31.3201.22.9-.06.5902-1.08 1.4002-.8.35.29.1199.67.2199.91-.35.19-.6201-.12-.8701-.06l.3401.11c-.1.13-.34.26-.49.19.29.25 1.49-.19 2.2 0 .11-.13.2999-.27.1899-.4l-.22.07c-.23-.25.3601-.43.0701-.53.27-.23.56-.58 1-.47l.1099.38c-.0186-.0333-.0445-.0618-.0757-.0835-.0313-.0218-.0669-.0361-.1045-.0418-.0376-.0058-.0762-.003-.1126.0084-.0363.0113-.0695.0308-.0971.0569.16-.2.68.46.82-.07l-.31-.25c.28-.22.62-.67 1-.58-.2-.37-.0801.05-.3902-.38.28.55-.9997.05-.5397.62-.34-.51-.5002-.17-.9102-.59 0 .13.1501.24-.1699.21v.13c.0742.0438.1361.1057.1799.18-.12.32-.61.37-.76.55-.19 0 .0599-.16-.0601-.29l-.2099.27c-.07-.28-.5599-.4-.1599-.64l-.3802.05c-.1155-.0667-.2464-.1018-.3798-.1018-.1335 0-.2644.0351-.3799.1018-.19 0-.4001.4-.2801.14l-.58.29v-.07c-.61.06-1.1199.69-1.8899.3-.2049.1507-.4563.225-.7102.21l-.1099-.23c-.24.13-.8001-.11-.8601.17-.39-.62-1.2299.07-1.6799 0v.33c-.3272.0591-.6396.1814-.92.36l.0699.28c-.3.3-.8198-.12-1.2898 0 0-.11.15-.1.24 0-.32-.3-.5902-.13-.8702 0s-.58.31-.82.07c-.13.12-.2298 0-.3098 0 0 0-.0001 0-.0501 0-.0481-.0614-.1018-.1183-.1601-.17.0391.0597.0827.1166.1301.17-.1336-.0063-.2671.0176-.3902.07v-.32c-.1199-.13-.1298.13-.0798.38-.0832.0382-.158.0926-.22.16 0-.5-.4099.11-.4699-.45-.15.23-.75.05-1 .55 0-.07-.0002-.12.0598-.09-.15-.11-.29-.22-.49-.12l.0601-.4-.2601.2-.26.2c-.14-.3-.1698-.48.1402-.68-.66.24-.4601 0-1.0701.27l.1299-.23c-.16-.05-.5501.15-.5501-.09-.13-.59-1.62-.9-2.25-1.81-.22.75-.2198-.53-.5498-.05 0-.18 0-.34.19-.39-.53-.11-.5101-.64-1.0801-.4 0-.18.23-.17.24-.28s-.22.05-.22-.08.15-.08.26-.11c-.48-.25-.8098.2-1.0998.63-.11-.35-.2401-.38-.5901-.19 0-.19 0-.42.28-.31-.15-.11-.8901-.78-1.1101-.42 0-.11-.23-.14-.29-.12-.2451-.1667-.5104-.3012-.7898-.4l.0898.1c-.37.39-.3699 0-.7099-.11-.58-.64-.36 0-.94-.62l-.0701.3c-.28.63-.5-.61-1-.47l.1102.21c-.28.17-.4202-1.05-.6702-1.19 0-.07.1099-.07.2099-.09-.5799-.55-.1899.36-.6999.35 0-.23.2501-.53-.1099-.62-.08-.1-.3802 0-.6902.14-.3099.14-.6498.19-.8898 0 .1.17.1899.34-.0501.46s-1.0001-.64-1.3201 0c-.0224-.0102-.0422-.0254-.0578-.0445-.0156-.019-.0265-.0415-.032-.0655-.25.18-.87.34-1 .69-.23-.49-.63-.24-1 0s-.58.54-.76.08c0 0-.76.36-.75.37v-.1c-.1715.0429-.3246.1401-.4363.2771-.1117.1369-.1762.3063-.1838.4829-.13 0-.0999-.13-.1099-.18-.76.18-.8101.26-1.0901 1l-.22-.24c0 .24-1.17.13-1.56.82-.0131-.0246-.02-.0521-.02-.08s.0069-.0554.02-.08c-.48.75-2.0499.23-1.6799 1.36l-.2901.51c.61-.25.17.49.5.52-.19.2-.76 0-.51-.18h.0701c-.19-.58-.82.2-1-.18-1.0541.4907-2.19.7823-3.3501.86l.2002.44h-.3902c-.11-.11-.1799-.36.0901-.37-.18-.25-.4101.27-.4201.37-.53-.14.16-.57 0-.56h-.2v.05c-.16.2-.17.44-.49.41s-.0999-.3-.1899-.32-.0001-.05-.1101 0l-.46-.06.1602.39c-.23.19-.4501-.08-.2801.38-.13-.36-.56-.45-1-.57l-.57-.15c-.1247-.02-.2383-.0838-.3201-.18-.1676.0621-.3485.0781-.5244.0465-.1759-.0317-.3402-.1099-.4756-.2265 0 .1-.0899.51-.3699.3.26-.35.16-.51 0-.65-.0958-.0767-.1702-.1768-.2158-.2907-.0456-.114-.0607-.2377-.0442-.3593 0 .24-.2202.13-.4202.06-.1999-.07-.3999-.16-.4299.2-.18-.23.1801-.27.1301-.57-.1756-.0421-.3405-.1209-.4836-.2312s-.2611-.2496-.3464-.4088c-.2139-.3373-.4692-.6464-.76-.92-.1.07-.1202.29-.3702.28 0 0 0-.17 0-.35s.0701-.35.0701-.35c-.15-.09-.59.33-.5-.16 0 .09-.11.24-.21.18-.3873-.7539-.8862-1.4451-1.4799-2.05-.6023-.6514-.9563-1.4939-1-2.38-.06.3-.1601.19-.2701 0 0 .13-.2301.15-.3501.25v-.84c-.0605.0188-.1254.0173-.185-.0044s-.1105-.0623-.1448-.1156v.33c-.0785.0217-.1614.0217-.24 0h-.1201v.07c-.0143-.0388-.0385-.0733-.0701-.1-.0983-.0542-.2076-.085-.3198-.09-.28 0-.49.21-.73.38l.0598.15c-.0738.075-.158.1389-.25.19.6601 0-.2199 1.22.7701 1.28 0 .18-.2298 0-.3098.16.3 0 .44.09.51.43h-.0701c.4095.6822.7448 1.4063 1 2.16l.1999-.25c.0695.1356.0907.2908.0601.44.53-.08-.3601-.52.1899-.65-.33.63 1.0001 1.26.5601 1.87.22.27.1999-.31.4299 0l-.08.19.25-.09c.0422.0924.0554.1955.0376.2956-.0179.1-.0659.1923-.1375.2644 0 0-.1399-.09-.1899-.13 0 .38.6399.59.6699.71l-.1599-.33c.8.58 1.5298 1.6 2.5598 1.85v-.16c.74.2.3901.46 1.1401.79.1047-.0266.2137-.0315.3203-.0143.1067.0172.2086.0561.2996.1143-.25.05.2001.47-.1299.51.85.12.4799 0 1.1599-.31v.27c.0914-.0812.2005-.1398.3186-.171.1181-.0313.2418-.0344.3614-.009-.38.11.1402.42-.2998.58.1228.137.2813.238.4577.291.1765.053.3641.056.5423.009.29-.06.4898-.1.6398.32.48-.6-.6899-.48-.4399-.59-.13-.24.4099-.44.6399-.34s.2101.27.3501.49c.0728.128.177.236.303.313.1259.077.2695.121.417.127-.07 0-.0799.05-.1499 0 .28.17.5298-.2.8598 0 .16-.42.43 0 .43-.54l-.6199.18c.36-.17.6199-.78 1.2099-.57-.0559.1449-.1533.2701-.28.36.19.14.3-.14.5 0 .05.54-.7298.21-1.0998.63.22.21.7198-.43.5798.14.19-.72.7301 0 1.0801-.66v.31c.07-.07.19-.24.32-.26l-.1501.44c.31-.4.8201.08 1.1301-.22-.74.26-.2801-.3-.6601-.4.38-.35.56-.2.79 0 .1202.129.2842.208.4597.223.1756.015.3502-.036.4903-.143-.12.1-.57 0-.42-.17.2254-.0429.4583-.0185.67.07.61-.35-.23-.25 0-.54.38.25.2501-.27.4401-.51l.1499.27c.77-.18-.1299-.67.5801-.77v.51l.26-.26.1099.34c.2-.42.33-.42.71-.52-.0538-.04-.0974-.0921-.1275-.152s-.0459-.126-.0459-.193.0158-.1332.0459-.1931.0737-.1119.1275-.1519c.29 0 .0601.32.4201 0 0 .22 0 .49-.28.34 0 .11 0 .22.05.33.33 0 .54-.28.68-.37-.0613.023-.1287.023-.19 0l.3299-.71c.15 0 .1301.16.1101.29.1-.11.1-.28.25-.4.09.24.24.45.07.7l.3799-.57c.09.08.4199.09.4099.22.36-.07.4302-.86.9102-.92-.0001-.0727.0247-.1432.0701-.2.38-.16.8398-.05 1.0798-.59l.4399.28c.27-.24-.5798-.35-.1098-.77s.31.28.49.33c.08-.31.2499-.86.7299-.66.01.01-.0999-.02-.1999.05zm4-.78c-.09.05-.2601.24-.3001 0 .11-.3.1701-.12.2801 0zm6.73 1.9c-.11.05-.18 0-.22-.22.0471.0203.0893.0504.1238.0884.0345.0379.0604.0828.0762.1316zm19.8799.1c-.26-.08-.1701-.04-.0201 0zm.4799.06c.0125-.0194.0193-.042.0193-.065 0-.0231-.0068-.0456-.0193-.065 0 .08-.13.1-.25.1.03.08.0903.12.2303.03zm-44 1.41.0801.09c-.19.08-.1498 0-.0998-.09z"/><path d="m70.7116 96.16c-.0144-.0558-.0144-.1143 0-.17-.01.03-.04.08 0 .17z"/><path d="m85.7117 100.19c-.0411-.009-.0802-.025-.1145-.049-.0344-.025-.0634-.055-.0855-.091 0 .08.06.14.2.14z"/><path d="m94.3391 95.55-.3.1c.0496-.0082.1007-.0053.1491.0085.0485.0138.0931.0382.1309.0715-.01-.07-.08-.18.02-.18z"/><path d="m96.9485 97.36h.1198v-.15c-.18-.03-.2998.1-.1198.15z"/><path d="m94.6914 96.55c0 .26.2199.16.4199.1.03-.36-.2099-.22-.4199-.1z"/><path d="m95.1406 96.65h.18c.04-.17-.06-.05-.18 0z"/><path d="m92.5304 96.12c.11.05.0001-.35.0801-.25.07-.32-.5801.5-.0801.25z"/><path d="m94.9301 97.41-.0901-.32-.09.27z"/><path d="m93.3489 97.34h.3201c0-.05.0001-.08.0801-.12-.2.06-.4202.02-.4002.12z"/><path d="m93.75 97.26c.0434.0043.0871-.0006.1284-.0144.0414-.0138.0795-.0361.1116-.0656-.0836.0145-.1644.0415-.24.08z"/><path d="m94.5096 97.54-.0999-.06h-.23z"/><path d="m89.9802 97.8-.32.15c0 .12.0899.17.1999.1s.1901-.15.1201-.25z"/><path d="m91.1392 98.55c-.11 0-.13-.12-.19-.22l.0501.4z"/><path d="m90.1916 98.76c0 .12-.44.4 0 .3 0-.12.32-.26 0-.3z"/><path d="m84.9988 99.18.0799-.02-.1099-.65z"/><path d="m80.2302 100.98c.44.21.1398-.39.5398-.15.12-.15-.32-.2-.2-.32-.29.14-.4298.04-.3398.47z"/><path d="m80.5703 100.55c.053-.025.1034-.055.1502-.09-.0544.022-.1051.052-.1502.09z"/><path d="m37.0117 89.55.1199.07.1699.08c.13.11.0001-.08.0501-.06h-.0701z"/><path d="m65.3513 95.23v-.09c-.0021-.0428-.0192-.0833-.0486-.1145-.0293-.0311-.0688-.0508-.1113-.0555z"/><path d="m62.6804 94.89h.0499l-.16-.36z"/><path d="m60.5593 96.16c.09 0 .17-.16.27-.2-.17.17-.5-.21-.27.2z"/></g></svg>