<svg fill="none" height="50" viewBox="0 0 68 50" width="68" xmlns="http://www.w3.org/2000/svg"><path d="m37.6092 3.17001h-7.22-29.439981v46.03999h29.439981 7.22 29.44v-46.03999z" fill="#118995"/><path d="m63.44 44.93c-9.4721-3.66-19.9679-3.66-29.44 0v-41.75999c9.4721-3.66003 19.9679-3.66003 29.44 0z" fill="#ecf9fb"/><g fill="#fdc00f"><path d="m59.1511 6.52h-.15c-6.7371-1.78493-13.8229-1.78493-20.56 0-.1473.01974-.2966-.01489-.4201-.09744s-.2126-.20731-.2506-.35089c-.0381-.14358-.0225-.29612.044-.42899.0664-.13286.179-.23691.3167-.29266 6.9407-1.8351 14.2392-1.8351 21.18 0 .0759.0197.1471.05433.2094.10187.0624.04753.1147.10702.1538.17499.0391.06796.0642.14305.074.22085.0097.07781.0039.15675-.0172.23227-.0351.12678-.1109.23852-.2157.31802-.1048.07951-.2328.12236-.3643.12198z"/><path d="m59.1493 11.3h-.15c-6.7378-1.7799-13.8222-1.7799-20.56 0-.0762.021-.1558.0264-.2342.016-.0783-.0104-.1537-.0364-.2218-.0765s-.1274-.0935-.1745-.157c-.0471-.0634-.0809-.1357-.0995-.2125-.0211-.0755-.027-.1545-.0172-.2323.0097-.0778.0349-.1529.074-.2208.0391-.068.0914-.1275.1537-.1751.0624-.0475.1336-.0821.2095-.1018 6.9414-1.83006 14.2386-1.83006 21.18 0 .0759.0197.1471.0543.2095.1018.0623.0476.1146.1071.1537.1751.0391.0679.0643.143.074.2208.0098.0778.0039.1568-.0172.2323-.0369.1249-.1134.2344-.2181.312-.1046.0776-.2317.119-.3619.118z"/><path d="m59.1496 16.08c-.0496.0097-.1005.0097-.15 0-6.7378-1.7799-13.8223-1.7799-20.56 0-.0756.0211-.1545.027-.2323.0172-.0778-.0097-.1529-.0349-.2209-.074s-.1274-.0914-.175-.1537c-.0475-.0624-.0822-.1336-.1019-.2095-.0212-.0762-.0272-.1558-.0175-.2343.0096-.0785.0347-.1543.0737-.223.039-.0688.0913-.1292.1537-.1777.0625-.0485.1339-.0842.2102-.105 6.9414-1.8301 14.2386-1.8301 21.18 0 .0762.0208.1477.0565.2101.105s.1147.1089.1537.1777c.039.0687.0641.1445.0737.223.0097.0785.0037.1581-.0175.2343-.0373.1239-.1142.2322-.219.308-.1048.0759-.2317.1153-.361.112z"/><path d="m59.1493 20.87h-.15c-6.7378-1.7799-13.8222-1.7799-20.56 0-.1538.0395-.317.0164-.4539-.0642-.1368-.0806-.2361-.2121-.2761-.3658-.0211-.0755-.027-.1545-.0172-.2323.0097-.0778.0349-.1529.074-.2209.0391-.0679.0914-.1274.1537-.175.0624-.0475.1336-.0821.2095-.1018 6.9401-1.8402 14.2399-1.8402 21.18 0 .0759.0197.1471.0543.2095.1018.0623.0476.1146.1071.1537.175.0391.068.0643.1431.074.2209.0098.0778.0039.1568-.0172.2323-.0369.1249-.1134.2344-.2181.312-.1046.0776-.2317.119-.3619.118z"/><path d="m38.28 25.65c-.1454-.0009-.2856-.0545-.3944-.1509-.1088-.0965-.1789-.2292-.1972-.3734-.0184-.1443.0163-.2903.0975-.4109.0813-.1206.2035-.2076.3441-.2448 6.9414-1.8301 14.2386-1.8301 21.18 0 .1538.0411.285.1416.3647.2795.0797.1378.1014.3017.0603.4555s-.1417.285-.2795.3647-.3017.1014-.4555.0603c-6.7378-1.7799-13.8222-1.7799-20.56 0z"/><path d="m38.2796 30.43c-.1303-.0001-.2568-.0434-.3599-.123s-.177-.191-.2102-.317c-.0212-.0762-.0272-.1558-.0175-.2343.0096-.0784.0347-.1542.0737-.223s.0913-.1292.1537-.1777c.0625-.0485.1339-.0842.2102-.105 6.9414-1.8301 14.2386-1.8301 21.18 0 .0762.0208.1477.0565.2101.105s.1147.1089.1537.1777.0641.1446.0737.223c.0097.0785.0037.1581-.0175.2343-.0197.0759-.0544.1471-.1019.2095-.0475.0623-.107.1146-.175.1537s-.143.0643-.2208.074c-.0778.0098-.1568.0039-.2323-.0172-6.7378-1.7799-13.8223-1.7799-20.56 0-.0517.0165-.1059.0232-.16.02z"/><path d="m59.1493 35.22h-.15c-6.7378-1.7799-13.8222-1.7799-20.56 0-.0762.021-.1558.0264-.2342.016-.0783-.0104-.1537-.0364-.2218-.0765s-.1274-.0935-.1745-.1569c-.0471-.0635-.0809-.1358-.0995-.2126-.0211-.0755-.027-.1545-.0172-.2323.0097-.0778.0349-.1529.074-.2208.0391-.068.0914-.1275.1537-.175.0624-.0476.1336-.0822.2095-.1019 6.9414-1.8301 14.2386-1.8301 21.18 0 .0759.0197.1471.0543.2095.1019.0623.0475.1146.107.1537.175.0391.0679.0643.143.074.2208.0098.0778.0039.1568-.0172.2323-.0369.1249-.1134.2344-.2181.312-.1046.0776-.2317.119-.3619.118z"/><path d="m38.2796 40c-.1303-.0001-.2568-.0434-.3599-.123-.1031-.0795-.177-.191-.2102-.317-.0212-.0762-.0272-.1558-.0175-.2343.0096-.0784.0347-.1543.0737-.223.039-.0688.0913-.1292.1537-.1777.0625-.0485.1339-.0842.2102-.105 6.9414-1.8301 14.2386-1.8301 21.18 0 .1564.0411.2902.1427.3718.2824.0815.1397.1043.3061.0632.4626-.0412.1565-.1427.2902-.2825.3718-.1397.0816-.3061.1043-.4625.0632-6.7378-1.7799-13.8223-1.7799-20.56 0-.0529.0098-.1072.0098-.16 0z"/></g><path d="m33.9986 44.93c-9.4721-3.66-19.9679-3.66-29.44001 0v-41.75999c9.47211-3.66003 19.96791-3.66003 29.44001 0z" fill="#ecf9fb"/><path d="m29.7191 6.51999h-.16c-6.7371-1.78492-13.8229-1.78492-20.55996 0-.15382.03953-.31702.01649-.45386-.06411-.13684-.08061-.23614-.21219-.27614-.36588-.03979-.1551-.01702-.31962.06343-.45807.08045-.13844.21211-.23969.36656-.28192 6.93737-1.83517 14.23267-1.83517 21.16997 0 .1537.04.2853.13929.3659.27612.0806.13684.1037.30005.0641.45386-.0379.12513-.1144.23509-.2186.31412-.1041.07902-.2306.12307-.3614.12588z" fill="#fdc00f"/><path d="m8.85033 11.3c-.14541-.0009-.28556-.0545-.39438-.151-.10882-.0964-.17892-.2291-.19725-.3733-.01834-.1443.01633-.2903.09756-.4109s.20349-.2076.34406-.2448c6.93798-1.83016 14.23198-1.83016 21.16998 0 .1537.04.2853.1393.3659.2761.0806.1369.1036.3001.0641.4539-.0422.1544-.1435.2861-.2819.3665-.1385.0805-.303.1033-.4581.0635-6.7378-1.7799-13.8222-1.7799-20.55998 0z" fill="#fdc00f"/><path d="m29.7191 16.08c-.0528.0098-.1071.0098-.16 0-6.7377-1.7799-13.8222-1.7799-20.55996 0-.07552.0211-.15448.027-.23229.0172-.0778-.0097-.15289-.0349-.22085-.074-.06797-.0391-.12747-.0914-.17501-.1537-.04753-.0624-.08215-.1336-.10185-.2095-.03979-.1551-.01702-.3196.06343-.4581.08045-.1384.21211-.2397.36656-.2819 6.93797-1.8301 14.23197-1.8301 21.16997 0 .1531.0444.2831.1461.3632.2839s.104.3011.0668.4561c-.04.1222-.1177.2286-.2218.304-.1042.0755-.2296.116-.3582.116z" fill="#fdc00f"/><path d="m8.85033 20.87c-.14541-.0009-.28556-.0545-.39438-.1509-.10882-.0965-.17892-.2292-.19725-.3734-.01834-.1443.01633-.2903.09756-.4109s.20349-.2076.34406-.2448c6.93678-1.8398 14.23328-1.8398 21.16998 0 .1537.04.2853.1393.3659.2761.0806.1369.1036.3001.0641.4539-.0444.1531-.1461.2831-.2839.3632-.1378.08-.3011.104-.4561.0668-6.7378-1.7799-13.8222-1.7799-20.55998 0z" fill="#fdc00f"/><path d="m29.7215 25.65h-.1601c-6.7377-1.7799-13.8222-1.7799-20.55995 0-.15382.0411-.31768.0194-.45552-.0603s-.23837-.2109-.27948-.3647-.01943-.3177.06027-.4555c.07971-.1379.21091-.2384.36473-.2795 6.94145-1.8301 14.23855-1.8301 21.17995 0 .1523.0423.2823.142.3625.2782.0802.1361.1044.2981.0675.4518-.0396.1233-.1169.231-.2209.3081-.104.0772-.2296.1198-.359.1219z" fill="#fdc00f"/><path d="m8.84914 30.43c-.13196.0021-.26082-.0401-.36596-.1199-.10515-.0798-.1805-.1925-.21404-.3201-.03979-.1551-.01702-.3196.06343-.4581.08045-.1384.21211-.2397.36656-.2819 6.93797-1.8302 14.23197-1.8302 21.16997 0 .1531.0444.2831.1461.3632.2839s.104.3011.0668.4561c-.0208.0763-.0565.1477-.105.2101-.0485.0625-.1089.1147-.1776.1537-.0688.0391-.1446.0641-.2231.0738-.0785.0096-.1581.0036-.2343-.0176-6.7377-1.7799-13.8222-1.7799-20.55996 0-.04822.0164-.09917.0232-.15.02z" fill="#fdc00f"/><path d="m8.85033 35.22c-.14541-.0009-.28556-.0545-.39438-.151-.10882-.0964-.17892-.2291-.19725-.3733-.01834-.1443.01633-.2903.09756-.4109s.20349-.2076.34406-.2448c6.93798-1.8301 14.23198-1.8301 21.16998 0 .1537.04.2853.1393.3659.2761.0806.1369.1036.3001.0641.4539-.0422.1544-.1435.2861-.2819.3666-.1385.0804-.303.1032-.4581.0634-6.7378-1.7799-13.8222-1.7799-20.55998 0z" fill="#fdc00f"/><path d="m8.84914 40c-.13196.0021-.26082-.0401-.36596-.1199-.10515-.0798-.1805-.1925-.21404-.3201-.03979-.1551-.01702-.3196.06343-.4581.08045-.1384.21211-.2397.36656-.2819 6.93797-1.8301 14.23197-1.8301 21.16997 0 .0762.0203.1476.0555.2102.1034.0626.048.1151.1078.1545.1761.0395.0682.0652.1436.0755.2217.0104.0782.0052.1576-.0152.2338-.0203.0761-.0555.1476-.1034.2102-.048.0625-.1078.1151-.176.1545-.0683.0395-.1436.0651-.2218.0755-.0782.0103-.1576.0052-.2338-.0152-6.7395-1.7733-13.8239-1.7665-20.55996.02-.04953.0097-.10047.0097-.15 0z" fill="#fdc00f"/><path d="m4.55859 44.93h29.44001c-9.4721-3.66-19.9679-3.66-29.44001 0z" fill="#a2e2e8"/><path d="m34 44.93h29.44c-9.4721-3.66-19.9679-3.66-29.44 0z" fill="#a2e2e8"/><path d="m63.4386 3.17001v41.75999h-58.88001l2 2h58.88001v-41.75999z" fill="#000" opacity=".2"/><path d="m33.9995 44.93s0-.66-.1-1.8-.14-2.77-.18-4.73-.13-4.24-.16-6.69-.05-5-.06-7.66 0-5.22.06-7.67.11-4.73.16-6.67999c.05-1.95.14-3.59001.18-4.73001s.1-1.79999.1-1.79999 0 .64999.1 1.79999.14 2.77001.18 4.73001c.04 1.95999.13 4.23999.16 6.67999s.05 5.06.06 7.67 0 5.22-.06 7.66-.12 4.74-.16 6.69-.14 3.59-.18 4.73-.1 1.8-.1 1.8z" fill="#000" opacity=".2"/></svg>