<svg fill="none" height="51" viewBox="0 0 57 51" width="57" xmlns="http://www.w3.org/2000/svg"><g clip-rule="evenodd" fill-rule="evenodd"><path d="m12.2289 35.36v-15.47h-6.34999v21.8c0 2.06 1.12998 3.73 2.54998 3.73h.28003c.1417-1.0455.39993-2.0719.76996-3.06l.26001-.7c.82001-2.11 1.64001-4.21 2.49001-6.3z" fill="#97e0e7"/><path d="m3.57092 5.63995h10.99998v27.27995c.36-.82.72-1.64 1.1-2.44l.52-1.0799v-23.84006h1.23v-4.880008h-16.709962v4.880008h1.289982v35.43996c-.02851 2.1256.56969 4.2124 1.71997 6 .42681.7241 1.02473 1.3324 1.74127 1.7718.71654.4393 1.52988.6963 2.36877.7483h.89997c-.10365-.7822-.14712-1.5713-.13001-2.3601h-.76996c-.60869-.0336-1.20003-.215-1.72278-.5287-.52274-.3136-.96114-.75-1.27722-1.2713-.8309-1.304-1.25879-2.824-1.23004-4.37z" fill="#fff"/><path d="m44.9402 44.7999c-.1844.002-.3652-.0508-.5194-.1518-.1543-.101-.275-.2455-.3469-.4153-.072-.1697-.0918-.357-.057-.5381.0347-.181.1225-.3477.2522-.4787.1296-.1311.2953-.2207.476-.2574.1806-.0367.3681-.0188.5387.0512.1705.0701.3163.1893.419.3424.1026.1532.1574.3334.1574.5177.0013.1217-.0215.2424-.0672.3552-.0456.1128-.1131.2154-.1987.3019-.0855.0865-.1875.1551-.2997.202-.1123.0468-.2327.0709-.3544.0709zm-6.3-1.7199c-.3978 0-.7794-.1581-1.0607-.4394s-.4393-.6628-.4393-1.0606c0-.3979.158-.7794.4393-1.0607s.6629-.4393 1.0607-.4393.7794.158 1.0607.4393.4393.6628.4393 1.0607c0 .3978-.158.7793-.4393 1.0606s-.6629.4394-1.0607.4394zm-4.58 2.23c-.2652 0-.5196-.1054-.7071-.293-.1875-.1875-.2929-.4418-.2929-.707 0-.2653.1054-.5196.2929-.7071.1875-.1876.4419-.2929.7071-.2929s.5196.1053.7071.2929c.1875.1875.2929.4418.2929.7071 0 .2652-.1054.5195-.2929.707-.1875.1876-.4419.293-.7071.293zm-1.44-5.73c-.0578 0-.115-.0114-.1684-.0335s-.1018-.0546-.1427-.0954c-.0409-.0409-.0733-.0894-.0954-.1427-.0221-.0534-.0335-.1107-.0335-.1684 0-.1167.0464-.2287.1289-.3112s.1944-.1288.3111-.1288.2286.0463.3111.1288c.0826.0825.1289.1945.1289.3112s-.0463.2285-.1289.3111c-.0825.0825-.1944.1289-.3111.1289zm-4.19 2.57c-.1077 0-.2143-.0213-.3138-.0625s-.1899-.1016-.266-.1777c-.0762-.0761-.1366-.1666-.1778-.266-.0412-.0995-.0624-.2061-.0624-.3138.0051-.2159.0931-.4216.2458-.5742.1527-.1527.3583-.2408.5742-.2458.1077 0 .2143.0212.3138.0624s.1899.1016.266.1777c.0762.0762.1365.1665.1778.266.0412.0995.0624.2062.0624.3139.0013.108-.019.2152-.0597.3153s-.1011.1911-.1775.2675-.1673.1368-.2674.1775-.2074.061-.3154.0597zm-4-1.7c-.3998-.0052-.782-.1656-1.0656-.4474-.2837-.2818-.4467-.6629-.4544-1.0626.0078-.398.1715-.7769.4557-1.0555s.6663-.4346 1.0643-.4345c.3952 0 .7741.1569 1.0536.4364.2794.2794.4364.6584.4364 1.0536 0 .397-.1563.7781-.4352 1.0607s-.6578.444-1.0548.4493zm-3.21 4.5c-.0573.0013-.1143-.0089-.1676-.0299-.0534-.021-.1019-.0524-.1429-.0925s-.0736-.0879-.0958-.1408c-.0223-.0528-.0337-.1095-.0337-.1668 0-.1167.0464-.2287.1289-.3112s.1944-.1288.3111-.1288c.1123.0052.2181.0541.2947.1363.0766.0823.118.1913.1153.3037.0013.0551-.0082.11-.0281.1615-.0199.0514-.0497.0985-.0878.1384s-.0836.072-.1341.0943-.1049.0345-.16.0358zm25.22-7.0901c-4.55 1.13-8.9 1.0001-11.52-.7199-3.14-2.11-8.84-1.72-12.88-1.11-.64 1-7.41 10.42-6.33 10.54h35.72c.31 0 .38-.0701.18-.3301z" fill="#fc7659"/><path d="m29.5608 29.8401c.4668 0 .9144.1854 1.2445.5154.3301.3301.5155.7778.5155 1.2445 0 .4668-.1854.9145-.5155 1.2445-.3301.3301-.7777.5155-1.2445.5155s-.9145-.1854-1.2445-.5155c-.3301-.33-.5155-.7777-.5155-1.2445 0-.4667.1854-.9144.5155-1.2445.33-.33.7777-.5154 1.2445-.5154z" fill="#fc7659"/><path d="m38.0003 29.76c.2652 0 .5196.1054.7071.2929.1875.1876.2929.4419.2929.7071-.0177.2529-.1309.4896-.3165.6623-.1857.1727-.43.2683-.6835.2677-.2466 0-.4832-.098-.6576-.2724s-.2724-.4109-.2724-.6576c-.0006-.2535.0951-.4978.2677-.6835.1727-.1856.4094-.2987.6623-.3165z" fill="#fc7659"/><path d="m34.3884 23.49c.1295-.0135.2605.0004.3843.0407.1239.0403.2378.1063.3346.1935s.1741.1937.2271.3127c.0529.119.0803.2478.0803.3781 0 .1302-.0274.259-.0803.378-.053.119-.1303.2256-.2271.3128s-.2107.1531-.3346.1935c-.1238.0403-.2548.0542-.3843.0407-.2288-.0238-.4406-.1315-.5946-.3023-.1539-.1709-.2391-.3927-.2391-.6227s.0852-.4518.2391-.6226c.154-.1709.3658-.2786.5946-.3024z" fill="#fc7659"/><path d="m28.35 2.5h10.72c.2425.0013.4823.05053.7057.14484.2234.0943.426.23181.596.40466.1701.17285.3043.37764.395.60254s.136.46547.1334.70795v11.95001c.0013.2416-.045.4811-.1363.7049-.0912.2237-.2257.4273-.3956.5991s-.3721.3084-.5948.4021-.4617.1426-.7034.1439h-10.72c-.2433.0013-.4845-.0456-.7095-.1381-.2251-.0926-.4295-.2288-.6016-.4008-.172-.1721-.3082-.3765-.4008-.6016-.0925-.225-.1394-.4662-.1381-.7095v-11.95001c-.0013-.24379.0456-.4854.138-.711.0923-.22561.2284-.43073.4004-.60358.1719-.17285.3762-.31003.6013-.40363.2251-.09359.4665-.14178.7103-.14178z" fill="#fff"/></g><path d="m23.4183 8.20996h20.58c.4404.01167.8608.18625 1.18.48999.3079.3164.4832.73855.49 1.17999v1.83006c-.0068.4414-.1821.8636-.49 1.18-.1542.156-.3381.2796-.5407.3638-.2026.0841-.4199.127-.6393.1261h-1.2v8.1501c0 .67 1.69 3 3 4.81.85 1.16 1.77 2.44 2.7 3.8 2.75 4.09 5.4 8.8499 6.56 10.9099l.31.5401c.569 1.0627.8667 2.2495.8667 3.4549 0 1.2055-.2977 2.3923-.8667 3.455-.3845.7071-.9523 1.2976-1.6439 1.7094-.6915.4118-1.4812.6296-2.2861.6307h-35.44c-.8176.0161-1.6237-.1939-2.3295-.6068-.7059-.4129-1.2839-1.0127-1.6705-1.7333-.5707-1.0622-.8694-2.2492-.8694-3.455s.2987-2.3927.8694-3.4549c2.8768-5.2733 6.0728-10.3661 9.57-15.25 1.33-1.83 3-4.14 3-4.81 0-1.88 0-5.3001 0-8.1501h-1.18c-.2211.0023-.4403-.04-.6448-.1242-.2044-.0841-.3898-.2085-.5452-.3657-.1547-.1548-.2768-.3389-.3592-.5416-.0825-.2026-.1236-.4197-.1208-.6384v-1.83006c-.0028-.21876.0383-.43583.1208-.63848.0824-.20266.2045-.38678.3592-.54151.3222-.30521.7463-.47983 1.19-.48999zm16.84 5.16994h-13.09v8c0 1.46-1.19 3.21-3.53 6.43-.82 1.15-1.75 2.3901-2.64 3.7201-2.7 4-5.33 8.6899-6.43 10.7299l-.31.54c-.3496.6699-.5322 1.4144-.5322 2.17 0 .7557.1826 1.5002.5322 2.1701.1512.3273.3942.6037.6996.7954.3054.1918.6598.2906 1.0204.2845h35.51c.3595.0012.7119-.0997 1.0164-.2909s.5485-.4647.7036-.789c.3395-.6747.5121-1.4209.5034-2.1761s-.1985-1.4973-.5534-2.164l-.31-.54c-1.11-2-3.75-6.7399-6.43-10.7299-.92-1.33-1.82-2.5701-2.65-3.7201-2.36-3.22-3.57-5-3.52-6.43 0-1.8 0-5.2 0-8z" fill="#fff"/></svg>