<svg fill="none" height="147" viewBox="0 0 167 147" width="167" xmlns="http://www.w3.org/2000/svg"><path d="m47.8988 131.09-15.1999-15.65s-8.5702 12-11.6802 16.09c-.4872.311-.9396.673-1.3498 1.08-1.437 1.512-2.2262 3.527-2.1995 5.613s.8671 4.079 2.3423 5.554 3.4683 2.316 5.5544 2.343c2.0861.026 4.1003-.763 5.6128-2.2.4008-.406.7591-.852 1.0699-1.33 4.32-3.25 15.85-11.5 15.85-11.5z" fill="#003d46"/><path d="m110.281 131.09 15.2-15.65s8.58 12 11.68 16.09c.488.311.94.673 1.35 1.08.82.788 1.462 1.742 1.884 2.797.422 1.056.614 2.189.564 3.325-.051 1.136-.343 2.248-.857 3.262s-1.238 1.907-2.124 2.619-1.914 1.227-3.015 1.511c-1.101.283-2.25.329-3.37.134s-2.185-.627-3.125-1.266c-.941-.64-1.734-1.472-2.327-2.442-4.33-3.21-15.86-11.46-15.86-11.46z" fill="#003d46"/><path d="m22.5875 17.5785-6.1578 6.1599 72.3496 72.3244 6.1578-6.1599z" fill="#004f5b"/><path d="m144.81 13.8971-72.3295 72.33 6.1518 6.1518 72.3297-72.3299z" fill="#004f5b"/><path d="m142.139 80.84c.002 11.9266-3.533 23.586-10.157 33.504-6.625 9.917-16.042 17.648-27.06 22.213-11.0183 4.566-23.143 5.761-34.8407 3.436-11.6977-2.326-22.4431-8.068-30.8772-16.501s-14.1781-19.177-16.5056-30.8744c-2.3275-11.6973-1.134-23.8221 3.4297-34.8411 4.5636-11.019 12.2925-20.4371 22.209-27.0634s21.5753-10.1631 33.5019-10.1631c15.9908 0 31.3269 6.3516 42.6349 17.6579s17.662 26.6413 17.665 42.6321z" fill="#bbe2ed"/><path d="m124.002 80.84c0 8.3464-2.475 16.5053-7.112 23.445-4.637 6.94-11.228 12.349-18.939 15.543-7.7111 3.194-16.1961 4.029-24.3821 2.401s-15.7054-5.647-21.6072-11.549-9.921-13.4212-11.5493-21.6072-.7924-16.671 2.4016-24.3821c3.194-7.711 8.6027-14.3017 15.5425-18.9387 6.9397-4.637 15.0987-7.112 23.4451-7.112 11.1921 0 21.9264 4.4461 29.8404 12.3601s12.36 18.6478 12.36 29.8399z" fill="#daeeef"/><path d="m80.5781 80.61v-37.54" stroke="#e73147" stroke-linecap="round" stroke-linejoin="round" stroke-width="5.19"/><path d="m80.5781 80.61 26.5399 26.55" stroke="#e73147" stroke-linecap="round" stroke-linejoin="round" stroke-width="5.19"/><path d="m86.8782 80.84c0 1.0023-.2971 1.9822-.8538 2.8157-.5566.8335-1.3478 1.4833-2.2737 1.8674-.9258.384-1.9447.485-2.9279.2902s-1.8865-.6767-2.596-1.3848c-.7094-.708-1.1931-1.6105-1.3899-2.5933-.1967-.9828-.0978-2.0019.2844-2.9285.3823-.9266 1.0304-1.7191 1.8628-2.2774.8325-.5583 1.8117-.8573 2.814-.8593 1.3456 0 2.6362.5338 3.5886 1.4843.9524.9506 1.4888 2.2401 1.4915 3.5857z" fill="#003d46"/><g stroke="#003d46" stroke-linecap="round" stroke-linejoin="round" stroke-width="5.19"><path d="m81.8086 27.39v.27"/><path d="m81.8086 134.02v.27"/><path d="m44.0195 43.05.19.18"/><path d="m119.41 118.45.2.18"/><path d="m135.258 80.84h-.27"/><path d="m28.6194 80.84h-.26"/><path d="m119.61 43.05-.2.18"/><path d="m44.2095 118.45-.19.18"/></g><path d="m102.871 9.06997c.21-.23.41-.45999.64-.67999 12.1-12.11 34.28-9.57 49.51 5.66002 15.23 15.23 17.77 37.41 5.67 49.51l-.68.64z" fill="#003d46"/><path d="m64.3492 9.06997c-.22-.23-.4199-.45999-.6399-.67999-12.11-12.11-34.28-9.57-49.51 5.66002-15.23003 15.23-17.7802 37.41-5.6802 49.51l.69018.64z" fill="#003d46"/></svg>