<svg fill="none" height="158" viewBox="0 0 166 158" width="166" xmlns="http://www.w3.org/2000/svg"><path d="m165.811 14.75v133h-32.331v-125.11l22.15-20.89998 1.431-1.350005.24.12001c.343.175833.677.369415 1 .579985 1.012.63022 1.945 1.37884 2.779 2.23001 1.506 1.4976 2.699 3.27899 3.511 5.241.812 1.96198 1.226 4.06568 1.22 6.18898z" fill="#ea5624"/><path d="m165.808 124.99v32.33h-150.8695c-2.1222.003-4.2241-.414-6.18423-1.228-1.96009-.813-3.73959-2.007-5.23584-3.512-.85-.838-1.60152-1.771-2.23999-2.78-.320688-.508-.614433-1.032-.880002-1.57l24.599962-23.2z" fill="#ea5624"/><path d="m157.061.389969-1.43 1.350001-19.82 18.70003-2.32 2.2-.13.11-.86.81-7.15 6.75-2.46 2.31-7.61 7.18-2.46 2.32-8.39 7.93-2.46 2.31-7.6204 7.19-2.44 2.31-6.58 6.2-2.45 2.31-7.62 7.18-2.4499 2.32-8.4001 7.92-2.45 2.32-7.62 7.18-2.45 2.33-6.65 6.27-2.47 2.32-7.61 7.18-2.45 2.32-7.72 7.28-24.599975 23.2h157.000375v-148.030027zm-15.92 129.420031h-84.2203l5.1099-4.81 8.09-7.64 57.7104-54.44 5.62-5.29 6.8-6.42.89-.84z" fill="#f8ac22"/><g fill="#ea5624"><path d="m147.73 35.37c-.317.3169-.747.495-1.195.495s-.878-.1781-1.195-.495l-12-12.57.13-.11 2.32-2.2 12 12.55c.293.3207.451.7426.44 1.1771-.012.4345-.191.8477-.5 1.1529z"/><path d="m127.31 54.85c-.16.1552-.35.2771-.557.3586-.208.0816-.43.1212-.653.1165-.223-.0046-.443-.0534-.647-.1436-.205-.0901-.389-.2198-.543-.3815l-12.09-12.68 2.46-2.32 12.08 12.67c.154.1593.274.3474.355.5534.08.206.119.4258.115.647-.005.2211-.053.4391-.142.6416-.09.2024-.218.3852-.378.538z"/><path d="m131.269 38.95c-.326.3066-.76.4723-1.207.4611-.448-.0112-.873-.1985-1.183-.5211l-6-6.27 2.46-2.31 6 6.25c.305.3273.469.7619.456 1.2094s-.202.8717-.526 1.1806z"/><path d="m106.49 74.7c-.159.1549-.348.2766-.555.358s-.428.121-.65.1163c-.223-.0046-.442-.0534-.645-.1434s-.387-.2195-.54-.3809l-12.1898-12.79 2.4399-2.31 12.1999 12.77c.304.3256.468.7572.456 1.2022-.011.4451-.196.8679-.516 1.1778z"/><path d="m110.449 58.79c-.16.1537-.349.2743-.556.355-.207.0806-.428.1198-.65.1151-.222-.0046-.44-.0529-.644-.1422-.203-.0892-.387-.2177-.54-.3779l-6.09-6.38 2.46-2.31 6.07 6.36c.307.3231.474.7545.465 1.2003s-.195.8698-.515 1.1797z"/><path d="m87.4985 92.82c-.1608.153-.3502.2729-.5573.3527-.2072.0799-.4281.1181-.6501.1125-.2219-.0056-.4406-.0548-.6435-.145-.2029-.0901-.3861-.2193-.5391-.3802l-12.2999-12.89 2.4499-2.32 12.2901 12.88c.3079.3247.4753.7578.4659 1.2053-.0093.4474-.1947.8731-.516 1.1847z"/><path d="m91.4589 76.91c-.1602.1537-.3491.2743-.5559.355-.2069.0807-.4275.1198-.6495.1151-.2219-.0046-.4407-.0529-.644-.1422-.2033-.0892-.3869-.2176-.5405-.3779l-6.1901-6.49 2.45-2.31 6.18 6.47c.3049.3243.4704.7552.4611 1.2002-.0094.445-.1929.8686-.5111 1.1798z"/><path d="m66.6807 112.67c-.1602.154-.3491.274-.5559.355-.2069.081-.4276.12-.6496.115-.2219-.004-.4408-.053-.644-.142-.2033-.089-.3869-.218-.5406-.378l-12.4-13 2.45-2.33 12.39 13c.3073.323.4746.755.4652 1.2-.0094.446-.1945.87-.5151 1.18z"/><path d="m70.641 96.77c-.3261.3067-.7598.4724-1.2073.4611-.4474-.0112-.8725-.1984-1.1827-.5211l-6.2901-6.6 2.4501-2.32 6.28 6.59c.308.3248.4753.7579.466 1.2053-.0094.4475-.1948.8731-.516 1.1847z"/><path d="m47.601 130.87c-.1609.153-.3502.273-.5574.353s-.4281.118-.65.112c-.222-.005-.4407-.055-.6436-.145s-.3861-.219-.5391-.38l-12.5-13.1 2.4501-2.32 12.5 13.1c.306.324.4715.757.4602 1.202-.0112.446-.1983.869-.5202 1.178z"/><path d="m45.2395 105.89 6.38 6.68c.3103.325.4788.76.4685 1.209s-.1985.876-.5234 1.186-.7599.479-1.209.469c-.4492-.011-.8757-.199-1.186-.524l-6.4001-6.7z"/></g></svg>