<svg fill="none" height="172" viewBox="0 0 165 172" width="165" xmlns="http://www.w3.org/2000/svg"><g stroke="#004b57" stroke-linecap="round" stroke-linejoin="round" stroke-width="6.49"><path d="m114.37 86.02c0 45.69-14.12 82.73-31.5297 82.73-17.41 0-31.52-37-31.52-82.73s14.12-82.73002 31.52-82.73002c17.3997 0 31.5297 37.04002 31.5297 82.73002z"/><path d="m114.068 107.41c-39.8602 27.31-86.1501 39.86-103.3901 28.05-17.23999-11.81 1.09-43.52 40.95-70.83s86.1301-39.85 103.3801-28-1.09 43.47-40.94 70.78z"/><path d="m51.6279 107.41c-39.86-27.31-58.18999-59-40.95-70.82 17.24-11.82 63.5299.75 103.3901 28 39.86 27.25 58.18 59 40.94 70.83s-63.5301-.7-103.3801-28.01z"/></g><path d="m123.491 107.41c0 1.806-.536 3.572-1.54 5.073-1.004 1.502-2.43 2.672-4.099 3.363s-3.505.871-5.276.518c-1.772-.353-3.399-1.224-4.675-2.502-1.276-1.277-2.145-2.905-2.496-4.677s-.169-3.608.523-5.276c.693-1.668 1.865-3.093 3.368-4.0952 1.502-1.002 3.268-1.5358 5.074-1.5338 2.42.0026 4.74.9657 6.45 2.678 1.71 1.712 2.671 4.032 2.671 6.452z" fill="#e73147"/><path d="m117.139 37.17c-.002 1.8053-.539 3.5695-1.544 5.0696-1.004 1.5001-2.431 2.6688-4.099 3.3583-1.669.6895-3.504.8689-5.274.5154-1.771-.3534-3.397-1.2237-4.673-2.5009-1.275-1.2773-2.1439-2.9041-2.4954-4.6749s-.1701-3.606.5212-5.2737c.6912-1.6677 1.8612-3.093 3.3622-4.0958 1.502-1.0028 3.267-1.538 5.072-1.538 1.2 0 2.388.2365 3.496.696 1.108.4594 2.115 1.1328 2.963 1.9816.848.8489 1.52 1.8566 1.979 2.9654.458 1.1089.693 2.2972.692 3.497z" fill="#e73147"/><path d="m34.8693 86.02c0 1.8061-.5357 3.5717-1.5393 5.0733-1.0037 1.5017-2.4303 2.672-4.0992 3.3627-1.6688.6907-3.505.8709-5.2763.5178s-3.3981-1.2236-4.6746-2.5014c-1.2764-1.2779-2.1452-2.9057-2.4963-4.6774-.3512-1.7717-.1689-3.6078.5237-5.2759.6925-1.6681 1.8642-3.0933 3.3669-4.0953s3.269-1.5358 5.0752-1.5338c2.4197.0026 4.7392.9658 6.4492 2.6777 1.7101 1.7119 2.6707 4.0326 2.6707 6.4523z" fill="#e73147"/></svg>