<svg fill="none" height="61" viewBox="0 0 54 61" width="54" xmlns="http://www.w3.org/2000/svg"><g fill="#fdc00f"><path d="m27.0013 60.88c-6.31 0-9.7201-15.65-9.7201-30.37s3.4101-30.360006 9.7201-30.360006 9.72 15.650006 9.72 30.360006-3.41 30.37-9.72 30.37zm0-58.73001c-3.65 0-7.7201 11.65001-7.7201 28.36001s4.0701 28.37 7.7201 28.37 7.72-11.65 7.72-28.37-4.07-28.36001-7.72-28.36001z"/><path d="m47.6307 48c-6 0-15.77-3.49-25.49-9.1-6.2048-3.4562-11.902-7.7536-16.92996-12.77-4.370004-4.61-5.930004-8.36-4.500004-10.83.890004-1.54 2.790004-2.33 5.660004-2.33 5.99996 0 15.76996 3.49 25.48996 9.1 6.207 3.4529 11.9047 7.7505 16.93 12.77 4.37 4.61 5.93 8.36 4.51 10.83-.9 1.57-2.8 2.33-5.67 2.33zm-41.25996-33c-1.45 0-3.30001.23-3.93 1.33-.9 1.56.68 4.72 4.22 8.46 4.89676 4.8746 10.44226 9.0506 16.47996 12.41 9.43 5.45 18.86 8.8 24.49 8.8 1.45 0 3.3-.23 3.93-1.33.9-1.56-.68-4.72-4.22-8.46-4.8967-4.8746-10.4423-9.0506-16.48-12.41-9.43-5.42-18.86-8.8-24.48996-8.8z"/><path d="m6.35851 48c-2.86 0-4.76-.79-5.649998-2.33-3.160002-5.47 8.679998-16.24 21.429988-23.6 9.72-5.61 19.49-9.1 25.5-9.1 2.86 0 4.76.79 5.65 2.33 1.43 2.47-.13 6.22-4.5 10.83-5.0279 5.0164-10.7252 9.3138-16.93 12.77-9.72 5.64-19.49 9.1-25.49999 9.1zm41.27999-33c-5.68 0-15.07 3.38-24.5 8.83-14.46999 8.36-22.529989 17.7-20.69999 20.87.63 1.1 2.48 1.33 3.92 1.33 5.67999 0 15.06999-3.38 24.49999-8.83 6.0377-3.3594 11.5833-7.5354 16.48-12.41 3.54-3.74 5.12-6.9 4.22-8.46-.63-1.1-2.48-1.33-3.92-1.33z"/></g><path d="m20.7109 30.52c-.0019-1.2445.3653-2.4616 1.0552-3.4973.69-1.0357 1.6717-1.8434 2.8208-2.321 1.1492-.4776 2.4142-.6036 3.635-.3621 1.2208.2416 2.3425.8399 3.2232 1.7192.8807.8792 1.4807 2 1.7242 3.2204.2436 1.2204.1196 2.4856-.3562 3.6356-.4758 1.1499-1.282 2.1328-2.3166 2.8244s-2.2511 1.0608-3.4956 1.0608c-1.6664 0-3.2648-.6613-4.4441-1.8388-1.1793-1.1774-1.8432-2.7747-1.8459-4.4412z" fill="#16b6c6"/><path d="m21.8398 29.56c0-.807.2393-1.5958.6877-2.2667.4483-.671 1.0855-1.1939 1.831-1.5027.7455-.3089 1.5659-.3896 2.3573-.2322.7915.1574 1.5184.546 2.089 1.1166s.9592 1.2976 1.1166 2.089c.1575.7915.0767 1.6118-.2321 2.3573-.3088.7456-.8318 1.3828-1.5027 1.8311-.671.4483-1.4598.6876-2.2668.6876-1.082 0-2.1198-.4299-2.8849-1.195-.7652-.7652-1.1951-1.8029-1.1951-2.885z" fill="#fff" opacity=".3"/><path d="m11.1519 14.1c.01.5954-.1575 1.1802-.4811 1.6801-.3235.4999-.78852.8922-1.33575 1.1269-.54723.2348-1.15194.3014-1.73714.1913-.5852-.11-1.12441-.3917-1.54899-.8092-.42457-.4175-.7153-.9519-.83516-1.5352-.11987-.5833-.06345-1.189.16207-1.7401s.60993-1.0226 1.10431-1.3545c.49437-.3319 1.07633-.5092 1.67179-.5093.78706-.0001 1.54264.3091 2.10387.8609.5612.5519.883 1.3022.8961 2.0891z" fill="#16b6c6"/><path d="m22.7418 47c.0099.5975-.1589 1.1843-.4847 1.6852-.3258.501-.7938.8932-1.344 1.1264-.5502.2333-1.1575.2969-1.744.1827-.5866-.1141-1.1257-.4008-1.5482-.8234-.4226-.4225-.7093-.9616-.8235-1.5482-.1141-.5866-.0505-1.1939.1827-1.744.2333-.5502.6255-1.0182 1.1264-1.344.501-.3258 1.0878-.4946 1.6853-.4847.7824 0 1.5327.3108 2.0859.864.5533.5533.8641 1.3036.8641 2.086z" fill="#16b6c6"/><path d="m41.88 15.61c-.0098.5812-.1912 1.1466-.5212 1.6251-.3301.4785-.7942.8488-1.334 1.0644-.5399.2156-1.1314.267-1.7003.1476s-1.0899-.4043-1.4974-.8188c-.4076-.4144-.6837-.9401-.7935-1.5109-.1098-.5709-.0486-1.1614.1761-1.6976.2247-.5361.6028-.9939 1.0867-1.3159.484-.322 1.0523-.4938 1.6336-.4939.787.0131 1.5373.335 2.0891.8961.5519.5612.8611 1.3168.8609 2.1039z" fill="#16b6c6"/><path d="m40.4688 15.05c0 .3956-.1173.7822-.3371 1.1111s-.5321.5853-.8976.7367c-.3654.1513-.7676.1909-1.1555.1138-.388-.0772-.7444-.2677-1.0241-.5474s-.4701-.6361-.5473-1.024c-.0772-.388-.0376-.7901.1138-1.1556.1514-.3654.4077-.6778.7366-.8976.3289-.2197.7156-.337 1.1112-.337.5304 0 1.0391.2107 1.4142.5858.375.375.5858.8838.5858 1.4142z" fill="#fff" opacity=".3"/><path d="m9.78906 13.6c0 .3956-.1173.7822-.33706 1.1111s-.53212.5853-.89757.7367c-.36545.1513-.76759.1909-1.15555.1138-.38796-.0772-.74433-.2677-1.02403-.5474-.27971-.2797-.47019-.6361-.54736-1.024-.07717-.388-.03756-.7901.11381-1.1556.15138-.3654.40772-.6778.73662-.8975.3289-.2198.71558-.3371 1.11114-.3371.53044 0 1.03914.2107 1.41421.5858.37508.3751.58579.8838.58579 1.4142z" fill="#fff" opacity=".3"/><path d="m21.2305 46.62c0 .3956-.1173.7822-.3371 1.1111s-.5321.5853-.8976.7367c-.3654.1513-.7675.1909-1.1555.1138-.388-.0772-.7443-.2677-1.024-.5474s-.4702-.6361-.5474-1.024c-.0772-.388-.0376-.7901.1138-1.1556.1514-.3654.4077-.6778.7366-.8975.3289-.2198.7156-.3371 1.1112-.3371.5304 0 1.0391.2107 1.4142.5858s.5858.8838.5858 1.4142z" fill="#fff" opacity=".3"/></svg>