<svg fill="none" height="63" viewBox="0 0 59 63" width="59" xmlns="http://www.w3.org/2000/svg"><path clip-rule="evenodd" d="m28.4485 5.99997c-.9501.92902-1.6723 2.06535-2.11 3.32001-.3538 2.10242.1387 4.25952 1.37 6.00002.3208.295.7443.4529 1.18.44 1.49 0 3.75-1.31 5.78-3.37 1.1839-1.1302 2.1589-2.46069 2.88-3.93004.62-1.37.65-2.45.05-3-.7546-.63416-1.6345-1.10182-2.5823-1.37237-.9478-.27056-1.9421-.33788-2.9177-.19761-1.3693.39794-2.6218 1.12194-3.65 2.10999z" fill="#feca5c" fill-rule="evenodd"/><path clip-rule="evenodd" d="m45.4693 20.45c-1.93 0-6.48 0-7 0-.13 0-.23.1999-.31.4599-.0093.1532-.0093.3068 0 .46-.0004.1504.0267.2995.08.44.0127.0763.0453.1479.0944.2076.0492.0597.1132.1054.1857.1324.65 0 5.12-.06 7-.06z" fill="#fff" fill-rule="evenodd"/><path clip-rule="evenodd" d="m46.3512 20s-7.23 0-8 0c-.36 0-.59.38-.69.82-.041.1837-.0578.3719-.05.56-.0052.1924.0184.3845.07.57.13.36.3601.64.7201.64.83 0 7.9-.05 7.92-.05.0451-.0192.0835-.0513.1106-.0922.027-.0409.0414-.0888.0414-.1378 0-.0491-.0144-.097-.0414-.1379-.0271-.0409-.0655-.0729-.1106-.0921h-.3201v-1.65h.41c.2-.12.2-.28 0-.46zm-7.8999.49c.54-.05 5.09-.05 7 0v1.67c-1.93 0-6.4.06-7 .06-.0725-.0271-.1365-.0728-.1856-.1325-.0492-.0597-.0818-.1312-.0945-.2075-.0533-.1406-.0804-.2897-.0799-.44-.0093-.1532-.0093-.3068 0-.46.08-.26.18-.46.31-.46z" fill="#66afc0" fill-rule="evenodd"/><path d="m45.2392 20.53h-6.79v.31h6.79z" fill="#c7c3c2"/><path d="m45.2392 20.9399h-6.79v.31h6.79z" fill="#c7c3c2"/><path d="m45.2392 21.35h-6.79v.31h6.79z" fill="#c7c3c2"/><path d="m45.2392 21.76h-6.79v.31h6.79z" fill="#c7c3c2"/><path clip-rule="evenodd" d="m36.5817 23.31h7v1.69c-1.9 0-6.38.05-7 0-.0755-.0056-.1469-.0361-.2031-.0868-.0561-.0507-.0937-.1187-.1069-.1932-.0108-.1465-.0108-.2936 0-.44-.0252-.1523-.0252-.3077 0-.46.05-.26.16-.47.29-.49zm7.48 0h.41c.2-.16.2-.31 0-.47 0 0-7.23 0-7.92 0-.36 0-.62.39-.72.82-.0315.1884-.0483.379-.05.57-.0043.1898.0228.379.08.56.0338.1715.1221.3275.2519.4446.1298.1172.294.1892.4681.2054.82 0 7.89-.05 7.92-.05.0482-.0175.09-.0495.1194-.0915.0295-.0421.0453-.0922.0453-.1435 0-.0514-.0158-.1015-.0453-.1435-.0294-.0421-.0712-.074-.1194-.0915h-.42z" fill="#dcb400" fill-rule="evenodd"/><path clip-rule="evenodd" d="m36.5805 24.5201v-.31h6.7799v.31zm0 .1h6.7799v.31h-6.7799zm6.7799-.52h-6.7799v-.3001h6.7799zm0-.41h-6.7799v-.31h6.7799zm.49-.6401c-1.93 0-6.7299 0-7.2699 0-.13 0-.4901.4601-.5401.7201-.0353.1509-.0553.305-.0599.46.0004.1502.0275.2992.08.44.05.18.3899.3.5399.3.62 0 5.3501 0 7.2801-.05z" fill="#dcb400" fill-rule="evenodd"/><path d="m43.3681 23.8h-6.79v.31h6.79z" fill="#fff"/><path d="m43.3681 24.21h-6.79v.31h6.79z" fill="#fff"/><path d="m43.3681 24.62h-6.79v.31h6.79z" fill="#fff"/><path d="m43.3681 23.38h-6.79v.31h6.79z" fill="#fff"/><path clip-rule="evenodd" d="m37.0598 17.57c.54-.05 5.09-.05 7 0v1.67c-1.93 0-6.4 0-7.05 0-.0722-.0244-.1364-.068-.1858-.1262-.0493-.0581-.0819-.1286-.0942-.2038-.0491-.1414-.0728-.2904-.07-.44-.0147-.153-.0147-.307 0-.46 0-.26.1801-.47.3001-.47zm0 2.14h7.9001c.0482-.0175.0899-.0495.1193-.0915.0295-.042.0453-.0922.0453-.1435s-.0158-.1014-.0453-.1435c-.0294-.042-.0711-.074-.1193-.0915h-.4101v-1.64h.45c.2-.16.2-.28 0-.46 0 0-7.25 0-8 0-.36 0-.59.39-.69.82-.0414.187-.0582.3786-.05.57-.0052.1891.0184.378.07.56.0273.1745.1137.3343.2448.4526.1311.1184.2989.188.4752.1974z" fill="#b30004" fill-rule="evenodd"/><path clip-rule="evenodd" d="m44.0806 17.55c-1.93 0-6.48 0-7 0-.12 0-.25.2101-.3.4701-.0148.1529-.0148.307 0 .46-.0028.1496.0208.2986.0699.44.0123.0752.0449.1457.0943.2038.0493.0581.1135.1017.1858.1262h7.0499z" fill="#fff" fill-rule="evenodd"/><path d="m43.9993 17.6499c-1.18 0-3.26 0-4.83 0-1 0-1.88.0001-2.09.0501 0 0 0-.0001-.1.0699-.0407.1008-.0741.2044-.1.31 0 .08 0 .16-.05.21v.23c-.0109.0696-.0109.1405 0 .21v.2c.0294.0718.0628.142.1.2101l.1.0499h2.16c1.57 0 3.6-.0499 4.79-.0499zm-4.83-.1999h5v.0999 1.67.08h-.1c-1.16 0-3.27.05-4.89.05-1.05 0-1.9 0-2.16 0-.0437.0041-.0877-.0029-.1279-.0204s-.0753-.0449-.1021-.0796c-.0694-.0853-.1205-.184-.15-.29-.0034-.0666-.0034-.1333 0-.2 0-.08 0-.18 0-.26s0-.15 0-.23 0-.18 0-.26c.06-.13.11-.26.16-.36.0206-.0466.0523-.0873.0924-.1187.0402-.0314.0874-.0525.1376-.0613h2.11z" fill="#b30004"/><path d="m43.8486 17.63h-6.79v.31h6.79z" fill="#c7c3c2"/><path d="m43.8486 18.04h-6.79v.31h6.79z" fill="#c7c3c2"/><path d="m43.8486 18.45h-6.79v.3099h6.79z" fill="#c7c3c2"/><path d="m43.8486 18.86h-6.79v.31h6.79z" fill="#c7c3c2"/><path clip-rule="evenodd" d="m23.3089 1.30001c-1.2823-.620683-2.677-.975204-4.1001-1.042232-1.423-.067028-2.8449.154843-4.1799.652252-7.28 3.27-7.99999 13.99997-7.45999 20.99997h-2.67001c-.25508.0369-.51229.0569-.76999.06v3.88h16.37999v-3.85c-1 0-1.91 0-2.91-.06h-8.35c-.47-6.76.3-16.29997 6.94-19.24997 2.0823-.78081 4.38-.76301 6.45.04999-.21 1.8 1 4.47001 3.73 6.17001.4391-1.13432 1.1218-2.15842 2-3 .7115-.67685 1.5205-1.24314 2.4-1.67999-3.84-3.570002-6.33-4.000027-7.46-2.90003z" fill="#fff" fill-rule="evenodd"/><path clip-rule="evenodd" d="m31.5598 9.50008c-2.26 2.21002-3.57 4.58002-2.9 5.25002s3.06-.54 5.32-2.76c2.26-2.22003 3.57-4.57002 2.9-5.24002s-3.05.54-5.32 2.75z" fill="#ffe6aa" fill-rule="evenodd"/><path clip-rule="evenodd" d="m53.9981 15.49c-.5029-.2246-1.0452-.3478-1.5958-.3628s-1.0988.0786-1.6132.2754c-1.039.3976-1.8774 1.1916-2.3309 2.2074-.4536 1.0158-.485 2.1701-.0874 3.2091.3975 1.0389 1.1916 1.8774 2.2074 2.3309 1.0157.4535 2.1701.4849 3.209.0874 1.039-.3976 1.8774-1.1916 2.3309-2.2074.4536-1.0158.485-2.1701.0874-3.2091-.3975-1.0389-1.1916-1.8774-2.2074-2.3309z" fill="#3cc0e7" fill-rule="evenodd"/><path clip-rule="evenodd" d="m54.2617 23c.7161-.3877 1.3008-.9794 1.68-1.7h-.06v.05h-.05s0 0 0-.05c0 0-.06 0-.08 0-.0358-.0115-.0742-.0115-.11 0l-.1.08v.05.1c-.019.0221-.043.0392-.07.05h-.13s0 0-.08 0c-.0418-.0162-.0882-.0162-.13 0 0 0 0 0-.07 0s0 0 0 0c-.0124.0062-.0261.0094-.04.0094-.0138 0-.0276-.0032-.04-.0094h-.05-.08-.05-.08-.05s-.08.06-.08.08-.05.08-.05.08v.08c.0219.0584.0387.1186.05.18-.0075.0497-.0075.1003 0 .15-.004.0432-.004.0868 0 .13-.0393.0609-.0665.1288-.08.2v.16c-.004.0433-.004.0868 0 .13-.0155.0181-.024.0412-.024.065s.0085.0469.024.065c.0382.0281.0719.0618.1.1z" fill="#fff" fill-rule="evenodd"/><path clip-rule="evenodd" d="m49.3798 20.61v-.11c.0338-.0269.0611-.0611.08-.1v-.13l-.13-.23v-.13h-.13v.29c-.0112.0763-.0112.1538 0 .23v.23.16s.1.07.13 0 .12-.13.12-.15 0-.13 0-.13z" fill="#fff" fill-rule="evenodd"/><path clip-rule="evenodd" d="m54.5196 16.16-.1.13-.21.15-.2.11s-.08.07.07.15c.0957.0222.1849.0667.26.13l.08-.16.0499-.2s.0001 0 .1001-.1.13-.18.13-.18z" fill="#fff" fill-rule="evenodd"/><path clip-rule="evenodd" d="m54.5508 16.6v.1.08l.05.1h.08s0-.11 0-.13c.0247-.0324.0418-.07.05-.11-.0131-.0414-.0298-.0816-.05-.12l-.06-.06-.07.06v.05z" fill="#fff" fill-rule="evenodd"/><path d="m53.4784 17.7219.0185.0204-.0185-.0123v-.0081l-.02-.0219-.13-.1h-.07l-.11-.06-.07-.0501-.05.0801v.13c-.0496.0085-.1004.0085-.15 0-.02-.0105-.0423-.0161-.065-.0161-.0226 0-.0449.0056-.065.0161 0 0 0 .06-.16.06-.16 0-.17 0-.17-.06v-.1-.0002c0-.0998 0-.0999-.08-.1298-.1019.0238-.208.0238-.31 0-.13-.05-.23-.1101-.26-.1101l-.18-.0699v-.16-.18-.07l.28.1v.0799c.0424.0125.0876.0125.13 0l.1-.0799v-.1-.1101l.18.0501s.08-.05.05 0c-.0329.082-.0767.1594-.13.2299 0 0 0 .08.06.1s0 .08.12 0 .11-.13.16-.16.1-.12.1-.12c.0696.0116.1405.0116.21 0 .07-.05.07-.0799.15-.0799h.1s.06.11 0 .13c-.0566.0337-.117.0605-.18.08l-.26.0499s-.07.0001-.05.0501h.0825l.0075-.0101h.07.23.12c.05 0 .06-.1.11-.1h.1v.0501.0499.0501h.07c.0265-.0049.0536-.0049.08 0v.05c.0036.0078.0055.0163.0055.0249 0 .0087-.0019.0172-.0055.025.0123.0322.0123.0679 0 .1v.0801c.007.0228.007.0471 0 .0699v.06.1z" fill="#fff"/><g clip-rule="evenodd" fill-rule="evenodd"><path d="m54.0004 15.49c-.0733-.0172-.1439-.0441-.21-.08l-.26-.07c-.0449.0404-.0954.0741-.15.1-.1 0 0 .15 0 .15-.0054.0699-.0054.1401 0 .21 0 .13.07.1.07.1s.1.05.08 0 .05-.08.08-.1c.053-.0234.0982-.0616.13-.11l.07.08.18.13c.13.1 0 0 0 0s.08-.15.11-.15c.0113-.0452.0282-.0889.05-.13-.08-.05-.16-.08-.23-.13z" fill="#fff"/><path d="m52.2293 23.7701c-.6117.0029-1.2162-.1303-1.77-.39l-.46-.23c-.1304-.059-.2517-.1365-.36-.23l-.26-.15h-.08c-.0793.0004-.1576.0175-.23.05-.1.1.08.31.08.31.7469.6236 1.6554 1.0223 2.62 1.15h.08v1.13l-.77.21c-.34.07-.52.1299-.62.15.0588.0172.1212.0172.18 0 .0764.0099.1536.0099.23 0h2.75c.2064.015.4136.015.62 0-.2003-.0695-.4087-.1132-.62-.13l-1-.21v-1.1301h.08c1.2326-.1588 2.3696-.7472 3.211-1.6618s1.3333-2.0966 1.389-3.3382c-.0271-1.0362-.3756-2.0384-.9973-2.8678-.6216-.8295-1.4857-1.4453-2.4727-1.7621-.0418-.0267-.0904-.0409-.14-.0409s-.0982.0142-.14.0409c-.0176.0484-.0176.1015 0 .15 0 .21.07.2599.13.2899l.31.1301.38.15s.39.23.57.36c.7797.5385 1.3641 1.3148 1.6661 2.213.302.8981.3052 1.8699.0093 2.7701-.2959.9001-.8752 1.6804-1.6512 2.2241-.776.5438-1.7071.8219-2.6542.7928z" fill="#3b4851"/><path d="m39.7404 12.41c.0032-.2761-.0966-.5435-.28-.75-.1006-.0922-.2191-.1629-.3481-.2076s-.2657-.0626-.4019-.0524c-.0274.0025-.0529.0152-.0714.0355-.0185.0204-.0287.047-.0286.0745-.0061.1359.0156.2716.0637.3989.0482.1272.1218.2433.2163.3411.2032.1887.4728.2894.75.28.0261-.0089.0492-.0248.0668-.046.0177-.0211.0292-.0467.0332-.074z" fill="#b6d72b"/><path d="m40.069 12.53c0-.07.13-.15.18-.23s.4699-.38.4699-.38 0-.08 0-.11l-.3599-.18c-.0534 0-.1033.02-.15.06-.2302.3726-.4212.7681-.57 1.18-.2063-.1084-.438-.1593-.6708-.1475-.2328.0119-.458.0861-.6523.2149-.1942.1288-.3503.3075-.4518.5173s-.1447.4431-.1251.6753c0 1.08.82 2.72 1.93 2.34v.33c-.0028.0241.0003.0485.009.0712.0087.0226.0227.0428.0409.0588.0347.0302.0791.0469.125.0469.046 0 .0904-.0167.125-.0469.3498-.2245.7469-.3648 1.1601-.41.446-.1002.9053-.1272 1.36-.08h.06c.0486-.007.0933-.0308.1262-.0674.0329-.0365.0519-.0835.0538-.1326 0-.59 0-1.18 0-1.75v-1.75c-.0013-.0259-.0077-.0512-.0191-.0745s-.0274-.044-.047-.0608c-.0197-.0169-.0426-.0295-.0674-.0372-.0247-.0077-.0507-.0103-.0765-.0075-.2246-.0138-.45.003-.6701.05v-.41c-.0045-.0515-.027-.0998-.0635-.1364-.0366-.0366-.0849-.0591-.1364-.0636-.3167-.0094-.6324.0415-.9301.15-.18.08-.3799.21-.5899.33zm0 2c0-.31 0-.59 0-.9.285-.1829.5997-.3149.93-.39.1226-.0232.243-.0566.36-.1v.86 1.52c-.2589-.0349-.5212-.0349-.78 0-.2079.0271-.4085.0951-.59.2 0-.41 0-.82 0-1.23zm1.69-.52v-.92c.1618-.029.3256-.0457.49-.05v1.54 1.52c-.4324-.0168-.8653.0168-1.29.1-.3431.0689-.6781.1728-1 .31v-.26c.209-.1679.4564-.2813.72-.33.2834-.0489.5743-.0318.85.05.0513-.0051.0986-.0298.1321-.0689.0336-.0391.0507-.0896.0479-.1411 0-.59 0-1.15 0-1.75zm-.38-1.26c-.15.06-.31.08-.46.13-.2847.0721-.5624.1692-.83.29v-.17c.2077-.1764.4445-.3151.7-.41.186-.0821.3866-.1263.59-.13z" fill="#e74b3c"/><path d="m40.8211 12.5599c-.2554.0949-.4923.2337-.7.41v.16c.2676-.1208.5454-.2179.83-.29.15 0 .31-.07.46-.13v-.28c-.2034.0037-.4039.0479-.59.13z" fill="#fff"/><path d="m41.0511 13.2c-.3303.0751-.645.207-.93.39v.9 1.23c.1815-.1049.3821-.1729.59-.2.2589-.0349.5212-.0349.78 0 0-.51 0-1 0-1.52v-.87c-.117.0434-.2374.0769-.36.1z" fill="#fff"/><path d="m41.7891 13.05v.95 1.75c.0028.0515-.0144.102-.0479.1411-.0335.0392-.0809.0638-.1321.0689-.2757-.0818-.5666-.0989-.85-.05-.2636.0487-.511.1621-.72.33v.26c.3218-.1372.6569-.2411 1-.31.4246-.0832.8576-.1168 1.29-.1 0-.52 0-1 0-1.52v-1.57c-.1644.0042-.3282.021-.49.05z" fill="#fff"/><path d="m2.7103 28.3h53.48l2.4-2.19h-58.269988z" fill="#8d6625"/><path d="m56.1909 29.45h-53.47996v32.6799h3.58001v-2.34h46.35005v2.34h3.5499z" fill="#d59937"/></g><path d="m27.3489 48.71h-18.71999v7.79h18.71999z" fill="#8d6625"/><path clip-rule="evenodd" d="m18.7303 52.08h-1.49c-.56 0-.56 1.05 0 1.05h1.49c.0889-.0558.1621-.1333.2128-.2251.0508-.0918.0774-.195.0774-.2999s-.0266-.2082-.0774-.3c-.0507-.0918-.1239-.1692-.2128-.225z" fill="#212d3d" fill-rule="evenodd"/><path clip-rule="evenodd" d="m16.8695 53.36h2.13c.1796-.0178.3451-.1052.461-.2435.1159-.1384.173-.3166.159-.4965.0197-.1843-.0346-.3688-.1508-.5132-.1162-.1443-.2849-.2367-.4692-.2568h-2.13c-.8 0-.8 1.51 0 1.51z" fill="#fff" fill-rule="evenodd"/><path d="m50.9309 48.71h-18.72v7.79h18.72z" fill="#8d6625"/><path clip-rule="evenodd" d="m40.4792 53.36h2.14c.1796-.0178.3451-.1052.461-.2435.1159-.1384.173-.3166.159-.4965.0197-.1843-.0346-.3688-.1508-.5132-.1162-.1443-.2849-.2367-.4692-.2568h-2.14c-.79 0-.79 1.51 0 1.51z" fill="#fff" fill-rule="evenodd"/><path clip-rule="evenodd" d="m49.5107 33.62h-40.11006c-.31912.0013-.63485.0655-.92917.1888s-.56145.3034-.78616.53c-.22472.2266-.40263.4952-.52353.7905-.12091.2953-.18244.6116-.18113.9307v4.88c-.00397.3203.05567.6382.17551.9353s.29747.5674.52258.7953c.22512.2279.49324.4089.78882.5324s.61274.187.93308.187h40.11006c.3212 0 .6393-.0634.936-.1867.2967-.1232.5661-.3039.7928-.5315s.4063-.4978.5283-.795.1842-.6155.1829-.9368v-4.88c-.0027-.6463-.2606-1.2654-.7176-1.7224-.4571-.4571-1.0761-.715-1.7224-.7176zm-17.87 3.38v3.09h-4.35c-1.67 0-1.67-3.09 0-3.09h4.35c.3462.0842.6542.2823.8744.5624.2202.2802.3399.6262.3399.9826s-.1197.7024-.3399.9826c-.2202.2801-.5282.4782-.8744.5624z" fill="#8d6625" fill-rule="evenodd"/><path clip-rule="evenodd" d="m27.2916 40.09h4.35c.3462-.0842.6542-.2823.8744-.5624.2202-.2802.34-.6262.34-.9826s-.1198-.7024-.34-.9826c-.2202-.2801-.5282-.4782-.8744-.5624h-4.35c-1.67 0-1.67 3.09 0 3.09z" fill="#fff" fill-rule="evenodd"/></svg>