<svg fill="none" height="54" viewBox="0 0 51 54" width="51" xmlns="http://www.w3.org/2000/svg"><path clip-rule="evenodd" d="m50.4019 1.81997c-.0394-.34026-.2031-.65399-.4597-.880992-.2565-.227-.5878-.351291-.9303-.349015h-46.58004c-.34315-.004516-.67567.118984-.93268.346405-.257.227422-.42006.542462-.45734.883602-.201359 2.65119.16649 5.31479 1.07886 7.81217.91237 2.49736 2.34822 4.77076 4.21118 6.66786.93508.9413 1.97134 1.7764 3.08997 2.49 1.15995.75 2.53995 1.29 3.23995 2.52.1174.1989.1872.4222.2041.6525.0168.2303-.0197.4614-.1068.6753s-.2224.4048-.3954.5578c-.1729.153-.3789.264-.6018.3244-.1029.0143-.2072.0143-.31 0-.3796-.0344-.7332-.2073-.9933-.4859-.2601-.2785-.4085-.6431-.4168-1.0241.0059-.1491-.0195-.2977-.07454-.4363-.055-.1387-.13835-.2643-.24475-.3688s-.23351-.1856-.37311-.2382c-.1396-.0525-.28865-.0752-.43756-.0667-.14899-.0069-.29777.0169-.4372.0698-.13943.053-.26655.134-.37341.2381-.10686.104-.1912.2289-.24786.3669-.05666.1379-.08438.286-.08148.4352.01347.7662.25586 1.5108.69604 2.1381s1.05798 1.1086 1.77397 1.3819c.3815.1645.7947.2431 1.21.23.5395-.0114 1.0704-.1367 1.5581-.3676s.9212-.5623 1.2719-.9724c.3209-.3898.559-.8409.7-1.3257s.1818-.9932.1199-1.4943c2.1396 1.5913 4.6112 2.6784 7.2301 3.18-.41 3.22-1.6 8.64-5 10.44v1.83h-1.93v2.18h-2.8001v13.88h26.2801v-13.8h-2.83v-2.21h-1.9v-1.83c-3.42-1.8-4.6-7.22-5-10.44 2.6171-.5072 5.0875-1.5937 7.23-3.18-.0667.5012-.0282 1.0108.1129 1.4963.1412.4856.382.9364.7071 1.3237.3473.4141.7799.7482 1.2684.9795s1.0212.3542 1.5616.3605c.4042-.0029.8043-.0809 1.18-.23.719-.2686 1.3399-.7487 1.7807-1.377.4409-.6284.6812-1.3755.6893-2.143.0058-.1491-.0196-.2977-.0746-.4363-.055-.1387-.1384-.2643-.2448-.3688s-.2335-.1856-.3731-.2381c-.1396-.0526-.2886-.0753-.4375-.0668-.1482-.0055-.2959.0193-.4342.0729-.1382.0536-.2641.1348-.3699.2387-.1057.1039-.1892.2283-.2453.3656-.056.1373-.0835.2845-.0807.4328-.0077.3779-.1532.7399-.4092 1.018s-.6047.453-.9807.492c-.1095.0144-.2205.0144-.33 0-.2241-.0586-.4315-.1686-.6057-.3213-.1741-.1526-.3103-.3439-.3977-.5584-.0873-.2145-.1235-.4464-.1056-.6774.018-.2309.0895-.4545.209-.6529.72-1.23 2.0799-1.8 3.2399-2.52 1.1285-.7084 2.172-1.5439 3.1101-2.49 1.8592-1.8997 3.2926-4.1735 4.2047-6.67022.9121-2.4967 1.2821-5.15902 1.0853-7.80982zm-47.18006 1.34v-.31h5.25c-.39585 1.46029-.59425 2.96702-.58997 4.48.00317 3.38413.96348 6.69833 2.77003 9.56003-2.28573-1.4869-4.16306-3.5222-5.46083-5.9203-1.29776-2.39816-1.97474-5.08296-1.96923-7.80973zm37.54006 13.73003c1.8181-2.8569 2.7826-6.1736 2.7799-9.56003.011-1.51209-.1807-3.01882-.57-4.48h5.2201v.31c.0022 2.72953-.6793 5.41615-1.9825 7.81453-1.3031 2.3984-3.1863 4.4321-5.4776 5.9155z" fill="#fddd7a" fill-rule="evenodd"/><path d="m38.8581 41.3201h-26.28v11.88h26.28z" fill="#fff"/><path clip-rule="evenodd" d="m25.7192 14.65 4.32 3.16-1.65-5.11 4.32-3.15996h-5.34l-1.65-5.12-1.65 5.12h-5.37l4.35 3.15996-1.67 5.11z" fill="#f87758" fill-rule="evenodd"/></svg>