<svg fill="none" height="166" viewBox="0 0 167 166" width="167" xmlns="http://www.w3.org/2000/svg"><path d="m166.761 83.02c.017 10.0101-1.793 19.939-5.34 29.3-2.757 7.292-6.539 14.154-11.23 20.38-11.81 15.755-28.841 26.792-48.045 31.136-19.2044 4.345-39.3281 1.713-56.7693-7.424-17.4411-9.137-31.0613-24.183-38.4227-42.444-7.361377-18.262-7.9834-38.5476-1.75475-57.226s18.90135-34.5305 35.74995-44.719c16.8486-10.18846 36.7732-14.0482 56.2076-10.88841 19.4342 3.15978 37.1102 13.13281 49.8632 28.13411 12.753 15.0014 19.751 34.0517 19.741 53.7413z" fill="#f4dbc3"/><g fill="#584a4b"><path d="m66.9281 112.65-17.1-29.63 17.1-29.63h34.2099l17.11 29.63-17.11 29.63z"/><path d="m72.8513 8.12-17.11 29.62h-34.2101l-3-5.23c12.4739-16.1944 30.5034-27.19521 50.6101-30.88z"/><path d="m151.308 34.87-1.66 2.87h-34.21l-17.1099-29.62 3.4199-5.93c19.992 4.3914 37.649 16.034 49.56 32.68z"/><path d="m69.7306 156.01-4.4 7.62c-19.9544-4.638-37.4806-16.51-49.19-33.32l2.27-3.93h34.21z"/><path d="m150.189 132.7c-12.28 16.344-30.171 27.568-50.2302 31.51l-4.74-8.21 17.1002-29.63h34.22z"/><path d="m166.762 83.02c.016 10.0101-1.794 19.939-5.34 29.3l-16.91-29.3 16.92-29.29c3.538 9.3593 5.344 19.2842 5.33 29.29z"/><path d="m24.8502 83.02-17.1 29.63h-1c-7.291935-19.0804-7.291935-40.1797 0-59.26h1z"/></g><path d="m54.1406 35.95 14.11 19.61" stroke="#584a4b" stroke-miterlimit="10" stroke-width="2.59"/><path d="m116.321 36.76-16.29 18.8" stroke="#584a4b" stroke-miterlimit="10" stroke-width="2.59"/><path d="m21.3906 83.02h129.9304" stroke="#584a4b" stroke-miterlimit="10" stroke-width="2.59"/><path d="m114.46 129.34-16.1202-23.03" stroke="#584a4b" stroke-miterlimit="10" stroke-width="2.59"/><path d="m51.2188 129.34 21.6299-23.03" stroke="#584a4b" stroke-miterlimit="10" stroke-width="2.59"/></svg>