<svg fill="none" height="80" viewBox="0 0 166 80" width="166" xmlns="http://www.w3.org/2000/svg"><path d="m159.939 16.95-1.669 34.42h7.549l-4.169-34.42z" fill="#f59b24"/><path d="m133.27 21.08v39s-9.87-7.35-26.32-3.4c-13.0803 3.13-24.5403 10.13-26.0003 23.19h-.3501c-1.5-13.06-12.8499-20.6-26.0499-23.19-15.67-3.08-26.37 8.8-26.37 8.8v-44.68z" fill="#003b45"/><path d="m161.049 16.72-80.3396-16.089995-80.350025 16.089995 80.350025 16.09z" fill="#005966"/><g fill="#f8ac22"><path d="m85.0195 13.36h69.7305l7.05 3.59h-76.5205z"/><path d="m88.2619 16.95c.5323-1.1459.7673-2.4075.6833-3.6682-.084-1.2608-.4843-2.48-1.1639-3.54514-.6797-1.06515-1.6168-1.94191-2.7247-2.54925-1.108-.60734-2.3511-.92569-3.6147-.92569-1.2635 0-2.5067.31835-3.6147.92569s-2.0451 1.4841-2.7247 2.54925c-.6797 1.06514-1.08 2.28434-1.164 3.54514-.084 1.2607.151 2.5223.6834 3.6682z"/></g></svg>