<svg fill="none" height="54" viewBox="0 0 43 54" width="43" xmlns="http://www.w3.org/2000/svg"><path d="m42.2513 49.24h-36.22005v4.64h36.22005z" fill="#d1dce4"/><path d="m.378906 39.72 4.799984 13.45c.09264.2359.2632.4329.48331.5584.22012.1255.47656.172.72672.1316l14.04998-2.55 3.24-5.62-20.06-11.58z" fill="#fedfd2"/><path d="m9.05905 47.84c-.88426-.4849-1.87651-.7391-2.88501-.7391s-2.00071.2542-2.88498.7391l1.88999 5.31c.09264.2358.26319.4329.4833.5584.22012.1255.47657.172.72672.1316l5.55003-1c-.0212-1.0083-.2962-1.995-.7995-2.8689-.5034-.874-1.21896-1.6069-2.08055-2.1311z" fill="#184f78"/><path d="m8.69891 38.75-8.320004.97 17.469994-30.26001 5.82 3.36001z" fill="#fc611f"/><path d="m17.1192 43.61-6.71 1.9-1.70998-6.76 14.96998-25.93 8.42 4.86z" fill="#fd814c"/><path d="m20.4411 51.31-3.32-7.7 14.97-25.93 5.82 3.37z" fill="#fda079"/><path d="m19.5237 6.5338-1.6799 2.90983 20.0658 11.58497 1.68-2.9098z" fill="#d1dce4"/><path d="m41.6117 10.63-16.61-9.58c-.2277-.132648-.4793-.219008-.7404-.254103-.2612-.035096-.5267-.018245-.7813.049591-.2546.067835-.4933.185312-.7024.345692-.2091.16037-.3844.36048-.5159.58882l-2.75 4.76999 20.06 11.59001 2.76-4.78c.2656-.4577.3389-1.0021.204-1.5137-.135-.5117-.4672-.9491-.924-1.2163z" fill="#184f78"/></svg>