<svg fill="none" height="57" viewBox="0 0 51 57" width="51" xmlns="http://www.w3.org/2000/svg"><g clip-rule="evenodd" fill-rule="evenodd"><path d="m3.87143 17.81 11.51997-8.80995c-.4094-.38044-.8587-.71571-1.34-1-.8323-.474-1.7497-.77978-2.7-.89999-.9623-.13496-1.94195-.07374-2.87997.17999-.92961.25112-1.80217.67891-2.57 1.25999-.75605.59629-1.39372 1.32893-1.88001 2.15996-.47768.8432-.78993 1.7698-.91998 2.73-.13.941-.07909 1.8982.14999 2.8201.15444.536.36213 1.0553.62 1.55z" fill="#fff"/><path d="m35.75 8.24006 11.52 8.82004c.2609-.4864.4592-1.0038.59-1.54.2541-.9209.3154-1.8844.18-2.83-.1317-.9599-.4439-1.8862-.92-2.73004-.4961-.83299-1.144-1.56564-1.91-2.16-.7633-.58846-1.6373-1.01701-2.57-1.26001-.9292-.24473-1.8973-.30586-2.85-.17999-.9471.13407-1.8619.43901-2.7.89999-.4771.29045-.9258.62526-1.34 1z" fill="#fff"/><path d="m41.5884 16.44c-2.0382-2.0431-4.4572-3.667-7.1199-4.78-2.516-1.0314-5.2014-1.5875-7.9201-1.64h-.46c-2.8829-.0018-5.7389.5551-8.41 1.64-5.3555 2.2625-9.61749 6.5245-11.87996 11.88-1.09202 2.6693-1.65249 5.526-1.64999 8.41.01408 3.6016.91218 7.1446 2.61541 10.318 1.70324 3.1734 4.15954 5.8802 7.15324 7.8825 2.9936 2.0024 6.4331 3.2392 10.0164 3.6017 3.5833.3626 7.2008-.1601 10.535-1.5222 2.6589-1.1201 5.0764-2.7432 7.1199-4.78 2.0378-2.0386 3.6551-4.4577 4.7601-7.12 1.0965-2.6399 1.6574-5.4714 1.65-8.33.0166-2.8834-.5437-5.741-1.6479-8.4047-1.1043-2.6636-2.7302-5.0794-4.7821-7.1053z" fill="#fff"/><path d="m9.37155 50.43-.69-.56-2.07999 3.73h2.48999l1.31005-2.34-.08-.08c-.36004-.26-.69005-.52-.95005-.75z" fill="#fff"/><path d="m41.3086 51.49 1.18 2.11h2.51l-2-3.48-.67.54c-.31.26-.64.52-.95.75z" fill="#fff"/><path d="m26.5515 9.99997c2.7187.05253 5.4041.60853 7.92 1.64003 4.0278 1.6585 7.4679 4.4829 9.8788 8.1108 2.4108 3.6278 3.6823 7.8934 3.6512 12.2492.0078 2.8767-.5601 5.7259-1.67 8.38-1.1049 2.6622-2.7222 5.0814-4.7599 7.12-2.0435 2.0368-4.4611 3.6598-7.12 4.78-3.3322 1.3786-6.9531 1.9138-10.5416 1.5582-3.5886-.3556-7.034-1.5911-10.0308-3.5968-2.9968-2.0058-5.45247-4.72-7.14932-7.9019-1.69685-3.182-2.58246-6.7334-2.57834-10.3395-.00249-2.884.55798-5.7408 1.65-8.41 2.26247-5.3556 6.52446-9.6176 11.87996-11.88 2.6711-1.0849 5.5271-1.6419 8.41-1.64h.46zm20.72 7.00003-11.52-8.82004c.4143-.37474.8629-.70956 1.34-1 .8381-.46098 1.753-.76592 2.7001-.9.9526-.12586 1.9207-.06471 2.85.18001.9326.24301 1.8067.67154 2.5699 1.26.7661.59435 1.4139 1.327 1.91 2.16.4762.84383.7883 1.77013.9201 2.73003.1354.9456.0741 1.9091-.1801 2.83-.1308.5362-.329 1.0536-.59 1.54zm-31.8799-8.00003-11.52005 8.82003c-.25787-.4947-.46557-1.014-.62-1.55-.22909-.9219-.27999-1.8791-.14999-2.82.13005-.9603.44229-1.8869.91998-2.73.48629-.83111 1.12395-1.56375 1.88-2.16004.76784-.58108 1.6404-1.00887 2.57001-1.25999.93802-.25373 1.91765-.31497 2.88005-.18001.9502.12021 1.8676.42601 2.6999.90001.4813.28429.9306.61956 1.3401 1zm2.8499-.59 7.85-.90001c-2.5876-.00725-5.1598.39784-7.6199 1.20001l-.2001-.25c-.7918-1.03034-1.7768-1.89649-2.9-2.55-2.2787-1.29518-4.9717-1.65377-7.50996-1-1.256.32866-2.43367.90483-3.46399 1.69475-1.03033.78991-1.89254 1.77764-2.53601 2.90524-.66185 1.11754-1.084106 2.36054-1.239995 3.65004-.175863 1.2899-.094301 2.6018.23999 3.86.341355 1.243.914775 2.4101 1.690005 3.44l.06.08 1.49002.77c-.21.44-.42001.9-.60001 1.34-1.69518 4.0886-2.24823 8.5608-1.6001 12.9392s2.4731 8.4986 5.28009 11.9208l-3.82998 6.79-.08002.13-1 1.74h8.27996l.3301-.61 1.7399-3.08c1.2795.8568 2.6433 1.5806 4.0701 2.16 5.9928 2.4664 12.7171 2.4664 18.7099 0 1.2593-.5265 2.4734-1.1553 3.63-1.88l1.5701 2.8.3299.61h8.28l-1-1.74-.0799-.13-3.5701-6.38c1.67-1.9591 3.02-4.1697 4-6.55 1.2228-2.9694 1.8547-6.1488 1.8601-9.36.0103-3.2129-.6221-6.3953-1.8601-9.36-.28-.67-.5899-1.34-.9199-2h.0799l.6901-.93.0499-.07c.7941-1.0261 1.3786-2.1984 1.72-3.45.3391-1.2574.4208-2.5703.2401-3.86-.1776-1.2845-.5985-2.52324-1.2401-3.65003-.6587-1.11638-1.5201-2.09991-2.5399-2.90001-1.039-.78071-2.2164-1.35754-3.47-1.7-2.5318-.65263-5.2182-.29397-7.4901 1-1.1183.66015-2.1022 1.52527-2.9 2.55v.08001l-.47.58999c-1.6692-.45151-3.3826-.71976-5.1099-.8zm-16.71996 42.93003c.26.23.59001.49.95001.75l.07999.08-1.31 2.34h5.36002l2.07998-3.73.69.56zm32.99996.23.6701-.54 2 3.48h-2.49l-1.1801-2.11.1-.08c.31-.23.6401-.49.9501-.75z" fill="#e9473c"/><path d="m24.8009 31.51h-6.8c-.3444.0294-.6653.187-.8991.4416-.2338.2547-.3635.5877-.3635.9334s.1297.6788.3635.9334.5547.4122.8991.4416h8.17c.3687 0 .7222-.1464.9829-.4071s.4071-.6142.4071-.9829v-11.28c-.0294-.3444-.187-.6652-.4416-.8991-.2546-.2338-.5877-.3635-.9334-.3635s-.6788.1297-.9334.3635c-.2546.2339-.4122.5547-.4416.8991z" fill="#282826"/></g><path d="m32.4105 7.14004v-5.48c0-.18423-.0366-.36663-.1077-.53659-.0711-.169959-.1753-.324092-.3065-.45343s-.2868-.231306-.4578-.299973c-.1709-.068666-.3538-.102656-.538-.100006h-10.85c-.3723-.002677-.7305.141961-.9965.402359s-.4183.61542-.4235.98764v5.48c4.4463-1.44 9.2336-1.44 13.68 0z" fill="#fff"/><path d="m11.8195 31.1799h-5.29997v2.26h5.29997z" fill="#282826"/><path d="m27.4189 46.73h-2.29v5.27h2.29z" fill="#282826"/><path d="m45.5708 31.1799h-5.27v2.26h5.27z" fill="#282826"/><path d="m27.4202 11.87h-2.26v5.3h2.26z" fill="#282826"/></svg>