<svg fill="none" height="166" viewBox="0 0 95 166" width="95" xmlns="http://www.w3.org/2000/svg"><path d="m89.4405 96.3799c0 1.3-.4 2.36-.88 2.36h-80.20009c-.49 0-.87994-1.06-.87994-2.36 0-1.31.38994-2.37.87994-2.37h80.20009c.48 0 .88 1.06.88 2.37z" fill="#003b45"/><path d="m68.01 97.14c0 3.15-.9999 5.7-2.1899 5.7h-37.3901c-1.2 0-2.18-2.55-2.18-5.7 0-3.14 1-5.69 2.18-5.69h37.3901c1.21 0 2.1899 2.55 2.1899 5.69z" fill="#005966"/><path d="m53.8195 15.18c0 1.3871-.5511 2.7174-1.5319 3.6982s-2.3112 1.5318-3.6982 1.5318c-.6869 0-1.3669-.1353-2.0014-.3981s-1.2111-.6481-1.6968-1.1337c-.4856-.4857-.8708-1.0623-1.1336-1.6968-.2629-.6345-.3982-1.3146-.3982-2.0014v-9.63001c0-.68682.1353-1.36693.3982-2.00147.2628-.63453.648-1.21106 1.1336-1.69671.4857-.48565 1.0623-.870899 1.6968-1.133731s1.3145-.398072 2.0014-.398072c1.387 0 2.7174.550984 3.6982 1.531803.9808.98081 1.5319 2.3111 1.5319 3.69818z" fill="#003b45"/><path d="m54.9003 15.8h-12.83v12.17h12.83z" fill="#005966"/><path d="m93.4606 153.81.16 10.06-6.73-7.48 5.9-2.32" fill="#003b45"/><path d="m94.0095 151.48c.0018 1.227-.4253 2.416-1.2075 3.361s-1.8701 1.587-3.0757 1.815c-1.2055.228-2.4528.027-3.526-.567-1.0731-.595-1.9047-1.546-2.3508-2.689l-26.57-76.95-1.88-4.77-1.26-3.13c-.0882-.2241-.1583-.4547-.2099-.69-.0974-.3793-.1511-.7685-.1601-1.16 2.0798-.7913 3.9681-2.0149 5.5401-3.59.4772-.4695.9184-.9742 1.3199-1.51.3782.1199.7407.2844 1.08.49 1.0157.5918 1.799 1.5125 2.2201 2.61l.2999.76 2.0701 5.27 27.2999 78.8c.2608.618.4001 1.28.41 1.95z" fill="#005966"/><path d="m1.20123 155.68-.16998 10.07 6.72998-7.49-5.89001-2.32" fill="#003b45"/><path d="m10.7917 155.27c-.5069 1.302-1.51009 2.349-2.78897 2.912-1.27888.562-2.72882.594-4.03107.088-1.30266-.509-2.35015-1.514-2.91259-2.795-.562446-1.28-.593884-2.731-.087406-4.035l29.669936-84.83c.2489-.6463.623-1.2371 1.1011-1.7382.4781-.501 1.0506-.9025 1.6845-1.1814.634-.2788 1.3168-.4295 2.0092-.4433s1.3807.1096 2.0252.3629c.6443.2499 1.233.6243 1.7325 1.1019s.9 1.049 1.1786 1.6814c.2786.6325.43 1.3135.4452 2.0044.0153.6909-.1059 1.3781-.3563 2.0222z" fill="#005966"/><g fill="#003b45"><path d="m24.2816 119.34-11.68-3.62 15.43-47.82 12.28 3.48z"/><path d="m70.1802 117.16 11.68-3.62-15.43-47.81-12.27 3.48z"/><path d="m66.659 33.6499c-3.0823-3.0747-6.8874-5.3261-11.0661-6.5478s-8.5973-1.3745-12.8504-.4444c-4.2532.9301-8.2047 2.9132-11.492 5.7676-3.2874 2.8544-5.8054 6.4886-7.3229 10.5692-1.5176 4.0806-1.9862 8.4769-1.3628 12.7857s2.3187 8.3921 4.9306 11.8752c2.6118 3.4832 6.0565 6.2548 10.0181 8.0605 3.9615 1.8056 8.3131 2.5875 12.6555 2.274 1.6142-.1218 3.2141-.3895 4.78-.7999.789-.2059 1.5667-.4528 2.33-.74 3.3856-1.245 6.4721-3.1869 9.0599-5.7001l.3201-.3099c2.4173-2.4147 4.3351-5.2823 5.6435-8.4386 1.3084-3.1564 1.9819-6.5396 1.9819-9.9564s-.6735-6.8001-1.9819-9.9565c-1.3084-3.1563-3.2262-6.0239-5.6435-8.4386zm-4.9101 28.4601c-.4829.6525-1.0144 1.2676-1.5899 1.84-1.7486 1.75-3.8624 3.0919-6.1901 3.9299-.9317.3374-1.8924.5885-2.87.75-2.1505.371-4.3534.3098-6.48-.1799-.4125-.0786-.8199-.1822-1.2199-.3101-2.6494-.7944-5.0565-2.2421-7.0001-4.2099-2.28-2.2812-3.8566-5.1694-4.5421-8.321-.6854-3.1515-.4509-6.4337.6758-9.4558 1.1266-3.0221 3.0978-5.6569 5.6791-7.5906s5.6638-3.085 8.8807-3.3169 6.4328.4655 9.2647 2.0091 5.1606 3.8683 6.709 6.6976c1.5483 2.8293 2.2512 6.044 2.0247 9.2613-.2264 3.2173-1.3725 6.3018-3.3018 8.8863z"/></g><path d="m63.0395 37.26c-1.9352-1.9704-4.2417-3.538-6.7861-4.6122-2.5443-1.0742-5.2762-1.6336-8.038-1.6461-2.7618-.0124-5.4988.5223-8.0528 1.5735-2.5539 1.0511-4.8744 2.5978-6.8273 4.5507s-3.4996 4.2733-4.5507 6.8273c-1.0512 2.554-1.5859 5.291-1.5734 8.0528.0124 2.7618.5718 5.4937 1.646 8.038 1.0742 2.5444 2.6418 4.8509 4.6123 6.786 1.9576 1.9507 4.2778 3.4997 6.83 4.56 2.1343.8707 4.3984 1.381 6.6999 1.51 1.9317.1296 3.8719-.022 5.76-.45.8975-.1925 1.7798-.4499 2.64-.77 2.8766-1.0264 5.4871-2.6836 7.6401-4.85.44-.44.8499-.8899 1.2299-1.3499 3.3648-4.004 5.1053-9.1244 4.8776-14.3495-.2277-5.225-2.4072-10.1746-6.1075-13.8706zm-12.1401 30.29c-1.9917.3388-4.0306.2809-6-.17-.3815-.0766-.7587-.1734-1.13-.2899-2.4811-.7352-4.7372-2.0833-6.56-3.9201-2.1327-2.1322-3.6053-4.8342-4.2413-7.7821s-.4084-6.0167.6555-8.8385 2.919-5.277 5.343-7.0712c2.4239-1.7942 5.3138-2.8514 8.3233-3.0448 3.0096-.1933 6.0111.4853 8.6447 1.9545 2.6336 1.4693 4.7877 3.6668 6.204 6.3293s2.0348 5.6769 1.7814 8.6819c-.2535 3.0051-1.3683 5.8733-3.2106 8.2609-.4015.5357-.8427 1.0405-1.32 1.51-1.5719 1.5751-3.4602 2.7986-5.54 3.59-.94.3529-1.9108.6174-2.8999.79z" fill="#005966"/></svg>