<svg fill="none" height="55" viewBox="0 0 75 55" width="75" xmlns="http://www.w3.org/2000/svg"><path clip-rule="evenodd" d="m37.6081.739977h.49c0 .410003 1.9.740003 2.6 0 1-1 2.59 0 2.59 0v2.909993c-.3615-.30721-.8205-.47587-1.295-.47587-.4744 0-.9334.16866-1.295.47587-.3574.287-.7962.45406-1.254.4774-.4577.02333-.9112-.09823-1.296-.3474v2.36h-.49c0-1.67-.08-3.47-.08-5.419998z" fill="#c1c2bb" fill-rule="evenodd"/><path clip-rule="evenodd" d="m38.1989 6.08005c1.83.18 3.83 1.83 9.49 5.00005.2735.1482.5016.3679.66.6356.1585.2677.2415.5733.24.8844v6.6599h11c.306.0014.6087.0629.8909.1812s.5383.2911.7537.5084c.2155.2172.386.4748.5019.758s.1748.5865.1735.8925v25 5.09l-20.62-.05v-8.6401h-6.84v8.56h-20.57v-2.88-2.57-24.52c0-.6154.2424-1.2061.6747-1.6441.4324-.4379 1.0199-.688 1.6353-.6959h11v-6.66c-.0013-.3086.0795-.612.2341-.8791.1547-.2671.3776-.4883.6459-.6408 5.58-3.11004 7.61-4.75004 9.41-5.00004.2298-.01496.4602-.01496.69 0z" fill="#eeefe7" fill-rule="evenodd"/><path clip-rule="evenodd" d="m.999064 25.6799h12.780036s.07 0 .07.1v25.79h-13.060035v-25.69c-.000249-.0497.018055-.0978.051338-.1348.033284-.0369.079158-.0602.128662-.0652z" fill="#e3e4dd" fill-rule="evenodd"/><path d="m5.82812 31.3101h-3.5v2.78h3.5z" fill="#7ebac8"/><path d="m12.0117 31.3101h-3.49998v2.78h3.49998z" fill="#7ebac8"/><path d="m5.98828 37.22h-3.5v2.8h3.5z" fill="#7ebac8"/><path d="m12.1602 37.22h-3.50004v2.8h3.50004z" fill="#7ebac8"/><path d="m6.17188 43.16h-3.5v2.78h3.5z" fill="#7ebac8"/><path d="m12.3086 43.16h-3.50001v2.78h3.50001z" fill="#7ebac8"/><path clip-rule="evenodd" d="m61.9994 25.6799h12.83c.0197 0 .0392.0039.0574.0115.0182.0075.0347.0185.0486.0325.014.0139.025.0304.0326.0486.0075.0182.0114.0377.0114.0574v25.74h-13.12v-25.79c.0022-.0257.0135-.0499.0318-.0682.0183-.0182.0424-.0295.0682-.0318z" fill="#e3e4dd" fill-rule="evenodd"/><path d="m66.8984 31.3101h-3.5v2.78h3.5z" fill="#7ec0d0"/><path d="m73.0703 31.3101h-3.5v2.78h3.5z" fill="#7ec0d0"/><path d="m67.0781 37.22h-3.5v2.8h3.5z" fill="#7ec0d0"/><path d="m73.25 37.22h-3.5v2.8h3.5z" fill="#7ec0d0"/><path d="m67.2305 43.16h-3.5v2.78h3.5z" fill="#7ec0d0"/><path d="m73.3984 43.16h-3.5v2.78h3.5z" fill="#7ec0d0"/><path d="m41.2592 43.03h-6.81v8.56h6.81z" fill="#ccac73"/><path clip-rule="evenodd" d="m46.2688 52.75c-.0022.0533-.0237.104-.0605.1426-.0368.0387-.0863.0626-.1395.0674h-16.56c-.0531-.0048-.1027-.0287-.1395-.0674-.0367-.0386-.0582-.0893-.0605-.1426v-.51c-.0013-.0271.0029-.0541.0123-.0796.0094-.0254.024-.0487.0427-.0683s.0412-.0353.0661-.046c.025-.0106.0518-.0161.0789-.0161h16.56c.0272 0 .054.0055.079.0161.0249.0107.0474.0264.0661.046s.0332.0429.0427.0683c.0094.0255.0136.0525.0122.0796z" fill="#d6d7d0" fill-rule="evenodd"/><path clip-rule="evenodd" d="m47.5899 54.16c.0015.028-.003.0559-.013.0821-.0101.0261-.0255.0498-.0453.0696s-.0435.0352-.0696.0453c-.0262.01-.0541.0145-.0821.013h-19c-.0271.0001-.0539-.0054-.0789-.0161-.0249-.0107-.0474-.0263-.0661-.0459-.0187-.0197-.0333-.0429-.0427-.0683-.0095-.0255-.0136-.0526-.0123-.0797v-.54c0-.053.0211-.1039.0586-.1414s.0884-.0585.1414-.0585h19c.0271-.0014.0542.0027.0796.0122.0255.0094.0487.0239.0684.0427.0196.0187.0352.0412.0459.0661.0107.025.0162.0518.0161.0789z" fill="#d6d7d0" fill-rule="evenodd"/><path clip-rule="evenodd" d="m37.89 11.23c-.8188 0-1.6192.2428-2.3001.6977-.6808.4549-1.2114 1.1015-1.5248 1.858-.3133.7564-.3953 1.5889-.2355 2.3919.1597.8031.554 1.5408 1.133 2.1198s1.3166.9733 2.1197 1.133c.8031.1598 1.6355.0778 2.392-.2356.7565-.3133 1.4031-.8439 1.858-1.5248.4549-.6808.6977-1.4812.6977-2.3.004-.5448-.1004-1.085-.307-1.5891-.2066-.504-.5115-.962-.8967-1.3472-.3852-.3853-.8432-.6901-1.3473-.8967-.5041-.2067-1.0442-.311-1.589-.307z" fill="#e99f00" fill-rule="evenodd"/><path clip-rule="evenodd" d="m37.8898 18.68c-.6542-.0019-1.2931-.1977-1.8362-.5626-.543-.365-.9657-.8826-1.2147-1.4876s-.3131-1.2702-.1842-1.9116c.1288-.6414.4449-1.2303.9082-1.6922s1.0531-.7762 1.6949-.9031 1.3068-.0607 1.911.1901c.6043.2508 1.1206.675 1.4839 1.2191.3633.5442.5571 1.1837.5571 1.8379.0014.4359-.0837.8678-.2502 1.2706s-.4111.7687-.7198 1.0765c-.3087.3077-.6753.5513-1.0786.7166-.4034.1652-.8355.249-1.2714.2463z" fill="#fff" fill-rule="evenodd"/><path clip-rule="evenodd" d="m35.8889 13.1.61.62-.25.26-.62-.62z" fill="#4d4d4f" fill-rule="evenodd"/><path clip-rule="evenodd" d="m37.7109 12.33h.39v.88h-.39z" fill="#4d4d4f" fill-rule="evenodd"/><path clip-rule="evenodd" d="m38.1009 18.4h-.39v-.87h.39z" fill="#4d4d4f" fill-rule="evenodd"/><path clip-rule="evenodd" d="m35.8889 17.65-.26-.28.62-.62.25.26z" fill="#4d4d4f" fill-rule="evenodd"/><path clip-rule="evenodd" d="m39.3292 14.34c0-.05-.07-.05-.13 0l-1.13.8c-.042-.0153-.088-.0153-.13 0l-.79-.67c-.0093-.0124-.0214-.0225-.0353-.0295-.0138-.0069-.0292-.0105-.0447-.0105s-.0308.0036-.0447.0105c-.0139.007-.026.0171-.0353.0295v.08c-.0124.0093-.0225.0214-.0294.0353-.007.0139-.0106.0292-.0106.0447s.0036.0308.0106.0447c.0069.0139.017.026.0294.0353l.8.66c.0035.0629.0281.1228.0699.1699.0417.0472.0981.0789.1601.0901v1.46h-.02v-1.49c.0582-.0138.1098-.0471.1462-.0945.0364-.0473.0554-.1058.0538-.1655l1.13-.79c.0164-.0235.0251-.0514.0251-.08s-.0087-.0565-.0251-.08z" fill="#3f1c00" fill-rule="evenodd"/><path d="m35.7594 15.1899h-.9v.36h.9z" fill="#4d4d4f"/><path clip-rule="evenodd" d="m40.9308 15.1899v.36h-.88v-.36z" fill="#4d4d4f" fill-rule="evenodd"/><path clip-rule="evenodd" d="m39.5612 16.75.6201.62-.28.28-.6201-.64z" fill="#4d4d4f" fill-rule="evenodd"/><path clip-rule="evenodd" d="m39.9013 13.1.28.26-.6201.62-.28-.26z" fill="#4d4d4f" fill-rule="evenodd"/><g fill="#7ec0d0"><path d="m57.6602 27.8101h-5.5v4.37h5.5z"/><path d="m50.2886 34.13h-5.48v4.37h5.48z"/><path d="m57.6602 34.13h-5.5v4.37h5.5z"/><path d="m50.2886 27.8101h-5.48v4.37h5.48z"/><path d="m50.2886 40.46h-5.48v4.3699h5.48z"/><path d="m57.6602 40.46h-5.5v4.3699h5.5z"/><path d="m30.9492 27.8101h-5.5v4.37h5.5z"/><path d="m23.5703 34.13h-5.5v4.37h5.5z"/><path d="m30.9492 34.13h-5.5v4.37h5.5z"/><path d="m23.5703 27.8101h-5.5v4.37h5.5z"/><path d="m23.5703 40.46h-5.5v4.3699h5.5z"/><path d="m30.9492 40.46h-5.5v4.3699h5.5z"/></g></svg>