<svg fill="none" height="53" viewBox="0 0 46 53" width="46" xmlns="http://www.w3.org/2000/svg"><g clip-rule="evenodd" fill-rule="evenodd"><path d="m22.7392 21.35c-1.2244 1.0408-2.783 1.6053-4.39 1.59-1.0563.0181-2.101-.2231-3.0425-.7025-.9414-.4795-1.7509-1.1825-2.3575-2.0475.69 4.84 5.5 7.54 11.34 7.56 6 0 10.95-2.88 11.38-8-.5702.982-1.3932 1.7931-2.3834 2.3489s-2.1114.8358-3.2466.8111c-1.5774.0169-3.109-.5291-4.32-1.54l-1.54 2-1.31-1.91z" fill="#fff"/><path d="m25.5403 20.6-1.36 2.65-1.36-2.65c.0533-.3408.2289-.6505.4939-.8714.265-.2208.6013-.3376.9461-.3286.3233.0085.6323.1353.8682.3565.236.2212.3825.5214.4118.8435z" fill="#fff"/><path d="m29.9218 21.74c-2.88 0-5.2499-2.06-5.2499-4.61s2.3699-4.63 5.2499-4.63 5.2201 2.09 5.2201 4.63-2.3501 4.61-5.2201 4.61z" fill="#fff"/><path d="m14.4596 12.15c-.64-.67-.64-2.09-.56-2.99998.1395.32411.3476.61409.61.84998.4744.4188 1.0767.6646 1.7086.6973.632.0327 1.2564-.1497 1.7714-.5173 1.8867-1.06186 4.0151-1.6197 6.18-1.6197 2.165 0 4.2934.55784 6.18 1.6197.5135.3669 1.1362.5488 1.7665.5161.6302-.0327 1.2307-.2781 1.7035-.6961.2591-.24112.4696-.52964.62-.84998.1763 1.03478-.0222 2.09848-.56 2.99998l-.42.43c-1.0642-.6556-2.29-1.0019-3.54-1-1.216-.0409-2.4177.2718-3.4596.9001-1.0418.6283-1.8791 1.5453-2.4104 2.6399-.5203-1.0946-1.3495-2.013-2.3855-2.642-1.0359-.6291-2.2333-.9412-3.4445-.898-1.198-.0062-2.3769.3006-3.42.89z" fill="#fff"/><path d="m18.22 21.74c-2.88 0-5.22-2.06-5.22-4.61s2.34-4.63 5.22-4.63 5.22 2.09 5.22 4.63-2.34 4.61-5.22 4.61z" fill="#fff"/><path d="m19.94 35.05c-.28-3.62-3.42-7.5-4.94-9.48 2.686 1.8671 5.8892 2.8463 9.16 2.8 3.6379.1456 7.2006-1.0622 10-3.39-1.46 2-4.08 5.83-4.16 9.61-.0686 2.999.4652 5.9811 1.57 8.77-.8401-.7758-1.9467-1.1983-3.09-1.18-.5864-.0151-1.1696.0907-1.7133.3109s-1.0361.5502-1.4467.9691c-.1331.1246-.2537.2619-.36.41-.1476-.1544-.312-.2919-.49-.41-.774-.5474-1.7021-.8346-2.65-.82-.9587-.0145-1.8961.2839-2.67.85-.0749.0427-.1453.093-.21.15.0075-.0526.0244-.1034.05-.15.8492-2.7275 1.1649-5.5931.93-8.44z" fill="#fff"/><path d="m15.4714 16c-.0624.0488-.1416.071-.2203.0616s-.1505-.0494-.1997-.1116c-.0234-.0307-.0404-.0658-.05-.1031-.0097-.0374-.0117-.0763-.0062-.1145.0056-.0382.0188-.0748.0387-.1079.02-.033.0463-.0618.0775-.0845.7411-.6629 1.7059-1.0202 2.7-1 .9288.0668 1.815.4157 2.54 1 .0544.0544.0849.1281.0849.205s-.0305.1507-.0849.205c-.07.16-.25.18-.41.08-.635-.5011-1.4037-.8038-2.21-.87-.8514-.0077-1.6751.3026-2.31.87z" fill="#000"/><path d="m27.8586 16c-.0301.0239-.0646.0416-.1016.052-.037.0105-.0757.0135-.1138.0088-.0382-.0046-.075-.0169-.1084-.0359s-.0627-.0444-.0861-.0749c-.0282-.0262-.0506-.0579-.066-.0932-.0154-.0352-.0233-.0733-.0233-.1118s.0079-.0765.0233-.1118.0378-.067.066-.0932c.7411-.6629 1.7059-1.0202 2.7-1 .9288.0668 1.8149.4157 2.54 1 .062.0461.1046.1137.1194.1895.0148.0759.0007.1545-.0394.2205-.019.0352-.0455.0657-.0777.0894-.0321.0238-.0692.0401-.1084.0477-.0392.0077-.0796.0065-.1184-.0034-.0387-.0099-.0748-.0282-.1056-.0537-.6485-.4974-1.4256-.7993-2.2399-.87-.8512-.0058-1.6742.3043-2.31.87z" fill="#000"/><path d="m30.1207 17.13c.2624.0011.5138.1052.7.29.1861.1822.2937.4297.3.69.0008.134-.0253.2667-.0769.3904-.0515.1237-.1274.2358-.2231.3296-.1878.1811-.439.2816-.7.28-.2574-.001-.5046-.1013-.69-.28-.0939-.0946-.1679-.2071-.2177-.3307-.0498-.1237-.0743-.256-.0723-.3893 0-.2652.1054-.5196.293-.7071.1875-.1875.4418-.2929.707-.2929z" fill="#000"/><path d="m17.7301 17.13c.2589.0037.5062.1076.69.29.1897.1805.301.4283.31.69-.0005.1347-.0282.2679-.0815.3916-.0532.1238-.131.2355-.2285.3284-.0898.0912-.1974.1631-.3161.2113-.1186.0481-.2458.0715-.3739.0687-.2574-.001-.5046-.1013-.69-.28-.0939-.0946-.1679-.2071-.2177-.3307-.0498-.1237-.0744-.256-.0723-.3893-.0015-.1288.0235-.2564.0734-.3751s.1236-.2259.2166-.3149c.1838-.1824.4312-.2863.69-.29z" fill="#000"/><path d="m18.6289 47.37c.2266-.3585.4336-.7291.62-1.11.0489.3922.1783.7701.38 1.11z" fill="#000"/><path d="m45.1094 46.73-34.5-.47v1.7l34.5.46z" fill="#ffc01c"/><path d="m45.1094 51.79-34.5-.4599v1.13l34.17.4599c.1097.0109.2202.0109.33 0z" fill="#e6ad19"/><path d="m10.6094 46.4199 34.5.46v-1.44c-.1925-.0517-.3907-.0786-.59-.08l-33.91-.43z" fill="#fde34f"/><path d="m45.1094 50.22-34.5-.43v1.5401l34.5.49z" fill="#e6ad19"/><path d="m10.6094 49.79 34.5.43v-1.9499l-34.5-.44z" fill="#ffc01c"/><path d="m4.28125 47.58 5.35001.12v-2.67l-5.35001 2.29z" fill="#efbb86"/><path d="m9.63141 50.22-5.19-.12v.15l5.19 2.11z" fill="#efbb86"/><path d="m9.63126 47.7001-5.35001-.12.16 2.5199 5.19001.12z" fill="#f2c89d"/><path d="m4.38062 49.1699-2.49.08 2.54999 1v-.15z" fill="#1a1a1a"/><path d="m1.88831 49.25 2.48999-.03-.05002-.74-2.53998.02-.800019.36z" fill="#2b2b2b"/><path d="m3.76953 47.5801h.51001v-.26z" fill="#1a1a1a"/><path d="m1.78906 48.5001 2.53998-.0201-.04999-.8999h-.51001z" fill="#1a1a1a"/><path d="m18.2196 11.61c1.2112-.0432 2.4086.269 3.4445.898 1.036.629 1.8652 1.5474 2.3855 2.642.5313-1.0945 1.3686-2.0115 2.4104-2.6399 1.0419-.6283 2.2436-.941 3.4596-.9001 1.25-.0019 2.4758.3444 3.54 1l.42-.43c.5378-.9015.7363-1.9652.56-3.00001-.1504.32034-.3609.60892-.62.85001-.4728.4181-1.0733.6634-1.7035.6961-.6303.0327-1.253-.1492-1.7665-.5161-1.8866-1.06183-4.015-1.61967-6.18-1.61967-2.1649 0-4.2933.55784-6.18 1.61967-.515.3677-1.1394.55-1.7714.5173-.6319-.0327-1.2342-.2784-1.7086-.6973-.2624-.23587-.4705-.5259-.61-.85001-.08.90001-.08 2.32001.56 3.00001l.34.35c1.0431-.5894 2.222-.8962 3.42-.89z" fill="#999"/><path d="m23.44 17.13c0-2.54-2.34-4.63-5.22-4.63s-5.22 2.09-5.22 4.63 2.34 4.61 5.22 4.61 5.22-2.06 5.22-4.61zm-8-1.18c-.0624.0488-.1416.071-.2203.0616s-.1505-.0495-.1997-.1116c-.0234-.0307-.0404-.0658-.05-.1031-.0097-.0374-.0118-.0763-.0062-.1145s.0188-.0749.0387-.1079c.02-.0331.0463-.0618.0775-.0845.7411-.6629 1.7059-1.0202 2.7-1 .9288.0668 1.815.4157 2.54 1 .0544.0544.0849.1281.0849.205s-.0305.1506-.0849.205c-.07.16-.25.18-.41.08-.635-.5012-1.4038-.8038-2.21-.87-.8514-.0077-1.6751.3025-2.31.87zm2.26 1.18c.2589.0037.5062.1076.69.29.1897.1805.301.4283.31.69-.0005.1347-.0282.2679-.0815.3916-.0533.1238-.131.2355-.2285.3284-.0899.0912-.1974.1631-.3161.2113-.1186.0481-.2459.0715-.3739.0687-.2575-.001-.5046-.1013-.69-.28-.0939-.0946-.1679-.2071-.2177-.3307-.0498-.1237-.0744-.256-.0723-.3893-.0015-.1288.0235-.2564.0734-.3751s.1236-.2259.2166-.3149c.1838-.1824.4311-.2863.69-.29z" fill="#fde34f"/><path d="m29.9218 12.5c-2.88 0-5.2499 2.09-5.2499 4.63s2.3699 4.61 5.2499 4.61 5.2201-2.06 5.2201-4.61-2.3501-4.63-5.2201-4.63zm.2001 6.61c-.2575-.001-.5047-.1013-.69-.28-.0939-.0946-.168-.2071-.2178-.3307-.0498-.1237-.0743-.256-.0722-.3893 0-.2652.1053-.5196.2929-.7071.1875-.1875.4419-.2929.7071-.2929.2623.0011.5137.1053.7.29.186.1822.2936.4297.3.69.0008.134-.0254.2668-.0769.3905-.0516.1237-.1274.2357-.2231.3295-.1879.1811-.4391.2816-.7.28zm-2.2601-3.11c-.03.0239-.0646.0416-.1016.052s-.0757.0134-.1138.0088c-.0382-.0047-.075-.0169-.1084-.0359s-.0627-.0445-.0861-.0749c-.0282-.0262-.0506-.0579-.066-.0932s-.0233-.0733-.0233-.1118.0079-.0766.0233-.1118c.0154-.0353.0378-.067.066-.0932.7411-.6629 1.7059-1.0202 2.7-1 .9288.0668 1.8149.4157 2.54 1 .062.0461.1046.1136.1194.1895.0148.0758.0007.1545-.0394.2205-.019.0352-.0455.0657-.0777.0894-.0321.0237-.0692.04-.1084.0477s-.0796.0064-.1184-.0034c-.0387-.0099-.0748-.0282-.1056-.0537-.6485-.4974-1.4256-.7993-2.2399-.87-.8512-.0058-1.6742.3042-2.31.87z" fill="#fde34f"/><path d="m30.0002 22.9401c-1.5774.0169-3.1091-.5291-4.3201-1.54l-1.5399 2-1.3101-1.91-.1299-.1c-1.2245 1.0408-2.7831 1.6053-4.39 1.5899-1.0564.0182-2.1011-.223-3.0425-.7025-.9414-.4794-1.7509-1.1825-2.3575-2.0475.69 4.84 5.5 7.54 11.34 7.56 6 0 10.95-2.88 11.38-8-.5702.982-1.3933 1.7932-2.3835 2.349s-2.1113.8358-3.2465.8111z" fill="#999"/><path d="m34.1795 25c-2.7994 2.3278-6.3621 3.5356-10 3.39-3.2708.0463-6.474-.9328-9.16-2.8 1.52 2 4.66 5.86 4.94 9.48.235 2.847-.0808 5.7125-.93 8.44l-.0499.15.2099-.15c.774-.5661 1.7113-.8645 2.67-.85.948-.0146 1.876.2725 2.6501.82.178.1181.3423.2556.4899.41.1063-.1481.2269-.2855.36-.41.4106-.419.9031-.7489 1.4467-.9691.5437-.2202 1.127-.326 1.7134-.3109 1.1433-.0183 2.2498.4043 3.0899 1.18-1.1047-2.7889-1.6386-5.7711-1.57-8.77.08-3.78 2.7001-7.56 4.1601-9.61z" fill="#999"/><path d="m18.4201 18.83c.0975-.0929.1753-.2046.2285-.3284.0533-.1237.081-.2569.0815-.3916-.009-.2617-.1203-.5095-.31-.69-.1838-.1824-.4311-.2863-.69-.29-.2588.0037-.5062.1076-.69.29-.093.089-.1667.1962-.2166.3149s-.0749.2463-.0734.3751c-.0021.1333.0225.2656.0723.3893.0498.1236.1238.2361.2177.3307.1854.1787.4326.279.69.28.1281.0028.2553-.0206.3739-.0687.1187-.0482.2263-.1201.3161-.2113z" fill="#000"/><path d="m17.78 15.0801c.8151.0786 1.5882.399 2.22.92.16.1.34.08.41-.08.0544-.0544.0849-.1281.0849-.205s-.0305-.1506-.0849-.205c-.725-.5843-1.6112-.9332-2.54-1-.9941-.0202-1.9589.3371-2.7 1-.0312.0227-.0575.0514-.0775.0845-.0199.033-.0331.0697-.0387.1079-.0055.0382-.0035.077.0062.1144.0096.0374.0266.0725.05.1032.0492.0621.121.1022.1997.1116s.1579-.0128.2203-.0616c.6349-.5675 1.4585-.8777 2.31-.87z" fill="#000"/><path d="m24.2603 19.4c-.3448-.009-.6811.1078-.9461.3286-.265.2209-.4406.5306-.4939.8714l1.36 2.65 1.36-2.65c-.0293-.3221-.1758-.6223-.4118-.8435-.2359-.2212-.5449-.348-.8682-.3565z" fill="#ffc01c"/><path d="m29.1411 18.11c-.0021.1333.0225.2656.0723.3893.0498.1236.1238.2361.2177.3307.1854.1787.4325.279.69.28.2609.0016.5121-.0989.7-.28.0957-.0938.1716-.2059.2231-.3296s.0777-.2564.0769-.3904c-.0064-.2603-.114-.5078-.3-.69-.1863-.1848-.4377-.2889-.7-.29-.2652 0-.5196.1054-.7071.2929s-.2929.4419-.2929.7071z" fill="#000"/><path d="m30.1694 15.08c.8143.0707 1.5915.3726 2.24.87.0308.0255.0669.0439.1056.0537.0387.0099.0791.0111.1184.0034.0392-.0077.0762-.0239.1084-.0476s.0587-.0543.0777-.0895c.0401-.066.0542-.1447.0394-.2205s-.0574-.1434-.1195-.1895c-.725-.5843-1.6112-.9332-2.5399-1-.9941-.0202-1.959.3372-2.7 1-.0282.0262-.0507.058-.066.0932-.0154.0353-.0233.0733-.0233.1118s.0079.0765.0233.1118c.0153.0353.0378.067.066.0932.0234.0304.0527.0559.0861.0749s.0702.0312.1084.0359c.0381.0046.0768.0016.1138-.0088s.0715-.0281.1016-.052c.6359-.5658 1.4589-.8758 2.31-.87z" fill="#000"/><path d="m19.0019 43.49c.8491-2.7275 1.1649-5.5931.93-8.44-.28-3.62-3.4201-7.5-4.9401-9.48 2.686 1.8671 5.8892 2.8463 9.1601 2.8 3.6378.1456 7.2006-1.0622 10-3.39-1.46 2-4.0801 5.83-4.1601 9.61-.0686 2.999.4653 5.9811 1.5701 8.77-.8402-.7758-1.9467-1.1983-3.0901-1.18-.5864-.0151-1.1696.0907-1.7132.3109-.5437.2202-1.0362.5502-1.4467.9691-.1332.1246-.2538.2619-.36.41-.1477-.1544-.312-.2919-.4901-.41-.774-.5474-1.702-.8346-2.6499-.82-.9588-.0145-1.8961.2839-2.67.85l-.21.15zm16.3599 2c.7033-.6783 1.3708-1.3926 2-2.14 2.3826-2.9673 4.0122-6.4667 4.75-10.2 1.91-9.57-6.19-10.55-6.19-10.55l-.3399.29c.7092-1.2925 1.0742-2.7457 1.06-4.22.1383-2.1839-.579-4.3359-2-6 1.33-1.42.69-4.39998.69-4.39998s-.49-.64002-1-.64002c-.29 0-.57.18002-.8.77002-.0581.37171-.2495.70953-.5384.95057-.2889.24103-.6555.36881-1.0316.35943-.3594-.00407-.7088-.11937-1-.33002-2.0673-1.16718-4.401-1.78051-6.775-1.78051s-4.7078.61333-6.775 1.78051c-.2938.20561-.6416.32037-1 .33002-.3761.00938-.7428-.1184-1.0317-.35943-.2889-.24104-.4802-.57886-.5383-.95057-.23-.59-.52-.77002-.8-.77002-.51 0-1 .64002-1 .64002s-.6401 2.99998.6699 4.39998c-1.1362 1.4887-1.8102 3.2784-1.9382 5.1469-.128 1.8684.2956 3.7333 1.2182 5.3631l-.1799.26c-1.83.54-7.00004 2.8-5.00004 10.67.87279 3.4314 2.51034 6.6209 4.79004 9.33.4207.6236.9031 1.2031 1.44 1.73zm-11.0799-17.77c-5.84 0-10.65-2.72-11.34-7.56.6066.865 1.4161 1.568 2.3575 2.0475.9415.4794 1.9861.7206 3.0425.7025 1.6069.0153 3.1655-.5492 4.39-1.59l.1299.1 1.3101 1.91 1.5399-2c1.211 1.0109 2.7427 1.5569 4.3201 1.54 1.1352.0248 2.2563-.2553 3.2465-.8111s1.8133-1.3669 2.3834-2.3489c-.43 5.09-5.3699 8-11.3799 8zm-.85-10.62c0 2.55-2.3401 4.61-5.2201 4.61s-5.22-2.06-5.22-4.61 2.34-4.63 5.22-4.63 5.2201 2.09 5.2201 4.63zm1.23 0c0-2.54 2.3699-4.63 5.2499-4.63s5.2201 2.09 5.2201 4.63-2.3501 4.61-5.2201 4.61-5.2499-2.06-5.2499-4.61zm-10.21-5c-.64-.67-.64-2.09-.56-3.00002.1395.3241.3476.61414.61.85003.4743.41879 1.0766.66469 1.7085.69729.632.0327 1.2564-.1496 1.7715-.5173 1.8866-1.06185 4.015-1.61969 6.18-1.61969 2.1649 0 4.2933.55784 6.18 1.61969.5135.3669 1.1362.5488 1.7664.5161s1.2308-.2781 1.7036-.69609c.259-.24112.4695-.52969.62-.85003.1763 1.03482-.0223 2.09852-.56 3.00002l-.42.43c-1.0643-.6556-2.2901-1.0018-3.5401-1-1.216-.0408-2.4177.2718-3.4595.9001-1.0419.6283-1.8792 1.5453-2.4104 2.6399-.5203-1.0946-1.3496-2.013-2.3855-2.642-1.036-.6291-2.2334-.9412-3.4446-.898-1.198-.0061-2.3769.3006-3.4199.89zm9.72 11.1-1.36-2.65c.0533-.3408.2288-.6505.4938-.8714.265-.2208.6013-.3376.9462-.3286.3233.0084.6322.1353.8682.3565.2359.2212.3825.5214.4118.8435z" fill="#353f49"/><path d="m17 17.7999c.0092.0959.0475.1867.11.26.0705.0593.1581.0943.25.1.1013-.0042.199-.039.28-.1.0663-.0709.1053-.163.11-.26-.0064-.1025-.0449-.2005-.11-.2799-.081-.061-.1787-.0959-.28-.1001-.0919.0057-.1795.0408-.25.1001-.0611.0818-.0991.1784-.11.2799z" fill="#fff"/><path d="m30.1697 17.72c-.0054.0491.0019.0988.0212.1443s.0498.0853.0888.1157c.031.035.0697.0623.1131.0796.0434.0174.0903.0244.1369.0204.048.0029.0961-.0044.1411-.0215.045-.017.0859-.0435.1199-.0775s.0604-.0749.0775-.1199.0244-.0931.0215-.1411c.004-.0466-.003-.0935-.0204-.1369s-.0446-.0821-.0796-.1131c-.0304-.039-.0702-.0695-.1157-.0888-.0455-.0192-.0952-.0266-.1443-.0212-.0939.0048-.1827.0443-.2492.1108s-.106.1552-.1108.2492z" fill="#fff"/></g><path d="m36.7319 1.18994h-.31v3.01001h.31z" fill="#f28205"/><path clip-rule="evenodd" d="m36.5703 4.54004c.1114 0 .2182-.04422.297-.12299.0788-.07876.123-.1856.123-.29699-.0154-.099-.0657-.18923-.1418-.2544s-.173-.10101-.2732-.10101-.1971.03584-.2732.10101-.1264.1554-.1418.2544c-.0014.05467.0083.10907.0283.15997s.05.09728.0882.13641c.0382.03914.0839.07027.1343.09149.0504.02123.1045.03213.1592.03211z" fill="#f28205" fill-rule="evenodd"/><path clip-rule="evenodd" d="m11.5102 1.85992c-.2255 0-.4417-.08955-.6011-.24896-.1594-.1594-.2489-.37558-.2489-.60101 0-.225435.0895-.44167.2489-.601075.1594-.159406.3756-.248963.6011-.248963h25.8399c.2255 0 .4417.089557.6011.248963.1594.159405.249.37564.249.601075 0 .22543-.0896.44161-.249.60101-.1594.15941-.3756.24896-.6011.24896h-4.8399v4.85999c0 .21045-.0829.41245-.2308.56219-.1479.14975-.3488.23523-.5593.23786h-14.5799c-.1033-.00129-.2053-.02312-.3001-.06415s-.1805-.1005-.2522-.17493c-.0716-.07442-.1278-.1623-.1651-.2586-.0374-.0963-.0553-.19911-.0527-.30237v-4.85999z" fill="#fff" fill-rule="evenodd"/><path clip-rule="evenodd" d="m36.1881 4.51001h.77l.36 4.33997h-1.49z" fill="#cb8d2a" fill-rule="evenodd"/></svg>