<svg fill="none" height="58" viewBox="0 0 44 58" width="44" xmlns="http://www.w3.org/2000/svg"><path d="m42.3384 43.66c.0013-3.7314-1.0243-7.3912-2.9645-10.5785-1.9403-3.1873-4.7203-5.7791-8.0355-7.4915-.2668-.1488-.4918-.3624-.6543-.6211-.1626-.2586-.2574-.554-.2757-.8589v-21.00001h-16.82v21.00001c-.0184.3049-.1132.6003-.2757.8589-.1626.2587-.3876.4723-.6543.6211-2.5821 1.3323-4.84838 3.2029-6.64605 5.4856s-3.08489 4.9243-3.77486 7.7467c-.68997 2.8225-.76663 5.76-.22481 8.6146.54183 2.8546 1.68953 5.5598 3.3657 7.9331.20005.2446.44958.4441.73223.5855.28266.1413.59201.2212.90775.2345h30.00004c.3157-.0133.6251-.0932.9077-.2345.2827-.1414.5322-.3409.7323-.5855 2.4104-3.4277 3.6963-7.5197 3.68-11.71z" fill="#edf1f4"/><path d="m38.6195 55.37c2.0998-2.9707 3.3619-6.4514 3.6539-10.0776.2921-3.6261-.3966-7.264-1.9939-10.5324h-36.55998c-1.59726 3.2684-2.28595 6.9063-1.99389 10.5324.29205 3.6262 1.55412 7.1069 3.6539 10.0776.20005.2446.44958.4442.73223.5855.28266.1413.59201.2212.90775.2345h29.99999c.3089-.0187.6105-.1013.8859-.2424.2754-.1412.5185-.3378.7141-.5776z" fill="#fc611f"/><path d="m14.8913 47c-.7619.002-1.5072-.2221-2.1417-.644-.6344-.4218-1.1295-1.0224-1.4224-1.7257s-.3706-1.4778-.2232-2.2252c.1474-.7475.5133-1.4345 1.0514-1.9739.538-.5394 1.224-.9071 1.9711-1.0565.7471-.1493 1.5217-.0737 2.2258.2174s1.3059.7846 1.7294 1.4179c.4235.6334.6496 1.3781.6496 2.14-.0027 1.0186-.4078 1.9948-1.127 2.7159-.7193.7212-1.6945 1.1288-2.713 1.1341zm0-6.67c-.5578 0-1.103.1654-1.5667.4753-.4638.3098-.8252.7503-1.0387 1.2655-.2134.5153-.2693 1.0823-.1605 1.6294.1088.547.3774 1.0495.7718 1.4438.3944.3944.8969.663 1.4439.7718s1.1141.053 1.6293-.1605c.5153-.2134.9557-.5748 1.2656-1.0386.3099-.4637.4753-1.0089.4753-1.5667.0066-.3745-.0614-.7466-.2002-1.0945-.1387-.348-.3454-.6648-.6079-.9319-.2625-.2672-.5757-.4794-.9211-.6242-.3454-.1449-.7163-.2195-1.0908-.2194z" fill="#fff"/><path d="m25.4186 33.49c-.7619.002-1.5072-.2221-2.1417-.644-.6344-.4218-1.1294-1.0224-1.4223-1.7257-.293-.7034-.3707-1.4778-.2232-2.2253.1474-.7474.5133-1.4344 1.0513-1.9738s1.224-.9071 1.9711-1.0565c.7471-.1493 1.5217-.0737 2.2258.2174s1.306.7846 1.7294 1.4179c.4235.6334.6496 1.3781.6496 2.14 0 1.0194-.4043 1.9971-1.1241 2.7188-.7199.7218-1.6965 1.1285-2.7159 1.1312zm0-6.67c-.5577 0-1.103.1654-1.5667.4753-.4637.3098-.8252.7502-1.0386 1.2655-.2135.5153-.2693 1.0823-.1605 1.6294.1088.547.3774 1.0495.7718 1.4438.3943.3944.8968.663 1.4438.7718.5471.1088 1.1141.053 1.6294-.1605.5153-.2134.9557-.5748 1.2655-1.0386.3099-.4637.4753-1.009.4753-1.5667 0-.7479-.2971-1.4652-.826-1.994-.5288-.5289-1.2461-.826-1.994-.826z" fill="#fc611f"/><path d="m27.8102 49.71c-.5736 0-1.1343-.1701-1.6112-.4887-.4769-.3187-.8486-.7716-1.0681-1.3015s-.2769-1.113-.165-1.6756c.1119-.5625.3881-1.0792.7937-1.4848.4055-.4056.9222-.6818 1.4848-.7937.5625-.1119 1.1456-.0544 1.6755.1651s.9829.5911 1.3015 1.0681c.3187.4769.4887 1.0375.4887 1.6111-.0026.7683-.309 1.5044-.8522 2.0477-.5433.5433-1.2794.8497-2.0477.8523zm0-4.78c-.3723-.002-.7367.1066-1.0472.312-.3105.2053-.553.4983-.6969.8416-.1438.3433-.1824.7217-.111 1.087s.2496.7013.5122.9652c.2625.2639.5974.444.9624.5173.3649.0734.7435.0367 1.0876-.1053s.6383-.3829.8453-.6923.3175-.6732.3175-1.0455c.0001-.4969-.1966-.9736-.547-1.3258-.3504-.3523-.8261-.5516-1.3229-.5542z" fill="#fff"/><path d="m19.6908 22.76c-.5731-.002-1.1328-.1737-1.6084-.4936-.4756-.3198-.8458-.7735-1.0637-1.3035-.218-.5301-.274-1.1129-.161-1.6748.1131-.5618.3901-1.0776.796-1.4822.406-.4046.9227-.6798 1.485-.7909s1.1448-.0531 1.6742.1667c.5293.2198.9816.5915 1.2998 1.0682s.4881 1.037.4881 1.6101c0 .3817-.0753.7596-.2217 1.1121s-.3609.6726-.6312.9421c-.2704.2694-.5912.4828-.9442.6279-.353.1452-.7312.2192-1.1129.2179zm0-4.78c-.3718 0-.7353.1103-1.0445.3168-.3091.2066-.5501.5002-.6924.8438-.1423.3435-.1795.7215-.107 1.0862.0726.3647.2516.6996.5145.9626.2629.2629.598.4419.9626.5145.3647.0725.7427.0353 1.0862-.107.3436-.1423.6372-.3833.8438-.6924.2065-.3092.3168-.6727.3168-1.0445-.0053-.4951-.2057-.9682-.5577-1.3164-.352-.3483-.8271-.5436-1.3223-.5436z" fill="#fc611f"/><path d="m31.8103 24.68c-.0979-.064-.1815-.1478-.2452-.2459-.0637-.0982-.1062-.2086-.1248-.3241v-19.00001c.4598-.23306.8284-.61321 1.0472-1.07996.2188-.46674.2752-.99326.1602-1.49575-.115-.5025-.3947-.95209-.7947-1.27723-.4-.325148-.8973-.507155-1.4127-.51706h-16.85c-.5154.009905-1.0126.191912-1.4126.51706-.4.32514-.6798.77473-.7948 1.27723-.115.50249-.0586 1.02901.1602 1.49575.2188.46675.5874.8469 1.0472 1.07996v19.00001c-.0185.1155-.061.2259-.1248.3241-.0637.0981-.1472.1819-.2452.2459-2.72117 1.3953-5.1107 3.3592-7.00668 5.7586s-3.25412 5.1782-3.98242 8.1483c-.728301 2.9701-.809735 6.0621-.238802 9.0664.570932 3.0043 1.780902 5.8508 3.547942 8.3467.29388.381.66893.6917 1.0979.9097.42898.2179.90108.3376 1.38208.3503h29.99998c.4813-.0113.9539-.1303 1.3831-.3484.4292-.218.804-.5296 1.0969-.9116 1.7611-2.4929 2.9669-5.3345 3.5361-8.3332.5692-2.9986.4885-6.0844-.2366-9.0492s-2.0777-5.7396-3.9666-8.137c-1.8889-2.3975-4.2701-4.3619-6.9829-5.7606zm6 30.09c-.2123.2259-.5009.3649-.81.39h-29.99997c-.30668-.026-.59397-.1608-.81-.38-1.58729-2.2561-2.67305-4.8259-3.18426-7.5366-.51121-2.7108-.43603-5.4995.22052-8.1788.65655-2.6792 1.87922-5.1868 3.58578-7.3541 1.70657-2.1672 3.85743-3.9439 6.30793-5.2105.4316-.2372.7947-.5819 1.054-1.0006.2592-.4187.406-.8973.426-1.3894v-18.71001h14.77v18.71001c.0181.4925.1641.9719.4236 1.3909.2595.4191.6236.7634 1.0564.9991 2.4495 1.2664 4.5992 3.0428 6.3047 5.2096s2.9272 4.6737 3.5828 7.3521c.6556 2.6783.73 5.4661.2182 8.1756-.5119 2.7096-1.5982 5.2781-3.1857 7.5327z" fill="#184f78"/><path d="m6.61896 48.19c-.00452-4.8703 1.33576-9.6473 3.87314-13.8045 2.5373-4.1571 6.1732-7.533 10.5069-9.7555.1227-.0765.2274-.1787.3068-.2995.0794-.1209.1317-.2575.1532-.4005v-23.150001h-7.84c-.5154.009905-1.0127.191912-1.4127.517051-.4.32515-.6797.77474-.7947 1.27724-.115.50249-.0586 1.02901.1601 1.49576.2188.46674.5875.84689 1.0473 1.07995v19c-.0186.1155-.0611.2259-.1248.3241-.0637.0981-.1473.1819-.2452.2459-2.71771 1.3933-5.10466 3.3536-6.99964 5.7486-1.89497 2.395-3.25381 5.1689-3.98469 8.1341-.73089 2.9653-.816812 6.0529-.25194 9.0542.56487 3.0013 1.76738 5.8464 3.52624 8.3431.29388.381.66893.6917 1.0979.9097.42898.2179.90109.3376 1.38208.3503h1.20002c-1.05945-2.9065-1.60099-5.9764-1.60001-9.07z" fill="#fff" opacity=".3"/></svg>