<svg fill="none" height="143" viewBox="0 0 166 143" width="166" xmlns="http://www.w3.org/2000/svg"><path d="m74.7706.639984c2.1218 0 4.1566.842846 5.6569 2.343136s2.3431 3.53513 2.3431 5.65686c0 2.12172-.8428 4.15662-2.3431 5.65682-1.5003 1.5003-3.5351 2.3432-5.6569 2.3432h-66.62998c-2.12173 0-4.15656-.8429-5.65686-2.3432-1.500286-1.5002-2.343135-3.5351-2.343135-5.65682 0-2.12173.842849-4.15657 2.343135-5.65686 1.5003-1.50029 3.53513-2.343136 5.65686-2.343136z" fill="#ea5624"/><path d="m74.7706 106.96c2.1218 0 4.1566.843 5.6569 2.343s2.3431 3.535 2.3431 5.657-.8428 4.157-2.3431 5.657-3.5351 2.343-5.6569 2.343h-66.62998c-2.12173 0-4.15656-.843-5.65686-2.343-1.500286-1.5-2.343135-3.535-2.343135-5.657s.842849-4.157 2.343135-5.657c1.5003-1.5 3.53513-2.343 5.65686-2.343z" fill="#ea5624"/><path d="m82.8003 8.35001h-82.7299875v106.62999h82.7299875z" fill="#f8b06c"/><path d="m157.5.47998c2.122 0 4.157.84285 5.657 2.34314s2.343 3.53513 2.343 5.65686c0 2.12172-.843 4.15652-2.343 5.65682s-3.535 2.3432-5.657 2.3432h-66.6797c-2.1217 0-4.1566-.8429-5.6568-2.3432-1.5003-1.5003-2.3432-3.5351-2.3432-5.65682 0-2.12173.8429-4.15657 2.3432-5.65686 1.5002-1.50029 3.5351-2.34314 5.6568-2.34314z" fill="#ea5624"/><path d="m157.5 106.8c2.122 0 4.157.843 5.657 2.343s2.343 3.535 2.343 5.657-.843 4.157-2.343 5.657-3.535 2.343-5.657 2.343h-66.6797c-2.1217 0-4.1566-.843-5.6568-2.343-1.5003-1.5-2.3432-3.535-2.3432-5.657s.8429-4.157 2.3432-5.657c1.5002-1.5 3.5351-2.343 5.6568-2.343z" fill="#ea5624"/><path d="m165.531 8.19h-82.7302v106.63h82.7302z" fill="#f8b06c"/><g fill="#fff"><path d="m71.7002 33.73c0 .379-.0749.7544-.2202 1.1044-.1454.3501-.3584.668-.6269.9356s-.5872.4795-.9377.6236c-.3506.1442-.7262.2177-1.1052.2164h-54.76c-.7648 0-1.4983-.3031-2.04-.8429-.5417-.5399-.8474-1.2724-.85-2.0371 0-.7665.3044-1.5016.8464-2.0435.542-.542 1.2771-.8465 2.0436-.8465h54.76c.7665 0 1.5015.3045 2.0435.8465.542.5419.8465 1.277.8465 2.0435z"/><path d="m71.7002 52.1c0 .379-.0749.7544-.2202 1.1044-.1454.3501-.3584.668-.6269.9356-.2685.2675-.5872.4795-.9377.6236-.3506.1442-.7262.2177-1.1052.2164h-54.76c-.3791.0013-.7547-.0722-1.1052-.2164-.3506-.1441-.6693-.3561-.9378-.6236-.2685-.2676-.4815-.5855-.6269-.9356-.1453-.35-.2201-.7254-.2201-1.1044.0026-.7648.3083-1.4973.85-2.0371s1.2752-.8429 2.04-.8429h54.76c.379-.0013.7546.0722 1.1052.2163.3505.1442.6692.3561.9377.6237.2685.2675.4815.5855.6269.9355.1453.3501.2202.7254.2202 1.1045z"/><path d="m71.7006 69.95c0 .379-.0748.7544-.2202 1.1044-.1453.3501-.3584.668-.6269.9356-.2684.2676-.5871.4795-.9377.6236-.3505.1442-.7261.2177-1.1052.2164h-54.76c-.3803.0026-.7575-.0698-1.1098-.2133-.3523-.1434-.6728-.355-.9431-.6225-.2704-.2676-.4852-.5859-.6323-.9367s-.2235-.7272-.2248-1.1075c0-.7665.3045-1.5016.8465-2.0435.542-.542 1.2771-.8465 2.0435-.8465h54.76c.7665 0 1.5016.3045 2.0436.8465.5419.5419.8464 1.277.8464 2.0435z"/><path d="m71.7002 89.76c0 .7665-.3045 1.5016-.8465 2.0435-.542.542-1.277.8465-2.0435.8465h-54.76c-.7657-.0027-1.4992-.308-2.0406-.8494-.5415-.5414-.8468-1.2749-.8494-2.0406.0026-.7647.3083-1.4973.85-2.0371s1.2752-.8429 2.04-.8429h54.76c.379-.0013.7546.0722 1.1052.2163.3505.1442.6692.3561.9377.6237s.4815.5855.6269.9355c.1453.3501.2202.7255.2202 1.1045z"/><path d="m155.651 33.73c0 .7638-.303 1.4963-.843 2.0364-.541.5402-1.273.8436-2.037.8436h-54.7699c-.7638 0-1.4963-.3034-2.0365-.8436-.5401-.5401-.8435-1.2726-.8435-2.0364-.0013-.3791.0722-.7546.2164-1.1052.1441-.3506.356-.6693.6236-.9378.2675-.2685.5855-.4815.9356-.6268.35-.1454.7253-.2202 1.1044-.2202h54.7699c.379 0 .754.0748 1.105.2202.35.1453.668.3583.935.6268.268.2685.48.5872.624.9378s.217.7261.216 1.1052z"/><path d="m155.651 52.1c.001.3786-.072.7537-.216 1.1037-.145.35-.357.668-.624.9357-.268.2677-.586.4798-.936.6241-.35.1442-.725.2178-1.104.2165h-54.7699c-.3786.0013-.7537-.0723-1.1037-.2165-.35-.1443-.668-.3564-.9357-.6241s-.4798-.5857-.6241-.9357c-.1442-.35-.2178-.7251-.2165-1.1037 0-.7638.3034-1.4964.8435-2.0365.5402-.5401 1.2727-.8435 2.0365-.8435h54.7699c.764 0 1.496.3034 2.037.8435.54.5401.843 1.2727.843 2.0365z"/><path d="m155.651 69.95c0 .7638-.304 1.4963-.844 2.0365-.54.5401-1.273.8435-2.036.8435h-54.7704c-.7603-.0053-1.4877-.311-2.0235-.8506-.5358-.5395-.8365-1.269-.8365-2.0294-.0013-.3791.0722-.7546.2164-1.1052.1441-.3506.3561-.6693.6236-.9378.2676-.2684.5855-.4815.9356-.6268.3501-.1454.7254-.2202 1.1044-.2202h54.7704c.379 0 .754.0748 1.104.2202.35.1453.668.3584.936.6268.267.2685.479.5872.623.9378s.218.7261.217 1.1052z"/><path d="m155.651 89.76c0 .7648-.303 1.4983-.843 2.04s-1.272.8473-2.037.85h-54.7699c-.7648-.0027-1.4973-.3083-2.0371-.85s-.8429-1.2752-.8429-2.04c0-.7638.3034-1.4964.8435-2.0365s1.2726-.8435 2.0365-.8435h54.7699c.764 0 1.496.3034 2.037.8435.54.5401.843 1.2727.843 2.0365z"/></g><path d="m76.1289 8.19v134.32l6.67-7.93 7.47 7.47v-133.86z" fill="#e73147"/></svg>