<svg fill="none" height="28" viewBox="0 0 80 28" width="80" xmlns="http://www.w3.org/2000/svg"><path d="m3.38877 4.41 54.21993 8c.3675.0381.7155.1843 1 .42l.0801.06 11.48 9.46c.2901.2244.5321.5047.7119.8244.1797.3197.2935.6722.3344 1.0367.041.3644.0084.7334-.0958 1.085-.1043.3516-.278.6788-.511.962s-.5205.5168-.8455.6868c-.3249.1701-.6807.2732-1.0462.3032s-.7333-.0137-1.0817-.1284c-.3483-.1148-.6701-.2983-.9461-.5397-.0814-.0647-.1582-.1349-.2301-.21l-10.37-10.7 1 .49-54.44993-6.28001c-.70579-.10817-1.34219-.48565-1.775517-1.05315-.433327-.56751-.629859-1.28086-.548309-1.99021.081549-.70936.434822-1.3595.985626-1.81386.5508-.45437 1.25625-.67759 1.96817-.62277z" fill="#0e2c44"/><path d="m77.3315 9.88-54.45 6.28 1-.49-10.33 10.71c-.5039.5238-1.1953.826-1.922.84-.7267.0141-1.4292-.2611-1.95302-.765-.5238-.5039-.82596-1.1953-.84003-1.922-.01406-.7267.26114-1.4292.76505-1.953l.22998-.22 11.49002-9.46.07-.05c.2872-.233.6333-.3819 1-.43l54.22-8c.7206-.09998 1.4515.08859 2.0338.52469.5823.43611.9689 1.08448 1.0756 1.8041.1068.71963-.0749 1.45229-.5055 2.03866s-1.0753.97902-1.7939 1.09255z" fill="#123b5a"/><path d="m56.35 23.19h9.55c2.7373-.0396 5.3659-1.0778 7.3916-2.9193 2.0256-1.8415 3.3089-4.3595 3.6084-7.0807l.13-1.28c.1423-1.2707.0121-2.55719-.3818-3.77367s-1.0425-2.33507-1.9025-3.28124c-.8601-.94618-1.912-1.69823-3.0855-2.20606-1.1734-.50782-2.4417-.75976-3.7202-.73904h-14.94c-1.2538-.04973-2.5026.18547-3.6524.68792-1.1498.50244-2.1707 1.25904-2.986 2.21291-.8152.95387-1.4036 2.08017-1.7209 3.2942-.3172 1.21404-.3551 2.48418-.1107 3.71498l.22 1.43c.4994 2.7364 1.9247 5.2177 4.0369 7.0276 2.1121 1.8099 4.7826 2.8382 7.5631 2.9124z" fill="#fff" opacity=".5"/><path d="m23.6512 23.19h-9.55c-2.7361-.0439-5.36233-1.0835-7.3871-2.9242-2.02478-1.8407-3.30923-4.3563-3.61292-7.0758l-.1-1.27c-.14225-1.2707-.0121-2.55717.3818-3.77365.3939-1.21649 1.04248-2.33507 1.90256-3.28125.86007-.94617 1.91192-1.69823 3.08542-2.20605 1.1735-.50783 2.44174-.75977 3.72024-.73905h14.91c1.2538-.04973 2.5026.18547 3.6524.68792 1.1498.50244 2.1707 1.25905 2.986 2.21292.8152.95387 1.4036 2.08017 1.7209 3.2942.3172 1.21403.3551 2.48416.1107 3.71496l-.22 1.43c-.5014 2.7345-1.9276 5.2136-4.0396 7.0215s-4.7813 2.8348-7.5604 2.9085z" fill="#fff" opacity=".5"/><path d="m78.3984 10.42c-.0462-1.56651-.439-3.10333-1.15-4.49999-.7392-1.43906-1.8083-2.6829-3.12-3.62999-1.3434-.94709-2.8864-1.57317-4.51-1.830006-.4025-.07461-.8106-.114758-1.22-.120002-.43 0-.78 0-1.12 0h-2.1099c-2.82 0-5.64 0-8.41 0h-3.9501-.25c-.7836.033622-1.5613.150962-2.32.350006-.3826.093088-.7572.216815-1.12.369992l-.5499.22-.5201.28c-1.3603.74038-2.5229 1.79668-3.39 3.08-.3783.56215-.6904 1.16617-.9299 1.80001-1.189-.46823-2.4524-.71889-3.7301-.74001-1.2781.01624-2.5424.26707-3.73.74001-.2373-.63798-.5495-1.24556-.93-1.81001-.8529-1.27735-1.9978-2.33315-3.34-3.07999l-.5199-.28001-.5501-.21999c-.3656-.15467-.7436-.278438-1.13-.370004-.7551-.199779-1.5296-.317129-2.31-.349999h-.25-3.9499c-2.77 0-5.5901 0-8.4101 0h-2.11c-.34 0-.69 0-1.12 0-.4093.005244-.8174.045385-1.22.119995-1.62401.2551-3.16732.881328-4.50994 1.829998-1.30935.94959-2.37795 2.19284-3.12003 3.63001-.71098 1.39666-1.10371 2.93347-1.14999 4.49998v.59.49.56.49c.05.33.07.62.13 1s.11.71.19 1.06c.31176 1.3523.8602 2.6388 1.62 3.8 1.36092 2.1142 3.321 3.7749 5.63 4.77 1.01946.4536 2.10176.7503 3.20996.88.4876.0619.9786.092 1.47.09h.72.65c1.72 0 3.21-.07 4.45-.07h2.86 1 1.1c1.0233-.0841 2.0315-.2992 3-.64 1.7707-.5998 3.3967-1.5624 4.7742-2.8262 1.3775-1.2639 2.4762-2.8012 3.2258-4.5138.4558-1.1036.7749-2.2589.95-3.44.1257-.6173.2126-1.2418.2601-1.87 0-.32 0-.65 0-.99999.9414-.48022 1.9831-.73059 3.0399-.73059 1.0569 0 2.0986.25037 3.04.73059v.99999c.0483.6314.1351 1.2592.2601 1.88.1765 1.1808.4955 2.3359.9499 3.44.8535 1.9356 2.144 3.647 3.7701 5 1.2429 1.0226 2.6584 1.815 4.1799 2.34.9688.3398 1.9769.5548 3 .64h1.1001 1 2.8599c1.23 0 2.7301 0 4.4501.07h.6499.81c.4915.002.9825-.0281 1.47-.09 1.1083-.1297 2.1906-.4264 3.21-.88 2.309-.9951 4.2691-2.6558 5.63-4.77.7598-1.1612 1.3083-2.4477 1.62-3.8.08-.35.12-.71.19-1.06s.08-.65.12-1l.06-.48v-.56-.49c.12-.19.11-.4.1-.6zm-44.3299 1.8c-.0798.9993-.2882 1.9841-.62 2.93-.6138 1.6389-1.6117 3.1066-2.91 4.28-1.0097.9155-2.1747 1.6436-3.4401 2.15-.8148.3174-1.6639.5389-2.5299.66l-.9201.06h-1c-.66 0-1.6299 0-2.8599 0s-2.7301 0-4.4501-.08h-1.28c-.4465-.0088-.8914-.0556-1.3299-.14-.8955-.1457-1.7648-.422-2.5801-.82-1.86586-.8926-3.41487-2.3335-4.43996-4.13-.56229-.9451-.94537-1.9859-1.13001-3.07-.06-.28-.06999-.56-.10999-.84s0-.62-.07-.94v-.46s0 .06 0 0v-1c0-.15 0-.26 0-.39.07934-1.1296.41618-2.22607.98471-3.2054s1.35367-1.81555 2.29529-2.44459c.96871-.63123 2.06478-1.04096 3.21006-1.19999 1.06-.14 2.58-.00001 4-.06001h8.4099 4c.3046.0032.6086.02658.91.07.2596.029.5169.07579.7701.14001.2693.05877.5334.13902.7899.24l.38.14.3601.16999c.9378.45445 1.7537 1.12612 2.3798 1.95921s1.0444 1.80357 1.2201 2.83079l.0901.75v.75999c-.0101.5488-.0536 1.0965-.13 1.64zm41.5799-.84v.44.47c0 .32 0 .67-.07.94s-.06.56-.11.84c-.1891 1.0829-.5719 2.1229-1.13 3.07-1.0251 1.7965-2.5741 3.2374-4.44 4.13-.8153.398-1.6845.6743-2.5799.82-.4385.0849-.8835.1318-1.3301.14h-1.28c-1.72 0-3.2099.08-4.4499.08s-2.2001 0-2.8601 0h-1l-.9199-.06c-2.2413-.2978-4.3364-1.279-6-2.81-1.2983-1.1695-2.2963-2.634-2.91-4.27-.3318-.9494-.5402-1.9375-.62-2.94-.0775-.5235-.1243-1.051-.1401-1.58v-.74998l.09-.76001c.1773-1.02666.5962-1.99644 1.2222-2.8293.6259-.83285 1.441-1.50491 2.3778-1.9607l.36-.16999.38-.14c.2552-.10222.5198-.17926.79-.23001.2487-.07114.503-.12131.7601-.14999.3048-.04295.6121-.06634.9199-.07001h4 8.41c1.39 0 2.91-.07999 4 .06001 1.1434.16039 2.2384.56634 3.21 1.18999.9401.63068 1.7241 1.4673 2.2924 2.4463s.9061 2.07463.9876 3.20369v.4z" fill="#184f78"/></svg>