<svg fill="none" height="169" viewBox="0 0 173 169" width="173" xmlns="http://www.w3.org/2000/svg"><path d="m85.1389 39.22s-3.89-34.75001 36.9001-36.45001" stroke="#92222a" stroke-linecap="round" stroke-linejoin="round" stroke-width="5.19"/><path d="m160.291 118.55c-6.21 22.16-16.8 47-41.9 49.29-1.23.11-2.5.17-3.79.17-11 0-17.34-5.14-27-6.15-1.08-.1-2.21-.17-3.4-.17-12.19 0-22.84 5.18-32.84 6.32-6.32.73-12.39-.14-18.43-4.9-29.10998-23-39.99997-77.51-28.16997-112.83 5.54997-16.57 22.81997-28.24 40.47997-28.24 1.55 0 3 0 4.47.1 15.12.68 24.12 5.15 35.47 17.09 1.2534-1.28 2.4667-2.4733 3.64-3.58 11.27-10.54 20-13.61 36.17-13.61 1.05 0 2.07 0 3.06.08 27.23 1.32 37.14 20.58 39 43.21 1.63 19.57-2.49 37.96-6.76 53.22z" fill="#a82732"/><path d="m160.289 118.55c-6.21 22.16-16.8 47-41.9 49.29-10.15-1-16.4-6.19-27.0005-6.15-1.29 0-2.56.07-3.81.17-13.52 1.17-25.15 7.67-36.24 6.15-4.1152-.575-7.9932-2.27-11.21-4.9-29.11-23-44.70996-76.35-32.87996-111.68 5.25996-15.71 25.76996-28.16 42.43996-29.29.91-.06 1.83-.1 2.75-.1 16.17 0 25.55 3.35 36.36 13.61 1.17 1.11 2.36 2.31 3.57 3.58 12.1105-12.35 20.4805-16.52 35.6605-17.11 27.23 1.32 37.14 20.58 39 43.21 1.65 19.57-2.47 37.96-6.74 53.22z" fill="#e73147"/><path d="m89.8203 33.43 1.09 1.06c41.3697 70.29 81.1597 13.54 81.1597 13.54-36.85-50.65001-82.2497-14.6-82.2497-14.6z" fill="#138971"/><g fill="#fff"><path d="m46.2691 130.42c0 1.927-.5715 3.81-1.6422 5.412s-2.5925 2.851-4.3728 3.588c-1.7804.736-3.7392.929-5.6289.552-1.8896-.377-3.6251-1.305-4.9869-2.668-1.3618-1.364-2.2886-3.1-2.6633-4.99s-.1804-3.849.5584-5.628c.7387-1.78 1.9886-3.3 3.5917-4.369 1.603-1.069 3.4871-1.639 5.414-1.637 1.2786 0 2.5446.252 3.7258.742 1.1811.489 2.2542 1.207 3.1579 2.111.9036.905 1.6201 1.979 2.1085 3.16.4884 1.182.7391 2.448.7378 3.727z"/><path d="m49.4008 149.55c0 .9-.2669 1.78-.7668 2.528-.5.748-1.2106 1.331-2.042 1.676-.8314.344-1.7463.434-2.6289.259-.8826-.176-1.6933-.609-2.3297-1.246-.6363-.636-1.0696-1.447-1.2452-2.329-.1756-.883-.0854-1.798.2589-2.629.3444-.832.9276-1.542 1.6758-2.042.7483-.5 1.628-.767 2.5279-.767 1.2067 0 2.364.479 3.2173 1.333.8533.853 1.3327 2.01 1.3327 3.217z"/></g></svg>