<svg fill="none" height="158" viewBox="0 0 166 158" width="166" xmlns="http://www.w3.org/2000/svg"><path d="m87.9587 28.9077-72.4431 72.4433 40.9274 40.927 72.443-72.4429z" fill="#005966"/><path d="m99.2087 17.6082-11.2712 11.2713 40.9275 40.9273 11.271-11.2712z" fill="#003d46"/><path d="m56.4515 142.3-37.9599 10.26-18.140038 4.9 4.910038-18.13 10.26-37.96z" fill="#005966"/><path d="m18.4916 152.56-18.140038 4.9 4.910038-18.13z" fill="#003d46"/><path d="m99.5515 40.4848-72.4304 72.4562 15.4247 15.419 72.4302-72.4559z" fill="#004853"/><g fill="#003d46"><path d="m112.406 4.32681-14.7146 14.71489 53.3516 53.3513 14.715-14.715z"/><path d="m157.564 49.5632-59.4078 59.3868 8.3278 8.331 59.408-59.3867z"/><path d="m150.411 42.41c.21-.2.42-.39.63-.6 4.329-4.703 6.672-10.8972 6.54-17.2876-.133-6.3904-2.731-12.4822-7.25-17.00188-4.52-4.51966-10.612-7.117215-17.002-7.249634-6.391-.132419-12.585 2.210574-17.288 6.539124-.21.21-.4.43-.6.63z"/></g></svg>