<svg fill="none" height="63" viewBox="0 0 43 63" width="43" xmlns="http://www.w3.org/2000/svg"><path clip-rule="evenodd" d="m39.8081.359943h-36.70996c-.32914-.002635-.65556.059763-.96054.183594-.30497.123831-.58248.306676-.81662.538023-.23413.23135-.420282.50665-.547756.81012s-.193793.62913-.195099.95828v57.47004c0 .6683.265506 1.3093.738095 1.7819.47259.4726 1.11358.7381 1.78192.7381h36.73996c.6632-.0079 1.2965-.2769 1.7626-.7487.4661-.4717.7275-1.1082.7274-1.7713v-57.47004c-.0079-.66313-.2768-1.29642-.7486-1.76254-.4717-.466121-1.1082-.727524-1.7714-.727477z" fill="#999" fill-rule="evenodd"/><path clip-rule="evenodd" d="m5.00052 24.61h5.73998c.1963 0 .3845.078.5233.2167.1387.1388.2167.327.2167.5233v3.32c.0027.0993-.0144.1982-.0503.2909s-.0898.1773-.1586.2489c-.0689.0716-.1513.1289-.2424.1684-.0912.0395-.1893.0605-.2887.0618h-5.73998c-.10149.0014-.20223-.0176-.29626-.0558s-.17942-.0949-.25119-.1667-.12844-.1572-.16666-.2512c-.03822-.0941-.05722-.1948-.05587-.2963v-3.32c.00128-.0994.0223-.1974.06182-.2886.03953-.0911.09676-.1736.1684-.2424.07164-.0689.15624-.1228.2489-.1586.09266-.0359.19154-.053.29086-.0504z" fill="#e74b3c" fill-rule="evenodd"/><path clip-rule="evenodd" d="m14.2097 24.6099h5.73c.1963 0 .3845.078.5233.2168.1387.1387.2167.327.2167.5232v3.32c.0026.0994-.0145.1983-.0503.2909-.0359.0927-.0898.1773-.1587.2489-.0688.0717-.1512.1289-.2424.1684-.0912.0396-.1892.0606-.2886.0619h-5.73c-.102.0013-.2032-.0177-.2977-.0558-.0946-.0381-.1807-.0946-.2532-.1662-.0726-.0717-.1302-.157-.1695-.2511-.0394-.094-.0596-.195-.0596-.297v-3.32c.0078-.2007.0937-.3904.2395-.5286.1457-.1382.3396-.2141.5405-.2114z" fill="#00314b" fill-rule="evenodd"/><path clip-rule="evenodd" d="m23.4402 24.6099h5.73c.1962 0 .3844.078.5232.2168.1388.1387.2168.327.2168.5232v3.32c.0026.0994-.0145.1983-.0504.2909-.0358.0927-.0898.1773-.1586.2489-.0689.0717-.1513.1289-.2424.1684-.0912.0396-.1893.0606-.2886.0619h-5.73c-.102.0013-.2032-.0177-.2978-.0558s-.1806-.0946-.2532-.1662c-.0726-.0717-.1302-.157-.1695-.2511-.0393-.094-.0596-.195-.0595-.297v-3.32c.0078-.2007.0937-.3904.2394-.5286s.3397-.2141.5406-.2114z" fill="#00314b" fill-rule="evenodd"/><path clip-rule="evenodd" d="m32.6682 24.6099h5.73c.1963 0 .3845.078.5233.2168.1387.1387.2167.327.2167.5232v3.32c.0027.0994-.0144.1983-.0503.2909-.0359.0927-.0898.1773-.1586.2489-.0689.0717-.1513.1289-.2424.1684-.0912.0395-.1893.0606-.2887.0618h-5.73c-.1002.0001-.1994-.02-.2917-.0589s-.1759-.096-.2458-.1677c-.0699-.0718-.1247-.1569-.1612-.2502s-.0539-.193-.0513-.2932v-3.32c0-.098.0195-.195.0573-.2854.0378-.0905.0932-.1725.163-.2414.0698-.0688.1525-.1231.2435-.1597.0909-.0366.1882-.0548.2862-.0535z" fill="#00314b" fill-rule="evenodd"/><path clip-rule="evenodd" d="m5.00046 32.1699h5.73994c.1963 0 .3845.078.5233.2168s.2168.327.2168.5232v3.32c.0027.1999-.0735.3928-.212.537-.1385.1441-.3282.2278-.5281.2331h-5.73994c-.20341-.0026-.39775-.0846-.5416-.2284-.14384-.1439-.2258-.3382-.22839-.5417v-3.32c.00129-.0993.0223-.1974.06183-.2885.03952-.0912.09675-.1736.16839-.2425.07164-.0688.15625-.1227.2489-.1586.09266-.0359.19154-.053.29087-.0504z" fill="#00314b" fill-rule="evenodd"/><path clip-rule="evenodd" d="m14.2097 32.17h5.73c.1963 0 .3845.078.5233.2167.1387.1388.2167.327.2167.5233v3.32c.0027.1999-.0734.3928-.212.5369-.1385.1441-.3282.2279-.528.2331h-5.73c-.2044-.0025-.3998-.0841-.5452-.2277-.1455-.1436-.2297-.338-.2348-.5423v-3.32c.0078-.2007.0937-.3904.2395-.5286.1457-.1383.3396-.2142.5405-.2114z" fill="#00314b" fill-rule="evenodd"/><path clip-rule="evenodd" d="m23.4402 32.17h5.73c.1962 0 .3844.078.5232.2167.1388.1388.2168.327.2168.5233v3.32c.0027.1999-.0735.3928-.212.5369s-.3282.2279-.528.2331h-5.73c-.2044-.0025-.3999-.0841-.5453-.2277-.1455-.1436-.2296-.338-.2347-.5423v-3.32c.0078-.2007.0937-.3904.2394-.5286.1457-.1383.3397-.2142.5406-.2114z" fill="#00314b" fill-rule="evenodd"/><path clip-rule="evenodd" d="m32.6719 32.17h5.73c.1962 0 .3844.0779.5232.2167s.2168.327.2168.5233v3.32c.0027.1999-.0735.3928-.212.5369s-.3282.2279-.528.2331h-5.73c-.2008-.0052-.3915-.0886-.5316-.2325-.1401-.1438-.2185-.3367-.2184-.5375v-3.32c0-.098.0194-.195.0572-.2855.0378-.0904.0932-.1725.163-.2413.0698-.0689.1526-.1231.2435-.1597s.1883-.0548.2863-.0535z" fill="#00314b" fill-rule="evenodd"/><path clip-rule="evenodd" d="m5.00046 39.72h5.73994c.1972.0027.3854.0829.5239.2232.1385.1404.2162.3296.2162.5268v3.32c0 .1963-.078.3845-.2168.5233s-.327.2168-.5233.2168h-5.73994c-.09933.0027-.19821-.0145-.29087-.0504-.09265-.0358-.17726-.0897-.2489-.1586-.07164-.0688-.12887-.1513-.16839-.2424-.03953-.0912-.06054-.1893-.06183-.2887v-3.32c.0013-.0998.02224-.1983.06164-.29.03941-.0917.0965-.1748.168-.2444.07151-.0697.15604-.1246.24875-.1615.09272-.037.19179-.0554.2916-.0541z" fill="#00314b" fill-rule="evenodd"/><path clip-rule="evenodd" d="m14.2097 39.72h5.73c.1972.0026.3854.0828.5239.2232.1385.1403.2161.3296.2161.5268v3.32c0 .1962-.078.3845-.2167.5232-.1388.1388-.327.2168-.5233.2168h-5.73c-.2009.0028-.3948-.0731-.5405-.2113-.1458-.1383-.2317-.328-.2395-.5287v-3.32c.0077-.2017.0933-.3924.2388-.5323.1454-.1398.3394-.2179.5412-.2177z" fill="#00314b" fill-rule="evenodd"/><path clip-rule="evenodd" d="m23.4402 39.72h5.73c.1971.0026.3853.0828.5238.2232.1385.1403.2162.3296.2162.5268v3.32c0 .1962-.078.3845-.2168.5232-.1388.1388-.327.2168-.5232.2168h-5.73c-.2009.0028-.3949-.0731-.5406-.2113-.1457-.1383-.2316-.328-.2394-.5287v-3.32c.0077-.2017.0933-.3924.2388-.5323.1454-.1398.3394-.2179.5412-.2177z" fill="#00314b" fill-rule="evenodd"/><path clip-rule="evenodd" d="m32.6719 39.72h5.73c.1971.0026.3854.0828.5239.2232.1384.1403.2161.3296.2161.5268v3.32c0 .1962-.078.3845-.2168.5232-.1388.1388-.327.2168-.5232.2168h-5.73c-.098.0014-.1954-.0168-.2863-.0534s-.1737-.0909-.2435-.1598c-.0698-.0688-.1252-.1509-.163-.2413s-.0572-.1875-.0572-.2855v-3.32c0-.1989.079-.3897.2196-.5303.1407-.1407.3315-.2197.5304-.2197z" fill="#00314b" fill-rule="evenodd"/><path clip-rule="evenodd" d="m5.00046 47.26h5.73994c.1999.0053.3896.089.5281.2331s.2147.3371.212.5369v3.32c0 .1962-.078.3845-.2168.5232-.1388.1388-.327.2168-.5233.2168h-5.73994c-.09933.0027-.19821-.0145-.29087-.0503-.09265-.0359-.17726-.0898-.2489-.1587-.07164-.0688-.12887-.1512-.16839-.2424-.03953-.0911-.06054-.1893-.06183-.2886v-3.35c.00259-.2034.08455-.3978.22839-.5416.14385-.1439.33819-.2258.5416-.2284z" fill="#00314b" fill-rule="evenodd"/><path clip-rule="evenodd" d="m14.2097 47.26h5.73c.1998.0053.3895.089.528.2331.1386.1441.2147.3371.212.5369v3.32c0 .1962-.078.3845-.2167.5232-.1388.1388-.327.2168-.5233.2168h-5.73c-.2009.0028-.3948-.0731-.5405-.2113-.1458-.1383-.2317-.328-.2395-.5287v-3.35c.0051-.2043.0893-.3987.2348-.5422.1454-.1436.3408-.2253.5452-.2278z" fill="#00314b" fill-rule="evenodd"/><path clip-rule="evenodd" d="m23.4402 47.26h5.73c.1998.0053.3895.089.528.2331s.2147.3371.212.5369v3.32c0 .1962-.078.3845-.2168.5232-.1388.1388-.327.2168-.5232.2168h-5.73c-.2009.0028-.3949-.0731-.5406-.2113-.1457-.1383-.2316-.328-.2394-.5287v-3.35c.0051-.2043.0892-.3987.2347-.5422.1454-.1436.3409-.2253.5453-.2278z" fill="#00314b" fill-rule="evenodd"/><path clip-rule="evenodd" d="m5.00046 54.8201h5.73994c.1963 0 .3845.078.5233.2167.1388.1388.2168.327.2168.5233v3.34c.0013.098-.0169.1953-.0535.2863-.0366.0909-.0909.1737-.1597.2434-.0689.0698-.1509.1252-.2413.163-.0905.0378-.1875.0573-.2856.0573h-5.73994c-.10016.0027-.19984-.0148-.29315-.0513-.09332-.0365-.17838-.0913-.25016-.1612-.07177-.0699-.12882-.1535-.16775-.2458-.03894-.0923-.05897-.1915-.05893-.2917v-3.34c.00129-.0994.0223-.1975.06183-.2887.03952-.0911.09675-.1735.16839-.2423.07164-.0689.15625-.1228.2489-.1587.09266-.0359.19154-.053.29087-.0503z" fill="#00314b" fill-rule="evenodd"/><path clip-rule="evenodd" d="m14.2097 54.82h5.73c.1963 0 .3845.078.5233.2168.1387.1387.2167.3269.2167.5232v3.34c.0013.0981-.0169.1954-.0534.2863-.0366.0909-.0909.1737-.1598.2435-.0688.0697-.1508.1251-.2413.1629-.0904.0378-.1875.0573-.2855.0573h-5.73c-.2025.0027-.398-.0745-.544-.2149s-.2308-.3326-.236-.5351v-3.34c.0078-.2007.0937-.3904.2395-.5287.1457-.1382.3396-.214.5405-.2113z" fill="#00314b" fill-rule="evenodd"/><path clip-rule="evenodd" d="m23.4402 54.82h5.73c.1962 0 .3844.078.5232.2168.1388.1387.2168.3269.2168.5232v3.34c.0013.0981-.0169.1954-.0535.2863s-.0909.1737-.1597.2435c-.0689.0697-.1509.1251-.2413.1629-.0905.0378-.1875.0573-.2855.0573h-5.73c-.2026.0027-.398-.0745-.544-.2149s-.2308-.3326-.236-.5351v-3.34c.0078-.2007.0937-.3904.2394-.5287.1457-.1382.3397-.214.5406-.2113z" fill="#00314b" fill-rule="evenodd"/><path clip-rule="evenodd" d="m39.139 50.8v7.72c-.0026.2989-.1225.5848-.3339.7962-.2114.2113-.4973.3312-.7961.3338h-5c-.1488.0014-.2964-.027-.4341-.0833s-.2627-.1395-.3679-.2447-.1885-.2303-.2448-.368-.0846-.2852-.0832-.434v-10.52c-.0001-.2008.0783-.3937.2184-.5375.1401-.1439.3308-.2273.5316-.2325h5.7299c.1999.0052.3896.089.5281.2331.1385.1442.2147.337.212.5369z" fill="#00314b" fill-rule="evenodd"/><path clip-rule="evenodd" d="m27.1599 27.07c-.15 0-.23.21-.23.44s.08.44.23.44.26-.16.26-.44-.08-.44-.26-.44zm0-.3c.0912-.0007.1815.0181.2649.0552.0833.037.1578.0914.2185.1596.0606.0682.1059.1485.1329.2357.027.0871.0351.179.0237.2695.0111.0954.0023.1921-.0261.2839s-.0757.1767-.1387.2492c-.0631.0725-.1406.131-.2276.1718s-.1815.063-.2776.0651c-.0919-.0012-.1827-.021-.2667-.0583-.0841-.0372-.1597-.0911-.2223-.1584s-.111-.1466-.1421-.2331-.0443-.1784-.0389-.2702c-.0083-.0973.0036-.1953.035-.2878.0313-.0925.0814-.1775.1471-.2498s.1456-.1302.2347-.1702.1855-.0611.2832-.0622zm-1.44 1.49h-.31l1.39-2.5h.31zm-.33-2.19c-.16 0-.24.21-.24.44s.08.44.26.44.23-.16.23-.44-.08-.44-.25-.44zm0-.31c-.0956.0036-.1894.0268-.2757.0681s-.1632.0998-.226.1719c-.0627.0722-.1101.1564-.139.2476-.029.0911-.0389.1873-.0293.2824-.0116.0914-.0032.1842.0244.272.0276.0879.0738.1687.1355.2371.0617.0683.1374.1226.222.159s.176.0541.2681.0519c.36 0 .66-.25.66-.77.0114-.0905.0033-.1824-.0237-.2695-.027-.0872-.0724-.1675-.133-.2357s-.135-.1226-.2184-.1597c-.0834-.037-.1737-.0558-.2649-.0551z" fill="#fff" fill-rule="evenodd"/><path clip-rule="evenodd" d="m35.3403 52.48v.79h-.77v.36h.77v.83h.36v-.83h.8v-.36h-.8v-.79z" fill="#fff" fill-rule="evenodd"/><path d="m36.4698 41.9399h-1.88v.3901h1.88z" fill="#fff"/><path clip-rule="evenodd" d="m27.2698 57.7999v-.36h-1.93v.36zm0-.7699v-.3601h-1.93v.33z" fill="#fff" fill-rule="evenodd"/><path clip-rule="evenodd" d="m17.0583 57.57c.0789-.0137.1504-.0548.202-.1161s.0799-.1388.0799-.2189-.0283-.1576-.0799-.2189-.1231-.1024-.202-.1161c-.0489-.0085-.099-.0061-.1468.0068-.0479.0129-.0923.0361-.1303.068-.0379.032-.0684.0718-.0893.1167-.0209.045-.0317.0939-.0317.1435 0 .0495.0108.0985.0317.1435.0209.0449.0514.0847.0893.1166.038.0319.0824.0552.1303.0681.0478.013.0979.0153.1468.0068z" fill="#fff" fill-rule="evenodd"/><path d="m36.8004 27.02h-2.5699v.36h2.5699z" fill="#fff"/><g clip-rule="evenodd" fill-rule="evenodd"><path d="m35.5185 26.64c.0682.006.1366-.0087.1963-.0422s.108-.0842.1384-.1455c.0304-.0614.0415-.1305.032-.1983s-.0393-.1311-.0855-.1817c-.0461-.0506-.1064-.0862-.1731-.1019-.0666-.0157-.1364-.0109-.2003.0137s-.1189.0679-.1578.1242c-.0388.0564-.0597.1232-.06.1917-.0042.0431.0007.0867.0144.1278.0137.0412.0358.079.0651.1111.0292.032.0648.0576.1045.075s.0826.0263.126.0261z" fill="#fff"/><path d="m35.5184 28.44c.046.0002.0916-.0092.1337-.0276.0421-.0185.0799-.0455.111-.0794.031-.0339.0547-.0739.0694-.1175s.0201-.0897.016-.1355c0-.0849-.0338-.1663-.0938-.2263s-.1414-.0937-.2262-.0937c-.0849 0-.1663.0337-.2263.0937s-.0938.1414-.0938.2263c-.0041.0442.0008.0887.0143.1309.0135.0423.0353.0814.0643.115.0289.0336.0643.061.1041.0806s.0831.031.1273.0335z" fill="#fff"/><path d="m7.82968 56.41c.23 0 .33002.28.33002.82s-.10002.83-.33002.83-.33999-.26-.33999-.83.12999-.82.33999-.82zm0-.41c-.62 0-.89999.54-.89999 1.23s.27999 1.26.89999 1.26.90003-.51.90003-1.26-.26003-1.23-.90003-1.23z" fill="#fff"/><path d="m7.82904 50.88h.56003v-2.41h-.46002l-.63999.3.07999.41.45999-.2z" fill="#fff"/><path d="m17.9092 50.9101v-.46h-.91l.23-.21c.1679-.1157.311-.2637.4209-.4354.11-.1717.1844-.3637.2191-.5646 0-.44-.31-.74-.85-.74-.2807-.0061-.5564.0742-.79.23l.15.41c.1427-.1235.3217-.1972.51-.21.29 0 .42.16.42.36s-.26.54-.8 1l-.31.28v.34z" fill="#fff"/><path d="m25.4414 50.7499c.2167.1304.4674.193.72.18.62 0 1-.31 1-.74-.0011-.1445-.0543-.2837-.1499-.3921-.0955-.1084-.2269-.1786-.3701-.1979.1277-.0299.2412-.1029.3214-.2067.0802-.1039.122-.2321.1186-.3633 0-.33-.28-.59-.8-.59-.2582-.0065-.5136.0556-.74.18l.13.41c.1397-.1003.308-.1529.48-.15.26 0 .36.1.36.25s-.23.29-.43.29h-.21v.38h.23c.23 0 .49.13.49.36s-.15.34-.46.34c-.1899-.0112-.3747-.0659-.54-.16z" fill="#fff"/><path d="m7.41891 42.3499.31-.5099c.07-.16.14998-.3101.22998-.4701v1zm1.07999 1v-.56h.28v-.41h-.28v-1.4199h-.70001l-.91998 1.4699v.36h1.11999v.56z" fill="#fff"/><path d="m17.8309 40.9099h-1.34l-.15 1.26c.1027-.0161.2073-.0161.31 0 .49 0 .69.1601.69.4101s-.2499.3599-.4899.3599c-.1867-.0086-.37-.0527-.5401-.13l-.1.44c.2097.0964.4395.141.6701.13.1216.011.2443-.0024.3607-.0394.1165-.037.2244-.0968.3175-.1759s.1695-.176.2247-.285c.0553-.1089.0882-.2278.0971-.3496.0064-.115-.0169-.2298-.0677-.3331s-.1274-.1918-.2224-.257c-.1893-.1251-.4131-.1881-.6399-.18h-.1501l.0501-.3599h.9499z" fill="#fff"/><path d="m26.3112 42.9999c-.25 0-.35-.2299-.38-.4799-.0168-.052-.0168-.1081 0-.1601.0313-.0604.0786-.1111.1369-.1464.0582-.0353.125-.0538.1931-.0536.0508.0025.1006.0152.1465.0374.0458.0221.0867.0532.1203.0915.0335.0382.0591.0828.0751.1311s.0222.0993.0181.15c0 .25-.13.43-.34.43zm.65-2.08h-.23c-.3397.0212-.6646.147-.93.3601-.1422.1412-.2545.3095-.3301.4951s-.113.3845-.1099.5848c-.0082.1363.0116.2728.0582.4011.0465.1284.1189.2458.2126.3451s.2067.1784.3321.2324.2605.0817.3971.0814c.1158.0028.2311-.0181.3385-.0614.1075-.0434.205-.1083.2865-.1907s.1453-.1807.1874-.2886c.0421-.108.0617-.2235.0576-.3393.0083-.1021-.0047-.2048-.0381-.3016-.0335-.0968-.0867-.1857-.1562-.2609-.0696-.0752-.154-.1351-.248-.176-.0939-.0409-.1953-.0618-.2977-.0615-.095-.0025-.1894.0148-.2773.051-.0878.0362-.1671.0904-.2327.1591.0412-.1718.1402-.3241.2804-.4316.1402-.1074.313-.1634.4896-.1585h.25z" fill="#fff"/><path d="m6.98047 33.37v.47h1.10998l-1.01001 1.95h.62003l.97998-2.06v-.36z" fill="#fff"/><path d="m17.0605 33.71c.0394-.0002.0785.0079.1146.0238s.0684.0393.0948.0685c.0265.0293.0464.0638.0586.1014.0121.0375.0162.0771.012.1163-.0015.068-.0246.1337-.0659.1876-.0414.0539-.0989.0933-.1641.1124-.21-.07-.33-.18-.33-.33-.0049-.0379-.001-.0764.0113-.1127.0123-.0362.0328-.069.0599-.0961.027-.027.0599-.0475.0961-.0599.0362-.0123.0748-.0162.1127-.0113zm0 1.72c-.0445.0028-.0891-.0037-.131-.0191-.0419-.0155-.08-.0395-.112-.0706s-.0572-.0685-.0739-.1099c-.0167-.0413-.0246-.0858-.0231-.1304-.0008-.0874.0302-.1721.0872-.2383.057-.0663.1362-.1095.2228-.1217.0957.0095.1847.0532.2508.1229.0661.0698.1049.1611.1092.2571.0017.0429-.0059.0857-.0222.1254s-.0409.0754-.0722.1048c-.0312.0294-.0685.0517-.1091.0655-.0407.0137-.0838.0186-.1265.0143zm-.49-.87c-.1228.041-.2292.1205-.3031.2269-.0738.1063-.1114.2337-.1069.3631 0 .33.28.67.9.67s.92-.29.92-.72c-.0019-.1385-.0473-.273-.1299-.3843s-.198-.1937-.3301-.2357c.1062-.045.1969-.1201.2609-.2161.064-.0959.0985-.2085.0991-.3239 0-.28-.23-.62-.79-.62-.1022-.0124-.2059-.004-.3048.0249-.0988.0288-.1908.0774-.2703.1429-.0795.0654-.1448.1464-.1921.2379-.0472.0915-.0754.1916-.0828.2943.0013.1075.033.2124.0914.3027.0584.0902.1411.1621.2386.2074z" fill="#fff"/><path d="m26.2613 33.73c.29 0 .36.26.36.52.0111.0494.0111.1006 0 .15-.0339.0508-.0801.0921-.1343.1201-.0543.028-.1147.0417-.1757.0399-.23 0-.33-.18-.33-.39s.12-.44.3-.44zm-.67 2.09h.26c.3397-.004.6678-.124.93-.34.1469-.1414.2615-.3129.3357-.5028s.1064-.3937.0943-.5972c.0169-.1315.0059-.265-.0325-.3919-.0383-.1269-.103-.2442-.1899-.3443s-.194-.1807-.3142-.2365-.2509-.0856-.3834-.0873c-.1169-.0013-.2329.0204-.3414.0639s-.2073.108-.2909.1897-.1502.1791-.1962.2866c-.0459.1074-.0702.2229-.0715.3398-.0043.0983.0119.1965.0476.2882s.0901.1749.1597.2445c.0695.0696.1528.1239.2445.1596s.1899.0519.2882.0477c.0901.012.1818.0019.2672-.0294.0854-.0314.1619-.0831.2228-.1506-.0122.0917-.0468.1789-.1009.254-.0541.075-.126.1355-.2091.176-.1345.0971-.2944.1526-.46.16h-.26z" fill="#fff"/><path d="m34.3594 33.86 1.88 1.88.46-.47-1.88-1.87z" fill="#fff"/><path d="m36.2394 33.4-1.88 1.87.46.47 1.88-1.88z" fill="#fff"/><path d="m37.0916 4.63h-31.24004c-.26521 0-.51958.10535-.70712.29288-.18754.18754-.29288.44191-.29288.70712v14.68c0 .2652.10534.5196.29288.7071s.44191.2929.70712.2929h31.24004c.2652 0 .5195-.1054.7071-.2929.1875-.1875.2929-.4419.2929-.7071v-14.68c0-.26521-.1054-.51958-.2929-.70712-.1876-.18753-.4419-.29288-.7071-.29288zm-27.87004 3.85001h24.57994v9.51999h-24.68996v-9.51999z" fill="#006ea4"/><path d="m8.0097 18h27.15.1v-.1-9.31003-.10999h-.1-27.15-.08001v.10999 9.31003.1z" fill="#fff"/><path d="m26.6797 12.75.23.26.3-.26.36-2.08-.61.52z" fill="#000"/><path d="m26.5214 10.5701h1l-.61.5099h-.49l-.23-.2599z" fill="#000"/><path d="m26.5983 13.27.31-.26.2.26-.33 1.9-.31.26-.23-.26z" fill="#000"/><path d="m31.1181 12.65.26-1.46-.2099-.29-.3001.29-.29 1.46.23.26z" fill="#000"/><path d="m30.8899 10.5701.21.25-.31.2599h-1.47l-.2301-.2599.31-.25z" fill="#000"/><path d="m30.511 12.73.1999.28-.31.26h-1.49l-.2-.26.3001-.28z" fill="#000"/><path d="m28.8314 13.3401-.23-.25-.31.25-.35 2.0099.61-.5399z" fill="#000"/><path d="m28.6317 14.9099h1.47l.22.26-.3.26h-2.01z" fill="#000"/><path d="m33.9289 13.3401-.24-.25-.31.25-.25 1.47.2.28.31-.28z" fill="#000"/><path d="m32.9211 15.4299h-1.54l-.26-.26.34-.26h1.56l.21.26z" fill="#000"/><path d="m33.3117 13.27h-1.54l-.26-.26.33-.28h1.57l.21.28z" fill="#000"/><path d="m34.0317 12.65.28-1.46-.23-.29-.31.29-.26 1.46.21.26z" fill="#000"/><path d="m32.1506 11.08-.26-.2599.36-.25h1.55l.23.25-.31.2599z" fill="#000"/></g><path d="m7.6705 26.59v.72c.01243.1865.01243.3735 0 .56-.03565.1246-.09698.2405-.18002.34-.092.1043-.209.1834-.34.23-.14754.0522-.30361.0759-.45999.07-.16287.0174-.32712.0174-.48999 0-.11842-.0337-.22334-.1037-.30002-.2-.08174-.0909-.14614-.1959-.19-.31-.03266-.1883-.04937-.3789-.04999-.57v-.72c-.0043-.2184.03301-.4356.10999-.64.04905-.1546.15677-.2838.30001-.36.18175-.1058.38984-.1579.60001-.15.16487.0028.3277.0367.47998.1.1349.0386.25399.1192.34.23.07273.0793.12435.1755.15002.28.04715.1519.06412.3116.04999.47zm-.87003-.21c.00775-.0932.00775-.1869 0-.28-.00623-.0221-.0192-.0417-.03714-.0561-.01793-.0143-.0399-.0227-.06283-.0239-.01183-.0014-.02383-.0004-.03528.0029s-.02213.0088-.03143.0162c-.0093.0075-.01705.0167-.02277.0271-.00571.0105-.00928.0219-.01053.0338v.28 1.29c-.02135.0921-.02135.1879 0 .28h.10001.09997c.0047-.0766.0047-.1534 0-.23zm2.06-.8v.26c.04951-.0997.1303-.1805.23001-.23.09141-.0628.19914-.0975.31-.1.13601-.0001.26873.0418.38001.12.08764.0639.15108.1555.17999.26.0199.1795.0199.3605 0 .54v2h-.88001v-2c.01607-.1195.01607-.2405 0-.36 0-.05.00003-.08-.09997-.08s-.11002 0-.11002.08c-.01511.1363-.01511.2737 0 .41v2h-.86999v-2.88z" fill="#fff"/><path d="m15.75 26.1699h2.65v.6701h-2.65zm0 1h2.65v.6701h-2.65z" fill="#fff"/></svg>