<svg fill="none" height="38" viewBox="0 0 50 38" width="50" xmlns="http://www.w3.org/2000/svg"><g clip-rule="evenodd" fill-rule="evenodd"><path d="m27.9995 1.84997c-1.8668-.906952-3.8984-1.425089-5.9715-1.523072s-4.1445.226285-6.0885.953122c-10.61999 4.78-11.64996 20.36998-10.84996 30.64998h-3.91004c-.359996 0-.749969.05-1.1599688.05v5.68h23.8799688v-5.66c-1.39 0-2.81 0-4.24-.05h-12.17c-.69-9.85.46999-23.72999 10.11-27.99999 3.034-1.13364 6.3783-1.11586 9.4.04998-.31 2.62 1.46 6.50001 5.4 9.00001.6773-1.6625 1.6998-3.16226 3-4.40003 1.0275-.97406 2.1893-1.79576 3.45-2.44-5.55-5.220003-9.2-5.759993-10.82-4.23999z" fill="#fff"/><path d="m39.9983 14.39c-3 3.5-4.5701 7.08-3.5201 8s4.3501-1.21 7.3501-4.71 4.5799-7.07 3.5299-8.00003c-1.05-.93-4.3499 1.21003-7.3599 4.70003z" fill="#ffe6aa"/><path d="m36.4684 22.37c-1.05-.9.51-4.48 3.52-8s6.3-5.60001 7.36-4.70001c1.06.90001-.5199 4.47001-3.5299 8.00001s-6.3001 5.6-7.3501 4.71zm-1-13.72998c-1.3924 1.33529-2.451 2.97968-3.0899 4.79998-.2714 1.5292-.2343 3.0973.1091 4.612.3435 1.5147.9864 2.9454 1.8909 4.208.4685.4265 1.0871.6495 1.7199.62 2.16 0 5.4801-1.9 8.4301-4.86 1.7161-1.666 3.1333-3.6143 4.1899-5.76.88-2 .9001-3.55001.0601-4.40001-1.098-.92281-2.3772-1.60517-3.7551-2.00305-1.378-.39789-2.8241-.50246-4.2449-.30695-1.9899.58101-3.8065 1.64215-5.2901 3.09003z" fill="#feca5c"/></g></svg>