<svg fill="none" height="167" viewBox="0 0 121 167" width="121" xmlns="http://www.w3.org/2000/svg"><path d="m85.5788 115.47v.81c.0044 5.704-1.9421 11.239-5.5164 15.684-3.5743 4.446-8.5614 7.535-14.1335 8.756-1.7693.395-3.5771.593-5.39.59-6.6304 0-12.9893-2.634-17.6777-7.322-4.6885-4.689-7.3223-11.048-7.3223-17.678 0-.27 0-.54 0-.81-12.4655-5.705-22.6045-15.5032-28.73317-27.7661-6.128703-12.263-7.87847-26.2534-4.95874-39.648 2.91974-13.3946 10.33331-25.3876 21.00961-33.9874 10.6764-8.59981 23.9731-13.289052 37.6823-13.289052 13.7091 0 27.0058 4.689242 37.6821 13.289052 10.676 8.5998 18.09 20.5928 21.01 33.9874 2.919 13.3946 1.17 27.385-4.959 39.648-6.129 12.2629-16.2676 22.0611-28.7331 27.7661z" fill="#f8ac22"/><path d="m85.5786 115.47v.81c.0043 5.704-1.9421 11.239-5.5164 15.684-3.5743 4.446-8.5614 7.535-14.1335 8.756-4.0399-2.123-7.4215-5.311-9.7784-9.22-2.3568-3.908-3.5989-8.386-3.5916-12.95 0-.26 0-.53 0-.8-12.4237-5.685-22.5383-15.436-28.6747-27.643-6.1364-12.2071-7.928-26.1415-5.0794-39.504 2.8487-13.3624 10.1675-25.3546 20.7488-33.9978 10.5814-8.64325 23.793-13.42106 37.4552-13.5452 11.8114 3.3699 22.3064 10.2784 30.0714 19.7951 7.765 9.5166 12.428 21.1844 13.359 33.4317.932 12.2473-1.912 24.486-8.149 35.0676-6.236 10.5816-15.5655 18.9976-26.7313 24.1156z" fill="#fcbd1f"/><g fill="#584a4b"><path d="m80.9401 138.08c0 1.994-.7924 3.907-2.2027 5.317-1.4102 1.411-3.3229 2.203-5.3174 2.203h-25.9c-1.9944 0-3.9072-.792-5.3175-2.203-1.4103-1.41-2.2025-3.323-2.2025-5.317 0-1.995.7919-3.909 2.2019-5.321s3.3228-2.206 5.3181-2.209h25.9c1.9954.003 3.908.797 5.318 2.209s2.2021 3.326 2.2021 5.321z"/><path d="m77.5815 149.88c0 1.666-.6613 3.265-1.8387 4.444s-2.7747 1.843-4.4412 1.846h-21.65c-1.6691 0-3.2701-.662-4.4513-1.842-1.1812-1.179-1.8461-2.779-1.8487-4.448 0-.827.163-1.646.4797-2.409.3167-.764.7809-1.458 1.3661-2.042.5851-.584 1.2798-1.048 2.0441-1.363.7642-.316 1.5833-.477 2.4101-.476h21.65c.8256 0 1.643.163 2.4056.479.7625.316 1.4552.78 2.0385 1.364s1.0457 1.278 1.3607 2.041c.3151.763.4765 1.58.4751 2.406z"/><path d="m49.3008 156.17c.3194 2.764 1.6436 5.313 3.7207 7.164s4.7622 2.874 7.5443 2.874 5.4671-1.023 7.5442-2.874 3.4012-4.4 3.7207-7.164z"/></g></svg>