<svg fill="none" height="43" viewBox="0 0 85 43" width="85" xmlns="http://www.w3.org/2000/svg"><g clip-rule="evenodd" fill-rule="evenodd"><path d="m82.3694 14.9299-1.99.67v19.69h-1.77v5.37l2.49-1.97 2.58 1.97v-5.37h-1.31z" fill="#ffc80c"/><g fill="#fff"><path d="m80.3813 15.6 1.9899-.67 2.0801-.7-2.0801-.72-.8299-.25-38.9201-13.119985-41.83995 14.089985 15.41005 5.2 1.56.51 3.5799 1.24 21.57 6.81 21.3601-6.92v.03l4.74-1.62-.03-.05z"/><path d="m65.2889 29.9399c-.3077-1.9488-.7521-3.8735-1.33-5.76-25.77 6.69-14 8.21-39.47.16-.23 1-1.36 4.88-1.36 5.6 0 3.5 15.45 12.29 20.23 12.29 4.94 0 21.93-8.87 21.93-12.29z"/></g></g></svg>