<svg fill="none" height="50" viewBox="0 0 44 50" width="44" xmlns="http://www.w3.org/2000/svg"><path d="m10.1417 27.68c10.46 8.32 1.68 15.19 9.08 20 6.65 4.32 19.2099.47 23.8899-17 3.45-12.88-4.16-25.54001-16.65-29.45001-16.58996-5.23-29.98993 15.57001-16.3199 26.45001zm10.3799 13.9c.43-1.61 2.59-2.42 4.82-1.82s3.7 2.38 3.27 4-2.59 2.43-4.83 1.83-3.69-2.4-3.26-4.01z" fill="#fdc00f"/><path d="m8.44052 12.21c-.20439.7641-.17761 1.5717.07693 2.3207.25455.7489.72542 1.4056 1.35312 1.887.62773.4813 1.38403.7658 2.17343.8173.7893.0516 1.5762-.1321 2.2612-.5277s1.2373-.9854 1.5871-1.6949.4814-1.5067.3781-2.291c-.1032-.7842-.4367-1.5203-.9582-2.115-.5215-.5948-1.2076-1.02157-1.9717-1.22642-.5075-.13608-1.037-.17082-1.5579-.10223-.521.06859-1.0234.23917-1.4784.50198-.45508.26277-.85388.61267-1.17365 1.02967s-.55425.8929-.69003 1.4006z" fill="#a2e2e8"/><path d="m16.71 6.6c-.2043.76416-.1776 1.57176.077 2.32071.2545.74895.7254 1.40559 1.3531 1.88699.6277.4813 1.3841.7658 2.1734.8173.7893.0516 1.5762-.132 2.2612-.5277.685-.3956 1.2374-.9854 1.5872-1.69487.3498-.70948.4814-1.50674.3781-2.291-.1032-.78426-.4367-1.52029-.9582-2.11505-.5216-.59476-1.2077-1.02154-1.9718-1.22638-.5075-.13608-1.0369-.17083-1.5579-.10224-.521.0686-1.0234.23918-1.4784.50199s-.8538.6127-1.1736 1.02969-.5543.89292-.6901 1.40056z" fill="#184f78"/><path d="m26.5407 9.74998c-.2063.76392-.1814 1.57192.0716 2.32172s.7227 1.4077 1.3497 1.8905 1.3831.7687 2.1726.8217c.7896.0529 1.5771-.1295 2.263-.5242.6858-.3947 1.2392-.984 1.59-1.6933.3509-.7092.4835-1.5067.3811-2.2913-.1024-.7847-.4353-1.52135-.9565-2.11679s-1.2073-1.02292-1.9715-1.22834c-1.0237-.27517-2.1148-.13273-3.0336.39603-.9187.52876-1.59 1.40059-1.8664 2.42398z" fill="#fc611f"/><path d="m32.421 18.26c-.2044.7642-.1776 1.5718.0769 2.3207.2545.749.7254 1.4056 1.3532 1.887.6277.4814 1.384.7658 2.1733.8173.7894.0516 1.5763-.132 2.2613-.5276.685-.3957 1.2373-.9855 1.5871-1.695.3498-.7094.4814-1.5067.3781-2.291-.1032-.7842-.4367-1.5203-.9582-2.115-.5215-.5948-1.2077-1.0216-1.9717-1.2264-.5076-.1361-1.037-.1708-1.558-.1022-.5209.0686-1.0233.2391-1.4784.502-.455.2628-.8538.6127-1.1736 1.0296-.3198.417-.5542.893-.69 1.4006z" fill="#16b6c6"/><path d="m32.2999 28.61c-.2044.7642-.1776 1.5718.0769 2.3207.2546.749.7255 1.4056 1.3532 1.887.6277.4813 1.384.7658 2.1733.8173.7894.0516 1.5763-.132 2.2613-.5276.685-.3957 1.2373-.9855 1.5871-1.695.3498-.7094.4814-1.5067.3781-2.291-.1032-.7842-.4367-1.5203-.9582-2.115-.5215-.5948-1.2076-1.0216-1.9717-1.2264-.5075-.1361-1.0369-.1708-1.5579-.1022s-1.0234.2391-1.4785.5019c-.455.2629-.8538.6128-1.1736 1.0298-.3197.4169-.5542.8929-.69 1.4005z" fill="#fff2cf"/><g fill="#000" opacity=".2"><path d="m14.579 10c.464.6724.7109 1.4708.7076 2.2878-.0033.8169-.2566 1.6133-.726 2.2819-.4694.6687-1.1322 1.1776-1.8995 1.4583-.7672.2808-1.602.3198-2.3921.112-.43945-.1233-.85518-.3194-1.22994-.58.52908.7778 1.32084 1.3387 2.22994 1.58.9064.2348 1.8664.1443 2.7128-.2559.8465-.4001 1.5257-1.0845 1.9195-1.9339s.4771-1.81.2355-2.7146c-.2416-.9045-.7929-1.6957-1.5578-2.2356z"/><path d="m39.1495 19.33c-.1357.5076-.3702.9835-.69 1.4005s-.7186.7669-1.1736 1.0297c-.4551.2629-.9574.4334-1.4784.502s-1.0504.0339-1.558-.1022c-.4409-.1194-.8573-.3158-1.23-.58.3291.4926.7635.906 1.2718 1.2102.5083.3043 1.0778.4918 1.6675.5491.5896.0573 1.1846-.017 1.742-.2177s1.0632-.5227 1.481-.9427c.4177-.4201.737-.9276.9346-1.4861.1977-.5584.2689-1.1538.2084-1.7432-.0605-.5893-.2512-1.1578-.5582-1.6644-.307-.5067-.7227-.9388-1.2171-1.2652.3344.475.5613 1.0172.6649 1.5888.1036.5717.0815 1.159-.0649 1.7212z"/><path d="m34.2706 11.83c.2112-.7972.1708-1.6402-.1157-2.41348-.2864-.77333-.8048-1.43923-1.4843-1.90654.4662.67166.7153 1.47003.7139 2.2876-.0015.81752-.2534 1.61502-.7219 2.28512-.4684.67-1.131 1.1804-1.8983 1.4624-.7674.282-1.6028.3221-2.3937.1149-.4399-.127-.8556-.3264-1.23-.59.4362.6208 1.04 1.1047 1.7408 1.3953.7009.2907 1.47.3759 2.2175.2459s1.4426-.4699 2.0042-.9801c.5616-.5101.9665-1.1695 1.1675-1.9011z"/><path d="m22.8386 4.35999c.4625.67172.7086 1.46878.7054 2.28433-.0033.81555-.2557 1.61063-.7236 2.27865-.4678.66803-1.1286 1.17713-1.8939 1.45893-.7653.2819-1.5985.3231-2.3879.1181-.4431-.1185-.8602-.3186-1.23-.59001.3273.49561.7608.91211 1.2691 1.21931.5083.3071 1.0786.4973 1.6695.5566.591.0593 1.1877-.0138 1.7468-.2139.5592-.2 1.0669-.5221 1.4861-.9428s.7394-.92951.9375-1.48942c.198-.55991.2689-1.15689.2075-1.7476-.0614-.59072-.2536-1.16035-.5626-1.66753s-.7271-.9392-1.2239-1.26466z"/><path d="m38.4284 26.37c.3344.4751.5613 1.0172.6649 1.5889.1036.5716.0815 1.1589-.0649 1.7211-.1357.5076-.3702.9836-.69 1.4006-.3198.4169-.7186.7668-1.1736 1.0296-.4551.2629-.9574.4334-1.4784.502s-1.0504.0339-1.558-.1022c-.4423-.1207-.859-.3206-1.23-.59.3273.4956.7608.9121 1.2691 1.2193s1.0786.4973 1.6696.5566c.5909.0593 1.1876-.0138 1.7468-.2138.5592-.2001 1.0668-.5222 1.486-.9429s.7395-.9295.9375-1.4894c.1981-.5599.269-1.1569.2075-1.7476-.0614-.5907-.2536-1.1604-.5626-1.6675-.309-.5072-.7271-.9392-1.2239-1.2647z"/></g><path d="m8.56991 30.52c-3.66 6.32-5.35001 12.18-3.79001 13.08s5.78-3.5 9.44-9.82 5.35-12.19 3.79-13.09-5.79 3.5-9.43999 9.83z" fill="#184f78"/><path d="m2.82922 42.88c.33581-.282.75251-.4501 1.19001-.48 4.64.6 1.91999 7.91-2.73001 6.78-.2083-.0527-.407281-.137-.590001-.25.14664-.1304.280584-.2743.400011-.43.20577-.3238.29075-.7097.23999-1.09 0-.41-.11-.89-.11-1.45-.01794-.7106.18468-1.4093.58-2 .28433-.4088.62812-.7728 1.02-1.08z" fill="#fc611f"/><path d="m4.46733 40.0401-1.58452 2.7456 3.52507 2.0344 1.58452-2.7456z" fill="#a3b9c9"/><path d="m1.2397 49.16.34-.3.16-.1h-.06001l2.47-4.28c1.43932-5.2559 3.59987-10.2871 6.42001-14.95 1.6717-2.9229 3.5393-5.7293 5.59-8.4-2 1.29-5 4.84-7.59 9.42-1.80388 2.9773-3.18384 6.1916-4.1 9.55l-1.58001 2.73-.1.06c-.37903.2843-.71573.621-1 1-.39532.5907-.59793 1.2894-.57999 2 0 .56.09 1 .11 1.45.05076.3803-.03423.7662-.24 1.09-.119429.1557-.253372.2996-.400012.43.173263.1232.361442.224.560012.3z" fill="#fff" opacity=".3"/></svg>