<svg fill="none" height="50" viewBox="0 0 51 50" width="51" xmlns="http://www.w3.org/2000/svg"><path clip-rule="evenodd" d="m33.3003 32.22c2.3848-2.3844 4.0091-5.4224 4.6672-8.7298.6581-3.3075.3207-6.7359-.9697-9.8515-1.2904-3.1157-3.4757-5.77875-6.2796-7.65237-2.804-1.87363-6.1006-2.87366-9.4729-2.87366s-6.6689 1.00003-9.4728 2.87366c-2.80394 1.87362-4.98923 4.53667-6.27961 7.65237-1.29038 3.1156-1.62787 6.544-.96973 9.8515.65815 3.3074 2.28236 6.3454 4.66718 8.7298 3.19866 3.1943 7.53446 4.9885 12.05496 4.9885 4.5206 0 8.8563-1.7942 12.055-4.9885z" fill="#fff" fill-rule="evenodd"/><path d="m49.8604 44.69-8.58-8.59c-.3987-.4028-.9079-.6786-1.4631-.7925-.5553-.1139-1.1318-.0608-1.6569.1525l-1.62-1.65c3.4903-3.9845 5.2894-9.1729 5.0151-14.4628s-2.6004-10.26438-6.4841-13.8665-9.0189-5.5479648-14.3144-5.4241042c-5.2956.1238602-10.3342 2.3076742-14.04519 6.0874342-3.71104 3.77976-5.802057 8.85757-5.828739 14.15447-.026682 5.297 2.013019 10.3956 5.685789 14.2125 3.67274 3.817 8.68914 6.0514 13.98314 6.2286 5.2941.1772 10.4486-1.7168 14.3684-5.2796l1.62 1.62c-.2087.525-.2583 1.0998-.1427 1.6527.1156.553.3913 1.0598.7927 1.4573l8.59 8.56c.5451.5078 1.2657.7846 2.0105.7723s1.456-.3127 1.984-.8381c.5281-.5255.8319-1.2351.8479-1.9799.0159-.7447-.2574-1.4667-.7624-2.0143zm-16.56-12.47c-2.3849 2.3834-5.423 4.0062-8.7301 4.6632s-6.7347.3187-9.8495-.9721c-3.1149-1.2908-5.77705-3.4761-7.65005-6.2797-1.873-2.8037-2.87274-6.0997-2.87274-9.4714s.99974-6.6677 2.87274-9.4713c1.873-2.80365 4.53515-4.98899 7.65005-6.27978 3.1148-1.29079 6.5424-1.62908 9.8495-.97208s6.3452 2.27978 8.7301 4.66318c3.1876 3.20428 4.977 7.54018 4.977 12.05998s-1.7894 8.8557-4.977 12.06z" fill="#ccc"/></svg>