<svg fill="none" height="62" viewBox="0 0 48 62" width="48" xmlns="http://www.w3.org/2000/svg"><g clip-rule="evenodd" fill-rule="evenodd"><path d="m1.94159 16.05-.09998.28c-.83478 2.1569-1.327411 4.431-1.460018 6.74l39.920008 16.38c24.38-28.21-23.75-58.06-38.36001-23.4zm-1.590028 10.08c.246715 3.0684 1.178968 6.0422 2.727968 8.7023 1.549 2.6602 3.67525 4.9387 6.22204 6.6677v.05l11.70003 4.81v-.05c3.0244.5554 6.1349.426 9.1027-.3787 2.9679-.8047 5.7177-2.2642 8.0473-4.2713z" fill="#ff5b40"/><path d="m10.3481 14c-.2977.7352-.80735 1.3654-1.4641 1.8102-.65675.4449-1.43094.6845-2.22418.6883s-1.56973-.2283-2.23071-.6669c-.66099-.4386-1.17659-1.0638-1.48139-1.7961-.30479-.7324-.385-1.5388-.23034-2.3168.15465-.7781.53716-1.4925 1.09887-2.05263.56171-.56011 1.27727-.94056 2.05573-1.09299s1.58468-.06996 2.31616.23693c.97031.40708 1.74114 1.18011 2.14546 2.15159.4043.9715.4095 2.0631.0145 3.0384z" fill="#fff"/><path d="m31.1183 1.93005-11.38 29.06995 20.56 8.44c13.84-16 4.32-32.54996-9.18-37.51996z" fill="#dd4f39"/><path d="m38.1709 41.66-19.46-8-4 10.13 6.25 2.57v-.05c3.0245.5554 6.1349.426 9.1028-.3786 2.9678-.8047 5.7176-2.2643 8.0472-4.2714z" fill="#dd4f39"/><path d="m14.75 43.77-5.47999-2.27-5.94 12.5c-.85 2.08-.36001 3.88 1.23999 4.52l3.77002 1.57z" fill="#c2700a"/><path d="m14.7498 43.77-6.40996 16.32 4.08996 1.67c1.57.65 3.19-.3 4-2.36l4.57-13.06z" fill="#a3610a"/></g></svg>