<svg fill="none" height="51" viewBox="0 0 45 51" width="45" xmlns="http://www.w3.org/2000/svg"><path clip-rule="evenodd" d="m31.5606 19.67c-.07-2.63-.89-6.28-2.31-8 .0487-.0963.076-.2021.0801-.31.1496-2.3478 1.103-4.57249 2.7-6.29999 1.8642-1.6415 4.2292-2.60372 6.7099-2.73001.2385-.03616.4558-.15727.612-.34103.1562-.18377.2408-.4178.2381-.65897-.0405-.23479-.1635-.447409-.3468-.599577-.1834-.152167-.415-.233871-.6532-.230408-2.9099.137595-5.6784 1.295265-7.82 3.269985-1.6984 1.73104-2.7897 3.9662-3.1101 6.37-1.4845-1.08917-3.2788-1.67442-5.12-1.66998-1.5454.00881-3.0506.4942-4.31 1.38998-.3401-2.29329-1.3891-4.42273-3-6.09-2.1528-1.96961-4.9256-3.126101-7.83994-3.269985-.24149-.017046-.48028.059739-.66657.214356-.18628.154617-.3057.375129-.33343.615629-.02237.24104.05115.48121.20465.6684s.3746.30633.61536.3316c2.48075.12629 4.84573 1.08851 6.70993 2.73001 1.5927 1.69042 2.5473 3.88251 2.7 6.19999-1.85 1.95-3.06 6-3.21 8.38z" fill="#fefefe" fill-rule="evenodd"/><path clip-rule="evenodd" d="m29.7614 16.33c.4167.0324.8059.2208 1.0897.5276.2839.3068.4416.7094.4416 1.1273 0 .418-.1577.8206-.4416 1.1274-.2838.3068-.673.4953-1.0897.5277-.2281.0177-.4575-.0119-.6737-.087-.2162-.0752-.4144-.1942-.5824-.3496s-.302-.3439-.3937-.5535c-.0916-.2097-.1389-.4361-.1389-.665 0-.2288.0473-.4552.1389-.6648.0917-.2097.2257-.3982.3937-.5536s.3662-.2744.5824-.3495c.2162-.0752.4456-.1048.6737-.087z" fill="#fff" fill-rule="evenodd"/><path clip-rule="evenodd" d="m15.2404 16.43c.3287.002.6495.1015.9216.286s.4832.4457.6067.7503c.1235.3047.1538.6392.0869.961-.0668.3219-.2276.6167-.4622.847-.2345.2304-.5322.3859-.8552.4468-.323.061-.6569.0247-.9593-.1043s-.5596-.3449-.7392-.6202c-.1795-.2754-.2732-.5979-.2693-.9266.0053-.4385.1839-.8572.4968-1.1645.3129-.3072.7347-.4782 1.1732-.4755z" fill="#fff" fill-rule="evenodd"/><path clip-rule="evenodd" d="m4.77148 24.37 6.05002 1.57c0-.62 0-1.26 0-1.9l-5.17002-1.36-2.90002-9.34c-.03533-.1167-.09355-.2253-.17121-.3193-.07765-.094-.17319-.1717-.28113-.2284-.10794-.0568-.2261-.0916-.34759-.1022-.12149-.0107-.24385.0029-.36005.0399-.23034.0861-.4209.254-.53528.4716-.114367.2177-.144584.4699-.084773.7084l3.060063 9.82c.05641.1587.15196.3005.27783.4124.12586.1119.27794.1902.44214.2276z" fill="#fefefe" fill-rule="evenodd"/><path clip-rule="evenodd" d="m7.2202 49.29 4.91-15.29-4.78994 2.16c-.04763.0368-.09778.0702-.15003.1l-.51001.8-1.77997 11.94c-.02897.3019.05275.604.22998.85.18995.2493.46988.4144.77997.46.2986.0274.59705-.0543.84003-.23.25006-.1865.41841-.4623.46997-.77l1.67004-11.21 3.79996-1.75c-.2-.77-.38-1.54-.56-2.29z" fill="#fefefe" fill-rule="evenodd"/><path clip-rule="evenodd" d="m34.6203 25.94 6-1.57c.1642-.0374.3163-.1157.4421-.2276.1259-.1118.2215-.2537.2779-.4124l3-9.82c.0392-.1162.0549-.239.0464-.3613s-.0411-.2418-.0959-.3514c-.0549-.1097-.1308-.2074-.2236-.2876s-.2005-.1413-.3169-.1797c-.2374-.0754-.4949-.0535-.7162.0609-.2212.1143-.388.3119-.4638.5491l-2.91 9.34-5.09 1.32v1.9z" fill="#fefefe" fill-rule="evenodd"/><path clip-rule="evenodd" d="m38.3789 36.3-5-2.31c-.21.74-.8 1.44-1 2.21l4.53 1.95 1.69 11.24c.0187.1511.0673.2969.1428.4291s.1765.2481.2972.3409c.2545.1741.564.2488.87.21.1525-.0184.2998-.0671.4331-.1434.1334-.0762.2501-.1784.3434-.3005.0932-.1222.161-.2617.1994-.4104.0384-.1488.0466-.3037.0241-.4557l-1.77-11.88-.49-.8-.18-.08z" fill="#fefefe" fill-rule="evenodd"/><path clip-rule="evenodd" d="m34.0017 20.21h-21.1l-2.14.05-.25 5.73c.07 7.74 2.39 16.95 12 16.95 11.09 0 13.48-14.33 11.5-22.73z" fill="#ff4000" fill-rule="evenodd"/><g fill="#000"><path clip-rule="evenodd" d="m13.3594 23c.54 0 1 .66 1 1.46s-.44 1.44-1 1.44-1-.64-1-1.44.44-1.46 1-1.46z" fill-rule="evenodd"/><path d="m13.3589 22.83c.1789-.0015.3549.0451.5097.1348s.2826.2192.3703.3752c.2205.3463.3352.7495.33 1.16.0018.4101-.1126.8123-.33 1.16-.0948.1496-.2243.274-.3775.3628s-.3256.1393-.5025.1472c-.1772-.0003-.3511-.0477-.504-.1373s-.2792-.2182-.366-.3727c-.2251-.3447-.3434-.7483-.34-1.16-.009-.4125.1097-.8177.34-1.16.0868-.1545.2131-.2831.366-.3727s.3268-.137.504-.1373zm.49.77c-.0406-.0993-.1097-.1844-.1988-.2442-.089-.0599-.1939-.0918-.3012-.0918s-.2122.0319-.3012.0918c-.0891.0598-.1583.1449-.1988.2442-.1696.2696-.2596.5815-.2596.9s.09.6304.2596.9c.0497.0923.1233.1698.2129.2242.0897.0545.1922.0841.2971.0858.1049-.0072.2066-.0391.297-.0929.0903-.0539.1667-.1282.223-.2171.1462-.2778.225-.5861.23-.9.0021-.3188-.0882-.6314-.26-.9z"/><path clip-rule="evenodd" d="m19.7383 28.49c.54 0 1 .66 1 1.46s-.43 1.44-1 1.44-1-.64-1-1.44.44-1.46 1-1.46z" fill-rule="evenodd"/><path d="m19.7383 28.28c.1772.0003.3511.0477.504.1373s.2791.2183.366.3727c.2581.3502.395.775.39 1.21.0034.4117-.1149.8153-.34 1.16-.0869.1545-.2131.2831-.366.3727s-.3268.137-.504.1373c-.1775-.0053-.3509-.0547-.5045-.1437-.1536-.0891-.2827-.2149-.3755-.3663-.2174-.3477-.3318-.7499-.33-1.16-.0052-.4105.1094-.8136.33-1.16.0876-.1559.2155-.2855.3703-.3752s.3308-.1363.5097-.1348zm.51.77c-.0503-.0935-.1234-.1728-.2126-.2305s-.1915-.0919-.2974-.0995c-.1055.0138-.2067.0505-.2965.1075-.0899.057-.1662.1329-.2236.2225-.1505.2761-.2293.5856-.2293.9 0 .3145.0788.6239.2293.9.0563.0889.1327.1633.2231.2171.0903.0539.192.0857.297.0929.1049-.0016.2074-.0312.2971-.0857.0896-.0545.1631-.1319.2129-.2243.1505-.2761.2294-.5855.2294-.9 0-.3144-.0789-.6239-.2294-.9z"/><path clip-rule="evenodd" d="m25.7305 28.92c.54 0 1 .67 1 1.47s-.44 1.44-1 1.44-1-.64-1-1.44.44-1.47 1-1.47z" fill-rule="evenodd"/><path d="m25.7297 28.72c.1772.0003.3511.0477.504.1373s.2791.2182.366.3727c.2302.3424.349.7475.34 1.16.0034.4117-.1149.8153-.34 1.16-.0913.1506-.2186.2761-.3705.3651s-.3236.1388-.4995.1449c-.1771-.0071-.3498-.0572-.5032-.1461-.1533-.0888-.2827-.2138-.3768-.3639-.2174-.3477-.3318-.7499-.33-1.16-.0052-.4105.1094-.8137.33-1.16.0876-.1559.2155-.2855.3703-.3752s.3308-.1363.5097-.1348zm.51.77c-.0483-.096-.1206-.1778-.2101-.2374-.0894-.0596-.1928-.095-.2999-.1026-.1066.0143-.2086.0522-.2986.111-.0899.0589-.1656.1371-.2214.229-.1505.2761-.2294.5856-.2294.9 0 .3145.0789.6239.2294.9.058.0873.1347.1605.2247.2141.09.0537.1909.0864.2953.0959.1044-.0036.2062-.0341.2955-.0884s.1631-.1306.2145-.2216c.1505-.2761.2294-.5855.2294-.9 0-.3144-.0789-.6239-.2294-.9z"/><path clip-rule="evenodd" d="m18 36.46c.54 0 1 .64 1 1.44s-.43 1.44-1 1.44-1-.65-1-1.44.44-1.44 1-1.44z" fill-rule="evenodd"/><path d="m17.9991 36.23c.1757.0069.3471.0571.4988.146.1518.089.2793.214.3712.364.2174.3477.3318.7499.33 1.16.0021.407-.1124.806-.33 1.15-.0849.1612-.2122.2962-.3681.3904-.156.0942-.3347.144-.5169.144s-.361-.0498-.5169-.144c-.156-.0942-.2833-.2292-.3681-.3904-.2021-.3497-.309-.7462-.31-1.15.0011-.407.1079-.8067.31-1.16.0953-.1536.2277-.2807.385-.3698.1572-.0891.3343-.1373.515-.1402zm.48.77c-.0433-.0937-.1104-.1744-.1946-.2341s-.1827-.0962-.2854-.1059c-.1087.0069-.2137.0418-.3048.1014-.0912.0596-.1653.1418-.2152.2386-.1718.2685-.2622.5811-.26.9-.0005.3185.0897.6307.26.9.0519.0943.1268.1739.2177.2316s.1948.0915.3023.0984c.1014-.0097.1987-.0451.2827-.1029.084-.0577.1519-.1359.1973-.2271.175-.2671.2657-.5807.26-.9.0069-.3195-.0838-.6335-.26-.9z"/><path clip-rule="evenodd" d="m29.6094 35.58c.54 0 1 .67 1 1.47s-.44 1.44-1 1.44-1-.65-1-1.44.44-1.47 1-1.47z" fill-rule="evenodd"/><path d="m29.6089 35.35c.1808.0066.3568.0597.511.1543.1541.0946.2812.2275.369.3857.2205.3463.3352.7494.33 1.16.0018.41-.1126.8122-.33 1.16-.0942.1501-.2235.275-.3768.3639-.1534.0889-.3261.139-.5032.1461-.1752-.0095-.3456-.0607-.4969-.1494-.1514-.0888-.2793-.2124-.3731-.3606-.2251-.3448-.3434-.7483-.34-1.16-.009-.4125.1097-.8177.34-1.16.0883-.1556.2142-.2865.3662-.3808.152-.0944.3252-.1491.5038-.1592zm.51.8c-.0466-.0973-.1186-.1802-.2083-.2401-.0898-.0598-.194-.0943-.3017-.0999-.1057.0128-.2069.0502-.2955.1093-.0886.059-.1621.138-.2145.2307-.1506.2761-.2294.5855-.2294.9 0 .3144.0788.6239.2294.9.0552.0876.1301.1611.2186.2149s.1882.0863.2914.0951c.1049-.0017.2075-.0313.2971-.0858s.1631-.1319.2129-.2242c.1696-.2696.2596-.5816.2596-.9 0-.3185-.09-.6305-.2596-.9z"/><path clip-rule="evenodd" d="m32.1797 23c.54 0 1 .64 1 1.44s-.44 1.46-1 1.46-1-.64-1-1.46.43-1.44 1-1.44z" fill-rule="evenodd"/><path d="m32.1789 22.73c.1805.0075.3562.0611.5102.1556s.2813.2268.3698.3844c.2209.335.3359.7287.33 1.13.0076.4108-.1073.8146-.33 1.16-.0899.1563-.2176.2876-.3713.3819-.1537.0944-.3286.1487-.5087.1581-.1829-.0088-.3608-.0627-.5178-.1569-.1571-.0943-.2883-.2259-.3822-.3831-.2069-.3513-.3142-.7524-.31-1.16-.0033-.3981.1041-.7893.31-1.13.0925-.1585.2234-.2911.3807-.3855s.3359-.1475.5193-.1545zm.49.77c-.0467-.0926-.1182-.1704-.2064-.2247-.0883-.0544-.19-.0831-.2936-.0831-.1037 0-.2053.0287-.2936.0831-.0883.0543-.1597.1321-.2064.2247-.1734.2678-.2639.5809-.26.9-.0096.3198.0813.6345.26.9.0405.0993.1097.1843.1988.2442.089.0598.1939.0918.3012.0918s.2121-.032.3012-.0918c.089-.0599.1583-.1449.1988-.2442.1745-.2674.2651-.5808.26-.9-.0007-.3185-.0908-.6303-.26-.9z"/><path clip-rule="evenodd" d="m19.4513 10.8c.2674-.004.5299.0716.7543.217.2244.1455.4005.3543.506.6001.1056.2457.1358.5172.0868.7801s-.1751.5053-.362.6965c-.187.1912-.4265.3225-.6883.3774-.2617.0549-.5338.0307-.7818-.0693s-.4608-.2714-.6112-.4925c-.1505-.2211-.2318-.4819-.2339-.7493-.0026-.1768.0298-.3524.0953-.5167.0656-.1642.1629-.3138.2866-.4403.1236-.1264.271-.2271.4338-.2963.1627-.0691.3375-.1054.5144-.1067z" fill-rule="evenodd"/><path clip-rule="evenodd" d="m26.0002 10.69c.2679-.002.5303.0757.7538.2233s.3981.3583.5015.6054.131.5194.0793.7822c-.0518.2628-.1806.5042-.37.6936s-.4309.3182-.6937.37c-.2628.0517-.535.0242-.7821-.0792-.2471-.1035-.4578-.278-.6054-.5016-.1476-.2235-.2254-.4859-.2234-.7537.0026-.3546.1446-.6939.3954-.9447.2507-.2507.59-.3927.9446-.3953z" fill-rule="evenodd"/></g></svg>