<svg fill="none" height="165" viewBox="0 0 89 165" width="89" xmlns="http://www.w3.org/2000/svg"><path d="m74.3887 51.0601v84.6199c-.1431 7.818-3.3494 15.268-8.9289 20.746-5.5796 5.478-13.0866 8.548-20.9061 8.548-7.8194 0-15.3264-3.07-20.906-8.548s-8.7858-12.928-8.9289-20.746v-84.6199z" fill="#a8dbeb"/><path d="m88.3086 51.0601c0 2.3418-.9303 4.5878-2.5862 6.2437-1.656 1.656-3.9019 2.5862-6.2438 2.5862h-69.83999c-2.34186 0-4.58783-.9302-6.24377-2.5862-1.65595-1.6559-2.586246-3.9019-2.586246-6.2437 0-2.3419.930296-4.5879 2.586246-6.2438 1.65594-1.656 3.90191-2.5862 6.24377-2.5862h69.83999c2.3419 0 4.5878.9302 6.2438 2.5862 1.6559 1.6559 2.5862 3.9019 2.5862 6.2438z" fill="#7bcce7"/><g fill="#004853"><path d="m70.4584 71.9501v60.9999c-.1332 6.782-2.9211 13.242-7.7647 17.991-4.8436 4.75-11.3567 7.41-18.1403 7.41s-13.2966-2.66-18.1403-7.41c-4.8436-4.749-7.6314-11.209-7.7647-17.991v-61.9c6.09 1.55 18.6 2.1201 43.29-.2299 2.8791-.0269 5.7475.3536 8.52 1.13z"/><path d="m47.4111 30.92c0 1.4379-.4264 2.8434-1.2252 4.039-.7988 1.1955-1.9343 2.1273-3.2627 2.6776-1.3284.5502-2.7902.6943-4.2004.4138-1.4103-.2805-2.7057-.973-3.7224-1.9897-1.0167-1.0168-1.7091-2.3121-1.9896-3.7223-.2805-1.4103-.1366-2.872.4137-4.2005.5502-1.3284 1.4821-2.4638 2.6776-3.2627 1.1955-.7988 2.6011-1.2252 4.039-1.2252 1.9281 0 3.7773.766 5.1407 2.1294s2.1293 3.2125 2.1293 5.1406z"/><path d="m74.3902 12.2901c.0019 2.4208-.714 4.7879-2.0573 6.8018-1.3433 2.014-3.2536 3.5844-5.4894 4.5126-2.2358.9283-4.6967 1.1726-7.0714.7023-2.3747-.4704-4.5567-1.6342-6.2699-3.3446s-2.8807-3.8905-3.3549-6.2644c-.4742-2.374-.2338-4.83522.6907-7.07254.9246-2.23732 2.4919-4.15023 4.5037-5.49683 2.0118-1.346588 4.3776-2.0663764 6.7985-2.068355 1.6077-.0026292 3.2002.311733 4.6863.925171 1.4861.613434 2.8367 1.513854 3.9745 2.649784 1.1378 1.13592 2.0404 2.48509 2.6563 3.97021s.9329 3.07706.9329 4.68486z"/></g><path d="m38.1402 88.6801c0 1.0363-.3074 2.0494-.8831 2.9111-.5758.8617-1.3942 1.5333-2.3517 1.9299s-2.011.5004-3.0275.2982-1.9502-.7012-2.683-1.434c-.7328-.7329-1.2319-1.6666-1.4341-2.683-.2022-1.0165-.0983-2.07.2983-3.0275s1.0682-1.7759 1.9299-2.3517 1.8748-.883 2.9112-.883c1.3897 0 2.7225.5521 3.7052 1.5348.9827.9826 1.5348 2.3154 1.5348 3.7052z" fill="#fff"/></svg>