<svg fill="none" height="51" viewBox="0 0 36 51" width="36" xmlns="http://www.w3.org/2000/svg"><path clip-rule="evenodd" d="m24.23 28.13-11.7 19.08c-1.0147 1.4337-2.54491 2.4192-4.27 2.75-.83337.1954-1.69718.224-2.54165.0841-.84448-.1398-1.65296-.4453-2.37888-.8989-.72592-.4535-1.35493-1.0463-1.85083-1.744-.495902-.6976-.848889-1.4866-1.038635-2.3212-.3929417-1.6802-.109197-3.4474.789975-4.92l7.23001-11.57 8.92001-14.26 7.07-11.33003c.8182-1.31282 2.1244-2.246834 3.6312-2.59659 1.5069-.3497548 3.091-.086594 4.4038.7316 1.3128.81819 2.2469 2.12437 2.5966 3.63122.3498 1.50686.0866 3.09096-.7316 4.40378l-16.27 26.00002c-.4442.8038-1.1246 1.4516-1.9491 1.8558-.8246.4043-1.7535.5454-2.6609.4042-.6638-.112-1.2992-.3532-1.87-.71-.5793-.3693-1.0707-.8608-1.44-1.44-.55393-.915-.82311-1.9742-.77325-3.0426.04986-1.0685.41651-2.098 1.05325-2.9574.1-.12 13.24-20.74004 13.55-21.23004l.78.52002-13.53 21.23002c-1.24 2-1.11 3.76-.29 5 .2937.475.6901.8782 1.16 1.18.4624.2919.9797.4858 1.52.57.7224.1033 1.4591-.0166 2.1115-.3437.6523-.327 1.1891-.8456 1.5385-1.4863l16.27-26.07004c.3677-.54507.6217-1.15868.7468-1.80417.1252-.64548.1188-1.30959-.0186-1.95257s-.4031-1.25163-.7811-1.78958c-.3781-.53796-.8607-.99417-1.4191-1.34131-.5584-.34715-1.1811-.5781-1.8308-.67908-.6497-.100982-1.3131-.06991-1.9505.09137s-1.2357.44943-1.7592.84726-.9614.89714-1.2875 1.46808l-7.1 11.33004-8.89002 14.3-7.26999 11.53c-.7679 1.2642-1.015266 2.777-.69 4.22.33314 1.4373 1.221 2.6846 2.47 3.47.6197.3913 1.31136.6548 2.03433.775.72298.1202 1.46268.0947 2.17566-.075 1.49045-.2567 2.81982-1.0902 3.70002-2.32l11.7-19.08z" fill="#d83b21" fill-rule="evenodd"/></svg>