<svg fill="none" height="62" viewBox="0 0 167 62" width="167" xmlns="http://www.w3.org/2000/svg"><g fill="#004b57"><path d="m60.7103 2.55001c.278.7377.2544 1.55517-.0656 2.27564-.32.72046-.9107 1.28599-1.6444 1.57434l-51.85995 19.62001c-.7377.278-1.55517.2544-2.27564-.0656s-1.286-.9107-1.57434-1.6444c-.27799-.7377-.25445-1.5551.06555-2.2756s.9107-1.2861 1.64441-1.5744l51.85997-19.659987c.7377-.277987 1.5552-.254448 2.2757.065552.7204.319995 1.2859.910765 1.5743 1.644465z"/><path d="m10.3402 22.31c.002.9419-.2754 1.8631-.79719 2.6472-.52183.7841-1.26456 1.3958-2.13416 1.7576s-1.82709.4575-2.7511.2749c-.924-.1825-1.77299-.6351-2.43969-1.3004s-1.12107-1.5134-1.305546-2.437c-.184477-.9236-.090812-1.8812.269166-2.7516.35998-.8703.97006-1.6143 1.75305-2.1378s1.70364-.8029 2.64551-.8029c1.2607 0 2.46992.5001 3.3623 1.3906.89239.8905 1.39506 2.0987 1.39766 3.3594z"/><path d="m133.211 19.79c0 .9394-.279 1.8578-.801 2.639-.521.7811-1.263 1.3899-2.131 1.7494s-1.823.4536-2.745.2703c-.921-.1832-1.767-.6357-2.432-1.3-.664-.6643-1.117-1.5106-1.3-2.432s-.089-1.8765.27-2.7445c.36-.8679.969-1.6097 1.75-2.1317.781-.5219 1.699-.8005 2.639-.8005 1.26 0 2.468.5004 3.359 1.3912.89.8908 1.391 2.099 1.391 3.3588z"/><path d="m59.9281 32.7199c-.0017 4.3756-1.0585 8.6862-3.0809 12.5663s-4.9508 7.2153-8.5366 9.7227c-3.5859 2.5074-7.7236 4.113-12.0622 4.6807-4.3385.5677-8.75.0807-12.8603-1.4197-3.4809-1.2925-6.6603-3.284-9.3423-5.8518s-4.8099-5.6575-6.25257-9.0789c-1.44266-3.4214-2.16953-7.1019-2.13586-10.8148s.82707-7.3797 2.33154-10.7743 3.68809-6.4453 6.41629-8.9641c2.7281-2.5187 5.9431-4.45219 9.4469-5.68135 3.5037-1.22916 7.2219-1.72797 10.9258-1.46564 3.7038.26233 7.3147 1.28024 10.6102 2.99097 4.3909 2.30662 8.0669 5.77062 10.6299 10.01702 2.5629 4.2464 3.9152 9.1131 3.9101 14.0729z"/></g><path d="m59.9308 32.7199c-.0017 4.3756-1.0585 8.6862-3.0809 12.5663s-4.9508 7.2153-8.5367 9.7227c-3.5858 2.5074-7.7235 4.113-12.0621 4.6807-4.3385.5677-8.7501.0807-12.8603-1.4197-6.1452-3.19-10.8425-8.6034-13.1346-15.1369-2.29199-6.5334-2.00617-13.695.7992-20.0251 2.8054-6.33 7.9193-11.3519 14.2991-14.042 6.3799-2.69016 13.5454-2.84605 20.0363-.43592 4.3909 2.30662 8.0669 5.77072 10.6298 10.01702 2.563 4.2464 3.9153 9.1131 3.9102 14.0729z" fill="#005966"/><path d="m51.3284 32.72c0 4.9303-1.9586 9.6588-5.4449 13.1451s-8.2147 5.4449-13.1451 5.4449-9.6588-1.9586-13.1451-5.4449-5.4449-8.2148-5.4449-13.1451c-.0013-2.4417.4786-4.8596 1.4124-7.1156.9338-2.2561 2.303-4.3059 4.0295-6.0324s3.7765-3.0958 6.0325-4.0296c2.256-.9337 4.674-1.4137 7.1156-1.4124 4.9296.0027 9.6565 1.9621 13.1422 5.4478s5.4451 8.2126 5.4478 13.1422z" fill="#afdad5"/><path d="m130.638 32.72c.006 5.3809-1.584 10.6427-4.569 15.1196-2.985 4.477-7.231 7.968-12.201 10.0313s-10.44 2.6062-15.7178 1.5601c-5.2782-1.0461-10.1277-3.6343-13.9347-7.4371s-6.4004-8.6493-7.4524-13.9264c-1.0519-5.2771-.5151-10.7477 1.5428-15.7196 2.0578-4.9719 5.5441-9.2217 10.0178-12.2118 4.4737-2.99011 9.7337-4.58612 15.1143-4.58613 3.572-.00658 7.109.69148 10.41 2.0542s6.301 3.36333 8.828 5.88723c2.526 2.5239 4.53 5.5215 5.897 8.821 1.366 3.2996 2.068 6.8363 2.065 10.4076z" fill="#004b57"/><path d="m128.458 34.17c-.002 5.3768-1.598 10.6323-4.586 15.1022-2.989 4.4698-7.235 7.9533-12.203 10.01s-10.434 2.5943-15.7078 1.5448c-5.2734-1.0494-10.1172-3.6388-13.9192-7.4408s-6.3915-8.6459-7.4409-13.9193c-1.0495-5.2734-.5118-10.7395 1.5449-15.7074s5.5402-9.2145 10.01-12.203c4.4698-2.98841 9.7253-4.58455 15.102-4.58652 3.574-.00791 7.115.69025 10.418 2.05438 3.304 1.36414 6.306 3.36734 8.833 5.89474 2.527 2.5273 4.531 5.5289 5.895 8.8326 1.364 3.3036 2.062 6.8441 2.054 10.4183z" fill="#005966"/><path d="m122.02 32.72c0 3.6772-1.091 7.2717-3.134 10.3291-2.043 3.0573-4.947 5.44-8.344 6.8468-3.398 1.4067-7.136 1.7742-10.7426 1.0561-3.6064-.7181-6.9188-2.4896-9.5182-5.0904-2.5995-2.6009-4.3692-5.9143-5.0853-9.521-.7162-3.6068-.3467-7.3449 1.0618-10.7416 1.4086-3.3967 3.7929-6.2994 6.8514-8.3409 3.0584-2.0415 6.6536-3.1301 10.3309-3.1281 2.441 0 4.858.4809 7.112 1.4153 2.255.9343 4.304 2.3038 6.029 4.0302 1.726 1.7264 3.094 3.7757 4.027 6.0311s1.413 4.6726 1.412 7.1134z" fill="#afdad5"/><path d="m56.4414 21.55s12.2899-4.82 28.3999 1.62" stroke="#005966" stroke-miterlimit="10" stroke-width="10.38"/><path d="m40.6099 49.55c-3.4604 1.6128-7.3332 2.1217-11.0928 1.4577-3.7595-.6641-7.2237-2.469-9.9222-5.1696-2.6985-2.7007-4.5006-6.1664-5.1616-9.9265s-.149-7.6325 1.4666-11.0916z" fill="#fff"/><path d="m111.31 49.55c-3.461 1.6162-7.335 2.1278-11.097 1.4652-3.7613-.6626-7.2277-2.4671-9.928-5.1685s-4.5034-6.1686-5.1645-9.9305c-.661-3.7619-.1479-7.6361 1.4697-11.0962z" fill="#fff"/><path d="m69.4707 11.16c-.2013.3003-.4599.558-.761.7583-.301.2003-.6386.3393-.9934.409-.3548.0696-.7199.0686-1.0743-.003-.3545-.0716-.6913-.2124-.9912-.4143l-9.35-6.26004c-.3004-.20134-.5581-.45993-.7584-.76099-.2003-.30105-.3392-.63865-.4089-.99347-.0696-.35481-.0686-.71984.003-1.07428.0716-.35443.2124-.69125.4143-.99121.1996-.30219.4572-.56184.7578-.76385.3006-.202015.6384-.342412.9937-.413087.3552-.070675.7208-.07022 1.0759.001343.355.071563.6924.212823.9925.415584l9.35 6.26996c.3004.20134.5581.45994.7584.76099s.3393.63865.409.99347c.0696.35482.0686.71991-.003 1.07438-.0716.3544-.2125.6912-.4144.9912z" fill="#004b57"/><path d="m157.059 8.39999c.278.73769.255 1.55517-.065 2.27561-.32.7205-.911 1.2861-1.645 1.5744l-24.74 10.22c-.738.278-1.555.2544-2.276-.0656-.72-.32-1.286-.9107-1.574-1.6444-.278-.7377-.254-1.5551.066-2.2756s.91-1.2861 1.644-1.5744l24.74-10.21997c.738-.27799 1.555-.25445 2.276.06555.72.32 1.286.9107 1.574 1.64441z" fill="#004b57"/><path d="m165.818 17.04c-.406.6061-1.037 1.0263-1.753 1.1688-.716.1424-1.459-.0046-2.067-.4088l-9.35-6.27c-.3-.2013-.558-.4599-.758-.761-.2-.301-.339-.6386-.409-.99346-.069-.35482-.068-.71985.003-1.07428.072-.35444.213-.69132.414-.99127.407-.60608 1.038-1.02627 1.753-1.1687.716-.14244 1.46.00453 2.067.40875l9.35 6.26996c.301.2013.558.4599.759.761.2.301.339.6386.409.9935.069.3548.068.7199-.003 1.0743-.072.3544-.213.6912-.415.9912z" fill="#004b57"/></svg>