<svg fill="none" height="59" viewBox="0 0 57 59" width="57" xmlns="http://www.w3.org/2000/svg"><g clip-rule="evenodd" fill-rule="evenodd"><path d="m40.8597 2.99999-31.68001 31.40001 4.24001 4 31.68-31.42c.0755-.07818.1348-.17062.1743-.27191.0394-.10129.0584-.2094.0557-.31808l-3.83-3.57001c-.1168-.00778-.2339.00861-.344.04819-.1101.03957-.2109.10146-.296.18179z" fill="#ffc01c"/><path d="m54.74 15.84-31.74 31.41 3.11 2.91 30-29.77c.93-.93.39-3-1.18-4.91l-.05-.08c-.0326.1618-.1048.3129-.21.44z" fill="#e6ad19"/><path d="m9.23126 34.4499 31.71004-31.28996c.15-.15.3-.38001.56-.38001l-.18-.19c-2.18-1.799998-4.63-2.4900082-5.63-1.51001l-30.16005 29.91998z" fill="#e6ad19"/><path d="m50.47 11.85-31.72 31.45 4.42 4.08 31.7-31.44c.1-.1.05-.36.08-.54l-4-3.73c-.179.0028-.3518.0662-.49.18z" fill="#ffc01c"/><path d="m18.7508 43.3 31.72-31.3c.1264-.1569.2971-.2719.49-.33l-5.63-5.32002c0 .23-.23.31-.36.44l-31.67 31.41002z" fill="#e6ad19"/><path d="m2.80939 47.44 9.02001-8.21-7.43002-7.12-2.29 14.68z" fill="#efbb86"/><path d="m18.6711 45.74-9.05001 8.23.41001.38 14.71-2.8z" fill="#efbb86"/><path d="m11.8286 39.23-9.02001 8.21 6.81 6.53 9.05001-8.23z" fill="#f2c89d"/><path d="m7.12061 51.5701-3.97999 4.12 6.88998-1.34-.40999-.38z" fill="#1a1a1a"/><path d="m3.14188 55.69 4.08999-4.01-2.01001-1.93-4.19 4.11-.359985 2.29z" fill="#2b2b2b"/><path d="m1.91016 48.26.91998-.8-.72-.67z" fill="#1a1a1a"/><path d="m1.03125 53.9099 4.22-4.14-2.44-2.33-.9.82z" fill="#1a1a1a"/><path d="m53.4611 55.84h-41.09l-11.750006 2 52.840006.78c.1422.0088.2824-.0371.392-.1281.1097-.091.1804-.2204.198-.3619v-1.83c-.0152-.1424-.0853-.2732-.1955-.3647-.1102-.0916-.2517-.1365-.3945-.1253z" fill="#fff"/></g></svg>