<svg fill="none" height="166" viewBox="0 0 131 166" width="131" xmlns="http://www.w3.org/2000/svg"><path d="m95.8997 164.94c-.45.2-.88.37-1.33.52l-47.2101-103.74-4.0899-9-2.34-5.17c3.0208-1.5606 5.4967-4.0016 7.1-7 2.6979.2282 5.2972 1.1212 7.5658 2.5992 2.2685 1.4781 4.1355 3.4951 5.4342 5.8708.19.34.36.68.52 1l42.4303 93.23c.9 1.954 1.404 4.066 1.485 6.216.081 2.149-.264 4.293-1.015 6.309s-1.893 3.863-3.36 5.436c-1.4677 1.573-3.2315 2.84-5.1903 3.729z" fill="#a8a8a7"/><path d="m88.2592 46.42-2.38 5.21-4.11 9-7.7 16.92-9.75 21.42-30.2401 66.46c-.4495-.148-.8902-.322-1.3199-.52-3.9403-1.794-7.007-5.079-8.5259-9.133s-1.3657-8.546.4259-12.487l29.9199-65.74 9.75-21.42 2.76-6.07c1.3882-3.0218 3.6613-5.5509 6.5183-7.2527 2.8571-1.7017 6.1635-2.4958 9.4817-2.2773 1.2383 2.3411 3.0093 4.3586 5.1701 5.89z" fill="#c6c6c6"/><path d="m88.2501 46.42-2.37 5.21-4.11 9-7.6999 16.92-9.75 21.42-30.2401 66.46c-.4495-.148-.8902-.322-1.32-.52-1.0987-.5-2.1383-1.12-3.0999-1.85l31.5799-70.89 9.63-21.64 6-13.41 4.27-9.57 2.63-5.91c1.1617 1.8746 2.6845 3.4995 4.48 4.78z" fill="#a8a8a7"/><path d="m33.0386.0100098c-6.4253.0039589-12.7053 1.9123902-18.0464 5.4841802-5.3411 3.57178-9.50372 8.64661-11.96167 14.58321-2.457955 5.9366-3.1009407 12.4686-1.8479 18.7706 1.25304 6.302 4.34593 12.0911 8.88797 16.6359 4.542 4.5448 10.3291 7.6413 16.6303 8.8982s12.8336.6178 18.7718-1.8365c5.9381-2.4543 11.0155-6.6137 14.5905-11.9526 3.5751-5.3388 5.4875-11.6177 5.4954-18.043.0026-4.2723-.8366-8.5032-2.4697-12.451s-4.0281-7.5352-7.0481-10.55704c-3.02-3.02188-6.6059-5.41908-10.5528-7.05461-3.9468-1.635533-8.1771-2.477341-12.4494-2.4773402zm15 40.5699902c-1.4568 2.713-3.6199 4.9817-6.2604 6.5661-2.6405 1.5843-5.6603 2.4253-8.7396 2.4339-3.7178 0-7.3331-1.2188-10.2921-3.4696-2.9591-2.2508-5.0987-5.4096-6.0911-8.9925s-.7829-7.3924.5964-10.8449c1.3793-3.4524 3.8523-6.3576 7.0403-8.2704s6.9151-2.7278 10.6105-2.3201 7.1554 2.0155 9.8497 4.5773c2.6944 2.5617 4.4747 5.936 5.0683 9.6062.5935 3.6701-.0325 7.4336-1.782 10.714z" fill="#e73147"/><path d="m33.0416 9.85999c-4.4856-.00198-8.8712 1.32621-12.602 3.81671s-6.6394 6.0313-8.3578 10.1748-2.16956 8.7034-1.2964 13.1033c.8732 4.3999 3.0315 8.4421 6.2019 11.6153 3.1705 3.1733 7.2108 5.3351 11.6099 6.2121 4.3991.8771 8.9595.43 13.1045-1.2848s7.6883-4.6202 10.1821-8.3488 3.8258-8.1129 3.8278-12.5986c.0039-2.9791-.5796-5.9298-1.7172-8.6831-1.1376-2.7534-2.8071-5.2554-4.9127-7.3629s-4.6061-3.7791-7.3584-4.9191c-2.7524-1.1401-5.7025-1.72623-8.6817-1.72491zm7.8901 37.73001c-2.4253 1.306-5.1355 1.993-7.8901 2-3.7178 0-7.333-1.2188-10.2921-3.4696-2.959-2.2508-5.0986-5.4096-6.091-8.9925-.9924-3.583-.7829-7.3924.5964-10.8449s3.8523-6.3576 7.0403-8.2704 6.9151-2.7278 10.6105-2.3201c3.6953.4077 7.1553 2.0155 9.8497 4.5772 2.6944 2.5618 4.4747 5.9361 5.0682 9.6062.5936 3.6702-.0324 7.4337-1.782 10.7141-1.6123 2.985-4.0912 5.4116-7.1099 6.96z" fill="#8e2129"/><path d="m98.0785.0100098c-4.2723-.0000008-8.5027.8418072-12.4495 2.4773402-3.9468 1.63553-7.5326 4.03273-10.5526 7.05461-3.02 3.02184-5.4151 6.60924-7.0482 10.55704s-2.4722 8.1787-2.4696 12.451c0 4.6744 1.0086 9.2937 2.957 13.5426 1.9485 4.2489 4.7908 8.0273 8.3329 11.0774 1.5224 1.3267 3.1702 2.5022 4.9201 3.51 4.3174 2.5044 9.1535 3.9814 14.1335 4.3166 4.9799.3352 9.9699-.4805 14.5839-2.3838 4.615-1.9033 8.729-4.8431 12.024-8.5918 3.296-3.7488 5.684-8.2057 6.98-13.0258 1.296-4.82 1.466-9.8737.495-14.7697-.971-4.8959-3.055-9.5028-6.093-13.4636-3.037-3.9609-6.945-7.16952-11.421-9.37736-4.477-2.20785-9.401-3.3556578-14.3925-3.3545412zm0 49.5299902c-3.5173.0009-6.9482-1.0892-9.8199-3.12-1.8018-1.2756-3.3315-2.8971-4.5-4.77-.2316-.3521-.4388-.7196-.62-1.1-1.3238-2.458-2.0113-5.2082-2-8 0-3.3623.997-6.649 2.8649-9.4447 1.868-2.7956 4.5231-4.9746 7.6294-6.2612 3.1064-1.2867 6.5245-1.6234 9.8221-.9675 3.298.656 6.327 2.2751 8.704 4.6526 2.378 2.3775 3.997 5.4066 4.653 8.7043s.319 6.7158-.968 9.8221c-1.286 3.1064-3.465 5.7614-6.261 7.6294-2.795 1.868-6.082 2.865-9.4444 2.865z" fill="#e73147"/><path d="m98.0793 9.86c-4.3748-.01846-8.6611 1.231-12.3408 3.5972s-6.5951 5.7479-8.3935 9.736c-1.7983 3.9881-2.4027 8.4119-1.74 12.7362.6628 4.3244 2.5641 8.3641 5.4743 11.6306 1.3851 1.576 2.9879 2.9465 4.76 4.07 2.9666 1.8967 6.3342 3.0762 9.8359 3.4452s7.0408-.0828 10.3378-1.3196c3.297-1.2367 6.26-3.2244 8.655-5.8054s4.156-5.6845 5.144-9.0644c.987-3.3799 1.173-6.9432.544-10.4076-.63-3.4644-2.057-6.7346-4.17-9.5513-2.113-2.8168-4.853-5.1027-8.003-6.6764-3.15-1.5738-6.623-2.39227-10.1436-2.3905zm0 39.68c-3.5173.0009-6.9482-1.0892-9.82-3.12-1.8017-1.2756-3.3314-2.8971-4.5-4.77-.2315-.3521-.4387-.7196-.62-1.1-1.3237-2.458-2.0112-5.2082-2-8 0-3.3623.997-6.649 2.865-9.4447 1.868-2.7956 4.5231-4.9746 7.6294-6.2612 3.1064-1.2867 6.5245-1.6234 9.8223-.9674 3.298.6559 6.327 2.275 8.704 4.6525 2.378 2.3775 3.997 5.4066 4.653 8.7043s.319 6.7158-.968 9.8221c-1.286 3.1064-3.465 5.7614-6.261 7.6294s-6.082 2.865-9.4447 2.865z" fill="#8e2129"/><path d="m70.2081 77.1c.002 1.1262-.3303 2.2277-.9547 3.1649-.6245.9373-1.513 1.6682-2.5531 2.1001s-2.1851.5454-3.2898.3261c-1.1047-.2192-2.1194-.7613-2.9158-1.5577-.7963-.7963-1.3385-1.8111-1.5577-2.9158-.2193-1.1047-.1058-2.2496.3262-3.2897.4319-1.0401 1.1628-1.9287 2.1-2.5531.9373-.6245 2.0387-.9568 3.165-.9548 1.5056.0026 2.9488.6019 4.0134 1.6666 1.0646 1.0646 1.6639 2.5078 1.6665 4.0134z" fill="#fff"/></svg>