<svg fill="none" height="65" viewBox="0 0 42 65" width="42" xmlns="http://www.w3.org/2000/svg"><g clip-rule="evenodd" fill-rule="evenodd"><path d="m26.3594 60.75c-.3536 1.184-1.0798 2.2223-2.0707 2.9606-.991.7382-2.1936 1.137-3.4293 1.137s-2.4384-.3988-3.4293-1.137c-.9909-.7383-1.7171-1.7766-2.0707-2.9606z" fill="#000"/><path d="m29.9982 55.9399c.3919.4554.602 1.0394.59 1.64.0028.3785-.0762.7532-.2315 1.0983-.1554.3452-.3834.6528-.6685.9017h-17.69c-.2913-.2448-.5249-.5511-.684-.8969-.159-.3458-.2396-.7225-.236-1.1031-.002-.599.2069-1.1796.59-1.64z" fill="#d7d5da"/><path d="m29.6299 50.92c.3123.2448.5647.5575.7379.9145.1733.357.2629.7487.2621 1.1455.0004.6498-.2463 1.2754-.69 1.75h-18.16c-.4355-.4798-.6809-1.1021-.69-1.75-.0017-.3969.0876-.7889.261-1.146.1733-.3571.4261-.6697.739-.914z" fill="#d7d5da"/><path d="m35.8014 36.24c-2.37 3.47-4.78 7.05-4.94 11.88-.0227.5875-.2409 1.1506-.62 1.6h-18.71c-.3962-.4415-.626-1.0073-.65-1.6-.15-4.83-2.57-8.43-4.93-11.88-2.83-4.14-5.759994-8.43-5.759994-16 0-10.82004 9.279994-19.640024 20.669994-19.640024s20.7 8.819984 20.7 19.640024c0 7.56-2.93 11.85-5.76 16z" fill="#fdc81a"/></g><path d="m23.0687 29.9401h-5.4c0-.77 0-1.23 0-1.41-.0605-1.4793.238-2.9512.87-4.29.8837-1.4942 2.0648-2.791 3.4701-3.81 1.1023-.8505 2.1417-1.7796 3.11-2.78.502-.6461.7731-1.4418.7699-2.26.0086-.5724-.1119-1.1393-.3526-1.6587-.2406-.5194-.5952-.9778-1.0374-1.3413-1.0418-.8622-2.3696-1.3012-3.72-1.23-1.3782-.0216-2.7189.4501-3.78 1.33-1.102 1.0491-1.8322 2.4287-2.08 3.93l-5.44995-.67c.06839-1.2371.39146-2.4467.94895-3.5532.5575-1.1064 1.3375-2.0858 2.291-2.87683 2.1857-1.8403 4.9861-2.78683 7.8401-2.65 2.9553-.15109 5.861.80438 8.1499 2.68.9271.74763 1.6769 1.69133 2.1957 2.76343.5187 1.072.7934 2.2457.8043 3.4365 0 1.3217-.3858 2.6145-1.11 3.7201-1.3503 1.7966-2.9419 3.3983-4.73 4.76-.9325.6842-1.7266 1.5393-2.34 2.5199-.371 1.0892-.5106 2.2438-.41 3.3901zm-5.4 7.95v-5.89h5.4v5.92z" fill="#fff"/></svg>