<svg fill="none" height="167" viewBox="0 0 130 167" width="130" xmlns="http://www.w3.org/2000/svg"><path d="m129.369 101.69c0 12.763-3.785 25.24-10.876 35.852s-17.17 18.883-28.962 23.767c-11.7919 4.884-24.7673 6.161-37.2852 3.67-12.5179-2.49-24.016-8.637-33.0403-17.663s-15.16941-20.525-17.65818-33.043c-2.488779-12.518-1.209391-25.4934 3.67627-37.2845 4.88561-11.7911 13.15831-21.8686 23.77151-28.9581 10.6132-7.0894 23.0902-10.8724 35.8535-10.8704 8.4804-.0238 16.8819 1.6292 24.7212 4.8638 7.8393 3.2347 14.9622 7.9872 20.9582 13.9842s10.747 13.1203 13.98 20.9601c3.234 7.8398 4.886 16.2415 4.861 24.7219z" fill="#bbe2ed"/><path d="m122.14 100.39c0 11.254-3.337 22.256-9.59 31.613s-15.1401 16.65-25.5378 20.957c-10.3977 4.306-21.8389 5.432-32.8767 3.236s-21.1763-7.617-29.1335-15.575c-7.9572-7.959-13.3757-18.098-15.57007-29.137-2.19437-11.038-1.06598-22.4787 3.24217-32.8756 4.3082-10.397 11.6027-19.2829 20.9612-25.5339 9.3585-6.2511 20.3606-9.5865 31.6147-9.5845 15.081.0291 29.5358 6.0335 40.199 16.6983 10.663 10.6648 16.665 25.1207 16.691 40.2017z" fill="#a8dbeb"/><path d="m80.0903 6.56h-32.27v52.82h32.27z" fill="#a8dbeb"/><path d="m97.8682 3.66998c0 .38037-.0751.757-.221 1.10828-.1458.35128-.3594.67032-.6289.93881-.2694.26849-.5894.48115-.9411.62579-.3518.14465-.7286.21845-1.1089.21714h-62c-.7665 0-1.5017-.30449-2.0437-.84647s-.8465-1.27707-.8465-2.04355c-.0013-.38036.0727-.75722.2173-1.10901.1447-.35178.3573-.67155.6258-.94097.2685-.26943.5874-.4832.9387-.629064.3513-.145861.728-.220949 1.1084-.220947h62c.7691 0 1.5067.305541 2.0505.849391.5439.54386.8494 1.28148.8494 2.0506z" fill="#7bcce7"/><path d="m122.469 116.7c-1.955 8.24-5.654 15.965-10.845 22.655-5.191 6.691-11.7552 12.193-19.2505 16.134-7.4953 3.942-15.748 6.232-24.2027 6.718-8.4546.485-16.9151-.846-24.8122-3.904s-15.0474-7.772-20.9702-13.825-10.4806-13.304-13.36649-21.266c-2.88586-7.962-4.03282-16.449-3.36401-24.8911s3.13796-16.643 7.2415-24.0509c2.11-3.79 19.3198 2.94 22.1298 4 30 11.04 53.4902 38.96 87.4398 38.43z" fill="#e73147"/><g fill="#e50041"><path d="m42.2406 94.4c-.0019 1.4433-.4317 2.8538-1.2351 4.0529-.8033 1.1992-1.9442 2.1331-3.2783 2.6841s-2.8016.694-4.217.412c-1.4154-.283-2.7152-.979-3.7351-2.0007-1.02-1.0213-1.714-2.322-1.9949-3.7378s-.1358-2.8831.417-4.2164 1.4884-2.4728 2.6887-3.2745 2.6113-1.2296 4.0547-1.2296c.9595 0 1.9096.1892 2.7959.5566.8863.3675 1.6914.9061 2.3694 1.585.678.679 1.2155 1.4849 1.5818 2.3717.3662.8869.5543 1.8372.5529 2.7967z"/><path d="m67.3285 63.18c0 1.2381-.367 2.4484-1.0549 3.4779-.6878 1.0294-1.6654 1.8318-2.8093 2.3056s-2.4026.5978-3.617.3562c-1.2143-.2415-2.3298-.8377-3.2053-1.7132s-1.4716-1.9909-1.7131-3.2052c-.2416-1.2144-.1176-2.473.3562-3.6169s1.2762-2.1216 2.3057-2.8094c1.0294-.6879 2.2396-1.055 3.4777-1.055.8225-.0013 1.6372.1597 2.3973.4738.76.3142 1.4506.7752 2.0322 1.3568.5815.5815 1.0425 1.2722 1.3567 2.0322.3141.7601.4752 1.5748.4738 2.3972z"/><path d="m96.559 136.27c0 1.238-.3671 2.448-1.0549 3.478-.6879 1.029-1.6655 1.832-2.8093 2.305-1.1439.474-2.4027.598-3.617.357-1.2143-.242-2.3298-.838-3.2053-1.714-.8755-.875-1.4716-1.99-1.7131-3.205-.2416-1.214-.1176-2.473.3562-3.617.4738-1.143 1.2762-2.121 2.3056-2.809 1.0295-.688 2.2397-1.055 3.4778-1.055.8225-.001 1.6371.16 2.3972.474s1.4507.775 2.0322 1.357c.5816.581 1.0429 1.272 1.357 2.032s.4749 1.575.4736 2.397z"/><path d="m25.9492 122.2c0 1.236-.3667 2.444-1.0534 3.472-.6868 1.028-1.6629 1.829-2.805 2.302-1.142.473-2.3987.597-3.611.356-1.2124-.241-2.3259-.837-3.2-1.711s-1.4693-1.987-1.7104-3.2c-.2412-1.212-.1176-2.469.3554-3.611.4731-1.142 1.2742-2.118 2.302-2.805 1.0278-.686 2.2363-1.053 3.4724-1.053 1.6576 0 3.2474.658 4.4195 1.831 1.1721 1.172 1.8305 2.761 1.8305 4.419z"/><path d="m60.9986 125c0 1.444-.4283 2.855-1.2304 4.056-.8022 1.2-1.9423 2.136-3.2762 2.688-1.3339.553-2.8017.697-4.2177.416-1.4161-.282-2.7167-.977-3.7376-1.998s-1.7163-2.322-1.998-3.738-.137-2.884.4155-4.218c.5525-1.333 1.4882-2.474 2.6887-3.276s2.6119-1.23 4.0557-1.23c1.9361 0 3.7928.769 5.1619 2.138 1.369 1.369 2.1381 3.226 2.1381 5.162z"/></g></svg>