<svg fill="none" height="52" viewBox="0 0 52 52" width="52" xmlns="http://www.w3.org/2000/svg"><g clip-rule="evenodd" fill-rule="evenodd"><g fill="#f06c22"><path d="m31.5716 1.80994c.05-.21.11-.39.16-.59s0-.18001.07-.290008c6.5086 1.527108 12.1594 5.544408 15.74 11.189968l-13.63 8c-.07-.13-.15-.26-.23-.39-.08-.1299-.13-.26-.18-.39s-.28-.54-.38-.82c-.0823-.1474-.1525-.3012-.21-.46-.1-.26-.23-.49-.31-.75s-.13-.33-.2-.51-.19-.49-.26-.72-.1-.36-.16-.54-.15-.49-.23-.72-.07-.39-.13-.57-.12-.46-.18-.69-.07-.39-.13-.59-.07-.47-.12-.7 0-.41-.08-.59c-.046-.238-.0794-.4784-.1-.72 0-.2-.05-.38-.08-.59s0-.45997-.05-.71997 0-.38999 0-.58999 0-.46 0-.72v-.59c0-.23 0-.46 0-.72-.0152-.19637-.0152-.39363 0-.59.0017-.2408.0184-.48127.05-.72 0-.21 0-.42 0-.61999 0-.2 0-.46001.1-.69001s.06-.39.08-.6.08-.46001.13-.69001.08-.40999.13-.61999l.15-.69z"/><path d="m29.9986.809991c0 .229999-.1.429999-.15.659999s-.13.47002-.18.70002-.08.45998-.13.66998-.08.49-.13.72-.07.46001-.1.67001 0 .47999-.08.73999 0 .44002-.07.67002 0 .48997-.06.71997 0 .44001 0 .67001v.73999c-.0149.21641-.0149.43362 0 .65003v.73999.66998c0 .23002 0 .49002.05.72002s0 .44.08.67c.0199.2483.0533.4953.1.74.0228.2082.0562.4151.1.62 0 .26.08.52.13.75s.08.41.13.64.13.49.18.72.1.41.16.62.15.51.23.74.13.41.18.59.18.52.28.78.13.36.21.56c.0954.2627.2056.5197.33.77.08.18.13.36.21.52s.28.56.41.85c.07.12.15.28.23.43.0711.1648.1582.3222.26.47l-6.12 3.57-12.44-21.24c4.9646-2.706217 10.6917-3.67423 16.27-2.75z"/><path d="m12.2892 4.25 12.47 21.24-6.09 3.57c-.11-.15-.18-.31-.29-.46s-.18-.26-.25-.39l-.54-.77-.36-.43c-.16-.24-.34-.44-.52-.67l-.38-.46c-.18-.21-.36-.42-.54-.6l-.42-.46c-.18-.18-.36-.36-.54-.57s-.3-.28-.46-.43-.38-.34-.56-.52l-.49-.41-.57-.49c-.18-.13-.36-.25-.51-.38l-.62-.47-.51-.38c-.21-.13-.42-.26-.62-.41l-.56998-.34c-.2-.13-.41-.25-.64-.38s-.36-.23-.56-.34l-.65-.33-.58999-.31-.67001-.31c-.2-.08-.41-.18-.61-.25s-.47-.18-.67-.29-.44-.15-.65-.23l-.69-.26c-.21777-.0515-.43164-.1184-.64-.2-.23 0-.46-.13-.7-.18-.2201-.0715-.44372-.1315-.67-.18l-.23-.08c1.94308-5.2968 5.57706-9.80583 10.33998-12.83z"/><path d="m1.40917 18.78.28999.07.61.16c.21.05.44001.13.67001.18l.58999.21c.22912.0587.45316.1356.67.23.19445.0532.38492.12.57.2.23.08.43001.18.67001.26s.35999.15.55999.26c.21211.0808.41915.1743.62001.28l.55999.28c.21.11.42.21.62.34.18594.0814.36633.1749.54.28.21.13.39.26.59.36.16639.1206.34005.2308.52.33l.59004.39c.15.13.33.23.49.36s.38.28.56.41.34.26.49.39c.1897.1416.37.2952.54.46.1557.1158.3027.2428.44.38.1893.1527.3696.3164.54.49.15.13.28.26.43.41s.34.34.52.52l.38.41.53.56c.1114.144.2316.2809.36.41.15.21.33.41.49.65s.2.25.31.41.36.49.51.72.18.23.26.36.15.25.23.38l-13.63004 8c-3.182227-5.8721-3.939587-12.7565-2.11-19.18z"/><path d="m20.3619 49.79c0 .2-.1.41-.15.59s0 .2-.08.28c-6.5004-1.5219-12.14244-5.5371-15.71002-11.18l13.63002-8c.0784.1236.1453.2541.2.39.08.12.13.25.21.38l.39.82c.07.16.12.31.2.47s.21.48.31.74.13.34.18.52.18.49.26.72.13.36.18.54.15.48.2.72l.16.56c0 .23.13.46.18.72s.07.39.1.57c.0556.2376.099.4779.13.72.0503.1934.0838.3908.1.59 0 .23.08.46.1.69s0 .41.06.59 0 .49 0 .72v.6.71.6.72.61.7c0 .23 0 .41-.08.61s0 .47-.07.7c-.023.2088-.0597.416-.11.62-.0255.2224-.0656.4428-.12.66 0 .21-.08.42-.11.62-.0471.2364-.1072.4701-.18.7z"/><path d="m38.8991 47.83c-5.1247 3.0043-11.1349 4.1321-17 3.19.0214-.0755.0381-.1523.05-.23 0-.21.13-.44.18-.67s.1-.46.16-.69.1-.47.12-.67.11-.49.13-.72c.0458-.2213.0791-.445.1-.67 0-.26.08-.49.11-.75s0-.43 0-.66c.0155-.2431.0155-.4869 0-.73.0149-.2197.0149-.4402 0-.66 0-.24 0-.49 0-.75v-.64c0-.26 0-.49 0-.75s0-.43 0-.64 0-.51-.08-.75 0-.43 0-.64c-.0461-.2448-.0795-.4917-.1-.74-.0458-.2145-.0792-.4316-.1-.65-.06-.25-.11-.49-.16-.74-.0241-.2102-.0676-.4178-.13-.62-.0435-.2537-.1037-.5042-.18-.75l-.15-.61c-.08-.26-.15-.52-.23-.75-.048-.2001-.1081-.3971-.18-.59-.08-.26-.18-.51-.28-.77s-.13-.36-.21-.57-.21-.51-.31-.77l-.23-.51c-.13-.29-.26-.57-.41-.85s-.13-.28-.21-.44-.18-.31-.25-.46l6.09-3.57 12.42 21.16 1.51-.9-12.41-21.16 6.09-3.58c.1043.1499.1978.307.28.47.1.12.18.25.29.38s.35.51.54.77.23.28.33.44.33.46.51.67.29.31.41.46c.16.208.3337.4051.52.59.15.16.28.31.44.46s.36.39.54.57.3.28.46.44.36.33.56.51c.1491.1451.306.282.47.41.187.1746.384.3382.59.49l.51.41c.18.16.39.29.59.44l.54.38c.21.13.42.29.62.42l.54.33c.21.13.44.28.64.39.1833.1212.3736.2314.57.33.2172.122.4408.2322.67.33.1912.1134.3881.2169.59.31.21.11.44.21.67.31s.41.18.61.26c.2162.1095.4401.2031.67.28.2099.0946.4273.1716.65.23.2125.1046.4332.1916.66.26l.67.21c.23.07.47.12.7.2.2265.0472.4502.1073.67.18.0684.0084.1356.0252.2.05-2.0256 5.5971-5.9453 10.3093-11.08 13.32z"/><path d="m50.5191 32.82c-.0891-.0363-.1839-.0566-.28-.06l-.59-.18-.67-.17-.62-.21c-.2176-.0564-.4314-.1265-.64-.21-.21-.07-.39-.15-.59-.23s-.44-.18-.65-.25c-.1921-.0745-.3792-.1614-.56-.26-.2212-.0784-.4353-.1754-.64-.29-.18-.1-.36-.17-.54-.28-.2244-.094-.4417-.2043-.65-.33l-.51-.28-.62-.36-.51-.34c-.18-.13-.39-.26-.59-.38s-.31-.24-.49-.36l-.57-.42-.46-.36c-.1983-.1429-.3885-.2964-.57-.46-.15-.13-.28-.26-.43-.38l-.54-.52-.41-.38c-.18-.18-.36-.36-.52-.54l-.41-.42c-.15-.2-.33-.38-.49-.59-.1355-.1222-.2564-.2598-.36-.41-.18-.2-.33-.41-.51-.64l-.31-.39-.52-.74c-.07-.13-.15-.23-.23-.36-.0939-.123-.1775-.2534-.25-.39l13.65-8c3.1732 5.8758 3.9198 12.7605 2.08 19.18z"/></g><path d="m22.0017 36.9-.15-.61c-.08-.26-.15-.52-.23-.75-.048-.2002-.1081-.3972-.18-.59-.08-.26-.18-.51-.28-.77s-.13-.36-.21-.57-.21-.51-.31-.77l-.23-.51c-.13-.29-.26-.57-.41-.85s-.13-.28-.21-.44-.18-.31-.25-.46l6.09-3.57 12.42 21.16 1.51-.9-12.41-21.16 6.09-3.58c.1043.1498.1979.3069.28.47.1.12.18.25.29.38s.35.51.54.77.23.28.33.44.33.46.51.67.29.31.41.46c.1601.2079.3338.405.52.59.15.16.28.31.44.46s.36.39.54.57.3.28.46.44.36.33.56.51c.1492.1451.306.2819.47.41.1871.1745.3841.3381.59.49l.51.41c.18.16.39.29.59.44l.54.38c.21.13.42.29.62.42l.54.33c.21.13.44.28.64.39.1834.1211.3737.2313.57.33.2173.122.4409.2321.67.33.1913.1133.3882.2168.59.31.21.11.44.21.67.31s.41.18.61.26c.2163.1094.4402.203.67.28.2099.0946.4273.1715.65.23.2125.1046.4333.1915.66.26l.67.21c.23.07.47.12.7.2.2266.0472.4503.1073.67.18.0681.0106.135.0274.2.05.18-.56.39-1.13.54-1.69l-.28-.06-.59-.18-.67-.17-.62-.21c-.2175-.0564-.4313-.1266-.64-.21-.21-.07-.39-.15-.59-.23s-.44-.18-.65-.25c-.192-.0746-.3791-.1614-.56-.26-.2211-.0784-.4352-.1755-.64-.29-.18-.1-.36-.17-.54-.28-.2244-.0941-.4416-.2044-.65-.33l-.51-.28-.62-.36-.51-.34c-.18-.13-.39-.26-.59-.38s-.31-.24-.49-.36l-.57-.42-.46-.36c-.1982-.1429-.3885-.2964-.57-.46-.15-.13-.28-.26-.43-.38l-.54-.52-.41-.38c-.18-.18-.36-.36-.52-.54l-.41-.42c-.15-.2-.33-.38-.49-.59-.1355-.1223-.2563-.2599-.36-.41-.18-.2-.33-.41-.51-.64l-.31-.39-.52-.74c-.07-.13-.15-.23-.23-.36-.0938-.123-.1774-.2534-.25-.39l13.65-8c3.0358 5.6425 3.8526 12.2161 2.29 18.43 1.2464-4.8448 1.0478-9.9484-.5714-14.6816-1.6191-4.7333-4.5881-8.8892-8.5408-11.95542-3.9526-3.06623-8.7162-4.908711-13.7034-5.300267-4.9872-.391557-9.9799.68492-14.3627 3.096707-4.38272 2.41179-7.96387 6.05344-10.3019 10.47598-2.338024 4.4226-3.330711 9.4327-2.855658 14.4126s2.397078 9.7119 5.529088 13.6127c3.13202 3.9007 7.33707 6.7996 12.09677 8.3393-5.6231-1.8481-10.43016-5.5913-13.59997-10.59l13.62997-8c.0784.1236.1454.2541.2.39.08.12.13.25.21.38l.39.82c.07.16.12.31.2.47s.21.48.31.74.13.34.18.52.18.49.26.72.13.36.18.54.15.48.2.72l.16.56c0 .23.13.46.18.72s.07.39.1.57c.0557.2376.099.4779.13.72.0504.1934.0838.3908.1.59 0 .23.08.46.1.69s0 .41.06.59 0 .49 0 .72v.6.71.6.72.61.7c0 .23 0 .41-.08.61s0 .47-.07.7c-.0229.2088-.0597.4159-.11.62-.0254.2224-.0655.4428-.12.66 0 .21-.08.42-.11.62-.0471.2364-.1072.4701-.18.7 0 .2-.1.41-.15.59l-.08.28c.59.13 1.16.23 1.75.33l.05-.2c0-.21.13-.44.18-.67s.1-.46.16-.69.1-.47.12-.67.11-.49.13-.72c.0458-.2213.0792-.445.1-.67 0-.26.08-.49.11-.75s0-.43 0-.66v-.73c.015-.2198.015-.4403 0-.66 0-.24 0-.49 0-.75v-.64c0-.26 0-.49 0-.75s0-.43 0-.64 0-.51-.08-.75 0-.43 0-.64c-.046-.2448-.0794-.4918-.1-.74-.0457-.2146-.0791-.4316-.1-.65-.06-.25-.11-.49-.16-.74-.024-.2103-.0675-.4178-.13-.62-.0435-.2537-.1036-.5042-.18-.75zm2.73-11.41-6.09 3.57c-.11-.15-.18-.31-.29-.46s-.18-.26-.25-.39l-.54-.77-.36-.43c-.16-.24-.34-.44-.52-.67l-.38-.46c-.18-.21-.36-.42-.54-.6l-.42-.46c-.18-.18-.36-.36-.54-.57s-.3-.28-.46-.43-.38-.34-.56-.52l-.49-.41-.57-.49c-.18-.13-.36-.25-.51-.38l-.62-.47-.51-.38c-.21-.13-.42-.26-.62-.41l-.56997-.34c-.2-.13-.41-.25-.64-.38s-.36-.23-.56-.34l-.65-.33-.59-.31-.67-.31c-.2-.08-.41-.18-.61-.25s-.47-.18-.67-.29-.44-.15-.65-.23l-.69-.26c-.21778-.0515-.43165-.1184-.64-.2-.23 0-.46-.13-.7-.18-.2201-.0715-.44372-.1316-.67-.18l-.23-.08c1.94308-5.2968 5.57706-9.80586 10.33997-12.83003zm1.52-.9-12.44-21.24002c4.9647-2.70622 10.6918-3.674233 16.27-2.750003l-.08.209991c0 .230002-.1.430002-.15.660002s-.13.47001-.18.70001-.08.45999-.13.66999-.08.49-.13.72-.07.46001-.1.67001 0 .47999-.08.73999 0 .44002-.07.67002 0 .48997-.06.71997 0 .44001 0 .67001v.73999.65002.73999.66999c0 .23004 0 .49004.05.72004s0 .44.08.67c.0199.2483.0533.4953.1.74.0228.2082.0562.4151.1.62 0 .26.08.52.13.75s.08.41.13.64.13.49.18.72.1.41.16.62.15.51.23.74.13.41.18.59.18.52.28.78.13.36.21.56c.0955.2627.2056.5197.33.77.08.18.13.36.21.52s.28.56.41.85c.07.12.15.28.23.43.0712.1647.1582.3222.26.47zm5.29-22.78003c.05-.21.11-.39.16-.59s0-.18001.07-.290006c6.5086 1.527116 12.1594 5.544406 15.74 11.190036l-13.63 8c-.07-.13-.15-.26-.23-.39s-.13-.26-.18-.39-.28-.54-.38-.82c-.0823-.1475-.1525-.3013-.21-.46-.1-.26-.23-.49-.31-.75s-.13-.33-.2-.51-.19-.49-.26-.72-.1-.36-.16-.54-.15-.49-.23-.72-.07-.39-.13-.57-.12-.46-.18-.69-.07-.39-.13-.59-.07-.47-.12-.7 0-.41-.08-.59c-.046-.2381-.0793-.4784-.1-.72 0-.2-.05-.38-.08-.59s0-.46004-.05-.72004 0-.38999 0-.58999 0-.46 0-.72v-.59c0-.23 0-.46 0-.72v-.59c.0018-.2408.0185-.48127.05-.72 0-.21 0-.41999 0-.61999s0-.46001.1-.69001.06-.39.08-.6.08-.46.13-.69l.13-.62.15-.69zm-14.39 28.19003-13.62997 8c-3.182232-5.8721-3.939585-12.7566-2.11-19.18l.29.07.61.16c.21.05.44.13.67.18l.59.21c.22911.0586.45316.1356.67.23.19445.0532.38492.12.57.2.23.08.43.18.67.26s.36.15.56.26c.2121.0808.41915.1743.62.28l.56.28c.21.11.42.21.62.34.18594.0814.36633.1749.54.28.21.13.39.26.59.36.16639.1205.34005.2308.52.33l.58997.39c.15.13.33.23.49.36s.38.28.56.41.34.26.49.39c.1897.1415.3701.2952.54.46.1557.1158.3028.2428.44.38.1894.1527.3697.3163.54.49.15.13.28.26.43.41s.34.34.52.52l.38.41.53.52c.1114.144.2317.2809.36.41.15.21.33.41.49.65s.2.25.31.41.36.49.51.72.18.23.26.36.15.25.23.38z" fill="#bb5928"/></g></svg>