<svg fill="none" height="64" viewBox="0 0 52 64" width="52" xmlns="http://www.w3.org/2000/svg"><g clip-rule="evenodd" fill-rule="evenodd"><path d="m18.4303 54.58 22.57-26.69-.44 26.72zm23.89 1.72-27-.61 1.18.67 25 .1199h.33c.1652-.0218.3192-.0953.44-.2099.0567-.0614.0994-.1343.1253-.2137s.0343-.1634.0247-.2463v-.31l.36-30.2101c-.0021-.1311-.0478-.2577-.13-.36-.0714-.1082-.1829-.1837-.31-.2099l-.54-.1801-.25-.0799v.06h-.07c-.1271.0262-.2386.1017-.31.2099l-25.36 30.1101-.35.46c-.0534.048-.0916.1105-.11.1799-.0099.0596-.0099.1205 0 .1801-.0089.0829-.0002.1667.0257.246.0258.0793.0682.1522.1243.2139.1223.1125.2756.1857.44.2101z" fill="#f49c17"/><path d="m49.44 5.37-44.94 55.28h44.94v-4h-2.93c-.3342 0-.6547-.1327-.891-.369s-.369-.5568-.369-.891.1327-.6547.369-.891.5568-.369.891-.369h2.93v-3.37h-2.93c-.3109-.0279-.6002-.1711-.8108-.4015-.2107-.2304-.3275-.5313-.3275-.8435s.1168-.6131.3275-.8435c.2106-.2304.4999-.3736.8108-.4015h2.93v-3.37h-2.93c-.3342 0-.6547-.1327-.891-.369s-.369-.5568-.369-.891.1327-.6547.369-.891.5568-.369.891-.369h2.93v-3.38h-2.93c-.3109-.0279-.6002-.1711-.8108-.4015-.2107-.2304-.3275-.5313-.3275-.8435s.1168-.6131.3275-.8435c.2106-.2304.4999-.3736.8108-.4015h2.93v-3.37h-2.93c-.3342 0-.6547-.1328-.891-.3691s-.369-.5567-.369-.8909.1327-.6547.369-.891.5568-.369.891-.369h2.93v-3.37h-2.93c-.1645 0-.3274-.0327-.4792-.0963-.1517-.0635-.2894-.1567-.4048-.2739-.1154-.1173-.2063-.2564-.2674-.4091-.0611-.1528-.0912-.3162-.0886-.4807-.0013-.1628.0299-.3241.0918-.4746.062-.1505.1534-.2871.269-.4017.1155-.1146.2529-.205.4039-.2657.151-.0608.3126-.0907.4753-.088h2.93v-3.37h-2.93c-.3342 0-.6547-.1328-.891-.3691s-.369-.5567-.369-.8909.1327-.6547.369-.891.5568-.369.891-.369h2.93v-3.37h-2.93c-.1658.0013-.3303-.0304-.4838-.0932-.1534-.0629-.2928-.1556-.4101-.2729-.1173-.1172-.21-.2567-.2729-.4102-.0629-.1534-.0945-.3179-.0932-.4837.0013-.1637.035-.3255.0991-.4761.0642-.1506.1575-.287.2747-.4014.1171-.1143.2557-.2044.4078-.2649s.3147-.0903.4784-.0876h2.93zm-7.12 50.93-27-.61v-.18l25.82-30.75c.0715-.1083.183-.1838.31-.21h.07v-.06l.25.08.54.18c.1271.0262.2385.1017.31.21.0821.1022.1279.2289.13.36l-.36 30.21v.31c.0096.0829.0011.167-.0248.2464s-.0686.1522-.1252.2136c-.1209.1146-.2749.1881-.44.21h-.33l-25-.12h-.59c-.1644-.0244-.3177-.0975-.44-.21-.0561-.0617-.0985-.1346-.1243-.2139-.0259-.0793-.0346-.1632-.0257-.2461-.0099-.0596-.0099-.1204 0-.18.0184-.0694.0566-.132.11-.18l.35-.46z" fill="#fdc81a"/><g fill="#f49c17"><path d="m51.1098.670033c-.2425-.087851-.5063-.098484-.7552-.030449-.2489.068036-.4706.211411-.6348.410456l-48.849957 60.05996c-.169695.2221-.267398.4908-.279999.77v.06c.008659.177.052876.3505.130005.51.100939.2124.261567.3908.462251.5133.20068.1225.43273.184.66775.1767h48.85005c.1636.0027.3262-.0271.4783-.0876s.2908-.1505.4079-.2649c.1171-.1143.2104-.2508.2746-.4014.0641-.1506.0979-.3124.0992-.4761v-60.05997c-.0038-.26005-.0874-.51267-.2394-.72371-.152-.211029-.3652-.370302-.6107-.456287zm-46.60995 59.999967 44.93995-55.27997v7.60997h-2.9299c-.1637-.0026-.3263.0272-.4784.0877s-.2907.1505-.4079.2649c-.1171.1143-.2105.2507-.2746.4013-.0642.1506-.0979.3124-.0992.4761-.0013.1659.0304.3303.0932.4838.0629.1535.1557.2929.2729.4102.1173.1172.2567.21.4102.2728.1535.0629.3179.0946.4838.0932h2.9299v3.37h-2.9299c-.3342 0-.6547.1328-.891.3691s-.3691.5568-.3691.8909c0 .3342.1328.6547.3691.891s.5568.369.891.369h2.9299v3.37h-2.9299c-.1628-.0026-.3244.0273-.4754.088-.151.0608-.2883.1511-.4039.2657-.1155.1146-.207.2512-.2689.4017-.062.1505-.0932.3119-.0918.4746-.0027.1645.0274.328.0885.4807.0612.1528.1521.2918.2675.4091s.253.2104.4048.274c.1517.0635.3146.0963.4792.0962h2.9299v3.37h-2.9299c-.3342 0-.6547.1328-.891.3691s-.3691.5568-.3691.8909c0 .3342.1328.6547.3691.891s.5568.369.891.369h2.9299v3.37h-2.9299c-.311.0279-.6002.1712-.8109.4016s-.3274.5312-.3274.8434.1167.6131.3274.8435.4999.3736.8109.4015h2.9299v3.37h-2.9299c-.3342 0-.6547.1328-.891.3691s-.3691.5568-.3691.8909c0 .3342.1328.6547.3691.891s.5568.369.891.369h2.9299v3.37h-2.9299c-.311.0279-.6002.1712-.8109.4016s-.3274.5312-.3274.8434.1167.6131.3274.8435.4999.3736.8109.4015h2.9299v3.37h-2.9299c-.3342 0-.6547.1328-.891.3691s-.3691.5568-.3691.8909c0 .3342.1328.6547.3691.891s.5568.369.891.369h2.9299v4z"/><path d="m46.5101 15.5h2.9299v-2.5h-2.9299c-.1637-.0026-.3263.0272-.4784.0877s-.2907.1505-.4079.2649c-.1171.1143-.2105.2507-.2746.4013-.0642.1506-.0979.3125-.0992.4761-.0013.1659.0304.3303.0932.4838.0629.1535.1557.2929.2729.4102.1173.1172.2567.21.4102.2728.1535.0629.3179.0946.4838.0932z"/><path d="m49.44 18.87h-2.93c-.3342 0-.6547.1327-.891.369s-.369.5568-.369.891.1327.6547.369.891c.2363.2362.5568.369.891.369h2.93z"/><path d="m49.4397 24.7599h-2.93c-.1627-.0026-.3244.0273-.4754.088-.151.0608-.2883.1511-.4038.2657-.1156.1146-.207.2512-.269.4017s-.0932.3119-.0918.4746c-.0027.1646.0274.3279.0886.4807.0611.1528.152.2918.2674.4091s.253.2104.4048.274c.1518.0635.3146.0963.4792.0962h2.93z"/><path d="m49.44 30.62h-2.93c-.3342 0-.6547.1327-.891.369s-.369.5568-.369.891.1327.6547.369.891c.2363.2362.5568.369.891.369h2.93z"/><path d="m49.4394 36.51h-2.93c-.3109.0279-.6002.1711-.8109.4015-.2106.2304-.3274.5313-.3274.8435s.1168.6131.3274.8435c.2107.2304.5.3736.8109.4015h2.93z"/><path d="m49.44 42.37h-2.93c-.3342 0-.6547.1327-.891.369s-.369.5568-.369.891.1327.6547.369.891c.2363.2362.5568.369.891.369h2.93z"/><path d="m49.4394 48.26h-2.93c-.3109.0279-.6002.1711-.8109.4015-.2106.2304-.3274.5313-.3274.8435s.1168.6131.3274.8435c.2107.2304.5.3736.8109.4015h2.93z"/><path d="m49.44 54.12h-2.93c-.3342 0-.6547.1327-.891.369s-.369.5568-.369.891.1327.6547.369.891c.2363.2362.5568.369.891.369h2.93z"/></g></g></svg>