<svg fill="none" height="53" viewBox="0 0 70 53" width="70" xmlns="http://www.w3.org/2000/svg"><path d="m64.3286 3.66h-58.65001c-.8947 0-1.62.7253-1.62 1.62v42.11c0 .8947.7253 1.62 1.62 1.62h58.65001c.8947 0 1.62-.7253 1.62-1.62v-42.11c0-.8947-.7253-1.62-1.62-1.62z" fill="#118995"/><path d="m65.9486 5.28h-60.27001v43.73h-1.62v-45.36001l61.89001.03z" fill="#000" opacity=".2"/><g fill="#d0f0f4"><path d="m30.5288 28.64c-.2878.0008-.5669-.0985-.7895-.281-.2226-.1824-.3748-.4366-.4305-.719-.0584-.3247.0139-.6594.2013-.931.1873-.2717.4744-.4582.7987-.519 3.1046-.5719 6.1706-1.3368 9.18-2.29.3156-.0971.6568-.0653.9491.0883.2923.1537.5119.4167.6109.7317.0495.1549.0678.3182.0538.4802s-.06.3197-.1353.4638c-.0753.1442-.1785.272-.3035.376-.1251.104-.2695.1822-.425.23-3.1088.9822-6.2747 1.7737-9.48 2.37z"/><path d="m34.7682 32.11c-.0931.0098-.1869.0098-.28 0-.159-.0365-.3093-.1041-.4422-.1988-.1328-.0947-.2457-.2147-.3321-.3531-.0864-.1385-.1446-.2926-.1713-.4535-.0268-.161-.0215-.3257.0156-.4846.6339-2.8528.5063-5.8221-.37-8.61-.0515-.1542-.0718-.3172-.0599-.4794s.0559-.3204.1294-.4654c.0735-.1451.175-.2742.2986-.3798.1237-.1056.2671-.1856.4219-.2354.1549-.0516.3185-.0721.4814-.0602.1629.0118.3218.0556.4677.129s.2758.1749.3824.2987c.1065.1237.1876.2673.2385.4225 1.0161 3.2177 1.1644 6.6466.43 9.94-.0691.2677-.2258.5047-.445.6732s-.4885.2589-.765.2568z"/><path d="m51.1193 37.29c-.8648.003-1.7046-.2899-2.38-.83-.6162-.5504-1.0818-1.2487-1.353-2.0291-.2713-.7804-.339-1.617-.197-2.4309.8937-6.4646.5132-13.0416-1.12-19.36-.0849-.3182-.0399-.6572.1252-.9422.165-.2851.4365-.4929.7548-.5778.3182-.0849.6572-.0398.9422.1252.2851.165.4929.4365.5778.7548.9307 3.4962 1.4706 7.0848 1.61 10.7 8.23-.3 9.89 3.28 10.23 4.89.75 3.61-2.57 7.67-7.71 9.44-.4759.1669-.9758.2547-1.48.26zm-1-12.1c-.0098 2.3841-.1668 4.7653-.47 7.13-.0803.3935-.063.8006.0503 1.1858s.3192.7369.5997 1.0242c.2106.1554.4591.2512.7194.2776.2604.0264.5231-.0177.7606-.1276 4.3-1.48 6.51-4.57 6.09-6.58s-3.34-3.1-7.74-2.91z"/><path d="m15.1316 34.38c-.8782-.0076-1.739-.2463-2.4956-.6922s-1.3824-1.0832-1.8144-1.8478c-.7236-1.2194-1.14072-2.5961-1.21561-4.0121s.19466-2.829.78551-4.1179c1.36-2.91 3.5-3.34 4.65-3.34 2.65 0 5.4 2.22 6.4 5.17.4634 1.3167.4815 2.7491.0515 4.077s-1.2843 2.4779-2.4315 3.273c-1.11.9162-2.4915 1.44-3.9299 1.49zm-.1301-11.53c-1 0-1.8099.64-2.3999 1.91-.4134.9096-.6046 1.9045-.5576 2.9026.0469.998.3306 1.9706.8275 2.8374.219.4041.5382.7452.9269.9904.3888.2451.8341.3862 1.2931.4096.8971-.0606 1.7501-.4116 2.4301-1 .7402-.4733 1.2952-1.1866 1.572-2.0205.2767-.8339.2583-1.7376-.0521-2.5595-.6-1.91-2.42-3.47-4.04-3.47z"/><path d="m24.9989 32.23c-1.2677.0016-2.4905-.469-3.43-1.32-2.43-2.16-3.26-6.61-2.65-9.67.0243-.1662.0822-.3258.1701-.469s.204-.267.3412-.3639c.1372-.097.2927-.1651.457-.2001.1643-.0351.3341-.0363.4989-.0038.1648.0326.3213.0983.46.1932.1386.0949.2565.2169.3466.3588.09.1418.1503.3005.1771.4664.0269.1658.0198.3354-.0209.4984-.46 2.33.18 5.83 1.87 7.33.4038.3548.8998.5882 1.4307.6731.5308.0849 1.0749.018 1.5693-.1931.1549-.0506.3183-.0701.4808-.0575.1626.0126.321.057.4663.1309.1453.0738.2747.1755.3807.2993.106.1239.1866.2674.2372.4223.0505.155.0701.3184.0575.4809s-.0571.3209-.1309.4663c-.0738.1453-.1756.2746-.2994.3806-.1238.1061-.2673.1867-.4222.2372-.6405.2206-1.3126.3355-1.99.34z"/></g><path d="m61.3506 45.5h-5.59c-.8947 0-1.62.7253-1.62 1.62v1.43c0 .8947.7253 1.62 1.62 1.62h5.59c.8947 0 1.62-.7253 1.62-1.62v-1.43c0-.8947-.7253-1.62-1.62-1.62z" fill="#000" opacity=".2"/><path d="m64.3186 52.25h-58.64001c-1.29161 0-2.5303-.5131-3.4436-1.4264-.91331-.9133-1.426396-2.152-1.426396-3.4436v-42.1c.002642-1.29079.516576-2.52798 1.429306-3.44071.91273-.912726 2.1499-1.426644 3.44069-1.429286h58.64001c1.2908.002642 2.528.51656 3.4407 1.429286.9127.91273 1.4267 2.14992 1.4293 3.44071v42.1c0 1.2916-.5131 2.5303-1.4264 3.4436s-2.152 1.4264-3.4436 1.4264zm-58.64001-48.59c-.21311-.00132-.42436.03967-.62151.12061-.19714.08094-.37626.20022-.52696.35092s-.26998.3298-.35092.52695c-.08094.19714-.12193.40841-.12061.62152v42.1c-.00131.2136.03962.4253.12044.623s.19993.3775.3505.529c.15056.1515.3296.2717.52681.3537.1972.0821.40866.1243.62225.1243h58.64001c.4323 0 .8469-.1717 1.1526-.4774s.4774-.7203.4774-1.1526v-42.1c0-.21359-.0422-.42505-.1243-.62225-.082-.19721-.2022-.37624-.3537-.5268s-.3313-.2697-.529-.35052c-.1977-.08083-.4094-.12174-.623-.12043z" fill="#fdc00f"/><path d="m60.1592 44.31h-5.59c-.8947 0-1.62.7253-1.62 1.62v1.43c0 .8947.7253 1.62 1.62 1.62h5.59c.8947 0 1.62-.7253 1.62-1.62v-1.43c0-.8947-.7253-1.62-1.62-1.62z" fill="#fee69f"/></svg>