<svg fill="none" height="68" viewBox="0 0 44 68" width="44" xmlns="http://www.w3.org/2000/svg"><path d="m36.4681 47.32h1.53v-1.56h-8v1.56h1.5v1.17h-2.73v2h2.73v.69c-1.8848 1.6557-4.1428 2.8298-6.5807 3.4217-2.4378.592-4.9829.5841-7.4171-.0229-2.4342-.6069-4.6849-1.795-6.5595-3.4622-1.87448-1.6673-3.31687-3.7642-4.2036-6.1109-.88673-2.3468-1.19137-4.8735-.88779-7.3638.30359-2.4903 1.20633-4.8699 2.63089-6.9349 1.42457-2.065 3.3285-3.7539 5.5487-4.922s4.6904-1.7806 7.1991-1.785v-5c-3.3812-.0088-6.7123.8176-9.6973 2.4059-2.98494 1.5883-5.53141 3.8893-7.41317 6.6985s-3.04054 6.0397-3.373382 9.4046c-.332844 3.3648.17054 6.7597 1.465442 9.8832 1.2949 3.1235 3.34121 5.8788 5.95717 8.0211 2.61594 2.1423 5.72054 3.6054 9.03794 4.2592 3.3175.6538 6.745.4781 9.9782-.5115s6.1719-2.7624 8.5551-5.161c.2322-.2304.4163-.5046.5416-.8068.1253-.3021.1893-.6261.1884-.9532v-1.76h2.73v-2h-2.73z" fill="#fc611f"/><path d="m18.534 7.1865-9.39728 5.4233 12.57118 21.7828 9.3973-5.4234z" fill="#184f78"/><path d="m28.9176 30.2248-5.0153 2.8933 3.0682 5.3184 5.0153-2.8932z" fill="#7495ae"/><path d="m14.5612 5.34903-5.01432 2.895 1.78502 3.09177 5.0143-2.89505z" fill="#7495ae"/><path d="m13.0498.545471-6.89355 3.979999 2.455 4.25218 6.89355-3.97999z" fill="#184f78"/><path d="m28.7412 62.44h-15.96v2.3h15.96z" fill="#fc611f"/><path d="m20.7617 56.91c-4.4 0-8 2.47-8 5.53h16c-.02-3.06-3.59-5.53-8-5.53z" fill="#184f78"/><path d="m30.53 68v-2.15c0-.64-.89-1.15-2-1.15h-15.53c-1.11 0-2 .51-2 1.15v2.15z" fill="#184f78"/><path d="m19.2812 59.84c.0001-.2927.0868-.5789.2495-.8223.1626-.2433.3938-.433.6642-.5451.2704-.112.568-.1413.8551-.0842s.5508.1981.7578.4051c.207.2069.3479.4707.405.7577.0571.2871.0278.5847-.0842.8552-.112.2704-.3017.5015-.5451.6642-.2434.1626-.5295.2494-.8222.2494-.3926 0-.769-.156-1.0466-.4335-.2775-.2776-.4335-.654-.4335-1.0465z" fill="#fc611f"/><path d="m20.7606 61c-.362-.0003-.7111-.1341-.9805-.3759-.2694-.2417-.4401-.5743-.4795-.9341-.005.0599-.005.1201 0 .18 0 .3978.158.7793.4393 1.0606.2813.2814.6628.4394 1.0607.4394.3978 0 .7793-.158 1.0606-.4394.2813-.2813.4394-.6628.4394-1.0606.0049-.0599.0049-.1201 0-.18-.0404.3739-.2226.7181-.509.9618-.2865.2437-.6555.3683-1.031.3482z" fill="#000" opacity=".3"/><path d="m43.8194 43.76h-19.71v1.99h19.71z" fill="#184f78"/><path d="m23.6903 65.62c.93-.07 1.81-.18 2.56-.31.8334-.1219 1.6559-.3091 2.46-.56h-15.89c.8041.2509 1.6266.4381 2.46.56.74.13 1.62.24 2.55.31s1.93.12 2.93.12 1.99-.04 2.93-.12z" fill="#000" opacity=".3"/><path d="m43.8194 46.62h-19.71v1.99h19.71z" fill="#184f78"/><g fill="#000"><path d="m39.2083 48.61h-10.47v1h10.47z" opacity=".3"/><path d="m37.9688 45.76h-8v.86h8z" opacity=".3"/><path d="m28.9202 30.21-5.01 2.89h6.6799z" opacity=".3"/><path d="m14.5608 5.33998-5.01002 2.89002h6.68002z" opacity=".3"/></g></svg>