<svg fill="none" height="166" viewBox="0 0 91 166" width="91" xmlns="http://www.w3.org/2000/svg"><path d="m45.1406 53.14v112.85l12-12 10.18 10.18v-111.03z" fill="#e73147"/><path d="m17.6406 15.6v112.85l12-12 10.17 10.18v-111.03z" fill="#e73147"/><path d="m82.4411 45.79c0 7.399-2.194 14.6318-6.3047 20.7839-4.1107 6.152-9.9533 10.9469-16.7891 13.7784s-14.3577 3.5723-21.6145 2.1288c-7.2568-1.4434-13.9227-5.0064-19.1546-10.2382-5.2318-5.2319-8.79479-11.8978-10.23827-19.1546-1.44347-7.2568-.70263-14.7787 2.12887-21.6145s7.6264-12.6784 13.7784-16.7891c6.1521-4.1107 13.3849-6.30469 20.7839-6.30469 4.9131-.00132 9.7784.9654 14.3178 2.84499 4.5393 1.8795 8.6639 4.6351 12.138 8.1092s6.2297 7.5986 8.1092 12.138c1.8796 4.5394 2.8463 9.4047 2.845 14.3178z" fill="#f8ac22"/><path d="m80.7811 34.76c-.6852-2.2307-1.5827-4.3905-2.68-6.45 1.6002-2.1454 2.3744-4.7953 2.1811-7.4647-.1932-2.6695-1.3412-5.1801-3.2337-7.0727-1.8925-1.8925-4.4032-3.0404-7.0726-3.2337-2.6695-.1933-5.3193.5809-7.4648 2.1811-2.0614-1.0931-4.2209-1.9904-6.45-2.68-.4317-2.60566-1.7744-4.97341-3.7889-6.68154s-4.5699-2.645691-7.2111-2.645691c-2.6411 0-5.1965.937561-7.211 2.645691s-3.3572 4.07588-3.789 6.68154c-2.2297.6879-4.3893 1.5853-6.45 2.68-2.147-1.5894-4.7934-2.3552-7.4575-2.1579-2.664.1972-5.1687 1.3444-7.0583 3.2328-1.8895 1.8883-3.0383 4.3923-3.23728 7.0562-.19899 2.664.56508 5.3108 2.15308 7.4589-1.0889 2.0634-1.986 4.2225-2.67997 6.45-2.60564.4318-4.97341 1.7745-6.68153 3.789-1.70813 2.0144-2.64569375 4.5698-2.64569375 7.211s.93756375 5.1966 2.64569375 7.2111c1.70812 2.0144 4.07589 3.3571 6.68153 3.7889.69217 2.2282 1.58937 4.3874 2.67997 6.45-1.588 2.148-2.35207 4.7949-2.15308 7.4589.19898 2.6639 1.34778 5.1679 3.23728 7.0562 1.8896 1.8883 4.3943 3.0355 7.0583 3.2328 2.6641.1973 5.3105-.5685 7.4575-2.1579 2.0584 1.1022 4.2184 2.0031 6.45 2.69.4318 2.6056 1.7745 4.9734 3.789 6.6815s4.5699 2.6457 7.211 2.6457c2.6412 0 5.1966-.9376 7.2111-2.6457s3.3572-4.0759 3.7889-6.6815c2.231-.6887 4.3908-1.5895 6.45-2.69 2.141 1.5992 4.7855 2.3755 7.4512 2.1874 2.6656-.1882 5.1749-1.3284 7.0699-3.2125 1.8951-1.8841 3.0497-4.3867 3.2533-7.0513.2035-2.6645-.5575-5.3134-2.1444-7.4636 1.0991-2.0586 1.9966-4.2187 2.68-6.45 2.6057-.4318 4.9734-1.7745 6.6816-3.7889 1.7081-2.0145 2.6457-4.5699 2.6457-7.2111s-.9376-5.1966-2.6457-7.2111c-1.7082-2.0144-4.0759-3.3571-6.6816-3.7889z" fill="#f8ac22"/><path d="m71.2813 45.79c.0019 5.1922-1.5359 10.2683-4.4191 14.5864s-6.9822 7.6842-11.7786 9.6726c-4.7964 1.9883-10.0747 2.5095-15.1673 1.4978-5.0927-1.0117-9.7709-3.511-13.4431-7.1817-3.6721-3.6708-6.1731-8.348-7.1868-13.4403s-.4944-10.3708 1.4921-15.168c1.9865-4.7971 5.351-8.8974 9.668-11.7822s9.3926-4.4246 14.5848-4.4246c3.4467-.0013 6.8599.6764 10.0446 1.9945 3.1848 1.3181 6.0786 3.2508 8.5163 5.6875s4.3714 5.3299 5.6907 8.5141 1.9984 6.5972 1.9984 10.0439z" fill="#f6a123"/></svg>