<svg fill="none" height="62" viewBox="0 0 50 62" width="50" xmlns="http://www.w3.org/2000/svg"><g clip-rule="evenodd" fill-rule="evenodd"><path d="m8.38015 8.23001-.62-.41-.41-.28-.51-.36002-.41-.28998-.57-.38-.41-.28-.62-.44-.41-.29001-.68999-.45999 1-.10001 31.27004-3.42001-1.34-1.51999-34.000044 3.60001v45.06999l6.149994 4.33 19.19005-1.93-1.06-.16c-2.0778-.4247-4.0014-1.4052-5.5658-2.8371-1.5644-1.4318-2.711-3.2612-3.3176-5.2934-.6065-2.0321-.6504-4.1907-.1267-6.2458.5236-2.0551 1.595-3.9296 3.1001-5.4237 1.4145-1.519 3.23-2.6068 5.2367-3.1377s4.1226-.4831 6.1033.1377c1.8472.5698 3.5386 1.5571 4.9432 2.8854s2.4847 2.962 3.1568 4.7746c.2228.6165.3869 1.2526.49 1.9v-32.52001zm22.52005 42.34999 3.4-.36v-.08l-.82-.77c-.5191.3129-1.0606.587-1.62.82-.34.16-.67.26-1 .39zm8.1-4.58v-4.71c-.1031.6506-.2672 1.2901-.49 1.91-.3121.8406-.7074 1.648-1.18 2.41l.9.88zm-16.92-1.26c1.0421 1.0413 2.3696 1.7503 3.8146 2.0373s2.9426.1391 4.3036-.4249c1.361-.5641 2.5241-1.519 3.3425-2.744s1.2551-2.6652 1.2551-4.1384c0-1.4733-.4367-2.9134-1.2551-4.1384s-1.9815-2.1799-3.3425-2.744c-1.361-.564-2.8586-.7119-4.3036-.4249s-2.7725.996-3.8146 2.0373c-1.3936 1.3999-2.1759 3.2947-2.1759 5.27 0 1.9752.7823 3.8701 2.1759 5.27z" fill="#5d751a"/><g fill="#fff"><path d="m34.9892 2.10999-29.53998 3.29.44.29001 29.14998-3.25z"/><path d="m35.66 2.88-29.16 3.24.44.27999 28.75-3.17999z"/><path d="m36.1717 3.65002-28.65998 3.14002.43.28 28.28998-3.11002z"/><path d="m36.7709 4.34998-28.30996 3.05999.41.28 27.91996-3.03z"/></g><path d="m34.8611 3.29001-.05-.30002-28.69001 3.16.41.28z" fill="#c7c3c2"/><path d="m34.1886 2.51996-.02-.31-29.11001 3.22.42001.31z" fill="#c7c3c2"/><path d="m35.3516 3.72998-28.25004 3.09.41001.28 27.87003-3.04001z" fill="#c7c3c2"/><path d="m35.9695 4.75995-.03-.33002-27.91997 3.03.41.28z" fill="#c7c3c2"/><path d="m12.5688 15.3801 18.93-2.4701c.1489-.024.3011-.0166.447.0218.1458.0384.282.1069.3997.2011.1178.0942.2145.2121.284.3459.0694.1339.1101.2807.1193.4312l.21 1.52c.0181.1486.0065.2993-.0341.4433s-.1094.2786-.2025.3958c-.093.1172-.2084.2148-.3394.287-.1311.0723-.2752.1178-.424.134l-18.92 2.4899c-.3029.0343-.6072-.0511-.8481-.2379-.241-.1867-.3995-.4602-.4419-.7621l-.18-1.4899c-.0314-.3014.0552-.6031.2417-.8418.1865-.2388.4584-.3959.7583-.4383z" fill="#fff"/><path d="m21.44 33.53c-1.1656 1.1666-1.9591 2.6527-2.2803 4.2703s-.1556 3.2941.4759 4.8176c.6315 1.5234 1.7004 2.8255 3.0718 3.7416 1.3713.9161 2.9834 1.405 4.6326 1.405s3.2613-.4889 4.6327-1.405c1.3713-.9161 2.4403-2.2182 3.0717-3.7416.6315-1.5235.7971-3.2.4759-4.8176s-1.1147-3.1037-2.2803-4.2703c-.7745-.7753-1.6943-1.3903-2.7066-1.8099-1.0124-.4196-2.0975-.6356-3.1934-.6356s-2.181.216-3.1934.6356c-1.0123.4196-1.932 1.0346-2.7066 1.8099z" fill="#445613"/><path d="m21.4385 45.33c-1.169-1.1673-1.9655-2.6551-2.2887-4.2752s-.1585-3.2996.4731-4.8261 1.7019-2.8312 3.0753-3.7493 2.9883-1.4081 4.6403-1.4081 3.2668.49 4.6402 1.4081c1.3735.9181 2.4437 2.2228 3.0753 3.7493.6317 1.5265.7963 3.206.4731 4.8261s-1.1196 3.1079-2.2886 4.2752c-.7746.7752-1.6943 1.3903-2.7067 1.8099-1.0123.4196-2.0975.6355-3.1933.6355-1.0959 0-2.181-.2159-3.1934-.6355s-1.9321-1.0347-2.7066-1.8099zm16.2-9.25c-2.39-6.69-11.49-10.8-18-4.32-2.0274 2.0338-3.1658 4.7883-3.1658 7.6599 0 2.8717 1.1384 5.6263 3.1658 7.6601 1.4907 1.5052 3.4004 2.5262 5.48 2.93 2.1486.4448 4.3819.2215 6.4-.64.7295-.3179 1.4261-.7064 2.08-1.16l.87.85.93.9-.72 1.4599 9.8 9.8c.6113.0138 1.219-.0967 1.7864-.3246.5674-.228 1.0826-.5687 1.5145-1.0015.4319-.4329.7715-.9488.9982-1.5167s.3359-1.1758.3209-1.7871l-9.79-9.79-1.26.77-.44-.4101-1.49-1.4699c.6279-.8754 1.1295-1.8348 1.49-2.85.8009-2.1822.8009-4.5778 0-6.76z" fill="#f4c92d"/></g></svg>