<svg fill="none" height="71" viewBox="0 0 53 71" width="53" xmlns="http://www.w3.org/2000/svg"><path d="m41.8483 2.91992h-.36v3.45001h.36z" fill="#f28205"/><g clip-rule="evenodd" fill-rule="evenodd"><path d="m41.6703 6.72003c.122 0 .239-.04844.3253-.1347.0863-.08627.1347-.20326.1347-.32526.0098-.06678.0052-.13489-.0137-.19971-.0189-.06481-.0515-.12482-.0956-.1759s-.0987-.09203-.1601-.12012-.1281-.04266-.1956-.04266-.1342.01457-.1956.04266c-.0613.02809-.116.06904-.1601.12012s-.0767.11109-.0956.1759c-.0188.06482-.0235.13293-.0137.19971 0 .06126.0122.12187.036.17835.0237.05647.0585.10766.1023.15051.0437.04285.0956.07654.1526.09906s.1179.03337.1791.03204z" fill="#f28205"/><path d="m41.2291 6.69995h.87l.44 4.95995h-1.75z" fill="#cb8d2a"/><path d="m31.1513 32.0999c-2.8 3.31-7.79 3.1301-10.21-2.3199l-.07-.1801c.6039-1.7737.9409-3.6272 1-5.5-2.2337-2.7905-3.6866-6.1241-4.21-9.66-.57 0-1.1901-.55-1.6001-1.5 0 3.19-.15 7.82-.64 12.35-.42 4.34-2.09 7.71-5.88995 7.71.40062.6477.95775 1.1841 1.62005 1.56.3155.1791.6512.32 1 .42h29.47l.4399-.16c.8943-.3718 1.6545-1.0065 2.18-1.82-3.5 0-5.3699-3.17-5.9399-7.49-.54-4.5-.77-9.1-.87-12.34-.46.93-1.11 1.4401-1.67 1.2901-.7846 3.4753-2.2346 6.7658-4.2701 9.69.1451 1.8396.4802 3.6593 1 5.43l-.1299.2799c-.3553.7878-.7594 1.5527-1.21 2.2901z" fill="#fff"/><path d="m24.5208 47.45-12.47-3.45v12c.6787.2013 1.2978.5656 1.8034 1.0612.5057.4955.8824 1.1072 1.0973 1.7817.215.6745.2617 1.3914.1361 2.0881s-.4198 1.3521-.8568 1.909l10.29 2.85z" fill="#fff"/><path d="m28.3984 47.45v18.2l10.26-2.85c-.4391-.5581-.7343-1.2157-.8594-1.9148s-.0763-1.4182.142-2.094c.2184-.6758.5996-1.2875 1.1101-1.7813.5105-.4937 1.1346-.8542 1.8173-1.0499v-11.96z" fill="#fff"/><path d="m17.5011 10.1699h18.33c.2652 0 .5196-.1053.7071-.29282.1875-.18754.2929-.44194.2929-.70716v-6.13995h6.09c.1356.00017.2699-.02728.3946-.08063s.2372-.13152.3308-.22974c.0935-.09822.1661-.21445.2133-.34161s.0681-.2626.0613-.39807c.0004-.27104-.103-.53192-.289-.72907s-.4404-.315587-.711-.330928h-32.49c-.283.005241-.55255.121328-.75079.323308-.19823.20197-.30926.47371-.30922.75671.00264.27939.11548.54647.31398.7431.19851.19663.46663.3069.74603.30689h6.12v6.14001c0 .26522.1054.51956.2929.70709.1875.18757.4419.29287.7071.29287z" fill="#fff"/><path d="m41.5908 34.93h-29.47c-.3488-.1-.6845-.241-1-.42-2.88002 2.58-4.55002 5.92-6.07002 9-2.6483 5.7463-4.337337 11.8876-4.9999988 18.18v.31c.0469928 1.4076.6502598 2.7392 1.6775288 3.7028 1.02727.9635 2.3947 1.4804 3.80247 1.4372.21454.0079.42927-.0089.64-.05 1.39939-.2177 2.75182-.6708 4.00002-1.34l15.76 4.35c.0428.0095.0872.0095.13 0 .0106.0061.0227.0094.035.0094s.0243-.0033.035-.0094c.0931.0086.1868.0086.28 0 .0963.011.1936.011.29 0 .0422.0137.0877.0137.13 0 .0396.0075.0803.0075.12 0l15.74-4.35c1.2476.6704 2.6003 1.1236 4 1.34.2106.0419.4254.0587.64.05 1.4077.0432 2.7752-.4737 3.8024-1.4372 1.0273-.9636 1.6306-2.2952 1.6776-3.7028v-.31c0-8.69-5-18.18-5-18.18-1.47-2.93-3.09-6.17-5.81-8.69l-.44.16zm-29.54 21.07v-12l12.47 3.45v18.2l-10.29-2.85c.4282-.5565.7151-1.2087.8358-1.9005.1208-.6917.0719-1.4025-.1425-2.0712s-.5878-1.2754-1.0883-1.7681c-.5005-.4926-1.113-.8564-1.785-1.0602zm16.35 9.69v-18.2l12.47-3.49v12c-.6827.1957-1.3068.5562-1.8173 1.0499-.5105.4938-.8918 1.1055-1.1101 1.7813-.2184.6758-.2671 1.3949-.142 2.094s.4202 1.3567.8594 1.9148z" fill="#66afc0"/></g></svg>