<svg fill="none" height="48" viewBox="0 0 45 48" width="45" xmlns="http://www.w3.org/2000/svg"><g clip-rule="evenodd" fill-rule="evenodd"><path d="m41.3813.999985h-35.00001c-.7728.007885-1.51143.319745-2.05603.868085-.54461.54835-.85139 1.28907-.85398 2.06191v5.83h4.37c.20121-.0167.40369.00852.59466.07407.19097.06554.36628.16995.51484.30675.14855.1367.26712.3028.34823.4877s.12299.3846.12299.5865-.04188.4016-.12299.5865-.19968.351-.34823.4877c-.14856.1367-.32387.2412-.51484.3067-.19097.0656-.39345.0908-.59466.0741h-5.84c-.20256-.0168-.4064.0087-.59863.0747s-.36869.1712-.51822.3089c-.149526.1376-.268857.3048-.350494.491-.081638.1861-.12378.3871-.12378.5904 0 .2032.042142.4043.12378.5904.081637.1862.200968.3533.350494.491.14953.1377.32599.2428.51822.3089.19223.066.39607.0914.59863.0747h1.45999v5.84h4.37c.38456 0 .7534.1528 1.02533.4247s.42468.6407.42468 1.0253c0 .3845-.15275.7534-.42468 1.0253s-.64077.4247-1.02533.4247h-5.82999c-.20256-.0168-.4064.0087-.59863.0747s-.36869.1712-.51822.3089c-.149526.1376-.268857.3048-.350494.491-.081638.1861-.12378.3871-.12378.5904 0 .2032.042142.4043.12378.5904.081637.1862.200968.3533.350494.491.14953.1377.32599.2429.51822.3089s.39607.0914.59863.0747h1.45999v5.84h4.37c.38456 0 .7534.1528 1.02533.4247s.42468.6407.42468 1.0253c0 .3845-.15275.7534-.42468 1.0253s-.64077.4247-1.02533.4247h-5.82999c-.38987 0-.76378.1549-1.039457.4305-.275679.2757-.430542.6496-.430542 1.0395s.154863.7637.430542 1.0394c.275677.2757.649587.4306 1.039457.4306h1.45999v5.83c.00264.771.31007 1.5096.85523 2.0548.54516.5451 1.28381.8526 2.05478.8552h35.00002c.7753.0026 1.5202-.3021 2.0712-.8476.5511-.5454.8635-1.2871.8688-2.0624v-40.87001c-.0179-.77318-.3337-1.50958-.8815-2.05551-.5478-.54594-1.2853-.859239-2.0585-.8745z" fill="#47bee8"/><path d="m34.7003.97998v21.49002l-5.14-6.07-4.99 6.07v-21.49002z" fill="#ffc01c"/><g fill="#fff"><path d="m7.83093 33.09h-4.36999v2.91h4.36999c.38457 0 .7534-.1528 1.02533-.4247.27193-.272.42468-.6408.42468-1.0253 0-.3846-.15275-.7534-.42468-1.0253-.27193-.272-.64076-.4247-1.02533-.4247z"/><path d="m3.46094 24.3201h4.36999c.38457 0 .7534-.1528 1.02533-.4247.27193-.272.42468-.6408.42468-1.0254 0-.3845-.15275-.7533-.42468-1.0253-.27193-.2719-.64076-.4247-1.02533-.4247h-4.36999z"/><path d="m3.46094 12.65h4.36999c.20122.0167.40373-.0085.5947-.0741.19097-.0655.36625-.17.5148-.3067s.26716-.3028.34827-.4877.12298-.3846.12298-.5865-.04187-.4016-.12298-.5865-.19972-.351-.34827-.4877c-.14855-.13677-.32383-.24121-.5148-.30675s-.39348-.09076-.5947-.07406h-4.36999z"/></g></g></svg>