<svg fill="none" height="65" viewBox="0 0 35 65" width="35" xmlns="http://www.w3.org/2000/svg"><g clip-rule="evenodd" fill-rule="evenodd"><path d="m9.45122 63.7 1.20998-50.7h-2.20998l-1.21 50.83c-.02095.2265.00631.4548.08001.67l2-.05c.08343-.2241.12741-.4609.12999-.7z" fill="#ffc01c"/><path d="m2.23074 64.09 1.23001-51.09h-1.65001l-1.149997 48.49c-.076744.6198.03132 1.2485.310639 1.8072.279318.5586.717438 1.0223 1.259358 1.3328-.02532-.1623-.02532-.3276 0-.49z" fill="#e6ad19"/><path d="m10.6603 13-1.21 50.75c-.00258.2391-.04655.4759-.12999.7h.07999c.6311-.2562 1.1646-.706 1.524-1.2845.3594-.5786.526-1.2562.476-1.9355l1.19-48.23z" fill="#fde34f"/><path d="m4.45845 64 1.20999-51h-2.28999l-1.23001 51.14c.02174.1655.05516.3292.1.49l2.11-.05c.04694-.1806.08037-.3644.10001-.55z" fill="#e6ad19"/><path d="m5.66937 13-1.22999 51c-.00276.186-.02965.3709-.08.55l3-.08c-.0737-.2152-.10097-.4435-.08001-.67l1.17-50.8z" fill="#ffc01c"/><path d="m8.8597 5.42001-.18001 6.75999h3.65001l-3.11-6.78999z" fill="#efbb86"/><path d="m5.08078 12.1801.17999-6.61003h-.20999l-2.75 6.61003z" fill="#efbb86"/><path d="m8.67812 12.18.18-6.75996-3.6.15-.18 6.60996z" fill="#f2c89d"/><path d="m6.57079 5.51996-.03002-3.54999-1.48999 3.60001h.20999z" fill="#1a1a1a"/><path d="m6.53952 1.96994-.01999 3.54999 1.08-.04999v-3.63l-.51001-1.160008z" fill="#2b2b2b"/><path d="m8.87938 4.64001-.02.78.36-.03z" fill="#1a1a1a"/><path d="m7.60031 1.81006-.03 3.66 1.29-.04999.02-.77999z" fill="#1a1a1a"/><path d="m23.1797 64.22.15-28h-1.72l-.18 28c-.0007.1245.0267.2475.08.36l1.57.05c.0414-.1244.0748-.2514.1-.38z" fill="#196684"/><path d="m17.5217 64.22.18-28h-1.28l-.16 26.55c.0026.3941.1283.7777.3596 1.0968.2313.3192.5566.558.9304.6832-.0095-.0931-.0095-.187 0-.28z" fill="#1b5f7b"/><path d="m23.3281 36.22-.15 28c-.0251.1286-.0585.2556-.1.38h.07c.4156-.0487.7992-.2471 1.079-.5582.2798-.311.4366-.7135.441-1.1318l.16-26.69z" fill="#1b5f7b"/><path d="m19.2688 64.22.1599-28h-1.78l-.1799 28c0 .1.08.18.1.28h1.62c.0533-.0946.0809-.2015.08-.31z" fill="#217698"/><path d="m19.4314 36.19-.16 28c.0009.1086-.0266.2155-.08.31h2.32c0-.1.08-.21.08-.33l.15-28z" fill="#196684"/><path d="m22.0495 32-.28 3.63 3.05.02-2.49-3.65z" fill="#efbb86"/><path d="m18.9614 35.6.29-3.62h-.18l-2.63 3.62z" fill="#efbb86"/><path d="m21.7709 35.63.28-3.63-2.8-.02-.29 3.62z" fill="#f2c89d"/><path d="m20.2503 31.98.02-1.7-1.2 1.7h.18z" fill="#1a1a1a"/><path d="m20.2688 30.28-.05 1.7h.83l.0699-1.75-.3799-.57z" fill="#2b2b2b"/><path d="m22.0708 31.64-.02.36h.28z" fill="#1a1a1a"/><path d="m21.1008 30.23-.05 1.75 1 .02.02-.36z" fill="#1a1a1a"/><path d="m33.8219 64.34.11-18.38h-1.13l-.13 18.38c.0022.0823.0191.1636.05.24h1c.0476-.0783.0719-.1685.07-.26z" fill="#f86b9f"/><path d="m30.1216 64.3399.1-18.4h-.84l-.08 17.43c-.0095.2566.0656.5091.2138.7187s.3612.3647.6062.4413c-.0145-.0625-.0145-.1275 0-.19z" fill="#c95681"/><path d="m33.93 46-.11 18.38c.002.0916-.0223.1818-.07.26h.05c.2758-.0341.5296-.1678.7137-.3759.1842-.2081.286-.4762.2863-.7541l.1-17.48h-.92z" fill="#c95681"/><path d="m31.2503 64.34.11-18.38h-1.16l-.13 18.38c.0137.068.0409.1326.08.19h1c.0306-.066.0476-.1374.05-.21z" fill="#f86b9f"/><path d="m31.3592 46-.11 18.38c-.0023.0727-.0194.1441-.05.21h1.52c0-.08.05-.13.05-.24l.1-18.35z" fill="#f86b9f"/><path d="m33.0784 43.21-.18 2.36 2 .03-1.64-2.39z" fill="#efbb86"/><path d="m31.0484 45.5699.18-2.39h-.11l-1.72 2.37z" fill="#efbb86"/><path d="m32.9008 45.5699.18-2.36-1.85-.03-.18 2.39z" fill="#f2c89d"/><path d="m31.9011 43.18.02-1.1-.8 1.1h.11z" fill="#1a1a1a"/><path d="m31.9211 42.08-.05 1.1h.54l.05-1.13-.26-.38z" fill="#2b2b2b"/><g fill="#1a1a1a"><path d="m33.0981 42.95-.02.2599h.18z"/><path d="m32.4602 42.03-.05 1.15.67.03.02-.26z"/></g></g></svg>