<svg fill="none" height="54" viewBox="0 0 48 54" width="48" xmlns="http://www.w3.org/2000/svg"><path clip-rule="evenodd" d="m5.72827 37.83c-.75105-.0293-1.46374-.3394-1.99707-.869-.53332-.5296-.84843-1.2401-.88293-1.991 0 0 0-.05 0-.07s0-.11 0-.21c.04892-.7402.3704-1.436.90228-1.9531s1.23644-.8188 1.97772-.8469v-1.47c0-6.86 0-14.83 0-17.69v-.73s0-.13 0-.2c.00131-.8864.17721-1.7639.51764-2.58232.34043-.81845.83877-1.56182 1.46649-2.18768.62773-.62587 1.37257-1.12199 2.19202-1.46.81948-.338 1.69748-.51129 2.58388-.50997h21.83v-3.93c.0088-.141482-.0126-.283216-.0628-.415799-.0502-.132584-.1279-.253004-.2282-.353241-.1002-.100237-.2206-.178015-.3532-.22818-.1326-.0501655-.2743-.0715523-.4158-.0627749h-27.42999c-.66712-.0013145-1.32799.1287629-1.94483.3828429-.61683.25408-1.17755.627172-1.6502 1.097962s-.84799 1.03007-1.1045 1.6459c-.256503.61584-.389187 1.27619-.390499 1.9433v.09998.86999 17.68999 1.65 9.28.18c.007293.4423.067719.8822.179993 1.31.283326 1.0221.875326 1.9318 1.695066 2.6047.81975.673 1.82728 1.0765 2.88495 1.1553h.22998v-2.11z" fill="#8cce26" fill-rule="evenodd"/><g fill="#c7c3c2"><path d="m44.6297 47.26h-26.2v.87h26.2z"/><path d="m44.6297 48.42h-26.2v.87h26.2z"/><path d="m44.6297 49.58h-26.2v.87h26.2z"/><path d="m44.6297 46.11h-26.2v.87h26.2z"/><path d="m15.5789 40.58h-4.45v.87h4.45z"/><path d="m15.5789 41.74h-4.45v.87h4.45z"/><path d="m15.5789 42.89h-4.45v.88h4.45z"/><path d="m15.5789 39.42h-4.45v.87h4.45z"/></g><path clip-rule="evenodd" d="m46.579 47.19c-.1397-.0072-.2795.015-.4101.0652-.1307.0503-.2493.1274-.3483.2263-.099.099-.1761.2177-.2263.3483s-.0724.2704-.0652.4102v2.91h-26.4101c-.772.0008-1.5145-.296-2.0733-.8286-.5587-.5327-.8907-1.2603-.9267-2.0314v-.29c.0439-.7604.3811-1.4741.9407-1.9908s1.2979-.796 2.0593-.7792h27.2c.0797.0096.1603.0096.24 0 .2711.0004.532-.103.7291-.289.1972-.186.3156-.4404.3309-.711v-29.85c-.0052-.2786-.1188-.5442-.3168-.7403-.1979-.196-.4646-.3072-.7432-.3097h-27.44c-.6666.0013-1.3265.134-1.9418.3907-.6152.2566-1.1738.632-1.6438 1.1048s-.8422 1.0336-1.0952 1.6504-.3818 1.2774-.3792 1.9441v29.74c-.0062.4531.0545.9046.18 1.34.2678 1.026.8549 1.9402 1.6763 2.6107.8215.6705 1.8349 1.0625 2.8937 1.1193h.16 27.61c.2787-.0026.5453-.1137.7432-.3098.198-.1961.3116-.4617.3168-.7402v-4c-.0026-.2794-.1154-.5465-.3139-.7431s-.4667-.3069-.7461-.3069z" fill="#f7689d" fill-rule="evenodd"/><path d="m9.45111 33.74h-4.83002v.85h4.83002z" fill="#c7c3c2"/><path d="m9.45111 34.9h-4.83002v.85h4.83002z" fill="#c7c3c2"/><path d="m9.45111 36.05h-4.83002v.8501h4.83002z" fill="#c7c3c2"/><path d="m9.45111 32.58h-4.83002v.85h4.83002z" fill="#c7c3c2"/><path clip-rule="evenodd" d="m12.3909 44.49c-.7511-.0293-1.4638-.3394-1.9971-.869-.53332-.5296-.84843-1.2402-.88293-1.991v-.28c.04892-.7402.37034-1.436.90223-1.9531.5319-.5171 1.2365-.8189 1.9778-.8469v-1.47c0-6.86 0-14.83 0-17.71v-.75c-.0085-.0664-.0085-.1336 0-.2 0-1.7858.7087-3.4987 1.9705-4.7624s2.9736-1.975 4.7595-1.9776h21.88v-4.00001c-.0027-.27939-.1155-.54644-.314-.74307s-.4666-.30693-.746-.30692h-27.4501c-1.3491.00265-2.64222.53976-3.5962 1.49375-.95399.95399-1.49108 2.24715-1.49372 3.59625-.00847.0328-.00847.0672 0 .1v.87 28.81c-.00618.4531.05446.9046.17999 1.34.26781 1.026.85486 1.9403 1.67634 2.6107.82149.6705 1.83479 1.0625 2.89369 1.1193.0529.0092.107.0092.16 0h.08v-2.1z" fill="#fdc81a" fill-rule="evenodd"/></svg>