<svg fill="none" height="64" viewBox="0 0 59 64" width="59" xmlns="http://www.w3.org/2000/svg"><path d="m.15155 63s7.17002-3.78 12.83005-7.2l-9.00003-5.78c-1.56918 4.2462-2.86517 8.5884-3.880008 13z" fill="#45524b"/><path d="m44.3516 23.29.49-.54-13.53-7.66-.46.57z" fill="#45524b"/><path d="m49.2589.719971 6.56 3.909999-3.24 3.59 1.69 1 3.81 2.16003c.1473.0614.2777.1572.3804.2793.1027.1222.1747.2671.2099.4228.0353.1556.0327.3174-.0073.4719-.0401.1545-.1165.2971-.223.416l-13.66 16.03c-.2367.2542-.5553.417-.9.46-.3603.057-.7293-.0063-1.05-.18-.1473-.0615-.2777-.1573-.3804-.2794s-.1747-.2671-.2099-.4227c-.0353-.1557-.0327-.3175.0073-.4719.0401-.1545.1166-.2971.223-.416l12.88-15.12-1.26-.72-8.43 9.9-13.53-7.64 9.29-10.82003c.2378-.25283.5558-.4154.9-.46.3603-.06252.7311.00105 1.05.18l2.55 1.44z" fill="#8acf24"/><path d="m28.4615 18.41-24.60994 28.49 13.40004 7.81 24.76-28.64 1.5099-1.8-13.5199-7.64z" fill="#8acf24"/><g clip-rule="evenodd" fill="#45524b" fill-rule="evenodd"><path d="m55.3498 12.57-12.88 15.12c-.1064.1189-.1828.2615-.2229.416-.0401.1544-.0426.3162-.0074.4719.0353.1556.1072.3006.2099.4227s.2332.2179.3804.2794c.3207.1737.6898.237 1.05.18.3447-.043.6633-.2058.9-.46l13.66-16.07c.1065-.1189.1829-.2615.223-.416s.0426-.3163.0074-.4719c-.0353-.1557-.1072-.3006-.2099-.4228-.1027-.1221-.2332-.2179-.3805-.2793l-2.62-1.50003-1.34 2.00003z"/><path d="m45.9219 4.43997 6.65 3.78 3.24-3.59-6.55-3.909999z"/></g></svg>