<svg fill="none" height="60" viewBox="0 0 60 60" width="60" xmlns="http://www.w3.org/2000/svg"><path d="m2.69141 36.28v17.28c0 1.5091.59948 2.9564 1.66656 4.0234 1.06708 1.0671 2.51436 1.6666 4.02344 1.6666h43.23999c1.5091 0 2.9564-.5995 4.0234-1.6666 1.0671-1.067 1.6666-2.5143 1.6666-4.0234v-17.28z" fill="#184f78"/><path d="m53.2091 12h-46.42004c-1.5913 0-3.11742.6321-4.24264 1.7574-1.12522 1.1252-1.757357 2.6513-1.757358 4.2426v17.12c.002638.3006.123908.588.337418.7996.2135.2117.50196.3304.80258.3304h56.16004c.3006 0 .589-.1187.8025-.3304.2136-.2116.3348-.499.3375-.7996v-17.12c0-.7896-.1559-1.5715-.4587-2.3007-.3027-.7293-.7465-1.3916-1.3058-1.949-.5592-.5574-1.223-.999-1.9533-1.2993-.7303-.3004-1.5126-.4536-2.3022-.451z" fill="#184f78"/><path d="m57.3114 36.28h-54.61999v2.14h54.61999z" fill="#000" opacity=".2"/><path d="m17.2808 33.24h-6.09c-.6296 0-1.14.5104-1.14 1.14v6.09c0 .6296.5104 1.14 1.14 1.14h6.09c.6296 0 1.14-.5104 1.14-1.14v-6.09c0-.6296-.5104-1.14-1.14-1.14z" fill="#000" opacity=".2"/><path d="m17.2808 32.1h-6.09c-.6296 0-1.14.5104-1.14 1.14v6.09c0 .6296.5104 1.14 1.14 1.14h6.09c.6296 0 1.14-.5104 1.14-1.14v-6.09c0-.6296-.5104-1.14-1.14-1.14z" fill="#fdc00f"/><path d="m48.8081 33.24h-6.09c-.6296 0-1.14.5104-1.14 1.14v6.09c0 .6296.5104 1.14 1.14 1.14h6.09c.6296 0 1.14-.5104 1.14-1.14v-6.09c0-.6296-.5104-1.14-1.14-1.14z" fill="#000" opacity=".2"/><g fill="#fdc00f"><path d="m48.8081 32.1h-6.09c-.6296 0-1.14.5104-1.14 1.14v6.09c0 .6296.5104 1.14 1.14 1.14h6.09c.6296 0 1.14-.5104 1.14-1.14v-6.09c0-.6296-.5104-1.14-1.14-1.14z"/><path d="m45.7583 12h-4.55v-5.45001c0-.30062-.1187-.58908-.3304-.80258-.2116-.21351-.499-.33477-.7996-.33741h-20.16c-.3006.00264-.588.1239-.7997.33741-.2116.2135-.3303.50196-.3303.80258v5.45001h-4.55v-5.45001c0-1.50735.5981-2.9531 1.663-4.0199 1.0649-1.06679 2.5096-1.667456 4.017-1.670105h20.16c1.5073.002649 2.952.603315 4.017 1.670105 1.0649 1.0668 1.663 2.51255 1.663 4.0199z"/></g></svg>