<svg fill="none" height="166" viewBox="0 0 87 166" width="87" xmlns="http://www.w3.org/2000/svg"><path d="m39.5464 130.02-6.7495 23.323 5.3312 1.543 6.7495-23.323z" fill="#f28b25"/><path d="m41.5384 160.01c-.4145 1.437-1.2455 2.718-2.3882 3.682s-2.5457 1.568-4.0315 1.735-2.9875-.11-4.3157-.797c-1.3281-.687-2.4231-1.752-3.146-3.06-.7229-1.309-1.0412-2.803-.9152-4.293.1259-1.49.6908-2.909 1.6232-4.077.9325-1.169 2.1904-2.035 3.615-2.489s2.9518-.475 4.3885-.061c.9541.275 1.8448.735 2.6211 1.355.7762.619 1.4227 1.385 1.9028 2.254s.7841 1.825.895 2.811c.1109.987.0262 1.986-.249 2.94z" fill="#f49524"/><path d="m60.8402 63.15c-6.1511-1.774-12.6901-1.6843-18.7903.2579-6.1001 1.9421-11.4875 5.6494-15.4807 10.6532s-6.4131 11.0793-6.9536 17.4583.8228 12.7746 3.9172 18.3796c3.0944 5.604 7.7809 10.165 13.4673 13.106s12.1173 4.129 18.4793 3.415c6.3619-.713 12.3693-3.297 17.2627-7.425 4.8933-4.128 8.4527-9.614 10.2282-15.765 1.1792-4.0848 1.5419-8.3618 1.0679-12.5868-.474-4.2251-1.7755-8.3154-3.8306-12.0373-2.055-3.7218-4.8231-7.0025-8.1462-9.6544-3.3231-2.652-7.1362-4.6233-11.2212-5.8015z" fill="#f8ac22"/><path d="m71.0387 140.65c-.2886-.724-.5193-1.47-.6899-2.23l.75.11-.8699-.72c-2.06-10.76 6.6099-23.39 6.6099-23.39l-30.0601 3.95-27.2698-22.62s.72 18.17-9.07 25.28c-3.85004 2.79 4.6899 6.09 16.4599 9.06 18.98 7.7 47.1499 18.07 44.1399 10.56z" fill="#f8ac22"/><path d="m78.9185 147.34c-.4625 1.601-1.5415 2.954-3.0002 3.76-1.4588.806-3.1779 1-4.7798.54l-66.15995-19.09c-1.60199-.465-2.95441-1.546-3.7605-3.006-.806082-1.46-1.000087-3.181-.539547-4.784.228945-.794.611987-1.535 1.127437-2.181.51546-.646 1.15329-1.184 1.87671-1.583.72343-.399 1.51842-.652 2.3396-.744.82119-.092 1.65245-.021 2.44629.208l66.14986 19.09c.7947.228 1.5366.61 2.1832 1.125.6465.516 1.1849 1.153 1.5844 1.877s.6523 1.519.7437 2.341c.0913.822.0196 1.653-.2112 2.447z" fill="#f49524"/><path d="m71.6282 51.08.06-.17 13.92-35.17c.3098-.5964.5578-1.223.74-1.87.6821-2.7274.2789-5.61313-1.1246-8.04916-1.4035-2.43604-3.6977-4.2322-6.3994-5.010028-2.7016-.7778335-5.5997-.476611-8.0837.840198-2.484 1.3168-4.3597 3.54638-5.2322 6.21898-.1664.57856-.2803 1.17095-.3401 1.76998l-6.8301 36.79003c-.4803 1.722-.2905 3.562.5313 5.1496.8217 1.5877 2.2144 2.8051 3.8977 3.4072s3.532.5441 5.1743-.1622c1.6423-.7064 2.9561-2.0086 3.6768-3.6446z" fill="#584a4b"/><path d="m71.398 63.75-.6399 2.22c-.2999 1.0391-.7551 2.0269-1.3501 2.93-6.0065-3.6677-12.8925-5.6441-19.9299-5.72-.0183-1.0888.1266-2.1741.4299-3.22l.6399-2.23c.8374-2.716 2.7071-4.995 5.2071-6.347 2.4999-1.3521 5.4308-1.6692 8.1621-.8832s5.0451 2.6123 6.4441 5.0864c1.3989 2.474 1.7712 5.3982 1.0368 8.1438z" fill="#f49524"/></svg>