<svg fill="none" height="166" viewBox="0 0 130 166" width="130" xmlns="http://www.w3.org/2000/svg"><path d="m129.14 42.17c-10 0-18.17 18.18-18.17 40.61s8.13 40.6 18.17 40.6v42.37h-129.1204688v-42.08c9.9999688 0 18.1599688-18.18 18.1599688-40.61s-8.13-40.6-18.1599688-40.6v-42.170022h129.1204688z" fill="#003b45"/><path d="m82.3011 165.75h-32.27l-6.41-165.460022h53.85z" fill="#584a4b"/><path d="m66.2711.289978h-22.65v165.460022h22.65z" fill="#d3c0ad"/><path d="m97.4703.289978-11.25 165.460022h-9.4l8.11-165.460022z" fill="#d3c0ad"/><path d="m66.2792.289978h-11.33v165.460022h11.33z" fill="#fde3cc"/><path d="m63.3513 78.55c.002 1.6638-.4896 3.2907-1.4125 4.675-.9229 1.3844-2.2357 2.4639-3.7722 3.102-1.5366.638-3.2279.806-4.8599.4826-1.6321-.3233-3.1315-1.1235-4.3087-2.2993-1.1771-1.1757-1.9791-2.6742-2.3044-4.3059-.3253-1.6316-.1593-3.3232.4769-4.8605s1.7141-2.8513 3.0974-3.7758c1.3832-.9246 3.0096-1.4181 4.6734-1.4181 2.2287 0 4.3663.8847 5.9432 2.4597s2.4641 3.7115 2.4668 5.9403z" fill="#584a4b"/><g stroke="#d3c0ad" stroke-linecap="round" stroke-miterlimit="10" stroke-width="1.3"><path d="m58.7606 74.68-7.62 7.64"/><path d="m58.7606 82.32-7.62-7.64"/></g></svg>