<svg fill="none" height="96" viewBox="0 0 166 96" width="166" xmlns="http://www.w3.org/2000/svg"><path d="m165.812 14.44v35.77c0 7.71-8.31 14-18.57 14-3.718.0292-7.386-.846-10.69-2.55-17.87-3.55-57.2704-8.5299-111.2604.9301-2.762 1.0818-5.7037 1.6315-8.67 1.6199-3.1706.0192-6.3117-.6103-9.23-1.8499-1.20977-.5222-2.36527-1.162-3.44995-1.9101-2.11-4.66-3.590088-15.44-3.590088-28 0-.71 0-1.42 0-2.13v-.25c.180001-11.73 1.660068-21.61001 3.690068-25.86001 1.00796-.6989 2.08327-1.29517 3.20996-1.77997 2.95311-1.26875 6.13591-1.915549 9.35001-1.900025 3.717-.026317 7.3851.848705 10.69 2.550045 17.87 3.55 57.28 8.53996 111.2604-.93005 2.761-1.08283 5.703-1.632517 8.67-1.619995 10.28-.05 18.59 6.200035 18.59 13.910005z" fill="#dcc5a7"/><path d="m165.811 14.44v31.31c0 7.7-8.31 14-18.57 14-3.717.0291-7.386-.846-10.69-2.55-17.87-3.55-57.2699-8.53-111.2599.93-2.7619 1.0819-5.7037 1.6315-8.67 1.62-3.1706.0191-6.3117-.6104-9.22999-1.85-1.20976-.5222-2.36526-1.1619-3.44995-1.91-2-4.37-3.390066-14.11-3.570066-25.67v-.25c.18-11.73 1.660066-21.61001 3.690066-25.86001 1.00796-.6989 2.08328-1.29517 3.20996-1.77997 2.95308-1.26875 6.13588-1.915549 9.34998-1.900025 3.717-.026317 7.3851.848705 10.6901 2.550045 17.87 3.55 57.28 8.53996 111.2598-.93005 2.762-1.08283 5.704-1.632517 8.67-1.619995 10.26-.05 18.57 6.200035 18.57 13.910005z" fill="#fee2bf"/><path d="m11.6685 32.4c0 12.88-1.88005 23.6-4.38005 25.93-.26016.2799-.61849.4483-1 .47-.76 0-1.47999-.76-2.11999-2.13-1.92-4-3.270022-13.38-3.270022-24.27 0-11.07 1.389992-20.56 3.369992-24.47001.62-1.24 1.3-1.91998 2-1.91998.3344.01263.65344.14377.90003.36999 2.56 2.11 4.50004 12.96 4.50004 26.02z" fill="#d0bb9f"/><path d="m164.522 31.18c0 12.13-2.07 22.23-4.81 24.43-.308.2716-.7.4271-1.11.44-.83 0-1.63-.72-2.34-2-2.11-3.81-3.59-12.61-3.59-22.87 0-10.42 1.54-19.36 3.7-23.05.69-1.17 1.44-1.79998 2.23-1.79998.362.00921.711.1316 1 .34997 2.79 1.98 4.92 12.20001 4.92 24.50001z" fill="#d0bb9f"/><path d="m81.2395 27.85-23.47 61.75 10.19-3.62 4.42 8 23.1-60.76z" fill="#e73147"/><path d="m86.8794 29.39 23.4596 61.7399-10.2-3.5799-4.4296 8.06-23.1-60.77z" fill="#e73147"/><path d="m109.538 44.42c.002 5.0893-1.505 10.065-4.331 14.2976s-6.8442 7.532-11.5456 9.4809c-4.7013 1.949-9.875 2.46-14.8668 1.4683s-9.5774-3.4414-13.1768-7.0394-6.0509-8.1827-7.0445-13.1741-.4848-10.1653 1.4624-14.8674c1.9471-4.7021 5.2451-8.7213 9.4766-11.549 4.2314-2.8277 9.2065-4.3369 14.2959-4.3369 6.8222 0 13.3652 2.7095 18.1898 7.5326 4.825 4.8232 7.537 11.3651 7.54 18.1874z" fill="#f8ac22"/><path d="m114.939 44.42c-.002-1.8373-.663-3.6131-1.863-5.0042s-2.86-2.3051-4.677-2.5758c-.472-1.5347-1.088-3.0213-1.84-4.44 1.096-1.4773 1.625-3.2993 1.49-5.1338-.136-1.8346-.926-3.5595-2.226-4.8603-1.301-1.3007-3.026-2.0906-4.86-2.2257-1.8349-.1351-3.657.3936-5.1343 1.4898-1.4172-.7477-2.9-1.3636-4.4299-1.84-.2727-1.8165-1.1884-3.4749-2.5803-4.6734-1.392-1.1986-3.1678-1.8579-5.0047-1.8579-1.8368 0-3.6128.6593-5.0047 1.8579-1.392 1.1985-2.3076 2.8569-2.5803 4.6734-1.5332.4763-3.0193 1.0922-4.44 1.84-1.4772-1.0962-3.2992-1.6249-5.1338-1.4898-1.8345.1351-3.5595.925-4.8602 2.2257-1.3007 1.3008-2.0907 3.0257-2.2258 4.8603-.1351 1.8345.3937 3.6565 1.4898 5.1338-.7477 1.4206-1.3637 2.9069-1.84 4.44-1.8166.2727-3.4749 1.1883-4.6735 2.5802-1.1986 1.392-1.8578 3.1679-1.8578 5.0048s.6592 3.6128 1.8578 5.0047c1.1986 1.392 2.8569 2.3075 4.6735 2.5802.4781 1.5325 1.094 3.0186 1.84 4.4401-1.0884 1.4779-1.6109 3.297-1.4724 5.1272s.9288 3.5501 2.2272 4.8473 3.0191 2.0857 4.8494 2.2225 3.649-.3872 5.1258-1.477c1.4167.7561 2.9037 1.3723 4.44 1.8399.2727 1.8166 1.1883 3.4749 2.5803 4.6735 1.3919 1.1986 3.1679 1.8579 5.0047 1.8579 1.8369 0 3.6127-.6593 5.0047-1.8579 1.3919-1.1986 2.3076-2.8569 2.5803-4.6735 1.5357-.4693 3.0225-1.0854 4.4399-1.8399 1.4753 1.1005 3.2974 1.6329 5.1333 1.5001 1.835-.1328 3.562-.9221 4.863-2.2235 1.302-1.3014 2.091-3.0279 2.224-4.8635.133-1.8357-.4-3.6579-1.5-5.1331.75-1.4195 1.366-2.906 1.84-4.4401 1.819-.2709 3.48-1.1863 4.68-2.5795 1.201-1.3932 1.861-3.1714 1.86-5.0104z" fill="#f8ac22"/><path d="m101.859 44.42c0 3.56-1.055 7.0401-3.0333 10.0002-1.9778 2.9601-4.789 5.2673-8.0781 6.6297-3.2891 1.3623-6.9082 1.7188-10.3999 1.0243-3.4917-.6946-6.699-2.409-9.2163-4.9263-2.5173-2.5174-4.2316-5.7247-4.9261-9.2163-.6946-3.4917-.3381-7.1109 1.0242-10.3999 1.3624-3.2891 3.6695-6.1003 6.6296-8.0781 2.96-1.9779 6.4401-3.0336 10.0002-3.0336 4.7698.0132 9.3406 1.9138 12.7134 5.2866s5.2733 7.9435 5.2863 12.7134z" fill="#f6a123"/></svg>