<svg fill="none" height="145" viewBox="0 0 167 145" width="167" xmlns="http://www.w3.org/2000/svg"><path d="m154.9 129.55c6.16 0 11.15-2.24 11.15 3.92 0 2.957-1.175 5.793-3.266 7.884s-4.927 3.266-7.884 3.266h-143.0999c-2.95542-.003-5.78887-1.179-7.87774-3.269-2.08887-2.091-3.262205-4.926-3.262204-7.881 0-6.16 4.999954-3.92 11.139944-3.92z" fill="#e73147"/><path d="m165.992 18.28h-165.390438v115.64h165.390438z" fill="#e73147"/><path d="m149.19 28.57h-131.6705v96.05h131.6705z" fill="#fff"/><path d="m154.84 7.54999c2.954 0 5.788 1.17366 7.877 3.26281 2.089 2.0892 3.263 4.9227 3.263 7.8772 0 2.9554-1.174 5.79-3.262 7.8807-2.089 2.0908-4.923 3.2666-7.878 3.2693h-143.1002c-2.95716 0-5.79318-1.1748-7.88421-3.2658s-3.265746-4.927-3.265746-7.8842c.00265-2.9554 1.178546-5.7889 3.269286-7.8778 2.09074-2.08884 4.92525-3.26221 7.88067-3.26221z" fill="#8e2129"/><path d="m33.5187 18.72c0 .9201-.2729 1.8195-.7843 2.5844s-1.2383 1.3609-2.0885 1.7126c-.8503.3516-1.7857.4432-2.688.2629-.9023-.1802-1.7308-.6241-2.3807-1.2754-.65-.6513-1.092-1.4808-1.2703-2.3835s-.0848-1.8379.2687-2.6874c.3534-.8495.951-1.5751 1.717-2.0848s1.666-.7808 2.5861-.7788c1.2316.0026 2.4118.4937 3.2816 1.3655.8699.8718 1.3584 2.053 1.3584 3.2845z" fill="#fff"/><path d="m58.05 18.72c0 .9197-.2727 1.8187-.7837 2.5834-.5109.7647-1.2371 1.3607-2.0868 1.7126-.8497.352-1.7846.4441-2.6867.2646-.902-.1794-1.7306-.6223-2.3809-1.2726s-1.0931-1.4788-1.2726-2.3808c-.1794-.902-.0873-1.837.2647-2.6867.3519-.8497.9479-1.5759 1.7126-2.0868.7647-.511 1.6637-.7837 2.5834-.7837 1.2333 0 2.416.4899 3.288 1.3619.8721.8721 1.362 2.0548 1.362 3.2881z" fill="#fff"/><path d="m80.7687 18.72c0 .9201-.273 1.8195-.7844 2.5844s-1.2381 1.3609-2.0884 1.7126c-.8502.3516-1.7858.4432-2.6881.2629-.9023-.1802-1.7307-.6241-2.3806-1.2754-.65-.6513-1.092-1.4808-1.2703-2.3835s-.0848-1.8379.2687-2.6874c.3534-.8495.9511-1.5751 1.7171-2.0848s1.6659-.7808 2.586-.7788c1.2316.0026 2.4118.4937 3.2816 1.3655.8699.8718 1.3584 2.053 1.3584 3.2845z" fill="#fff"/><path d="m102.98 18.72c0 .9197-.273 1.8187-.784 2.5834s-1.237 1.3607-2.087 1.7126c-.8495.352-1.7845.4441-2.6865.2646-.902-.1794-1.7305-.6223-2.3809-1.2726-.6503-.6503-1.0931-1.4788-1.2725-2.3808-.1795-.902-.0875-1.837.2645-2.6867.3519-.8497.9479-1.5759 1.7126-2.0868.7647-.511 1.6637-.7837 2.5834-.7837 1.2333 0 2.4164.4899 3.2884 1.3619.872.8721 1.362 2.0548 1.362 3.2881z" fill="#fff"/><path d="m124.659 18.72c0 .9201-.273 1.8195-.784 2.5844s-1.238 1.3609-2.088 1.7126c-.851.3516-1.786.4432-2.688.2629-.903-.1802-1.731-.6241-2.381-1.2754s-1.092-1.4808-1.27-2.3835c-.179-.9027-.085-1.8379.268-2.6874.354-.8495.951-1.5751 1.717-2.0848s1.666-.7808 2.586-.7788c.611 0 1.215.1203 1.778.3541.564.2339 1.076.5765 1.507 1.0085.431.4319.772.9446 1.005 1.5087s.352 1.1685.35 1.7787z" fill="#fff"/><path d="m149.191 18.72c0 .9197-.273 1.8187-.784 2.5834s-1.237 1.3607-2.087 1.7126c-.85.352-1.785.4441-2.687.2646-.902-.1794-1.73-.6223-2.38-1.2726-.651-.6503-1.094-1.4788-1.273-2.3808s-.087-1.837.265-2.6867.948-1.5759 1.712-2.0868c.765-.511 1.664-.7837 2.584-.7837 1.233 0 2.416.4899 3.288 1.3619.872.8721 1.362 2.0548 1.362 3.2881z" fill="#fff"/><path d="m50.5117 39.16h-20v20h20z" fill="#c42c3b"/><g fill="#8e2129"><path d="m78.6094 39.16h-20v20h20z"/><path d="m107.09 39.16h-20.0002v20h20.0002z"/><path d="m136.211 39.16h-20v20h20z"/><path d="m50.5117 68.91h-20v20h20z"/><path d="m78.6094 68.91h-20v20h20z"/><path d="m107.09 68.91h-20.0002v20h20.0002z"/><path d="m136.211 68.91h-20v20h20z"/><path d="m50.5117 97.54h-20v20h20z"/><path d="m78.6094 97.54h-20v20h20z"/><path d="m107.09 97.54h-20.0002v20h20.0002z"/></g><path d="m47.9297 36.91h-20v20.01h20z" fill="#e73147"/><path d="m76.0312 36.91h-20v20.01h20z" fill="#681619"/><path d="m104.512 36.91h-20.0003v20.01h20.0003z" fill="#681619"/><path d="m133.629 36.91h-20v20.01h20z" fill="#681619"/><path d="m47.9297 66.66h-20v20h20z" fill="#681619"/><path d="m76.0312 66.66h-20v20h20z" fill="#681619"/><path d="m104.512 66.66h-20.0003v20h20.0003z" fill="#681619"/><path d="m133.629 66.66h-20v20h20z" fill="#681619"/><path d="m47.9297 95.28h-20v20h20z" fill="#681619"/><path d="m76.0312 95.28h-20v20h20z" fill="#681619"/><path d="m104.512 95.28h-20.0003v20h20.0003z" fill="#681619"/><path d="m136.211 97.54h-20v20h20z" fill="#8e2129"/><path d="m30.8203 15.32c0 .5304-.2107 1.0391-.5857 1.4142-.3751.3751-.8839.5858-1.4143.5858s-1.0391-.2107-1.4142-.5858c-.375-.3751-.5858-.8838-.5858-1.4142v-12.27001c0-.53044.2108-1.03914.5858-1.41422.3751-.37507.8838-.58578 1.4142-.58578s1.0392.21071 1.4143.58578c.375.37508.5857.88378.5857 1.41422z" fill="#e73147"/><path d="m55.4414 15.32c0 .5304-.2107 1.0391-.5857 1.4142-.3751.3751-.8839.5858-1.4143.5858s-1.0391-.2107-1.4142-.5858-.5858-.8838-.5858-1.4142v-12.27001c0-.53044.2107-1.03914.5858-1.41422.3751-.37507.8838-.58578 1.4142-.58578s1.0392.21071 1.4143.58578c.375.37508.5857.88378.5857 1.41422z" fill="#e73147"/><path d="m78.0312 15.32c0 .5304-.2107 1.0391-.5858 1.4142-.375.3751-.8837.5858-1.4142.5858-.5304 0-1.0391-.2107-1.4141-.5858-.3751-.3751-.5859-.8838-.5859-1.4142v-12.27001c0-.53044.2108-1.03914.5859-1.41422.375-.37507.8837-.58578 1.4141-.58578.5305 0 1.0392.21071 1.4142.58578.3751.37508.5858.88378.5858 1.41422z" fill="#e73147"/><path d="m100.359 15.32c0 .5304-.21 1.0391-.5854 1.4142-.3751.3751-.8838.5858-1.4142.5858-.5305 0-1.0391-.2107-1.4142-.5858s-.5858-.8838-.5858-1.4142v-12.27001c0-.53044.2107-1.03914.5858-1.41422.3751-.37507.8837-.58578 1.4142-.58578.5304 0 1.0391.21071 1.4142.58578.3754.37508.5854.88378.5854 1.41422z" fill="#e73147"/><path d="m121.66 15.32c0 .5304-.211 1.0391-.586 1.4142s-.883.5858-1.414.5858c-.53 0-1.039-.2107-1.414-.5858s-.586-.8838-.586-1.4142v-12.27001c0-.53044.211-1.03914.586-1.41422.375-.37507.884-.58578 1.414-.58578.531 0 1.039.21071 1.414.58578.375.37508.586.88378.586 1.41422z" fill="#e73147"/><path d="m146.578 14.68c0 .5304-.21 1.0391-.586 1.4142-.375.3751-.883.5858-1.414.5858-.53 0-1.039-.2107-1.414-.5858s-.586-.8838-.586-1.4142v-12.28001c0-.53043.211-1.03914.586-1.414211.375-.375073.884-.585785 1.414-.585785.531 0 1.039.210712 1.414.585785.376.375071.586.883781.586 1.414211z" fill="#e73147"/></svg>