<svg fill="none" height="47" viewBox="0 0 47 47" width="47" xmlns="http://www.w3.org/2000/svg"><path d="m33.4116 40.54h-28.31004v.93h28.31004z" fill="#c7c3c2"/><path d="m33.4116 41.77h-28.31004v.95h28.31004z" fill="#c7c3c2"/><path d="m33.4116 43.03h-28.31004v.93h28.31004z" fill="#c7c3c2"/><path d="m33.4116 39.28h-28.31004v.93h28.31004z" fill="#c7c3c2"/><g clip-rule="evenodd" fill-rule="evenodd"><path d="m35.8811 40.38c-.1505-.0026-.3001.0246-.4401.08-.14.0555-.2676.1382-.3754.2433-.1079.105-.1939.2304-.253.3689-.0591.1384-.0902.2873-.0915.4378v3.14h-28.54001c-.83021-.0019-1.62761-.3244-2.22574-.9001-.59812-.5758-.95073-1.3604-.98425-2.1899v-.31c.05339-.8144.41502-1.5779 1.01132-2.1352s1.38249-.8665 2.19867-.8648h29.41001c.0864.0099.1736.0099.26 0 .2998-.0052.5857-.1273.7968-.3402.2111-.213.3306-.5.3332-.7998v-18.51l-5.89 8.77-7.71 5.68 1.57-9.23 12-17.93999v-1c0-.29969-.1191-.58712-.331-.79904-.2119-.21191-.4993-.33096-.799-.33096h-29.70001c-.72095-.00132-1.4351.13938-2.10168.41406-.66658.27469-1.27254.678-1.78326 1.18686-.51073.50887-.91622 1.11333-1.19333 1.7789-.277115.66558-.420414 1.37923-.421726 2.10019v.12.92998 19.13 1.8 10 .18c.004444 1.3943.537306 2.735 1.491146 3.7519.95385 1.017 2.25775 1.6345 3.64887 1.7281h.17999 29.88c.2981-.0051.5825-.1258.7933-.3366.2109-.2108.3316-.4953.3367-.7934v-4.3c-.0026-.2989-.1225-.5848-.3339-.7961-.2113-.2114-.4972-.3313-.7961-.3339z" fill="#47bee8"/><path d="m5.0997 38.4v-34.53c-1.24517.24742-2.36611.91873-3.172 1.89965-.80588.98093-1.246921 2.21084-1.248012 3.48035-.000001.05 0 .06999 0 .12v.93 19.13 1.8 10 .18c.004862 1.2685.447282 2.4965 1.252532 3.4766.80525.9802 1.92403 1.6525 3.16748 1.9034v-2.34c-.60416-.2182-1.12953-.6117-1.50894-1.1301-.37941-.5183-.59564-1.138-.62106-1.7799v-.31c.04076-.6303.26377-1.2352.6419-1.7412.37814-.506.89513-.8912 1.4881-1.1088z" fill="#3699dd"/><path d="m34.7188 44.65h-28.54006c-.41127-.012-.81872-.0827-1.20999-.21v2.34c.2809.058.56462.1014.85001.13h.17999 29.88005c.298-.0051.5825-.1259.7933-.3367s.3315-.4952.3367-.7933v-4.3c-.0267-.2852-.1589-.5502-.3707-.7431s-.4879-.2998-.7744-.2998c-.2864 0-.5625.1069-.7743.2998s-.344.4579-.3706.7431z" fill="#47bee8"/><path d="m42.4102.70993-16 23.82997 1.07.62 16-23.82997c.0739-.10121.125-.21719.15-.340001l-.9501-.559997c-.1077.077732-.2022.172269-.28.279998z" fill="#ffc01c"/><path d="m45.9297 2.71002-16 23.85998.8.44 15.17-22.59997c.2237-.27806.3617-.61517.3972-.97027.0355-.35511-.033-.71287-.1972-1.02973 0 .07-.08.15-.13.25z" fill="#e6ad19"/><path d="m26.4183 24.54 16-23.830027c.0777-.107729.1723-.202266.28-.279999h-.05c-.3751-.064159-.7608-.012376-1.1056.148438-.3449.160814-.6325.422998-.8244.751558l-15.23 22.67003.87.49z" fill="#fde34f"/><path d="m44.8516 2.06998-16 23.86002 1.13.64 16-23.86004c.0419-.07965.0754-.16343.0999-.25l-1-.61999c-.078.06896-.1483.14607-.2099.23001z" fill="#e6ad19"/><path d="m28.8587 26 16-23.85995c.0627-.09238.1329-.17936.2101-.26001l-1.4201-.85001c-.0314.12629-.0932.24299-.1799.34l-16 23.82997z" fill="#ffc01c"/><path d="m24.6717 29.14 2.36-3.49-1.9-1.11-.62 4.5z" fill="#efbb86"/><path d="m28.7819 26.65-2.36 3.5.12.05 3.81-2.68z" fill="#efbb86"/><path d="m27.0319 25.65-2.36 3.49 1.75 1.01 2.36-3.5z" fill="#f2c89d"/><path d="m25.7983 29.79-1.06 1.67 1.8-1.26-.12-.05z" fill="#1a1a1a"/><path d="m24.7415 31.46 1.0801-1.67-.51-.28-1.11 1.69-.1.7z" fill="#2b2b2b"/><path d="m24.4414 29.48.25-.34-.18-.1z" fill="#1a1a1a"/><path d="m24.1992 31.23 1.11-1.72-.64-.37-.23.34z" fill="#1a1a1a"/></g></svg>