<svg fill="none" height="168" viewBox="0 0 173 168" width="173" xmlns="http://www.w3.org/2000/svg"><path d="m42.2418 5.61011h-34.99998s-19.53012 59.50999 39.36988 63.99999" stroke="#f8ac22" stroke-linecap="round" stroke-linejoin="round" stroke-width="6.49"/><path d="m94.8108 93.38h-14.76v23.89h14.76z" fill="#ea5624"/><path d="m133.381 5.61011v43.05989c0 11.7094-4.482 22.9746-12.527 31.4826s-19.042 13.6132-30.7332 14.2674c-.8499.05-1.71.08-2.56.08-12.1558 0-23.8138-4.8281-32.4102-13.4226-8.5963-8.5945-13.427-20.2516-13.4297-32.4074v-.2199h-.26v-42.83999z" fill="#ffcf1a"/><path d="m127.1 116.2h-79.35v32h79.35z" fill="#ffcf1a"/><path d="m133.38 5.61011v43.05989c.335 5.8894-.536 11.7851-2.559 17.3262s-5.156 10.6108-9.206 14.8988c-4.051 4.288-8.935 7.7039-14.352 10.0385-5.418 2.3346-11.2543 3.5388-17.1531 3.5388-5.8989 0-11.7357-1.2042-17.1529-3.5388s-10.3006-5.7505-14.3515-10.0385-7.184-9.3577-9.2071-14.8988c-2.023-5.5411-2.8937-11.4368-2.5586-17.3262v-.2199h-.25v-42.83999z" fill="#f8ac22"/><path d="m127.099 116.2h-74.2201v32h74.2201z" fill="#f8ac22"/><path d="m146.961 148.2h-119.0704v19.2h119.0704z" fill="#ea5624"/><path d="m131.46 5.61011h35s19.52 59.50999-39.37 63.99999" stroke="#f8ac22" stroke-linecap="round" stroke-linejoin="round" stroke-width="6.49"/><path d="m141.502 2.89001c0 .72139-.287 1.41325-.797 1.92334-.51.5101-1.202.79676-1.924.79676h-102.7095c-.7214 0-1.4132-.28666-1.9233-.79676-.5101-.51009-.7966-1.20195-.7966-1.92334 0-.72138.2865-1.41324.7966-1.923335.5101-.510099 1.2019-.796631 1.9233-.796631h102.7095c.722 0 1.414.286532 1.924.796631.51.510095.797 1.201955.797 1.923335z" fill="#ea5624"/></svg>