<svg fill="none" height="136" viewBox="0 0 166 136" width="166" xmlns="http://www.w3.org/2000/svg"><path d="m107.319 115.96c0 1.042-.205 2.074-.604 3.037-.4.963-.985 1.837-1.722 2.574-.737.736-1.613 1.32-2.576 1.718s-1.996.602-3.0378.601c-2.1032 0-4.1202-.835-5.6073-2.323-1.4872-1.487-2.3227-3.504-2.3227-5.607v-107.77994c-.0013-1.04222.2028-2.07445.6007-3.03772.398-.96327.9819-1.83862 1.7184-2.57605s1.6111-1.32253 2.5739-1.721679c.9627-.399145 1.9947-.604615 3.037-.604614 1.0428-.001317 2.0758.20325 3.0398.601806.964.398557 1.84.983387 2.578 1.720947.737.73756 1.322 1.61335 1.72 2.57727.399.96392.604 1.99697.602 3.04004z" fill="#8e2129"/><path d="m73.0184 115.96c0 2.103-.8354 4.12-2.3226 5.607-1.4872 1.488-3.5042 2.323-5.6074 2.323-1.0422.001-2.0745-.203-3.0377-.601-.9633-.398-1.8387-.982-2.5761-1.718-.7374-.737-1.3224-1.611-1.7215-2.574-.3992-.963-.6047-1.995-.6047-3.037v-107.77994c-.0013-1.04307.2032-2.07612.6017-3.04004.3986-.96392.9834-1.83971 1.721-2.57727.7375-.73756 1.6133-1.32239 2.5772-1.720947.964-.398556 1.997-.603123 3.0401-.601806 1.0422-.000001 2.0742.205469 3.037.604614.9627.399149 1.8374.984249 2.5739 1.721679s1.3205 1.61278 1.7184 2.57605c.398.96327.6021 1.9955.6007 3.03772z" fill="#8e2129"/><path d="m99.6998.23999h-34.61v123.65001h34.61z" fill="#e73147"/><g fill="#fff"><path d="m95.1499 15.34h-26.8101v7.9799h26.8101z"/><path d="m95.1499 31.89h-26.8101v7.98h26.8101z"/><path d="m95.7983 47.88h-26.81v7.98h26.81z"/><path d="m92.3982 99.4401c-.002 2.1079-.6289 4.1679-1.8014 5.9199-1.1726 1.751-2.8381 3.116-4.7862 3.921-1.948.806-4.0911 1.015-6.1583.603s-3.9656-1.429-5.4554-2.92c-1.4899-1.491-2.5042-3.39-2.9147-5.458-.4105-2.0676-.1987-4.2103.6084-6.1576s2.1735-3.6116 3.9263-4.7825 3.8133-1.7959 5.9212-1.7959c1.4008 0 2.7878.2761 4.0818.8124s2.4695 1.3225 3.4595 2.3135c.99.9909 1.775 2.1672 2.3102 3.4616.5351 1.2945.8099 2.6818.8086 4.0826z"/></g><path d="m55.2689 116.82c.0013.929-.1807 1.849-.5355 2.707-.3548.859-.8756 1.638-1.5324 2.295-.6567.657-1.4366 1.178-2.295 1.533-.8584.354-1.7782.536-2.707.535-1.8751 0-3.6734-.745-4.9993-2.071s-2.0708-3.124-2.0708-4.999v-95.9999c.0027-1.8743.7484-3.6711 2.0737-4.9964s3.1221-2.0711 4.9964-2.0737c1.8751 0 3.6732.7449 4.9991 2.0708s2.0708 3.1242 2.0708 4.9993z" fill="#004443"/><path d="m24.7085 116.82c0 .929-.1831 1.85-.5391 2.708-.3559.858-.8776 1.638-1.5351 2.295-.6576.657-1.4382 1.177-2.2971 1.532-.859.354-1.7794.536-2.7087.535-1.875 0-3.6733-.745-4.9992-2.071s-2.0707-3.124-2.0707-4.999v-95.9999c.0026-1.8743.7483-3.6711 2.0736-4.9964s3.1221-2.0711 4.9963-2.0737c1.876 0 3.6754.7446 5.0028 2.0702 1.3275 1.3256 2.0745 3.1239 2.0772 4.9999z" fill="#004443"/><path d="m48.4906 13.6899h-30.85v110.1901h30.85z" fill="#025c5b"/><path d="m44.4313 27.16h-23.9001v7.12h23.9001z" fill="#fff"/><path d="m44.4313 41.9h-23.9001v7.11h23.9001z" fill="#fff"/><path d="m45.0094 56.16h-23.9v7.11h23.9z" fill="#fff"/><path d="m41.981 102.1c.0019 1.882-.5543 3.722-1.5986 5.287-1.0442 1.566-2.5293 2.786-4.2674 3.507s-3.6511.91-5.4968.544c-1.8457-.367-3.5411-1.273-4.8717-2.603-1.3306-1.331-2.2367-3.026-2.6033-4.872s-.1775-3.759.5436-5.4969c.721-1.7382 1.9415-3.2233 3.5069-4.2675 1.5655-1.0442 3.4055-1.6005 5.2873-1.5985 2.5195 0 4.9359 1.0009 6.7175 2.7825s2.7825 4.1979 2.7825 6.7174z" fill="#fff"/><path d="m152.92 116.82c0 1.875-.745 3.673-2.071 4.999s-3.124 2.071-5 2.071c-.929.001-1.849-.181-2.708-.535-.859-.355-1.64-.875-2.297-1.532-.658-.657-1.179-1.437-1.535-2.295s-.539-1.779-.539-2.708v-95.9999c.002-1.876.749-3.6743 2.077-4.9999 1.327-1.3256 3.126-2.0702 5.002-2.0702 1.875.0026 3.672.7484 4.997 2.0737s2.071 3.1221 2.074 4.9964z" fill="#004443"/><path d="m122.351 116.82c0 1.875-.745 3.673-2.071 4.999s-3.124 2.071-4.999 2.071c-.929.001-1.849-.181-2.707-.535-.859-.355-1.638-.876-2.295-1.533s-1.178-1.436-1.533-2.295c-.354-.858-.536-1.778-.535-2.707v-95.9999c0-1.8751.745-3.6734 2.071-4.9993s3.124-2.0708 4.999-2.0708c1.874.0026 3.671.7484 4.996 2.0737 1.326 1.3253 2.071 3.1221 2.074 4.9964z" fill="#004443"/><path d="m146.131 13.6899h-30.85v110.1901h30.85z" fill="#025c5b"/><path d="m142.08 27.16h-23.9v7.12h23.9z" fill="#fff"/><path d="m142.08 41.9h-23.9v7.11h23.9z" fill="#fff"/><path d="m142.652 56.16h-23.89v7.11h23.89z" fill="#fff"/><path d="m139.629 102.1c.002 1.881-.554 3.721-1.598 5.286-1.043 1.565-2.528 2.786-4.265 3.507-1.738.722-3.65.911-5.496.545-1.845-.365-3.541-1.27-4.872-2.6-1.331-1.329-2.237-3.024-2.605-4.869s-.18-3.758.539-5.496c.72-1.7383 1.939-3.2241 3.503-4.2695s3.403-1.6034 5.284-1.6034c1.249-.0013 2.485.2434 3.639.7202s2.202 1.1764 3.085 2.0587c.884.8823 1.584 1.93 2.062 3.0833.478 1.1532.724 2.3897.724 3.6377z" fill="#fff"/><path d="m165.808 129.13c.003.335-.027.67-.09 1-.222 1.203-.859 2.29-1.8 3.072s-2.126 1.21-3.35 1.208h-154.99958c-1.22297 0-2.40734-.428-3.3479-1.21s-1.57807-1.868-1.802125-3.07c-.06269-.33-.092923-.665-.090088-1 .005268-1.388.559099-2.718 1.540653-3.699.98155-.982 2.31135-1.536 3.69946-1.541h154.99958c1.39 0 2.723.552 3.706 1.535.982.982 1.534 2.315 1.534 3.705z" fill="#ec6725"/><path d="m165.718 131.04c-.22 1.205-.856 2.295-1.797 3.078-.941.784-2.128 1.213-3.353 1.212h-154.99952c-.59818.058-1.20183-.01-1.77222-.199-.57038-.19-1.09499-.496-1.53991-.9-.44493-.404-.80041-.897-1.0437-1.446-.243293-.55-.3689-1.144-.3689-1.745s.125607-1.195.3689-1.745c.24329-.549.59877-1.042 1.0437-1.446.44492-.404.96953-.71 1.53991-.9.57039-.189 1.17404-.257 1.77222-.199h154.99952c1.225-.001 2.412.428 3.353 1.212s1.577 1.873 1.797 3.078z" fill="#f49824"/></svg>