<svg fill="none" height="54" viewBox="0 0 56 54" width="56" xmlns="http://www.w3.org/2000/svg"><g clip-rule="evenodd" fill-rule="evenodd"><path d="m2.37938 16.44 31.50002 29.34 3.65-4.25-31.53003-29.33c-.07502-.0714-.16537-.1248-.26416-.156-.09878-.0312-.2034-.0394-.30584-.024l-3.31999 3.8c.01251.2305.10437.4495.25999.62z" fill="#1f7da3"/><path d="m14.2116 2.56003 31.55 29.37997 2.6699-3.13-29.8799-27.80997c-.92-.850002-2.85-.26-4.7 1.33v.06c.1527.01349.2967.07673.41.18z" fill="#217698"/><path d="m33.9307 45.7501-31.39001-29.39c-.16-.13-.39-.28-.42-.54l-.12.18c-1.669998 2.19-2.239994 4.58-1.229994 5.51l30.000004 27.94z" fill="#217698"/><path d="m10.5316 6.85003 31.55 29.35997 3.78-4.39-31.55-29.38997c-.1-.11-.36 0-.51-.05l-3.45 4c.0202.17532.0819.3433.18.49z" fill="#1f7da3"/><path d="m42.0814 36.21-31.39-29.39002c-.1557-.11695-.2739-.27683-.34-.45999l-4.90999 5.64001c.23 0 .28.18.44.31l31.51999 29.33z" fill="#196684"/><path d="m46.7111 51.43-8.26-8.4-6.58 7.48 14.22 1.62z" fill="#efbb86"/><path d="m44.4688 36.21 8.25 8.41.3899-.44-3.2899-14.06z" fill="#efbb86"/><path d="m38.4492 43.03 8.26 8.3999 6.01-6.81-8.25-8.4099z" fill="#f2c89d"/><g fill="#fff"><path d="m50.5391 47.0899 4.11 3.7-1.54-6.61-.39.44z"/><path d="m54.6498 50.79-4.03-3.78-1.78 2.01 4.14 3.88 2.21.26z"/><path d="m47.5298 52.2799-.8199-.85-.6201.7z"/><path d="m53.0309 52.9-4.16-3.91-2.16 2.44.82.85z"/></g></g></svg>