<svg fill="none" height="166" viewBox="0 0 166 166" width="166" xmlns="http://www.w3.org/2000/svg"><path d="m91.5055 79.2976-11.0328 11.029 51.3203 51.3374 11.032-11.029z" fill="#005966"/><path d="m16.9285 16.82c-8.29358 8.2787-13.85356 18.8983-15.932405 30.4308s-.576879 23.425 4.303955 34.0786c4.88085 10.6535 12.90635 19.5576 22.99785 25.5136 10.0914 5.957 21.7649 8.682 33.4506 7.807 3.5578-.252 7.0834-.841 10.5298-1.76 8.5158-2.263 16.3966-6.456 23.0315-12.255 6.6352-5.7978 11.8462-13.0454 15.2302-21.1812 3.384-8.1357 4.85-16.9412 4.284-25.7345-.566-8.7932-3.148-17.3382-7.547-24.9731s-10.4961-14.1549-17.8195-19.05483c-7.3234-4.89995-15.6764-8.04841-24.4121-9.201536-8.7356-1.153129-17.6196-.279971-25.9636 2.551846-8.344 2.83182-15.9241 7.54632-22.1533 13.77832zm66.8498 66.86c-5.432 5.4369-12.4223 9.0474-20 10.33-4.7455.8169-9.6058.6843-14.2998-.39-.9081-.1828-1.8062-.4132-2.6902-.69-5.8739-1.7399-11.2147-4.9314-15.5298-9.28-5.1926-5.1928-8.7289-11.8087-10.1616-19.0112-1.4326-7.2025-.6975-14.6681 2.1128-21.4527s7.5696-12.5835 13.6756-16.6634c6.1059-4.0798 13.2845-6.2575 20.6281-6.2575s14.5222 2.1777 20.6282 6.2575c6.106 4.0799 10.8652 9.8788 13.6755 16.6634s3.5455 14.2502 2.1128 21.4527c-1.4326 7.2025-4.9689 13.8184-10.1616 19.0112z" fill="#003b45"/><path d="m24.9112 24.8c-6.4491 6.4503-10.8406 14.6682-12.6194 23.6143-1.7788 8.9462-.865 18.2189 2.626 26.6457s9.4021 15.6292 16.9863 20.6965c7.5842 5.0675 16.5008 7.7725 25.6221 7.7725s18.0376-2.705 25.6218-7.7725c7.5842-5.0673 13.4956-12.2697 16.987-20.6965 3.491-8.4268 4.404-17.6995 2.626-26.6457-1.779-8.9461-6.1708-17.164-12.6198-23.6143-4.2821-4.2848-9.3665-7.6839-14.9627-10.0029-5.5962-2.3191-11.5946-3.5127-17.6523-3.5127s-12.0561 1.1936-17.6524 3.5127c-5.5962 2.319-10.6805 5.7181-14.9626 10.0029zm57.0901 57.09c-5.0556 5.0663-11.5638 8.4321-18.6201 9.63-4.4239.7631-8.9554.6373-13.3301-.37-.8445-.1674-1.679-.381-2.5-.64-5.4756-1.6185-10.4554-4.5899-14.48-8.64-4.8326-4.8434-8.1212-11.0104-9.4504-17.722-1.3293-6.7116-.6394-13.6666 1.9824-19.9863s7.0579-11.7205 12.7478-15.5201 12.3782-5.8275 19.2202-5.8275 13.5305 2.0279 19.2205 5.8275c5.6899 3.7996 10.126 9.2004 12.7478 15.5201s3.3116 13.2747 1.9824 19.9863c-1.3293 6.7116-4.6181 12.8786-9.4507 17.722z" fill="#005966"/><path d="m162.552 147.88c.958.956 1.718 2.091 2.237 3.341.518 1.25.785 2.591.785 3.944s-.267 2.694-.785 3.944c-.519 1.25-1.279 2.385-2.237 3.341-1.934 1.93-4.554 3.014-7.285 3.014-2.732 0-5.352-1.084-7.285-3.014l-33.08-33.09c-.959-.956-1.719-2.091-2.237-3.341-.519-1.25-.786-2.591-.786-3.944s.267-2.694.786-3.944c.518-1.25 1.278-2.385 2.237-3.341.955-.958 2.091-1.718 3.341-2.237s2.59-.786 3.944-.786c1.353 0 2.693.267 3.943.786s2.386 1.279 3.342 2.237z" fill="#003b45"/><path d="m92.1394 57.41c0 6.8512-2.0316 13.5485-5.8379 19.245-3.8062 5.6965-9.2162 10.1364-15.5459 12.7582-6.3296 2.6218-13.2946 3.3078-20.0141 1.9712s-12.8919-4.6357-17.7363-9.4802c-4.8445-4.8445-8.1437-11.0167-9.4803-17.7362s-.6504-13.6845 1.9715-20.0141c2.6218-6.3297 7.0615-11.7397 12.758-15.546s12.394-5.8379 19.2451-5.8379c9.1871 0 17.9979 3.6496 24.4942 10.1458 6.4962 6.4963 10.1457 15.3071 10.1457 24.4942z" fill="#d3ebef"/></svg>