<svg fill="none" height="69" viewBox="0 0 39 69" width="39" xmlns="http://www.w3.org/2000/svg"><path clip-rule="evenodd" d="m4.27139 52.0001c6.56001 0 22.00001-.08 23.89001.07.44.05.8.75 1 1.62.1233.5141.1838 1.0413.18 1.57-.0162.4943-.0935.9846-.23 1.4599-.2.65-.51 1.1101-1 1.1101-2.19.05-17.44-.1-23.91999-.18z" fill="#fff" fill-rule="evenodd"/><path clip-rule="evenodd" d="m1.3208 50.43c.08 0 24.58-.13 27 .07 1.21.11 2 1.32 2.39 2.81.1409.6332.2014 1.2816.18 1.93.0019.6437-.0925 1.2841-.28 1.9-.1032.5809-.3972 1.1108-.8356 1.5057-.4383.3948-.9959.6321-1.5844.6743-2.78.06-26.82002-.2-26.89002-.2-.16242-.0531-.303904-.1561-.404235-.2944-.10033-.1383-.154357-.3048-.154357-.4757 0-.1708.054027-.3373.154357-.4756.100331-.1383.241815-.2413.404235-.2943h1.39002l.04998-5.63h-1.41c-.67-.49-.7-1.0001 0-1.5401zm26.84 1.57c-1.85-.15-17.33-.1-23.89002-.07v5.65c6.48002.08 21.73002.23 23.92002.18.46 0 .77-.46 1-1.11.1365-.4753.2138-.9658.23-1.46.0038-.5287-.0567-1.0559-.18-1.57-.2-.87-.56-1.57-1-1.62z" fill="#66afc0" fill-rule="evenodd"/><path d="m28.1603 52.25h-23.08999v1.05h23.08999z" fill="#c7c3c2"/><path d="m28.1603 53.64h-23.08999v1.05h23.08999z" fill="#c7c3c2"/><path d="m28.1603 55.0601h-23.08999v1.03h23.08999z" fill="#c7c3c2"/><path d="m28.1603 56.4399h-23.08999v1.05h23.08999z" fill="#c7c3c2"/><path clip-rule="evenodd" d="m34.4918 61.71c-1.83-.15-17.31-.1-23.86-.07l-.08 5.65c6.5.08 21.7.13 23.86.08.46 0 .85-.38 1-1 .1362-.4788.2135-.9724.23-1.47.0072-.5288-.0533-1.0565-.18-1.57-.2-.9-.56-1.59-1-1.62zm-25.41004-.07h-1.40998c-.67-.47-.69-1 0-1.52.08 0 24.58002-.15 27.00002 0 1.21.1 2 1.31 2.39 2.8.1447.6563.2052 1.3284.18 2 .0011.6437-.0933 1.284-.28 1.9-.1103.5758-.4071 1.0993-.8444 1.4896-.4374.3904-.9911.626-1.5756.6704-2.78.08-26.81004-.2-26.89004-.2-.16005-.0526-.29939-.1544-.39819-.2908-.0988-.1365-.15201-.3007-.15201-.4692 0-.1684.05321-.3326.15201-.4691s.23814-.2383.39819-.2909h1.35001z" fill="#dcb400" fill-rule="evenodd"/><path clip-rule="evenodd" d="m34.5105 65.7801v-1.0601h-23.09v1.0601zm0 .3599h-23.09v1h23.09zm-23.09-1.78h23.09v-1h-23.09zm0-1.39h23.09v-1h-23.09zm-1.64004-2.18c6.58004 0 22.87994-.08 24.70994.08.8954.5723 1.5582 1.4442 1.87 2.46.1102.516.1638 1.0425.16 1.5701.0033.4992-.0743.9956-.2299 1.4699-.18.62-1.3701 1.08-1.8001 1.1-2.19 0-18.2599-.1-24.75993-.18z" fill="#dcb400" fill-rule="evenodd"/><path d="m34.5119 63.3301h-23.09v1.0299h23.09z" fill="#c7c3c2"/><path d="m34.5119 64.72h-23.09v1.05h23.09z" fill="#c7c3c2"/><path d="m34.5119 66.14h-23.09v1.03h23.09z" fill="#c7c3c2"/><path d="m34.5119 61.95h-23.09v1.0299h23.09z" fill="#c7c3c2"/><path clip-rule="evenodd" d="m32.8718 42.15c-1.87-.15-17.31-.15-23.87003-.08l-.07999 5.66c6.50002.07 21.75002.23 23.94002.18.43 0 .77-.46 1-1.11.1365-.4753.2138-.9657.23-1.46.0061-.5288-.0544-1.0563-.18-1.57-.2-.88-.56-1.57-1-1.62zm0 7.3c-2.78 0-26.81002-.2-26.89002-.2-.16119-.0557-.30101-.1604-.39996-.2993-.09896-.1389-.15213-.3052-.15213-.4757 0-.1706.05317-.3369.15213-.4758.09895-.1389.23877-.2435.39996-.2992h1.37l.07-5.63h-1.41c-.67-.49-.69-1 0-1.55.08 0 24.58002-.15 27.00002.08 1.21.1 2 1.29 2.39 2.8.14.6334.2004 1.2817.18 1.93.0025.6471-.0919 1.2909-.28 1.91-.1064.5794-.4014 1.1074-.8391 1.5018-.4377.3943-.9936.6327-1.5809.6782z" fill="#b30004" fill-rule="evenodd"/><path clip-rule="evenodd" d="m9.0011 42.07c6.55 0 22-.0799 23.86.0801.46.05.82.74 1 1.62.1256.5137.1861 1.0411.18 1.57-.0162.4942-.0935.9846-.23 1.4599-.2.65-.54 1.11-1 1.11-2.19.05-17.44-.11-23.94001-.18z" fill="#fff" fill-rule="evenodd"/><path d="m9.0011 42h13.7c4.91 0 9.26 0 10.18.1.1407.0286.2724.0909.3839.1814.1114.0906.1993.2067.2561.3386.2246.3627.3837.7621.47 1.18.05.26.1.52.13.8.025.2661.025.5339 0 .8.0159.2631.0159.5269 0 .79-.05.24-.1.49-.15.7-.092.3146-.2525.6048-.47.85-.0699.0978-.1611.1783-.2668.2355-.1058.0572-.2231.0895-.3432.0945-1.11 0-5.45 0-10.34 0s-10.34-.1-13.59999-.13h-.08002v-.1-5.66-.18zm13.7.18c-4.86 0-10.31 0-13.62999 0l-.05002 5.48 13.50001.13c4.89 0 9.23.05 10.31 0 .0977-.0037.1936-.0279.2815-.0709.0878-.0431.1657-.1041.2285-.1791.1845-.2252.3176-.488.39-.77.0805-.2154.1309-.4409.15-.67.0557-.2528.0826-.5111.08-.77-.0023-.2674-.019-.5344-.05-.8 0-.26-.05-.49-.1-.75-.0862-.3975-.2347-.7788-.44-1.13-.0533-.099-.1258-.1863-.2134-.2567s-.1885-.1226-.2966-.1533c-.93-.08-5.25-.1-10.16-.1z" fill="#b30004"/><path d="m32.8908 42.38h-23.09002v1.03h23.09002z" fill="#c7c3c2"/><path d="m32.8908 43.77h-23.09002v1.05h23.09002z" fill="#c7c3c2"/><path d="m32.8908 45.1799h-23.09002v1.0301h23.09002z" fill="#c7c3c2"/><path d="m32.8908 46.5701h-23.09002v1.0299h23.09002z" fill="#c7c3c2"/><g clip-rule="evenodd" fill-rule="evenodd"><path d="m26.2803 3.40003c-2.7301-1.22488-5.7622-1.61272-8.7127-1.11444-2.9505.49827-5.6871 1.86026-7.86356 3.91375-2.1765 2.05349-3.69524 4.70626-4.36414 7.62286s-.45794 5.9661.6062 8.7628c1.06415 2.7967 2.93372 5.215 5.3723 6.9492 2.4385 1.7343 5.3365 2.7065 8.3275 2.7937 2.9911.0873 5.9409-.7144 8.4763-2.3035 2.5355-1.5892 4.5428-3.8944 5.7681-6.6244 1.6407-3.6616 1.7607-7.8247.3338-11.5748-1.4269-3.75007-4.284-6.78034-7.9438-8.42517z" fill="#66afc0"/><path d="m27.3584 30.4799c2.5729-1.4097 4.6815-3.5356 6.07-6.12h-.18l-.1.1001-.13-.0501c-.0303.005-.0614-.0001-.0885-.0146-.0271-.0144-.0487-.0374-.0615-.0653-.06-.1 0-.1001-.08-.1501s-.1 0-.18 0c-.1152.0179-.2289.0447-.34.0801-.1 0-.25 0-.33 0l-.36.31c-.0753.0633-.1366.1416-.18.2299 0 .13 0 .23-.13.33-.0689.0915-.1682.1554-.28.18-.1516-.0056-.3008-.0395-.44-.0999-.0425-.0352-.0937-.0584-.1482-.0672s-.1103-.0029-.1618.0171c-.18 0-.3 0-.38.08s-.26.1-.26.12-.15 0-.2-.07c-.0232-.0272-.0525-.0485-.0855-.0624s-.0688-.0199-.1045-.0175c-.07 0-.17 0-.23 0l-.18-.1101c-.07 0-.1-.05-.23 0-.0645.0291-.1314.0525-.2.07-.063.0193-.1234.0462-.18.08l-.29.0801-.18-.0801-.25.0801-.31.2799-.13.2801v.3399c0 .1.21.41.21.64.0171.1941.0574.3855.12.57-.0118.1411-.0455.2794-.1.41-.08.15-.23.6901-.28.7401-.0394.1873-.0562.3786-.05.5699-.0101.1716.0068.3437.05.51 0 0-.18.13 0 .39.1117.1533.2319.3002.36.44z" fill="#fff"/><path d="m9.77969 21.86s-.08-.3799 0-.4299c.10501-.079.1849-.1867.23001-.31.0231-.1626.0231-.3275 0-.49l-.43002-.82-.07999-.49s-.53999.15-.45999.2c-.04965.3419-.13685.6772-.26001 1-.03349.2787-.05018.5592-.04998.8399 0 .21-.05002.8501-.05002.8501l.07.5199s.31001.33.44001.07c.15445-.1882.32879-.3592.51999-.51.01819-.1461.01819-.2939 0-.44z" fill="#fff"/><path d="m28.3719 5.73999-.41.54004-.75.48999-.72.35998s-.28.33001.28.57001c.3202.1318.6309.28546.93.45996.1056-.17701.1831-.36923.23-.56994l.21-.67005c.1508-.0846.2754-.20915.36-.35998.1455-.23978.3058-.47023.48-.69z" fill="#fff"/><path d="m28.4217 7.34003-.16.37994v.23004l.23.40998.26.05999s-.08-.28998.05-.41998c.0585-.04617.1073-.10357.1433-.16882.0361-.06526.0588-.13706.0667-.21118-.0455-.15595-.0989-.30951-.16-.46003l-.15-.12994-.31.09997v.21003z" fill="#fff"/><path d="m21.8608 2.1699c-3.1979-.37184-6.4311.28333-9.232 1.87073-2.80084 1.58739-5.02406 4.0247-6.34801 6.95927-.08.21-.15001.39-.23001.57l.10001.08.92999-.8c.18915-.2852.40334-.5529.64001-.8.28951-.26727.56331-.55105.82001-.84997.30983-.09381.61094-.21424.9-.35999.24682-.16552.53333-.26221.83-.28003.12.08 1.31.62 1.31.62l.82-.04999c.3277.0778.6632.11806 1 .12.1-.07.85-.40998.85-.40998s.59-.31.12.18-.59.38996-.82.64996-1.08.11999-1.08.11999l-.1-.32995-.93.22998c-.1546.14099-.2538.33238-.28.53998 0 .16-.08.7.18 1 .2117.222.4025.4631.57.72.05.1.61.9.69 1 .157.2257.3381.4336.54.62.3577-.1646.6935-.3728 1-.62.15-.18.36-.49.56-.72s.83-.8.83-.8.56-.41.77-.53c.2061-.1175.42-.221.64-.31 0 0 .23-.13-.08.49-.2857.4989-.6504.948-1.08 1.33-.13.1-.72.59-.77.49s-.64.28-.8.51-.74.47-.82.52c-.1235.1054-.283.159-.4451.1497s-.3143-.0808-.4249-.1997c-.2448-.2423-.5127-.46-.8-.65l-.13.9.05 1.45.65 1.77s.2.85.07 1-.54.79-.72 1.13-.51 1-.51 1l.38 1.26.16.44-.44.9v.61c.0635.1244.1138.2552.15.39 0 .1-.18.74-.18.74l.26.88.23.64c.1908.1915.3983.3655.62.52.1 0 .23.2.41.28s.33.41.59.28.46-.64.46-.64c.2651-.2129.5157-.4435.75-.69.38-.44.44-.47.87-1s.65-.43.88-1 .56-1.15.56-1.15c.0204-.3438.0981-.6818.23-1 .24-.39.72-.93.75-1 .2089-.1675.4333-.3148.67-.44l.54-.61.33-.93c.2303-.053.4697-.053.7 0 .2.1.64-.13.74-.13s.85.67 1.24.85.64 1 1.2.72c.3827-.2707.7996-.4893 1.24-.65.15 0 .64-.41.64-.41.3865-.208.7005-.529.9-.92.26-.62.41-1 .41-1l.21-1.09-.1-1s-.42-.33-.36-.69.18-.93.18-.93l-.35-.71v-.39l-.11-.28-.2.1-.41-.2-.54-.34-.29-.38-.54-.39-.25-.1-.34-.16-.28-.18-.18-.07h-.18c-.0107.1188-.0447.2343-.1.34-.08.07 0 .41-.11.46-.182.0616-.3695.1051-.56.13-.05 0-.23-.16-.46-.08s-.13.16-.54.16-.72.12-.72-.13.07 0 0-.34.08-.43-.31-.49c-.3532.0309-.709-.003-1.05-.1-.49-.18-.88-.39-1-.41s-.64-.23-.64-.23v-.58997l.18-.61999.11-.26001 1 .35998.11.21003c.0702.03942.1494.06012.23.06012s.1597-.0207.23-.06012c.1478-.05166.2814-.13729.39-.25l.23-.36005v-.40997c.1896.09366.387.1706.59.22998.08 0 .31-.18.23.07-.1284.28977-.2823.56755-.46.83002 0 0 0 .33002.18.33002s.1.35998.41-.08002.44-.40998.56-.47998c.1489-.13993.2799-.29783.39-.47003.2743-.01845.5442-.07916.8-.17999.2-.1.28-.25.54-.25h.33s.21.36002.1.46002c-.2051.12524-.419.23548-.64.32995l-.95.16004s-.21.12996-.13.14996c.1022.0213.2078.0213.31 0 0 0 .08.13001 0 .20001l-.2.13001v.28003.20996s.08.13.13 0c.031-.11757.0478-.23842.05-.35999l.23-.20001c.0967-.03575.1903-.07922.28-.13.06 0 .18.05.31 0s.31-.00001.52-.13001.18-.30995.33-.32995h.18l.26.04998c.0043.05325.0043.10673 0 .15998.0649.08113.1351.158.21.23004 0 0-.06.1 0 .13s.07 0 .2 0c.1102.00604.217.04047.31.09998 0 0 .05.17999.1.17999s0 .13003 0 .15003-.16.06-.05.13c.0793.11256.1463.23316.2.35996.0393.0945.0727.1914.1.29.0506.0873.0877.1817.11.28l-.13.2.05.34.15.28s-.15.08.06.15c.1587.0693.3124.1495.46.24 0 0-.1.15 0 .15.1146-.0065.2284-.0232.34-.05h.15s0 .11.16.16.2.15.36-.08c.0516-.1066.095-.2169.13-.33.0898-.2356.1666-.476.23-.72.077-.1083.1605-.2118.25-.31.0056-.0699.0056-.1401 0-.21-.0736-.1588-.2012-.2864-.36-.36-.1 0-.49-.13-.67-.15s-.31.1-.41-.1c-.0377-.05106-.0621-.1107-.0708-.17359-.0088-.06289-.0016-.12699.0208-.1864l.23-.41998s.1.08.28 0c.0938-.08868.1979-.16587.31-.22998.1088.02293.2212.02293.33 0 .11 0 .13-.20002.13-.20002s-.38-.31001-.38-.26001-.21-.17999-.21-.17999l.16-.23004c-.0955.0215-.1945.0215-.29 0-.0696-.05661-.1364-.11668-.2-.17999-.0368-.06214-.0638-.12956-.08-.19995v-.29004l-.18-.14997-.26-.21002v-.33002l-.21-.30999-.28-.13001-.18-.17999v-.25s.13-.51999.21-.48999.23-.22998.23-.22998l-.16-.44s-.3.17996-.3.27996.07.26-.06.31l-.38.21002h-.62c-.1568-.03328-.2998-.11348-.41-.22998-.15-.18-.33-.08004-.46-.36004-.0876-.12978-.133-.28345-.13-.44001 0-.13-.05-.50997-.08-.71997s-.38-.15002-.38-.15002v-.22998s.13-.21.18-.31-.18-.33998-.26-.35998l-.51-.23005-.23-.28997z" fill="#fff"/><path d="m26.2816 3.40002c-.2503-.12439-.5073-.23458-.77-.33001l-.87-.31c-.1789.16246-.3902.28514-.62.35999-.36.15.21.61999.21.61999-.0734.24044-.117.48894-.13.73999 0 .44.31.36005.31.36005s.33.17995.33.07995.18-.25999.26-.30999.31-.26002.44-.39002.3.24005.3.24005l.62.48999c.46.38.18-.13.18-.13.1034-.1905.2239-.37122.36-.53998.085-.15303.1457-.31838.18-.49005-.2543-.154-.5221-.28449-.8-.38996z" fill="#fff"/><path d="m20.0604 33.25c-2.215.0027-4.4058-.4607-6.43-1.36l-1.63-.89c-.4421-.2416-.8635-.5192-1.26-.83l-.90004-.56c-.19606-.0569-.40296-.0657-.60315-.0257s-.38776.1278-.54685.2557c-.36.33.23 1 .25 1 2.70414 2.2615 5.98214 3.7291 9.47004 4.24h.25l.05 4.16-2.77.64c-1.19.31-1.85.52-2.21.65.2131.0123.4268.0123.64 0h.8699 9.9001c1.16 0 1.83-.05 2.24-.08-.57-.18-1.44-.36-2.21-.51l-3.76-.72v-.22s0-2 0-3.52v-.28h.28c9-1 16.59-9.26 16.59-18 0-7.34999-5.17-14.22002-12.55-16.660021-.46-.13-.8-.099983-1 .080017-.1348.166587-.2057.375822-.2.590024 0 .69.25.9.41 1l1.15.45996 1.37.62c.6898.38934 1.3575.81669 2 1.28003 2.0278 1.44033 3.6919 3.33358 4.8602 5.52949 1.1682 2.1959 1.8084 4.6339 1.8698 7.1205-.0623 4.2645-1.7875 8.3361-4.808 11.3473-3.0204 3.0111-7.0974 4.7237-11.3621 4.7727z" fill="#fff"/></g></svg>