<svg fill="none" height="150" viewBox="0 0 167 150" width="167" xmlns="http://www.w3.org/2000/svg"><g fill="#584a4b"><path d="m131.549 29.77c-.034.7464-.362 1.4489-.914 1.9532-.551.5044-1.28.7693-2.026.7368h-84.13c-.7464.0325-1.4753-.2324-2.0265-.7368-.5512-.5043-.8797-1.2068-.9134-1.9532.0363-.7446.3659-1.4446.9168-1.9468.551-.5022 1.2783-.7658 2.0231-.7332h84.13c.745-.0326 1.472.231 2.023.7332s.881 1.2022.917 1.9468z"/><path d="m134.889 52.09c-.014.3985-.107.7901-.274 1.1521-.168.362-.405.687-.699.9561-.295.2691-.639.4768-1.015.611-.375.1343-.774.1923-1.172.1708h-90.3699c-.3981.0215-.7964-.0365-1.1718-.1708-.3755-.1342-.7205-.3419-1.0147-.611s-.5318-.5941-.699-.9561c-.1671-.362-.2603-.7536-.2744-1.1521.0154-.3976.1095-.7882.2772-1.149.1678-.3608.4057-.6846.6997-.9526.2941-.2681.6386-.4749 1.0134-.6085.3747-.1337.7723-.1914 1.1696-.1699h90.3699c.397-.0215.795.0362 1.17.1699.375.1336.719.3404 1.013.6085.294.268.532.5918.7.9526s.262.7514.277 1.149z"/><path d="m134.889 71.39c-.015.3976-.109.7881-.277 1.149-.168.3608-.406.6846-.7.9526-.294.2681-.638.4749-1.013.6085-.375.1337-.773.1914-1.17.1699h-90.3699c-.3973.0215-.7949-.0362-1.1696-.1699-.3748-.1336-.7193-.3404-1.0134-.6085-.294-.268-.5319-.5918-.6997-.9526-.1677-.3609-.2618-.7514-.2772-1.149.0141-.3985.1073-.7901.2744-1.1521.1672-.362.4048-.687.699-.9561s.6392-.4768 1.0147-.611c.3754-.1343.7737-.1923 1.1718-.1708h90.3699c.398-.0215.797.0365 1.172.1708.376.1342.72.3419 1.015.611.294.2691.531.5941.699.9561.167.362.26.7536.274 1.1521z"/></g><path d="m43.5683 10.44v129.64c-.0017 1.691-.48 3.348-1.38 4.78h-15.15c-.9-1.432-1.3783-3.089-1.38-4.78v-129.64c-.1256-1.2514.0124-2.51524.4053-3.71002.3928-1.19478 1.0317-2.29395 1.8754-3.22664.8438-.93268 1.8737-1.67817 3.0232-2.18838 1.1496-.510213 2.3933-.773822 3.651-.773822s2.5015.263609 3.651.773822c1.1496.51021 2.1795 1.2557 3.0232 2.18838.8438.93269 1.4827 2.03186 1.8755 3.22664.3929 1.19478.531 2.45862.4054 3.71002z" fill="#ea5624"/><path d="m43.5711 10.44v129.64c-.0017 1.691-.48 3.348-1.38 4.78h-10.6101c-.9081-1.429-1.3901-3.087-1.3899-4.78v-129.64c-.1392-.95972-.0703-1.93814.202-2.86885.2724-.93071.7418-1.79192 1.3764-2.52519s1.4195-1.32143 2.3015-1.72455c.882-.40311 1.8403-.61175 2.81-.61175.9698 0 1.9281.20864 2.8101.61175.882.40312 1.6669.99128 2.3015 1.72455s1.104 1.59448 1.3764 2.52519c.2723.93071.3413 1.90913.2021 2.86885z" fill="#f8ac22"/><path d="m146.141 10.44v129.64c.002 1.69-.473 3.347-1.37 4.78h-15.15c-.9-1.432-1.378-3.089-1.38-4.78v-129.64c-.132-1.25483 0-2.52353.389-3.7238.39-1.20027 1.027-2.30528 1.871-3.2433s1.876-1.68808 3.028-2.20152c1.153-.51344 2.401-.778765 3.662-.778765 1.262 0 2.51.265325 3.663.778765 1.152.51344 2.184 1.2635 3.028 2.20152s1.481 2.04303 1.871 3.2433c.389 1.20027.521 2.46897.388 3.7238z" fill="#ea5624"/><path d="m141.59 10.44v129.64c-.004 1.692-.486 3.349-1.389 4.78h-10.611c-.9-1.432-1.378-3.089-1.38-4.78v-129.64c-.27-1.02432-.302-2.09717-.093-3.13585.209-1.03867.654-2.01542 1.3-2.85496.647-.83954 1.477-1.51946 2.428-1.98731s1.996-.71115 3.055-.71115c1.06 0 2.105.2433 3.056.71115s1.781 1.14777 2.428 1.98731c.646.83954 1.091 1.81629 1.3 2.85496.209 1.03868.177 2.11153-.094 3.13585z" fill="#f8ac22"/><path d="m152.568 123.84h-138.4899v21.02h138.4899z" fill="#f8ac22"/><path d="m166.062 139.72h-165.460438v10.27h165.460438z" fill="#ea5624"/><path d="m65.1414 30.55c0 1.7009-.5043 3.3637-1.4493 4.7779-.945 1.4143-2.2882 2.5166-3.8596 3.1675-1.5715.6509-3.3006.8212-4.9689.4894-1.6682-.3319-3.2006-1.1509-4.4033-2.3537-1.2027-1.2027-2.0218-2.7351-2.3536-4.4033-.3319-1.6682-.1616-3.3974.4893-4.9689.651-1.5714 1.7533-2.9145 3.1675-3.8595 1.4143-.945 3.0771-1.4494 4.778-1.4494 1.1297-.0013 2.2486.2203 3.2926.652s1.9925 1.0651 2.7914 1.864c.7988.7988 1.4322 1.7474 1.864 2.7914.4317 1.044.6533 2.1629.6519 3.2926z" fill="#e73147"/><path d="m85.0086 30.04c.002 1.7014-.5007 3.3651-1.4444 4.7806-.9438 1.4156-2.2863 2.5195-3.8576 3.1719-1.5713.6525-3.3007.8242-4.9696.4935s-3.2023-1.149-4.406-2.3513c-1.2037-1.2024-2.0238-2.7347-2.3564-4.4032-.3327-1.6685-.1629-3.3982.4877-4.9702.6507-1.5721 1.7529-2.9158 3.1674-3.8612 1.4145-.9455 3.0776-1.4501 4.7789-1.4501 2.2792 0 4.465.9047 6.0775 2.5154 1.6126 1.6106 2.5199 3.7955 2.5225 6.0746z" fill="#003b45"/><path d="m125.828 52.09c0 1.6989-.503 3.3597-1.447 4.7724-.944 1.4126-2.286 2.5136-3.855 3.1637-1.57.6502-3.297.8203-4.963.4889-1.667-.3315-3.197-1.1496-4.399-2.3509-1.201-1.2014-2.019-2.732-2.35-4.3983-.332-1.6663-.162-3.3934.488-4.963.65-1.5697 1.751-2.9112 3.164-3.8551s3.073-1.4477 4.772-1.4477c1.129-.0013 2.246.22 3.289.6512s1.991 1.0639 2.788 1.8618c.798.7979 1.431 1.7454 1.862 2.7882s.653 2.1604.651 3.2888z" fill="#e73147"/><path d="m107.391 52.09c.002 1.7013-.5 3.3651-1.444 4.7806-.944 1.4156-2.286 2.5195-3.858 3.1719-1.571.6524-3.3003.8242-4.9692.4935s-3.2023-1.149-4.406-2.3513c-1.2037-1.2024-2.0238-2.7347-2.3564-4.4032-.3327-1.6685-.1629-3.3982.4878-4.9703.6506-1.572 1.7528-2.9157 3.1673-3.8611 1.4145-.9455 3.0776-1.4501 4.7789-1.4501 1.1289-.0013 2.2466.2199 3.2906.651 1.043.4311 1.991 1.0636 2.79 1.8614s1.432 1.7452 1.865 2.7881c.432 1.0428.654 2.1606.654 3.2895z" fill="#ea5624"/><path d="m85.0086 71.39c0 1.701-.5043 3.3637-1.4493 4.7779-.945 1.4143-2.2882 2.5166-3.8596 3.1675-1.5715.6509-3.3007.8212-4.9689.4894s-3.2006-1.1509-4.4033-2.3536c-1.2027-1.2028-2.0218-2.7351-2.3537-4.4034-.3318-1.6682-.1615-3.3974.4894-4.9688.6509-1.5715 1.7532-2.9146 3.1675-3.8596s3.077-1.4494 4.778-1.4494c1.1297-.0013 2.2486.2203 3.2926.652s1.9925 1.0651 2.7913 1.864c.7989.7988 1.4323 1.7474 1.8641 2.7914.4317 1.044.6533 2.1629.6519 3.2926z" fill="#ea5624"/><path d="m65.2195 71.39c0 1.7014-.5047 3.3645-1.4501 4.779s-2.2891 2.5167-3.8611 3.1674c-1.572.6506-3.3017.8203-4.9702.4877-1.6685-.3327-3.2009-1.1528-4.4032-2.3565s-2.0206-2.737-2.3513-4.4059-.1591-3.3984.4934-4.9697c.6524-1.5712 1.7563-2.9137 3.1719-3.8575 1.4155-.9437 3.0793-1.4464 4.7806-1.4445 1.1289 0 2.2467.2226 3.2896.6549 1.0428.4323 1.9903 1.0659 2.788 1.8646.7978.7987 1.4303 1.7469 1.8614 2.7902.4311 1.0434.6523 2.1614.651 3.2903z" fill="#e73147"/></svg>