<svg fill="none" height="166" viewBox="0 0 167 166" width="167" xmlns="http://www.w3.org/2000/svg"><path d="m166.052 82.74c.024 19.102-6.586 37.621-18.7 52.39-3.067 3.762-6.457 7.248-10.13 10.42-14.978 12.924-34.108 20.024-53.8904 20-1.24 0-2.4599 0-3.6699-.08-3.6453-.161-7.2762-.558-10.87-1.19-1.19-.21-2.37-.45-3.53-.71-1.42-.32-2.82-.67-4.21-1.06-20.7425-5.815-38.4066-19.476-49.25-38.09-1.6177-2.78-3.07348-5.652-4.36001-8.6-5.64263-13.011-7.850899-27.2528-6.41339-41.3617 1.4375-14.1089 6.47267-27.6126 14.6234-39.2183v-.05c1.889-2.6795 3.9359-5.244 6.13-7.68 10.2021-11.3272 23.334-19.61721 37.9477-23.95617 14.6138-4.338949 30.1418-4.55829 44.8726-.63382 1.73.46 3.45 1.00001 5.13 1.55001.83.27 1.64.55999 2.45.86999 2.727 1.01182 5.397 2.17018 8 3.47 16.434 8.22399 29.68 21.66059 37.67 38.20999 5.379 11.1848 8.164 23.4391 8.15 35.85z" fill="#ea5624"/><g fill="#c84c1d"><path d="m71.5694 161.12-2.79 3.08c-2.6333-.467-5.2133-1.057-7.74-1.77-14.5378-15.278-23.7005-34.878-26.1-55.83-.31-2.74-.5-5.51-.58-8.29 0-.85 0-1.71 0-2.56-.0027-11.8752 2.1979-23.6477 6.49-34.72 1-2.59 2.12-5.14 3.34-7.62 5.9672-12.2109 14.438-23.0288 24.8616-31.7501 10.4235-8.7214 22.5664-15.15074 35.638-18.86992 2.567.67676 5.097 1.48448 7.58 2.42l.83 4.05999c-12.938 2.68283-25.1109 8.23323-35.621 16.24253-10.51 8.0093-19.0901 18.2736-25.1086 30.0375-1.3333 2.52-2.5066 5.1-3.52 7.74-4.1172 10.3302-6.2315 21.3495-6.23 32.47v2.36c.0733 2.8.28 5.587.62 8.36 2.6054 21.015 12.6564 40.401 28.33 54.64z"/><path d="m162.379 58.31c-1.747-1.0162-3.546-1.9407-5.39-2.77-12.055-5.4945-25.5-7.1829-38.54-4.84-6.276 1.1193-12.431 2.8371-18.38 5.13l-4.3396 1.74c-7.21 2.92-14.66 5.95-22.79 7-8.0453.9897-16.2025.5393-24.09-1.33-2.07-.46-4.14-1-6.23-1.65-.62-.19-1.2-.38-1.8-.6-10.34-3.62-18.11-10.78-23.21-21.33-.7467-1.4802-1.4143-2.999-2-4.55v-.05l6.13-7.68c.2.79.42 1.56.67 2.32s.54 1.58.82 2.34c4.16 11 11.15 18.14 20.83 21.37l.87.28c2.49.76 4.93 1.37 7.34 1.85 6.3946 1.3618 12.9718 1.6457 19.46.84 7.09-1 13.74-3.65 20.79-6.5 1.47-.6 3.0001-1.2 4.4201-1.78 6.4485-2.4928 13.1225-4.3581 19.9295-5.57 11.704-2.094 23.74-1.322 35.08 2.25 2 .62 3.95 1.3233 5.85 2.11 1.812 3.6863 3.343 7.5037 4.58 11.42z"/><path d="m147.341 135.13c-3.063 3.761-6.449 7.248-10.12 10.42-2.326.224-4.663.314-7 .27-11.222-.122-22.231-3.084-31.9996-8.61-5.4348-3.08-10.5645-6.669-15.32-10.72-1.09-.93-2.16-1.88-3.23-2.82-5.11-4.51-9.93-8.77-15.63-11.66-6.4864-3.182-13.5387-5.048-20.75-5.49-.85-.07-1.73-.13-2.61-.16-1.9149-.087-3.8336.01-5.73.29-7.67 1.18-14.32 5.54-20.19 13.21-.1533.187-.3033.387-.45.6-.9176 1.256-1.7559 2.569-2.51 3.93-1.6177-2.78-3.07346-5.652-4.35999-8.6.25-.34.48004-.66.73004-1 .72-.94 1.45996-1.85 2.20995-2.71 6.87-7.93 14.92-12.52 24-13.73 2.2075-.2887 4.4358-.3858 6.66-.29l1.63.09c8.7379.4045 17.2988 2.604 25.15 6.46 6.62 3.37 12.07 8.17 17.35 12.82 1 .93 2.09 1.86 3.16 2.77 4.3403 3.701 9.0289 6.973 13.9996 9.77 11.522 6.53 24.928 8.932 38 6.81 2.37-.398 4.712-.949 7.01-1.65z"/><path d="m120.231 8.68001c-2.804.02099-5.6.30557-8.35.84999l-3.08-3.15 1-2c.83.27 1.64.56 2.45.87 2.719.99943 5.383 2.14442 7.98 3.43001z"/><path d="m79.6494 165.39c-3.6453-.161-7.2762-.558-10.87-1.19-1.19-.21-2.37-.45-3.53-.71l-.64-2.66h6.64s2.25 2.58 8.4 4.56z"/></g></svg>