<svg fill="none" height="66" viewBox="0 0 55 66" width="55" xmlns="http://www.w3.org/2000/svg"><g clip-rule="evenodd" fill-rule="evenodd"><path d="m34.8997 5.51008c-4.3791-1.96112-9.2417-2.57904-13.9721-1.77557-4.7305.80347-9.1163 2.99222-12.60233 6.28929-3.48605 3.297-5.91566 7.5541-6.98133 12.2324-1.065665 4.6784-.719507 9.5678.99469 14.0494 1.7142 4.4815 4.71938 8.3539 8.63517 11.1268 3.9158 2.773 8.5663 4.322 13.3628 4.4509 4.7964.129 9.5234-1.1679 13.5825-3.7264 4.0592-2.5586 7.2681-6.2638 9.2206-10.6468 1.2983-2.9047 2.0115-6.0368 2.099-9.2172.0875-3.1805-.4525-6.347-1.5892-9.3187-1.1366-2.9717-2.8477-5.6903-5.0354-8.0006-2.1876-2.31017-4.809-4.16671-7.7144-5.46352z" fill="#66afc0"/><g fill="#fff"><path d="m36.6512 48.91c4.1301-2.253 7.5093-5.667 9.72-9.8199h-.28l-.15.18-.24-.1001c-.0468.0033-.0936-.0073-.1345-.0304s-.0741-.0578-.0955-.0996c-.08-.15 0-.1499-.13-.2299-.0919-.0225-.188-.0225-.28 0-.1834.0173-.3644.0542-.54.1099-.18.05-.41.0001-.54.0701l-.59.52c-.1223.0943-.2187.2181-.28.36-.042.1758-.1024.3467-.18.51-.1285.1407-.29.2472-.47.31-.2479-.022-.4909-.0827-.72-.18-.25-.13-.2-.1301-.48-.1001s-.47.0001-.62.1501-.39.16-.41.21-.26-.0001-.34-.1001-.1-.1599-.25-.1599c-.1297.0122-.2603.0122-.39 0-.0979-.0553-.2019-.0989-.31-.13-.1 0-.18-.1-.33-.05l-.36.1c-.0947.0415-.1915.0782-.29.1099l-.43.18-.31-.1599s-.36.1-.41.13c-.1666.1428-.3236.2965-.47.46-.0937.1475-.1772.3011-.25.46v.52c0 .16.34.67.34 1 .0143.3157.0819.6268.2.92-.0297.2239-.0903.4426-.18.65-.1142.4098-.2579.8109-.43 1.2-.11.06-.06.54-.11.88-.0135.2892.0307.5781.13.85 0 0-.33.2 0 .61.21.26.44.54.59.7z"/><path d="m8.47046 35.1s-.13-.62 0-.69c.19176-.1218.33636-.3051.41-.52.02319-.2561.02319-.5139 0-.77l-.69-1.28-.13-.83s-.84999.26-.73999.34-.36001 1.44-.41001 1.62-.06001 1.08-.11001 1.39-.06998 1.33-.06998 1.33l.14999.8s.49001.54.69001.13.69998-.64.79998-.82c.07103-.2264.10481-.4628.10001-.7z"/><path d="m38.2519 9.26001-.65.87999-1.2.79-1.14.57s-.48.54.47.92c.4972.204.9785.4447 1.44.72.1839-.2724.313-.5782.38-.9l.34-1.08c.2388-.1397.433-.3442.56-.59.31-.46.8-1.08001.8-1.08001z"/><path d="m38.3198 11.8301-.23.62v.39l.36.6399.39.1001s-.1-.4601.13-.6701c.1739-.1631.2839-.3829.31-.62 0-.07-.23-.74-.23-.74l-.26-.2299-.49.18s0 .36 0 .33z"/><path d="m27.8314 3.54997c-5.1364-.60569-10.3319.44527-14.829 2.99963-4.49712 2.55437-8.06068 6.4786-10.17101 11.2004-.13.28-.25998.59-.38998.9l.17999.12 1.48999-1.31c.29026-.4586.62522-.8874 1-1.28.49-.41 1.31003-1.31 1.31003-1.31.49726-.164.9791-.3715 1.43997-.62.38975-.2643.84914-.4069 1.32001-.41l2.08.95 1.34-.08c.5189.1343 1.0542.1949 1.59.18.15-.1 1.34-.61 1.34-.61s.95-.49.23.28-1 .61-1.31 1-1.78.18-1.78.18l-.15-.52-1.47.39c-.134.1021-.2463.2298-.3304.3758-.0841.1459-.1384.3071-.1596.4742 0 .25-.13 1.13.31 1.54.3298.3626.6307.7504.9 1.16.1.18 1 1.44 1.11 1.72.2596.3586.5507.6933.87 1 .5607-.2706 1.0877-.6063 1.57-1 .26-.31.59-.8.93-1.18.4016-.4447.829-.8655 1.28-1.26 0 0 .93-.67 1.26-.88s1-.49 1-.49.39-.2-.1.78c-.4385.8065-1.0099 1.5334-1.69 2.15-.18.16-1.15 1-1.23.78s-1 .43-1.26.82-1.18.74-1.34.85c-.2039.1528-.4552.2285-.7096.2139-.2544-.0147-.4954-.1188-.6804-.2939-.3933-.374-.822-.7089-1.28-1l-.21 1.44.08 2.31 1 2.85s.33 1.34.13 1.62-.85 1.29-1.16 1.83-.82 1.52-.82 1.52l.64 2 .26.75-.7 1.41v1c.1015.1965.1788.4047.23.62 0 .13-.28 1.21-.28 1.21l.41 1.36.36 1.06c.3086.2931.6433.5576 1 .79.18 0 .36.34.67.49s.51.64.92.44c.33-.2651.588-.609.75-1 .4361-.34.841-.7182 1.21-1.13.62-.7.69-.72 1.41-1.6s1-.69 1.39-1.54c.2748-.6338.5853-1.2514.93-1.85.0125-.5745.1347-1.1413.36-1.67.36-.62 1.15-1.47 1.18-1.62.322-.2871.6741-.5385 1.05-.75l.9-1 .52-1.49c.3755-.0703.7621-.0532 1.13.05.31.16 1-.2 1.16-.23s1.36 1.06 2 1.36 1.05 1.68 1.92 1.16c.6225-.4152 1.2944-.7511 2-1 .26.06 1.06-.67 1.06-.67.616-.3208 1.1109-.8332 1.41-1.46.44-1 .7-1.65.7-1.65l.33-1.69-.18-1.62s-.67-.52-.57-1.11.31-1.56.31-1.56l-.49-1.08v-.64l-.15-.47-.36.19-.64-.3-.87-.57-.46-.62-.88-.61-.41-.18-.54-.24-.44-.25-.26-.16h-.3s0 .42-.18.55 0 .64-.18.72c-.2857.1033-.5803.1802-.88.23-.1 0-.38-.26-.72-.13s-.23.25-.9.25-1.13.18-1.13-.23.1 0 0-.54.13-.69-.49-.77c-.5727.0342-1.1472-.0267-1.7-.18-.77-.26-1.39-.61-1.57-.67s-1-.36-1-.36l-.06-.92.31-1 .18-.44 1.65.6.15.33c.116.0596.2446.0908.375.0908s.259-.0312.375-.0908c.2285-.1082.4353-.2573.61-.44l.36-.56v-.51c.2998.1532.6106.2835.93.39.15 0 .51-.28.36.15-.1927.4585-.4235.9-.69 1.32 0 0 0 .51.25.53s.18.57.7-.15.69-.67.87-.77c.2422-.2239.457-.4757.64-.75.4295-.0253.8534-.1094 1.26-.25.34-.18.44-.41.88-.47s.51 0 .51 0 .36.57.18.75c-.3208.1935-.655.3639-1 .51l-1.51.26s-.36.2-.21.25c.1612.0372.3288.0372.49 0 0 0 .1.23 0 .33s-.28.16-.33.21c-.0156.1529-.0156.3071 0 .46l.05.31s.1.23.18 0c.0446-.1868.068-.378.07-.57l.39-.34c.1426-.0667.2896-.1235.44-.17.13-.06.31 0 .54 0s.46 0 .79-.21.29-.48.54-.54l.29-.05.41.08c.0293.0918.0527.1853.07.28.1157.1213.2393.2349.37.34 0 0-.08.18 0 .23.1197.0116.2403.0116.36 0 .1703.011.3367.0552.49.13 0 0 .05.31.13.33s.05.18 0 .23-.23.08-.1.21c.1369.1753.2573.3627.36.56.05.08.13.36.18.49.0519.1338.0954.2707.13.41l-.18.34.07.54.23.43s-.23.16.11.26c.2602.1026.5083.2334.74.39 0 0-.15.25 0 .25.1815-.0095.362-.0329.54-.07l.26-.05s-.08.18.25.23.31.25.54-.13c.1089-.1645.1869-.3475.23-.54.1399-.37.2601-.7472.36-1.13l.42-.52c.0201-.1091.0201-.221 0-.33-.1371-.2359-.3429-.4243-.59-.54-.16-.05-.8-.23-1.08-.28s-.46.18-.67-.13c-.1065-.1883-.1351-.4108-.08-.62l.39-.64s.15.13.44-.1.51-.36.51-.36c.1582.0777.3341.1122.51.1.16 0 .24-.34.24-.34s-.65-.48-.65-.41-.31-.28-.31-.28l.24-.39s-.34.06-.44 0-.23-.18-.31-.31c-.0709-.097-.1157-.2107-.13-.33v-.44l-.31-.23-.39-.34v-.56l-.31-.49-.44-.21-.33-.25.1-.44001s.21-.82002.36-.77002.33-.39001.33-.39001l-.25-.71998s-.46.31-.49.49c-.03.17999.13.40999-.05.48999l-.64.33001h-1c-.2436-.07209-.4642-.20654-.64-.39001-.26-.28-.54-.13-.75-.56-.1325-.20929-.2019-.45232-.2-.70001 0-.23-.08-.84998-.1-1.15998s-.62-.25-.62-.25l-.08-.39001s.23-.32999.31-.48999-.31-.54003-.39-.59003-.84-.32995-.84-.32995l-.39-.48999z"/><path d="m34.8991 5.51001c-.41-.18-.82-.36002-1.23-.52002l-1.41-.48999c-.2782.28017-.6219.48639-1 .59998-.59.2.31.95001.31.95001-.0892.39845-.1493.80287-.18 1.21002-.05.69.49.56.49.56s.54.28.54.13.29-.40999.39-.48999c.2516-.18124.483-.38911.69-.61999.21-.23.49.38995.49.38995l1 .80005c.77.59.31-.21002.31-.21002.1689-.31732.3664-.61859.59-.90003.08 0 .18-.48998.26-.79998l-1.29-.60999z"/><path d="m24.9299 53.3599c-3.5457.0006-7.0518-.7456-10.29-2.19l-2.64-1.39c-.7028-.3788-1.3719-.8171-2.00002-1.31l-1.42999-.93c-.17609-.0473-.3577-.0708-.54001-.07-.4824-.0015-.95236.1529-1.34.44-.57.56.41 1.64.41 1.67 4.32982 3.6236 9.58222 5.9711 15.17002 6.78l.44.06.05 6.65-4.45 1.06c-1.2012.2662-2.3865.6001-3.55 1h1 1.39l15.91-.08c1.83 0 2.91-.05 3.55-.1-1.1653-.3412-2.351-.6084-3.55-.8l-6.06-1.15v-.41s0-3.19 0-5.66v-.44h.44c14.39-1.59 26.58-14.81 26.58-28.9 0-11.8-8.25-22.77996-20.11-26.689962-.71-.23-1.25-.200015-1.56.109982-.1142.12852-.2007.27923-.2541.44269-.0533.16346-.0724.33617-.0559.50733 0 1.1.41 1.45996.64 1.58996l1.85.72003c1.13.49 2.1899 1 2.1899 1 1.1288.61774 2.2176 1.30576 3.2601 2.06 6.76 4.99997 10.8 12.53997 10.8 20.27997 0 14-11.88 25.82-25.94 25.82z"/></g></g></svg>