<svg fill="none" height="166" viewBox="0 0 122 166" width="122" xmlns="http://www.w3.org/2000/svg"><path d="m112.842 56.17c0 2.7503-1.093 5.3879-3.038 7.3326-1.945 1.9448-4.582 3.0374-7.332 3.0374-2.7506 0-5.3883-1.0926-7.3331-3.0374-1.9447-1.9447-3.0373-4.5823-3.0373-7.3326v-23.24c-.0013-1.3627.266-2.7122.7866-3.9715.5205-1.2593 1.284-2.4037 2.2471-3.3677.963-.964 2.1069-1.7287 3.3657-2.2505 1.2588-.5217 2.608-.7903 3.971-.7903 2.75 0 5.387 1.0925 7.332 3.0373 1.945 1.9447 3.038 4.5824 3.038 7.3327z" fill="#a83041"/><path d="m25.5214 59.55c.0013 1.3613-.2656 2.7096-.7857 3.9676-.52 1.2581-1.283 2.4013-2.2451 3.3644s-2.1047 1.7272-3.3623 2.2484c-1.2576.5213-2.6055.7896-3.9668.7896-1.3627.0013-2.7121-.266-3.9714-.7865-1.25934-.5206-2.40371-1.2843-3.36771-2.2473-.96401-.9631-1.72873-2.1067-2.25049-3.3655-.52177-1.2588-.79053-2.6081-.79053-3.9707v-23.23c-.00658-1.3652.2566-2.7182.77417-3.9815s1.2794-2.4119 2.24194-3.38 2.10669-1.7367 3.36692-2.2615c1.2603-.5249 2.6119-.7957 3.9771-.797 1.3613 0 2.7092.2683 3.9668.7896 1.2576.5212 2.4001 1.2852 3.3623 2.2483.9621.963 1.725 2.1063 2.2451 3.3644.52 1.2581.7872 2.6063.7859 3.9677z" fill="#a83041"/><path d="m60.8088.289981c-3.9402-.001978-7.7925 1.164659-11.0696 3.352299-3.2771 2.18763-5.8318 5.29801-7.3411 8.93772-1.5092 3.6397-1.9051 7.6453-1.1377 11.51.7675 3.8648 2.6638 7.4151 5.4493 10.202 2.7854 2.7869 6.3348 4.6851 10.1992 5.4545 3.8644.7695 7.8702.3755 11.5107-1.1319s6.7521-4.0605 8.9414-7.3366c2.1893-3.276 3.3579-7.1278 3.3579-11.068 0-5.2814-2.0975-10.34663-5.831-14.08207-3.7336-3.73544-8.7977-5.835298-14.0791-5.837949zm0 33.400019c-2.6689.002-5.2784-.7878-7.4983-2.2693-2.22-1.4816-3.9506-3.5883-4.9729-6.0537s-1.2902-5.1786-.77-7.7963c.5202-2.6178 1.8051-5.0224 3.6924-6.9096 1.8872-1.88718 4.2919-3.17221 6.9096-3.69241 2.6178-.52019 5.3308-.25218 7.7962.77008 2.4653 1.02227 4.5721 2.75293 6.0537 4.97283 1.4815 2.22 2.2712 4.8294 2.2693 7.4984-.0027 3.5743-1.4235 7.0015-3.951 9.5289-2.5274 2.5274-5.9547 3.9485-9.529 3.9511z" fill="#a83041"/><path d="m121.36 160.19c0 3.07-26.9503 5.56-60.2103 5.56s-60.220012-2.49-60.220012-5.56 27.000012-5.57 60.220012-5.57 60.2103 2.49 60.2103 5.57z" fill="#a83041"/><path d="m121.231 160.19c.15-1.79.23-3.59.23-5.4v-72.14c0-34.74-27.0002-62.9-60.3802-62.9s-60.369862 28.16-60.369862 62.9v72.14c0 1.81.06997 3.61.21997 5.4z" fill="#e73147"/><path d="m115.059 82.1299c0-31-24.1704-56.2299-54.0004-56.2299s-54.00001 25.1799-54.00001 56.2299" stroke="#a83041" stroke-miterlimit="10" stroke-width="3.24"/><path d="m24.3904 151.45c-1.4084-.031-2.7471-.619-3.7234-1.635-.9762-1.016-1.5107-2.376-1.4865-3.785-.0242-1.409.5103-2.769 1.4865-3.785.9763-1.016 2.315-1.603 3.7234-1.635h70.6202c1.4066.032 2.7432.62 3.7163 1.636s1.5031 2.377 1.4731 3.784c.03 1.407-.5 2.768-1.4731 3.784s-2.3097 1.605-3.7163 1.636z" fill="#002e36"/><path d="m100.211 91.68h-81.0196v54.56h81.0196z" fill="#004853"/><path d="m39.6795 80.2599c-.8249-.0209-1.6082-.3668-2.1794-.9624-.5712-.5955-.884-1.3924-.8706-2.2175-.0161-.8258.2959-1.6243.8677-2.2204.5717-.5962 1.3566-.9413 2.1823-.9596h41.46c.4098.0078.8139.0963 1.1895.2603.3755.1641.7151.4004.9992.6957.2842.2953.5075.6438.657 1.0254s.2223.7889.2144 1.1986c.0134.8268-.301 1.6253-.8743 2.2211s-1.3591.9405-2.1858.9588z" fill="#002e36"/><path d="m39.6795 48.34c-.8257-.0184-1.6106-.3635-2.1823-.9596-.5718-.5961-.8838-1.3946-.8677-2.2204-.0161-.8258.2959-1.6243.8677-2.2204.5717-.5961 1.3566-.9412 2.1823-.9596h41.46c.4098.0078.8139.0962 1.1895.2603.3755.164.7151.4005.9992.6958.2842.2953.5075.6437.657 1.0253.1495.3815.2223.7888.2144 1.1986.0079.4097-.0649.8171-.2144 1.1986-.1495.3816-.3728.73-.657 1.0253-.2841.2953-.6237.5318-.9992.6958-.3756.1641-.7797.2525-1.1895.2603z" fill="#002e36"/><path d="m84.2206 45.16h-47.58v32.04h47.58z" fill="#004853"/><g stroke="#fff" stroke-miterlimit="10" stroke-width="3.24"><path d="m21.8516 108.16h75.7"/><path d="m28.4609 108.16v-9.13"/><path d="m36.4492 117.29v-9.13"/><path d="m44.8789 108.16v-9.13"/><path d="m52.8711 117.29v-9.13"/><path d="m60.4297 108.16v-9.13"/><path d="m68.4219 117.29v-9.13"/><path d="m75.5508 108.16v-9.13"/><path d="m83.5312 117.29v-9.13"/><path d="m90.3984 108.16v-9.13"/></g></svg>