<svg fill="none" height="166" viewBox="0 0 104 166" width="104" xmlns="http://www.w3.org/2000/svg"><path d="m65.1113 21.52h-24.0801v108.78h24.0801z" fill="#003b45"/><path d="m41.0312 21.52 8.1501-14.18003 3.89-6.770024 3.89 6.770024 8.15 14.18003z" fill="#f8b06c"/><path d="m49.1797 7.33997 3.89-6.770024 3.89 6.770024z" fill="#002a31"/><path d="m58.2497 21.52h-9.07v108.78h9.07z" fill="#002a31"/><path d="m92.5309 21.01h-24.07v108.78h24.07z" fill="#025c5b"/><path d="m68.4609 21.01 8.15-14.19005 3.89-6.7699012 3.89 6.7699012 8.14 14.19005z" fill="#f8b06c"/><path d="m76.6094 6.81995 3.89-6.7699012 3.89 6.7699012z" fill="#025c5b"/><path d="m85.6794 21.01h-9.07v108.78h9.07z" fill="#004443"/><path d="m37.0192 21.52h-24.07v108.78h24.07z" fill="#ea5624"/><path d="m12.9492 21.52 8.15-14.18003 3.89-6.770024 3.89 6.770024 8.15 14.18003z" fill="#f8b06c"/><path d="m21.1016 7.33997 3.89-6.770024 3.89 6.770024z" fill="#ea5624"/><path d="m30.1716 21.52h-9.07v108.78h9.07z" fill="#aa4217"/><path d="m103.519 156.17c.002 1.226-.239 2.44-.707 3.574-.468 1.133-1.155 2.162-2.022 3.03-.8663.867-1.8953 1.555-3.0279 2.025-1.1326.469-2.3466.711-3.5727.711-2.4754-.003-4.8485-.988-6.5979-2.739-1.7495-1.751-2.7321-4.126-2.7321-6.601v-105.14c0-2.4754.9826-4.8495 2.7321-6.6008 1.7494-1.7513 4.1225-2.7365 6.5979-2.7391 1.2261 0 2.4401.2416 3.5727.7111s2.1616 1.1576 3.0279 2.0251c.867.8674 1.554 1.8971 2.022 3.0302.468 1.1332.709 2.3475.707 3.5735z" fill="#443838"/><path d="m.539062 41.6901v123.8599h94.000038v-123.8599zm84.320038 51.78h-71.52v-37h71.52z" fill="#826f71"/><path d="m83.4187 119.32h-72.4499v14.49h72.4499z" fill="#fff"/></svg>