<svg fill="none" height="75" viewBox="0 0 58 75" width="58" xmlns="http://www.w3.org/2000/svg"><path d="m28.441 64.3799 25.14-7.94c-2.4919-1.9222-4.6594-4.2315-6.4201-6.84-2.6071-3.8578-4.629-8.0802-6-12.53l-2.5699-8.07c-.5457-1.7296-1.4284-3.334-2.5973-4.7208-1.1688-1.3868-2.6005-2.5285-4.2127-3.3592h-.08c-2.4242-1.2376-5.1602-1.7307-7.8639-1.4173-2.7036.3134-5.2543 1.4194-7.331 3.1787-2.0768 1.7593-3.587 4.0935-4.3405 6.7088-.7536 2.6154-.7169 5.3952.1054 7.9898l2.5399 8.0701c1.437 4.4272 2.1989 9.0457 2.2601 13.7.0692 3.1486-.3802 6.2872-1.3301 9.2899zm13.08-1.83-27.33 8.64c-.2615.0732-.5399.0556-.79-.0499-.1334-.0624-.2532-.1503-.3525-.259-.0993-.1086-.1762-.2357-.2264-.3741-.0501-.1384-.0725-.2853-.0658-.4324.0066-.147.0422-.2913.1046-.4245 1.4368-3.3332 2.1197-6.9424 2-10.57-.0621-4.4173-.7902-8.8-2.1599-13l-2.5401-8.1001c-.95113-3.0113-.98985-6.2368-.1113-9.2701.8785-3.0334 2.6351-5.7389 5.0484-7.7758s5.3754-3.3141 8.5132-3.6708c3.1378-.3566 6.3109.2233 9.1197 1.6667l.08.05c1.8671.9682 3.525 2.295 4.8789 3.9046 1.3538 1.6095 2.3771 3.4701 3.0112 5.4754l2.5499 8.08c1.3179 4.2292 3.2556 8.2395 5.75 11.9001 2.0003 3.0257 4.6303 5.584 7.7101 7.5.1195.0646.2246.1529.3088.2595.0843.1066.1459.2293.1812.3605.0463.1384.0644.2848.0531.4303-.0113.1456-.0517.2874-.1189.4171-.0671.1296-.1597.2445-.2721.3377s-.2423.1628-.3822.2048z" fill="#fff"/><path d="m42.4991 60.7299c.3021.3964.5698.818.8 1.26.2482.4468.4461.9197.59 1.4101.3692 1.0733.5199 2.2096.4433 3.342s-.3789 2.2381-.8892 3.252c-.5103 1.0138-1.2183 1.9153-2.0822 2.6514-.864.7361-1.8664 1.292-2.9484 1.6349-1.082.3428-2.2217.4658-3.3519.3616s-2.2282-.4334-3.2292-.9683c-1.0011-.5348-1.8851-1.2646-2.6-2.1463-.7148-.8816-1.246-1.8974-1.5624-2.9874-.1544-.4932-.2681-.9982-.34-1.5099-.0556-.5114-.0723-1.0262-.05-1.5401.0217-.2221.1053-.4336.2415-.6105.1362-.1768.3193-.3118.5285-.3895l13.22-4.16c.2218-.074.4616-.074.6834-.0001.2218.074.4136.2179.5466.4101zm-1.16 2.27-.18-.34-11.67 3.6801v.3899c.053.3828.1366.7606.25 1.13.3758 1.1885 1.0958 2.2388 2.0687 3.018.973.7792 2.1552 1.2523 3.3971 1.3593 1.2419.1071 2.4876-.1567 3.5796-.7578 1.0919-.6012 1.981-1.5128 2.5546-2.6195.3871-.7334.6228-1.537.6932-2.3633s-.0258-1.6583-.2832-2.4467c-.0995-.3679-.2474-.721-.44-1.05z" fill="#fff"/><g clip-rule="evenodd" fill-rule="evenodd"><path d="m41.1583 62.6799-11.67 3.68v.39c.0529.3828.1365.7607.25 1.13.3758 1.1885 1.0958 2.2389 2.0687 3.018.973.7792 2.1551 1.2523 3.397 1.3594 1.2419.107 2.4877-.1567 3.5796-.7579 1.092-.6012 1.981-1.5128 2.5547-2.6195.3871-.7334.6228-1.5371.6932-2.3634.0704-.8262-.0259-1.6582-.2832-2.4466-.0995-.3679-.2475-.721-.44-1.0499z" fill="#f49c17"/><path d="m28.4398 64.35c4.27-1.33 8.56-2.67 12.83-4h.05l12.26-3.88c-2.4918-1.9222-4.6593-4.2315-6.42-6.84-2.6071-3.8579-4.629-8.0803-6-12.53l-2.5699-8.1c-.5457-1.7296-1.4285-3.334-2.5973-4.7208s-2.6005-2.5285-4.2127-3.3592h-.0801c-2.4241-1.2376-5.1601-1.7307-7.8638-1.4173s-5.2543 1.4193-7.331 3.1786c-2.0768 1.7594-3.587 4.0935-4.3406 6.7089-.7535 2.6154-.7168 5.3952.1054 7.9898l2.54 8.07c1.437 4.4273 2.1989 9.0458 2.26 13.7.0692 3.1487-.3801 6.2872-1.33 9.29l12.31-3.89c.13 0 .26-.07.39-.1z" fill="#fdc81a"/><path d="m27.1506 53c-.0838.0291-.1714.0459-.26.05.0886-.0041.1762-.0209.26-.05z" fill="#000"/><path d="m28.2084 52.73c-.1006.0439-.2042.0807-.31.11.1058-.0293.2094-.0661.31-.11z" fill="#000"/><path d="m29.2092 52.45-.26.08z" fill="#000"/><path d="m32.0003 51.45-.18.07z" fill="#000"/><path d="m27.6902 52.89-.28.07z" fill="#000"/><path d="m28.7214 52.6-.28.08z" fill="#000"/><path d="m29.6988 52.29-.23.0801z" fill="#000"/><path d="m30.1892 52.14-.24.08z" fill="#000"/><path d="m30.6714 52-.23.07z" fill="#000"/><path d="m32.5502 2.00002c-6.58-1.879998-9.72 4.78001-10.39 6.45001l1.91 4.99997c3.83-.26 6.78-.44 8.66-1.13 1.0014-.279 1.8746-.8977 2.47-1.75.1186-.195.1895-.4153.2068-.64298.0174-.22764-.0192-.45618-.1068-.66699z" fill="#e25132"/></g><path d="m31.7809 2.90003c-1.0522-.24692-2.1506-.21544-3.187.09143-1.0363.30687-1.9748.87854-2.723 1.65857-1.1054 1.1087-1.9879 2.419-2.6 3.85999l1.49 3.90998c3.37-.23 6-.41 7.61-1 .4723-.168.9223-.393 1.34-.67.2374-.1513.4387-.3527.59-.59.0427-.0809.0699-.16905.08-.25997 0-.08 0 0 0 0v-.15002zm-7.35.28998c1.0577-1.10978 2.4067-1.89916 3.8923-2.277649 1.4857-.378486 3.0479-.330777 4.5077.137639l.49.16003.18.45996 2.75 7.28003c.1535.33803.2156.71047.18 1.07998-.0387.3781-.1508.7449-.33 1.08-.2931.5188-.7085.9582-1.21 1.28-.5599.382-1.1644.6943-1.8.93-2 .74-4.86.92-8.59 1.18h-.38l-.75.05-.25-.72-1.91-4.99998v-.73999c.7359-1.83466 1.8306-3.50399 3.22-4.91003z" fill="#c22a36"/><path clip-rule="evenodd" d="m20.0784 15.9399h.0799l3.06-1.15c.0441-.0176.0843-.0437.1182-.0769.034-.0332.061-.0728.0796-.1165.0186-.0436.0284-.0905.0288-.138s-.0087-.0946-.0266-.1386l-.38-1-2-5.32998c-.0393-.08352-.1076-.14985-.1922-.18665-.0847-.0368-.1799-.04159-.2677-.01337l-6.3501 2.41c-.0853.0317-.155.0953-.1942.1775-.0392.0821-.0448.1763-.0157.2625l2.0899 5.5.33.85c.0134.0439.0357.0846.0656.1194s.0667.0629.1081.0827.0865.0307.1323.032c.0459.0014.0915-.0068.134-.0241l3.2101-1.21z" fill="#e25132" fill-rule="evenodd"/><path d="m19.7207 15h.08l2.4101-.9-.12-.41-1.78-4.68999-5.0901 1.92999 1.83 4.85.1001.21 2.5699-1zm.7701 1.91h-.0701l-3.19 1.21c-.158.0677-.3281.1026-.5.1026-.1718 0-.342-.0349-.5-.1026-.3226-.1647-.5773-.4371-.7199-.77l-.31-.85-2.08-5.5c-.0642-.1687-.0944-.3485-.0889-.5289s.0466-.3579.121-.52236c.0743-.16448.1804-.31264.3122-.43598s.2866-.21947.4556-.28277l6.3501-2.38996c.3228-.11858.6772-.11858 1 0 .3311.15306.5894.42929.72.76996l2 5.33001.39 1c.1358.3403.1358.7197 0 1.06-.1531.3312-.4294.5895-.7701.72l-3.06 1.16z" fill="#c22a36"/><path clip-rule="evenodd" d="m15.7112 17.48-2.18 8.13 3.47-1.4699 2.26 3 2.13-7.87 6.79 4.5-.28-3.77 3.55-1.2101-7.18-4.7299c.0906.2958.0644.6152-.0733.8923-.1376.2771-.3762.491-.6667.5976l-2 .75-2.21.8401-2.13.8c-.2638.1012-.5546.1076-.8227.0183-.2681-.0894-.497-.269-.6473-.5083z" fill="#e25132" fill-rule="evenodd"/><path d="m16.3492 19.05-1.28 4.81 1.54-.64.72-.31.49.61 1 1.34 1.57-5.83.36-1.32-1.08.42-2.13.79c-.3786.1462-.7888.191-1.19.13zm-3.83 6.27 2.21-8.09.6-2.19 1.25 1.9s.06 0 .11.08h.13l2.13-.82 2.21-.83 2-.77c.05 0 .07-.05.1-.07.0092-.0529.0092-.1071 0-.16l1.55-1.13 7.19 4.76 1.75 1.16-2 .67-2.8 1 .23 3 .15 2.08-1.74-1.16-5.61-3.7-1.77 6.48-.54 2-1.26-1.67-1.78-2.37-2.75 1.16-1.93.8zm8.31-7.63 1.13.74 5 3.35-.13-1.67v-.8l.74-.23 1.57-.54-4.21-2.81c-.2399.3661-.5901.6464-1 .8l-2 .75z" fill="#c22a36"/><path clip-rule="evenodd" d="m15.3994 16.74-1.82-4.86c-1.26-.67-8.39003-3.99998-12.22002 2l2.75 7.28c.06884.215.18979.4097.35205.5668.16225.157.36076.2715.57794.3332 1.00917.2381 2.0697.1178 3-.34 1.93-.72 4.27003-2.57 7.38003-4.93z" fill="#e25132" fill-rule="evenodd"/><path d="m14.1714 16.38-1.42-3.76c-1.9189-.9769-4.0766-1.3863-6.21997-1.18-.80264.1273-1.57107.4162-2.25866.8494-.6876.4332-1.28002 1.0016-1.74134 1.6706l2.56995 6.79v.13c.07704.0676.16495.1217.26001.16.26815.0655.54588.0825.82001.05.49406-.071.97764-.2019 1.44-.39 1.65-.61 3.78-2.23 6.51-4.34zm.36-4.86 1.82 4.86.29.69-.62.46-.41.34c-3 2.26-5.25 4-7.20002 4.78-.62735.243-1.28226.4076-1.94995.49-.58701.0885-1.18662.0371-1.75-.15-.37588-.1285-.71777-.3405-1-.62-.26567-.2486-.468-.5573-.59003-.9l-2.750001-7.28-.179993-.49.279969-.43c.610935-1.0224 1.439025-1.898 2.425715-2.5651.9867-.667 2.10791-1.10905 3.28431-1.29494 2.70669-.25773 5.4289.29578 7.82 1.59004z" fill="#c22a36"/></svg>