<svg fill="none" height="166" viewBox="0 0 41 166" width="41" xmlns="http://www.w3.org/2000/svg"><path d="m40.2209 2.45007v.35999 131.08994h-39.759962v-131.46995c.005275-.63039.259511-1.23322.707152-1.67712.44764-.443896 1.05244-.6928935 1.68286-.6928714h35.00005c.3125.0013105.6217.0641184.91.1849364.2882.120819.5499.297233.77.519165.2201.221933.3943.48503.5127.77429s.1786.59908.1772.91162z" fill="#8e2129"/><path d="m40.2194 2.45007v.35999 131.08994h-37.86002v-131.46995c.00264-.62948.25463-1.23233.70068-1.67651.44605-.444176 1.04983-.693487 1.67932-.6934814h33.13002c.6277.0079075 1.2269.2635394 1.6671.7111814.4402.44764.6855 1.05105.6829 1.67883z" fill="#e73147"/><g fill="#8e2129"><path d="m40.1896 16.92h-39.759912v14.3h39.759912z"/><path d="m40.1896 111.48h-39.759912v14.31h39.759912z"/><path d="m22.9097 165.51 17.27-31.6h-39.750012l17.279912 31.6z"/></g></svg>