<svg fill="none" height="56" viewBox="0 0 45 56" width="45" xmlns="http://www.w3.org/2000/svg"><g clip-rule="evenodd" fill-rule="evenodd"><path d="m9.94177 23.4101c.63033.3616 1.13903.9022 1.46173 1.5533.3228.6511.4449 1.3833.3511 2.1039-.0939.7206-.3996 1.3971-.8783 1.9438-.4788.5467-1.10904.939-1.81095 1.1271s-1.44388.1636-2.13185-.0704c-.68798-.234-1.291-.667-1.73264-1.2441-.44164-.577-.70202-1.2722-.74814-1.9975-.04613-.7252.12408-1.4478.48905-2.0762.48903-.8367 1.28841-1.4468 2.22457-1.6977.93615-.2509 1.93349-.1223 2.77543.3578z" fill="#e9473c"/><path d="m19.219 8.37004c-.2929-.16282-.5501-.38287-.7563-.64708-.2062-.2642-.3571-.56716-.4439-.89087-.0867-.32372-.1075-.66157-.0611-.99347.0464-.33191.1591-.65109.3313-.93858.2515-.43159.6251-.77907 1.0738-.99866.4486-.21958.9523-.30146 1.4474-.23528s.9595.27744 1.3348.60715c.3752.32971.6444.76311.7738 1.2456.1293.48248.1129.99244-.0472 1.46562-.1601.47317-.4566.88839-.8522 1.1933-.3957.30491-.8728.48588-1.3711.52009-.4983.03422-.9956-.07985-1.4293-.32782z" fill="#196684"/><path d="m27.3398 9.60006c-.4347-.25213-.7848-.62752-1.0061-1.07868-.2212-.45116-.3037-.95781-.237-1.45586.0668-.49804.2797-.96509.612-1.34207.3323-.37697.7689-.64693 1.2546-.77571s.9987-.11059 1.4741.05226c.4754.16284.8917.46304 1.1965.8626.3047.39955.4841.88052.5154 1.38204s-.0869 1.00106-.3395 1.43542c-.3422.57781-.8976.99806-1.5467 1.17015s-1.3398.08225-1.9233-.25015z" fill="#f0a20b"/><path d="m33.3097 14.7699c-.5815-.3386-1.0056-.8934-1.1798-1.5434s-.0844-1.3425.2498-1.9266c.2515-.4315.6251-.779 1.0738-.9986.4486-.2196.9522-.30147 1.4473-.2353.4951.0662.9596.2774 1.3348.6071.3753.3297.6445.7632.7738 1.2456.1293.4825.1129.9925-.0471 1.4657-.1601.4731-.4566.8884-.8523 1.1933-.3956.3049-.8727.4858-1.371.5201-.4984.0342-.9957-.0799-1.4293-.3279z" fill="#79a319"/><path d="m35.6214 18.71c.2515-.4316.6251-.7791 1.0737-.9987.4487-.2196.9523-.3014 1.4474-.2353.4951.0662.9596.2775 1.3348.6072s.6445.7631.7738 1.2456.1129.9924-.0472 1.4656c-.16.4732-.4565.8884-.8522 1.1933s-.8727.4859-1.371.5201c-.4984.0342-.9957-.0799-1.4293-.3278-.2899-.1658-.5442-.3874-.748-.6519-.2039-.2645-.3534-.5668-.4398-.8894-.0865-.3226-.1082-.6591-.064-.9901.0443-.3311.1536-.6501.3218-.9386z" fill="#569cc3"/><path d="m35.3101 25.65c.2512-.435.6257-.7858 1.0763-1.008.4505-.2221.9568-.3057 1.4548-.2401.4981.0655.9655.2773 1.3432.6085s.6487.767.7787 1.2522c.1301.4852.1133.9981-.0481 1.4738s-.4603.8928-.8588 1.1987c-.3985.3058-.8787.4866-1.38.5196-.5013.0329-1.001-.0836-1.4361-.3347-.5776-.3423-.9982-.897-1.172-1.5455s-.087-1.3392.242-1.9245z" fill="#dd000e"/><path d="m38.7886 24.72c-.4343-.2527-.9339-.3708-1.4354-.3395s-.9825.2107-1.382.5154c-.3996.3047-.6998.7211-.8626 1.1965-.1629.4754-.1811.9884-.0523 1.4741s.3987.9223.7757 1.2546.844.5452 1.3421.612c.498.0667 1.0047-.0158 1.4558-.237.4512-.2213.8266-.5714 1.0787-1.0061.3298-.5841.4182-1.2739.2463-1.9222-.1719-.6484-.5904-1.2038-1.1663-1.5478zm.28-6.94c-.4343-.2527-.9339-.3708-1.4354-.3395s-.9825.2107-1.382.5154c-.3996.3048-.6998.7211-.8626 1.1965-.1629.4754-.1811.9884-.0523 1.4741s.3987.9223.7757 1.2546.8441.5452 1.3421.612c.498.0667 1.0047-.0158 1.4558-.237.4512-.2213.8266-.5714 1.0787-1.0061.1686-.288.2785-.6064.3235-.937.045-.3307.0241-.6669-.0614-.9894-.0855-.3226-.234-.625-.4369-.8899-.2028-.2649-.4561-.4871-.7452-.6537zm-6.69-6.48c-.3342.5841-.424 1.2766-.2498 1.9266s.5983 1.2048 1.1798 1.5434c.4336.248.931.362 1.4293.3278s.9754-.2152 1.371-.5201c.3957-.3049.6922-.7201.8523-1.1933.16-.4731.1765-.9831.0471-1.4656-.1293-.4825-.3985-.9159-.7738-1.2456-.3752-.3297-.8396-.5409-1.3347-.6071s-.9988.0157-1.4474.2353c-.4487.2195-.8223.567-1.0738.9986zm-6-5.17c-.2526.43436-.3708.93391-.3395 1.43543s.2107.98249.5154 1.38204c.3048.39956.7212.69975 1.1965.8626.4754.16284.9884.18103 1.4741.05225s.9224-.39873 1.2546-.7757c.3323-.37698.5452-.84404.612-1.34208.0667-.49805-.0158-1.0047-.237-1.45586-.2213-.45116-.5714-.82655-1.0061-1.07867-.5835-.33241-1.2742-.42224-1.9233-.25015-.649.17209-1.2045.59233-1.5467 1.17014zm-8.13-1.22999c-.1854.2875-.3107.60962-.3681.94689-.0574.33728-.0458.68269.0341 1.01536s.2264.64568.4307.9201.4622.50455.758.67647c.2958.17193.6234.28207.9629.32378.3396.0417.6841.0141 1.0127-.08113.3286-.09524.6345-.25613.8991-.47296.2647-.21682.4826-.48506.6406-.78851.1855-.2875.3107-.60963.3681-.9469s.0458-.68269-.034-1.01536c-.0799-.33267-.2265-.64567-.4308-.92009-.2043-.27443-.4621-.50456-.7579-.67648s-.6234-.28207-.963-.32378c-.3396-.0417-.6841-.0141-1.0127.08113-.3286.09524-.6344.25614-.8991.47296-.2646.21682-.4826.48507-.6406.78852zm-8.34998 18.50999c-.62765-.3665-1.35-.5384-2.07548-.4939-.72547.0445-1.42139.3034-1.99952.7439-.57814.4405-1.01245 1.0428-1.24787 1.7305-.23543.6876-.26137 1.4297-.07453 2.1321s.57805 1.3335 1.12402 1.8133 1.22211.7867 1.94271.8818c.72059.095 1.45319-.026 2.1049-.3478.65175-.3219 1.19315-.83 1.55575-1.4599.4783-.8413.6069-1.8369.3581-2.7721-.2488-.9353-.855-1.7354-1.68808-2.2279zm18.24998 5.91c-1.08-4.6-5.6-5.09-9.48-2.7s-7.41 8.9-12.85998 8.28c-5.140001-.59-6-5.81-5.17-10 .82981-4.6685 2.38175-9.1792 4.6-13.37 7.86998-14.31999 18.43998-13.32 28.33998-7.58 9.12 5.27 14.29 18.46 7.74 27.56-2.29 3.16-8.33 7.33-11.88 3.55-1.26-1.34-1-2.91-1.11-4.58-.0268-.3911-.087-.7792-.18-1.16z" fill="#8acf24"/><path d="m30.7903 16.13s1 5.64-4.22 5.94-6 6.77-6 6.77l5.32 4.73c11-5.66 4.91-17.44 4.91-17.44z" fill="#47bee8"/><path d="m19.4016 30.15 5.35 4.73s-17.38004 19.67-18.82004 20.72c0 0-2.52.85-2.83-1.77 1.62-3.4 16.30004-23.68 16.30004-23.68z" fill="#fff"/></g></svg>