<svg fill="none" height="62" viewBox="0 0 61 62" width="61" xmlns="http://www.w3.org/2000/svg"><path d="m39.3195 7.55997c.0981-.11649.2194-.21131.3562-.27847.1367-.06716.2859-.1052.4381-.11168s.3041.01873.446.07402c.142.05529.2709.13946.3786.24718s.1919.23663.2472.37858.0805.29385.074.44605-.0445.30139-.1117.43812c-.0671.13674-.162.25804-.2785.3562l-12.63 12.65003c-.208.1969-.4835.3067-.7699.3067-.2865 0-.562-.1098-.77-.3067-.105-.1-.1886-.2202-.2457-.3534s-.0866-.2767-.0866-.4216c0-.145.0295-.2884.0866-.4216.0571-.1333.1407-.2535.2457-.3534z" fill="#8cce26"/><path d="m45.9097 14.15c.0994-.1085.2198-.1958.3538-.2566.1341-.0608.279-.0938.4262-.097.1471-.0032.2934.0234.43.0782.1365.0548.2606.1367.3647.2408s.186.2281.2408.3647.0814.2829.0782.43c-.0033.1472-.0363.2921-.0971.4262-.0608.134-.148.2544-.2566.3538l-12.65 12.6499c-.2035.198-.4761.3087-.76.3087-.2838 0-.5565-.1107-.76-.3087-.1022-.1005-.1833-.2203-.2387-.3525s-.084-.2741-.084-.4174c0-.1434.0286-.2853.084-.4175s.1365-.252.2387-.3525z" fill="#47bee8"/><path d="m52.4918 20.73c.0994-.1085.2197-.1958.3537-.2566.1341-.0608.279-.0938.4262-.097.1471-.0033.2934.0233.43.0781.1366.0549.2606.1368.3647.2408.1041.1041.186.2282.2409.3648.0548.1366.0814.2828.0781.43-.0032.1471-.0362.2921-.097.4261-.0608.1341-.1481.2544-.2566.3538l-12.65 12.65c-.2035.1979-.4762.3087-.76.3087-.2839 0-.5566-.1108-.76-.3087-.1022-.1005-.1834-.2204-.2388-.3526s-.0839-.2741-.0839-.4174.0285-.2852.0839-.4174.1366-.2521.2388-.3526z" fill="#c30009"/><g fill="#fff"><path clip-rule="evenodd" d="m18.631 53.46-10.49004-10.49-7.430022 17.92z" fill-rule="evenodd"/><path d="m32.7381 1.00006c.2003-.205541.474-.323121.7609-.326872.2869-.00375.5636.106631.7691.30687.2056.200242.3232.473932.3269.760862.0038.28693-.1066.56359-.3069.76914l-14 14.00004-17.53996 42.3199 42.24996-17.4799 14-14c.0994-.1086.2198-.1959.3538-.2567.134-.0607.279-.0937.4261-.097.1472-.0032.2935.0234.4301.0782s.2606.1367.3647.2408.186.2281.2408.3647c.0549.1366.0815.2829.0782.43-.0032.1472-.0363.2921-.097.4262-.0608.134-.1481.2544-.2567.3538l-14.19 14.2c-.1219.1053-.2604.1898-.41.25l-44.88997 18.59h-.049992-.049987.049987-.160003-.079987-.180023-.079987-.059997-.080017c-.052344-.0197-.097594-.0545-.129975-.1001 0 0-.070006-.0799-.100006-.1299 0 0-.000018 0-.050018-.07v-.0501c.0046785-.0197.0046785-.0402 0-.0599v-.52-.08-.05-.08-.05-.05l18.590075-44.89c.0719-.1556.17-.2976.2899-.42z"/></g></svg>