<svg fill="none" height="68" viewBox="0 0 41 68" width="41" xmlns="http://www.w3.org/2000/svg"><g clip-rule="evenodd" fill-rule="evenodd"><path d="m13.2606 55.8699 8 2.21c.0306.0064.0594.0194.0844.0383.0249.0189.0454.0431.0597.0709.0144.0278.0224.0585.0234.0898.001.0312-.005.0624-.0176.091l-.1799.54c-.0185.0562-.0579.1032-.11.1311s-.113.0347-.17.0189l-8-2.21c-.0303-.0054-.0591-.0174-.0842-.0351-.0252-.0177-.0461-.0407-.0614-.0674-.0152-.0267-.0245-.0565-.027-.0871-.0025-.0307.0018-.0615.0126-.0904l.2099-.57c.0222-.0562.0634-.1029.1163-.1321s.1143-.039.1738-.0278z" fill="#aa9276"/><path d="m28.3011 16.82c.82-2.5 2.95-1.21 4.47.07 14.25 12 8.49 36.4899-7.53 42.3499l-3.78 2.7601-.59-6.12c1.85-4 1.64-2.08 3.42-6.07 6.24 2.65 8.89-5.5501 7.66-12.2101s-7.05-3.1899-8.13-5.8299c-.43-1.06 3.84-13 4.48-14.94z" fill="#93734c"/><path d="m24.2911 49.8001c.5886.0022 1.1668.155 1.6796.4438.5129.2888.9433.7041 1.2504 1.2062l8.2 13.55h-14.55v-11.9001c.021-.8894.3918-1.7347 1.0321-2.3525.6402-.6178 1.4983-.9582 2.3879-.9474z" fill="#7e6545"/><path d="m1.00171 64.49h36.50999c.2105 0 .4124.0829.5622.2308.1497.1478.2352.3488.2378.5592v1.34c0 .44-.41 1.34-.85 1.34h-36.45999c-.410001 0-.739991-.9-.739991-1.34v-1.34c.002593-.2087.086657-.4082.234253-.5558.147595-.1476.347009-.2316.555728-.2342z" fill="#fff"/><path d="m28.9985.770002 2.83.899958c.1019.02801.1968.07696.2787.14368.0818.06672.1489.14974.1969.24384.048.09409.0758.19715.0818.30261.0059.10546-.0102.21099-.0474.30987l-5.34 17.13004c-.0622.1909-.1957.3506-.3726.4456-.177.095-.3838.118-.5774.0644l-2.8499-.89c-.0985-.0327-.1894-.0846-.2675-.1528s-.1418-.1512-.1875-.2443c-.0456-.0931-.0722-.1944-.0782-.2979-.006-.1036.0086-.2073.0431-.305l5.4-17.17002c.0276-.09694.0742-.18745.137-.266233.0629-.078781.1408-.144236.2292-.192627.0884-.048392.1855-.078742.2858-.089234.1002-.010492.2015-.000959.298.028076z" fill="#252221"/><path d="m25.3102 8.85 5.12 1.62c.3463.1104.635.353.8035.675.1686.3221.2032.6976.0965 1.045l-7.92 25.22c-.1104.3463-.353.6351-.675.8036-.3221.1685-.6976.2031-1.045.0964l-5.12-1.62c-.3463-.1104-.635-.3529-.8036-.675-.1685-.322-.2031-.6976-.0964-1.045l7.92-25.21998c.1104-.34629.353-.63502.675-.80352.3221-.16851.6976-.20322 1.045-.0965z" fill="#007056"/><path d="m13.8511 54c2.72.51 4.93 2.06 4.93 3.45s-2.18 2.08-4.91 1.56-5.00001-2.05-5.00001-3.44 2.19001-2.08 4.94001-1.57z" fill="#aa9276"/><path d="m24.9288 32.5799 5.37-17.12 1-3.27c.1068-.3474.0721-.7229-.0964-1.045-.1685-.322-.4573-.5646-.8036-.675l-.49-.16-4.26-1.30998-.34-.09997c-.3474-.10673-.7229-.07208-1.0449.09643-.3221.16851-.5647.45724-.6751.80353l-7.9199 25.19999c-.0876.2757-.0844.5721.0092.8458.0937.2736.2727.51.5107.6742.1153.0816.2439.1425.3801.18l.41.13 4.2999 1.36.41.13c.3475.1068.723.0721 1.045-.0964.3221-.1685.5646-.4573.675-.8036z" fill="#7e6545"/><path d="m25.6194 33.6599c.6472.002 1.2803-.1881 1.8194-.5462s.9598-.8681 1.2088-1.4654c.249-.5974.3152-1.2552.1902-1.8902-.1251-.6349-.4357-1.2185-.8926-1.6768-.457-.4583-1.0396-.7707-1.6742-.8977s-1.2926-.0629-1.8907.1844c-.5981.2472-1.1093.6663-1.4691 1.2042-.3598.538-.5518 1.1706-.5518 1.8178 0 .8655.3431 1.6957.9542 2.3087s1.4403.9586 2.3058.9612z" fill="#000"/><path d="m25.6219 31.5999c.2369 0 .4685-.0701.6656-.2015.1972-.1314.351-.3183.4421-.537.0911-.2186.1154-.4594.0699-.6919s-.1588-.4464-.3256-.6146-.3797-.2832-.6118-.3307c-.2321-.0474-.4731-.025-.6925.0643-.2195.0892-.4076.2415-.5406.4375-.1331.196-.2051.4271-.2071.664-.0013.1584.0287.3155.0885.4622.0597.1468.1479.2802.2594.3927.1116.1125.2443.2018.3906.2627.1462.061.3031.0923.4615.0923z" fill="#fff"/><path d="m16.2087 51.6 17.69-3.47-12.6-6.48-17.57995 3.35z" fill="#000"/><path d="m33.8206 49.52.08-1.39-2.03.39-15.66 3.08-3.85-2.03-6.71998-3.55-1.92001-1.02-.07999 1.41 8.71998 4.6 3.75 1.98z" fill="#1a1a1a"/><path d="m18.5298 45.85c1.21 0 2.21.38 2.21.84s-1 .85-2.21.85-2.19-.38-2.19-.85 1-.84 2.19-.84z" fill="#fff"/><path d="m18.6599 46.59c.671-.0177 1.3374.1155 1.9499.39.0757-.0787.1217-.1812.13-.29 0-.46-1-.84-2.21-.84s-2.19.38-2.19.84c.0057.0719.0276.1417.0639.204.0364.0623.0863.1156.1461.156.6504-.3369 1.3784-.4955 2.1101-.46z" fill="#cfcfcf"/><path d="m24.5887 54.84c.5182 0 1.0248-.1537 1.4556-.4416.4309-.2879.7667-.697.965-1.1758.1983-.4787.2502-1.0055.1491-1.5138-.1011-.5082-.3506-.975-.717-1.3414-.3664-.3665-.8333-.616-1.3415-.7171s-1.035-.0492-1.5138.1491c-.4787.1983-.8879.5341-1.1758.965-.2879.4308-.4415.9374-.4415 1.4556.0052.6932.2829 1.3566.7731 1.8468s1.1536.768 1.8468.7732z" fill="#000"/><path d="m24.5903 53.4001c.239.0039.4737-.0636.6741-.1939s.3573-.3175.4506-.5376.1187-.463.0731-.6976c-.0457-.2346-.1604-.4503-.3294-.6193s-.3847-.2837-.6193-.3294c-.2346-.0456-.4775-.0202-.6976.0731s-.4073.2502-.5376.4506c-.1303.2003-.1978.435-.1939.674.0052.3114.1312.6086.3513.8288.2202.2202.5174.3461.8287.3513z" fill="#fff"/><path d="m30.6614.900022c1.26.439998 2.19 1.109998 2.06 1.439998s-1.23.25999-2.52-.20001-2.19-1.08-2.06-1.44 1.26-.259988 2.52.200012z" fill="#ccc"/></g><path d="m30.7405.700081c.5589.192076 1.0927.450549 1.59.769959.47.33.7.67001.62.95001-.1.28-.51.38005-1.08.36005-.5871-.07077-1.1641-.20837-1.72-.41004-.5759-.18679-1.1216-.45626-1.62-.79998-.46-.31-.7-.670004-.59-1.000004s.49-.390017 1.05-.330017c.5989.05898 1.1873.196874 1.75.410034zm1.34 1.149959c-.4659-.3042-.966-.55256-1.49-.73999-.5255-.184204-1.0682-.314882-1.62-.39001-.36 0-.6 0-.62 0s.15.240002.44.44c.4672.29686.9672.53851 1.49.72003.5262.20454 1.0781.33579 1.64.39002.34 0 .57-.00005.59-.05005 0-.06-.15-.23998-.43-.41998z" fill="#252221"/></svg>