<svg fill="none" height="59" viewBox="0 0 49 59" width="49" xmlns="http://www.w3.org/2000/svg"><path d="m46.8601 8.83999c2.46-4.26 1.16-6.35-1.17-7.69-2.33-1.339998-4.78-1.429986-7.24 2.84001-1.63 2.81-2 7.7-3.26 10.36-.84 1.77-3 3.15-3.89 4.69-1.78 3.08-.83 4.59.85 5.57s3.46 1 5.25-2.06c.88-1.53 1-4.1 2.11-5.7 1.68-2.42 5.73-5.2 7.35-8.01001z" fill="#16b6c6"/><path d="m32.7001 19.84c.88-1.53 3-2.92 3.88-4.68 1.26-2.66 1.64-7.56001 3.26-10.37001 2.21-3.829998 4.42-4.139995 6.53-3.2-.22-.15-.44-.3-.68-.44-2.32-1.339998-4.78-1.429986-7.24 2.84001-1.63 2.81-2 7.7-3.26 10.36-.84 1.77-3 3.15-3.89 4.69-1.78 3.08-.83 4.59.85 5.57.2342.1347.4782.2517.73.35-1.23-.96-1.71-2.47-.18-5.12z" fill="#fff" opacity=".3"/><path d="m19.5409 48.75c.6583-1.1488 1.6427-2.0765 2.8285-2.6655 1.1859-.5891 2.5198-.8129 3.833-.6433 1.3131.1695 2.5464.725 3.5437 1.5959.9973.871 1.7137 2.0183 2.0586 3.2967.3448 1.2784.3025 2.6303-.1215 3.8846-.424 1.2544-1.2107 2.3547-2.2605 3.1617-1.0497.8069-2.3153 1.2842-3.6365 1.3714s-2.6386-.2196-3.7853-.8815c-.7622-.4355-1.4309-1.0173-1.9674-1.7121-.5366-.6948-.9305-1.4888-1.1592-2.3363-.2286-.8476-.2874-1.732-.173-2.6024.1144-.8703.3998-1.7095.8396-2.4692z" fill="#16b6c6"/><path d="m20.1197 48.66c.4794-.8337 1.1954-1.5064 2.0574-1.933.8619-.4265 1.831-.5878 2.7846-.4633.9537.1245 1.8489.5291 2.5725 1.1627.7235.6335 1.2429 1.4675 1.4922 2.3963.2494.9288.2176 1.9107-.0914 2.8215-.3089.9107-.8811 1.7093-1.6442 2.2947-.763.5853-1.6826.9312-2.6423.9937s-1.9163-.1611-2.7488-.6426c-1.1141-.6443-1.9271-1.7041-2.2608-2.947s-.1608-2.5674.4808-3.683z" fill="#fff" opacity=".3"/><path d="m35.6084 55.35c-1-5.24 2.07-12.61 2.07-12.61l2.88-5c1.8989-3.29 2.4132-7.1996 1.4295-10.8688-.9836-3.6691-3.3845-6.7973-6.6745-8.6962-3.29-1.899-7.1996-2.4132-10.8688-1.4295-3.6691.9836-6.7972 3.3845-8.6962 6.6745l-2.88 5s-4.87 6.34-9.87 8.1c-2.729998 1-2.99999824.92-.52 2.37l15.68 9.05 15.66 9.06c2.51 1.45 2.33 1.2 1.79-1.65z" fill="#fdc00f"/><path d="m16.3584 31.1 3.46-6c1.2614-2.1862 2.992-4.0654 5.067-5.5023 2.075-1.437 4.4428-2.3959 6.933-2.8077-3.025-.8005-6.2291-.5853-9.1198.6125-2.8908 1.1979-5.308 3.3121-6.8802 6.0175l-2.88 5s-4.94 6.34-9.94 8.1c-2.729998 1-2.99999824.92-.52 2.37l2.81 1.63c5.71-2.46 11.07-9.42 11.07-9.42z" fill="#fff" opacity=".3"/><path d="m33.6083 41.06 3.46-6c1.2595-2.1833 2.021-4.6179 2.2302-7.1297s-.1392-5.0388-1.0202-7.4003c2.2212 2.2178 3.6485 5.1065 4.0607 8.2181s-.2137 6.2722-1.7807 8.9919l-2.88 5s-3.07 7.37-2.07 12.62c.54 2.84.72 3.09-1.79 1.64l-2.82-1.63c-.76-6.22 2.61-14.31 2.61-14.31z" fill="#000" opacity=".2"/></svg>