<svg fill="none" height="111" viewBox="0 0 166 111" width="166" xmlns="http://www.w3.org/2000/svg"><path d="m155.85 73.14v1h-31.71c0-.33 0-.67 0-1v-.59c-.168-10.7881-4.572-21.0773-12.261-28.6468-7.688-7.5695-18.0447-11.8121-28.834-11.8121-10.7894 0-21.146 4.2426-28.8345 11.8121s-12.0922 17.8587-12.2605 28.6468v.63 1h-31.6101c0-.33 0-.67 0-1-.0127-9.9184 2.0089-19.734 5.9399-28.84.48-1.1 1-2.19 1.5-3.26 2.2046-4.4701 4.862-8.7022 7.9302-12.63.71-.92 1.46-1.83 2.22-2.71 3.2974-3.8315 6.9838-7.3102 11-10.38l.3899-.29c.54-.41 1.0901-.82 1.6501-1.2l.8199-.58c3.8729-2.6889 8.0032-4.98682 12.33-6.86001 1.06-.47 2.14-.91 3.23-1.32 3.3022-1.24644 6.6914-2.24913 10.1402-3l.25-.06 1.6298-.33002 1.5501-.27997h.26l1.6899-.26001c3.3924-.478095 6.8141-.718712 10.24-.720029h.6101c1.17 0 2.34.000056 3.49.120056 3.1485.165842 6.2821.543303 9.3799 1.129943.69.12 1.3701.26004 2.0601.41004.48.1.9999.21001 1.43.33001.65.15 1.32.31999 2 .48999 3.023.80295 5.989 1.80514 8.88 3l.88.37c.77.34 1.54.67 2.29 1l.3.14001c3.483 1.6783 6.827 3.63109 10 5.83999 1 .65 1.91 1.35 2.84 2.07 3.669 2.8021 7.062 5.9499 10.13 9.4.78.87 1.53 1.76 2.27 2.67 2.895 3.5732 5.443 7.4138 7.61 11.47.57 1.06 1.11 2.15 1.62 3.25 4.587 9.6863 6.961 20.2723 6.95 30.99z" fill="#f49824"/><path d="m139.37 71.96v.55h-15.23c-.169-10.788-4.572-21.0773-12.261-28.6468-7.688-7.5695-18.0449-11.8121-28.8343-11.8121s-21.146 4.2426-28.8345 11.8121-12.0922 17.8588-12.2605 28.6468h-15.1801c0-.18 0-.36 0-.55-.0081-7.6687 1.5541-15.2579 4.5901-22.3.37-.86.7599-1.7 1.1699-2.53 1.7036-3.4556 3.7543-6.7291 6.1201-9.77.56-.71 1.13-1.4 1.73-2.09 2.5425-2.9597 5.3918-5.6413 8.5-8l.3-.23c.41-.32.84-.65 1.28-.93.2-.16.4099-.3.6199-.45 2.9977-2.0793 6.1932-3.8579 9.5401-5.31.83-.36 1.66-.7 2.5-1 2.6054-.9836 5.2792-1.7757 8-2.37l1.27-.26 1.3899-.25c.44-.07.87-.14 1.31-.19 2.6234-.3741 5.2703-.5612 7.9202-.56h.48c.91 0 1.7999 0 2.6899.09 2.4334.1337 4.8553.4276 7.25.88.53.09 1.0799.2 1.5999.32l1.1001.25 1.54.38c2.3323.6294 4.6203 1.4111 6.8503 2.34l.69.29c.61.26 1.2.52 1.78.8l.23.1c2.708 1.2989 5.31 2.8103 7.78 4.52.75.51 1.48 1 2.2 1.6 2.875 2.1575 5.534 4.5889 7.94 7.26.61.67 1.18 1.36 1.75 2.06 2.248 2.7662 4.224 5.7434 5.9 8.89.44.82.86 1.65 1.25 2.5 3.526 7.4942 5.347 15.6774 5.33 23.96z" fill="#f8ac22"/><path d="m10.9717 110.15c-2.81235-.003-5.50904-1.12-7.49953-3.106-1.99049-1.987-3.112672-4.682-3.120608-7.494.002651-2.8149 1.122668-5.5135 3.114018-7.503s4.69123-3.107 7.50612-3.107h144.2203c2.815 0 5.514 1.1175 7.506 3.107 1.991 1.9895 3.111 4.6881 3.114 7.503 0 2.818-1.119 5.52-3.11 7.513-1.992 1.993-4.693 3.114-7.51 3.117z" fill="#ea5624"/><path d="m165.812 63.93h-165.460438v36h165.460438z" fill="#f8ac22"/><g fill="#ea5624"><path d="m11.3689 74.98c.4642 0 .9094.1844 1.2376.5126.3282.3281.5124.7733.5124 1.2374v23.21h-3.48997v-23.21c-.00131-.2294.04279-.4567.12964-.669.08686-.2122.21476-.4052.37643-.5678.1617-.1627.354-.2917.5657-.3798.2118-.0881.4389-.1334.6682-.1334z"/><path d="m40.6289 74.98c.4641 0 .9094.1844 1.2376.5126.3281.3281.5124.7733.5124 1.2374v23.21h-3.5v-23.21c0-.4641.1843-.9093.5125-1.2374.3281-.3282.7734-.5126 1.2375-.5126z"/><path d="m26.2812 84.08c.4642 0 .9094.1843 1.2376.5125s.5124.7734.5124 1.2375v14.11h-3.5v-14.11c.0001-.4641.1846-.9093.5127-1.2375.3282-.3282.7732-.5125 1.2373-.5125z"/><path d="m70.4414 74.98c.4641 0 .9091.1844 1.2373.5126.3282.3281.5127.7733.5127 1.2374v23.21h-3.5v-23.21c0-.4641.1843-.9093.5125-1.2374.3281-.3282.7734-.5126 1.2375-.5126z"/><path d="m56.1384 84.08c.4642 0 .9094.1843 1.2376.5125s.5124.7734.5124 1.2375v14.11h-3.49v-14.11c0-.4624.183-.906.5091-1.2339.326-.3279.7685-.5134 1.2309-.5161z"/><path d="m97.6406 74.98c.4642 0 .9094.1844 1.2376.5126.3282.3281.5124.7733.5124 1.2374v23.21h-3.5v-23.21c0-.4641.1843-.9093.5125-1.2374.3282-.3282.7734-.5126 1.2375-.5126z"/><path d="m83.2908 84.08c.2306-.0013.4593.043.6728.1304.2135.0873.4075.216.5711.3786.1635.1627.2935.356.382.569.0886.213.1341.4414.1341.672v14.11h-3.5v-14.11c0-.4624.183-.906.509-1.2339s.7686-.5134 1.231-.5161z"/><path d="m127.451 74.98c.464 0 .909.1844 1.237.5126.328.3281.513.7733.513 1.2374v23.21h-3.49v-23.21c-.001-.2294.043-.4567.129-.669.087-.2122.215-.4052.377-.5678.162-.1627.354-.2917.566-.3798s.439-.1334.668-.1334z"/><path d="m113.138 84.08c.465 0 .91.1843 1.238.5125s.512.7734.512 1.2375v14.11h-3.49v-14.11c0-.4624.183-.906.509-1.2339s.769-.5134 1.231-.5161z"/><path d="m154.791 74.98c.23 0 .457.0454.668.1334.212.0881.405.2172.566.3798.162.1626.29.3556.377.5679.087.2122.131.4396.129.6689v23.21h-3.5v-23.21c0-.2306.046-.459.135-.672.088-.213.218-.4063.381-.569.164-.1626.358-.2913.572-.3787.213-.0873.442-.1316.672-.1303z"/><path d="m140.43 84.08c.464 0 .909.1843 1.237.5125s.513.7734.513 1.2375v14.11h-3.5v-14.11c.002-.4633.187-.9069.515-1.2345.328-.3277.771-.5129 1.235-.5155z"/><path d="m148.922 42.14-10.41 2c-.23.0559-.468.0647-.701.026-.233-.0388-.456-.1242-.655-.2513-.199-.127-.37-.2931-.503-.4881-.134-.195-.226-.415-.272-.6466-.046-.2317-.044-.4702.004-.7013.049-.2311.144-.4499.28-.6433.135-.1934.308-.3574.509-.482.2-.1247.424-.2075.658-.2434l9.47-1.86c.57 1.1 1.11 2.19 1.62 3.29z"/><path d="m127.291 15.35-2.65 5c-.106.2029-.251.3828-.427.5296-.176.1467-.38.2573-.598.3256-.219.0683-.449.0928-.677.0721-.228-.0206-.45-.086-.653-.1923-.203-.1064-.383-.2517-.529-.4276-.147-.1759-.258-.379-.326-.5977s-.093-.4487-.072-.6768c.02-.2282.086-.45.192-.6529l2.9-5.47z"/><path d="m139.689 27.42-6.17 4.59c-.373.2785-.841.3975-1.301.3309-.461-.0665-.876-.3133-1.154-.6859-.279-.3727-.398-.8407-.331-1.3011.066-.4604.313-.8754.686-1.1539l6-4.45z"/><path d="m31.1399 45.44c-.0431.2257-.1305.4406-.2571.6323-.1266.1918-.2899.3565-.4805.4848-.1905.1283-.4046.2176-.6298.2627-.2253.0451-.4574.0452-.6827.0002l-12.8398-2.52c.48-1.1 1-2.19 1.5-3.26l12 2.35c.4551.0896.8562.3552 1.1165.7391.2602.3839.3586.855.2734 1.3109z"/><path d="m46.3003 23.08c-.1769.1468-.3809.257-.6006.3244s-.4507.0906-.6794.0683c-.2288-.0224-.4506-.0898-.6531-.1983-.2025-.1086-.3817-.2563-.5269-.4344l-5.52-6.71 1-1.1c.54-.41 1.0902-.82 1.6502-1.2l5.5998 6.79c.1451.1787.2534.3844.3184.6052s.0854.4524.0603.6812-.0955.4503-.2068.6518c-.1113.2014-.2615.3788-.4419.5218z"/><path d="m36.5312 34.29c-.1362.1843-.3073.3398-.5039.4577-.1965.1179-.4143.1958-.6411.2293-.2267.0334-.4579.0217-.6801-.0344s-.4311-.1555-.6148-.2926l-8.3999-6.24c.71-.92 1.46-1.83 2.22-2.71l8.26 6.14c.1846.1371.3405.3093.4585.5067s.1958.4161.2292.6437c.0335.2275.0219.4594-.0344.6824-.0562.223-.1561.4327-.2935.6172z"/><path d="m102.019 2.85999-2.8795 13.11001c-.1258.4269-.4087.7902-.7917 1.0169s-.8377.2999-1.2725.2049c-.4347-.0951-.8173-.3513-1.0708-.7172-.2534-.3658-.3587-.8142-.2949-1.2546l2.8999-13.18002c.48.1.9999.21002 1.4295.33002.66.18 1.33.31999 1.98.48999z"/><path d="m114.929 7.98999-1.151 4.10001c-.061.2206-.164.4271-.305.6075-.141.1805-.316.3314-.515.4442s-.419.1853-.646.2133c-.227.0281-.458.0111-.678-.05-.221-.0611-.427-.165-.608-.3059-.18-.1408-.331-.3158-.444-.515s-.185-.4186-.213-.6458-.011-.4577.05-.6783l1.359-4.89999c.77.34 1.541.67 2.291 1z"/><path d="m72.251 16.61c-.4561.0947-.9312.0047-1.3211-.2502s-.6629-.654-.759-1.1098l-2.71-13.19.25-.06 1.6299-.33002 1.5501-.27997 2.7099 13.14999c.0921.4532.0022.9244-.2505 1.3118-.2526.3874-.6475.6597-1.0993.7582z"/><path d="m87.1384.549988v11.200012c.0013.2285-.0424.455-.1286.6666-.0863.2116-.2132.4042-.3738.5667-.1607.1625-.3519.2918-.5625.3804-.2106.0887-.4366.135-.6651.1363-.465 0-.9111-.1841-1.2409-.512s-.5164-.773-.5191-1.238v-11.369995c1.21.01 2.38.049983 3.49.169983z"/><path d="m58.2886 12.99c-.4364.154-.9159.1289-1.3338-.0697-.4179-.1987-.7402-.5547-.8962-.9903l-2-5.53999c1.06-.47 2.14-.91 3.23-1.32l2 5.67999c.1575.4301.1413.9047-.0454 1.3229-.1868.4183-.5292.7473-.9546.9171z"/></g></svg>