<svg fill="none" height="166" viewBox="0 0 152 166" width="152" xmlns="http://www.w3.org/2000/svg"><g stroke="#004b57" stroke-linecap="round" stroke-linejoin="round" stroke-width="6.49"><path d="m50.9312 135.23-14.3101-24.79 14.3101-24.79h28.63l14.3099 24.79-14.3099 24.79z"/><path d="m50.9312 85.65-14.3101-24.78 14.3101-24.79h28.63l14.3099 24.79-14.3099 24.78z"/><path d="m94.1382 110.44-14.3101-24.79 14.3101-24.78h28.6198l14.32 24.78-14.32 24.79z"/><path d="m50.9291 135.23-8.14 23.89"/><path d="m93.8711 110.44h29.1599"/></g><path d="m49.4084 159.12c.002 1.312-.3852 2.594-1.1125 3.686s-1.7621 1.943-2.9734 2.446c-1.2113.504-2.5447.637-3.8314.382-1.2868-.255-2.469-.886-3.3972-1.812-.9283-.927-1.5607-2.109-1.8173-3.395s-.126-2.62.3755-3.832 1.3514-2.248 2.4419-2.977 2.3727-1.118 3.6844-1.118c1.7567 0 3.4415.697 4.6846 1.938s1.9428 2.925 1.9454 4.682z" fill="#e50041"/><path d="m36.621 110.44h-29.16006" stroke="#004b57" stroke-linecap="round" stroke-linejoin="round" stroke-width="6.49"/><path d="m.828125 110.45c0 1.311.388915 2.593 1.117435 3.683.72851 1.091 1.76399 1.94 2.97546 2.442s2.54447.633 3.83057.378c1.28611-.256 2.46751-.888 3.39481-1.815.9272-.927 1.5586-2.108 1.8144-3.395.2558-1.286.1245-2.619-.3773-3.83-.5018-1.212-1.3516-2.247-2.4419-2.976-1.0903-.728-2.37218-1.117-3.68347-1.117-.87066 0-1.73272.171-2.53711.505-.80439.333-1.53535.821-2.151 1.437s-1.10395 1.346-1.43713 2.151c-.333193.804-.504765 1.666-.504765 2.537z" fill="#e50041"/><path d="m122.328 110.81 22.86 18.1" stroke="#004b57" stroke-linecap="round" stroke-linejoin="round" stroke-width="6.49"/><path d="m150.38 133.03c-.814 1.028-1.915 1.792-3.163 2.195s-2.588.426-3.849.068c-1.262-.359-2.389-1.084-3.238-2.083-.85-.999-1.384-2.228-1.535-3.531-.151-1.302.087-2.621.686-3.788.598-1.167 1.529-2.13 2.675-2.768s2.455-.922 3.762-.816c1.307.107 2.554.598 3.582 1.413.683.54 1.252 1.209 1.676 1.969.424.761.694 1.597.795 2.462.1.865.029 1.741-.21 2.578s-.64 1.619-1.181 2.301z" fill="#e50041"/><path d="m79.8203 36.08v-29.16002" stroke="#004b57" stroke-linecap="round" stroke-linejoin="round" stroke-width="6.49"/><path d="m79.8215.289978c-1.3113 0-2.5932.388857-3.6835 1.117372-1.0903.72851-1.9401 1.76399-2.4419 2.97546-.5018 1.21148-.6331 2.54454-.3773 3.83063s.8872 2.46746 1.8144 3.39466c.9273.9272 2.1087 1.5587 3.3948 1.8145s2.6191.1245 3.8306-.3773 2.2469-1.3516 2.9755-2.4419c.7285-1.0903 1.1174-2.37213 1.1174-3.68342 0-1.75838-.6985-3.44474-1.9419-4.68811-1.2434-1.243364-2.9297-1.941892-4.6881-1.941892z" fill="#e50041"/></svg>