<svg fill="none" height="52" viewBox="0 0 67 52" width="67" xmlns="http://www.w3.org/2000/svg"><g clip-rule="evenodd" fill-rule="evenodd"><path d="m23.9998 20.4899c-1.73-4.29-2-7.74-.37-8.82 2.5-1.69999 8.54 2.91 13.5 10.26s6.95 14.6801 4.43 16.3501c-1.62 1.11-4.71-.4301-8-3.6501-6.7272 2.5375-13.2132 5.6734-19.38 9.37 1.44 3.34 1.7201 6.1.4901 6.92-1.8 1.21-6.15006-2.08-9.70006-7.38-3.55-5.3-4.9999878-10.57-3.20999-11.78 1.23-.84 3.68.47 6.22 3.06 5.76045-4.292 11.11605-9.102 16.00005-14.37z" fill="#c30009"/><path d="m66.4492.669922-33 16.480078c1.3397 1.5081 2.5758 3.105 3.7 4.7799.9845 1.4649 1.886 2.984 2.7 4.55z" fill="#00568f"/></g></svg>