<svg fill="none" height="166" viewBox="0 0 104 166" width="104" xmlns="http://www.w3.org/2000/svg"><path d="m.078125 115.08v50.38l7.630005-5.35 7.62997 5.35v-43.18-7.2z" fill="#f8ac22"/><path d="m103.041 136.08c-.003 2.475-.988 4.848-2.739 6.598-1.7514 1.749-4.1255 2.732-6.6009 2.732-2.4745 0-4.8476-.983-6.5973-2.733-1.7497-1.749-2.7327-4.123-2.7327-6.597v-126.74c0-2.47447.983-4.84759 2.7327-6.59731 1.7497-1.749713 4.1228-2.7326802 6.5973-2.7326802 2.4754-.0000015 4.8495.9826582 6.6009 2.7320902 1.751 1.74942 2.736 4.12251 2.739 6.5979z" fill="#8e2129"/><path d="m94.0681.0100098h-93.989975v145.3999902h93.989975z" fill="#e73147"/><path d="m84.3805 29.05h-73.4v38.72h73.4z" fill="#8e2129"/><path d="m84.3789 29.05h-71.5v36.99h71.5z" fill="#fff"/></svg>