<svg fill="none" height="166" viewBox="0 0 167 166" width="167" xmlns="http://www.w3.org/2000/svg"><path d="m150.269 139.13 16.03 26.62-26.62-16.02-44.8196-44.83 10.5896-10.59z" fill="#a18a8d"/><path d="m.839844 62.22 61.920056-61.930022 2.1999 13.070022-50.38 50.39z" fill="#8e2129"/><path d="m144.03 60.0099-85.1998 85.2001c17.06-19.75 4.37-33.2 3.53-34.05l-48.2899-48.2901 49.4099-49.3999 49.7898 49.7899c5.19 4.0601 16.25 9.29 30.76-3.25z" fill="#8e2129"/><path d="m144.03 60.0099-80.9398 81.0001c17-19.75 4.36-33.2 3.52-34.05l-48.2899-48.29 45.1599-45.15 49.7898 49.79c5.19 4.01 16.25 9.2399 30.76-3.3001z" fill="#e73147"/><path d="m147.462 60.0099c.225.2241.404.4905.526.784s.185.6082.185.9261-.063.6326-.185.9261c-.122.2934-.301.5599-.526.7839l-83.5005 83.49c-.2238.224-.4895.402-.7821.523-.2925.121-.6061.184-.9228.184s-.6303-.063-.9229-.184c-.2925-.121-.5582-.299-.7821-.523-.2255-.224-.4045-.49-.5267-.784-.1222-.293-.1851-.608-.1851-.926s.0629-.633.1851-.926c.1222-.294.3012-.56.5267-.784l83.4904-83.4901c.224-.2255.49-.4045.783-.5267.294-.1221.609-.1849.927-.1849.317 0 .632.0628.926.1849.293.1222.56.3012.784.5267z" fill="#8e2129"/></svg>