<svg fill="none" height="69" viewBox="0 0 62 69" width="62" xmlns="http://www.w3.org/2000/svg"><g clip-rule="evenodd" fill-rule="evenodd"><path d="m25.0696 12.69s.44-5.36996-3.29-9.09996c-1.2209-1.12915-2.6542-2.00419-4.2165-2.57416-1.5623-.569976-3.2223-.823509-4.8835-.745852-.3481.036936-.6729.192082-.9204.439576-.2475.247493-.4027.572356-.4396.920406 0 0-.47 5.37999 3.29 9.10999 1.2223 1.1264 2.6561 1.999 4.2182 2.5672 1.562.5682 3.2214.8207 4.8818.7428.346-.0421.668-.1989.9145-.4454s.4033-.5685.4455-.9146z" fill="#b6d72b"/><path d="m29.3389 14.1c.64-.87 1.36-1.77 2.11-2.65 1.7125-1.78578 3.5688-3.428 5.55-4.91004.124-.06317.2259-.16233.2925-.28448.0666-.12216.0948-.26161.0807-.40003s-.0696-.26934-.1594-.37561-.2097-.18289-.3438-.21985l-4.44-2.08002c-.3227-.13698-.6814-.16423-1.0211-.07751-.3396.08672-.6414.28259-.8589.5575 0 0-3.29 4.71002-7.15 14.71004-11.93-5.4-23.269994 2.16-23.269994 15.3 0 13.37 9.999994 33.5 23.759994 28.69v4.09c-.0092.5315.1638 1.0502.49 1.47.3828.4893.9438.8072 1.5604.8841.6165.0768 1.2384-.0936 1.7296-.4741 2.83-2.21 8.33-4 14.09-5 6.66-1.29 13.48-1.62 16.74-.8.2096.0506.4243.0774.64.08.3081-.0039.6124-.069.895-.1917.2827-.1228.538-.3006.7512-.5231.2132-.2224.3799-.4852.4905-.7728.1105-.2877.1626-.5944.1533-.9024-.18-7.33-.2-14.35-.23-21.39s-.08-14.09-.26-21.37c.0062-.6085-.2219-1.1961-.637-1.641-.4152-.4449-.9855-.7131-1.593-.749-2.8061-.0394-5.6102.1681-8.38.62l-.11-5.1c.0112-.60989-.2152-1.20023-.6314-1.64623-.4161-.446-.9894-.71273-1.5986-.74378-3.8802-.16222-7.7494.52017-11.34 2.00001-2.5744 1.0032-5.0186 2.3126-7.28 3.9zm.1 24c.08-3.65.18-7.33.26-11.08 2.55-1.8 6.81-3.42 11.34-4.66 1.54-.41 3.08-.8 4.63-1.13 0 3.6.05 7.15.07 10.7 0 6.12.06 12.24.18 18.51-3.1652-.4719-6.3874-.4043-9.53.2-2.541.4948-4.9945 1.3642-7.28 2.58.08-5.1.2-10.11.33-15.12zm21-6.2c0-3.83 0-7.66-.1-11.54 2.23-.34 4.24-.57 5.91-.65.13 6.51.18 12.81.21 19.08s.05 12.34.18 18.67c-5.2919-.261-10.5957.1354-15.79 1.18-4.2184.7451-8.3337 1.9871-12.26 3.7l.07-3.29c2.5579-1.8957 5.5117-3.188 8.64-3.78 3.4617-.6686 7.0292-.5524 10.44.34.2097.049.4246.0725.64.07.3099-.0038.6158-.0696.8998-.1936.284-.1239.5403-.3035.7538-.5282.2134-.2246.3797-.4897.489-.7797s.1594-.5989.1474-.9085c-.18-7.31-.2-14.35-.23-21.37zm-4.83-15.45c-1.93.38-3.89.85-5.81 1.39-3.4505.8898-6.8012 2.1296-10 3.7v-1.9c2.5647-2.1252 5.4419-3.842 8.53-5.09 2.3097-.9305 4.7477-1.5038 7.23-1.7z" fill="#e74b3c"/><g fill="#fff"><path d="m38.3112 14.57c-3.0881 1.248-5.9652 2.9648-8.53 5.09v1.9c3.1988-1.5704 6.5495-2.8102 10-3.7 1.9201-.54 3.88-1 5.81-1.39l-.08-3.6c-2.4823.1963-4.9203.7695-7.23 1.7z"/><path d="m41.0003 22.38c-4.53 1.24-8.79 2.86-11.34 4.66-.08 3.75-.18 7.43-.26 11.08-.13 5-.25 10-.33 15.12 2.2855-1.2157 4.739-2.0853 7.28-2.58 3.1426-.6043 6.3648-.6719 9.53-.2-.12-6.27-.15-12.39-.18-18.51 0-3.55-.05-7.1-.07-10.7-1.55.33-3.09.72-4.63 1.13z"/><path d="m50.3516 20.38c.05 3.88.07 7.71.1 11.54 0 7 .0499 14.06.2299 21.37.0121.3096-.038.6186-.1473.9085-.1093.29-.2756.5551-.4891.7798-.2134.2246-.4697.4042-.7537.5282-.284.1239-.59.1897-.8998.1935-.2154.0026-.4303-.0209-.64-.07-3.4109-.8924-6.9784-1.0086-10.44-.34-3.1283.592-6.0821 1.8843-8.64 3.78l-.07 3.29c3.9262-1.713 8.0416-2.955 12.26-3.7 5.1943-1.0446 10.4981-1.441 15.79-1.18-.13-6.33-.16-12.5-.18-18.67s-.08-12.57-.21-19.08c-1.67.08-3.68.31-5.91.65z"/></g></g></svg>