<svg fill="none" height="166" viewBox="0 0 141 166" width="141" xmlns="http://www.w3.org/2000/svg"><path d="m51.5085 133.25 79.3495-79.36c2.928-2.9285 5.251-6.405 6.835-10.2309 1.584-3.826 2.399-7.9265 2.399-12.0675-.001-4.1411-.817-8.2416-2.402-12.0672s-3.908-7.3015-6.836-10.22936c-2.929-2.92782-6.405-5.25019-10.231-6.83447-3.826-1.584273-7.927-2.3993886-12.068-2.3989243s-8.242.8164793-12.0672 2.4016143c-3.8256 1.58513-7.3014 3.90831-10.2293 6.83679l-79.36006 79.33995z" fill="#e73147"/><path d="m97.9707 72.3501-53.6802 53.6799-30.1499-30.1699 53.6699-53.6901c4.0022-4.0021 9.4303-6.2504 15.0901-6.2504 5.6599 0 11.088 2.2483 15.0901 6.2504 4.0023 4.0022 6.2503 9.4302 6.2503 15.09 0 5.6599-2.248 11.088-6.2503 15.0901z" fill="#004853"/><path d="m103.71 61.88-103.6396875 103.67v-50.87l78.1999875-78.1999c3.5013-.776 7.142-.6568 10.5849.3469 3.443 1.0037 6.5772 2.8593 9.1131 5.3951 2.5357 2.5359 4.3917 5.6702 5.3947 9.1132 1.004 3.443 1.123 7.0834.347 10.5847z" fill="#c6c6c6"/><path d="m9.05859 156.55-8.9999962 9v-50.87l78.2002062-78.1999c3.6434-.8091 7.4348-.654 11 .4499l-80.17018 80.16z" fill="#a8a8a7"/><g fill="#e73147"><path d="m51.5105 133.24c-.5736.572-1.3504.893-2.1602.893-.8097 0-1.5863-.321-2.1599-.893l-40.28-40.2799c-.29035-.2799-.52121-.6155-.67895-.9866-.15775-.3711-.23926-.7702-.23926-1.1735 0-.4032.08151-.8023.23926-1.1734.15774-.3711.3886-.7067.67895-.9866.2797-.2888.61466-.5183.98486-.6752.3702-.1568.76812-.2376 1.17017-.2376s.79997.0808 1.17017.2376c.3702.1569.7052.3864.9849.6752l40.29 40.29c.5661.574.8833 1.349.8833 2.155 0 .807-.3172 1.581-.8833 2.155z"/><path d="m72.2617 110.06c-1.3022 0-2.5511-.517-3.4719-1.438s-1.4382-2.17-1.4382-3.472v-74.52c0-1.3022.5174-2.551 1.4382-3.4718s2.1697-1.4381 3.4719-1.4381c.6457 0 1.2848.1273 1.8811.3746.5964.2474 1.1382.61 1.5943 1.067.456.457.8175.9995 1.0637 1.5964.2461.5968.3721 1.2363.3708 1.8819v74.51c0 .645-.127 1.283-.3737 1.879-.2468.596-.6086 1.137-1.0645 1.593s-.9971.818-1.5928 1.064c-.5957.247-1.2341.374-1.8789.374z"/><path d="m50.9414 132.08c-1.3022 0-2.5511-.517-3.4719-1.438s-1.4383-2.17-1.4383-3.472v-74.52c0-1.3022.5175-2.5511 1.4383-3.4719s2.1697-1.4381 3.4719-1.4381 2.5511.5173 3.4719 1.4381 1.438 2.1697 1.438 3.4719v74.52c0 1.302-.5172 2.551-1.438 3.472s-2.1697 1.438-3.4719 1.438z"/></g></svg>