<svg fill="none" height="47" viewBox="0 0 47 47" width="47" xmlns="http://www.w3.org/2000/svg"><path d="m33.271 40.54h-28.31006v.93h28.31006z" fill="#c7c3c2"/><path d="m33.271 41.77h-28.31006v.95h28.31006z" fill="#c7c3c2"/><path d="m33.271 43.03h-28.31006v.93h28.31006z" fill="#c7c3c2"/><path d="m33.271 39.28h-28.31006v.93h28.31006z" fill="#c7c3c2"/><g clip-rule="evenodd" fill-rule="evenodd"><path d="m35.7199 40.3799c-.3007 0-.5891.1188-.8026.3304s-.3348.499-.3374.7996v3.14h-28.58002c-.82899.0004-1.62559-.3219-2.22104-.8986-.59544-.5768-.94297-1.3628-.96896-2.1914v-.31c.05316-.811.41198-1.5716 1.00403-2.1284s1.37325-.8682 2.18597-.8716h29.41002c.0863.0114.1737.0114.26 0 .1492 0 .297-.0295.4347-.0869.1378-.0574.2628-.1416.3679-.2476.105-.106.188-.2317.2442-.37.0562-.1382.0845-.2862.0832-.4355v-18.51l-5.8 8.77-7.73 5.68 1.56-9.23 12-17.93996v-1c.0027-.14914-.0247-.29731-.0805-.43563-.0558-.13833-.139-.26397-.2445-.36945-.1054-.10548-.2311-.18859-.3694-.24442-.1383-.05582-.2865-.08321-.4356-.0805h-29.70002c-1.45338 0-2.84724.57734-3.87494 1.60504s-1.605068 2.42158-1.605068 3.87497v32.17995c-.005477.4893.055092.977.180023 1.45.315535 1.103.966295 2.0806 1.862155 2.7973s1.99247 1.137 3.13785 1.2027h.17999 29.85001c.2997 0 .5871-.119.799-.3309.212-.212.331-.4994.331-.7991v-4.3c.0013-.1487-.027-.2963-.0833-.434-.0564-.1377-.1395-.2628-.2447-.368s-.2303-.1883-.368-.2447c-.1377-.0563-.2853-.0846-.434-.0833z" fill="#fdc81a"/><path d="m4.9394 38.4v-34.53c-1.24062.25323-2.35586.9268-3.15747 1.90695-.801612.98015-1.240482 2.20685-1.242527 3.47305v32.18c-.005477.4892.055062.977.179993 1.45.274831.9794.813974 1.8641 1.558354 2.5573.74437.6933 1.66524 1.1682 2.66165 1.3727v-2.34c-.59895-.2237-1.11861-.6191-1.49393-1.1367-.37531-.5177-.58962-1.1345-.61609-1.7733v-.31c.03791-.6284.25751-1.2322.63208-1.7381.37457-.506.888-.8922 1.47794-1.1119z" fill="#f49c17"/><path d="m34.5791 44.65h-28.58005c-.41083-.0163-.81768-.0869-1.20999-.21v2.34c.29098.058.58469.1014.88001.13h.17999 29.85004c.2997 0 .5871-.119.799-.3309.2119-.212.331-.4994.331-.7991v-4.3c.0013-.1487-.027-.2963-.0833-.434-.0564-.1377-.1395-.2628-.2447-.368s-.2303-.1884-.368-.2447-.2853-.0846-.434-.0833c-.3007 0-.5891.1187-.8026.3304-.2136.2116-.3348.499-.3374.7996z" fill="#fdc81a"/><path d="m42.25.70993-16 23.82997 1.05.62 16-23.82997c.0708-.10297.1217-.21829.15-.340001l-1-.559997c-.1007.085657-.1944.179293-.28.279998z" fill="#4b808c"/><path d="m45.789 2.71002-15.9999 23.85998.7899.44 15.15-22.59997c.2375-.27101.3845-.60943.4203-.96798.0359-.35855-.0411-.71934-.2203-1.03202 0 .07-.07.15-.13.25z" fill="#1b5f7b"/><path d="m26.2781 24.5401 16.0001-23.830064c.0856-.100706.1792-.194341.2799-.279999-.3723-.065667-.7559-.0144-1.0979.146759s-.6256.424294-.812.753234l-15.3201 22.66997.8701.49z" fill="#1b5f7b"/><path d="m44.6914 2.06998-16 23.86002 1.1.64 16-23.86004c0-.07 0-.18.1-.25l-1-.61999-.23.23001z" fill="#1b5f7b"/><path d="m28.6991 26 16-23.85995c.0562-.09695.127-.18466.2099-.26001l-1.44-.85001c-.0356.12464-.0969.24045-.18.34l-15.9999 23.82997z" fill="#4b808c"/><path d="m24.5316 29.14 2.37-3.49-1.93-1.11-.62 4.5z" fill="#efbb86"/><path d="m28.6413 26.65-2.3601 3.5.1001.05 3.81-2.68z" fill="#efbb86"/><path d="m26.9012 25.65-2.37 3.49 1.75 1.01 2.3601-3.5z" fill="#f2c89d"/><path d="m25.6394 29.79-1.03 1.67 1.77-1.26-.1-.05z" fill="#1a1a1a"/><path d="m24.6087 31.46 1.0501-1.67-.5101-.28-1.1099 1.69-.07.7z" fill="#2b2b2b"/><path d="m24.3008 29.48.23-.34-.18-.1z" fill="#1a1a1a"/><path d="m24.0391 31.23 1.1099-1.72-.6199-.37-.2301.34z" fill="#1a1a1a"/><path d="m7.37891 3.77002v14.44998l5.34999-4.24 5.14 4.24v-14.44998h-2.49z" fill="#f49c17"/></g></svg>