<svg fill="none" height="166" viewBox="0 0 118 166" width="118" xmlns="http://www.w3.org/2000/svg"><path d="m117.371 155.37c0 2.815-1.118 5.515-3.107 7.506-1.99 1.991-4.689 3.111-7.503 3.114-2.817 0-5.518-1.119-7.5098-3.111-1.9917-1.991-3.1106-4.692-3.1106-7.509v-144.22c.0013-1.39336.2771-2.77278.8115-4.05954s1.3171-2.45564 2.3032-3.43994c.9857-.9843 2.1567-1.76471 3.4447-2.29669 1.287-.531993 2.667-.805151 4.061-.803837 1.394-.000001 2.774.274766 4.062.808597 1.288.53382 2.458 1.31626 3.444 2.30255.985.98629 1.766 2.15707 2.299 3.44549.532 1.28842.806 2.66919.805 4.06337z" fill="#005966"/><path d="m107.179.530029h-106.96025v165.459971h106.96025z" fill="#003b45"/><path d="m104.719 20.25c0 3.1322-1.245 6.1361-3.459 8.3509-2.2151 2.2148-5.219 3.4591-8.3512 3.4591h-92.69005v-23.62h92.69005c1.5509 0 3.0866.30548 4.5195.89899 1.4328.59351 2.7347 1.46341 3.8317 2.56001 1.096 1.0967 1.966 2.3986 2.56 3.8315.593 1.4328.899 2.9686.899 4.5195z" fill="#fff"/><g fill="#005966"><path d="m97.9588 14.04c-.0307.4097-.2228.7905-.5341 1.0586s-.7162.4017-1.126.3714h-96.07995v-2.84h96.07995c.2016-.0164.4045.007.597.069s.371.1612.5251.2922c.1542.1309.281.291.3733.4709.0923.18.1483.3763.1647.5779z"/><path d="m97.9588 19.87c-.0139.2033-.0681.4019-.1593.5841-.0912.1823-.2176.3446-.372.4776-.1545.133-.3337.2341-.5274.2973-.1938.0632-.3982.0874-.6014.071h-96.07995v-2.84h96.07995c.2016-.0164.4045.007.597.069s.371.1613.5251.2922c.1542.1309.281.2909.3733.4709.0923.1799.1483.3763.1647.5779z"/><path d="m97.9588 26.46c-.0332.4079-.2264.7861-.5374 1.0522-.311.266-.7146.3982-1.1227.3678h-96.07995v-2.85h96.07995c.4098-.0303.8147.1033 1.126.3714.3113.2682.5034.6489.5341 1.0586z"/></g><path d="m69.3906 32.06v66.79l13.62-7.08 11.58 6v-65.71z" fill="#e73147"/></svg>