<svg fill="none" height="54" viewBox="0 0 48 54" width="48" xmlns="http://www.w3.org/2000/svg"><path d="m45.4285 37.28-25-25c-.4553-.4669-.9996-.8375-1.6009-1.0901-.6012-.2525-1.247-.3817-1.8991-.3799-.8324.0247-1.6516.2142-2.4102.5575-.7587.3433-1.4418.8336-2.0098 1.4425-2.37 2.36-2.52001 5.65-.36 7.79l18.62 18.61c.1522.1798.3409.3252.5536.4264.2128.1013.4446.156.6801.1608.2355.0047.4694-.0407.686-.1334.2166-.0926.411-.2302.5703-.4038.1671-.1545.2971-.3449.3804-.5567.0832-.2119.1174-.4398.1001-.6668s-.0857-.4471-.2001-.6439-.2718-.3652-.4604-.4926l-18.68-18.7c-.257-.2564-.433-.5827-.5059-.9383s-.0395-.7249.0959-1.0617c.1829-.4577.4627-.8705.82-1.21.5533-.5575 1.2797-.9101 2.06-1 .2258-.0023.4498.0417.6579.1294.2082.0878.3961.2173.5521.3806l25 25c.44.62 2.42 4-1.82 8.23-.604.708-1.3432 1.2885-2.1742 1.7075-.8311.4189-1.7374.668-2.6658.7325-1.0636-.0076-2.0905-.39-2.9-1.08l-25.84001-25.86c-.34-.34-8.099991-8.56-.53999-16.12001.88347-.96292 1.95534-1.73403 3.1492-2.26557 1.1938-.53154 2.4841-.81216 3.7908-.82443 4.53 0 8.18 3.24 8.87 3.91l18.13 18.10001c.1471.1496.3232.2676.5175.3467s.4028.1176.6125.1133c.2142.0044.4272-.0341.6264-.113.1992-.079.3806-.197.5336-.347.1521-.1514.2728-.3314.3551-.5296.0824-.1982.1247-.4108.1247-.6254s-.0423-.4272-.1247-.6254c-.0823-.1982-.203-.3782-.3551-.5296l-18.13-18.13c-2.34-2.24-6.69-4.82999-11.29-4.82999-1.7129.016534-3.4048.37942-4.97383 1.06683-1.56903.68742-2.98277 1.68516-4.15616 2.93317-7.81 7.81999-3.06001 16.99999.53999 20.72999l25.9 25.91c1.4452 1.2819 3.3082 1.993 5.24 2 2.44 0 4.81-1.13 7.07-3.4 5.4-5.39 3.65-10.69 1.85-12.85z" fill="#808080"/></svg>