<svg fill="none" height="47" viewBox="0 0 47 47" width="47" xmlns="http://www.w3.org/2000/svg"><g clip-rule="evenodd" fill="#ae0210" fill-rule="evenodd"><path d="m1.49117.700014c-.13791.034095-.26386.105205-.36432.205658-.10045.100448-.17159.226408-.205685.364318-.515052 2.42565-.763185 4.90038-.73999 7.38001-.006473 2.0072.130577 4.0123.410034 6 .023347.1434.086233.2774.181641.3869.095407.1096.219523.1903.35834.2331.14008.0478.29055.0563.43512.0245.14456-.0317.27769-.1024.38488-.2045l13.32001-13.26999c.1471-.14933.2296-.35041.23-.56.0124-.08622.0124-.17379 0-.26001-.0398-.13764-.1204-.260018-.231-.351042-.1107-.091024-.2463-.146446-.389-.158966-4.4261-.711087-8.94367-.626426-13.34004.25z"/><path d="m2.29089 19.78c-.10276.1028-.17636.231-.21326.3716s-.03573.2884.0033.4284c1.77778 5.6702 4.89512 10.8289 9.08827 15.0395 4.1932 4.2106 9.3389 7.3493 15.0017 9.1505.1346.0378.2768.0392.412.004.1353-.0351.2588-.1055.358-.204l17.74-17.64c.0758-.0743.1361-.163.1773-.2608.0412-.0979.0625-.203.0627-.3092.0141-.076.0141-.1539 0-.23-1.7823-5.6678-4.9011-10.8241-9.0937-15.0341-4.1925-4.20991-9.3358-7.35013-14.9963-9.15587-.1393-.03826-.2861-.03994-.4262-.00491-.1402.03503-.2689.10562-.3738.20492zm17.25001-5.78-1.8 1.8-1.41-1.41c-.2362-.2357-.5563-.3681-.89-.3681s-.6538.1324-.89.3681c-.2346.2409-.3658.5638-.3658.9s.1312.6592.3658.9l1.39 1.38-1.8 1.83c-.1164.1161-.2087.2541-.2718.4059-.063.1519-.0954.3147-.0954.4791 0 .1645.0324.3273.0954.4791.0631.1519.1554.2898.2718.4059.114.1202.2513.2158.4034.2812.1522.0654.316.0991.4816.0991s.3295-.0337.4816-.0991c.1522-.0654.2894-.161.4034-.2812l1.8-1.8 2.06 2.09-1.8 1.8c-.2076.242-.3166.5532-.3053.8719.0113.3186.142.6213.3662.848.2242.2268.5254.3609.8439.3757s.6309-.0907.8752-.2956l1.82-1.83 2.06 2.08-1.83 1.8c-.2346.2409-.3658.5638-.3658.9 0 .3363.1312.6592.3658.9.2362.2357.5563.3681.89.3681s.6538-.1324.89-.3681l1.82-1.8 2.06 2.06-1.8 1.83c-.1201.114-.2158.2513-.2811.4034-.0654.1522-.0992.316-.0992.4816s.0338.3295.0992.4816c.0653.1522.161.2894.2811.4034.2408.2346.5638.3659.9.3659s.6592-.1313.9-.3659l1.8-1.8 1.39 1.41c.1763.18.4024.303.6492.3531.2468.0502.503.0252.7355-.0717.2325-.0968.4307-.2612.5689-.4718.1382-.2105.2101-.4577.2064-.7096.0037-.3358-.1257-.6594-.36-.9l-1.45-1.41 1.8-1.83c.2262-.2337.3549-.5448.36-.87.0065-.1668-.0222-.3332-.0842-.4883-.062-.155-.156-.2953-.2758-.4117-.1161-.1164-.254-.2087-.4059-.2718-.1518-.063-.3147-.0954-.4791-.0954s-.3272.0324-.4791.0954c-.1518.0631-.2897.1554-.4059.2718l-1.83 1.8-2.06-2.09 1.83-1.8c.2333-.2412.3627-.5644.36-.9-.003-.3256-.1321-.6374-.36-.87-.2396-.2369-.563-.3698-.9-.3698s-.6604.1329-.9.3698l-1.8 1.83-2.06-2.08 1.8-1.8c.1223-.1159.22-.2555.287-.4101.067-.1547.102-.3213.103-.4899-.0005-.335-.1293-.657-.36-.9-.2408-.2345-.5638-.3658-.9-.3658s-.6591.1313-.9.3658l-1.8 1.8-2.06-2.06 1.8-1.83c.1225-.1095.2204-.2435.2876-.3934s.1021-.3123.1024-.4766c.002-.169-.0316-.3365-.0988-.4916s-.1664-.2943-.2912-.4084c-.1161-.1164-.254-.2087-.4059-.2718-.1519-.063-.3147-.0954-.4791-.0954s-.3272.0324-.4791.0954c-.1519.0631-.2898.1554-.4059.2718z"/><path d="m31.339 44.59c-.1034.1022-.1753.2319-.2072.3737s-.0225.2897.0271.4263c.0448.1377.1262.2607.2354.3558s.2422.1587.3847.1842c4.4269.7054 8.9439.6174 13.34-.26.1404-.0357.2681-.1098.3688-.214s.1703-.2344.2012-.376c.5384-2.422.7868-4.8993.74-7.38.0035-1.9872-.1335-3.9721-.41-5.94-.0232-.1457-.0858-.2824-.1809-.3952-.0952-.1128-.2194-.1974-.3592-.2448-.1387-.0515-.29-.0589-.4331-.0213-.1432.0375-.2712.1183-.3668.2313z"/></g></svg>