<svg fill="none" height="119" viewBox="0 0 167 119" width="167" xmlns="http://www.w3.org/2000/svg"><path d="m166.288 11.18v90.16c0 2.802-1.086 5.495-3.028 7.514-1.943 2.019-4.592 3.207-7.392 3.316h-144.1899c-1.4248 0-2.83572-.281-4.1521-.826s-2.51244-1.344-3.51996-2.352c-1.00751-1.007-1.80672-2.204-2.35199-3.52-.54526-1.316-.825925-2.727-.825925-4.152v-62.66h1.169985l41.33999-38.000027v-.339966h112.5299c2.805.108753 5.459 1.301373 7.402 3.326903s3.025 4.72599 3.018 7.53309z" fill="#bdac9c"/><path d="m166.288 11.18v85.69c0 2.8029-1.085 5.497-3.028 7.518-1.942 2.02-4.591 3.211-7.392 3.322h-144.1899c-1.4262-.001-2.83805-.284-4.15515-.83-1.31709-.547-2.51354-1.349-3.52105-2.358-1.00752-1.009-1.8064-2.207-2.35096-3.525-.54455-1.3184-.824124-2.7309-.82281-4.157v-58.18h1.16998l41.33999-38.000027v-.339966h112.5299c2.805.108753 5.459 1.301373 7.402 3.326903s3.025 4.72599 3.018 7.53309z" fill="#fde4d0"/><path d="m19.2188 29.22h128.6902" stroke="#003b45" stroke-linecap="round" stroke-linejoin="round" stroke-width="3.24"/><path d="m19.2188 51.8h128.6902" stroke="#003b45" stroke-linecap="round" stroke-linejoin="round" stroke-width="3.24"/><path d="m19.2188 73.98h41.81" stroke="#003b45" stroke-linecap="round" stroke-linejoin="round" stroke-width="3.24"/><path d="m43.3383.669983v27.140017c-.0054 2.8004-1.0925 5.4905-3.0341 7.5085-1.9416 2.0181-4.5877 3.2081-7.3859 3.3215h-30.93002z" fill="#d3c0ad"/><path d="m122.66 67.76c-.84 2.2-17.48 46-17.48 46l7.58-2.7 3.3 6 17.2-45.25z" fill="#e73147"/><path d="m126.85 68.91c.84 2.19 17.48 46 17.48 46l-7.58-2.71-3.3 6-17.2-45.25z" fill="#e73147"/><g fill="#f8ac22"><path d="m143.73 80.11c-.002 3.789-1.127 7.4925-3.234 10.642-2.106 3.1495-5.099 5.6037-8.601 7.0524-3.501 1.4486-7.353 1.8266-11.069 1.0862s-7.129-2.566-9.808-5.246c-2.678-2.68-4.502-6.094-5.24-9.8104-.739-3.7164-.359-7.5683 1.092-11.0688 1.45-3.5004 3.906-6.4922 7.056-8.5971 3.151-2.1049 6.855-3.2283 10.644-3.2283 2.517 0 5.009.4959 7.335 1.4594 2.325.9635 4.438 2.3757 6.217 4.156 1.779 1.7802 3.19 3.8936 4.153 6.2193.962 2.3258 1.456 4.8183 1.455 7.3353z"/><path d="m143.73 80.11c-.002 3.789-1.127 7.4925-3.234 10.642-2.106 3.1495-5.099 5.6037-8.601 7.0524-3.501 1.4486-7.353 1.8266-11.069 1.0862s-7.129-2.566-9.808-5.246c-2.678-2.68-4.502-6.094-5.24-9.8104-.739-3.7164-.359-7.5683 1.092-11.0688 1.45-3.5004 3.906-6.4922 7.056-8.5971 3.151-2.1049 6.855-3.2283 10.644-3.2283 2.517 0 5.009.4959 7.335 1.4594 2.325.9635 4.438 2.3757 6.217 4.156 1.779 1.7802 3.19 3.8936 4.153 6.2193.962 2.3258 1.456 4.8183 1.455 7.3353z"/><path d="m130.292 62.63c.002 1.1317-.332 2.2386-.96 3.1805-.627.942-1.52 1.6767-2.565 2.1112s-2.195.5492-3.305.3296-2.131-.7636-2.932-1.5631c-.801-.7996-1.346-1.8188-1.568-2.9286-.221-1.1099-.109-2.2605.324-3.3062.433-1.0458 1.166-1.9397 2.107-2.5687.94-.629 2.047-.9647 3.179-.9647 1.515 0 2.968.6013 4.041 1.6718 1.072 1.0705 1.676 2.5229 1.679 4.0382z"/><path d="m130.292 97.55c0 1.1313-.336 2.2372-.964 3.178-.629.94-1.522 1.674-2.567 2.107-1.046.433-2.196.546-3.305.325-1.11-.221-2.129-.765-2.929-1.565s-1.345-1.8195-1.566-2.9291c-.22-1.1096-.107-2.2597.326-3.3049s1.166-1.9385 2.107-2.567c.94-.6285 2.046-.964 3.178-.964 1.517 0 2.972.6026 4.044 1.6753 1.073 1.0727 1.676 2.5276 1.676 4.0447z"/><path d="m142.04 85.82c-1.131 0-2.238-.3358-3.179-.9647-.94-.629-1.674-1.5229-2.106-2.5687-.433-1.0458-.546-2.1964-.324-3.3062.221-1.1098.767-2.129 1.568-2.9286.801-.7995 1.821-1.3435 2.932-1.5631 1.11-.2196 2.26-.1049 3.305.3296s1.938 1.1691 2.565 2.1111c.628.9419.961 2.0488.959 3.1806 0 .7507-.148 1.494-.435 2.1874-.288.6934-.709 1.3234-1.241 1.8537-.531.5304-1.162.9507-1.855 1.2371-.694.2863-1.438.4331-2.189.4318z"/><path d="m107.142 85.82c-1.132 0-2.238-.3358-3.179-.9647-.941-.629-1.674-1.5229-2.107-2.5687-.432-1.0458-.545-2.1964-.323-3.3062.221-1.1098.767-2.129 1.568-2.9286.801-.7995 1.821-1.3435 2.931-1.5631s2.261-.1049 3.306.3296 1.937 1.1691 2.565 2.1111c.627.9419.961 2.0488.959 3.1806 0 .7507-.148 1.494-.436 2.1874-.287.6934-.709 1.3234-1.24 1.8537-.531.5304-1.162.9507-1.856 1.2371-.694.2863-1.437.4331-2.188.4318z"/><path d="m140.971 71.8c-.8.7998-1.819 1.3445-2.928 1.5651-1.11.2207-2.26.1073-3.305-.3256-1.045-.433-1.939-1.1662-2.567-2.1068-.629-.9406-.964-2.0465-.964-3.1777 0-1.1313.335-2.2372.964-3.1778.628-.9406 1.522-1.6737 2.567-2.1067s2.195-.5463 3.305-.3257c1.109.2206 2.128.7653 2.928 1.5651 1.071 1.0741 1.672 2.5287 1.672 4.0451s-.601 2.9709-1.672 4.045z"/><path d="m116.26 96.55c-.8.7998-1.819 1.3445-2.928 1.5651-1.11.2207-2.26.1073-3.305-.3256-1.045-.433-1.938-1.1662-2.567-2.1068-.628-.9406-.964-2.0465-.964-3.1777 0-1.1313.336-2.2372.964-3.1778.629-.9406 1.522-1.6737 2.567-2.1067s2.195-.5463 3.305-.3257c1.109.2206 2.128.7653 2.928 1.5651.532.5312.953 1.1618 1.241 1.8559.287.694.435 1.4379.435 2.1892 0 .7512-.148 1.4951-.435 2.1891-.288.6941-.709 1.3247-1.241 1.8559z"/><path d="m132.878 96.55c-.8-.8-1.344-1.8192-1.565-2.9288-.221-1.1095-.107-2.2595.326-3.3047.433-1.0451 1.166-1.9384 2.106-2.5669.941-.6284 2.047-.9639 3.178-.9639s2.237.3355 3.178.9639c.941.6285 1.674 1.5218 2.107 2.5669.433 1.0452.546 2.1952.325 3.3047-.22 1.1096-.765 2.1288-1.565 2.9288-1.074 1.0705-2.529 1.6716-4.045 1.6716s-2.971-.6011-4.045-1.6716z"/><path d="m108.141 71.8c-.801-.7994-1.347-1.8186-1.569-2.9285-.222-1.11-.109-2.2608.323-3.3067.433-1.046 1.166-1.9401 2.107-2.5692s2.047-.9649 3.179-.9649 2.238.3358 3.179.9649 1.674 1.5232 2.107 2.5692c.432 1.0459.545 2.1967.323 3.3067-.222 1.1099-.768 2.1291-1.569 2.9285-.53.5309-1.16.9522-1.853 1.2396-.694.2873-1.437.4353-2.187.4353s-1.494-.148-2.187-.4353c-.693-.2874-1.323-.7087-1.853-1.2396z"/></g><path d="m138.021 80.11c0 2.6601-.789 5.2606-2.267 7.4724s-3.578 3.9358-6.036 4.9538-5.162 1.2843-7.771.7654c-2.609-.519-5.005-1.8-6.886-3.6811-1.882-1.881-3.162-4.2775-3.681-6.8866-.519-2.609-.253-5.3133.765-7.771s2.742-4.5583 4.954-6.0362c2.211-1.4779 4.812-2.2667 7.472-2.2667 3.567 0 6.988 1.4171 9.511 3.9394 2.522 2.5224 3.939 5.9434 3.939 9.5106z" fill="#f6a123"/></svg>