<svg fill="none" height="166" viewBox="0 0 113 166" width="113" xmlns="http://www.w3.org/2000/svg"><path d="m98.0405 59.3c-5.66 4-16.4499 2.35-23.6199-1.33-1.6984-.8515-3.2701-1.9352-4.6699-3.22-11.34-11-15.0002-31.19-3.4702-43.05 11.23-11.499968 31.7402-11.59998 46.7205-10.94998-.601-.018023-1.196.124453-1.723.41272-.527.28827-.968.71191-1.277 1.22729-3.41 4.93-1.51 19.53997-1.49 22.65997.07 11.5.16 26.77-10.4705 34.25z" fill="#681619"/><path d="m98.0414 59.3c-5.66 4-16.4498 2.35-23.6198-1.33-.5848-.4244-1.1394-.8888-1.66-1.39-11.35-10.95-15.0002-31.19-3.4702-43 9.77-9.99998 26.5902-11.38999 40.6706-11.13999-3.41 4.93-1.51 19.53999-1.49 22.65999.11 11.45.199 26.72-10.4306 34.2z" fill="#871f26"/><path d="m64.5694 49.41-.1399.19-27 38.84c-.5386.6509-1.0203 1.3467-1.4399 2.08-.9234 1.5562-1.5262 3.2813-1.773 5.0739-.2467 1.7926-.1326 3.6164.336 5.3641.4685 1.748 1.282 3.384 2.3923 4.813s2.4951 2.621 4.073 3.507 3.317 1.447 5.115 1.65c1.798.204 3.6187.046 5.3547-.465 1.736-.51 3.3522-1.362 4.7539-2.507 1.4017-1.144 2.5605-2.557 3.408-4.156.3646-.64.6756-1.309.9299-2l18.8401-42.84c1.0846-1.9595 1.385-4.2575.8406-6.4299s-1.893-4.0572-3.7734-5.2736c-1.8805-1.2163-4.1526-1.6737-6.3572-1.2795s-4.1776 1.6104-5.52 3.403z" fill="#a99195"/><path d="m12.96 164.16c-.6232-.269-1.2309-.573-1.8201-.91-4.94558-2.777-8.58613-7.405-10.12183-12.865-1.535699-5.46-.840853-11.307 1.93189-16.255.65558-1.156 1.41901-2.248 2.28002-3.26l42.53002-61.2201c.07-.1.15-.1999.21-.2999l.0898-.13c2.0147-2.7261 4.9548-4.6234 8.2688-5.3359s6.7742-.1913 9.7312 1.4659c.9545.5395 1.8438 1.1871 2.6502 1.93 2.2879 2.1229 3.7959 4.9532 4.282 8.0362.486 3.083-.0783 6.2399-1.6021 8.9638l-29.6799 67.51c-.3995 1.111-.8877 2.188-1.46 3.22-2.5933 4.649-6.8277 8.163-11.8748 9.855-5.047 1.692-10.5437 1.441-15.4152-.705z" fill="#f49524"/><path d="m12.9585 164.16c-3.95031-3.169-6.64895-7.636-7.61572-12.607-.96677-4.972-.13905-10.125 2.3357-14.543.65912-1.148 1.41878-2.236 2.27001-3.25l42.54001-61.21c.08-.1.14-.2.21-.3l.0898-.14c.6878-1.454 1.6797-2.7434 2.9085-3.7813 1.2288-1.0378 2.666-1.7998 4.2146-2.2345s3.1723-.5319 4.7617-.2852 3.1075.8316 4.4514 1.7153c1.344.8837 2.4825 2.0455 3.3389 3.407s1.4106 2.8909 1.6252 4.4849c.2146 1.5941.0848 3.2156-.3811 4.7551-.4658 1.5395-1.2567 2.961-2.3191 4.1687l-29.6799 67.51c-.3995 1.111-.8877 2.188-1.46 3.22-2.6031 4.638-6.8417 8.14-11.8879 9.82-5.0462 1.681-10.5376 1.421-15.4021-.73z" fill="#d2831f"/></svg>