<svg fill="none" height="47" viewBox="0 0 59 47" width="59" xmlns="http://www.w3.org/2000/svg"><path d="m58.4692.830017h-57.769981v45.879983h57.769981z" fill="#d0f0f4"/><path d="m55.4692 3.83002v39.87998h-51.76998v-39.87998zm3-3.000003h-57.769981v45.879983h57.769981z" fill="#118995"/><g fill="#16b6c6"><path d="m51.3381 9.66h-43.50998v3h43.50998z"/><path d="m47.6086 17.71h-36.05v1h36.05z"/><path d="m47.6086 23.77h-36.05v1h36.05z"/><path d="m47.6086 29.83h-36.05v1h36.05z"/><path d="m39.7786 35.88h-28.22v1h28.22z"/></g><path d="m43.6094 45.4 3.05-1.75 3.05 1.75v-7.52h-6.1z" fill="#000" opacity=".3"/><path d="m43.6094 44.4 3.05-1.75 3.05 1.75v-7.52h-6.1z" fill="#fc611f"/><path d="m46.6592 33.42.58.79.8-.57.31.93.93-.3v.98l.98.01-.29.93.92.31-.57.8.79.58-.79.58.57.79-.92.31.29.94h-.98v.98l-.93-.29-.31.92-.8-.57-.58.79-.58-.79-.8.57-.31-.92-.93.29-.01-.98h-.97l.29-.94-.93-.31.57-.79-.79-.58.79-.58-.57-.8.93-.31-.29-.93.97-.01.01-.98.93.3.31-.93.8.57z" fill="#000" opacity=".3"/><path d="m46.6592 32.42.58.79.8-.57.31.93.93-.3v.98l.98.01-.29.93.92.31-.57.8.79.58-.79.58.57.79-.92.31.29.94h-.98v.98l-.93-.29-.31.92-.8-.57-.58.79-.58-.79-.8.57-.31-.92-.93.29-.01-.98h-.97l.29-.94-.93-.31.57-.79-.79-.58.79-.58-.57-.8.93-.31-.29-.93.97-.01.01-.98.93.3.31-.93.8.57z" fill="#fc611f"/><path d="m58.4692.830017h-57.769981v45.879983s10.859981-38.46998 57.769981-45.879983z" fill="#fff" opacity=".3"/></svg>