<svg fill="none" height="156" viewBox="0 0 167 156" width="167" xmlns="http://www.w3.org/2000/svg"><path d="m140.239 69.89c0 13.7809-4.087 27.2525-11.743 38.711-7.656 11.459-18.538 20.39-31.2694 25.664-12.7318 5.274-26.7415 6.655-40.2578 3.967-13.5164-2.688-25.9322-9.323-35.6775-19.067s-16.38253-22.159-19.07228-35.6749c-2.689749-13.516-1.311201-27.5261 3.96118-40.2586 5.2724-12.7325 14.2019-23.6157 25.6594-31.2734 11.4575-7.65777 24.9283-11.746161 38.7093-11.748139 18.4812 0 36.2061 7.340959 49.2751 20.408239 13.069 13.0672 20.412 30.7905 20.415 49.2718z" fill="#ac2734"/><path d="m131.578 69.89c0 12.0646-3.577 23.8583-10.28 33.89-6.703 10.031-16.23 17.85-27.3761 22.467-11.1463 4.617-23.4113 5.825-35.2441 3.471-11.8329-2.354-22.7022-8.163-31.2332-16.695-8.531-8.531-14.3406-19.3997-16.6943-31.2325-2.35373-11.8329-1.14579-24.0979 3.4712-35.2442 4.6169-11.1463 12.4356-20.6732 22.467-27.376 10.0314-6.7027 21.825-10.28029 33.8896-10.28029 16.1783 0 31.6939 6.42679 43.1339 17.86649 11.439 11.4397 17.866 26.9552 17.866 43.1335z" fill="#e73147"/><path d="m103.57 69.89c0 6.5267-1.935 12.907-5.5612 18.3338-3.626 5.4268-8.7798 9.6565-14.8098 12.1542-6.0299 2.498-12.6652 3.151-19.0666 1.878s-12.2814-4.4163-16.8965-9.0315c-4.6151-4.6151-7.7582-10.4952-9.0315-16.8966-1.2733-6.4013-.6198-13.0365 1.8779-19.0665 2.4977-6.0299 6.7275-11.1838 12.1543-14.8099 5.4269-3.6261 11.807-5.5615 18.3338-5.5615 8.7521 0 17.1457 3.4768 23.3344 9.6655 6.1892 6.1887 9.6652 14.5823 9.6652 23.3345z" fill="#d02e3f"/><path d="m86.8787 69.89c0 3.2297-.9578 6.387-2.7522 9.0725-1.7943 2.6854-4.3446 4.7785-7.3286 6.0145-2.9839 1.236-6.2673 1.5593-9.435.9292s-6.0773-2.1853-8.3611-4.4691-3.8392-5.1935-4.4692-8.3612c-.6301-3.1677-.3068-6.4512.9292-9.4351 1.2359-2.9839 3.3291-5.5344 6.0146-7.3287 2.6855-1.7944 5.8425-2.7521 9.0723-2.7521 4.331 0 8.4846 1.7205 11.5471 4.783 3.0625 3.0624 4.7829 7.216 4.7829 11.547z" fill="#ac2734"/><path d="m127.5 145.92c.002 1.303-.254 2.594-.752 3.798s-1.229 2.298-2.15 3.219c-.922.922-2.016 1.653-3.22 2.151s-2.495.753-3.798.752h-91.4396c-2.6292-.003-5.1499-1.049-7.0081-2.909s-2.9018-4.382-2.9018-7.011 1.0436-5.151 2.9018-7.011 4.3789-2.906 7.0081-2.909h91.4596c1.303-.001 2.594.254 3.798.752s2.299 1.229 3.22 2.151c.921.921 1.652 2.015 2.15 3.219s.754 2.495.752 3.798z" fill="#ac2734"/><path d="m127.5 145.92s50.82-18.63 31.94-84.9301" stroke="#ac2734" stroke-linecap="round" stroke-linejoin="round" stroke-width="6.49"/><path d="m166.34 52.4c0 2.0094-.596 3.9738-1.713 5.6446-1.116 1.6708-2.703 2.973-4.559 3.742-1.857.7689-3.9.9702-5.871.5782-1.97-.392-3.781-1.3597-5.202-2.7806s-2.388-3.2312-2.78-5.2021c-.392-1.9708-.191-4.0137.578-5.8702s2.071-3.4432 3.742-4.5596 3.635-1.7123 5.645-1.7123c2.694 0 5.278 1.0704 7.184 2.9758 1.905 1.9053 2.976 4.4896 2.976 7.1842z" fill="#e73147"/></svg>