<svg fill="none" height="29" viewBox="0 0 84 29" width="84" xmlns="http://www.w3.org/2000/svg"><path d="m78.3698 3.06006h-1.03v10.18004h1.03z" fill="#f28205"/><g clip-rule="evenodd" fill-rule="evenodd"><path d="m77.8509 14.35c.275 0 .5437-.0816.7723-.2343s.4067-.3698.5119-.6238.1328-.5334.0791-.8031c-.0536-.2696-.186-.5173-.3804-.7117s-.4421-.3268-.7117-.3804c-.2696-.0537-.5491-.0261-.8031.0791s-.4711.2833-.6238.5119-.2343.4974-.2343.7723c0 .3686.1465.7222.4072.9828.2606.2607.6142.4072.9828.4072z" fill="#f28205"/><path d="m3.24165 5.99999c-.3471.03107-.69687-.0105-1.02704-.12201-.33016-.11152-.63348-.29052-.89065-.5257-.25717-.23517-.462545-.5213-.603059-.84021-.140513-.3189-.213089-.6636-.213089-1.01208 0-.34849.072576-.69318.213089-1.01209.140514-.3189.345889-.60503.603059-.84021.25717-.23517.56049-.41418.89065-.52569.33017-.11152.67994-.153089 1.02704-.122013h77.25995c.3471-.031076.6969.010493 1.0271.122013.3301.11151.6335.29052.8906.52569.2572.23518.4626.52131.6031.84021.1405.31891.2131.6636.2131 1.01209 0 .34848-.0726.69318-.2131 1.01208-.1405.31891-.3459.60504-.6031.84021-.2571.23518-.5605.41418-.8906.5257-.3302.11151-.68.15308-1.0271.12201h-14.5v14.58001c-.0026.6145-.2479 1.2031-.6824 1.6376s-1.0231.6798-1.6376.6824h-43.6299c-.6136-.0026-1.2012-.2482-1.6341-.683s-.676-1.0234-.6759-1.637v-14.58001z" fill="#00568f"/><path d="m76.5586 14.22h2.58l1.26 14.71h-5.09z" fill="#cb8d2a"/></g></svg>