<svg fill="none" height="59" viewBox="0 0 55 59" width="55" xmlns="http://www.w3.org/2000/svg"><g clip-rule="evenodd" fill-rule="evenodd"><path d="m40.9989 51.25c-.2195 0-.4341-.0651-.6167-.187-.1825-.122-.3248-.2954-.4088-.4982s-.106-.426-.0632-.6413.1486-.4131.3038-.5684c.1553-.1552.353-.2609.5683-.3037.2154-.0429.4385-.0209.6414.0631.2028.0841.3762.2263.4981.4089.122.1825.1871.3971.1871.6167.0013.1461-.0265.291-.0818.4263s-.137.2582-.2403.3615c-.1034.1033-.2263.185-.3615.2404-.1353.0553-.2803.0831-.4264.0817zm-7.51-2c-.4757-.0026-.9309-.1934-1.2663-.5307-.3354-.3372-.5237-.7936-.5237-1.2692-.0184-.2457.0141-.4925.0955-.725.0813-.2325.2098-.4457.3773-.6263.1676-.1806.3706-.3246.5964-.4231s.4694-.1494.7158-.1494c.2463 0 .49.0509.7158.1494s.4288.2425.5963.4231c.1676.1806.2961.3938.3774.6263.0814.2325.1139.4793.0955.725-.0026.4731-.1903.9265-.523 1.2629s-.7839.5292-1.257.537zm-5.49 2.62c-.3209 0-.6287-.1274-.8556-.3543-.2269-.227-.3544-.5348-.3544-.8557.002-.2365.0738-.467.2064-.6628s.3201-.3481.539-.4377c.2188-.0896.4593-.1125.6911-.0659.2319.0467.4448.1608.612.328s.2813.3801.3279.6119c.0466.2319.0237.4723-.0659.6912-.0896.2188-.2418.4063-.4376.5389s-.4264.2045-.6629.2064zm-1.69-6.87c-.1379 0-.2702-.0547-.3677-.1522-.0975-.0976-.1523-.2299-.1523-.3678.031-.1086.0966-.2042.1868-.2723.0902-.068.2002-.1048.3132-.1048s.2229.0368.3131.1048c.0903.0681.1559.1637.1869.2723 0 .1362-.0534.267-.1488.3642-.0953.0973-.225.1532-.3612.1558zm-5 3.06c-.2652 0-.5196-.1053-.7071-.2929-.1875-.1875-.2929-.4418-.2929-.7071 0-.2652.1054-.5195.2929-.7071.1875-.1875.4419-.2929.7071-.2929s.5196.1054.7071.2929c.1876.1876.2929.4419.2929.7071 0 .2653-.1053.5196-.2929.7071-.1875.1876-.4419.2929-.7071.2929zm-4.76-2c-.4758-.0052-.9306-.1965-1.267-.5329-.3365-.3365-.5278-.7913-.533-1.267 0-.3561.1056-.7041.3033-1.0001.1978-.296.479-.5267.8079-.6629s.6908-.1719 1.0399-.1025c.3492.0695.6699.2409.9217.4926.2517.2518.4231.5725.4926.9217.0694.3491.0338.7111-.1024 1.04-.1363.3289-.367.61-.663.8078s-.644.3033-1 .3033zm-3.86 5.38c-.1028 0-.2034-.0305-.2889-.0876s-.1522-.1383-.1915-.2333c-.0394-.0951-.0497-.1996-.0296-.3005s.0696-.1935.1423-.2662c.0727-.0728.1654-.1223.2663-.1424.1008-.02.2054-.0097.3004.0296.095.0394.1762.106.2334.1915.0571.0856.0876.1861.0876.2889.0013.0687-.0112.1369-.0368.2006-.0257.0638-.0639.1216-.1125.1702-.0485.0485-.1064.0868-.1701.1124-.0637.0257-.1319.0382-.2006.0368zm30.16-8.4899c-5.42 1.37-10.62 1.24-13.75-.87-3.76-2.47-10.6-2.0001-15.4-1.2901-.75 1.16-8.84999 12.45-7.55999 12.58h42.67999c.36 0 .46-.06.2-.39z" fill="#fc7659"/><path d="m22.6308 33.3801c.4186-.006.8294.1127 1.1803.3409s.6261.5557.7904.9407c.1643.3849.2104.8101.1324 1.2213-.078.4113-.2766.7901-.5705 1.0882-.2938.2981-.6697.502-1.0798.5859s-.8359.0439-1.2232-.1149-.7186-.4292-.9518-.7768-.3578-.7567-.3578-1.1753c-.0027-.5553.2147-1.0889.6045-1.4843s.9203-.6204 1.4755-.6257z" fill="#fc7659"/><path d="m32.7585 33.28c.2989.0026.5848.1225.7961.3338.2114.2114.3313.4973.3339.7962-.0053.2953-.127.5766-.3386.7826s-.4961.3201-.7914.3174c-.1453.0013-.2894-.0262-.424-.0809-.1347-.0547-.2571-.1355-.3603-.2378-.1032-.1022-.1851-.2239-.241-.358-.0559-.1342-.0847-.278-.0847-.4233-.0013-.1471.0263-.293.0814-.4293.0551-.1364.1365-.2607.2395-.3656.1031-.1049.2259-.1885.3612-.246.1354-.0575.2808-.0878.4279-.0891z" fill="#fc7659"/><path d="m28.4403 25.7701c.2917 0 .5715.1158.7778.3221s.3222.4861.3222.7778c.002.2204-.0617.4364-.1829.6205-.1212.184-.2945.3279-.4977.4131-.2033.0853-.4272.1081-.6435.0656-.2162-.0425-.415-.1485-.5708-.3043s-.2617-.3546-.3042-.5708c-.0426-.2162-.0197-.4403.0655-.6435.0853-.2032.2291-.3765.4132-.4977.184-.1212.4-.1848.6204-.1828z" fill="#fc7659"/><path d="m21.19.730004h12.81c.2867-.001324.5707.054152.8358.163238.2651.109088.5059.269628.7086.472318.2027.2027.3633.44353.4724.70862.109.26509.1645.54916.1632.83582v14.32c.0013.2871-.0541.5717-.1631.8373-.1089.2657-.2693.5072-.4719.7106-.2025.2035-.4433.365-.7084.4752-.2652.1102-.5495.1669-.8366.1669h-12.81c-.5808 0-1.1378-.2307-1.5486-.6414-.4107-.4107-.6414-.9678-.6414-1.5486v-14.32c0-.28713.0567-.57144.1669-.83658.1102-.26515.2716-.5059.4751-.70847.2035-.20256.445-.36293.7107-.471891.2656-.108965.5502-.164372.8373-.163055z" fill="#656d70"/></g><path d="m15.2989 7.54001h24.61c.5296.00223 1.0366.21441 1.41.58999.3756.37336.5878.88043.59 1.41001v2.16999c-.0022.5296-.2144 1.0366-.59 1.41-.3734.3756-.8804.5878-1.41.59h-1.42c0 3.42 0 7.51-.05 9.72 0 .82 2 3.57 3.63 5.78 1 1.37 2.1 2.91 3.21 4.53 3.29 4.88 6.48 10.59 7.84 13l.36.65c.6862 1.2667 1.0455 2.6845 1.0455 4.125 0 1.4406-.3593 2.8584-1.0455 4.125-.4556.8493-1.1337 1.5586-1.9617 2.0519-.8279.4933-1.7746.7519-2.7383.7481h-42.40001c-.96479.0023-1.91219-.2568-2.74151-.7498s-1.50957-1.2015-1.96848-2.0502c-.66749-1.2745-1.011163-2.6938-1.000699-4.1325.010463-1.4387.374739-2.8528 1.060699-4.1175 3.44533-6.2871 7.25516-12.3675 11.41-18.21 1.62-2.21 3.63-5 3.65-5.78-.08-2.21-.08-6.3-.05-9.72h-1.44c-.5296-.0022-1.0366-.2144-1.41-.59-.3683-.3766-.5731-.8833-.57-1.41v-2.16999c-.0031-.52672.2017-1.0334.57-1.41.3734-.37559.8804-.58777 1.41-.59zm20.13 6.16999h-15.66c0 3.39 0 7.48.06 9.62.05 1.74-1.42 3.83-4.22 7.68-1 1.37-2.08 2.86-3.16 4.45-3.22 4.76-6.35 10.39-7.69 12.81l-.36002.64c-.42818.8008-.65881 1.6923-.67273 2.6003-.01391.908.18931 1.8062.59275 2.6197.19149.3857.48872.7089.85702.932s.79245.3369 1.22296.328h42.43002c.4257-.0018.8428-.1202 1.206-.3423.3631-.2222.6585-.5395.854-.9177.4024-.8096.6067-1.7032.5963-2.6072-.0104-.9041-.2354-1.7927-.6563-2.5928l-.36-.66c-1.33-2.42-4.5-8-7.71-12.81-1.08-1.59-2.16-3.08-3.16-4.45-2.8-3.85-4.27-5.94-4.22-7.68.08-2.14.08-6.2.05-9.62z" fill="#fff"/></svg>