<svg fill="none" height="166" viewBox="0 0 61 166" width="61" xmlns="http://www.w3.org/2000/svg"><path d="m60.8611 154.85c0 2.814-1.1179 5.513-3.1076 7.502-1.9898 1.99-4.6885 3.108-7.5024 3.108-1.3947.001-2.7759-.272-4.0649-.805-1.289-.532-2.4604-1.313-3.4475-2.298-.9871-.986-1.7705-2.156-2.3054-3.444s-.8109-2.668-.8122-4.063v-144.22c0-1.39547.275-2.77727.8094-4.0664.5343-1.28913 1.3174-2.46032 2.3046-3.44661.9873-.98629 2.1592-1.76833 3.4488-2.301449 1.2896-.533116 2.6717-.80684054 4.0672-.8055265 1.3941-.0000006 2.7746.2747665 4.0626.8085935 1.2879.533832 2.458 1.316252 3.4433 2.302532.9854.98629 1.7667 2.15711 2.2993 3.44553s.8061 2.66917.8048 4.06333z" fill="#ea5624"/><path d="m50.6605.0100098h-49.930031v165.4499902h49.930031z" fill="#f8ac22"/><g fill="#ea5624"><path d="m25.7005 14.79c.0013.2315-.0433.4609-.1313.6751-.088.2141-.2176.4087-.3813.5724s-.3582.2932-.5723.3812c-.2142.088-.4436.1326-.6751.1313h-23.210031v-3.5h23.210031c.4633 0 .908.1826 1.2374.5084.3295.3257.5173.7683.5226 1.2316z"/><path d="m25.7005 44.04c0 .2307-.0456.4591-.1342.672-.0886.213-.2184.4064-.3819.569-.1636.1626-.3577.2913-.5711.3787-.2135.0873-.4422.1316-.6728.1303h-23.210031v-3.49h23.210031c.2298-.0013.4576.0427.6704.1294.2129.0867.4065.2145.5699.3761.1635.1616.2935.3538.3826.5656.0892.2118.1358.4391.1371.6689z"/><path d="m16.6005 29.69c-.0027.4633-.1879.9069-.5155 1.2346-.3276.3276-.7712.5128-1.2345.5154h-14.120031v-3.49h14.120031c.4616.0026.9037.1865 1.231.5119.3274.3255.5137.7665.519 1.2281z"/><path d="m25.7005 73.85c0 .2306-.0456.459-.1342.672s-.2184.4063-.3819.569c-.1636.1626-.3577.2913-.5711.3787-.2135.0873-.4422.1316-.6728.1303h-23.210031v-3.5h23.210031c.465 0 .9112.184 1.241.5119.3297.3279.5163.773.519 1.2381z"/><path d="m16.6005 59.55c-.0026.4643-.1875.9089-.5149 1.2381-.3273.3292-.7709.5167-1.2351.5219h-14.120031v-3.5h14.120031c.4616.0026.9037.1864 1.231.5119.3274.3255.5137.7665.519 1.2281z"/><path d="m25.7005 101.06c-.0027.465-.1893.91-.519 1.238-.3298.328-.776.512-1.241.512h-23.210031v-3.5h23.210031c.465 0 .9112.1841 1.241.512.3297.328.5163.773.519 1.238z"/><path d="m16.6005 86.71c-.0027.4633-.1879.9069-.5155 1.2345-.3276.3277-.7712.5129-1.2345.5155h-14.120031v-3.5h14.120031c.4633.0026.9069.1879 1.2345.5155s.5128.7712.5155 1.2345z"/><path d="m25.7005 130.87c0 .231-.0456.459-.1342.672s-.2184.406-.3819.569c-.1636.163-.3577.291-.5711.379-.2135.087-.4422.131-.6728.13h-23.210031v-3.49h23.210031c.2298-.001.4576.043.6704.129.2129.087.4065.215.5699.376.1635.162.2935.354.3826.566.0892.212.1358.439.1371.669z"/><path d="m16.6005 116.55c-.0027.463-.1879.907-.5155 1.235-.3276.327-.7712.512-1.2345.515h-14.120031v-3.49h14.120031c.4616.003.9037.186 1.231.512.3274.325.5137.766.519 1.228z"/><path d="m25.7005 158.2c0 .231-.0456.459-.1342.672s-.2184.406-.3819.569c-.1636.163-.3577.291-.5711.379-.2135.087-.4422.131-.6728.13h-23.210031v-3.5h23.210031c.2306-.001.4593.043.6728.13.2134.088.4075.216.5711.379.1635.163.2933.356.3819.569s.1342.441.1342.672z"/><path d="m16.6005 143.85c-.0027.463-.1879.907-.5155 1.235-.3276.327-.7712.512-1.2345.515h-14.120031v-3.5h14.120031c.4633.003.9069.188 1.2345.515.3276.328.5128.772.5155 1.235z"/></g></svg>