<svg fill="none" height="142" viewBox="0 0 167 142" width="167" xmlns="http://www.w3.org/2000/svg"><path d="m155.63.48999h-144.1902c-2.87758 0-5.63733 1.14321-7.6721 3.17798s-3.177856 4.79452-3.177856 7.67213v90.1599c0 2.878 1.143086 5.637 3.177856 7.672s4.79452 3.178 7.6721 3.178h144.1902c2.8-.108 5.449-1.297 7.391-3.316 1.943-2.019 3.028-4.712 3.029-7.514v-90.1599c.007-2.80807-1.074-5.50972-3.018-7.53686-1.943-2.02713-4.596-3.221971-7.402-3.33325z" fill="#005966"/><path d="m155.63 7.42004h-144.1902c-5.99998 0-10.849956 4.26006-10.849956 9.51006v79c0 5.2499 4.859976 9.4999 10.849956 9.4999h144.1902c5.79-.21 10.42-4.37 10.42-9.4899v-79c0-5.16-4.63-9.32006-10.42-9.52006z" fill="#003b45"/><path d="m145.92 14h-124.78c-5.18 0-9.39 3.6901-9.39 8.2301v68.3899c0 4.54 4.21 8.2301 9.39 8.2301h124.83c5-.18 9-3.7801 9-8.2101v-68.39c-.03-4.48-4.04-8.08-9.05-8.25z" fill="#fee2bb"/><g fill="#003b45"><path d="m106.108 112.33h-43.7096v22.57h43.7096z"/><path d="m136.722 138c0 .822-.327 1.611-.908 2.192-.582.582-1.37.908-2.192.908h-97.2702c-.4067 0-.8093-.08-1.1849-.236-.3755-.156-.7166-.384-1.0037-.672-.287-.288-.5144-.63-.6691-1.006s-.2337-.779-.2324-1.186c0-.82.3256-1.605.9051-2.185.5795-.579 1.3654-.905 2.185-.905h97.2702c.406-.001.809.078 1.185.232.376.155.718.382 1.006.67.288.287.517.628.673 1.003.156.376.236.778.236 1.185z"/></g></svg>