<svg fill="none" height="45" viewBox="0 0 78 45" width="78" xmlns="http://www.w3.org/2000/svg"><path d="m18.5 17.26v19.85c0 2.27 16 7.11 20.5 7.11s20.5-4.84 20.5-7.11v-19.85z" fill="#184f78"/><path d="m18.5 26.46 20.5 7.74 20.5-7.74v-7.2h-41z" fill="#000" opacity=".3"/><path d="m38.9989.630005-38.619994 14.569995 38.619994 14.58 38.62-14.58z" fill="#184f78"/><path d="m38.9989 29.78-38.619994-14.58v2l38.619994 14.58 38.62-14.58v-2z" fill="#467293"/><path d="m61.941 33.34h-1.72s-3.78 5.34-1.29 10.7h4.3c2.49-5.36-1.29-10.7-1.29-10.7z" fill="#fdc00f"/><g fill="#fed96f"><path d="m62.4414 43.15c.06-.5613.0867-1.1256.08-1.69.0248-.3162.0248-.6338 0-.95l-.09-1c-.0246-.3361-.0714-.6701-.14-1-.05-.31-.11-.62-.16-.91-.16-.58-.26-1.13-.42-1.58-.1441-.4999-.3177-.9907-.52-1.47.1664.4982.3033 1.0057.41 1.52.12.45.19 1 .3 1.59l.09.92c.0436.3115.0669.6255.07.94v.94c.0204.303.0204.607 0 .91-.0308.5301-.0943 1.0577-.19 1.58-.09.42-.17.76-.23 1h.72c-.01-.16.03-.45.08-.8z"/><path d="m60.341 43c-.0909-.523-.1543-1.0504-.19-1.58-.0253-.3028-.0253-.6072 0-.91 0-.31 0-.63 0-.94.003-.3145.0264-.6285.07-.94 0-.31.06-.62.1-.92.1-.58.17-1.14.29-1.59.1009-.5071.2311-1.008.39-1.5-.2023.4793-.376.9701-.52 1.47-.15.45-.26 1-.41 1.58-.06.29-.11.6-.17.91-.0686.3299-.1154.6639-.14 1l-.09 1c-.0249.3162-.0249.6338 0 .95-.0068.5644.02 1.1287.08 1.69 0 .35.09.64.13.89h.72c-.09-.33-.17-.67-.26-1.11z"/><path d="m63.6613 42.38c.0561-.3302.0796-.6652.07-1 .0228-.3329.0228-.6671 0-1-.0364-.353-.0932-.7036-.1701-1.05-.2758-1.2028-.7416-2.3539-1.3799-3.41-.269-.4508-.5698-.8819-.9001-1.29.2887.4379.546.8957.7701 1.37.5389 1.0816.913 2.2377 1.11 3.43.0502.3312.0802.6652.09 1 .0278.3328.0278.6673 0 1-.0087.2902-.049.5785-.1201.86-.0415.256-.1085.5073-.1999.75-.1067.3464-.2474.6814-.42 1h.7599c.06-.12.0901-.23.1401-.34s.09-.29.13-.46c.0636-.2829.1037-.5705.12-.86z"/><path d="m61.0805 34.62-.35 9.38h.7z"/><path d="m59.6882 44c-.1806-.316-.3248-.6515-.43-1-.0914-.2427-.1584-.494-.2-.75-.0665-.2823-.1066-.5702-.12-.86-.0334-.3325-.0334-.6675 0-1 .0064-.3347.0331-.6686.08-1 .193-1.1792.5639-2.3222 1.1-3.39.2318-.4814.5027-.943.81-1.38-.3428.4054-.6537.8366-.93 1.29-.6341 1.0582-1.0996 2.2086-1.38 3.41-.0784.3457-.1319.6966-.16 1.05-.0797.6643-.0797 1.3357 0 2 .0343.2899.0878.5772.16.86 0 .17.09.31.13.46s.09.22.14.34h.77z"/><path d="m59.1299 33.34c0-.3956.1173-.7822.337-1.1111.2198-.3289.5321-.5853.8976-.7367.3655-.1513.7676-.1909 1.1555-.1138.388.0772.7444.2677 1.0241.5474s.4702.6361.5473 1.024c.0772.388.0376.7901-.1138 1.1556-.1513.3654-.4077.6778-.7366.8975-.3289.2198-.7156.3371-1.1111.3371-.2649.0083-.5287-.0377-.7751-.1353-.2465-.0975-.4703-.2446-.6577-.432s-.3344-.4112-.432-.6576c-.0975-.2464-.1436-.5102-.1352-.7751z"/></g><path d="m38.9994 18.84c3.391 0 6.14-1.6297 6.14-3.64s-2.749-3.64-6.14-3.64c-3.3911 0-6.14 1.6297-6.14 3.64s2.7489 3.64 6.14 3.64z" fill="#000" opacity=".3"/><path d="m45.0009 15.94c-.2523.6523-.7037 1.2086-1.29 1.59v.1l16.39 4.85v10.86h2v-12.34z" fill="#fdc00f"/><path d="m32.8594 14.7c0-1.73 2.37-3.13 5.29-3.13s5.28 1.4 5.28 3.13-2.37 3.13-5.28 3.13-5.29-1.4-5.29-3.13z" fill="#184f78"/></svg>