<svg fill="none" height="60" viewBox="0 0 69 60" width="69" xmlns="http://www.w3.org/2000/svg"><g clip-rule="evenodd" fill-rule="evenodd"><path d="m40.65 13.23c-.0666-1.7152-.7948-3.33787-2.0318-4.52779s-2.8868-1.85455-4.6032-1.85455-3.3662.66463-4.6032 1.85455-1.9652 2.81259-2.0318 4.52779h-6.63c.0949-3.45507 1.534-6.73676 4.0114-9.14699 2.4773-2.41023 5.7973-3.758791 9.2536-3.758791s6.7763 1.348561 9.2536 3.758791c2.4774 2.41023 3.9165 5.69192 4.0114 9.14699z" fill="#e74b3c"/><path d="m.00000965 12.64h68.08999035v42c-.0026 1.3969-.5587 2.7358-1.5465 3.7235-.9877.9878-2.3266 1.5438-3.7235 1.5465h-57.56999c-1.39687-.008-2.73368-.5691-3.71767-1.5606-.984003-.9915-1.53499852-2.3325-1.53233035-3.7294z" fill="#e74b3c"/><path d="m0 12.64h68.09v13.86c-.0053 3.6761-1.4666 7.2005-4.0641 9.8018-2.5976 2.6012-6.1198 4.0676-9.7959 4.0782h-40.4c-3.6701-.0211-7.18312-1.4918-9.77362-4.0917-2.5905-2.5998-4.04852515-6.1182-4.05638-9.7883z" fill="#3dbce9"/><path d="m18.82 32.92h-5.06c-.3404-.0013-.6746.0914-.9657.2679-.2911.1764-.5279.4297-.6843.7321l-12.11-10.28v4.94l11.88 10v4.22c.0053.5022.2092.9818.5671 1.3341s.8407.5486 1.3429.5459h5.06c.4978-.0026.9745-.2015 1.3265-.5535s.5509-.8287.5535-1.3265v-3.09h26.51v3.09c0 .4969.1967.9736.5471 1.3259.3504.3522.826.5514 1.3229.5541h5.07c.2482.0013.4942-.0463.724-.14.2298-.0938.4389-.2319.6154-.4065.1764-.1746.3167-.3822.4129-.611s.1464-.4743.1477-.7225v-4.22l12-10.18v-4.91l-12.29 10.41c-.1538-.3023-.3887-.5559-.6783-.7325-.2895-.1765-.6225-.2692-.9617-.2675h-5.07c-.4969.0027-.9725.2019-1.3229.5542-.3504.3522-.5471.8289-.5471 1.3258v1.22h-26.51v-1.2c-.0026-.4978-.2015-.9744-.5535-1.3264s-.8287-.551-1.3265-.5536z" fill="#e74b3c"/><path d="m18.82 32.92h-5.06c-.3404-.0013-.6746.0914-.9657.2679-.2911.1764-.5279.4297-.6843.7321l-12.11-10.28v5.09l11.88 9.9v1.6c.6618.1014 1.3305.1516 2 .15h6.82v-.62h26.51v.62h7c.6188-.0035 1.2368-.0469 1.85-.13v-1.62l11.85-10c.1091-.6946.1626-1.3968.16-2.1v-3l-12.28 10.37c-.1538-.3023-.3887-.5559-.6783-.7325-.2895-.1765-.6225-.2692-.9617-.2675h-5.07c-.4969.0027-.9725.2019-1.3229.5542-.3504.3522-.5471.8289-.5471 1.3258v1.22h-26.51v-1.2c-.0026-.4978-.2015-.9744-.5535-1.3264s-.8287-.551-1.3265-.5536z" fill="#eda91a"/><path d="m20.7716 36.0001h-.07v-1.2001c-.0027-.4977-.2016-.9744-.5536-1.3264s-.8286-.5509-1.3264-.5536h-5.06c-.3404-.0012-.6746.0915-.9657.2679-.2911.1765-.5279.4298-.6843.7321l-.13-.0999-.13 5.06v4c.0052.5021.2091.9818.567 1.3341s.8408.5485 1.343.5459h5.06c.4978-.0027.9744-.2016 1.3264-.5536s.5509-.8286.5536-1.3264v-3.0901h26.51v.62h7c.6188-.0034 1.2367-.0468 1.85-.1299v-1.6201l11.85-10c.109-.6946.1625-1.3968.16-2.0999v-3l-12.19 10.31h-.08c-.1539-.3023-.3887-.5559-.6783-.7325s-.6226-.2692-.9617-.2675h-5.07c-.4969.0026-.9725.2018-1.3229.5541s-.5471.829-.5471 1.3259v1.25z" fill="#647b98"/><path d="m47.2116 40.3801v2.4699c0 .4969.1967.9736.5471 1.3259s.826.5515 1.3229.5541h5.07c.2482.0014.4942-.0462.724-.14.2298-.0937.4389-.2318.6153-.4064.1765-.1746.3168-.3822.413-.611s.1464-.4744.1477-.7226v-4.2199l12-10v-5.06l-12.19 10.31h-.08c-.1539-.3023-.3887-.5559-.6783-.7325s-.6226-.2692-.9617-.2675h-5.07c-.4969.0026-.9725.2018-1.3229.5541s-.5471.829-.5471 1.3259v1.24h-26.5v-1.2001c-.0027-.4977-.2016-.9744-.5536-1.3264s-.8286-.5509-1.3264-.5536h-5.06c-.3404-.0012-.6746.0915-.9657.2679-.2911.1765-.5279.4298-.6843.7321l-.41-.3599-.1 5.07.25 1.62v2.62c.0052.5021.2091.9818.567 1.3341s.8408.5485 1.343.5459h5.06c.4978-.0027.9744-.2016 1.3264-.5536s.5509-.8286.5536-1.3264v-3.09h26.51z" fill="#eda91a"/><path d="m11.6 38.4-11.6-9.67c.290903 3.0158 1.64626 5.8295 3.82319 7.9367 2.17693 2.1073 5.03314 3.3705 8.05681 3.5633l-.25-1.62z" fill="#e74b3c"/></g><path d="m47.2092 39.76h-26.51v.85h26.51z" fill="#e74b3c"/><path clip-rule="evenodd" d="m67.9308 28.71-11.88 9.9199v1.62c2.5661-.2604 5.0167-1.1992 7.1-2.7199 2.6236-2.2522 4.3254-5.3923 4.78-8.82z" fill="#e74b3c" fill-rule="evenodd"/></svg>