<svg fill="none" height="67" viewBox="0 0 74 67" width="74" xmlns="http://www.w3.org/2000/svg"><g clip-rule="evenodd" fill-rule="evenodd"><path d="m43.5408 33.71c-.2996-.2666-.6495-.4704-1.0292-.5994s-.7814-.1805-1.1813-.1516-.79.1377-1.1472.3199-.6742.4342-.9323.7411c-.5179.6347-.7753 1.4426-.72 2.26.0649.5738.2898 1.1178.649 1.5699s.8383.7941 1.3826.987 1.1318.2289 1.6956.1039c.5637-.125 1.081-.4059 1.4928-.8108l.13-.13c.407-.4688.6585-1.0523.72-1.67.0593-.4852-.0008-.9774-.175-1.4341-.1743-.4566-.4575-.8637-.825-1.1859z" fill="#46433e"/><path d="m48.81 34.74c-1 1.31-4.32 6.55-5.81 6.94l7.1 7.43c-1.0997 2.5263-1.3163 5.3494-.615 8.0139s2.2797 5.015 4.4806 6.6726c2.2009 1.6575 4.8959 2.5254 7.6505 2.4636 2.7545-.0617 5.408-1.0496 7.5324-2.8042s3.5957-4.1736 4.1769-6.8668c.5811-2.6933.2381-5.5038-.9738-7.9783-1.2118-2.4744-3.2219-4.4685-5.7059-5.6606s-5.2972-1.5128-7.9857-.9102c-1.1509.2407-2.2552.6662-3.27 1.26zm10.9 12c1.4991-.334 3.0649-.1933 4.4804.4026s2.6106 1.6175 3.4194 2.9231 1.1915 2.8305 1.0947 4.3632c-.0967 1.5328-.6679 2.9975-1.6345 4.1911-1.2629 1.4794-3.0474 2.4151-4.9825 2.6125s-3.8719-.3586-5.4075-1.5525c-1.5172-1.238-2.481-3.0276-2.6798-4.9757-.1987-1.9481.3839-3.8954 1.6198-5.4143 1.0456-1.2769 2.4833-2.1732 4.09-2.55z" fill="#7cba20"/><path d="m30.0018 32.6799 8.51.1001 4.08-5.19c-5.5877-4.9552-12.0706-8.7974-19.1-11.32l-15.48-5c-.31169-.1012-.64892-.0907-.95368.0297-.30476.1205-.55801.3433-.71631.6302-.15691.2897-.20977.6245-.14972.9484.06006.3239.22935.6175.47968.8317z" fill="#dce1e4"/><path d="m37.9102 33.35-36.19993 9.07c-.31738.0882-.5953.2818-.787963.549-.192666.2672-.2886.592-.272034.921.017144.3301.151344.6434.378597.8834.22726.2401.53269.3914.86139.4266l11.58994 3c1.37.31 16.2301-3.24 25.1501-5.45-.3534-2.7627-.5337-5.5448-.54-8.33v-1.31l-.1601.2z" fill="#dce1e4"/><path d="m39.2498 34c.2581-.3068.5752-.5588.9323-.7411.3572-.1822.7473-.291 1.1472-.3199.4-.0289.8017.0227 1.1813.1517.3797.129.7296.3328 1.0292.5993.3675.3222.6507.7294.825 1.186s.2343.9489.175 1.434c-.0614.6178-.313 1.2012-.72 1.67l-.13.13c-.4117.4049-.929.6859-1.4928.8109-.5637.125-1.1512.089-1.6955-.1039s-1.0234-.535-1.3827-.9871c-.3592-.4521-.5841-.9961-.649-1.5699-.0553-.8174.2021-1.6252.72-2.26zm9.56.72 5.68-10.26c1.9594.5348 4.0208.576 6 .12 2.8194-.6176 5.3261-2.2202 7.07-4.52 1.2251-1.605 2.0352-3.4876 2.3584-5.4808.3232-1.9931.1495-4.0353-.5057-5.94519-.6552-1.90993-1.7716-3.62866-3.2502-5.00373-1.4786-1.37508-3.2737-2.36399-5.2261-2.879048-1.9524-.515053-4.0017-.540325-5.9662-.073563-1.9645.466761-3.7834 1.411121-5.2955 2.749331-1.5121 1.3382-2.6705 3.02889-3.3726 4.92209-.702 1.89321-.926 3.93041-.6521 5.93091.2734 2.0784 1.0833 4.0498 2.35 5.72-3.3333 4.4467-6.6667 8.8767-10 13.29 0 0-1.88 9-2.16 10.13 1.72-.41 6.07-1.49 7.2-1.77l2.29-.59zm4.5-16.2c-1.5592-1.1879-2.5835-2.946-2.8478-4.8884-.2644-1.9423.2528-3.91013 1.4378-5.47158 1.0576-1.37028 2.5549-2.33439 4.24-2.73002 1.4785-.33728 3.025-.21092 4.4291.3619 1.4041.57281 2.5977 1.56428 3.4183 2.8395.8207 1.27523 1.2286 2.7723 1.1682 4.2876-.0604 1.5152-.5861 2.9751-1.5056 4.181-1.2178 1.51-2.9663 2.4979-4.8882 2.7619-1.9219.2639-3.872-.2161-5.4518-1.3419z" fill="#8acf24"/></g></svg>