<svg fill="none" height="150" viewBox="0 0 167 150" width="167" xmlns="http://www.w3.org/2000/svg"><path d="m119.34 16.07v125.18c-.001 2.228-.865 4.37-2.41 5.975-1.546 1.605-3.653 2.55-5.88 2.635h-102.35969c-2.28709-.003-4.47958-.913-6.09586-2.531-1.616275-1.618-2.524139-3.812-2.5241375-6.099v-103.32h.9200135l32.859974-30.19003v-.26996h77.1997c2.23.08291 4.34 1.02786 5.886 2.63579 1.547 1.608 2.408 3.7533 2.404 5.9842z" fill="#fee2bb"/><path d="m33.8483 7.71997v21.56003c-.0009 2.2267-.8634 4.3667-2.4069 5.9717-1.5434 1.605-3.6481 2.5505-5.8731 2.6383h-24.580019z" fill="#d3c0ad"/><path d="m134.241 104.64v.48c0 1.958-.385 3.897-1.135 5.706-.749 1.809-1.847 3.452-3.232 4.837-1.384 1.384-3.028 2.483-4.837 3.232s-3.748 1.135-5.706 1.135-3.897-.386-5.706-1.135c-1.808-.749-3.452-1.848-4.837-3.232-1.384-1.385-2.482-3.028-3.232-4.837-.749-1.809-1.135-3.748-1.135-5.706 0-.16 0-.32 0-.48-7.4258-3.4-13.4655-9.2383-17.116-16.5446-3.6504-7.3063-4.6921-15.6415-2.952-23.6215s6.1572-15.1247 12.5181-20.248 14.2829-7.9169 22.4499-7.9169c8.168 0 16.09 2.7936 22.45 7.9169 6.361 5.1233 10.779 12.268 12.519 20.248s.698 16.3152-2.952 23.6215c-3.651 7.3063-9.691 13.1446-17.117 16.5446z" fill="#f8ac22"/><path d="m134.241 104.64v.48c0 3.395-1.158 6.689-3.284 9.336-2.125 2.648-5.091 4.491-8.406 5.224-2.412-1.259-4.433-3.155-5.844-5.483-1.41-2.327-2.156-4.996-2.156-7.717v-.48c-7.402-3.389-13.428-9.2006-17.0821-16.4753-3.6545-7.2747-4.7197-15.5779-3.0197-23.5395s6.0638-15.1059 12.3708-20.2536 14.18-7.9913 22.321-8.0616c7.046 2.0021 13.308 6.1173 17.942 11.7903 4.633 5.673 7.415 12.6308 7.97 19.9345.555 7.3038-1.144 14.6019-4.867 20.9098-3.724 6.3079-9.292 11.3214-15.955 14.3654z" fill="#fcbd1f"/><path d="m131.482 118.11c-.003 1.187-.476 2.325-1.316 3.165-.839.84-1.977 1.312-3.164 1.315h-15.42c-1.189 0-2.328-.472-3.168-1.312s-1.312-1.98-1.312-3.168c-.002-.589.113-1.172.338-1.716s.555-1.038.971-1.455c.416-.416.91-.746 1.455-.971.544-.224 1.127-.339 1.716-.338h15.42c1.188 0 2.327.472 3.167 1.312.841.84 1.313 1.98 1.313 3.168z" fill="#584a4b"/><path d="m129.49 125.13c.001.493-.095.981-.283 1.437-.188.455-.464.869-.813 1.218-.348.348-.762.624-1.218.812-.455.188-.943.284-1.436.283h-12.9c-.493.001-.981-.095-1.437-.283-.455-.188-.869-.464-1.218-.812-.348-.349-.624-.763-.812-1.218-.188-.456-.284-.944-.283-1.437.003-.993.399-1.944 1.102-2.645s1.655-1.095 2.648-1.095h12.9c.993 0 1.945.394 2.648 1.095s1.099 1.652 1.102 2.645z" fill="#584a4b"/><path d="m112.629 128.88c.181 1.653.966 3.182 2.204 4.292s2.843 1.724 4.506 1.724 3.268-.614 4.506-1.724 2.023-2.639 2.204-4.292z" fill="#584a4b"/><g stroke-linecap="round" stroke-linejoin="round"><path d="m119.352 26.78v-24.62003" stroke="#fcbd1f" stroke-width="2.59"/><path d="m148.121 35.49 17.41-17.41" stroke="#fcbd1f" stroke-width="2.59"/><path d="m86.2498 35.49-17.41-17.41" stroke="#fcbd1f" stroke-width="2.59"/><path d="m13.3984 57.43h66.16" stroke="#584a4b" stroke-width="3.24"/><path d="m13.3984 76.33h66.16" stroke="#584a4b" stroke-width="3.24"/><path d="m13.3984 96.36h66.16" stroke="#584a4b" stroke-width="3.24"/><path d="m13.3984 115.5h76.47" stroke="#584a4b" stroke-width="3.24"/></g></svg>