<svg fill="none" height="166" viewBox="0 0 48 166" width="48" xmlns="http://www.w3.org/2000/svg"><path d="m47.9489 39.21h-47.819994v84.63h47.819994z" fill="#f8ac22"/><path d="m47.9011 26.04c-.17-14.41-10.8-26.000022-23.89-26.000022s-23.710006 11.620022-23.890006 26.000022z" fill="#e73147"/><path d="m47.9489 26.03h-47.819994v13.17h47.819994z" fill="#a8a8a7"/><path d="m47.9489 123.84-16.18 28.17-7.73 13.45-7.73-13.45-16.179994-28.17z" fill="#f8b06c"/><path d="m31.7686 152.01-7.73 13.45-7.73-13.45z" fill="#584a4b"/><path d="m31.76 39.21h-18.01v84.63h18.01z" fill="#f08225"/><path d="m44.3984 115.77c0 1-.45 1.87-1 1.87s-1-.84-1-1.87v-71.82c0-1 .45-1.87 1-1.87s1 .84 1 1.87z" fill="#fff"/></svg>