<svg fill="none" height="57" viewBox="0 0 48 57" width="48" xmlns="http://www.w3.org/2000/svg"><path d="m28.6806 53.7 9.06-15.7 9-15.68c.5981-1.048.797-2.2769.56-3.46l-.59-2.25c.2526 1.1979.0569 2.4468-.55 3.51l-9 15.68-9.06 15.68c-.663 1.1484-1.7551 1.9863-3.036 2.3295-1.2808.3432-2.6456.1635-3.794-.4995l-17.54997-10.13c-1.14107-.6546-1.97822-1.7324-2.33001-3l.75 2.79h.06c.40668 1.0339 1.15004 1.9006 2.11 2.46l17.54998 10.13c1.1512.6574 2.5162.8307 3.7951.4819s2.3669-1.1911 3.0249-2.3419z" fill="#bd4917"/><path d="m10.2806 18.23-9.05996 15.68c-.663007 1.1484-.842681 2.5131-.499492 3.794.343192 1.2808 1.181132 2.3729 2.329502 3.036l17.54995 10.13c1.1484.663 2.5132.8427 3.794.4995 1.2809-.3432 2.373-1.1811 3.036-2.3295l9.0601-15.68z" fill="#fc611f"/><path d="m45.5412 17.67c.6631-1.1484.8427-2.5131.4995-3.794-.3431-1.2809-1.1811-2.3729-2.3294-3.036l-17.55-10.129991c-1.1484-.6630113-2.5132-.842686-3.794-.499496-1.2809.343189-2.373 1.181117-3.036 2.329487l-9.0501 15.69 26.2101 15.13z" fill="#184f78"/><path d="m28.0912 51.49 9.06-15.68 9-15.68c.6094-1.066.8051-2.319.55-3.52v-.11c0-.11 0-.22-.08-.33l-.61-2.3c.342 1.2797.1622 2.6428-.5 3.79l-9 15.69-9.08 15.65c-.663 1.1484-1.7551 1.9863-3.036 2.3295-1.2808.3432-2.6455.1635-3.7939-.4995l-17.55005-10.13c-1.09608-.6402-1.90762-1.6734-2.27-2.89l.62 2.3c.35178 1.2676 1.18893 2.3454 2.33 3l17.54995 10.13c1.137.6635 2.4897.8518 3.7646.5242s2.3692-1.1448 3.0454-2.2742z" fill="#123b5a"/></svg>