<svg fill="none" height="63" viewBox="0 0 46 63" width="46" xmlns="http://www.w3.org/2000/svg"><path clip-rule="evenodd" d="m3.24951 24.66c-.48447-.0278-.9423-.2308-1.28818-.5712s-.55623-.7948-.59183-1.2788v-.18c.04249-.4786.25586-.9259.60108-1.2601.34521-.3342.7992-.533 1.27893-.5599v-13.12c.00526-1.16268.46948-2.27624 1.29162-3.09839.82215-.82214 1.93571-1.28636 3.09839-1.29162h14.21998v-2.570009c-.0052-.179511-.0802-.34987-.209-.474976-.1289-.125105-.3014-.1950824-.481-.195007h-17.87001c-.43279-.0026552-.86178.080659-1.26214.245056-.40036.164398-.7641.406612-1.070132.712646-.306035.30604-.548279.66977-.712677 1.07013-.1643973.40036-.24768059.82936-.24502536 1.26215v19.38002c-.00995068.2867.02374376.5734.09997536.85.176628.6732.562199 1.273 1.101259 1.7133.53906.4402 1.20383.6982 1.89874.7367.03662-.0027.0734-.0027.11002 0h.04998v-1.39z" fill="#3d3c3d" fill-rule="evenodd"/><path d="m28.5812 30.8101h-17.05v.57h17.05z" fill="#666"/><path d="m28.5812 31.5801h-17.05v.54h17.05z" fill="#666"/><path d="m28.5812 32.3201h-17.05v.57h17.05z" fill="#666"/><path d="m28.5812 30.0601h-17.05v.57h17.05z" fill="#666"/><path d="m9.64954 26.46h-2.88001v.56h2.88001z" fill="#666"/><path d="m9.64954 27.21h-2.88001v.57h2.88001z" fill="#666"/><path d="m9.64954 27.95h-2.88001v.57h2.88001z" fill="#666"/><path d="m9.64954 25.6899h-2.88001v.56h2.88001z" fill="#666"/><path clip-rule="evenodd" d="m29.8316 30.7601c-.0893.0013-.1775.0201-.2595.0555s-.1562.0867-.2184.1507c-.0622.0641-.1112.1398-.1442.2228s-.0492.1717-.0479.261v1.88h-17.16c-.4915-.0183-.959-.2171-1.3132-.5584s-.5703-.8011-.6068-1.2916v-.18c.0231-.4935.2356-.959.5932-1.2998.3576-.3409.8328-.5308 1.3268-.5303h17.72.15c.1856 0 .3637-.0737.4949-.205.1313-.1312.2051-.3093.2051-.4949v-19.38001c-.0052-.18125-.0816-.35319-.2126-.47858-.131-.12538-.3061-.19417-.4874-.19146h-17.87c-.8726 0-1.7094.34663-2.3264.96362-.61699.61703-.96362 1.45383-.96362 2.32643v19.39c-.00608.2872.03101.5737.11002.85.17563.6728.56119 1.2722 1.10067 1.711.53953.4388 1.20483.6941 1.89933.729h.1 18c.0919 0 .1829-.0181.2679-.0533.0849-.0352.1621-.0867.2271-.1517s.1165-.1422.1517-.2272c.0352-.0849.0533-.1759.0533-.2678v-2.57c0-.0915-.0182-.182-.0535-.2664s-.087-.1609-.1521-.2251c-.0652-.0642-.1424-.1148-.2273-.1489s-.1756-.051-.2671-.0496z" fill="#f46c9e" fill-rule="evenodd"/><path d="m5.67126 22.01h-3.14001v.54h3.14001z" fill="#666"/><path d="m5.67126 22.76h-3.14001v.57h3.14001z" fill="#666"/><path d="m5.67126 23.51h-3.14001v.57h3.14001z" fill="#666"/><path d="m5.67126 21.24h-3.14001v.57h3.14001z" fill="#666"/><path clip-rule="evenodd" d="m7.5711 29c-.48434-.0197-.94355-.221-1.28631-.5638-.34277-.3427-.544-.8019-.56369-1.2862v-.15c.03933-.4756.2474-.9215.58667-1.2571.33926-.3356.78736-.5388 1.26333-.573v-1c0-4.47 0-9.66 0-11.51v-.6599c0-1.159.46041-2.27054 1.27994-3.09008.81953-.81953 1.93106-1.27996 3.09006-1.27996h14.25v-2.57001c0-.09146-.0182-.18199-.0535-.26636s-.087-.16089-.1521-.2251c-.0652-.0642-.1424-.11484-.2273-.14892s-.1757-.05095-.2671-.04962h-17.84999c-.87706.00263-1.71744.35223-2.33762.97241-.62017.62017-.96977 1.46053-.97241 2.33758-.00915.02588-.00915.05414 0 .08002v.53998 11.52006 7.2199c.00176.298.04553.5943.13001.88.18253.6691.57003 1.2643 1.10809 1.7019s1.19965.6957 1.89191.7381h.14999c0-.39 0-.8499 0-1.3599z" fill="#f4c92d" fill-rule="evenodd"/><path d="m37.0103 37.78h-18.44v.62h18.44z" fill="#c7c3c2"/><path d="m37.0103 38.6h-18.44v.62h18.44z" fill="#c7c3c2"/><path d="m37.0103 39.4199h-18.44v.59h18.44z" fill="#c7c3c2"/><path d="m37.0103 36.98h-18.44v.59h18.44z" fill="#c7c3c2"/><g clip-rule="evenodd" fill-rule="evenodd"><path d="m38.6018 37.7c-.1945-.0027-.3823.0714-.5227.2061-.1404.1348-.222.3194-.2273.5139v2.05h-18.58c-.5376-.0044-1.0532-.2138-1.4416-.5855-.3885-.3717-.6204-.8776-.6484-1.4145v-.21c.0304-.536.263-1.0406.6509-1.4119.3879-.3712.9022-.5814 1.4391-.5881h19.15c.0596.0099.1204.0099.18 0 .1939.0002.3802-.0747.52-.209.1398-.1342.2223-.3174.23-.511v-12l-3.83 5.7-5 3.71 1-6 7.85-11.69v-.65c-.0026-.1972-.0828-.3854-.2231-.5239-.1404-.1385-.3297-.2161-.5269-.2161h-19.35c-.9461.0052-1.8521.3827-2.5221 1.0508s-1.05 1.5731-1.0579 2.5192v.08.62 12.47 1.15 6.53c-.0162.0418-.0162.0882 0 .13.0039.3142.0476.6267.13.93.1991.7202.6186 1.3601 1.1996 1.8299.581.4699 1.2945.7461 2.0404.7901h.1 19.44c.1981-.0026.3874-.0825.5275-.2226s.2199-.3293.2225-.5274v-2.8c-.0052-.1945-.0869-.3791-.2272-.5139-.1404-.1347-.3282-.2088-.5228-.2061z" fill="#dcb400"/><path d="m18.5718 36.4099v-22.49c-.8084.1612-1.5365.5965-2.0612 1.2323-.5248.6359-.814 1.4333-.8188 2.2577v.08.62 12.4701 1.1499 6.53c-.0162.0419-.0162.0882 0 .1301.0039.3142.0476.6267.13.9299.1817.6378.5337 1.2141 1.0182 1.6669s1.0832.765 1.7318.9032v-1.5401c-.3912-.1414-.7319-.3953-.9792-.7298s-.3902-.7347-.4108-1.1502v-.21c.0324-.4084.1803-.7992.4264-1.1268s.5803-.5784.9636-.7232z" fill="#b29200"/><path d="m37.8483 40.47h-18.58c-.2672.0005-.5321-.0504-.78-.15v1.54c.1874.0427.3781.0695.57.08h.1 19.44c.1981-.0026.3874-.0824.5275-.2225s.2199-.3294.2225-.5275v-2.8c0-.1989-.079-.3897-.2197-.5303-.1406-.1407-.3314-.2197-.5303-.2197s-.3897.079-.5303.2197c-.1407.1406-.2197.3314-.2197.5303z" fill="#b29200"/><path d="m42.8709 11.8599-10.41 15.5301.69.4099 10.41-15.5299c.0448-.0726.0817-.1497.1101-.2301l-.6201-.36c-.074.0442-.1358.106-.18.18z" fill="#4b808c"/><path d="m45.1583 13.17-10.42 15.53.52.28 9.87-14.7c.1429-.18.2312-.3973.2542-.6259.0231-.2287-.0201-.4592-.1242-.6641-.0145.0631-.0381.1237-.07.18z" fill="#1b5f7b"/><path d="m32.4598 27.3901 10.41-15.53c.0442-.074.106-.1359.18-.18-.2447-.0362-.4947.0004-.7188.1053-.224.1049-.4122.2735-.5411.4847l-9.9501 14.73.56.33z" fill="#1b5f7b"/><path d="m44.46 12.76-10.46 15.53.75.41 10.41-15.53c.0303-.0554.0474-.117.05-.18l-.64-.39c-.0469.0503-.0903.1038-.13.16z" fill="#1b5f7b"/><path d="m33.9989 28.29 10.44-15.5299c.0397-.0562.0831-.1097.13-.1601l-.92-.56c0 .08-.08.1501-.11.2301l-10.41 15.5z" fill="#4b808c"/><path d="m31.3192 30.37 1.55-2.29-1.26-.69-.41 2.9z" fill="#efbb86"/><path d="m34.0009 28.75-1.54 2.29.07.03 2.47-1.75z" fill="#efbb86"/><path d="m32.8703 28.0801-1.55 2.29 1.14.6699 1.54-2.2899z" fill="#f2c89d"/><path d="m32.0389 30.78-.66 1.11 1.15-.82-.07-.03z" fill="#1a1a1a"/><path d="m31.3814 31.89.69-1.08-.33-.21-.72 1.11-.08.46z" fill="#2b2b2b"/><path d="m31.1719 30.6.15-.2299-.12-.0801z" fill="#1a1a1a"/><path d="m31.0195 31.73.72-1.13-.42-.23-.1499.23z" fill="#1a1a1a"/><path d="m20.1406 13.8401v9.43l3.5-2.77 3.34 2.77v-9.43h-1.62z" fill="#b29200"/><path d="m20.4218 34h-.67c-.098 0-.1951.0194-.2855.0573-.0905.0378-.1725.0932-.2413.163-.0689.0698-.1232.1525-.1598.2434-.0366.091-.0547.1883-.0534.2863v27.2c0 .0972.0191.1934.0563.2832s.0917.1714.1604.2401.1503.1232.2401.1604.186.0563.2832.0563h.67c.0959-.0013.1905-.0215.2786-.0594s.1678-.0928.2347-.1615c.0668-.0687.1195-.1499.155-.239.0354-.0891.053-.1842.0517-.2801v-27.2c.0027-.1946-.0714-.3824-.2061-.5228-.1348-.1403-.3194-.222-.5139-.2272z" fill="#fff"/><path d="m30.5781 34h-.67c-.0971-.0001-.1933.0195-.2826.0576-.0894.038-.1701.0937-.2374.1638-.0673.07-.1196.153-.154.2439-.0344.0908-.05.1877-.046.2847v27.2c-.0026.0962.014.192.049.2817s.0876.1714.1547.2404.1474.1238.2361.1613c.0887.0374.184.0566.2802.0566h.67c.0963 0 .1916-.0192.2803-.0566.0886-.0375.1689-.0923.236-.1613.0672-.069.1198-.1507.1548-.2404.0349-.0897.0516-.1855.0489-.2817v-27.2c.0041-.097-.0116-.1939-.0459-.2847-.0344-.0909-.0868-.1739-.154-.2439-.0673-.0701-.1481-.1258-.2374-.1638-.0894-.0381-.1856-.0577-.2827-.0576z" fill="#fff"/></g><path d="m29.761 38.0801h-9.0501v1.05h9.0501z" fill="#fff"/><path d="m29.6789 42.9399h-9.05v1.03h9.05z" fill="#fff"/><path d="m29.8312 47.8h-9.05v1.0301h9.05z" fill="#fff"/><path d="m29.6281 52.6599h-9.05v1.03h9.05z" fill="#fff"/><path d="m29.55 57.52h-9.05v1.03h9.05z" fill="#fff"/></svg>