<svg fill="none" height="106" viewBox="0 0 167 106" width="167" xmlns="http://www.w3.org/2000/svg"><path d="m166.05.0499878h-125.32c-6.9566 0-13.6283 2.7635122-18.5474 7.6825822-4.9191 4.91913-7.6826 11.59083-7.6826 18.54743s2.7635 13.6283 7.6826 18.5474 11.5908 7.6826 18.5474 7.6826h125.32z" fill="#e73147"/><path d="m166.049 12.38h-105.31c-9.77 0-17.6999 6.4-17.6999 14.31s7.9299 14.29 17.6999 14.29h105.31z" fill="#fff"/><path d="m152.14 52.55h-125.3201c-6.9566 0-13.6284 2.7635-18.54744 7.6826-4.91908 4.9191-7.682616 11.5907-7.682616 18.5474 0 6.9566 2.763536 13.6283 7.682616 18.5474 4.91904 4.9186 11.59084 7.6826 18.54744 7.6826h125.3201z" fill="#138971"/><path d="m152.141 64.84h-105.3004c-9.77 0-17.7 6.41-17.7 14.31s7.93 14.29 17.7 14.29h105.3004z" fill="#fff"/><g fill="#e73147"><path d="m164.03 19.34c0 .4456-.177.8729-.492 1.1879-.315.3151-.742.4921-1.188.4921h-103.9199c-.4456 0-.873-.177-1.188-.4921-.3151-.315-.4921-.7423-.4921-1.1879s.177-.8729.4921-1.188c.315-.315.7424-.492 1.188-.492h103.9199c.446 0 .873.177 1.188.492.315.3151.492.7424.492 1.188z"/><path d="m164.03 26.24c0 .4465-.177.8748-.491 1.1915-.315.3166-.743.4959-1.189.4985h-103.9199c-.4465-.0026-.8739-.1819-1.1886-.4985-.3148-.3167-.4915-.745-.4915-1.1915 0-.4456.177-.8729.4921-1.1879.315-.3151.7424-.4921 1.188-.4921h103.9199c.446 0 .873.177 1.188.4921.315.315.492.7423.492 1.1879z"/><path d="m164.03 34.02c0 .4465-.177.8748-.491 1.1915-.315.3166-.743.4958-1.189.4985h-103.9199c-.4465-.0027-.8739-.1819-1.1886-.4985-.3148-.3167-.4915-.745-.4915-1.1915 0-.4456.177-.8729.4921-1.1879.315-.3151.7424-.4921 1.188-.4921h103.9199c.446 0 .873.177 1.188.4921.315.315.492.7423.492 1.1879z"/></g><path d="m150.319 71.8c0 .4456-.177.8729-.492 1.1879-.315.3151-.742.4921-1.188.4921h-103.92c-.2206 0-.439-.0435-.6428-.1279-.2039-.0844-.3891-.2082-.5451-.3642s-.2798-.3412-.3642-.545c-.0845-.2039-.1278-.4223-.1278-.6429s.0433-.4391.1278-.6429c.0844-.2038.2082-.389.3642-.545s.3412-.2798.5451-.3642c.2038-.0845.4222-.1279.6428-.1279h103.92c.446 0 .873.177 1.188.4921.315.315.492.7423.492 1.1879z" fill="#138971"/><path d="m150.319 78.7c0 .4456-.177.8729-.492 1.1879-.315.3151-.742.4921-1.188.4921h-103.92c-.2206 0-.439-.0435-.6428-.1279-.2039-.0845-.3891-.2082-.5451-.3642s-.2798-.3412-.3642-.545c-.0845-.2038-.1278-.4223-.1278-.6429s.0433-.4391.1278-.6429c.0844-.2039.2082-.3891.3642-.5451s.3412-.2797.5451-.3641c.2038-.0844.4222-.1279.6428-.1279h103.92c.446 0 .873.177 1.188.492.315.3151.492.7424.492 1.188z" fill="#138971"/><path d="m150.319 86.48c.001.2214-.041.441-.125.646s-.207.3913-.363.5484c-.157.157-.342.2817-.547.3667-.204.0851-.423.1289-.645.1289h-103.92c-.2214 0-.4406-.0438-.6451-.1289-.2045-.085-.3901-.2097-.5463-.3667-.1561-.1571-.2797-.3434-.3635-.5484s-.1263-.4246-.125-.646c.0026-.4438.1808-.8686.4956-1.1815s.7405-.4885 1.1843-.4885h103.92c.444 0 .87.1756 1.185.4885.314.3129.492.7377.495 1.1815z" fill="#138971"/></svg>