<svg fill="none" height="112" viewBox="0 0 169 112" width="169" xmlns="http://www.w3.org/2000/svg"><path d="m152.189 5.94998h-135.5398c-2.7052 0-5.2996 1.07465-7.21249 2.98752-1.91287 1.9129-2.98749 4.5073-2.98749 7.2125v84.75c0 1.339.26383 2.666.77643 3.903.5126 1.238 1.2639 2.362 2.21106 3.309.94719.948 2.07159 1.699 3.30909 2.212 1.2376.512 2.5639.776 3.9034.776h135.5398c2.633-.101 5.124-1.217 6.951-3.115 1.828-1.898 2.849-4.43 2.849-7.065v-84.78c0-2.6356-1.021-5.1686-2.848-7.06828-1.827-1.89964-4.318-3.01838-6.952-3.12174z" fill="#8e2129"/><path d="m157.488 5.94999h-135.5397c-1.3403-.00132-2.6678.26155-3.9064.77356-1.2387.51201-2.3643 1.26313-3.3125 2.21041-.9482.94729-1.7005 2.07214-2.2137 3.31034s-.7774 2.5654-.7774 3.9057v84.75c.0026 2.706 1.0795 5.301 2.994 7.213 1.9145 1.913 4.5099 2.987 7.216 2.987h135.5397c2.631-.103 5.12-1.221 6.945-3.119s2.845-4.428 2.845-7.061v-84.78c0-2.6339-1.019-5.1656-2.844-7.06492-1.825-1.89937-4.314-3.01922-6.946-3.12509z" fill="#e73147"/><path d="m44.1981 3.10999-42.36998 42.36001" stroke="#8e2129" stroke-linecap="round" stroke-linejoin="round" stroke-width="3.24"/><path d="m124.93 1.89999 42.36 42.36001" stroke="#8e2129" stroke-linecap="round" stroke-linejoin="round" stroke-width="3.24"/><path d="m144.538 36.45v62.28c.002 1.937-.747 3.8-2.09 5.196-1.342 1.397-3.174 2.219-5.11 2.294h-99.6097c-.9849-.001-1.9599-.197-2.8693-.575-.9095-.378-1.7356-.931-2.4311-1.629-.6955-.697-1.2468-1.525-1.6225-2.435-.3757-.911-.5684-1.8861-.5671-2.871v-43.3h.8l28.57-26.24v-.23h77.7297c1.94.0727 3.776.8968 5.12 2.2982 1.343 1.4014 2.089 3.2704 2.08 5.2118z" fill="#fde3cc"/><g stroke="#8e2129" stroke-miterlimit="10" stroke-width="3.24"><path d="m42.9414 48.91h88.9096"/><path d="m42.9414 64.51h88.9096"/><path d="m102.961 79.84h28.89"/></g><path d="m59.609 29.19v18.75c-.0036 1.9348-.7547 3.7933-2.0965 5.1872-1.3417 1.3939-3.1702 2.2154-5.1034 2.2928h-21.37z" fill="#d3c0ad"/><path d="m39.5312 58.51h.81l-.81.74z" fill="#d3c0ad"/><path d="m69.1484 32.03-.25.24v-.24z" fill="#d3c0ad"/></svg>