<svg fill="none" height="58" viewBox="0 0 46 58" width="46" xmlns="http://www.w3.org/2000/svg"><path d="m41.5185 39.31-1.38-1.38c-4.1731 4.1732-9.8332 6.5177-15.735 6.5177-5.9017 0-11.5618-2.3445-15.73496-6.5177-4.17318-4.1732-6.51766-9.8332-6.51766-15.735s2.34448-11.5618 6.51766-15.73499l-1.39-1.39c-3.24128 3.24124-5.49578 7.33609-6.501329 11.80829-1.005547 4.4721-.7208189 9.1379.821089 13.4546 1.54191 4.3167 4.27763 8.107 7.88899 10.9301 3.61141 2.823 7.95001 4.5628 12.51121 5.017v7.17h4.9v-7.17c5.5338-.5591 10.7016-3.0228 14.62-6.97z" fill="#bd4917"/><path d="m31.3414 53.45h-13.87c-.4959-.0013-.9872.0952-1.4458.2841-.4585.1889-.8753.4664-1.2265.8166-.3511.3502-.6297.7662-.8198 1.2243-.1901.458-.2879.9491-.2879 1.445h21.42c0-.9999-.3972-1.9588-1.1042-2.6658s-1.6659-1.1042-2.6658-1.1042z" fill="#bd4917"/><path d="m29.0609 50.91h-9.32c-.6719.0026-1.3154.2714-1.7896.7475-.4741.476-.7404 1.1206-.7404 1.7925h14.38c0-.6719-.2662-1.3165-.7404-1.7925-.4742-.4761-1.1177-.7449-1.7896-.7475z" fill="#fc611f"/><path d="m43.2683 38.52c-.3153.0017-.6274.0628-.92.18l-34.46002-34.45c.12094-.29504.18212-.61114.18001-.93 0-.50236-.14897-.99345-.42807-1.41115s-.6758-.74326-1.13992-.935503c-.46413-.192246-.97484-.242549-1.46755-.144542-.49271.098006-.94529.339915-1.30052.695145-.35522.35522-.59714.80781-.69514 1.30052-.09801.49271-.0477 1.00342.14454 1.46755.19225.46412.5178.86082.9355 1.13992.4177.27909.90879.42806 1.41115.42806.31886.00212.63497-.05907.93001-.18l34.45001 34.46c-.1173.2926-.1783.6047-.18.92 0 .5024.149.9934.428 1.4111.2791.4177.6758.7433 1.14.9356.4641.1922.9748.2425 1.4675.1445s.9453-.3399 1.3005-.6952c.3553-.3552.5972-.8078.6952-1.3005s.0477-1.0034-.1446-1.4675c-.1922-.4641-.5178-.8608-.9355-1.1399s-.9087-.4281-1.4111-.4281z" fill="#fc611f"/><path d="m39.0003 7.62c2.8834 2.882 4.8472 6.5543 5.6433 10.5525.796 3.9982.3884 8.1427-1.1712 11.9093-1.5596 3.7665-4.2013 6.986-7.5908 9.251-3.3895 2.2651-7.3746 3.4741-11.4513 3.4741s-8.0618-1.209-11.4513-3.4741c-3.38951-2.265-6.03114-5.4845-7.59077-9.251-1.55964-3.7666-1.96721-7.9111-1.17118-11.9093.79604-3.9982 2.75993-7.6705 5.64327-10.5525 1.91298-1.91397 4.18438-3.43226 6.68438-4.46815 2.5-1.03588 5.1795-1.56906 7.8856-1.56906s5.3857.53318 7.8856 1.56906c2.5 1.03589 4.7714 2.55418 6.6844 4.46815z" fill="#16b6c6"/><g fill="#184f78"><path d="m12.2898 11s0 0 0-.09v.06h.0601.0999.09v-.05-.05h.14s0-.05 0-.08v-.15s0 0-.07 0v.06h-.08v-.06h.0701.0499s0 0 0-.06 0-.06 0-.09h-.09s.0001 0-.0699.06 0 0-.08 0v.06.09s-.0001 0-.0701 0v.06h-.06.15v.05h-.07-.1199v.06h-.1201v.09-.06h.06-.09.06c.06 0 .09.1.14.1z"/><path d="m15.0491 17.18v-.19l-.06-.08h-.1v-.07h-.07v-.06h-.05c-.11 0-.11 0-.18 0l-.1-.08v-.05h-.09-.08s0 0 0-.15v-.5-.05c-.12-.1-.17.15-.27.2v-.06-.08-.21-.07h-.08v.05h-.05v.09.06.06.07h-.08v.07l-.05.05h.09v.2.05.17-.05.14.06-.2c.0042.0399.0042.0801 0 .12v.09.06-.06-.11.12-.24.05.08.34-.05.06.11c0 .05 0 .05.08.11 0 .05 0 .05-.09.09h-.06v.06.07.09.09-.09.16.14.05h.08v-.08c.06.05.07.05.09 0 0 .1 0 .1-.11.18v.37.12h.09v-.12h.09.08v-.21-.06h.05l.05-.12h.05v-.06-.06-.1h-.05-.08v-.06z"/><path d="m15.3802 8.79001h.06v.05h.08.06v.16h.0699.0601c.0133-.0039.0252-.01169.0341-.02238s.0144-.02379.0158-.03762h.0601-.05c-.0436.00623-.0849.02344-.1201.05h-.3399v-.05-.06h-.0801-.0699v.12.05h.09z"/><path d="m13.1484 11.02v.02l.02.05.03.01h.0101v-.04-.01l-.0301-.04h-.01l-.02-.01z"/><path d="m8.65016 13.16v.06s.00001.06-.06999 0v.1c-.09678.0885-.17203.198-.22001.32h.09c.00185.03.00185.06 0 .09 0 0 0 0-.2.17 0 0-.04999.05-.05999.08v.07.06h.05-.06001v.08.07.09-.05.05-.05.09-.06-.06.09.06.08c-.01105.046-.01105.094 0 .14v.14-.08.06c.0064.0229.0064.0471 0 .07v.11-.08.17.07.07h.09001v-.14.11.07h.05v.12h-.14001v-.06c-.00486.0231-.00486.0469 0 .07v.08.58.12c0 .05 0 .05.07.12l.07001-.11v-.05-.08h-.05.06v.36.06h-.12v.18.07.07.07.19h.06v.16.14.06.3c-.00494.0365-.00494.0735 0 .11v.23.14.07.09.09.08.06-.08-.09h.05l.04999.06v.07h.63.06v-.07c.00989-.0596.00989-.1204 0-.18v-.09-.07-.54c.02157-.1576.06185-.312.12-.46.00486-.0733.00486-.1467 0-.22 0-.05 0-.06 0-.21h.06001v-.08-.07c.00805-.0328.00805-.0672 0-.1 0-.06 0-.06.06-.09v-.07c.01354-.0525.01354-.1075 0-.16v-.14-.08c0-.1-.00001-.1.05999-.15v-.05.06l.07-.09c.05368-.09.12118-.171.20001-.24v-.1-.11c0-.09.14999-.35.14999-.35v-.06s0 0-.11 0h-.08l-.06.09c.0183-.048.04543-.0921.08-.13 0-.07 0-.07 0-.1v-.09h.08001v-.07h.08999v-.05s0-.1 0-.15 0-.11-.1-.13-.16999 0-.18999-.08 0 0 0 0v.05.09.05h.11c.02287-.0681.02287-.1419 0-.21v-.05-.12c.09-.09.10999-.13.09999-.22h-.08c.00841-.026.00841-.054 0-.08.00724-.0262.00724-.0538 0-.08v-.69.06s0-.07 0-.13v-.13-.05h-.06.07001-.11v.05c.00533-.0432.00533-.0868 0-.13v-.05-.12s0 0 0-.05v-.25h.05c-.1.07-.1.07-.13.11v.06-.06-.06.06.05c.00592-.023.00592-.047 0-.07h-.11-.06-.06l-.08.05c-.00841.026-.00841.054 0 .08v-.05-.17s-.00001 0-.07001.08h-.05c-.00468.0197-.00468.0403 0 .06v.06.08.06l-.04999.07c.01069.03.02773.0573.04999.08h-.12v.06h.11v.06.11c-.02929-.0092-.0607-.0092-.08999 0-.02237.0342-.05343.0618-.09.08-.05 0-.08.09-.13.13-.02694.0017-.05252.0124-.07262.0304s-.03355.0422-.03818.0688c-.00462.0266-.00015.054.0127.0777.01284.0237.0333.0424.05809.0531z"/><path d="m15.1607 7.47002s.08-.06001.07-.08001c0 0 0 0-.08 0s-.01.09001.01.08001z"/><path d="m13.6003 9.09h.06v-.06-.03h.06.07.08-.09-.15-.06v.06z"/><path d="m13.6914 18.46v-.07c.0125-.0194.0191-.042.0191-.065 0-.0231-.0066-.0456-.0191-.065h.31v-.07-.07-.06-.06-.09l-.05-.07h-.06v.06c0-.05 0 0-.05 0v.07.19c-.0054.0331-.0054.0669 0 .1v.05.09h.1v.12.05.18h.06v.06h.06z"/><path d="m15.0019 7.35999s.06 0 0-.07c-.0118-.00817-.0257-.01255-.04-.01255s-.0283.00438-.04.01255c0 0 .08.07.08.07z"/><path d="m13.9987 8.73h.0801.05s0 0 0-.05h.06c-.0048-.01633-.0048-.03366 0-.05 0 0-.0601 0-.1001 0h-.0699-.05.0299v.06z"/><path d="m13.8994 8.57001-.04.01.02.02h.04z"/><path d="m14.1484 8.22h.0601v.06z"/><path d="m10.6602 12.21.0199.01.0101-.04-.03-.02z"/><path d="m16.5703 26.48v-.07.11c.0117.0482.04.0907.08.12h.1z"/><path d="m16.7292 26.45h.05c.0041-.0198.0041-.0402 0-.06l-.08-.09c.0058.0364.0058.0736 0 .11v.07z"/><path d="m11 16v.07h.15.06v-.06c-.0041-.0232-.0041-.0468 0-.07 0 0 0 0 .06-.1 0 0 0 0 0-.11v-.08c.0144-.0659.0144-.1341 0-.2h-.06-.1v-.05-.06l-.06.1v-.44.08h-.08v.06.1h-.1v.08.15c-.0208-.0258-.0442-.0493-.07-.07h-.05v.07.09.09h.06v.11.07h-.05v.06h.07v.09.02z"/><path d="m10.6801 12.27-.0199-.01v.03l.01.01z"/><path d="m15.6008 25.11v-.1h-.05c0 .05 0 .05.09 0z"/><path d="m6.50922 15.71v-.05-.06-.05-.1h-.06v.05.06h.05z"/><path d="m7.11015 14.68c.02254-.0426.05739-.0775.10001-.1v.08c0-.06 0-.06 0-.07s-.00001 0-.09001.17v.06.06.05.05-.06s0 0 0-.06c-.00938-.0044-.01962-.0067-.03-.0067s-.02062.0023-.03.0067v.06c-.00559.0331-.00559.0669 0 .1v.06h.07001v.06c-.14.33-.14001.33-.13001.4v-.07.06s.06001-.07.07001-.11c.00128.0233.00128.0467 0 .07h.06999l.06-.07h-.2v-.05-.08c-.00541.0331-.00541.0669 0 .1h.06l.06-.06c.07 0 .07-.15.13-.22v-.07h-.05c-.04819.0117-.09069.04-.12.08v.05c-.00467-.0197-.00467-.0403 0-.06-.00376-.0299-.00376-.0601 0-.09h-.08l.07001-.13v.07c.01879-.0363.04232-.0699.06999-.1 0 0 0 0 .06-.07-.00217.0433-.00217.0867 0 .13 0 0 .06001 0 .07001-.07.03263-.071.05939-.1446.08-.22h-.05c.03293-.0207.06082-.0485.08158-.0814.02077-.0328.03389-.07.03841-.1086l.10001-.05v-.08l.06999-.15v-.06-.09h.06v-.08h.06001l.06999-.12.05-.06.11001-.15.11999-.12c.03993-.0508.07041-.1084.09-.17l.14-.08.07-.13-.05.06h-.06s0 0-.05999 0h-.06l-.22.12-.10001.09v.05.11-.06l-.05.06-.06.07c-.01749.1079-.04085.2147-.06999.32v.06-.07s0 0 0-.08v-.15l-.05001.07s.00001 0-.05999.07l-.05001.13v.12.07.07.14c.04376.0477.06677.1109.06395.1756-.00281.0647-.03121.1256-.07895.1694-.04773.0438-.11091.0668-.17561.064-.0647-.0029-.12563-.0313-.16939-.079zm.46001-.72.06999-.06v.07.09-.06z"/><path d="m7.54015 13.67-.12999.14v.07.09c0-.1.04999-.21.06999-.31z"/><path d="m16.8519 25.67v.08.11.14c-.0056.0398-.0056.0802 0 .12 0 0 .05 0 .07.06v-.18c-.0154-.0628-.0389-.1233-.07-.18z"/><path d="m10.8005 13.1v-.1h-.07v.11h.05z"/><path d="m12.75 15.49c.0033-.0232.0033-.0468 0-.07v.07.07l.07.06z"/><path d="m13.1406 16.49c.0077.0314.0252.0594.05.08v-.09-.26-.06-.06.15z"/><path d="m12.3711 17.13.04.02v-.05l-.03-.01z"/><path d="m10.6584 12.35v-.04l-.01-.01v.03z"/><path d="m10.6914 12.48v.01l.01.03h.01v-.01l.01-.02.01-.03-.01-.04-.01-.01-.02.04z"/><path d="m13.5383 15.35v-.09l-.05-.08v.08.06z"/><path d="m10.5881 12.27-.01.01v.04.01.01h.01v-.01h.01.01l.01-.03-.01-.03-.01-.01z"/><path d="m15.2891 24.91v-.07.08.07.11h.05s-.02-.1-.05-.19z"/><path d="m7.14984 19.14v-.06-.08s0-.06 0-.1 0 0-.06-.14v.33c0 .11.05.04.06.05z"/><path d="m6.99892 32.08v-.08-.07c-.08785-.28-.2087-.5486-.36-.8 0 0 0-.06 0-.07-.19-.35-.19001-.35-.38001-1.64-.17182-.0072-.34258-.0307-.50999-.07.16314.0111.32686.0111.49 0 .03116-.0423.05483-.0897.06999-.14 0-.15.00001-.15.08001-.23.00398-.0332.00398-.0668 0-.1v-.08c.01357-.0432.01516-.0893.00459-.1333s-.03289-.0844-.06459-.1167c.00468-.0197.00468-.0403 0-.06v-.06-.12-.31-.2-.27c-.01001-.0461-.01001-.0939 0-.14v.17.12c-.00264.0233-.00264.0467 0 .07v.09.06.14.06-.48c-.0106-.0518-.02739-.1022-.05-.15v-.06s0-.05 0-.07v.11s0-.09 0-.12v-.33c.00463-.0432.00463-.0868 0-.13v-.05h.05999v-.09h.05001c.05 0 .09999 0 .08999-.13.00702-.033.00702-.067 0-.1v-.11-.06-.06.05.06-.06-.22-.1c-.00978-.0529-.00978-.1071 0-.16.01448-.0421.01448-.0879 0-.13.00919-.0429.00919-.0872 0-.13v.06-.08-.09h.06v-.13-.09-.25-.08-.06.06l.06001-.07h.4c-.01375.0422-.01375.0878 0 .13v.08.08c.00496.0599.00496.1201 0 .18v.07h.05999v-.07-.08-.28.07-.08h.06l.06-.07c.04453-.0356.07616-.0847.09001-.14.00479-.0432.00479-.0868 0-.13v-.07c-.00256-.0233-.00256-.0467 0-.07v-.05h-.06v-.13-.06c-.00496.0465-.00496.0935 0 .14v.07.17.06-.08.08h-.09001v-.06s0 0 0-.07v-.24-.07-.23h-.08v-.06h.06001v-.05c.00494-.0365.00494-.0735 0-.11-.01047-.0361-.02741-.07-.05-.1-.01739-.0074-.0361-.0113-.05501-.0113-.0189 0-.03761.0039-.05499.0113-.31.31-.32001.33-.49001 1v-.06l.07001-.25v-.13c.03028-.0561.05058-.117.06-.18-.00463-.0432-.00463-.0868 0-.13v-.21c.09-.2.45-.27.49-.28v.06l.04999-.05h.10001c.00567-.0297.00567-.0603 0-.09v-.11c-.20145-1.0335-.33507-2.0791-.4-3.13l-.07.22v.11.1.07l-.06.11v.08-.06-.08s0-.07 0-.09c0 0 0-.11 0-.15v-.22c.00471-.0365.00471-.0735 0-.11v-.06h-.08v-.06-.08-.09s-.05 0-.06.06h-.05c-.02624-.0068-.05377-.0068-.08 0-.00919.0428-.00919.0871 0 .13v.05c-.01448.0421-.01448.0879 0 .13-.03862.073-.06881.1502-.09.23v.15c-.00541.0599-.00541.1201 0 .18l-.09.21v.38c.03166.3468-.0415.6952-.21 1-.02081.0406-.0478.0777-.08001.11h-.05c-.00413.0365-.00413.0734 0 .11-.01159.0561-.01159.1139 0 .17v.45c.00441.0332.00441.0668 0 .1v.1c-.00399.0466-.00399.0934 0 .14v.19c.00482-.0399.00482-.0802 0-.12v.09.06-.73-.06-.11-.07-.08-.07-.13c.00537-.0465.00537-.0935 0-.14v-.09-.25c.00528-.0532.00528-.1068 0-.16 0-.06.00001-.06-.15999-.07v-.13l-.06001-.07v-.1-.07-.11l-.06-.11h-.06v-.05c-.00467-.0197-.00467-.0403 0-.06v-.07s0-.07 0-.1v-.2h-.05999v-.3s0-.07 0-.11 0-.08 0-.12v-.08-.06-.08-.06-.06c.01016-.0394.01016-.0807 0-.12h-.07001v-.71h.05v-.12-.06h.05001v-.08l.05999-.11v-.06l.06-.08v.11.07.06.05.07.1c-.00376.0299-.00376.0601 0 .09v.09c.02938-.0086.06063-.0086.09001 0v.07.1c.03427-.0242.05902-.0595.06999-.1 0 0 0-.07 0-.1.00399-.0332.00399-.0668 0-.1v.07-.07-.07-.05-.16-.05-.17-.07-.06c.00455-.0399.00455-.0801 0-.12v.17-.2-.1.14-.1-.09.03-.1c.00466-.0332.00466-.0668 0-.1 0 0 0 0 .06-.07.01455-.0455.01455-.0945 0-.14v-.07-.06-.36c.00575-.0398.00575-.0802 0-.12v-.08-.1h.05001v-.05c.01319-.0559.01319-.1141 0-.17v.09.06.07.1h-.06v.09.12.05.13h.05v-.17.05.14c.00496.0465.00496.0935 0 .14v.09c-.04586.0665-.08601.1367-.12001.21.00486.0532.00486.1068 0 .16v.07h-.06l-.05.06c-.01981.0584-.01981.1216 0 .18v.06h.06001c.0064-.0229.0064-.0471 0-.07v.19-.13.09.14c-.00494.0365-.00494.0735 0 .11-.00433.0231-.00433.0469 0 .07v.06.06h.04999v.07h.05.05001c.01-.1064.01-.2136 0-.32v-.07c.00433-.0198.00433-.0402 0-.06h.05c-.02219-.8979.0112-1.7963.09999-2.69.00504-.0298.00504-.0602 0-.09v-.06.07.11.14h.05l-.05999.11v.08-.08-.19-.08c-.0645.032-.12222.0761-.17.13l-.07001.1v.05.07.1.07-.19-.07-.07l.06001-.12v-.05c-.19 0-.32.34-.32.34-.03258.0466-.05944.097-.08001.15v.09c-.00265.0366-.00265.0734 0 .11v.06h-.05999c-.00434.0198-.00434.0402 0 .06 0 .07 0 .07.05.13v.2h.08-.05c-.02134.0615-.02134.1285 0 .19v.05c-.08.08-.09.2-.15.3v-.08.08.06.1-.07-.26-.17c-.0158.0451-.03591.0887-.06001.13v.12s0 0 0-.07c0-.19.00001-.19.06001-.22.0043-.0399.0043-.0801 0-.12v-.06-.2c.03176-.0655.04882-.1372.04999-.21l.06-.08v-.15h.08c.01298-.0288.0298-.0557.05-.08-.00488-.0265-.00488-.0536 0-.08v-.07h-.05-.04999-.07c-.00891.0462-.00891.0938 0 .14v-.25c.00143.03.00143.06 0 .09v.07.08l-.06.16v.07.08.05.06.06.21.06.06.08h-.05v.2-.06-.07-.07h.07v-.05.22-.11-.06.1.07.07.09.08h-.1-.05001v-.09-.05c-.00592.0297-.00592.0603 0 .09-.00567.0264-.00567.0536 0 .08v.1.08.07-.11-.06c-.05108.0345-.09805.0748-.14.12v-.27c.00502-.0399.00502-.0802 0-.12-.00921-.0293-.00921-.0607 0-.09v-.17.05-.06-.11.05l-.05999.13v-.18c.02111-.0518.03784-.1054.05-.16v-.05.06.07c-.01483.0273-.03528.0512-.06.07-1.17911 4.4658-.82702 9.1979 1 13.44v.06-.05-.06c-.01195-.0686-.0393-.1335-.08-.19v-.08-.06.07.1.05.08.1h.06l.06999.06v.06.07l.05.07c.06.13.10001.28.16001.42v-.06.06.08c.09.19.12.21.14.23v.06.07c.02596.0576.0596.1114.1.16l.09999.19.06.07z"/><path d="m29.0794 42-.49.1h-.06-.2.11.08-.14-.13-.12-.08-.05-.07-.16l.28-.06h.05c-.0791-.0173-.161-.0173-.24 0h-.16-.32.14l.11-.09h-.42c-.13 0-.26 0-.39 0h-.09l-.45.06h.1.18c.13 0 .15 0 .2-.07h.05c.0177-.0011.035-.0062.0506-.0149.0156-.0086.029-.0206.0394-.0351-.0362-.0089-.0739-.0089-.11 0h-.09-.08l-.42-.06c-.0364.0068-.0737.0068-.11 0h-.05-.1.06.16-.11-.12-.1c-.0587-.0139-.1156-.034-.17-.06 0 0 0 0-.25-.11h-.33-.09-.09-.06c-.09 0-.09 0-.12 0h-.06l-.06-.13h.16s0 0-.12 0c.07 0 .27-.16.27-.16h-.1c0-.13 0-.13-.22-.18h-.05c0-.07 0-.08-.1-.13s-.09 0-.1-.08l-.66-.32-.28-.17c-.17-.08-.35-.13-.52-.21h-.07c-.1 0-.1 0-.14-.08 0 0 0 0 0-.14-.0985-.0985-.192-.202-.28-.31l-.46.26.45-.26c-.07-.14-.07-.31-.15-.44-.0976-.1281-.2119-.2425-.34-.34 0 0-.69-.44-1-.38h-.06-.11-.08-.07c-.36 0-.7-.18-1.06-.07-.06 0-.09.1-.15.14-.15 0-.17 0-.2 0s-.35-.07-.35.1h-.08v.1l-.06-.06h-.07-.06-.08-.11v.06l-.35-.86s-.46 0-.57 0c-.09 0-.09 0 0 .29v.09l.07.11c-.13-.1-.13-.11-.13-.15 0 0 0 0-.07-.13v-.07c-.09-.11-.09-.11-.31 0-.1 0-.11 0-.14 0l-.13-.12-.08-.09h-.09c-.1847-.0331-.3592-.1084-.51-.22l-.08-.06-.21-.14c-.0552-.0183-.1148-.0183-.17 0h-.05l-.49-.18h-.1-.12c-.0664-.0094-.1337-.0094-.2 0h-.07v.06h-.14-.12-.06c-.0439-.026-.091-.0461-.14-.06h-.09v.08c-.1043-.1491-.2505-.2639-.42-.33l-.13-.06h-.45-.07-.09-.09v-.08h-.13-.05-.06v.05h.06-.05-.1-.08v.12h-.16-.11-.06-.1-.06-.17l-.06-.06c.0242.044.0545.0844.09.12l.05.05v.06-.05l.07.09-.08-.07v-.05-.06l-.06-.06-.09-.06h-.05l.05.11v.13h-.07v.08.07l.14.17.08.09c.0271.0412.0506.0847.07.13l.1.09.08.09h-.05l-.1-.08h-.06l-.08-.06h-.07l-.11-.06h-.06-.07l-.11-.09-.11-.1-.07-.07h-.05l-.11-.11h-.05l-.05-.08-.11-.12-.06-.07-.13-.16-.09-.12-.1-.13-.05-.07-.14-.15h-.06v.06c.32.41.65.82 1 1.22l.09.08.21.21-.11-.12h.05l.07.07.16.12h.06l.21.19h.06l-.07-.07.11.07h.06.08l-.08-.07c-.0455-.0453-.0958-.0856-.15-.12l-.06-.09h.07.05l.05.05.06.06.07.06h.05l.07.05h.06.06l.18.16.11.09.3.27h.06.07l.16.13.05.05.11.07v.05h.06.06.06l.16.12h.05.06.06.06.07c.0355.0275.0689.0576.1.09h.05l.16.11.14.08.14.08h.07.06c.24.12.48.22.72.33l.48.21h.08c.37.17.49.21.57.24h.06.06.05.06.06l.5.18h.09.08c.149.0623.3028.1125.46.15.0686.0246.1387.0446.21.06h.07l.28.06h.12.17.32.12.07.16.22.06l.28.06h.17.15.08.21.1l.36.08h.12.09l.37.07h.21.17.36.14 3.12.3 1.28.14.16.18.06-.1-.27.05.11.12.19.11c.5-.12 1.15-.25 1.64-.38l.6-.19-.32.09z"/><path d="m7.13165 18.65v.08h.04998v.08-.08-.34.08c.02069-.0651.02069-.135 0-.2v-.15c.00552-.023.00552-.047 0-.07v-.05-.09s0 0 0-.07v-.05-.12.07c-.00859.053-.00859.107 0 .16v.1-.06c.00844-.0226.00844-.0474 0-.07v-.14c.00637-.0263.00637-.0537 0-.08v-.13-.06s0 0 0-.06v-.08c0-.05 0-.05 0-.06v-.07-.05s0 0 0-.08v-.06h-.04998v-.16-.06s-.00001 0-.07001-.05c.00274-.0199.00274-.0401 0-.06h-.08v-.25c-.08879.8937-.12218 1.7921-.09999 2.69z"/><path d="m7.60192 22.68v-.08-.06h.04999.05v-.06-.07s0 0 0-.06v-.28s.00001 0-.06999-.1v-.08s-.00001 0-.05001.06v.06-.09h.05001v-.09-.06.07h-.06v.09c-.01117-.0494-.01117-.1006 0-.15v-.88-.06s0 0 0-.29v-.13c-.00991-.0292-.00991-.0608 0-.09.0022-.04.0022-.08 0-.12v-.21c-.02038-.0278-.03718-.058-.05-.09v-.15-.25.11c.06433 1.0477.19794 2.09.39999 3.12-.09893-.0496-.20981-.0704-.31999-.06zm-.10001-1c0 .06 0 .06-.05.08s0 0 0 .06c.00466-.0501.02185-.0983.05-.14z"/><path d="m17.8309 3.64999-.06.01-.06.03.06-.02z"/><path d="m17.6208 3.89001h.05l.02-.01-.01-.01-.01-.01-.01-.01h-.01l-.05.02-.05.02h.06z"/><path d="m44.8984 20.48c0-.07 0-.13 0-.19.0054-.0732.0054-.1468 0-.22v-.23s0-.07 0-.11l.07.89z"/><path d="m30.5395 41.6h.02l.01-.01-.05.02z"/><path d="m44.7413 19.09c-.004-.0432-.004-.0868 0-.13z"/><path d="m44.7609 19.16v-.07c-.0041.0432-.0041.0868 0 .13z"/><path d="m42.6486 12.62v.05.05.09.19.06-.05c-.0153-.0328-.0395-.0605-.07-.08h-.06-.06v.08.07.05c.0169.0345.0407.0651.07.09v-.06.07.06-.06.07-.07l-.14-.3v-.07l-.08-.17z"/><path d="m44.7185 18.92v.06.08.08c-.0049-.0231-.0049-.0469 0-.07v-.07s0 0 0-.06v.09-.03-.13-.07-.07-.17-.15-.09-.11-.19-.07-.15c0-.06 0-.12 0-.18.09.45.17.91.24 1.34z"/><path d="m44.7697 19.25v.17c-.0054.0632-.0054.1268 0 .19v.11-.23c0-.09 0-.19 0-.28z"/><path d="m38.8019 24.36-.08-.08h-.05v.13s0 0 .1.2c-.0038.0299-.0038.0601 0 .09-.05 0-.06 0-.09 0 .0014.0279.0106.0549.0265.0778.0159.023.0379.0411.0635.0522v.09.06.16.07.26l-.06.05v.12.11h.1v.07.14.1.08l.07.07c0 .09 0 .1.09.1h.06v.06.09.26.14.08.1c0 .07 0 .07.07.16.0236.0369.0588.065.1.08v.14h.06.06c.09 0 .12 0 .17-.14v-.09c.0277-.0599.0446-.1242.05-.19v-.07-.11c.0122-.0231.0186-.0488.0186-.075 0-.0261-.0064-.0519-.0186-.075v-.06-.12c-.11-.15-.05-.34-.11-.5-.0836-.2784-.1471-.5625-.19-.85 0-.29-.13-.37-.16-.39v-.14h.05v-.07h.13v.46c.0036-.0299.0036-.0601 0-.09l-.41-.43v-.06c-.0101-.0247-.0276-.0456-.05-.06z"/><path d="m30.4891 41.61-.2.06c.0688-.0121.1359-.0322.2-.06z"/><path d="m33.8789 16.86v.05h.08v-.01-.05c-.0271-.0028-.0544.0006-.08.01z"/><path d="m39.3114 9.07999-.07-.09v-.06c-.0164-.05788-.0435-.11215-.08-.16v-.05h-.06l-.05-.06c-.0163-.03544-.0364-.06898-.06-.1l-.05-.06v-.07l-.07-.09c-.0357-.04756-.0797-.08822-.13-.12l-.11-.1c-.0341-.03913-.0709-.07588-.11-.11-.051-.05025-.1081-.09391-.17-.13-.074-.03511-.1417-.08244-.2-.14-.0523-.0458-.1093-.08602-.17-.12h-.06l-.13-.07h-.06-.09c-.14-.06-.3-.05-.44-.11-.0714-.01808-.1391-.04854-.2-.09h-.07c-.16 0-.16 0-.24-.06l-.07-.06-.1-.06h-.08v-.06c-.07-.08-.17-.12-.24-.21l-.07-.08v-.05-.05h.08l-.05-.09h.07.07.05.08c0-.09 0-.09-.19-.19v-.05-.05h.07l-.15-.11h.05.08-.06-.05l-.11-.12v-.05l-.05-.05-.1-.08-.05-.06c-.0258-.03743-.0601-.06826-.1-.09-.0434-.04233-.0942-.07623-.15-.1l-.11-.08h-.05-.06-.06-.07-.05-.05-.05-.05-.07-.06-.07l-.1-.07h-.07-.06-.08-.05l-.19-.09h-.06-.06.05-.11-.06-.06-.11c-.0684-.04473-.1482-.06901-.23-.07h-.11-.07-.06-.16-.17c-.13 0-.13 0-.2 0h-.08-.06c-.1368-.04824-.2677-.11199-.39-.19h-.05-.08-.08-.06-.12-.06c-.0295.00762-.0605.00762-.09 0h-.06c.0676.0447.1419.07845.22.1h-.17-.17-1.66-.1-.06-.11l-.26-.09h.1l.15.05h.05.18.09-.04l-.13-.07h-.05-.07s0 0-.06-.06h.2.09.05.1.09.05.05.07.05.07.1.12l.18.06h.05.13.1-.06-.07l-.92-.29h-.3-.2-.12-.11-.05-.05-.09-.07-.06c-.0934-.03179-.1913-.04866-.29-.05h-.21-.08-.14.06c-.0264-.00539-.0536-.00539-.08 0-.807-.14816-1.6216-.25165-2.44-.31h-.44-.38c-.1657.00936-.3299.03618-.49.08h-.09-.13.11.08.05.11c.0899.00484.1801.00484.27 0h-.31-.07-.08-.06.06.09-.2c-.0725.00338-.1437.02034-.21.05h.1.09s-.07 0-.09 0h.15-.06-.14-.06-.17-1-.11-.05.06-.06c-.0596-.01026-.1204-.01026-.18 0 .024.0151.0517.02311.08.02311s.0561-.00801.08-.02311h-.39-.07c-1.032.10869-2.0547.29251-3.06.55h.05l.09-.05-.09.07h-.06-.06.07.06v.13h.06s0 .06-.08.07c-.0637.01428-.1235.04225-.1753.08197s-.0944.09023-.1247.14803v.06h.06-.07-.07c-.0324.03816-.0624.07823-.09.12h-.06c-.0154.05825-.0427.11271-.08.16h.06.1.05-.06v.07l-.2.15h.17.14l-.2.13h-.11s-.07 0-.09 0h-.05-.07l-.17.11h.06.07.06.07c-.0202.02429-.037.0512-.05.08l-.06.05h-.06l-.05.06h-.08-.06-.09l-.08.06h.07.09.05-.13-.13-.35-.06-.06.08-.08v.06h-.05-.5-.09c-.0399.02174-.0742.05257-.1.09h-.08-.05v.06h.2.07v.05h-.08v.05.05c.89 0 .89 0 0 0v.1.05.06h.07v.09c-.1.14-.1.15-.1.23h.08.12.09.06l-.15.07-.09.06h.05-.06l.09.06h.06v.06.05h.09v-.05h.06v.06.05h-.06-.09-.15-.12.2v.08h.06.1.05.1.05.32v-.05.09h.16.08c.0298-.00545.0602-.00545.09 0h.09.05v.05h.05l-.07.05c.0123-.04167.0291-.0819.05-.12h-.06l-.08-.06h-.06-.05c-.0655.03965-.1361.06995-.21.09h-.51-.1-.13-.1c-.17 0-.17 0-.26.07h-.11-.06v.07h.09.07.05.09l.05.07h.06.05.2.1v-.08h.09.07.08.08-.15-.1l-.08.05-.12.09h-.12-.05l-.1.08c-.0255.04037-.0596.07454-.1.1h-.12-.07l-.07.05v.05h.06c.0503-.01516.0977-.03884.14-.07h.07.09.05.06-.06-.09-.06v.44h-.07v.13.06.11.08h.05v.07h-.19v-.06h-.27l-.06.08h-.06-.13l.16.1.2-.06c.0295.0353.0673.06278.11.08-.078.01685-.1525.04732-.22.09v.21.07c.0562-.00991.1138-.00991.17 0v.06001h-.06-.17.18.06.07v.06h-.07-.09-.09-.06-.09-.1v-.08001h-.16-.05-.16l.08-.07.11-.05.2-.13.06-.08.08-.08v-.13-.05h-.11c-.09 0-.1 0-.1 0h-.05-.06-.06-.08c-.1075.01884-.2118.05249-.31.1v.08h-.07-.13v.08.06-.1h-.07-.13v.07-.06-.05h-.06v.06c.0054.05988.0054.12012 0 .18v-.1 1.27001h-.05v.05.06h.09-.05v.09.09.06h-.05v.09h.05-.06v.07.11.06s.05.07 0 .1v.09.07h.05s0-.11 0-.15v-.07.06.05.19.11.06.06.06c-.0052.0632-.0052.1268 0 .19v.08.06h-.08l.05.08h-.08-.06v.07.12h-.05c.0243.044.0546.0844.09.12v.07c.0247.0348.0552.0653.09.09v.06h.06v.06l.08.13h.15.09s0-.09.06-.12v-.34 1.42-.08h.07l.1.06c.0383.0394.0821.0731.13.1h.05.06.09.14v.07.05.07.33l.05.06c-.0041.0265-.0041.0535 0 .08h.06v-.1-.05h-.08c-.0053-.0499-.0053-.1002 0-.15h.07.07v-.05l.09-.07v-.08-.1l-.07-.13v-.06c-.0049.0365-.0049.0735 0 .11-.0553-.0554-.1055-.1156-.15-.18l-.1-.12v-.06-.17c-.0258-.0295-.0461-.0634-.06-.1 0 0-.07 0-.1 0h-.06l-.06.08h-.05-.07s0 0-.07-.06v-.07-.78-.05-.17-.06-.2-.07h-.06-.05c-.01-.0697-.01-.1404 0-.21.0287-.0466.066-.0874.11-.12h.07-.08v.21.25.07h.07.07v.05c.0282.0299.0622.0538.1.07h.06v.05h.08c.0337-.0327.0749-.0567.12-.07v-.06l.05-.07h.08.08v.09.11h-.07-.08v.08l-.05.1.06.06v.1.1.06h.06v-.14l-.06-.1h.15.06l.08.05.05.06v.06h-.07-.07c-.063-.0096-.127-.0096-.19 0v.16.05c.0473.0776.1124.1427.19.19l.1.08v.07l-.06.14.05.09v.06.06h-.06-.06-.06c-.08.15 0 .34-.18.46v.05.08h-.06-.07v.08.06.1.09h-.07v-.09h-.07l-.06.08h-.12-.09c-.0225-.0753-.0392-.1522-.05-.23-.0092-.0427-.0262-.0834-.05-.12h-.06v.09.14.06.06c0 .13 0 .13.15.27l.05.08.14.12h.11v.1h-.05l-.07.07v.14h-.06l-.06.08v.18.14.06.26.08.06.06.06.14c-.0311.0784-.0579.1586-.08.24v.07.05h-.05-.29c.0396.0449.087.0822.14.11l.06.08h-.2c.0019.03.0019.06 0 .09l-.1.12v.07h.08v.07h.02.12.11.06.07l.06.08h.19c.0331.0589.0699.1157.11.17l.08.16v.08c.0621.0908.1062.1926.13.3l-.05.14h-.06-.08c-.24.2-.24.2-.27.21h-.05v.05h-.06-.06l-.05.05h-.1v.11c-.0057.0398-.0057.0802 0 .12.0303.0411.072.0724.12.09l.05.14c.0375.0671.081.1307.13.19l.07.08c.0479.0758.0881.1562.12.24v.12.09.13.09l.08.13h.08.05l.05.13.15.25v.09-.07-.09c.0713-.0244.1487-.0244.22 0 .06.05.06.05.26.1v-.08 1.24-.06l.07-.08c.0382-.0453.0818-.0856.13-.12.0419-.0348.079-.0752.11-.12v-.05-.13c-.0048-.0432-.0048-.0868 0-.13l.09-.11v-.06-.09-.25-.09-.11h-.13l-.06-.08c0-.43 0-.43-.07-.51.0122-.0449.029-.0885.05-.13l.07-.16c.0225-.0719.0392-.1455.05-.22v-.09l-.07-.07v-.06h-.05v-.08c-.0055-.0532-.0055-.1068 0-.16l.17-.1h.06.06.06v-.07-.11-.07-.08-.07-.19l.05-.11h.08.06.07.06.09v.06h.06.05.11.1.06.14.07.14.06.07l.06-.07h.07.14.07.08.07.05v.06.09l-.05.14h-.05-.09v.1.08h.08.09.1.1.08.06.1.06v.1-.09l-.11-.08h-.07v-.16h.12v-.09-.06-.05-.06l-.08-.1h-.05-.21s0-.11-.06-.15h.1c.0584.0198.1216.0198.18 0-.06-.11-.07-.12-.24-.16h-.3-.07c-.0652.0194-.1348.0194-.2 0v-.4h-.09-.06-.26-.1l-.09-.05h-.05c-.13 0-.25 0-.37 0h-.05v-.06h-.05c.0048-.0399.0048-.0802 0-.12h.75.15.06v-.07h.07.06.05.08.05.13.06.12.06.05c.0243-.0331.0559-.0602.0923-.0793s.0766-.0296.1177-.0307h.31c.0454.0152.0946.0152.14 0v.06l.06.07.08.07h.19c.0625.0149.1275.0149.19 0h.13.18.05c.036.0098.074.0098.11 0h.05.05.05v-.05h.06.09.08.05l-.12-.06h-.07.1v-.07h-.07-.38-.17-.11-.07l-.08-.07h.05.09v-.07c.0046-.0432.0046-.0868 0-.13v-.19h.1c.0409-.0263.0724-.0648.09-.11h.09.06l.05.09.12.08v.08h.09.06v-.39l-.08-.11h.06.05v.09.06.06l.07.06h.05v-.05h1l.06-.05h-.06s0 .06.08.07v-.06l.07.05h.05v.07.31.09c.0094-.0663.0094-.1337 0-.2-.0047.0365-.0047.0735 0 .11h.05v-.1.1l.09.06v-.11-.08h-.05v-.07h.09v-.07l.06.06h.07.49v-.14l-.07-.09h.09.14.15l.09-.06c.0299-.0282.0538-.0622.07-.1v-.07-.06-.1h.06.05v-.14h.07v.09h.06.09.07c.0481.0194.1019.0194.15 0 .0129.0573.0367.1116.07.16l.07.08.07.12v.05l.07.07.06.07.06.08v.06l.05.07v.17.07h-.07-.15-.06v.07.09.06.13.07h-.12c-.0528.0318-.1101.0554-.17.07h-.06l-.14.1h-.06l-.06.09h-.11-.1l-.05.06h-.09-.06l-.09-.08-.1.05c-.0612.0283-.1157.0692-.16.12v.05.16c-.005.0499-.005.1001 0 .15.0337.0666.0857.1221.15.16l.08.06.08.18c-.0108.0659-.031.1298-.06.19h-.07-.19c-.34.11-.39.15-.48.25s-.39-.17-.59 0h-.07c-.0631.0157-.1215.0466-.17.09-.07.09-.07.09-.47.25h-.11c-.32.3-.33.3 0 0 0 0 0 0-.11 0v.05c-.09 0-.09 0-.14-.13v-.08-.12-.06s-.67.93-.67.85c-.0087-.0148-.0203-.0277-.034-.038s-.0294-.0178-.046-.022c-.11 0-.11 0-.17 0h-.05c-.0111-.0392-.0111-.0808 0-.12 0 0 0 0 0-.13v-.07.07.1h-.09c-.08 0-.1 0-.15.1v.1.08c0 .05-.07.11-.11.17h-.35v.05.05h-.12v.17c0 .06 0 .06-.07.07v.15c-.0965.0439-.1794.113-.24.2 0 0 0 0-.09.12v.07.06c-.0624.0735-.1161.1541-.16.24-.06.15-.06.15 0 .23v.11.24c.0035.0299.0035.0601 0 .09-.0141.0363-.0356.0693-.0631.0969-.0276.0275-.0606.049-.0969.0631v.06s0 0-.07.1c0 0 0 0-.11.08h-.06s-.09 0-.14-.07-.15.08-.14.1c.0404.0827.0706.17.09.26.0327.0652.0499.1371.05.21v.12.19.08c-.0445.125-.0648.2574-.06.39 0 .13.08.24.09.36.01.0752.0374.1471.08.21v.06c.0484.055.102.1052.16.15v.15.15.07.09c.005.0432.005.0868 0 .13v.32.1c-.0363.0688-.0764.1356-.12.2v.09c-.0095.0697-.0095.1403 0 .21v.08c.0192.0687.0192.1413 0 .21-.027.0495-.044.1039-.05.16.0189.0681.0422.135.07.2v.09.07.09.13.16.13l.06.1v.06.08c.0252.0704.0587.1376.1.2-.0149.0692-.0149.1408 0 .21l.06.13.1.15.09.07h.09.06l.05.08v.1.07l.13.07c.1003.0767.1851.1717.25.28l.09.18v.11l.06.11s0 .06.06.07c.0825.1113.1342.2424.15.38 0 .14 0 .17.21.22h.05l.12.11v.09l.12.1h.07v.07.07l.1.07h.06.07l.09-.07h.08c.0613.0365.1293.0604.2.07h.09.05.09.07.14.08l.09.07h.13l.09.08c.05 0 .06 0 .06.06h.07.57.06.06.06.08.09.11.17.12.05.07c.1931-.0138.3869-.0138.58 0 .1023.0205.2077.0205.31 0 .051-.0076.0993-.0283.14-.06.056-.0928.0965-.1942.12-.3v-.11l.09-.16.07-.06.23-.25.26-.11h.09.12s0-.07 0-.11v-.11c.0217-.0484.0563-.0899.1-.12v-.06c-.005-.0532-.005-.1068 0-.16.0196-.0835.0498-.1642.09-.24h.06v-.16c.0374-.0767.0808-.1503.13-.22l.15-.15.08-.07h.06.09c.1059-.0185.2141-.0185.32 0 .13 0 .23.16.38.16h.1v.52h.08v-.06l.09-.15v-.05h.06l.1.05h.09.13v-.06c.0495.0443.1073.0783.17.1h.07l.07.08c.17.2.17.2.21.3v.08.07h.09l.1.07v.08l.05.06c.0144.0591.0144.1209 0 .18l.2.07h.08c.1281.0724.2728.1103.42.11h.46l.36.08.25.07h.07v.07h.22.09l.22.09c.07.0305.1442.0507.22.06h.09l.08.07v.07l.19.16h.07.05.07.08.07.05l.07.16v.26.08c0 .09.08.15.11.23l.06.05.06.07c.0241.0413.0442.0848.06.13v.09.05c.0276.0234.0578.0435.09.06l.05.06c.0419.0452.0889.0854.14.12.0227.0339.0537.0614.09.08h.32.09c.0579.036.1226.0599.19.07h.06.1c.0532.0354.1162.0529.18.05h.09l.29.07h.07c.0109.0324.032.0604.06.08.09.06.15.18.28.19h.09c.06.05.13.09.18.14h.06.06.25c.1317-.0103.2636.0175.38.08l.32.06h.09v.06h.21v-.07h.07.06 1.68c.06 0 .1-.06.12-.18v-.07-.07l.08-.09.09-.06h.08c.0206-.0312.0374-.0648.05-.1h.06.06c.0923-.1889.1531-.3915.18-.6.0142-.1077.0342-.2145.06-.32 0-.1 0-.1 0-.51 0-.27 0-.54 0-.81s0-.12-.09-.18c-.0383-.1032-.0383-.2168 0-.32l.09-.17v-.09c.0086-.053.0086-.107 0-.16 0-.13 0-.13 0-.18h-.07c0-.15 0-.17-.16-.3h-.05v-.06c-.0355-.013-.0745-.013-.11 0 0 0-.07 0-.13-.11s0 0 0 0c.06 0 .06 0 .07-.12v.43-.08-.06c-.0045-.0733-.0045-.1468 0-.22-.0151-.0726-.0151-.1475 0-.22.0178-.0587.0178-.1213 0-.18v-.06-.09-.07-.11-.1-.11c0-.12 0-.25 0-.37-.0223-.0716-.049-.1417-.08-.21.0035-.0266.0035-.0535 0-.08 0 0 0 0-.17-.17-.0716-.1033-.1519-.2003-.24-.29-.0207-.0258-.0442-.0493-.07-.07l-.05-.07c-.23.28-.24.28 0 0v-.34-.11h-.19c-.0711.0002-.1407-.0207-.2-.06l-.06-.08c-.043-.0343-.0952-.0552-.15-.06h-.07v-.07-.07h-.06v-.09-.08h-.06-.23-.06c-.0325-.0572-.0593-.1175-.08-.18 0-.16-.06-.17-.1-.31v-.07-.08l-.07-.18v-.06l-.06-.2c-.0144-.0591-.0144-.1209 0-.18v-.15-.09-.19-.1-.12-.05s0-.13 0-.19 0-.16 0-.24l-.06-.43c0-.06 0-.15 0-.22.053-.3849.053-.7752 0-1.16-.0614-.2774-.1382-.5512-.23-.82-.0169-.1313-.0687-.2556-.15-.36-.0533-.0849-.0969-.1754-.13-.27-.0344-.1276-.0884-.249-.16-.36v-.09c-.06-.12-.18-.21-.17-.36l-.1-.14-.13-.14v-.07-.06h-.2l-.06-.05h-.06v-.07h-.05-.08-.05v.15c-.0191.0551-.0425.1086-.07.16v.12s0 .1-.06.12h-.08v.14l-.11.15v.07.12c-.0049.0398-.0049.0801 0 .12-.0566.041-.1014.0962-.13.16.0059.1138-.0337.2253-.11.31-.14.06-.14.06-.37 0h-.09v.06c-.0149-.0625-.0149-.1276 0-.19v-.07c-.0266-.0515-.0685-.0934-.12-.12h-.08-.08-.09-.06-.2c-.1255.0243-.2545.0243-.38 0-.09 0-.09 0-.31.06h-.23c-.46 0-.79-.45-1.27-.37-.0488.0128-.1.0131-.149.0009-.0489-.0123-.094-.0366-.131-.0709h-.06c-.1554-.0952-.3056-.1987-.45-.31-.047-.0293-.0974-.0528-.15-.07-.3-.1-.3-.1-.36-.1h-.56-.12-.15-.09l-.11-.1v-.06h-.06c-.15 0-.15 0-.41-.06-.1295-.0261-.2566-.0629-.38-.11h-.11-.11-.11-.1-.08-.06-.08-.2l-.35-.06h-.06l-.1-.05-.08-.06h.1.14.09l.11.06h.27.12.06l-.26-.32-.06-.06.11.09h.05c.0426.0658.0969.1234.16.17v-.06h.07.07.21l.7.13h.05.16.11.07c.0596-.0044.1175-.0214.17-.05.2398-.0191.4798.0331.69.15.0725.0711.1572.1287.25.17h.05c.12.07.12.07.32.06h.27.22c.1297.0168.2551.0575.37.12h.11.33.08.09c.0908.0163.1785.0467.26.09.0962.0949.1998.1818.31.26l.19.09c.1029.0439.2031.094.3.15.24.19.24.19.29.21h.07l.09-.16v-.11-.11c-.0047-.0633-.0047-.1268 0-.19.0666-.0857.1143-.1846.14-.29v-.06-.09c-.0047-.0599-.0047-.1201 0-.18.0315-.0584.048-.1237.048-.19s-.0165-.1316-.048-.19c-.0039-.0366-.0039-.0734 0-.11v-.06-.07-.07-.07s0-.26.07-.39c-.06-.05-.13-.12-.19-.16v-.09c.0069-.1014.0237-.2019.05-.3v-.12s0-.07.05-.1v-.08c-.0215-.0733-.0631-.1391-.12-.19 0-.41 0-.41-.12-.52.0206-.0819.0474-.1621.08-.24l-.15-.14c-.054-.0309-.1043-.0678-.15-.11-.0556-.0658-.1058-.1361-.15-.21h.08v-.06c-.0722-.112-.1294-.2331-.17-.36l.55-.77v-.06-.08h-.07c-.1154-.0054-.2297-.0255-.34-.06h-.11c-.0831.0785-.1735.1488-.27.21-.1024.0199-.2076.0199-.31 0-.1708-.0435-.3308-.1218-.47-.23h-.07v.11.07c.06.24.15.46.23.69l-.08.08c-.0225.0458-.0493.0893-.08.13v.07.1h-.08-.05-.3v-.07l-.13-.07h-.11v-.05h-.08-.12c-.0045.0632-.0045.1267 0 .19l.08.08h-.28v-.06c-.0462-.0097-.0938-.0097-.14 0h-.05-.15-.2-.19-.07c-.0663-.01-.1337-.01-.2 0-.1167-.034-.2304-.0775-.34-.13l-.05-.1v-.06l-.06-.08.09-.1v-.12h.22.06.09.07.12c.1116-.0284.2284-.0284.34 0h.11l.07-.05h.05c.0697-.0095.1403-.0095.21 0h.08.07.05.11.08.06v-.08-.08h.06.08v-.08l-.11-.15.15-.05h.08l.25.11h.17l.09-.06v-.07-.08h.07l.11-.1c.049-.0668.1061-.1273.17-.18h.05c.0624-.046.1108-.1083.14-.18v-.51c.0182-.0634.0451-.124.08-.18v-.1c.1-.07.1-.07.18-.29.0133-.0451.0373-.0863.07-.12h.06.08.08c.0585.0504.1328.0787.21.08h.1l.13-.07h.07c.0893.0163.1807.0163.27 0v-.07c-.005-.0432-.005-.0868 0-.13v.25.07h.05.63v-.17c.0098-.036.0098-.074 0-.11-.07-.14-.08-.17-.2-.19h-.05l-.07-.06h.1c.13.05.13.05.17.09h.05c.15 0 .15 0 .26.11s.05.08.31.18c.0662.0596.1448.104.23.13.15.07.59.33.59.33.0894.0694.1972.1111.31.12.16.05.73.31.73.31s.15.1.22.15c.22.14.49.15.7.3l.56.33c.072.0385.1496.0655.23.08h.06c0-.14 0-.14-.15-.32-.0055-.0432-.0055-.0869 0-.13 0 0 0-.06 0-.09v-.05h-.06v-.06l-.05-.06v-.05c-.0166-.0021-.0334-.0021-.05 0v-.08c-.0136-.042-.0377-.0799-.07-.11l-.06-.07c-.0181-.0261-.0419-.0478-.0696-.0634-.0278-.0156-.0586-.0247-.0904-.0266-.23-.14-.31-.42-.53-.58-.16-.09-.46-.3-.47-.3-.0581-.035-.1037-.0875-.13-.15v-.07h.05c-.0129-.0533-.0406-.1018-.08-.14v-.05-.06c-.0339-.0693-.0777-.1333-.13-.19-.0278-.0641-.0479-.1312-.06-.2-.0133-.0451-.0373-.0863-.07-.12-.0298-.0343-.0504-.0756-.06-.12 0-.1 0-.1-.14-.23l-.07-.1v-.08l-.07-.11001v-.07-.06c.0049-.03315.0049-.06685 0-.1-.0206-.05302-.0474-.10339-.08-.15-.0447-.06989-.1116-.12272-.19-.15h-.05c-.1-.06-.1-.07-.11-.13v-.06c-.0257-.04882-.0636-.09015-.11-.12.0469.03219.0972.05902.15.08h.44v-.06l-.12-.09h.07v-.08h.05-.07.06.01v-.06h.06l-.1-.09h.1c.1111.0595.2285.10645.35.14h.06l.18.06c.0428.00984.0872.00984.13 0h.06v-.07c.0385.04113.0866.07206.14.09h.05.05.06.07l.18.07h.07.05l.08.06c.0623.03936.1194.0864.17.14l.13.11s0-.05.07-.06h.07l-.14-.13c-.0194-.04533-.0428-.08883-.07-.13-.0416-.06058-.0922-.11453-.15-.16.0617.04004.1291.07039.2.09h.07.05.05c.0568.03597.1171.06613.18.09l.24.16h.09l.13.07.26.14h.06c.07.07.15.11.23.18h.05l.09.08.05.06.16.14.08.07c0 .06001.1.12001.14.17001l.36.36v-.05-.06l-.05-.05h.09l.18.16v-.05h.05l.09.07.07.06h.06l.09.1.06.06.09.07c.07.05.12.11.19.17.08.07.42.31.44.32h.1.09l.19-.32c-.0359-.0323-.0763-.0593-.12-.08-.0855-.0747-.1627-.1586-.23-.25l-.14-.17v-.05c-.09-.09-.11-.09-.14-.1h-.06c-.0417-.0398-.0888-.0735-.14-.1h-.06-.08l-.1-.06h-.05-.05l-.27-.24001h-.05-.07v-.05l-.06-.05-.12-.11-.08-.07-.15-.17-.05-.07c-.09-.1-.19-.19-.29-.29l-.09-.07h-.05l-.05-.09.13.08s0 0 .05.05h.05v-.09h.09l.19.11h.06l-.07-.07.09.06c.0264.0343.0607.06174.1.08v-.07h.08l.28.29c.0293.00921.0607.00921.09 0z"/><path d="m16.6186 6.24999-.02-.01-.04.01.02.02z"/><path d="m16.2809 6.66002-.03-.02001-.04.02001.03.00999z"/><path d="m16.1406 6.17h.08c.036-.01028.0741-.01028.11 0h.06-.06-.07-.11c-.0033-.00014-.0066-.00014-.01 0z"/><path d="m16.1481 6.47001-.03-.02-.04.02.02.01z"/><path d="m16.4919 6.94001c-.0094-.00916-.0219-.01429-.035-.01429s-.0257.00513-.035.01429h.06c.06 0 .04.06.01 0z"/><path d="m16.4609 6.26999s.05 0 0-.06c0 0 .02.02 0 .06z"/><path d="m16.6181 6.20001-.04.02.02.02.04-.02z"/><path d="m16.6498 6.18999c-.0194-.00686-.0405-.00686-.06 0z"/><path d="m16.7301 7.22998c-.0109-.0053-.0228-.00806-.0349-.00806-.0122 0-.0241.00276-.035.00806s.0899.01.0699 0z"/><path d="m15.2988 6.83999s.08-.06 0-.08c-.0125-.00617-.0262-.00938-.0401-.00938-.0138 0-.0275.00321-.0399.00938.0199.09.08.08.08.08z"/><path d="m16.5991 6.28999-.02-.02-.04.02.02.01z"/><path d="m15.8398 7.00001h.09c-.0141-.00634-.0294-.00962-.045-.00962-.0155 0-.0308.00328-.045.00962z"/><path d="m16.4615 5.85001s-.01.01 0 0z"/><path d="m16.8195 6.86999s.07-.06.05-.07c0 0 0 0-.06.05s.01.02.01.02z"/><path d="m16.7219 7.43001s.05 0 0-.06c-.0076-.00439-.0162-.0067-.025-.0067s-.0174.00231-.025.0067z"/><path d="m16.7795 6.91.04-.01-.01-.03-.04.02z"/><path d="m16.7983 5.68999-.03-.01-.03.02.02.01z"/><path d="m16.28 7.02999.05-.01-.02-.03-.06.02z"/><path d="m16.6398 7.29999-.05.01.02.03.0501-.01z"/><path d="m15.4219 6.70999h.06.14s0 0 .11-.06h.07.08.12l.12-.1h.06-.07-.14-.07s0 0-.1.05h-.05-.14l-.08.07v.06z"/><path d="m16.5617 7.08002-.05.01999.01.03001.05-.02z"/><path d="m16.2519 7s.06 0 0-.06c-.0078.01925-.0078.04076 0 .06z"/><path d="m17.8808 31.54v-.06h-.08z"/><path d="m8.36084 33.32c-.00195.0233-.00195.0467 0 .07.00433-.0198.00433-.0402 0-.06z"/><path d="m28.3789 42.17h.01.01l.06-.01h-.04z"/><path d="m17.6406 20v.06.07h.16v-.08-.07-.06z"/><path d="m17.8517 19.92-.09-.06h.07z"/><path d="m16.1998 14.79.03-.02v-.04l-.03-.01h-.01-.01l-.0199-.01-.0101.01-.04-.01-.02-.01.0101.02.0199.04v.01l.03.03.0101-.01z"/><path d="m20.8398 17.71h.06.07l-.0599-.08z"/><path d="m21.5394 17.45h-.1-.11-.08-.05v.1s0 .06-.09.11h.1.18v.05h.07.06v-.07h.05.06.15-.05l-.13-.06z"/><path d="m18.8099 19.42h.05s0-.07-.08-.12c-.07-.07-.13-.15-.19-.22s-.12-.14-.27-.15c-.0285-.0525-.0657-.0999-.11-.14v-.05-.06l-.05-.06h-.16v.18c-.0051.0331-.0051.0669 0 .1 0 0 0 0 .07.06h.05.11v.04c-.0007.0386.0104.0766.0319.1087.0214.0322.0522.0571.0881.0713h.06c.0677.0427.1202.1057.15.18.08.15.17.22.25.06z"/><path d="m7.3886 32.43h.05s0 0 0-.07-.00001 0-.07001-.08v-.05-.08s0-.06-.06-.06v.07.1.07z"/><path d="m11.84 35.81-.02-.05-.01-.03-.05-.03h-.01v.02.01l.01.04.09.06z"/><path d="m12.2414 36.12v-.05h-.05v.05c0 .05 0 0 .08.12.0362.0082.0738.0082.11 0 0-.08 0-.1-.09-.14z"/><path d="m10.9198 34.5-.03-.03-.0399.01-.0101.03v.02.01l.06.1.02.03.05.03h.01l-.01-.03-.02-.04-.01-.05z"/><path d="m9.86874 34.24s0-.11 0-.12c-.01648-.0035-.0335-.0035-.04998 0 0 0-.00001 0-.05001 0h-.05v.06l.06999.09h.07001z"/><path d="m10.6602 34.31c.0107.027.0279.051.05.07z"/><path d="m9.28188 34.44c-.01263-.0352-.02942-.0688-.05001-.1h.05001.05999.05001c-.02822-.0442-.06576-.0818-.11-.11 0 0-.05 0-.09 0h-.05-.05001-.17999c-.05 0-.05 0-.06 0h-.09001-.04999v.09h.06v-.32s0 0 0-.07h.05-.05-.1v.07h.05999s0 0 0-.07 0 0 0 0l.12001.13z"/><path d="m7.36952 33.17s-.07999-.13-.09999-.13c0 0 0 0 .06.15.01516-.0021.0292-.0091.03999-.02z"/><path d="m8.39859 34.28h.05.05001l-.07001-.09h-.04999-.07001z"/><path d="m7.45938 33.89-.09001-.14v-.06l-.06-.11c.00409-.0432.00409-.0868 0-.13v-.06l-.08-.13h-.05l-.06999-.06c.20999.34.43.67.66 1v-.07z"/><path d="m7.17188 33.07v-.06c.00249-.0333.00249-.0667 0-.1h.05999l.08.06h.08001.07l.09.09.05.07.09.1h.09v.06.07c-.00893.0327-.00893.0673 0 .1.00912.0053.01946.008.02999.008.01054 0 .02088-.0027.03-.008h.09.09001-.05c-.06 0-.11-.09-.17-.11h-.06s-.06001 0-.09001 0l.35001-.05-.17-.13c-.06156-.0849-.13983-.1564-.23-.21h-.07c-.04458-.0558-.09877-.1032-.16001-.14 0 0-.05 0-.08 0v.07c-.05 0 0 .11 0 .21v.06z"/><path d="m11.6406 36.07v.05.07s.08 0 .11.06h-.06z"/><path d="m41.3217 11.45v.06.07.06c-.0162-.0354-.0364-.069-.06-.1v-.06z"/><path d="m41.9219 11.88v.12.07-.08-.08l.08-.01z"/><path d="m39.3586 10.94h-.05l.14.11h.05v-.06l-.1-.07z"/><path d="m39.0686 10.72h-.01l.01.02.02.02.04.05v.02l.02.04.03.01.02.01.02.01-.01-.03-.09-.12z"/><path d="m40.5312 11.8v.07h.06.09l-.1099-.06z"/><path d="m11.3383 35s-.07-.06-.1 0l.08.07z"/><path d="m40.1797 9v.05c.0275.03203.048.06952.06.11.0229.03618.0497.06972.08.1v.06l.05.07v.06.05.1.05c.08.1.14.2.22.29v.05l.05.09v.07.05l.1.17v.06.05h.05v.08.05l.05.08v.06-.07-.06c-.0123-.0481-.0291-.095-.05-.14v.06.05-.07-.06.05c-.1827-.51144-.3862-1.01519-.61-1.51z"/><path d="m41.2092 12.22v.01l.01.01h.01v-.01-.01l.02-.01-.01-.02-.02-.02h-.02z"/><path d="m38.7592 10.59-.06-.07z"/><path d="m38.2317 13s0 0 .13.09c.0766.048.1471.1051.21.17l.09.06.08.05c.07.06.08.06.1 0 0 0 0-.05 0-.19-.0202-.1382-.0873-.2653-.19-.36 0 0 0 0-.31-.21h-.07l-.08-.06c-.0981-.0359-.1983-.066-.3-.09-.09 0-.09 0-.13 0l.06.06h.07v.06h.13l.05.09z"/><path d="m38.0619 9.99999c.0092.01631.0222.03031.0378.04071.0157.0104.0335.017.0522.0193l-.06-.06001-.07-.07h-.05-.05l.09.09001.06.06c.06.06.13.09.19.15-.0614-.008-.1189-.0342-.1652-.0752-.0464-.041-.0794-.0949-.0948-.15481z"/><path d="m38.3308 10.22v.05h.05c.0047-.0111.0071-.023.0071-.035s-.0024-.0239-.0071-.035l-.08-.05z"/><path d="m35.8386 5.31.04.01-.04-.04h-.03z"/><path d="m36.2594 6.33s0 0 .13.1l.15.07s0 0 0-.13c-.0536-.05445-.1141-.10153-.18-.14h-.06l-.08-.08c-.1-.05-.11 0-.11 0v.06.06l.09.06.06.06z"/><path d="m16.9102 6.73999s.01.01 0 0z"/><path d="m40.0005 8.79.09.1s-.08-.09-.11-.14z"/><path d="m16.9011 6.69-.03.01.01.01.03-.01z"/><path d="m34.3691 4.21999.08.05999h.05.06.05.07.06l.15.08001h.07c.0106.00614.0227.00937.035.00937s.0243-.00323.035-.00937h.07-.09-.05-.05l-.19-.12h-.07l-.13-.07001h-.06l-.12-.05999h-.05z"/><path d="m41.7491 12.75-.09-.09v.07l.05.1s0 0-.07-.14l-.1-.1z"/><path d="m40.7887 11.88-.0699-.08.0599.06z"/><path d="m41.0714 12.19h.05l-.11-.14h-.07v.05c.0278.0371.0661.065.11.08h.05z"/><path d="m42.2392 13c.06.06.06.18.18.18v-.06c-.0195-.0647-.0499-.1256-.09-.18-.0144-.028-.0311-.0548-.05-.08-.03-.0722-.0704-.1396-.12-.2v-.08-.06-.05l-.16-.27v-.06l-.06-.06-.05-.07v.1.06.05-.05l-.11-.14h-.06l-.06-.07h-.05l-.05-.07-.06-.06-.05-.05v.05-.05h-.07l-.05-.06v.06.06l-.06-.05v-.05h-.05-.18c-.0242-.03-.055-.0539-.09-.07l-.06-.06h-.05-.05-.09v.08l.16.13h.07l.13.08.09.06h.07v-.05h.06l.11.08c.0233.039.0501.0758.08.11h.06v-.05h.07c.01 0 .14.15.22.21l.11.12h.06c.0289.0291.0525.0629.07.1v.05.05h.06l.05.05s.11.06.14.11l.05.07h.06z"/><path d="m41.4805 12.5v.08l.07.06c.0089-.0327.0089-.0673 0-.1-.0226-.0146-.046-.028-.07-.04z"/><path d="m41.2617 12.34.05.06c.05.08.05.09.09.11v-.07h-.06z"/><path d="m11.5312 35.27v-.08c.0183.0308.042.0579.0701.08l.0499.08h.0701v-.06-.08z"/><path d="m16.3008 26.67v.06h.1s.06 0 .06-.07h-.06z"/><path d="m7 15c.03133-.0422.05503-.0896.07001-.14v.08s-.00002 0-.06002.13z"/><path d="m16.351 26.46c-.0045.0265-.0045.0535 0 .08h.06v-.11z"/><path d="m6.92889 14.41v-.06-.07l-.04998.1v.09z"/><path d="m16.2516 26.53c-.021-.035-.0444-.0684-.0701-.1h-.0799v.06.07h.06z"/><path d="m6.84813 16.96-.01001.02-.01.05v.02l.01.01h.01001l.00999-.03.01-.03.01001-.05v-.01-.02-.01h-.01001l-.01999.04z"/><path d="m6.83059 16.84c-.00329-.0232-.00329-.0468 0-.07v-.09c-.00288-.0299-.00288-.0601 0-.09v-.05-.07z"/><path d="m12.5609 24.61c0 .07 0 .06.09 0 .0049-.0231.0049-.0469 0-.07h-.12v.1c-.0102-.0073-.0224-.0113-.035-.0113-.0125 0-.0248.004-.035.0113z"/><path d="m6.29951 15.66h.05c.00539-.0264.00539-.0536 0-.08.00384-.0164.00384-.0336 0-.05l.09-.21s0 0 0-.07 0-.07 0-.09v.05s0 0 0-.05l-.07001.06v.12-.07s.00001 0-.06999.14v-.1c.00496-.0432.00496-.0868 0-.13l-.09.16v.17.05c-.00851.0362-.00851.0738 0 .11z"/><path d="m5.67024 16c-.00424-.0164-.00424-.0336 0-.05v.05-.05-.06-.07-.42s0-.06 0-.09v.12.06c.0069-.0397.0069-.0803 0-.12v-.08-.05.06h-.05001v.07.08.05c-.02978.0343-.05041.0756-.06.12v.11.07.09s.00001-.07.07001-.1v.05.08s0 0-.05 0h-.06v.13c-.00615.0161-.00615.0339 0 .05zm.22999-.64s-.05-.01-.03-.02z"/><path d="m4.99937 17.05v.05.19.08.07.07.06.05h.08001s-.00001 0 .06999-.05v-.08c.0079.0137.01207.0292.01207.045s-.00417.0313-.01207.045v-.05-.07-.07-.07s0 0 .08-.18v-.14-.13-.05-.12-.12c0-.11 0-.11 0-.14v-.06c.00702-.0122.01073-.026.01073-.04s-.00371-.0278-.01073-.04v.13-.06.06l-.05.09v.16.09-.07-.07-.06c.00683-.0296.00683-.0604 0-.09 0 0 0 0 0-.05v.06-.15-.07-.06s0-.05 0-.06v-.15s0-.06 0-.07 0 0 0 .05v-.14c-.05 0-.04999 0-.07999 0-.00399.0466-.00399.0934 0 .14l-.05.06c-.03201.0328-.05298.0747-.06.12 0 0-.00001 0-.06001.11-.02887.0401-.0524.0838-.06999.13v.05c.01071.029.01071.061 0 .09v.06.07s-.00001-.06.06999-.09c.05127-.0754.09483-.1558.13-.24v-.05.06.06.05.06.14s.00001 0 .07001-.06c0 0 0 0-.05 0l-.06.06z"/><path d="m6.76172 14.84v.09h.09001v-.08-.07s0-.08 0-.13c0 0-.00001 0-.06001.06-.01166.0429-.02167.0863-.03.13z"/><path d="m5.71141 16.94v.01l-.01001.02-.00999.04v.01h.00999l.01001-.01.01999-.02v-.01l.01001-.01v-.03l-.01001-.03z"/><path d="m6.60156 14.83.04999-.07v-.11c.00335-.0266.00335-.0534 0-.08v-.07.06.14-.05.09c.00282.0266.00282.0534 0 .08z"/><path d="m6.12891 15.12c.013-.0355.013-.0745 0-.11v.06z"/><path d="m6.3903 15.13v-.08c-.00409-.0433-.00409-.0868 0-.13-.0297.0608-.05314.1244-.06999.19z"/><path d="m11.1498 34.81-.06-.06v.06c.0197.0051.0404.0051.06 0z"/><path d="m7.12 23.43h.05.13v-.03c.00493-.0332.00493-.0669 0-.1h-.05999c-.01091-.0053-.02288-.0081-.03501-.0081s-.0241.0028-.035.0081h-.17v.07z"/><path d="m17.1591 30.89h-.02-.04v.03l-.03.01-.03-.01.04.04.09.08.03.01h.04l.02-.06v-.02l-.02-.04z"/><path d="m6.69141 17.66c.04932-.0522.08082-.1188.08999-.19-.00345-.0266-.00345-.0535 0-.08.00684-.0296.00684-.0604 0-.09v.1.07c-.04011.058-.0705.1222-.08999.19z"/><path d="m17.4781 31h-.06l-.09.06z"/><path d="m8.0011 22.33v-.06h-.06v.06c-.0325.0736-.05601.1508-.07001.23v.1.06.12.36.07.09.07s0 .13 0 .12v.1.07.11s.00001 0 .05001.06h.05999.05001v.14-.18-.06-.12.26-.1.1.07-.05-.07-.08-.25.07-.18.06-.11-.29.05.16-.09c0-.16 0-.19 0-.23v.14.09-.07h-.05001v-.05-.11h.02001v-.06-.09-.24-.09-.14z"/><path d="m6.21016 16.12v-.07-.07c.00128-.0233.00128-.0467 0-.07v-.08s0 .07-.05.1v.12.06.14.16.09-.13.09-.06-.05c0-.07 0-.08 0-.09v-.09z"/><path d="m10.3 34.03h-.04l-.01.05.08.08.02.01v-.09z"/><path d="m7.26891 24.62v-.05-.06h-.06-.08v-.1.05.1.06z"/><path d="m7.83963 29.41c-.00492.0332-.00492.0669 0 .1.00482.0399.00482.0801 0 .12-.00471.0365-.00471.0735 0 .11-.00449-.0365-.00449-.0735 0-.11v-.13-.09-.07c-.00292.0232-.00292.0468 0 .07z"/><path d="m17.9984 31.39h.11v-.09h-.07-.14z"/><path d="m6.41937 18.74v-.04l-.02-.02-.01-.01-.00999.01-.02.03v.01.01.01l.02.04v-.01h.01999z"/><path d="m6.55952 19.11.02001-.02-.01-.03v-.02l-.01001-.03-.00999.01-.01001.01-.00999.01-.01.02.01.02.00999.05.01001-.01z"/><path d="m6 19.12v.1c.04929-.06.0805-.1329.09-.21-.09.12-.09.11-.09.11z"/><path d="m17.7497 30.8v-.05h-.07v.08s.05 0 .07-.03z"/><path d="m17.9291 31-.07-.08h-.07c.015.03.0353.0571.06.08.0094.0044.0196.0067.03.0067s.0206-.0023.03-.0067z"/><path d="m17.9116 31h-.06c.0077.0371.025.0715.05.1.08.1.09.1.12.1v-.06h-.05v-.14z"/><path d="m5.48917 22.7v-.13-.07h-.06001c-.0045.0365-.0045.0735 0 .11z"/><path d="m6.90109 19.64-.03.06v.05l.03.03.02001-.04.00999-.02.02001-.09-.01-.07h-.02z"/><path d="m6.08853 19.35c-.02882.0595-.04581.124-.05.19-.0045.0365-.0045.0735 0 .11v-.05-.07s0-.07 0-.11v-.08z"/></g><path d="m3.94141 19.87c2.29351 3.3025 5.35238 6.0007 8.91529 7.8642 3.5629 1.8635 7.5239 2.8368 11.5447 2.8368s7.9818-.9733 11.5447-2.8368 6.6218-4.5617 8.9153-7.8642c-.5678-5.0289-2.9678-9.6725-6.7417-13.04427-3.7739-3.37182-8.6575-5.23564-13.7183-5.23564s-9.9444 1.86382-13.7183 5.23564c-3.77394 3.37177-6.1739 8.01537-6.74169 13.04427z" fill="#fff" opacity=".3"/><path d="m19.6288 54c1.5737.2868 3.1702.4308 4.7699.43 1.6.0062 3.197-.1378 4.77-.43.7377-.1308 1.4634-.3214 2.17-.57h-13.8699c.7029.2496 1.4254.4402 2.16.57z" fill="#000" opacity=".3"/><path d="m41.5196 41.11c-.002-.3564.1019-.7054.2984-1.0027.1966-.2974.477-.5296.8058-.6674.3287-.1378.6909-.1749 1.0407-.1065.3499.0683.6715.2389.9243.4903.2527.2513.4251.572.4954.9214.0703.3495.0352.7119-.1007 1.0414-.136.3295-.3667.6112-.6629.8094-.2962.1983-.6446.3041-1.001.3041-.4749-.0026-.9297-.1917-1.2664-.5266-.3368-.3348-.5284-.7886-.5336-1.2634z" fill="#fff" opacity=".3"/><path d="m3.80081 3.38001c-.00198-.35685.10215-.70623.29918-1.00377.19702-.29754.47804-.5298.80736-.66727.32931-.13748.69205-.17396 1.04214-.10483.3501.06914.67174.24077.92407.49311.25234.25233.42399.57398.49312.92407.06914.35009.03265.71284-.10483 1.04215-.13747.32931-.36974.61033-.66728.80736-.29753.19702-.64692.30116-1.00377.29918-.47474 0-.93002-.18859-1.26571-.52428s-.52428-.79098-.52428-1.26572z" fill="#fff" opacity=".3"/></svg>