<svg fill="none" height="57" viewBox="0 0 63 57" width="63" xmlns="http://www.w3.org/2000/svg"><g clip-rule="evenodd" fill-rule="evenodd"><path d="m3.62109 6.71995 55.64001 36.22005 2.86-4.34c.1578-.2497.2107-.5516.147-.84-.0637-.2885-.2387-.5401-.487-.7001l-2.52-1.6199-2.08 3.1799c-.0802.1238-.2051.2117-.3487.2453s-.2946.0102-.4213-.0652l-.47-.3c-.1176-.0881-.1982-.2168-.2259-.361-.0278-.1443-.0007-.2937.0759-.419l2.08-3.2101-3.34-2.1599-1.53 2.26c-.0369.0616-.0857.1152-.1436.1577s-.1237.073-.1936.0898c-.0698.0168-.1423.0194-.2132.0078s-.1387-.0372-.1996-.0754l-.46-.31c-.1218-.0817-.2082-.2066-.2416-.3495s-.0114-.2931.0616-.4204l1.49-2.2901-3.34-2.16-2.08 3.19c-.0802.1238-.2051.2117-.3487.2453s-.2946.0102-.4213-.0652l-.47-.31c-.0609-.0403-.1132-.0924-.1538-.1531s-.0687-.1288-.0826-.2005c-.014-.0717-.0135-.1454.0013-.2169s.0438-.1393.0851-.1995l2.08-3.2101-3.34-2.16-1.49 2.2601c-.0801.1237-.2051.2116-.3487.2452s-.2946.0102-.4213-.0653l-.47-.31c-.0609-.0402-.1132-.0923-.1538-.153-.0405-.0607-.0686-.1288-.0826-.2005s-.0135-.1454.0013-.2169.0438-.1394.0851-.1996l1.49-2.2899-3.37-2.1601-2.08 3.19c-.0784.1259-.2035.2154-.3478.2492-.1443.0337-.2962.0089-.4222-.0691l-.46-.3101c-.1205-.0832-.2043-.2096-.2341-.3529-.0298-.1434-.0032-.2927.0741-.417l2.08-3.2101-3.3-2.1699-1.49 2.2599c-.0369.0617-.0858.1153-.1437.1578s-.1237.073-.1935.0898-.1423.0194-.2132.0078-.1387-.0372-.1996-.0753l-.46-.31c-.1218-.0818-.2082-.2067-.2416-.3496s-.0114-.2931.0616-.4204l1.49-2.29-3.34-2.16-2.08 3.19c-.0802.1237-.2051.2116-.3487.2452-.1436.0335-.2946.0102-.4213-.0653l-.47-.3099c-.12-.0833-.2048-.2082-.2381-.3504-.0333-.1423-.0125-.2918.0581-.4197l2.11-3.2099-3.34-2.16-1.49 2.2599c-.0801.1238-.2051.2117-.3487.2453-.1436.0335-.2946.0102-.4213-.0652l-.47-.31c-.0609-.0403-.1132-.0924-.1538-.1531s-.0686-.1288-.0826-.2005-.0135-.1454.0013-.2169.0438-.1393.0851-.1995l1.49-2.29-3.37-2.1601-2.08 3.19c-.0784.1258-.2035.2154-.3478.2492-.1443.0337-.2962.0089-.4222-.0691l-.46-.31c-.1205-.0833-.2043-.2097-.2341-.353-.0297-.1434-.0032-.2927.0741-.4171l2.09-3.20995-3.35-2.16-1.49 2.26c-.0801.12375-.2051.21165-.3487.24525s-.2946.0102-.4213-.0653l-.44-.30995c-.12-.08329-.2048-.20814-.2381-.35038-.0332-.14224-.0125-.29176.0581-.41962l1.49-2.29-3.34-2.16-2.07999 3.19c-.08178.12184-.2067.20816-.34958.24156-.14289.0334-.29313.01141-.42044-.06156l-.46-.31c-.12351-.08023-.21187-.20445-.24716-.34745-.03528-.143-.01486-.29407.05716-.42255l2.11001-3.21-2.51-1.65c-.24135-.15913-.53604-.21587-.81922-.15773s-.53166.22638-.69079.46773z" fill="#c1e120"/><path d="m56.56 47.08-55.560005-36.22c-.108899.2409-.127386.513-.052094.7664.075289.2534.239329.4712.462099.6136l53.79 35c.2177.1436.4797.2045.7384.1714.2587-.033.497-.1577.6716-.3514z" fill="#90af43"/><path d="m1 10.86 55.61 36.22c.0433-.0426.0774-.0937.1-.15l2.6-4-55.63999-36.22004-2.59002 4.00004c-.03257.0501-.05939.1038-.07999.16z" fill="#769c17"/><path d="m8.38114 9.36c.06743.26451.05431.54313-.03769.8001-.09199.257-.25869.4807-.47866.6423-.21998.1617-.4832.2539-.75595.2649s-.54259-.0597-.77488-.2031c-.23228-.1434-.41643-.3529-.52884-.6016-.1124-.2488-.14792-.52546-.10202-.79455s.17114-.51833.35965-.71575c.18852-.19743.43172-.33403.6984-.3923.34718-.07846.71125-.01769 1.01413.16927.30287.18696.5204.48521.60586.83073z" fill="#fff"/><g fill="#545556"><path d="m9.81829 7.77003 2.08001-3.19-1.39-.92-2.11003 3.21c-.07202.12848-.09244.27955-.05716.42255.03529.143.12365.26722.24717.34745l.45999.31c.12731.07296.27755.09496.42044.06156.14288-.0334.26781-.11972.34958-.24156z"/><path d="m15.2393 6.73999-1.49 2.26c-.0706.12786-.0913.27738-.058.41962.0332.14224.118.26709.238.35038l.44.31001c.1267.0754.2778.0988.4213.0652.1436-.0335.2686-.1214.3488-.24521l1.49-2.26z"/><path d="m20.0007 9.82996-2.11 3.17004c-.0774.1243-.1039.2736-.0741.417.0298.1433.1136.2697.234.353l.4601.31c.126.078.2778.1028.4222.0691.1443-.0338.2694-.1234.3478-.2492l2.0799-3.1899z"/><path d="m24.7311 12.91-1.49 2.29c-.0413.0602-.0703.1281-.0851.1996s-.0153.1452-.0013.2169c.0139.0716.042.1398.0826.2005s.0929.1127.1538.153l.47.31c.1267.0754.2777.0988.4213.0653.1436-.0336.2686-.1215.3487-.2453l1.49-2.26z"/><path d="m29.4609 16-2.11 3.21c-.0706.1279-.0913.2774-.0581.4196.0333.1423.1181.2671.2381.3504l.47.31c.1267.0754.2777.0988.4213.0652.1436-.0335.2686-.1214.3487-.2452l2.08-3.19z"/><path d="m34.1918 19.08-1.49 2.2899c-.073.1274-.095.2776-.0616.4205s.1198.2678.2416.3496l.46.31c.0608.0381.1287.0637.1996.0753s.1434.0089.2132-.0078c.0698-.0168.1356-.0473.1935-.0898s.1068-.0961.1437-.1577l1.49-2.2601z"/><path d="m43.6803 25.25-1.49 2.29c-.0413.0602-.0702.128-.0851.1995-.0148.0715-.0153.1453-.0013.217.014.0716.0421.1398.0827.2005s.0928.1127.1537.153l.47.31c.1267.0754.2777.0988.4213.0652.1436-.0335.2686-.1214.3487-.2452l1.49-2.26z"/><path d="m48.4109 28.34-2.08 3.21c-.0413.0602-.0702.128-.0851.1995-.0148.0715-.0152.1452-.0013.2169.014.0717.0421.1399.0827.2006s.0928.1127.1537.153l.47.31c.1268.0754.2777.0988.4213.0652s.2686-.1215.3487-.2452l2.08-3.19z"/><path d="m53.141 31.42-1.49 2.2901c-.073.1273-.095.2775-.0616.4204s.1198.2678.2416.3495l.46.31c.0609.0382.1287.0638.1996.0754s.1434.009.2132-.0078c.0699-.0168.1356-.0473.1935-.0898s.1068-.0961.1437-.1578l1.49-2.2599z"/><path d="m57.8697 34.51-2.08 3.21c-.0766.1254-.1037.2748-.076.419.0278.1443.1083.273.226.361l.47.3c.1267.0754.2777.0988.4213.0652.1435-.0335.2685-.1214.3487-.2452l2.08-3.18z"/><path d="m38.9199 22.17-2.08 3.2101c-.0773.1243-.1039.2736-.0741.417.0298.1433.1136.2697.2341.3529l.46.3101c.126.078.2779.1028.4222.0691.1443-.0338.2694-.1234.3478-.2492l2.08-3.19z"/></g><path d="m43.7617 1.82997-29 42.37003 2.6 1.8 29.05-42.37003c.1255-.19545.2136-.41244.26-.64l-2.34-1.65c-.2133.12235-.3975.28953-.54.49z" fill="#ffc01c"/><path d="m52.3183 7.62003-29.08 42.37997 1.93 1.34 27.54-40.19c.3968-.5975.5976-1.30384.5743-2.02075s-.2695-1.40874-.7043-1.97923h-.05c-.0342.17032-.106.33087-.21.47001z" fill="#e6ad19"/><path d="m14.7305 44.2 29-42.37c.1424-.20047.3266-.36765.5399-.49l-.1299-.07c-.6752-.344033-1.452-.432295-2.1872-.24851-.7351.18379-1.379.62722-1.8128 1.24851l-27.66 40.37 2.11 1.44z" fill="#fde34f"/><path d="m49.6711 5.82005-29.05 42.42005 2.7 1.8499 29.08-42.41995c.0793-.16232.1236-.33947.13-.52l-2.42-1.72c-.1672.10486-.3158.23664-.44.39z" fill="#e6ad19"/><path d="m20.6419 48.27 29.06-42.43c.0994-.16945.2405-.3106.4099-.41l-3.4699-2.43c-.05.23-.34.26-.47.44l-29 42.37z" fill="#ffc01c"/><path d="m12.3416 51.94 4.14-5.22-4.63-3.19.05 8.13z" fill="#efbb86"/><path d="m20.7481 49.63-4.17 5.24.26.18 7.69-2.83z" fill="#efbb86"/><path d="m16.4799 46.72-4.1401 5.22 4.24 2.93 4.17-5.24z" fill="#f2c89d"/><path d="m15.0383 53.79-1.8 2.57 3.6-1.31-.26-.18z" fill="#fff"/><path d="m13.2397 56.36 1.85-2.52-1.26-.87-1.9 2.6.02 1.26z" fill="#fff"/><path d="m11.8984 52.46.44-.52-.44-.28z" fill="#fff"/><path d="m11.9284 55.5899 1.93-2.59-1.52-1.06-.44.52z" fill="#fff"/></g></svg>