<svg fill="none" height="150" viewBox="0 0 167 150" width="167" xmlns="http://www.w3.org/2000/svg"><path d="m124.081 37.7301h-10.2c-.522-7.6568-3.931-14.83-9.539-20.0691-5.6084-5.2391-12.9967-8.15319-20.6712-8.15319-7.6746 0-15.0628 2.91409-20.6709 8.15319s-9.0177 12.4123-9.5392 20.0691h-10.4099c.7541-10.2256 5.3484-19.7875 12.8606-26.766 7.5121-6.97849 17.386-10.857044 27.6394-10.857044s20.1272 3.878554 27.6392 10.857044c7.512 6.9785 12.107 16.5404 12.861 26.766z" fill="#f49824"/><path d="m21.1414 149.68c-1.2077.001-2.4038-.235-3.5199-.697-1.1162-.461-2.1305-1.138-2.9849-1.991-.8544-.854-1.5323-1.867-1.9948-2.983-.4624-1.115-.7004-2.311-.7004-3.519.0027-2.438.9731-4.776 2.6981-6.499 1.7251-1.723 4.0636-2.691 6.5019-2.691h124.7796c2.437.003 4.773.972 6.496 2.695s2.692 4.058 2.694 6.495c0 2.437-.968 4.775-2.691 6.498-1.724 1.724-4.061 2.692-6.499 2.692z" fill="#00333b"/><path d="m155.151 48.3h-143.1705v92.55h143.1705z" fill="#004853"/><path d="m158.408 35.02c1.035.0013 2.059.2064 3.015.6037.956.3972 1.823.9787 2.554 1.7114.731.7326 1.31 1.6022 1.705 2.5587s.598 1.9814.596 3.0162c.002 1.0349-.201 2.0598-.596 3.0164-.395.9565-.974 1.8259-1.705 2.5586-.731.7326-1.598 1.3142-2.554 1.7114s-1.98.6023-3.015.6036h-149.68986c-2.09256 0-4.09932-.8312-5.57898-2.3109-1.47966-1.4796-2.311035-3.4865-2.311035-5.5791 0-1.0361.204195-2.0621.600705-3.0194.39651-.9572.97768-1.827 1.71033-2.5597.73265-.7326 1.60243-1.3138 2.55969-1.7103s1.98316-.6006 3.01929-.6006z" fill="#00333b"/><path d="m166.29 42.59h-165.450156v47.91h165.450156z" fill="#005460"/><path d="m53.4583 101.46c.0013 1.147-.2235 2.284-.6617 3.344-.4381 1.06-1.0809 2.024-1.8917 2.836-.8108.811-1.7737 1.455-2.8335 1.895-1.0598.439-2.1958.665-3.3431.665-1.1478 0-2.2842-.226-3.3446-.665s-2.0239-1.083-2.8355-1.895c-.8116-.811-1.4554-1.775-1.8946-2.835-.4393-1.061-.6653-2.197-.6653-3.345v-21.91c0-1.1477.226-2.2842.6653-3.3446.4392-1.0603 1.083-2.0238 1.8946-2.8354s1.7751-1.4554 2.8355-1.8947c1.0604-.4392 2.1968-.6652 3.3446-.6652 1.1473 0 2.2833.2261 3.3431.6655 1.0598.4393 2.0227 1.0832 2.8335 1.8949s1.4536 1.7753 1.8917 2.8357c.4382 1.0603.663 2.1966.6617 3.3438z" fill="#f49824"/><path d="m50.1896 97.3501c0 1.449-.575 2.8389-1.5986 3.8639-1.0237 1.026-2.4125 1.603-3.8615 1.606-.7179 0-1.4286-.142-2.0917-.417s-1.2654-.678-1.7726-1.186c-.5071-.508-.9091-1.111-1.1829-1.7744-.2738-.6636-.4141-1.3746-.4128-2.0925v-13.6901c-.0013-.7178.139-1.4289.4128-2.0925s.6758-1.2667 1.1829-1.7748c.5072-.508 1.1095-.9111 1.7726-1.1861s1.3738-.4165 2.0917-.4165c1.449.0026 2.8378.58 3.8615 1.6056 1.0236 1.0255 1.5986 2.4153 1.5986 3.8643z" fill="#ec6725"/><path d="m134.699 101.46c0 1.148-.226 2.284-.666 3.345-.439 1.06-1.082 2.024-1.894 2.835-.812.812-1.775 1.456-2.836 1.895-1.06.439-2.197.665-3.344.665-1.148 0-2.284-.226-3.345-.665-1.06-.439-2.024-1.083-2.835-1.895-.812-.811-1.456-1.775-1.895-2.835-.439-1.061-.665-2.197-.665-3.345v-21.91c0-1.1477.226-2.2842.665-3.3446.439-1.0603 1.083-2.0238 1.895-2.8354.811-.8116 1.775-1.4554 2.835-1.8947 1.061-.4392 2.197-.6652 3.345-.6652 1.147 0 2.284.226 3.344.6652 1.061.4393 2.024 1.0831 2.836 1.8947s1.455 1.7751 1.894 2.8354c.44 1.0604.666 2.1969.666 3.3446z" fill="#f49824"/><path d="m131.42 97.3501c0 1.449-.575 2.8389-1.599 3.8639-1.023 1.026-2.412 1.603-3.861 1.606-.718 0-1.429-.142-2.092-.417s-1.265-.678-1.772-1.186-.909-1.111-1.183-1.7744c-.274-.6636-.414-1.3746-.413-2.0925v-13.6901c-.001-.7178.139-1.4289.413-2.0925s.676-1.2667 1.183-1.7748c.507-.508 1.109-.9111 1.772-1.1861s1.374-.4165 2.092-.4165c1.449.0026 2.838.58 3.861 1.6056 1.024 1.0255 1.599 2.4153 1.599 3.8643z" fill="#ec6725"/></svg>