<svg fill="none" height="166" viewBox="0 0 129 166" width="129" xmlns="http://www.w3.org/2000/svg"><path d="m128.209 155.37c0 2.817-1.119 5.518-3.111 7.509-1.991 1.992-4.693 3.111-7.509 3.111-2.816-.003-5.516-1.122-7.507-3.113-1.991-1.992-3.111-4.691-3.113-7.507v-144.22c.005-2.81316 1.126-5.50924 3.117-7.49655 1.991-1.98732 4.69-3.103462 7.503-3.103457 1.395-.001316 2.776.272486 4.065.805727 1.289.53324 2.461 1.31546 3.447 2.30188.987.98642 1.769 2.15764 2.302 3.44671.533 1.28908.807 2.67067.806 4.06569z" fill="#002e36"/><path d="m21.6697 155.37c0 2.815-1.1176 5.515-3.1071 7.506s-4.688 3.111-7.5029 3.114c-2.81753 0-5.51984-1.119-7.51307-3.11-1.99322-1.991-3.114292-4.692-3.116942-7.51v-144.22c.005299-2.8149 1.127872-5.51249 3.121092-7.50009 1.99323-1.9876 4.69404-3.102573 7.50892-3.099917 1.3942-.000001 2.7746.274766 4.0625.808597 1.2879.53382 2.458 1.31626 3.4434 2.30255.9853.98629 1.7667 2.15707 2.2993 3.44549s.8061 2.66919.8048 4.06337z" fill="#002e36"/><path d="m118.019.530029h-106.9604v165.459971h106.9604z" fill="#004853"/><path d="m111.03 15.42h-91.5105v31.49h91.5105z" fill="#002e36"/><path d="m111.021 15.42h-88.3101v29.27h88.3101z" fill="#d3ebef"/><path d="m47.5887 59.76h-.23-20.3599c-.6566.1409-1.2423.509-1.654 1.0396-.4116.5305-.6228 1.1894-.596 1.8604v20.6c-.0292.6727.1808 1.3339.5926 1.8666.4119.5326.999.9023 1.6574 1.0434h20.3599c.6935-.0912 1.3286-.436 1.7829-.9678s.6956-1.213.6772-1.9122l.35-20.59c.0387-.7298-.2095-1.4459-.6915-1.9952-.4821-.5494-1.1599-.8884-1.8886-.9448z" fill="#fff"/><path d="m77.0593 59.76h-.2201-20.36c-.6566.1409-1.2423.509-1.6539 1.0396-.4116.5305-.6228 1.1894-.5961 1.8604v20.6c-.0291.6727.181 1.3339.5928 1.8666.4119.5326.9989.9023 1.6572 1.0434h20.36c.6935-.0912 1.3286-.436 1.7829-.9678.4542-.5318.6955-1.213.6772-1.9122l.35-20.59c.0386-.7314-.2109-1.4489-.6951-1.9985s-1.1644-.8876-1.8949-.9415z" fill="#fff"/><path d="m47.5887 91.75h-.23-20.3599c-.6576.139-1.2444.5067-1.6564 1.0377-.412.5309-.6224 1.1908-.5936 1.8623v20.6c-.0292.673.1808 1.334.5926 1.867.4119.532.999.902 1.6574 1.043h20.3599c.6943-.094 1.3297-.44 1.7837-.974.4541-.533.695-1.216.6764-1.916l.35-20.59c.036-.7282-.2134-1.4416-.6952-1.9888-.4818-.5471-1.158-.8848-1.8849-.9412z" fill="#fff"/><path d="m77.0593 91.75h-.2201-20.36c-.6575.139-1.2444.5067-1.6563 1.0377-.412.5309-.6224 1.1908-.5937 1.8623v20.6c-.0291.673.181 1.334.5928 1.867.4119.532.9989.902 1.6572 1.043h20.36c.6943-.094 1.3296-.44 1.7837-.974.4541-.533.695-1.216.6764-1.916l.35-20.59c.0359-.7298-.2149-1.4446-.6988-1.9921-.4839-.5474-1.1625-.884-1.8912-.9379z" fill="#fff"/><path d="m47.5891 122.99h-.23-20.36c-.6583.141-1.2455.511-1.6573 1.043-.4119.533-.6218 1.194-.5927 1.867v20.65c-.0311.673.1781 1.335.5902 1.868.4122.534 1.0005.903 1.6598 1.042v.05h20.36c.6943-.093 1.3296-.44 1.7837-.974.4541-.533.695-1.216.6764-1.916l.35-20.59c.0328-.37-.0082-.742-.1205-1.095-.1123-.354-.2936-.682-.5337-.965-.24-.282-.5339-.515-.8645-.683s-.6915-.269-1.0614-.297z" fill="#fff"/><path d="m77.0597 122.99h-.2201-20.36c-.6583.141-1.2454.511-1.6572 1.043-.4119.533-.6219 1.194-.5928 1.867v20.65c-.0312.673.178 1.335.5902 1.868.4122.534 1.0005.903 1.6598 1.042v.05h20.36c.6943-.093 1.3296-.44 1.7837-.974.4541-.533.695-1.216.6764-1.916l.3499-20.59c.0329-.37-.0084-.743-.1213-1.098-.1129-.354-.2953-.682-.5364-.965s-.5361-.515-.8679-.683c-.3317-.168-.6935-.268-1.0643-.294z" fill="#fff"/><g fill="#002e36"><path d="m46.689 61.06h-.2101-18.3399c-.5875.1369-1.1088.4745-1.4739.9546-.3651.4802-.5512 1.0727-.5261 1.6754v18.56c-.0247.6014.1618 1.1926.5271 1.671.3652.4785.8862.8142 1.4729.949h18.3399c.6281-.0816 1.2034-.3941 1.6138-.8766.4104-.4824.6265-1.1003.6063-1.7334l.32-18.55c.0307-.6576-.1952-1.3014-.6298-1.7957s-1.0441-.8006-1.7002-.8543z"/><path d="m76.0705 61.06c-.0733-.0049-.1469-.0049-.2201 0h-18.34c-.5884.1351-1.1108.4723-1.4762.9528-.3654.4806-.5508 1.0741-.5238 1.6772v18.56c-.0266.6019.1591 1.194.5247 1.6728.3655.4789.8877.8141 1.4753.9472h18.34c.6289-.0815 1.2053-.3937 1.6173-.8759s.6303-1.1001.6126-1.7341l.3201-18.5501c.0282-.6569-.1985-1.2993-.6327-1.793-.4341-.4938-1.0421-.8008-1.6972-.8569z"/><path d="m46.6896 93.05h-.21-18.34c-.5876.133-1.1098.4682-1.4753.9471-.3656.4789-.5513 1.071-.5247 1.6729v18.56c-.0286.602.1563 1.195.5222 1.675.3659.479.8893.814 1.4778.945h18.34c.6262-.086 1.1988-.4 1.6084-.881.4095-.482.6274-1.097.6117-1.729l.3199-18.55c.0306-.6565-.1955-1.2991-.6304-1.7919-.4348-.4927-1.0444-.7969-1.6996-.8481z"/><path d="m76.0712 93.05h-.2201-18.34c-.5885.1312-1.1119.466-1.4778.9453s-.5508 1.0724-.5222 1.6747v18.56c-.0306.603.1536 1.197.5198 1.677.3662.479.8907.814 1.4802.943h18.34c.6271-.086 1.201-.399 1.6121-.88.4112-.482.631-1.097.6178-1.73l.3201-18.55c.0281-.6558-.1989-1.2971-.6333-1.7893s-1.0424-.797-1.6966-.8507z"/><path d="m46.6894 124.3h-.2101-18.34c-.5866.135-1.1077.47-1.4729.949-.3652.478-.5517 1.07-.5271 1.671v18.63c-.027.603.1584 1.197.5238 1.677.3654.481.8878.818 1.4762.953h18.34c.6271-.084 1.2011-.397 1.6111-.879.4099-.482.6269-1.099.609-1.731l.3199-18.55c.026-.332-.0138-.665-.1169-.981-.1031-.317-.2675-.61-.4839-.862-.2164-.253-.4807-.46-.7774-.611-.2967-.15-.62-.241-.9517-.266z"/><path d="m76.0708 124.3h-.2201-18.3399c-.5876.133-1.1098.468-1.4754.947-.3655.479-.5512 1.071-.5246 1.673v18.63c-.029.604.1556 1.198.5213 1.679.3658.481.8893.818 1.4787.951h18.3399c.6281-.084 1.2032-.396 1.6148-.878s.6306-1.099.6152-1.732l.3201-18.55c.0259-.332-.0138-.665-.117-.981-.1031-.317-.2674-.61-.4838-.862-.2165-.253-.4807-.46-.7774-.611-.2967-.15-.6201-.241-.9518-.266z"/></g><path d="m106.008 59.82h-.2-17.9196c-.5808.1241-1.0995.4485-1.4652.9166-.3657.468-.5549 1.0498-.5348 1.6434v83.25c-.0217.593.1672 1.174.5333 1.641s.8858.789 1.4667.909h17.9196c.612-.079 1.172-.383 1.571-.853.399-.469.609-1.071.589-1.687l.31-83.24c.031-.6406-.189-1.268-.612-1.7495-.424-.4815-1.018-.7793-1.658-.8305z" fill="#fff"/><path d="m105.14 62.85h-.19-16.11c-.519.1143-.9813.4072-1.3066.8275s-.4928.9414-.4733 1.4725v79.4c-.0171.529.1515 1.048.4766 1.466.3251.419.7861.71 1.3033.824h16.06c.559-.065 1.073-.335 1.443-.758.37-.424.568-.97.557-1.532l.28-79.31c.044-.587-.145-1.1677-.527-1.6154-.383-.4477-.926-.7261-1.513-.7746z" fill="#002e36"/></svg>