<svg fill="none" height="167" viewBox="0 0 148 167" width="148" xmlns="http://www.w3.org/2000/svg"><path d="m99.6991 109.33c6.3499 16.08 21.9099 26.11 39.5499 27.45.32 0 .65.06 1 .07-.027.042-.057.082-.09.12-7.57 9.655-17.453 17.244-28.734 22.064-11.281 4.821-23.5967 6.718-35.806 5.516-29.13-2.83-56.3399-22.72-68.46993-53.4-16.81-42.5701 1.75999-89.81 41.49003-105.51001 13.1588-5.200882 27.5456-6.465511 41.41-3.64001 22.9999 4.59 43.9999 19.77002 56.3299 42.36002-5.458.4879-10.816 1.761-15.91 3.78-26.26 10.41-40.0299 37.77-30.7699 61.19z" fill="#ed6c58"/><path d="m99.6999 109.33c6.3501 16.08 21.9101 26.11 39.5501 27.45l.89.19c2.489.517 5.012.851 7.55 1-8.356 10.691-19.526 18.841-32.256 23.536-12.731 4.695-26.5179 5.749-39.8142 3.044-26.23-5.22-49.92-24.26-61-52.3-16.81996-42.57 1.7501-89.8 41.4701-105.50999 10.7941-4.26509 22.4508-5.890174 33.9999-4.73999 23.0002 4.59 44.0002 19.76998 56.3302 42.35998-5.458.4879-10.816 1.7611-15.91 3.78-26.3 10.41-40.0701 37.77-30.8101 61.19z" fill="#f8b06c"/><path d="m142.782 135.73-.93-90.79" stroke="#f8b06c" stroke-linecap="round" stroke-linejoin="round" stroke-width="9.08"/><path d="m111.62 25.96c.823 2.0804 1.01 4.3581.539 6.545-.472 2.1869-1.582 4.1848-3.189 5.7409-1.608 1.5561-3.641 2.6006-5.842 3.0012-2.201.4007-4.4712.1396-6.5238-.7503s-3.7952-2.3686-5.0073-4.249c-1.2122-1.8804-1.8394-4.0781-1.8024-6.315s.7367-4.4126 2.0104-6.2519c1.2737-1.8392 3.0643-3.2594 5.1453-4.0809 1.3807-.5465 2.8556-.8154 4.3408-.7915 1.484.0239 2.95.3402 4.312.9309 1.363.5907 2.595 1.4441 3.628 2.5115 1.032 1.0673 1.844 2.3277 2.389 3.7091z" fill="#003b45"/><path d="m71.1983 25.9599c.8229 2.0804 1.0103 4.3582.5385 6.5451s-1.5816 4.1848-3.189 5.7409-3.6402 2.6006-5.8413 3.0012c-2.2011.4007-4.4715.1395-6.5241-.7503-2.0526-.8899-3.7952-2.3686-5.0074-4.249-1.2121-1.8804-1.8394-4.0781-1.8024-6.315.0371-2.2369.7367-4.4126 2.0104-6.2519s3.0643-3.2595 5.1453-4.0809c2.7888-1.101 5.9007-1.0495 8.6516.1432 2.7509 1.1926 4.9156 3.4287 6.0184 6.2167z" fill="#138971"/><path d="m42.6709 56.42c.8229 2.0804 1.0103 4.3581.5385 6.545s-1.5816 4.1848-3.189 5.7409-3.6402 2.6006-5.8412 3.0013c-2.2011.4006-4.4716.1394-6.5242-.7505s-3.7952-2.3685-5.0074-4.2489c-1.2121-1.8804-1.8393-4.0781-1.8023-6.315.037-2.237.7366-4.4126 2.0103-6.2519 1.2737-1.8392 3.0643-3.2594 5.1453-4.0809 1.3807-.5465 2.8557-.8155 4.3405-.7916 1.4848.024 2.9503.3403 4.3127.931 1.3625.5907 2.5951 1.4441 3.6275 2.5115s1.8443 2.3277 2.3893 3.7091z" fill="#681619"/><path d="m46.8386 97.73c.8184 2.0801 1.0021 4.356.5279 6.541-.4743 2.184-1.5852 4.179-3.1925 5.732-1.6073 1.554-3.6389 2.596-5.8382 2.996-2.1994.399-4.4678.138-6.5188-.75-2.0511-.889-3.7927-2.366-5.0051-4.244s-1.8411-4.073-1.8067-6.308c.0345-2.2351.7304-4.4099 2-6.2497s3.0559-3.2621 5.1333-4.0873c1.3831-.5509 2.8614-.8229 4.35-.8007 1.4885.0223 2.958.3384 4.324.9304 1.366.5919 2.6016 1.4479 3.6357 2.5188 1.0342 1.0709 1.8465 2.3356 2.3904 3.7215z" fill="#ea5624"/><path d="m78.2582 133.13c.822 2.08 1.0088 4.357.5367 6.544-.4721 2.186-1.5818 4.183-3.1888 5.739-1.6071 1.555-3.6394 2.6-5.8399 3-2.2005.401-4.4703.141-6.5227-.749-2.0523-.889-3.795-2.366-5.0076-4.246-1.2125-1.879-1.8406-4.076-1.8048-6.313.0359-2.236.7339-4.412 2.0061-6.251 1.2721-1.84 3.0612-3.261 5.141-4.084 1.3814-.547 2.8571-.816 4.3426-.792s2.9518.34 4.315.931c1.3633.59 2.5968 1.444 3.6302 2.511 1.0333 1.068 1.8462 2.328 2.3922 3.71z" fill="#e73147"/></svg>