<svg fill="none" height="57" viewBox="0 0 51 57" width="51" xmlns="http://www.w3.org/2000/svg"><path clip-rule="evenodd" d="m3.46071 18.0599 11.53999-8.81998c-.4116-.37791-.8606-.71296-1.34-1-.8298-.4556-1.7338-.76032-2.67-.9-.9625-.13115-1.9414-.06998-2.88003.18-.92943.25159-1.80191.67935-2.57001 1.26001-.76816.59206-1.41637 1.32517-1.90997 2.15997-.48066.8418-.79311 1.769-.91998 2.73-.13542.9457-.07415 1.9091.17999 2.83.1326.5357.33073 1.0529.58997 1.54z" fill="#006ea4" fill-rule="evenodd"/><path clip-rule="evenodd" d="m35.3398 8.48995 11.52 8.85005c.2579-.4947.4656-1.014.62-1.5501.229-.932.28-1.899.15-2.8499-.1154-.9605-.4286-1.8867-.92-2.7201-.4842-.82685-1.1223-1.55327-1.88-2.13995-.7646-.5908-1.6378-1.0257-2.57-1.28-.938-.25373-1.9177-.31496-2.88-.18-.9481.1294-1.8638.43462-2.7.9-.4763.29169-.9248.62642-1.34 1z" fill="#006ea4" fill-rule="evenodd"/><path clip-rule="evenodd" d="m41.1809 16.7001c-2.0286-2.0546-4.4546-3.6742-7.13-4.76-2.5233-1.0303-5.215-1.5863-7.94-1.6401h-.4699c-5.8148.0037-11.3902 2.3165-15.5 6.43-2.03901 2.0418-3.66239 4.4598-4.78007 7.12-1.09389 2.6582-1.65449 5.5056-1.64997 8.38-.00147 2.8839.55894 5.7405 1.64997 8.4101 2.24013 5.3706 6.51677 9.6349 11.89377 11.8595 5.3771 2.2247 11.4165 2.2285 16.7962.0105 5.3845-2.254 9.6735-6.5251 11.95-11.9001 1.0864-2.6709 1.6467-5.5265 1.6501-8.4099.0103-2.881-.553-5.7353-1.657-8.3964-1.1039-2.6611-2.7265-5.0759-4.7731-7.1036z" fill="#fff" fill-rule="evenodd"/><path clip-rule="evenodd" d="m8.99878 50.68c-.23461-.1728-.45835-.3598-.66998-.56l-2.11005 3.73h2.5l1.31005-2.34-.08001-.08c-.36-.26-.67001-.51-.95001-.75z" fill="#006ea4" fill-rule="evenodd"/><path clip-rule="evenodd" d="m40.8906 51.74 1.19 2.11h2.49l-2-3.47c-.21.18-.44.36-.67.54-.31.25-.64.51-1 .74z" fill="#006ea4" fill-rule="evenodd"/><path clip-rule="evenodd" d="m26.141 10.2701c2.725.0537 5.4167.6097 7.94 1.6399 2.6754 1.0859 5.1014 2.7055 7.13 4.7601 2.0466 2.0277 3.6692 4.4425 4.7731 7.1036 1.104 2.6611 1.6672 5.5154 1.6569 8.3964-.0034 2.8834-.5636 5.7391-1.65 8.41-2.2664 5.3506-6.5276 9.6081-11.88 11.87-2.6693 1.092-5.526 1.6524-8.41 1.65-4.3339-.0157-8.5675-1.3059-12.1735-3.7099-3.60601-2.404-6.4252-5.8156-8.10655-9.8101-1.09103-2.6696-1.65143-5.5261-1.64996-8.41-.00452-2.8745.55607-5.7218 1.64996-8.38 1.11768-2.6603 2.74106-5.0783 4.78005-7.12 4.1099-4.1135 9.6852-6.4264 15.5-6.43h.4699zm20.72 7.07-11.52-8.85003c.4152-.37358.8637-.70831 1.34-1 .8361-.46538 1.7518-.77061 2.7-.9.9623-.13496 1.942-.07374 2.88.18.9322.2543 1.8054.6892 2.57 1.27999.7576.58669 1.3958 1.31314 1.88 2.14004.4913.8333.8046 1.7595.92 2.7199.1299.951.079 1.918-.1501 2.8501-.1544.536-.3621 1.0553-.6199 1.55zm-31.86-8.10003-11.52005 8.82003c-.25924-.4871-.45737-1.0044-.58997-1.54-.25414-.9209-.31541-1.8844-.17999-2.83.12688-.961.43932-1.8882.91998-2.73.4936-.8348 1.14182-1.56797 1.90998-2.16004.7681-.58066 1.64057-1.00838 2.57-1.25998.93864-.24997 1.91755-.31117 2.88005-.18002.9362.13968 1.8402.44443 2.6699.90003.4795.28703.9285.62209 1.3401 1zm2.8499-.59 7.8401-.89999c-2.5853-.00918-5.1551.39941-7.61 1.20999l-.18-.23999v-.07001c-.7951-1.02724-1.7795-1.8928-2.9-2.54999-1.1293-.63412-2.3673-1.05131-3.6501-1.23001-1.2869-.18068-2.59702-.10119-3.85268.23377-1.25566.33495-2.43131.91857-3.45727 1.71624-1.03029.78469-1.89477 1.7658-2.54358 2.88663-.648815 1.12079-1.069053 2.35909-1.236392 3.64339-.1811062 1.2888-.097141 2.6011.246765 3.8563.343905 1.2553.940507 2.4271 1.753237 3.4437l.04999.08 1.48999.77c-.23.44-.44.9-.62 1.34-2.467021 5.9962-2.467021 12.7238 0 18.72.93079 2.21 2.16974 4.2772 3.67999 6.14l-3.82995 6.79v.13l-1 1.75h8.28l.34-.59v-.0601l1.75-3.0799c3.9884 2.6116 8.6526 4.0019 13.42 4 3.1509-.0068 6.2698-.632 9.18-1.84 1.2623-.5201 2.4769-1.1492 3.63-1.88l1.5899 2.7999v.0601l.3301.59h8.28l-1-1.75v-.13l-3.6001-6.35c1.6705-1.9698 3.0204-4.1903 4-6.58 1.2348-2.9654 1.8639-6.1478 1.8501-9.36.0108-3.2119-.6181-6.3938-1.8501-9.36-.2799-.67-.5899-1.34-.9199-2h.07l.7199-.92.06-.08c.7735-1.0346 1.3467-2.2047 1.69-3.45.335-1.248.4133-2.5509.2301-3.83-.1493-1.2958-.5683-2.546-1.2301-3.67001-.6458-1.12302-1.5134-2.1029-2.5499-2.88-1.0151-.80114-2.1871-1.38031-3.44-1.70002-1.2561-.34552-2.569-.43396-3.86-.26001-2.5975.34359-4.9529 1.70288-6.55 3.78v.08002l-.44.59c-1.6796-.4508-3.4029-.71901-5.14-.79999zm-8.84993 42.03003c.28.24.59001.49.95001.75l.08002.08-1.31006 2.34h-2.5l2.11005-3.73c.21163.2002.43537.3872.66998.56zm33.00003.24c.23-.18.46-.36.67-.54l2 3.47h-2.49l-1.19-2.11.1099-.0801c.31-.23.64-.4899 1-.7399z" fill="#eeefe7" fill-rule="evenodd"/><path d="m32.0003 7.39008v-5.48001c0-.36865-.1464-.7222-.4071-.98288-.2607-.260675-.6143-.407135-.9829-.407135h-10.88c-.1839-.001317-.3662.033612-.5365.102753-.1704.069142-.3254.171158-.4564.300232-.1309.12907-.2352.28267-.3067.45203-.0716.16935-.1091.35115-.1104.535v5.48001c4.4463-1.44 9.2337-1.44 13.68 0z" fill="#006ea4"/><g fill="#ffbc3d"><path clip-rule="evenodd" d="m14.8984 14.43.57-.31 1.46 2.55-.54.31z" fill-rule="evenodd"/><path d="m7.7685 21.6221-.30756.5383 2.55276 1.4584.3076-.5383z"/><path d="m7.8584 32.02h-2.95996v.62h2.95996z"/><path clip-rule="evenodd" d="m7.91156 42.9699-.31-.54 2.54004-1.49.31.57z" fill-rule="evenodd"/><path d="m41.3127 40.6848-.3088.5376 2.5495 1.4642.3087-.5376z"/><path d="m46.4495 31.76h-2.93v.64h2.93z"/><path clip-rule="evenodd" d="m43.4406 21.4299.31.56-2.52 1.4701-.34-.5401z" fill-rule="evenodd"/><path clip-rule="evenodd" d="m35.6709 14 .55.3-1.47 2.55-.54-.31z" fill-rule="evenodd"/><path clip-rule="evenodd" d="m21.0703 11.94.33-.05.47 2.26-.31.08z" fill-rule="evenodd"/><path clip-rule="evenodd" d="m18.9883 12.53.31-.1001.72 2.2101-.31.0999z" fill-rule="evenodd"/><path clip-rule="evenodd" d="m16.9609 13.35.31-.13.95 2.11-.31.13z" fill-rule="evenodd"/><path clip-rule="evenodd" d="m13.2305 15.57.26-.19 1.38 1.88-.28.18z" fill-rule="evenodd"/><path clip-rule="evenodd" d="m11.5586 16.95.25-.2 1.55 1.72-.23.2z" fill-rule="evenodd"/><path clip-rule="evenodd" d="m10.0391 18.5201.23-.2301 1.72 1.5401-.2.23z" fill-rule="evenodd"/><path clip-rule="evenodd" d="m8.69922 20.2199.17999-.2599 1.90999 1.3599-.21.2601z" fill-rule="evenodd"/><path clip-rule="evenodd" d="m6.60156 24.02.12-.31 2.11004.9499-.13.2901z" fill-rule="evenodd"/><path clip-rule="evenodd" d="m5.82031 26.05.10999-.3 2.21002.72-.10999.3z" fill-rule="evenodd"/><path clip-rule="evenodd" d="m5.30859 28.16.04999-.31 2.29004.49-.08002.31z" fill-rule="evenodd"/><path clip-rule="evenodd" d="m5 30.32.03003-.33 2.31.26-.05005.3z" fill-rule="evenodd"/><path clip-rule="evenodd" d="m5.05121 34.67-.01996-.34 2.27997-.23.06.31z" fill-rule="evenodd"/><path clip-rule="evenodd" d="m5.40936 36.8-.04998-.31 2.26-.49.08002.31z" fill-rule="evenodd"/><path clip-rule="evenodd" d="m5.99841 38.88-.09997-.3 2.20996-.72.10998.3z" fill-rule="evenodd"/><path clip-rule="evenodd" d="m6.82922 40.9099-.13-.3 2.10998-.93.12.2801z" fill-rule="evenodd"/><path clip-rule="evenodd" d="m9.03937 44.64-.17999-.25 1.87002-1.37.18.26z" fill-rule="evenodd"/><path clip-rule="evenodd" d="m42.6398 44.1801-.18.26-1.87-1.36.17-.26z" fill-rule="evenodd"/><path clip-rule="evenodd" d="m44.7717 40.4-.12.2799-2.14-.95.13-.2799z" fill-rule="evenodd"/><path clip-rule="evenodd" d="m45.5209 38.34-.1.31-2.21-.72.1-.31z" fill-rule="evenodd"/><path clip-rule="evenodd" d="m46.0588 36.24-.07.33-2.27-.49.05-.33z" fill-rule="evenodd"/><path clip-rule="evenodd" d="m46.3712 34.1-.05.31-2.29-.23.03-.33z" fill-rule="evenodd"/><path clip-rule="evenodd" d="m46.2905 29.76.06.31-2.32.25-.05-.33z" fill-rule="evenodd"/><path clip-rule="evenodd" d="m45.9319 27.6.08.33-2.29.46-.05-.3z" fill-rule="evenodd"/><path clip-rule="evenodd" d="m45.3389 25.51.1.31-2.21.72-.1-.31z" fill-rule="evenodd"/><path clip-rule="evenodd" d="m44.5402 23.48.13.31-2.13.95-.13-.31z" fill-rule="evenodd"/><path clip-rule="evenodd" d="m42.3097 19.75.18.26-1.88 1.39-.18-.28z" fill-rule="evenodd"/><path clip-rule="evenodd" d="m40.9192 18.0801.21.26-1.73 1.54-.2-.23z" fill-rule="evenodd"/><path clip-rule="evenodd" d="m39.3486 16.5701.26.2299-1.57 1.7201-.23-.2z" fill-rule="evenodd"/><path clip-rule="evenodd" d="m37.6491 15.23.26.18-1.36 1.9-.26-.2z" fill-rule="evenodd"/><path clip-rule="evenodd" d="m33.8819 13.12.28.13-.95 2.11-.29-.13z" fill-rule="evenodd"/><path clip-rule="evenodd" d="m31.8216 12.35.31.1-.72 2.21-.31-.1z" fill-rule="evenodd"/><path clip-rule="evenodd" d="m29.7088 11.8401.33.05-.48 2.2799-.34-.07z" fill-rule="evenodd"/><path clip-rule="evenodd" d="m27.5803 11.53.3.02-.23 2.32-.33-.05z" fill-rule="evenodd"/><path clip-rule="evenodd" d="m32.9509 17.4099h1.26v4.3701h-.85v-3.57h-.9z" fill-rule="evenodd"/><path clip-rule="evenodd" d="m38.4312 24.13h-.8c-.0063-.2083.0293-.4157.1049-.6098.0756-.1942.1896-.3711.3351-.5202.2264-.2206.5175-.3629.8306-.406.3131-.0432.6318.0149.9094.166.2095.1096.3804.2805.49.49.1302.1886.2031.4109.21.64-.0095.291-.0883.5755-.23.8299-.2162.4027-.4965.7675-.83 1.0801l-.49.51h1.57v.77h-3v-.41l1.36-1.36c.2382-.2485.4555-.5161.65-.8.0935-.1722.145-.3641.15-.56.0038-.1538-.0496-.3035-.15-.42-.1241-.1009-.2801-.1541-.44-.15-.0823-.0064-.1649.0066-.2413.0379-.0764.0312-.1444.0799-.1987.1421-.1282.1624-.1986.363-.2.57z" fill-rule="evenodd"/><path clip-rule="evenodd" d="m40.3289 30.63h-.8c.0359-.2843.154-.552.34-.77.1294-.1335.2851-.2389.4572-.3094.1721-.0706.3569-.1048.5428-.1006.1645-.0086.3291.0162.4838.0729.1546.0567.2963.1442.4162.2572.1175.1032.2107.2311.273.3746.0622.1435.092.299.087.4553-.0024.1882-.0579.3719-.16.53-.1124.1718-.2721.3073-.46.3901.2533.0609.4788.2053.64.4099.135.2087.2078.4515.21.7.0043.1888-.0329.3761-.1089.5489s-.1891.3268-.3311.4511c-.2987.2756-.6938.4229-1.1.41-.3696.0054-.7273-.1305-1-.38-.2719-.2873-.4285-.6646-.44-1.06h.82c.0146.1937.1.3753.24.51.1273.11.2919.1673.46.1601.0897.0054.1795-.0078.2639-.0387.0843-.031.1613-.0792.2261-.1414.0604-.0599.1076-.1317.1386-.2109.031-.0793.0451-.1641.0414-.2491 0-.1009-.0235-.2004-.0686-.2907-.0451-.0902-.1107-.1687-.1914-.2293-.2196-.1508-.4845-.2214-.75-.2v-.72c.1606.0068.3208-.0205.47-.08.0941-.0481.1735-.1207.23-.21.0534-.0723.0815-.1602.08-.25-.0075-.109-.0536-.2118-.13-.29-.0934-.0826-.2154-.1257-.34-.12-.1122-.0065-.2228.0291-.31.1-.0983.0661-.1694.1656-.2.28z" fill-rule="evenodd"/><path clip-rule="evenodd" d="m39.0016 37.1899h.85v2.81h.39v.7701h-.39v.8999h-.82v-.8999h-1.93v-.7701zm0 2.8v-1.4699l-1 1.4699z" fill-rule="evenodd"/><path clip-rule="evenodd" d="m33.1791 43.1799h2.06v.82h-1.44l-.18.8c.049-.0141.101-.0141.15 0 .0422-.0137.0878-.0137.13 0 .1872-.0068.3736.0273.5463.0998s.3275.1818.4537.3202c.1285.1322.2292.2888.2962.4606.067.1717.0988.3551.0938.5394.0036.2004-.0335.3996-.1092.5852-.0756.1857-.1882.354-.3308.4948-.1352.1418-.2983.2541-.479.3299-.1807.0757-.3751.1132-.571.1101-.3592.0158-.7127-.0938-1-.31-.2641-.2235-.444-.5304-.51-.87h.87c.0646.12.1531.2255.26.31.1126.0557.2348.0896.36.1.0924.0003.1838-.0185.2685-.0553.0847-.0367.1609-.0906.2238-.1583.0629-.0676.1112-.1474.1418-.2346.0306-.0871.0428-.1797.0359-.2718.0055-.0896-.0077-.1795-.0386-.2638-.031-.0844-.0792-.1614-.1414-.2262-.0547-.0615-.1229-.1098-.1992-.141-.0762-.0312-.1586-.0445-.2408-.0389-.085-.024-.175-.024-.26 0-.0978.0549-.1857.1258-.26.2099l-.69-.16z" fill-rule="evenodd"/><path clip-rule="evenodd" d="m16.6992 42.5601h2.85v.44l-1.95 4.03-.72-.33 1.64-3.37h-1.82z" fill-rule="evenodd"/><path clip-rule="evenodd" d="m13.2 39.55c.1863.1228.3379.2916.44.49.1218.1909.1844.4136.18.64-.0021.2485-.075.4913-.21.7-.1084.2069-.2753.3773-.48.49-.2632.107-.5459.1581-.83.15-.2877.014-.5748-.0373-.8399-.15-.2042-.1076-.3741-.2705-.4901-.47-.1271-.2181-.1895-.4678-.18-.72.0026-.2197.0467-.4368.13-.64.1172-.1939.2739-.3609.46-.49-.1239-.1273-.2284-.2722-.31-.43-.0507-.1516-.0777-.3101-.08-.47-.0056-.2144.0499-.426.1601-.61.0946-.1979.2581-.3543.4599-.44.2147-.1056.4508-.1603.69-.16.233-.0017.4629.0532.67.16.1972.0926.3587.2471.46.44.1042.1864.1593.3964.1601.61.0004.1503-.0267.2995-.0801.44-.0757.1702-.1806.3258-.31.46zm-.9199-1.31c-.132-.0031-.2605.0433-.3601.13-.085.1005-.1312.2283-.13.36-.0027.0629.0095.1256.0355.1829.0261.0574.0653.1078.1145.1471.0399.0518.0915.0934.1506.1212.0592.0279.1241.0411.1895.0387.0682.0024.136-.0107.1984-.0384s.1176-.0693.1615-.1215c.0876-.0991.1341-.2278.1301-.36-.0014-.0633-.0164-.1256-.0441-.1825-.0276-.057-.0671-.1073-.116-.1475-.0433-.0429-.0949-.0766-.1516-.0989-.0567-.0224-.1174-.033-.1783-.0311zm0 1.75c-.1868-.0075-.3694.0569-.51.18-.0625.0557-.1133.1233-.1493.1988-.0361.0756-.0568.1575-.0608.2412.002.0869.0215.1725.0576.2516.0362.0791.088.15.1525.2084.143.1189.3239.1827.51.18.1802.0044.3554-.06.49-.18.0664-.0523.1199-.1192.1563-.1955s.0548-.16.0536-.2445c-.0038-.088-.025-.1744-.0623-.2542-.0373-.0799-.0899-.1516-.1549-.211-.065-.0595-.1412-.1055-.224-.1355s-.1707-.0434-.2587-.0393z" fill-rule="evenodd"/><path clip-rule="evenodd" d="m9.89063 35.0999-.70001-.3299.75-1.49c-.17538.0025-.34922-.0329-.50971-.1036-.16049-.0708-.30385-.1753-.42029-.3065-.12911-.1313-.22957-.2879-.29498-.4601-.06541-.1721-.09436-.356-.08502-.5399-.00697-.1836.02309-.3668.08838-.5386.06528-.1718.16445-.3287.29162-.4614.26989-.254.62951-.3907.99998-.38.1865-.0087.3727.0235.5454.0943.1728.0708.3279.1786.4546.3158.2464.2545.3829.5956.38.9499.0093.132-.0076.2646-.05.39-.061.2261-.1554.4418-.28.64zm.09997-2.62c.1508.0043.2976-.0494.41-.1499.1009-.1241.1541-.2802.15-.4401.003-.0765-.0106-.1529-.04-.2236-.0293-.0708-.0737-.1344-.13-.1864-.0465-.0582-.1061-.1048-.1737-.136-.0677-.0313-.1418-.0463-.2163-.044-.07463-.0031-.14891.0116-.21673.0429-.06783.0313-.12726.0783-.17328.1371-.10898.1095-.17316.2557-.17999.41-.00156.0818.0136.163.04455.2386.03095.0757.07704.1442.13544.2015.05178.0496.11297.0885.17993.1142.06696.0258.13837.0379.21008.0357z" fill-rule="evenodd"/><path clip-rule="evenodd" d="m16.3081 17.72h1.26v4.38h-.84v-3.58h-.9z" fill-rule="evenodd"/><path clip-rule="evenodd" d="m18.8611 17.72h1.23v4.38h-.82v-3.58h-.9z" fill-rule="evenodd"/><path clip-rule="evenodd" d="m23.4119 15.3301h1.26v4.37h-.85v-3.6001h-.9z" fill-rule="evenodd"/><path clip-rule="evenodd" d="m26.2884 16.75h-.8c-.0031-.419.1544-.8234.44-1.13.2865-.2607.6628-.4005 1.05-.39.2485-.0077.4953.0437.72.15.192.1319.3581.298.49.49.1058.2013.1672.423.18.65-.014.2935-.0925.5803-.23.84-.2184.3926-.4948.75-.82 1.06l-.49.51h1.57v.77h-3v-.41l1.37-1.36c.2458-.239.4608-.5077.64-.8.0909-.166.1422-.3508.15-.54.0041-.1598-.0491-.3159-.15-.44-.1217-.1051-.2794-.1589-.44-.15-.0831-.0011-.1654.0173-.2401.0537-.0747.0365-.1397.0901-.1899.1563-.129.1512-.2029.3415-.21.54z" fill-rule="evenodd"/><path clip-rule="evenodd" d="m10.8584 23.02h1.26v4.37h-.82v-3.57h-.9z" fill-rule="evenodd"/><path clip-rule="evenodd" d="m14.3106 22.92c.2997-.0077.5951.0722.85.23.2374.1843.4149.4348.51.72.2803.8782.2803 1.8218 0 2.7-.0923.2865-.2703.5378-.51.72-.2459.1613-.5361.2418-.83.23-.2939.017-.585-.0655-.8263-.2343-.2413-.1687-.4188-.4138-.5037-.6957-.1569-.4252-.2283-.8772-.21-1.33-.0477-.6092.0882-1.2187.39-1.75.1196-.1892.2871-.3435.4856-.4471.1984-.1036.4207-.1529.6444-.1429zm0 .79c-.1295.0101-.2539.055-.36.13-.1151.1376-.2003.2976-.25.47-.0625.3295-.0893.6647-.08 1-.0286.3884.0438.7777.21 1.13.0439.0957.1143.1769.2029.2337.0887.0569.1918.0871.2971.0871s.2084-.0302.2971-.0871c.0886-.0568.159-.138.2029-.2337.1756-.3778.248-.7952.21-1.21.0386-.4022-.0233-.8077-.18-1.18-.0465-.0995-.1198-.1839-.2116-.244-.0919-.0601-.1987-.0933-.3084-.096z" fill-rule="evenodd"/></g><path clip-rule="evenodd" d="m26.42 26-.26 7.15h-.85l-.31-7.15c.23-1.75.49-4.86.7-5.27.18.41.51 3.52.77 5.27z" fill="#006ea4" fill-rule="evenodd"/><path clip-rule="evenodd" d="m27.8297 40.6801-2.9-9.41.9-.2 3.06 9.2799c.31 1.36 2.7 9.6401 2.57 9.8501-.26-.08-3.06-8.21-3.63-9.52z" fill="#006ea4" fill-rule="evenodd"/><path clip-rule="evenodd" d="m24.3883 32.66 15.12-10.54 1.85-1.13.23.33-1.83 1.39-15.01 10.47.15.2-3.31 2.24-.6-.93 3.27-2.23z" fill="#006ea4" fill-rule="evenodd"/><path clip-rule="evenodd" d="m25.6709 33.6699c.2912.002.5763-.0825.8194-.2428.243-.1603.433-.3892.5458-.6576.1128-.2685.1434-.5644.0878-.8502s-.1948-.5486-.4-.7552-.4671-.3476-.7525-.4051c-.2854-.0576-.5815-.0291-.8507.0819-.2692.1109-.4994.2994-.6613.5413-.162.242-.2485.5266-.2485.8178.0051.3865.1603.7559.4327 1.0302s.6408.432 1.0273.4397z" fill="#006ea4" fill-rule="evenodd"/><path clip-rule="evenodd" d="m15.6689 50.4001-.54-.31 1.47-2.5401.54.31z" fill="#ffbc3d" fill-rule="evenodd"/><path d="m26.1083 50.04h-.62v2.93h.62z" fill="#ffbc3d"/><path clip-rule="evenodd" d="m36.4502 49.9699-.54.3001-1.5-2.5201.57-.33z" fill="#ffbc3d" fill-rule="evenodd"/><path clip-rule="evenodd" d="m10.4288 46.32-.21-.24 1.72-1.57.21.24z" fill="#ffbc3d" fill-rule="evenodd"/><path clip-rule="evenodd" d="m11.9917 47.83-.23-.2 1.55-1.75.23.23z" fill="#ffbc3d" fill-rule="evenodd"/><path clip-rule="evenodd" d="m13.6897 49.17-.26-.18 1.37-1.88.25.18z" fill="#ffbc3d" fill-rule="evenodd"/><path clip-rule="evenodd" d="m17.5014 51.3-.31-.13.95-2.13.28.13z" fill="#ffbc3d" fill-rule="evenodd"/><path clip-rule="evenodd" d="m19.5288 52.05-.31-.1.72-2.22.31.11z" fill="#ffbc3d" fill-rule="evenodd"/><path clip-rule="evenodd" d="m21.6381 52.59-.31-.08.49-2.26.31.05z" fill="#ffbc3d" fill-rule="evenodd"/><path clip-rule="evenodd" d="m23.8009 52.9001-.34-.0501.26-2.2899.31.02z" fill="#ffbc3d" fill-rule="evenodd"/><path clip-rule="evenodd" d="m28.1381 52.82-.33.05-.23-2.31.3-.03z" fill="#ffbc3d" fill-rule="evenodd"/><path clip-rule="evenodd" d="m30.2705 52.46-.3.0799-.49-2.29.31-.0499z" fill="#ffbc3d" fill-rule="evenodd"/><path clip-rule="evenodd" d="m32.3581 51.8699-.31.1-.72-2.21.31-.1z" fill="#ffbc3d" fill-rule="evenodd"/><path clip-rule="evenodd" d="m34.3884 51.0699-.31.1301-.93-2.1301.29-.13z" fill="#ffbc3d" fill-rule="evenodd"/><path clip-rule="evenodd" d="m38.12 48.83-.26.2099-1.36-1.8999.25-.18z" fill="#ffbc3d" fill-rule="evenodd"/><path clip-rule="evenodd" d="m39.7883 47.45-.23.2-1.57-1.72.23-.21z" fill="#ffbc3d" fill-rule="evenodd"/><path clip-rule="evenodd" d="m41.3116 45.8801-.24.25-1.72-1.56.23-.23z" fill="#ffbc3d" fill-rule="evenodd"/><path clip-rule="evenodd" d="m26.0592 44.64.69.36-.7399 1.49c.1845-.0068.3684.0243.5404.0914.172.067.3284.1687.4596.2986.1271.1327.2263.2896.2916.4614s.0953.355.0884.5386c.0094.1866-.0225.3729-.0934.5458-.0708.1728-.179.3279-.3167.4542-.1177.1356-.2638.2436-.428.3162s-.3424.108-.5219.1038c-.1874.0082-.3742-.0252-.5471-.0979-.1729-.0726-.3276-.1826-.4529-.3221-.13-.1312-.2316-.2876-.2987-.4596s-.0982-.3559-.0913-.5404c-.0086-.1365-.0086-.2735 0-.41.0858-.2116.1826-.4185.2899-.62zm-.0999 2.63c-.0741.0005-.1472.0168-.2145.0479-.0673.031-.1271.0761-.1755.1321-.1015.1119-.1554.259-.1501.41-.0053.157.0482.3104.1501.43.0469.0566.1057.1022.1723.1335.0665.0312.1391.0475.2127.0475.0735 0 .1461-.0163.2127-.0475.0665-.0313.1254-.0769.1723-.1335.062-.0522.1106-.1185.1419-.1933.0313-.0747.0444-.1559.0381-.2367.0053-.151-.0486-.2981-.1501-.41-.11-.1082-.2558-.1722-.4099-.18z" fill="#ffbc3d" fill-rule="evenodd"/><path d="m25.8783 11.4199h-.64v2.96h.64z" fill="#ffbc3d"/><path clip-rule="evenodd" d="m23.2305 11.5801.31-.0301.26 2.2901-.34.05z" fill="#ffbc3d" fill-rule="evenodd"/></svg>