<svg fill="none" height="75" viewBox="0 0 33 75" width="33" xmlns="http://www.w3.org/2000/svg"><path clip-rule="evenodd" d="m6.71875 8.88995-3.23999-6.97003-3.26001 6.97003 3.57001 2.23995z" fill="#f2c89d" fill-rule="evenodd"/><path d="m4.45093 8.89001h-4.239992v65.32999h4.239992z" fill="#49514c"/><path d="m6.71906 8.89001h-2.93v65.32999h2.93z" fill="#2f3633"/><path clip-rule="evenodd" d="m3.99877 2.48999c.0281.07992.03665.16544.0249.24933s-.04344.16373-.09241.23285c-.04896.06912-.11384.12552-.18908.16443-.07525.0389-.1587.0592-.24341.0592s-.16816-.0203-.24341-.0592c-.07524-.03891-.14012-.09531-.18909-.16443-.04896-.06912-.08065-.14896-.0924-.23285s-.0032-.16941.0249-.24933v-1.33997c-.0281-.07991-.03665-.165432-.0249-.249324s.04344-.163727.0924-.232849c.04897-.069123.11385-.125521.18909-.164429.07525-.038908.1587-.059204.24341-.059204s.16816.020296.24341.059204c.07524.038908.14012.095306.18908.164429.04897.069122.08066.148957.09241.232849s.0032.169414-.0249.249324z" fill="#2f3633" fill-rule="evenodd"/><path clip-rule="evenodd" d="m20.1914 9.21997-3.24-6.96997-3.26 6.96997 3.6 2.26003z" fill="#f2c89d" fill-rule="evenodd"/><path d="m17.9314 9.21997h-4.24v65.33003h4.24z" fill="#ffd877"/><path d="m20.1991 9.21997h-2.91v65.33003h2.91z" fill="#d8b86c"/><path clip-rule="evenodd" d="m17.4702 2.81995c0 .0696-.0138.13851-.0404.20282-.0266.0643-.0656.12272-.1149.17193-.0492.04922-.1076.08824-.1719.11487-.0643.02664-.1332.04034-.2028.04034s-.1385-.0137-.2028-.04034c-.0643-.02663-.1228-.06565-.172-.11487-.0492-.04921-.0883-.10763-.1149-.17193-.0266-.06431-.0403-.13322-.0403-.20282v-1.34003c0-.0696.0137-.13852.0403-.20282s.0657-.12272.1149-.17194c.0492-.04921.1077-.08823.172-.114865s.1332-.040344.2028-.040344.1385.013709.2028.040344.1227.065655.1719.114865c.0493.04922.0883.10764.1149.17194s.0404.13322.0404.20282z" fill="#2f3633" fill-rule="evenodd"/><path clip-rule="evenodd" d="m32.1211 9.21997-3.26-6.96997-3.24 6.96997 3.57 2.26003z" fill="#f2c89d" fill-rule="evenodd"/><path d="m29.8611 9.21997h-4.24v65.33003h4.24z" fill="#7d96be"/><path d="m32.1214 9.21997h-2.93v65.33003h2.93z" fill="#7187ab"/><path clip-rule="evenodd" d="m29.3998 2.81995c0 .14056-.0558.27536-.1552.37475-.0994.0994-.2342.15521-.3748.15521s-.2753-.05581-.3747-.15521c-.0994-.09939-.1553-.23419-.1553-.37475v-1.34003c0-.14057.0559-.27536.1553-.37476.0994-.09939.2341-.155209.3747-.155209s.2754.055819.3748.155209c.0994.0994.1552.23419.1552.37476z" fill="#2f3633" fill-rule="evenodd"/></svg>