<svg fill="none" height="64" viewBox="0 0 56 64" width="56" xmlns="http://www.w3.org/2000/svg"><path d="m49.8305 53.14h-48.850031v10.74h48.850031z" fill="#fdc00f"/><path d="m16.1417 53.14h-10.12998v10.74h10.12998z" fill="#fff2cf"/><path d="m19.6815 53.14h-2.0799v10.74h2.0799z" fill="#fff2cf"/><path d="m55.0219 42.4h-48.85002v10.74h48.85002z" fill="#16b6c6"/><path d="m21.3409 42.4h-10.13v10.74h10.13z" fill="#118995"/><path d="m24.8808 42.4h-2.08v10.74h2.08z" fill="#118995"/><path d="m53.1586 31.67h-48.85001v10.74h48.85001z" fill="#184f78"/><path d="m19.4698 31.67h-10.12996v10.74h10.12996z" fill="#d1dce4"/><path d="m23.0214 31.67h-2.08v10.74h2.08z" fill="#d1dce4"/><path d="m36.6 6.78001c-2.82 2.5-7.54 2.37-7.54 2.37s-.15-4.16999 2.67-6.65999c2.82-2.49000283 7.55-2.370013 7.55-2.370013s.15 4.170003-2.68 6.660003z" fill="#184f78"/><path d="m38.0612 1.21002s-.3999.50999-1.0599 1.20999-1.59 1.60001-2.56 2.46001-2.0001 1.67-2.7901 2.25c-.4407.33276-.898.64315-1.37.92999 0 0 .4-.49999 1.06-1.20999s1.59-1.60001 2.56-2.45001 2.0001-1.68 2.7901-2.26 1.3699-.92999 1.3699-.92999z" fill="#467293"/><path d="m29.0487 9c-11-2.83-16 4.41-14 12.29 1.59 6.2 7.14 11.81 14 10.08 6.83 1.73 12.38-3.88 14-10.08 1.95-7.9-3.05-15.14-14-12.29z" fill="#fc611f"/><path d="m.980469 53.14h48.840031v2.37z" fill="#000" opacity=".2"/><path d="m6.17969 42.4h48.84001v2.37z" fill="#000" opacity=".2"/><path d="m22.9087 30.94c0-.63-.09-1.26-.09-1.9-.0001-4.3864 1.3211-8.6711 3.7916-12.2957s5.9756-6.4208 10.0584-8.02428c-2.5216-.55385-5.142-.46444-7.62.25999-11-2.83-16 4.40999-14 12.28999 1.12 4.19 4 8.1 7.86 9.67z" fill="#fff" opacity=".3"/></svg>