<svg fill="none" height="79" viewBox="0 0 72 79" width="72" xmlns="http://www.w3.org/2000/svg"><path d="m35.9994 14.32c-4.1188.0031-8.144 1.2289-11.5654 3.5222-3.4214 2.2932-6.0849 5.5506-7.6529 9.3593s-1.97 7.9971-1.1549 12.0345c.815 4.0374 2.8104 7.7419 5.7332 10.644 1.63 1.62 3.52 4.46 3.88 6.74l.72 4.53h20.1l.72-4.54c.36-2.27 2.25-5.11 3.88-6.73 2.924-2.9033 4.9198-6.6096 5.7342-10.6489.8145-4.0392.4108-8.2294-1.1597-12.0389s-4.2371-7.0667-7.6616-9.3584c-3.4244-2.2917-7.4524-3.5147-11.5729-3.5138z" fill="#45c5d1"/><path d="m39.7285 62.81c-.2202 0-.4313-.0875-.587-.2431-.1556-.1557-.2431-.3668-.2431-.5869 0-.52.0801-13 7.3001-30.08.0387-.1051.0983-.2013.1752-.2827.0768-.0814.1694-.1465.2721-.1912s.2134-.0682.3254-.069.223.021.3263.0642c.1033.0433.1969.107.2749.1873.0781.0803.1391.1756.1793.2801.0403.1045.059.2161.055.328-.004.112-.0306.2219-.0782.3233-7.09 16.77-7.16 29.32-7.16 29.44-.0027.221-.0923.4321-.2496.5875-.1572.1554-.3694.2425-.5904.2425z" fill="#fdc00f"/><path d="m32.2597 62.81c-.2201 0-.4313-.0875-.5869-.2431-.1557-.1557-.2431-.3668-.2431-.5869 0-.12-.09-12.69-7.16-29.44-.0429-.1004-.0655-.2084-.0665-.3175-.0011-.1092.0194-.2176.0603-.3188.0408-.1013.1013-.1935.1779-.2713.0765-.0779.1677-.1398.2683-.1824.2043-.0832.4332-.0826.6372.0016s.3666.2452.4528.4484c7.2 17.1 7.3 29.56 7.3 30.1-.0078.2175-.0997.4236-.2564.5747s-.3659.2354-.5836.2353z" fill="#fdc00f"/><path d="m46.1087 34c-.5525-.0134-1.0946-.1528-1.585-.4076-.4905-.2547-.9163-.6181-1.245-1.0624-.2374-.3738-.5653-.6816-.9534-.8948-.3881-.2133-.8237-.325-1.2666-.325-.4428 0-.8784.1117-1.2665.325-.3881.2132-.716.521-.9535.8948-.3204.454-.7451.8243-1.2384 1.08-.4934.2556-1.0409.3891-1.5965.3891-.5557 0-1.1032-.1335-1.5966-.3891-.4933-.2557-.918-.626-1.2384-1.08-.2387-.3737-.5677-.6813-.9565-.8943-.3889-.2131-.8251-.3248-1.2685-.3248-.4435 0-.8797.1117-1.2686.3248-.3889.213-.7178.5206-.9564.8943-.3287.4443-.7545.8077-1.245 1.0624-.4904.2548-1.0325.3942-1.585.4076-.0547.0013-.1091-.0083-.16-.0283s-.0973-.05-.1365-.0882c-.0391-.0382-.0702-.0839-.0914-.1343s-.0322-.1045-.0321-.1592c0-.1114.0442-.2182.123-.297.0787-.0787.1856-.123.297-.123.4385-.0158.8673-.1333 1.2526-.3433s.7164-.5067.9673-.8667c.319-.4559.7433-.8282 1.2368-1.0852.4935-.2571 1.0418-.3913 1.5983-.3913.5564 0 1.1046.1342 1.5982.3913.4935.257.9178.6293 1.2367 1.0852.2404.3715.5699.6769.9585.8884.3887.2114.8241.3222 1.2666.3222.4424 0 .8778-.1108 1.2665-.3222.3886-.2115.7181-.5169.9585-.8884.3178-.4559.7411-.8283 1.2339-1.0854.4927-.2571 1.0403-.3914 1.596-.3914.5558 0 1.1034.1343 1.5961.3914s.9161.6295 1.234 1.0854c.2509.36.582.6567.9673.8667s.8141.3275 1.2526.3433c.0552 0 .1098.0109.1608.032.0509.0211.0972.052.1362.091s.07.0853.0911.1363c.0211.0509.0319.1055.0319.1607.0001.0547-.0109.1088-.0321.1592s-.0523.0961-.0914.1343c-.0392.0382-.0856.0682-.1365.0882s-.1053.0296-.16.0283z" fill="#fdc00f"/><path d="m41.8892 76.38h-11.78c-1.1042-.0026-2.1623-.4432-2.9422-1.2249-.7798-.7817-1.2178-1.8409-1.2178-2.9451v-11.06h20.1v11.06c0 1.1042-.4379 2.1634-1.2178 2.9451s-1.838 1.2223-2.9422 1.2249z" fill="#118995"/><path d="m26 70.29v1.92c.0053.3793.0625.7562.17 1.12h19.76c.1075-.3638.1647-.7407.17-1.12v-1.92z" fill="#d0f0f4"/><path d="m46.0492 64.19h-20.1v3.05h20.1z" fill="#d0f0f4"/><g fill="#fdc00f"><path d="m36.0017 78.25c2.06 0 3.73-.84 3.73-1.87h-7.47c0 1.03 1.68 1.87 3.74 1.87z"/><path d="m36 7.70999c-.2652 0-.5196-.10534-.7071-.29288-.1875-.18753-.2929-.4419-.2929-.70712v-5.44998c0-.265217.1054-.519587.2929-.707123s.4419-.292877.7071-.292877.5196.105341.7071.292877.2929.441906.2929.707123v5.44998c0 .26522-.1054.51959-.2929.70712-.1875.18754-.4419.29288-.7071.29288z"/><path d="m21.4297 11.61c-.1745-.0011-.3457-.0478-.4966-.1355s-.2762-.2134-.3634-.3645l-2.73-4.71999c-.0724-.11381-.121-.24109-.1428-.37417-.0219-.13308-.0167-.26924.0154-.40024s.0903-.25413.1713-.36203c.0809-.1079.1828-.19831.2996-.26581.1167-.06749.2459-.11069.3798-.12695s.2697-.00526.3992.03232c.1295.03757.2501.10095.3545.18634s.1905.19104.253.31054l2.73 4.71999c.0879.1523.1341.3251.134.501-.0002.1759-.0468.3486-.135.5007-.0882.1522-.215.2783-.3676.3658s-.3256.1332-.5014.1325z"/><path d="m10.7617 22.27c-.1718-.0005-.3406-.0453-.4901-.13l-4.72994-2.73c-.21767-.1384-.37345-.3555-.43482-.606-.06136-.2505-.02357-.5151.1055-.7384.12908-.2233.33945-.3881.58716-.4599.24771-.0719.51362-.0453.74216.0743l4.72994 2.73c.1885.1118.335.2824.417.4855.082.2032.0951.4276.0372.6389-.058.2113-.1837.3977-.3579.5306s-.3872.2049-.6062.205z"/><path d="m6.86014 36.84h-5.44998c-.26522 0-.51959-.1053-.707127-.2929-.187536-.1875-.292877-.4419-.292877-.7071s.105341-.5196.292877-.7071c.187537-.1875.441907-.2929.707127-.2929h5.44998c.26521 0 .51958.1054.70712.2929s.29288.4419.29288.7071-.10534.5196-.29288.7071c-.18754.1876-.44191.2929-.70712.2929z"/><path d="m5.99918 54.13c-.22142.0016-.43709-.0704-.61319-.2046-.1761-.1343-.30267-.3231-.35986-.5371-.0572-.2139-.04179-.4407.04382-.6449s.23659-.3742.42923-.4834l4.72002-2.72c.2285-.1195.4944-.1462.7421-.0743.2477.0718.4581.2366.5872.4599.129.2233.1669.4879.1055.7384s-.2172.4676-.4348.606l-4.68001 2.73c-.16411.0935-.35134.1385-.54001.13z"/><path d="m65.9401 54.14c-.1752.0012-.3476-.0436-.5-.13l-4.72-2.73c-.1195-.0625-.2252-.1486-.3105-.253-.0854-.1043-.1488-.2249-.1864-.3544-.0376-.1296-.0486-.2654-.0323-.3992.0163-.1339.0594-.2632.1269-.3799.0675-.1168.1579-.2187.2658-.2996s.2311-.1392.3621-.1713c.131-.032.2671-.0373.4002-.0154s.2604.0704.3742.1428l4.72 2.73c.1877.1114.3338.2811.416.4832.0823.2022.0961.4257.0395.6365-.0567.2107-.1807.3972-.3533.5308-.1725.1337-.384.2073-.6022.2095z"/><path d="m70.5811 36.85h-5.46c-.2652 0-.5196-.1054-.7071-.2929s-.2929-.4419-.2929-.7071.1054-.5196.2929-.7071c.1875-.1876.4419-.2929.7071-.2929h5.46c.2652 0 .5196.1053.7071.2929.1875.1875.2929.4419.2929.7071s-.1054.5196-.2929.7071-.4419.2929-.7071.2929z"/><path d="m61.2302 22.28c-.2191-.0001-.4321-.0721-.6063-.205-.1742-.1328-.2999-.3193-.3578-.5306-.058-.2112-.0449-.4357.0371-.6389.0821-.2031.2285-.3737.417-.4855l4.73-2.73c.2296-.1304.5014-.1646.7562-.0953s.4718.2366.6038.4653c.0665.1135.11.2391.1279.3695s.0099.263-.0235.3902c-.0335.1273-.0917.2467-.1714.3514-.0797.1048-.1793.1927-.293.2589l-4.73 2.72c-.1495.0847-.3182.1295-.49.13z"/><path d="m50.5597 11.62c-.1752.0012-.3476-.0436-.5-.13-.1137-.0662-.2133-.1541-.293-.2589-.0797-.1047-.1379-.2241-.1714-.3514-.0334-.1273-.0414-.2599-.0235-.3902.0179-.1304.0614-.256.1279-.3695l2.72-4.72001c.0657-.11425.1532-.21444.2576-.29487.1044-.08042.2236-.1395.3508-.17385.1272-.03436.26-.04334.3906-.0264.1307.01694.2568.05946.371.12512.1143.06566.2145.15318.2949.25757.0804.10438.1395.22358.1739.3508.0343.12721.0433.25994.0264.39062-.017.13068-.0595.25676-.1252.37101l-2.73 4.72001c-.0881.1526-.2149.2792-.3677.367s-.3261.1337-.5023.133z"/></g><path d="m19.8286 35c3.31 3.31 9.35 2.64 13.49-1.5s4.81-10.18 1.51-13.49-9.35-2.64-13.5 1.5-4.81 10.2-1.5 13.49z" fill="#fff" opacity=".3"/><path d="m34.3312 40.66c1.24 1.24 3.5 1 5.05-.56s1.81-3.81.57-5.05-3.5-1-5.05.56-1.81 3.81-.57 5.05z" fill="#fff" opacity=".3"/><path d="m27 62h18.1c.2421.0196.4822-.0562.669-.2113.1869-.1551.3057-.3772.331-.6187h-20.1s.4.83 1 .83z" fill="#000" opacity=".2"/><path d="m32.6717 77.21h6.66c.1185-.1048.2149-.2322.2836-.3747s.1083-.2973.1164-.4553h-7.47c.01.1586.0514.3136.1218.4561.0703.1425.1683.2696.2882.3739z" fill="#000" opacity=".2"/></svg>