<svg fill="none" height="53" viewBox="0 0 44 53" width="44" xmlns="http://www.w3.org/2000/svg"><g clip-rule="evenodd" fill-rule="evenodd"><path d="m21.8008 29c.5304 0 1.0391.2107 1.4142.5858s.5858.8838.5858 1.4142v14.24c0 .5304-.2107 1.0392-.5858 1.4142-.3751.3751-.8838.5858-1.4142.5858-.5305 0-1.0392-.2107-1.4142-.5858-.3751-.375-.5858-.8838-.5858-1.4142v-14.24c0-.5304.2107-1.0391.5858-1.4142.375-.3751.8837-.5858 1.4142-.5858z" fill="#fff"/><path d="m4.63173 25.93v-21.41999h34.24997v21.41999zm36.36997-25.43h-38.42997c-.6092-.000023-1.19375.240602-1.626387.66949-.432639.4289-.67835 1.01134-.683624 1.62052v25.32999c.005283.6083.25131 1.1896.684234 1.6169.432927.4273 1.017497.6658 1.625777.6631h13.90997l-5.89 19.9c-.0463.1531-.0598.3143-.0397.473s.0734.3114.1564.4482.1939.2545.3254.3456.2807.1536.4379.1832l1.08.2c.3391.057.6872-.0137.9771-.1984.29-.1847.5012-.4703.5929-.8016l6.06-20.57h3.14l5.84 21.29c.0956.3289.3076.6119.5966.7959.2889.184.6349.2566.9734.2041l1.08-.21c.1548-.0258.3023-.0845.4326-.172.1302-.0875.2403-.2019.3227-.3354.0824-.1336.1353-.2832.155-.4389.0198-.1556.0061-.3138-.0403-.4637l-5.63-20.63h13.95c.6056 0 1.1866-.2399 1.6158-.6672.4291-.4273.6716-1.0072.6742-1.6128v-25.34999c-.0026-.60654-.2447-1.18748-.6736-1.61636-.4289-.428894-1.0098-.671019-1.6164-.67365z" fill="#cecece"/><path d="m14.1217 50.9999 6.06-20.57h-3.7l-5.89 19.9001c-.0463.1531-.0598.3143-.0397.473s.0734.3114.1564.4482c.083.1367.1939.2545.3254.3456s.2807.1535.4379.1832l1.08.1999c.339.057.6871-.0137.9771-.1983.29-.1847.5012-.4704.5929-.8017z" fill="#fff"/><path d="m23.3203 30.4 5.84 21.29c.0956.329.3076.6119.5965.7959.289.184.635.2566.9735.2041l1.08-.21c.1548-.0258.3023-.0844.4325-.172.1303-.0875.2403-.2019.3228-.3354.0824-.1336.1352-.2832.155-.4389s.0061-.3138-.0403-.4637l-5.63-20.63z" fill="#fff"/></g><path d="m38.8789 4.51001h-34.24999v21.41999h34.24999z" fill="#666"/><path d="m38.8789 4.51001h-34.24999v19.58999h34.24999z" fill="#fff"/><path d="m19.0804 16.91c-.3237.8821-.5909 1.7839-.8 2.7.0935-.0903.1804-.1872.26-.29.1-.1.15-.18.18-.2s.13-.11.2-.11.08 0 .08.08 0 .11-.05.13c-.3658.5399-.627 1.1437-.77 1.78 0 .15-.1.25-.18.25-.1381-.0495-.2692-.1167-.39-.2-.1-.08-.18-.16-.18-.21-.0216-.0853-.0216-.1747 0-.26.1241-.9035.342-1.7916.65-2.65-.4338.7138-.9362 1.3837-1.5 2-.3581.427-.7529.8219-1.18 1.18-.1151.1003-.2582.1631-.41.18-.1272-.021-.2435-.0844-.33-.18-.1032-.0469-.1905-.123-.2509-.219s-.0914-.2076-.0891-.321v-.18c.1326-.7565.4111-1.4799.82-2.13.4275-.7741.9742-1.476 1.62-2.08.1309-.1584.3165-.2619.52-.29.3279.1341.6241.335.87.59v.13c0 .05 0 .08-.12.08h-.03c-.1087-.0652-.2332-.0997-.36-.0997s-.2512.0345-.36.0997c-.5173.4388-.9598.959-1.31 1.54-.484.6698-.8245 1.4324-1 2.24v.1c0 .02.05.16.13.16s.31-.11.51-.31c.5409-.5457 1.0485-1.1234 1.52-1.73.4168-.49.7697-1.031 1.05-1.61.0844-.1844.1546-.3749.21-.57 0-.18.13-.28.18-.28s.2.1.44.25c.0757.0475.1296.123.15.21v.26zm5.65-5.56c.06 0 .08.08.08.13s-.05.13-.15.13-.08 0-.13-.05c-.1332-.0849-.2834-.1395-.44-.16-.26 0-.54.26-.85.77-1.2674 2.225-2.0957 4.6726-2.44 7.21.41-.73.75-1.26.95-1.57.3994-.5678.855-1.0938 1.36-1.57.0569-.0836.131-.154.2173-.2067.0863-.0526.1829-.0862.2833-.0985.1003-.0124.2021-.0031.2986.0271s.1854.0807.2608.1481c.1616.0562.2987.1666.388.3124.0893.1459.1254.3181.102.4876-.0574.8247-.257 1.6333-.59 2.39-.2722.6665-.6655 1.2767-1.16 1.8-.0519.0571-.1152.1026-.1858.1336-.0707.0311-.147.0469-.2242.0464-.26 0-.65-.31-1.11-.93-.08-.08-.1-.13-.1-.18s.05-.1.13-.1c.0386.0014.0764.0111.1109.0283.0345.0173.0649.0417.0891.0717.1631.1739.383.2839.62.31.1008-.0078.1981-.0402.2835-.0942s.1563-.1281.2065-.2158c.3357-.4564.605-.9581.8-1.49.2312-.6079.3597-1.2499.38-1.9 0-.23-.08-.34-.2-.34-.1059.0187-.2056.0633-.29.13-.6046.5615-1.1325 1.2003-1.57 1.9-.5143.7885-.9275 1.6385-1.23 2.53 0 .15-.1.23-.15.23s-.08 0-.16-.06-.33-.23-.36-.25c-.0863-.0919-.133-.214-.13-.34.0118-.0786.0319-.1557.06-.23.3847-2.3289 1.0114-4.6113 1.87-6.81.3309-1.0075.8539-1.9414 1.54-2.75.0981-.093.2252-.1495.36-.16.1632.0282.3155.1009.44.21.21.18.44.33.64.51zm3.78 5.12c.0176.5371-.0778 1.072-.28 1.57-.08.18-.18.2-.36.13s-.33-.26-.33-.34c.0084-.0498.033-.0955.07-.13.1305-.2897.2019-.6024.21-.92 0-.18-.1-.28-.28-.28-.0359.0103-.074.0103-.11 0h-.1c-.15 0-.33.13-.54.41-.2778.3994-.503.833-.67 1.29-.149.3839-.2693.7783-.36 1.18v.64c0 .62.21 1 .59.93s.88-.47 1.57-1.34c.08-.08.13-.13.18-.13s.08 0 .08.1c.012.0425.012.0875 0 .13-.2118.5231-.5054 1.0092-.87 1.44-.0583.0615-.1305.1081-.2105.1359-.08.0279-.1656.0361-.2495.0241-.166-.0062-.3306-.0331-.49-.08-.3418-.0112-.6697-.1381-.93-.36-.125-.1323-.2194-.2904-.2764-.4632s-.0753-.3561-.0536-.5368c.0427-.6326.1985-1.2524.46-1.83.2197-.6778.5583-1.311 1-1.87.1025-.1315.2474-.2234.41-.26.2281.055.4448.1498.64.28.1578-.0562.3228-.0899.49-.1.33 0 .51.13.51.36z" fill="#000"/><path d="m38.8789 4.51001h-34.24999v1.79999h34.24999z" fill="#666"/></svg>