<svg fill="none" height="166" viewBox="0 0 170 166" width="170" xmlns="http://www.w3.org/2000/svg"><path d="m131.689 155.37c0 2.817-1.119 5.518-3.11 7.509-1.992 1.992-4.693 3.111-7.51 3.111-2.816-.003-5.515-1.122-7.506-3.113-1.991-1.992-3.111-4.691-3.114-7.507v-144.22c.006-2.81316 1.127-5.50924 3.118-7.49655 1.991-1.98732 4.689-3.103462 7.502-3.103457 1.395-.001316 2.777.272486 4.066.805727 1.289.53324 2.46 1.31546 3.447 2.30188.986.98642 1.768 2.15764 2.301 3.44671.534 1.28908.808 2.67067.806 4.06569z" fill="#8e2129"/><path d="m121.489.530029h-106.9499v165.459971h106.9499z" fill="#e73147"/><path d="m112.16 7.26001h-91.16v151.16999h91.16z" fill="#fde3cc"/><path d="m35.7593 20c0 1.4245-.4225 2.8169-1.2141 4.0012-.7916 1.1842-1.9167 2.107-3.2329 2.6517s-2.7643.6866-4.1613.408c-1.3969-.2786-2.6798-.9654-3.6864-1.9733-1.0065-1.0079-1.6914-2.2918-1.9681-3.6891s-.1327-2.8453.4138-4.1608c.5465-1.3154 1.4708-2.4392 2.6562-3.2291 1.1853-.79 2.5784-1.2106 4.0029-1.2086.945 0 1.8808.1863 2.7538.5483.8729.3619 1.6659.8924 2.3337 1.5611s1.1972 1.4625 1.558 2.336c.3607.8735.5457 1.8096.5444 2.7546z" fill="#fff"/><path d="m35.7593 51.91c.002 1.4249-.4188 2.8183-1.2092 4.0039s-1.9148 2.1099-3.2308 2.6561c-1.3161.5462-2.7646.6896-4.1621.4121-1.3976-.2775-2.6815-.9634-3.689-1.9709-1.0076-1.0076-1.6935-2.2914-1.971-3.689s-.134-2.8461.4121-4.1622c.5462-1.316 1.4706-2.4403 2.6562-3.2307 1.1855-.7904 2.579-1.2113 4.0039-1.2093.9442 0 1.8791.1859 2.7514.5473.8724.3613 1.6649.8909 2.3326 1.5586.6676.6676 1.1974 1.4603 1.5587 2.3326s.5472 1.8073.5472 2.7515z" fill="#fff"/><path d="m35.7593 83.26c.002 1.4249-.4188 2.8183-1.2092 4.0039-.7904 1.1855-1.9148 2.1099-3.2308 2.6561-1.3161.5462-2.7646.6896-4.1621.4121-1.3976-.2775-2.6815-.9634-3.689-1.9709-1.0076-1.0076-1.6935-2.2914-1.971-3.689s-.134-2.8461.4121-4.1621c.5462-1.3161 1.4706-2.4405 2.6562-3.2309 1.1855-.7903 2.579-1.2112 4.0039-1.2092.9446-.0013 1.8801.1838 2.753.5446.873.3609 1.6661.8905 2.334 1.5584s1.1974 1.461 1.5582 2.334c.3609.8729.546 1.8084.5447 2.753z" fill="#fff"/><path d="m35.7593 116.12c0 1.424-.4225 2.817-1.2141 4.001s-1.9167 2.107-3.2329 2.652-2.7643.687-4.1613.408c-1.3969-.279-2.6798-.965-3.6864-1.973-1.0065-1.008-1.6914-2.292-1.9681-3.689-.2767-1.398-.1327-2.846.4138-4.161.5465-1.316 1.4708-2.44 2.6562-3.229 1.1853-.79 2.5784-1.211 4.0029-1.209 1.9078.003 3.7365.762 5.0846 2.112s2.1053 3.18 2.1053 5.088z" fill="#fff"/><path d="m35.3804 147.85c.002 1.425-.4188 2.818-1.2092 4.004-.7904 1.185-1.9148 2.11-3.2308 2.656-1.3161.546-2.7646.69-4.1622.412-1.3975-.277-2.6814-.963-3.6889-1.971-1.0076-1.007-1.6935-2.291-1.971-3.689-.2775-1.397-.134-2.846.4121-4.162.5462-1.316 1.4706-2.44 2.6562-3.231 1.1855-.79 2.579-1.211 4.0039-1.209 1.9069 0 3.7357.757 5.0841 2.106 1.3484 1.348 2.1058 3.177 2.1058 5.084z" fill="#fff"/><path d="m30.4117 20.18c0 .7956-.316 1.5587-.8786 2.1213s-1.3257.8787-2.1214.8787h-21.39998c-.79565 0-1.55873-.3161-2.12134-.8787s-.87866-1.3257-.87866-2.1213c0-.7957.31605-1.5587.87866-2.1213.56261-.5627 1.32569-.8787 2.12134-.8787h21.39998c.7957 0 1.5588.316 2.1214.8787.5626.5626.8786 1.3256.8786 2.1213z" fill="#8e2129"/><path d="m30.4117 51.91c0 .7956-.316 1.5587-.8786 2.1213s-1.3257.8787-2.1214.8787h-21.39998c-.79565 0-1.55873-.3161-2.12134-.8787s-.87866-1.3257-.87866-2.1213c0-.7957.31605-1.5587.87866-2.1213s1.32569-.8787 2.12134-.8787h21.39998c.7957 0 1.5588.3161 2.1214.8787s.8786 1.3256.8786 2.1213z" fill="#8e2129"/><path d="m30.4117 83.4c-.0131.7869-.335 1.5372-.8962 2.0891-.5612.5518-1.3167.861-2.1038.8609h-21.39998c-.78706.0001-1.54269-.3091-2.10388-.8609-.5612-.5519-.883-1.3022-.89612-2.0891 0-.7957.31605-1.5587.87866-2.1213s1.32569-.8787 2.12134-.8787h21.39998c.7957 0 1.5588.3161 2.1214.8787s.8786 1.3256.8786 2.1213z" fill="#8e2129"/><path d="m30.4117 115.14c-.0131.787-.335 1.537-.8962 2.089s-1.3167.861-2.1038.861h-21.39998c-.78706 0-1.54269-.309-2.10388-.861-.5612-.552-.883-1.302-.89612-2.089 0-.796.31605-1.559.87866-2.121.56261-.563 1.32569-.879 2.12134-.879h21.39998c.7957 0 1.5588.316 2.1214.879.5626.562.8786 1.325.8786 2.121z" fill="#8e2129"/><path d="m28.1913 147.85c0 .796-.3162 1.559-.8788 2.121-.5626.563-1.3256.879-2.1212.879h-21.41005c-.79565 0-1.55873-.316-2.12134-.879-.56261-.562-.87866-1.325-.87866-2.121.013118-.787.33492-1.537.89612-2.089.56119-.552 1.31682-.861 2.10388-.861h21.41005c.787 0 1.5426.309 2.1037.861.5612.552.8832 1.302.8963 2.089z" fill="#8e2129"/><g stroke="#e73147" stroke-miterlimit="10" stroke-width=".65"><path d="m38.3516 5.90997v157.93003"/><path d="m112.152 20.51h-73.8004v15.38h73.8004z" fill="#fde3cc"/><path d="m112.152 35.89h-73.8004v15.38h73.8004z" fill="#fde3cc"/><path d="m112.152 51.41h-73.8004v15.38h73.8004z" fill="#fde3cc"/><path d="m112.152 66.8h-73.8004v15.38h73.8004z" fill="#fde3cc"/><path d="m112.152 82.18h-73.8004v15.38h73.8004z" fill="#fde3cc"/><path d="m112.152 97.56h-73.8004v15.38h73.8004z" fill="#fde3cc"/><path d="m112.152 112.94h-73.8004v15.38h73.8004z" fill="#fde3cc"/><path d="m112.152 128.33h-73.8004v15.39h73.8004z" fill="#fde3cc"/></g><path d="m132.323 60.5989-43.2957 43.2961 24.4657 24.466 43.296-43.2962z" fill="#f8ac22"/><path d="m163.479 78.25c7.28-7.46 7.79-18.85 1.09-25.54s-18.07-6.18-25.53 1.1z" fill="#e73147"/><path d="m139.036 53.8081-6.731 6.7317 24.466 24.4659 6.731-6.7317z" fill="#a8a8a7"/><path d="m113.469 128.3-22.6897 6.13-10.8301 2.93 2.9301-10.84 6.13-22.69z" fill="#f8b06c"/><path d="m90.7793 134.43-10.8301 2.93 2.9301-10.84z" fill="#584a4b"/><path d="m139.277 67.5115-43.2965 43.2965 9.2135 9.213 43.296-43.2959z" fill="#f08225"/></svg>