<svg fill="none" height="66" viewBox="0 0 49 66" width="49" xmlns="http://www.w3.org/2000/svg"><path d="m24.7214 1c2.8 0 5.3 3.59 7.07 9.41.31 1 .59 2.05.88 3.18 1-.61 1.92-1.15 2.82-1.64 5.38-2.85999 9.7-3.63001 11.68-1.65 1.98 1.98 1.21 6.3-1.65 11.68-2.119 3.8169-4.5968 7.4232-7.4 10.77 2.8054 3.3451 5.2834 6.9516 7.4 10.77 2.86 5.38 3.63 9.7 1.65 11.67s-6.3 1.21-11.68-1.64c-.9-.49-1.85-1-2.82-1.65-.29 1.14-.57 2.19-.88 3.19-1.77 5.81-4.27 9.41-7.07 9.41s-5.3-3.6-7.1-9.41c-.3-1-.59-2-.84-3.19-1 .62-1.93 1.16-2.83 1.65-5.37999 2.85-9.69999 3.63-11.67999 1.64-1.979997-1.99-1.20003-6.29 1.64997-11.67 2.11684-3.8206 4.59844-7.4274 7.41002-10.77-2.80824-3.338-5.28966-6.9378-7.41002-10.75-2.85-5.38-3.629967-9.7-1.64997-11.68 1.98-1.97999 6.3-1.21 11.67999 1.65.9.49 1.85 1 2.83 1.64.25-1.13.54-2.18.84-3.18 1.8-5.82001 4.3-9.41001 7.1-9.41001zm8.07 13.16c1.0096 4.773 1.6052 9.6244 1.78 14.5 1.1 1.24 2.18 2.44 3.19 3.65 2.7515-3.2865 5.1763-6.8333 7.24-10.59 2.73-5.14 3.52-9.2 1.75-11s-5.86-1-11 1.75c-1 .51-2 1.08-3 1.72zm-16.14 37.15c-1.022-4.771-1.6177-9.6235-1.78-14.5-1.13-1.21-2.18-2.42-3.19-3.62-2.76082 3.2932-5.19558 6.8465-7.27003 10.61-2.73 5.15-3.520003 9.21-1.75 11 1.77 1.79 5.86 1 11.00003-1.75 1-.51 2-1.1 3-1.75zm21.11-18.12c-1 1.2-2.09 2.41-3.19 3.62-.1722 4.8758-.7678 9.7273-1.78 14.5 1 .65 2 1.24 3 1.75 5.14 2.73 9.2 3.52 11 1.75s1-5.86-1.75-11c-2.0745-3.7635-4.5092-7.3168-7.27-10.61zm-3.76 4.29c-.75.78-1.47 1.55-2.24 2.32-2.19 2.18-4.4 4.19-6.58 6 2.2715 1.8747 4.6488 3.6176 7.12 5.22.9442-4.4612 1.5129-8.9938 1.7-13.55zm-9.26 8.69c-2.3662 1.9627-4.8473 3.7826-7.43 5.45.26 1.19.57 2.29.87 3.32 1.73 5.58 4 9 6.56 9s4.83-3.45 6.53-9c.33-1 .62-2.13.9-3.32-2.5844-1.665-5.0656-3.485-7.43-5.45zm-13-13.83c1-1.21 2.06-2.41 3.19-3.65.1648-4.8763.7605-9.7286 1.78-14.5-1-.64-2-1.21-3-1.72-5.13998-2.73-9.19998-3.52-10.99998-1.75-1.800004 1.77-1 5.86 1.75 11 2.07157 3.7684 4.50643 7.3253 7.26998 10.62zm3.78-4.27c.72-.77 1.47-1.54 2.24-2.31 2.19-2.19 4.4-4.19 6.58-6-2.2727-1.8733-4.6499-3.6161-7.12-5.22-.943 4.4614-1.5116 8.9939-1.7 13.55zm9.26-8.69c2.3619-1.9682 4.8433-3.7883 7.43-5.45-.28-1.18-.57-2.28-.9-3.31-1.7-5.58-4-9-6.53-9s-4.83 3.44999-6.56 9c-.3 1-.61 2.13-.87 3.31 2.585 1.6641 5.0663 3.4841 7.43 5.45zm7.56-4.86c-2.4735 1.5991-4.851 3.3421-7.12 5.22 2.18 1.83 4.39 3.83 6.58 6 .77.77 1.49 1.54 2.24 2.31-.1884-4.5561-.757-9.0886-1.7-13.55zm-7.56 5.58c-2.18 1.83-4.42 3.86-6.61 6.07-.92.9-1.82 1.83-2.67 2.75-.05 1.26-.08 2.55-.08 3.86s0 2.57.08 3.83c.85.93 1.75 1.85 2.67 2.78 2.19 2.21 4.43 4.24 6.61 6.07 2.19-1.83 4.42-3.86 6.61-6.07.92-.93 1.82-1.85 2.67-2.78 0-1.26.08-2.52.08-3.83s0-2.6-.08-3.86c-.85-.92-1.75-1.85-2.67-2.75-2.19-2.21-4.42-4.24-6.61-6.07zm-9.87 9.47c-1 1.07-1.9 2.16-2.81 3.21.91 1.05 1.83 2.13 2.81 3.21 0-1-.05-2.13-.05-3.21s0-2.16.05-3.21zm2.25 21.43c2.4678-1.6073 4.8448-3.3499 7.12-5.22-2.18-1.82-4.39-3.83-6.58-6-.77-.77-1.52-1.54-2.24-2.32.1871 4.5563.7557 9.0888 1.7 13.55zm17.43-15c1-1.08 1.91-2.16 2.81-3.21-.9-1-1.83-2.14-2.81-3.21v3.21z" fill="#e24937"/><path d="m24.7193.359985c1.59 0 3.0901.950015 4.4001 2.700015 1.4991 2.20145 2.6274 4.63368 3.34 7.2.15.51.31 1.05.44 1.54.07.26.12.51.2.74.21-.12.44-.25.64-.38.52-.31 1-.57 1.41-.8 2.3197-1.2963 4.8312-2.21449 7.44-2.71999 2.16-.29 3.9.07 5 1.21 1.14 1.12999 1.5 2.84999 1.19 4.99999-.4831 2.6227-1.4061 5.145-2.73 7.46-.9772 1.8243-2.059 3.5905-3.24 5.29-1.15 1.67-2.44 3.4-3.88 5.17 1.44 1.75 2.73 3.5 3.88 5.17 1.181 1.6994 2.2628 3.4657 3.24 5.29 1.3185 2.3068 2.2413 4.8182 2.73 7.43.31 2.16-.05 3.91-1.19 5s-2.87 1.5-5 1.19c-2.6154-.4869-5.1304-1.4097-7.44-2.73-.43-.2-.89-.49-1.44-.77-.2-.15-.43-.28-.64-.41-.08.26-.13.51-.2.74-.13.52-.29 1-.44 1.57-.7188 2.564-1.8466 4.9953-3.34 7.2-1.31 1.75-2.81 2.7-4.4 2.7s-3.09-1-4.4-2.7c-1.5094-2.1956-2.6384-4.6296-3.34-7.2-.15-.51-.31-1-.44-1.57-.07-.23-.12-.48-.2-.74-.23.15-.44.28-.67.41-.51.28-1 .57-1.41.77-2.3151 1.3239-4.83725 2.2469-7.46 2.73-2.16.31-3.88-.06-5-1.19-1.120004-1.13-1.500025-2.88-1.210025-5 .493785-2.6089 1.412715-5.119 2.720035-7.43.98808-1.8244 2.07982-3.5906 3.26995-5.29 1.13-1.67 2.44004-3.42 3.85004-5.17-1.41-1.77-2.72004-3.5-3.85004-5.17-1.19013-1.6995-2.28187-3.4657-3.26995-5.29-1.31273-2.3193-2.23189-4.8401-2.720035-7.46-.29-2.16.080021-3.88 1.210025-4.99999 1.13-1.14 2.85-1.5 5-1.21 2.6161.50196 5.1347 1.42029 7.46 2.71999l1.41.8c.23.13.44.26.67.38.08-.23.13-.48.2-.74.13-.51.29-1 .44-1.54.6954-2.5726 1.8249-5.00761 3.34-7.2 1.31-1.75 2.81-2.700015 4.4-2.700015zm8.8201 14.160015c.44 2 .82 4.2 1.08 6.48s.49 4.84.62 7.43l1.46 1.62 1.06 1.21c1.28-1.62 2.49-3.21 3.54-4.78 1.1345-1.6245 2.1729-3.3141 3.11-5.06 1.1903-2.0712 2.0411-4.3196 2.52-6.66.26-1.62.06-2.83-.64-3.55-.72-.72-1.93-.9-3.55-.64-2.3402.4744-4.5888 1.3218-6.66 2.51-.48.26-1 .52-1.44.8zm-17.66 36.48c-.44-2-.8-4.16-1.08-6.48-.29-2.33-.49-4.83-.6-7.43-.51-.54-1-1.1-1.46-1.62s-.7-.82-1.06-1.2c-1.31 1.62-2.49004 3.21-3.57004 4.75-1.12592 1.6346-2.15433 3.3342-3.07995 5.09-1.19179 2.0705-2.04268 4.3192-2.52002 6.66-.26 1.62-.07999 2.83.64001 3.55s1.92999.9 3.54999.64c2.34036-.4788 4.58881-1.3296 6.66001-2.52.48-.25 1-.51 1.44-.79s.72-.41 1.08-.65zm21.88-16.73c-.36.38-.7.79-1.06 1.2l-1.46 1.62c-.13 2.6-.34 5.1-.62 7.41-.2495 2.1836-.61 4.3531-1.08 6.5.38.24.75.44 1.1.65s1 .56 1.44.79c2.069 1.195 4.3182 2.0461 6.66 2.52 1.62.26 2.83 0 3.55-.64s.9-1.93.64-3.55c-.4774-2.3408-1.3283-4.5895-2.52-6.66-.9365-1.7559-1.975-3.4554-3.11-5.09-1-1.54-2.26-3.13-3.54-4.75zm-4.58 5c-.36.36-.67.7-1 1-1.05 1.05-2.13 2.08-3.26 3.11-.93.85-1.83 1.64-2.73 2.41 1 .8 2 1.55 3 2.27s1.8 1.28 2.65 1.85c.33-1.7.64-3.52.87-5.43.21-1.67.39-3.42.49-5.22zm-8.4601 7.77c-1.13.92-2.2599 1.8-3.3699 2.6s-2.23 1.59-3.29 2.28c.1.42.21.83.31 1.24s.31 1.08.46 1.57c.6199 2.3104 1.6093 4.5054 2.93 6.5 1 1.31 2 2 3 2s2-.72 3-2c1.3127-1.999 2.3015-4.1927 2.93-6.5.15-.49.31-1 .46-1.57.1-.41.21-.82.31-1.24-1.08-.69-2.19-1.44-3.29-2.28s-2.24-1.68-3.37-2.6zm-13-15.79 1.0601-1.21 1.46-1.62c.11-2.59.31-5.09.6-7.43s.64-4.44 1.08-6.48c-.36-.23-.72-.43-1.08-.64s-1-.56-1.44-.8c-2.0734-1.1835-4.3213-2.0307-6.66003-2.51-1.62-.26-2.82999-.08-3.54999.64s-.90002 1.93-.64002 3.55c.47885 2.3404 1.32965 4.5888 2.52002 6.66.92615 1.7458 1.95463 3.4354 3.08002 5.06 1.08 1.57 2.2599 3.16 3.5699 4.78zm4.5801-5c.33-.38.67-.69 1-1 1.06-1 2.16-2.11 3.29-3.13l2.7-2.4c-1-.79-2-1.54-2.93-2.26s-1.8-1.28-2.65-1.85c-.36 1.7-.64 3.5-.87 5.42-.23 1.68-.39 3.42-.49 5.22zm8.46-7.79c1.13-.92 2.26-1.77 3.37-2.59s2.21-1.57 3.29-2.27c-.1-.43-.21-.82-.31-1.23s-.31-1.08-.46-1.59c-.6281-2.30127-1.6171-4.48842-2.9301-6.48001-.95-1.31-2-2-3-2s-2 .72-3 2c-1.3216 1.9868-2.3112 4.1754-2.9299 6.48001-.15.49-.31 1-.46 1.59s-.21.82-.31 1.23c1.06.7 2.16 1.44 3.29 2.27s2.24 1.67 3.37 2.59zm7.1-2.85c-.85.57-1.75 1.18-2.65 1.85s-2 1.47-2.93 2.26l2.7 2.4c1.1 1 2.21 2.05 3.26 3.13.34.34.67.67 1 1-.1-1.8-.28-3.54-.49-5.22-.23-1.92-.54-3.72-.87-5.42zm-7.1 5.37c-1 .8-1.93 1.65-2.88 2.52s-2.16 2-3.26 3.11c-.44.47-.9.9-1.34 1.37s-.75.79-1.13 1.21c0 .56-.05 1.1-.05 1.64v1.93 1.9c0 .51 0 1.11.05 1.67l1.13 1.21c.44.44.87.9 1.34 1.34 1.1 1.08 2.18 2.14 3.26 3.12s1.93 1.72 2.88 2.51c.95-.79 1.9-1.64 2.88-2.51s2.13-2 3.24-3.12l1.33-1.36c.36-.39.75-.8 1.13-1.19 0-.56 0-1.1 0-1.64v-3.86c0-.54 0-1.08 0-1.64-.38-.42-.77-.8-1.13-1.21s-.85-.85-1.33-1.37c-1.11-1.1-2.19-2.16-3.24-3.11s-1.93-1.72-2.88-2.52zm-10.59 10.39-.21.23c-.33.39-.67.77-1 1.16.3.39.64.77 1 1.16l.21.23zm3.4899 18.54c.85-.57 1.7501-1.21 2.6501-1.85s2-1.47 2.93-2.27c-.87-.77-1.77-1.56-2.7-2.41-1.1-1-2.18-2-3.26-3.11-.28-.28-.62-.62-1-1 .1 1.8.28 3.55.49 5.22.23 1.91.51 3.73.87 5.43zm17.6901-15.76.21-.23c.33-.39.67-.77 1-1.16-.31-.39-.65-.77-1-1.16l-.18-.23v2.78z" fill="#a1abb7"/><g clip-rule="evenodd" fill-rule="evenodd"><path d="m24.7192 28.25c.8964-.002 1.7732.2621 2.5194.7586.7463.4966 1.3285 1.2033 1.6729 2.0309s.4356 1.7387.2619 2.6181-.6044 1.6875-1.2375 2.322c-.6331.6346-1.4403 1.067-2.3193 1.2426s-1.7903.0865-2.6186-.2561c-.8283-.3425-1.5364-.9231-2.0346-1.6683s-.7642-1.6214-.7642-2.5178c.0053-1.198.4828-2.3457 1.3291-3.1939.8462-.8481 1.9928-1.3282 3.1909-1.3361z" fill="#db4c2a"/><path d="m23.2487 30.21c-.3-.23-.9.08-1.33.69s-.54 1.29-.23 1.49.9-.1 1.33-.69.54-1.29.23-1.49z" fill="#eaeaea"/></g></svg>