<svg fill="none" height="49" viewBox="0 0 48 49" width="48" xmlns="http://www.w3.org/2000/svg"><g clip-rule="evenodd" fill-rule="evenodd"><path d="m13.6 10.6399-.9.08-2.84999-1.92997.61999-.06999.3-.03 18.64-2.03-.72-.98001-20.69 2.19v.31.79001 26.37996l3.75 2.65v.03l2.55-.26v-25.81l1.08-.11 15.99-1.57v-1.43996z" fill="#8cce26"/><g fill="#c7c3c2"><path d="m36.6419 12.34-.03-.21-17.94 2.01.25.18z"/><path d="m37.7183 13.7-.03-.2-17.2 1.87.26.18z"/><path d="m37.3597 13.27-.03-.18-17.4 1.9.25.18z"/><path d="m37.0186 12.8v-.18l-17.71 1.96.26.18z"/><path d="m29.3408 7.65999-.03-.18001-17.51 1.93001.26.17999z"/><path d="m28.9514 7.19998-.02-.20999-17.74 1.98.23.17999z"/><path d="m29.6519 7.92004-17.23 1.90001.23.15 17.02-1.85001z"/><path d="m30.0283 8.55997-.03-.20999-17.01 1.86002.25.18z"/></g><path d="m28.4405 21.34-.39-.28-.26-.16-.3-.23-.26-.15-.34-.24-.25-.18-.39-.25-.23-.18-.44-.29.62-.07 19.05-2.09-.82-.95-20.7 2.19v.31.79 26.38l3.76 2.68 19.59-1.98.02-27.2z" fill="#47bee8"/><path d="m21.5691 2.06-.02-.18-17.51004 1.92.25.18z" fill="#c7c3c2"/><path d="m21.1606 1.59001v-.2l-17.76998 1.98.26.18001z" fill="#c7c3c2"/><path d="m21.8789 2.33997-17.24999 1.88.25999.17999 16.99-1.86z" fill="#c7c3c2"/><path d="m22.2414 2.96001v-.21001l-17.04999 1.85001.25999.17999z" fill="#c7c3c2"/><path d="m5.96812 4.99002-.93.09999-2.82999-1.95999.59-.05.30999-.05001 18.63998-2-.69-1.0099905-20.729975 2.2200005v.29999.8 26.37999l3.759995 2.65v.03l2.57001-.26v-25.83998l1.08-.11 15.96997-1.54001v-1.45999z" fill="#fdc81a"/><path d="m21.1297 15.8101-.74.08-2.83-1.96.59-.07h.1l18.85-2.06-.69-.98-19.57 2.09-1.16.12v.29.79 26.41l3.76 2.65 2.54-.26v-25.81l.93-.08 16.15-1.59v-1.44z" fill="#f7689d"/><path d="m44.6606 17.59-18.02 2 .25.18 17.8-1.98z" fill="#fff"/><path d="m45.0513 18.0701-17.7701 1.96.26.18 17.5301-1.96z" fill="#fff"/><path d="m45.3784 18.54-17.48 1.9.25.18 17.26-1.9z" fill="#fff"/><path d="m45.7409 18.95-17.28 1.87.26.18 17.05-1.8501z" fill="#fff"/><path d="m44.5608 18.31v-.18l-17.51 1.92.23.18z" fill="#c7c3c2"/><path d="m44.1702 17.84-.0201-.2-17.7399 1.98.25.18z" fill="#c7c3c2"/><path d="m44.8706 18.59-17.23 1.87.26.19 16.99-1.88z" fill="#c7c3c2"/><path d="m45.2509 19.21-.02-.21-17.02 1.85.25.18z" fill="#c7c3c2"/><path d="m31.1413 33.4-.1101-8.02 12.14-1.01z" fill="#fff"/></g></svg>