<svg fill="none" height="53" viewBox="0 0 52 53" width="52" xmlns="http://www.w3.org/2000/svg"><g clip-rule="evenodd" fill-rule="evenodd"><path d="m9.22186 24.8201h18.46004c.473-.0027.9278.182 1.2651.5136.3373.3317.5296.7833.5349 1.2563-.0052.4758-.1965.9306-.533 1.2671-.3364.3364-.7912.5278-1.267.533h-18.46004c-.47658-.0027-.93284-.1932-1.26983-.5302-.337-.337-.52753-.7933-.53015-1.2699.0013-.2346.04896-.4666.14025-.6827s.22445-.4121.39173-.5765c.16728-.1645.36539-.2943.58301-.382.21761-.0876.4504-.1314.68499-.1287z" fill="#b3b3b3"/><path d="m.839111 19.75c.217529-1.0483.735209-2.0107 1.489989-2.7701l10.08-10.07994c.7898-.80042 1.8179-1.32321 2.93-1.49l.08-.08h15.22c1.434.00529 2.8075.57866 3.8196 1.59453 1.0121 1.01588 1.5804 2.39145 1.5804 3.82551v36.5399c-.088 1.3792-.6928 2.6744-1.6938 3.6272-1.0009.9528-2.3244 1.493-3.7062 1.5128h-24.42999c-.71046.0014-1.41423-.1373-2.07111-.4079-.65687-.2707-1.25403-.6681-1.75732-1.1695-.5033-.5015-.90288-1.0971-1.17597-1.753-.273089-.6559-.414335-1.3591-.415648-2.0695v-27.12zm8.379949 11.9299h18.46004c.2443-.0183.4897.014.721.0949.2312.0808.4433.2086.6229.3752s.3229.3685.4208.5931c.098.2245.1486.4669.1486.7119 0 .2449-.0506.4873-.1486.7118-.0979.2246-.2412.4265-.4208.5931s-.3917.2944-.6229.3752c-.2313.0809-.4767.1132-.721.0948h-18.46004c-.2443.0184-.4897-.0139-.72095-.0948-.23125-.0808-.44332-.2086-.62293-.3752-.1796-.1666-.32292-.3685-.4209-.5931-.09797-.2245-.14849-.4669-.14849-.7118 0-.245.05052-.4874.14849-.7119.09798-.2246.2413-.4265.4209-.5931.17961-.1666.39168-.2944.62293-.3752.23125-.0809.47665-.1132.72095-.0949zm0 7.2001h18.46004c.4722-.0001.9256.1854 1.2623.5165s.5298.7813.5377 1.2534c-.0052.4758-.1965.9306-.533 1.2671-.3364.3364-.7912.5278-1.267.533h-18.46004c-.47658-.0027-.93284-.1932-1.26984-.5302s-.52753-.7933-.53015-1.2699c.00528-.473.19757-.9246.53485-1.2563.33728-.3316.79211-.5163 1.26514-.5136zm4.66004-28.36-7.82002 7.82h5.94002c.2482-.0014.4937-.0515.7225-.1477s.4364-.2365.611-.413c.1746-.1764.3127-.3855.4065-.6153.0937-.2298.1413-.4758.14-.724zm-9.49 36.48c.00765.4812.20156.9407.54095 1.282.3394.3412.79787.5377 1.27906.548h24.47999c.4829-.0078.9439-.2031 1.2854-.5446.3416-.3415.5369-.8025.5446-1.2854v-36.25c-.0026-.4837-.1966-.94656-.5395-1.28759-.343-.34103-.8069-.53246-1.2905-.53246h-13.24v7.51005c0 1.4472-.5735 2.8355-1.595 3.8608-1.0215 1.0252-2.4077 1.6039-3.855 1.6092h-7.61z" fill="#b3b3b3"/><path d="m45.6314 1.00004-21.44 36.22996 1.62.82 21.44-36.21996c.0836-.16751.1539-.34139.21-.52l-1.47-.770001c-.1408.135814-.262.290644-.36.460001z" fill="#ffc01c"/><path d="m51.0012 3.59997-21.47 36.26003 1.21.62 20.26-34.38003c.3034-.41368.4776-.90786.5008-1.42034.0231-.51247-.1059-1.02033-.3708-1.45966-.0298.13534-.084.26411-.16.38z" fill="#e6ad19"/><path d="m24.1908 37.21 21.44-36.20997c.098-.169358.2191-.324188.36-.460002-.555-.06866-1.1175.039316-1.6076.308594-.49.269278-.8828.686158-1.1224 1.191408l-20.46 34.47997 1.31.64z" fill="#fde34f"/><path d="m49.3094 2.78004-21.45 36.21996 1.68.84 21.46-36.23996c.0632-.11743.1007-.24696.11-.37999l-1.52-.80001c-.1117.10448-.2063.22599-.28.36z" fill="#e6ad19"/><path d="m27.8586 39.06 21.45-36.27996c.1-.13.18-.25.28-.36l-2.13-1.13c-.0561.17861-.1264.35249-.21.52l-21.44 36.18996z" fill="#ffc01c"/><path d="m22.0295 44.0701 3.16-5.32-2.88-1.44-.54 6.64z" fill="#efbb86"/><path d="m27.8397 40.0601-3.16 5.33.15.1 5.37-4.24z" fill="#efbb86"/><path d="m25.1912 38.75-3.16 5.32 2.65 1.32 3.16-5.33z" fill="#f2c89d"/><path d="m23.6986 44.92-1.39 2.55 2.52-1.9799-.15-.1001z" fill="#1a1a1a"/><path d="m22.3102 47.47 1.44-2.55-.8-.38-1.46 2.5901-.08 1.0299z" fill="#2b2b2b"/><g fill="#1a1a1a"><path d="m21.7188 44.61.31-.54-.26-.12z"/><path d="m21.4883 47.1601 1.49-2.62-.95-.47-.31.54z"/></g></g></svg>