<svg fill="none" height="63" viewBox="0 0 43 63" width="43" xmlns="http://www.w3.org/2000/svg"><path clip-rule="evenodd" d="m39.6814.360005h-36.73999c-.32784-.001316-.65271.062132-.95597.186676-.30325.124545-.57894.307744-.81122.539089-.232273.23135-.416564.5063-.542323.80906-.125759.30275-.190493.62736-.190491.9552v57.46997c-.000021.6649.262744 1.3028.731014 1.7749.46828.472 1.10411.7399 1.76899.7451h36.73999c.3291-.0013.6548-.0676.9582-.1951.3035-.1275.5789-.3136.8102-.5477.2314-.2342.4142-.5117.538-.8167.1238-.3049.1862-.6313.1836-.9605v-57.46997c0-.327-.0644-.65078-.1895-.95288-.1252-.30211-.3086-.57662-.5398-.80784-.2312-.231213-.5057-.414626-.8078-.53976s-.6259-.189545-.9529-.189545z" fill="#1b1a16" fill-rule="evenodd"/><path clip-rule="evenodd" d="m12.9381 32.68v-6.33c0-.2652-.1053-.5196-.2929-.7071-.1875-.1876-.4418-.2929-.7071-.2929h-6.35998c-.26521 0-.51955.1053-.70709.2929-.18753.1875-.29291.4419-.29291.7071v6.33c0 .2652.10538.5195.29291.7071.18754.1875.44188.2929.70709.2929h6.35998c.2653 0 .5196-.1054.7071-.2929.1876-.1876.2929-.4419.2929-.7071z" fill="#8d8d8d" fill-rule="evenodd"/><path clip-rule="evenodd" d="m17.0781 26.35v6.33c0 .2652.1054.5195.2929.7071.1876.1875.4419.2929.7071.2929h6.35c.2652 0 .5196-.1054.7072-.2929.1875-.1876.2928-.4419.2928-.7071v-6.33c0-.2652-.1053-.5196-.2928-.7071-.1876-.1876-.442-.2929-.7072-.2929h-6.35c-.2652 0-.5195.1053-.7071.2929-.1875.1875-.2929.4419-.2929.7071z" fill="#8d8d8d" fill-rule="evenodd"/><path clip-rule="evenodd" d="m29.5508 26.33v6.35c0 .2652.1054.5195.2929.7071.1875.1875.4419.2929.7071.2929h6.33c.2652 0 .5196-.1054.7071-.2929.1875-.1876.2929-.4419.2929-.7071v-6.33c0-.2652-.1054-.5196-.2929-.7071-.1875-.1876-.4419-.2929-.7071-.2929h-6.33c-.2652 0-.5196.1053-.7071.2929-.1875.1875-.2929.4419-.2929.7071z" fill="#8d8d8d" fill-rule="evenodd"/><path clip-rule="evenodd" d="m36.8982 37.85h-6.32c-.2653 0-.5196.1053-.7072.2929-.1875.1875-.2929.4419-.2929.7071v6.32c0 .2652.1054.5196.2929.7071.1876.1876.4419.2929.7072.2929h6.32c.2652 0 .5195-.1053.7071-.2929.1875-.1875.2929-.4419.2929-.7071v-6.32c0-.2652-.1054-.5196-.2929-.7071-.1876-.1876-.4419-.2929-.7071-.2929z" fill="#8d8d8d" fill-rule="evenodd"/><path clip-rule="evenodd" d="m25.4281 45.17v-6.3499c0-.2652-.1053-.5196-.2928-.7071-.1876-.1876-.442-.2929-.7072-.2929h-6.35c-.2652 0-.5195.1053-.7071.2929-.1875.1875-.2929.4419-.2929.7071v6.3499c0 .2653.1054.5197.2929.7072.1876.1875.4419.2928.7071.2928h6.35c.2652 0 .5196-.1053.7072-.2928.1875-.1875.2928-.4419.2928-.7072z" fill="#e74b3c" fill-rule="evenodd"/><path clip-rule="evenodd" d="m12.9381 45.17v-6.3499c0-.2652-.1053-.5196-.2929-.7071-.1875-.1876-.4418-.2929-.7071-.2929h-6.35998c-.26521 0-.51955.1053-.70709.2929-.18753.1875-.29291.4419-.29291.7071v6.3499c0 .2653.10538.5197.29291.7072.18754.1875.44188.2928.70709.2928h6.35998c.2653 0 .5196-.1053.7071-.2928.1876-.1875.2929-.4419.2929-.7072z" fill="#8d8d8d" fill-rule="evenodd"/><path clip-rule="evenodd" d="m17.0781 51.3201v6.3499c0 .2653.1054.5197.2929.7072.1876.1875.4419.2928.7071.2928h6.35c.2652 0 .5196-.1053.7072-.2928.1875-.1875.2928-.4419.2928-.7072v-6.3499c0-.2652-.1053-.5196-.2928-.7071-.1876-.1876-.442-.2929-.7072-.2929h-6.35c-.2652 0-.5195.1053-.7071.2929-.1875.1875-.2929.4419-.2929.7071z" fill="#8d8d8d" fill-rule="evenodd"/><path clip-rule="evenodd" d="m29.5703 51.3201v6.3499c0 .2653.1054.5197.2929.7072s.4419.2928.7071.2928h6.35c.2652 0 .5196-.1053.7071-.2928.1876-.1875.2929-.4419.2929-.7072v-6.3499c0-.2652-.1053-.5196-.2929-.7071-.1875-.1876-.4419-.2929-.7071-.2929h-6.35c-.2652 0-.5196.1053-.7071.2929-.1875.1875-.2929.4419-.2929.7071z" fill="#8d8d8d" fill-rule="evenodd"/><path d="m9.88033 31.06v.13.1h-.05002-2c-.01143-.0324-.01143-.0676 0-.1-.0195-.0406-.0296-.085-.0296-.13s.0101-.0894.0296-.13c0 0 0-.08 0-.1s0 0 0-.05h.72001v-2.37l-.59.31c-.03577.0114-.07422.0114-.10999 0h-.05001s0 0 0-.08c-.01501-.0523-.01501-.1077 0-.16v-.12s0-.06 0-.08h.05001l.78-.51h.04999.54001c.00784.0036.01636.0055.02499.0055s.01715-.0019.025-.0055v3h.65002v.05.1.13z" fill="#fff"/><path d="m22.3986 30.9999v.16.07c.0046.0197.0046.0403 0 .06h-.05-2.09c-.0394.0097-.0806.0097-.12 0 0 0-.06 0-.06-.1s0-.11 0-.16c-.0027-.0499-.0027-.1 0-.15-.0162-.0418-.0162-.0882 0-.13 0 0 0-.08.05-.1l.1-.11.62-.66c.1102-.1139.2137-.2341.31-.36.0691-.0977.1294-.2015.18-.31.044-.0715.0777-.149.1-.23v-.21c.0116-.0594.0116-.1205 0-.18 0-.05-.06-.1-.08-.15-.0483-.0435-.1021-.0805-.16-.11h-.2c-.0988.0003-.1969.0172-.29.05l-.23.08c-.0451.0402-.0956.0738-.15.1l-.1.05s0 0-.05 0c-.0062-.0195-.0062-.0405 0-.06.007-.033.007-.067 0-.1v-.28s0 0 0-.08 0 0 0 0h.05s.05-.05.13-.08c.0643-.0565.1447-.0915.23-.1.0859-.0512.181-.0852.28-.1h.36c.1667-.0019.3325.0252.49.08.1347.0358.2584.1045.36.2.0833.0841.151.1823.2.29.0559.1187.0833.2488.08.38.0145.1196.0145.2404 0 .36-.0257.1257-.0694.2469-.13.36-.0935.1533-.1971.3003-.31.44-.13.15-.31.36-.51.56l-.41.44h1.46.05v.11-.03z" fill="#fff"/><path d="m34.9985 30.26c-.0021.1628-.0396.3231-.11.4699-.0635.1436-.1678.2654-.3.3501-.126.1131-.2767.1952-.44.24-.1858.0497-.3776.0732-.57.07-.1093.0167-.2206.0167-.33 0-.1053-.0003-.2099-.0171-.31-.05l-.21-.08c-.0365-.0185-.0702-.0421-.1-.0701-.0047-.0197-.0047-.0402 0-.06 0 0 0 .0001 0-.0499.0123-.0322.0123-.0679 0-.1001v-.13c-.0037-.0666-.0037-.1333 0-.1999 0 0 .05-.06.08-.06l.1.06.15.0699c.0843.034.1712.0608.26.08.1127.0167.2273.0167.34 0 .0825.017.1675.017.25 0 .0774-.0148.1497-.0492.21-.0999.0493-.0483.0929-.102.13-.1601.0296-.0627.0466-.1306.05-.1999-.006-.0786-.0228-.1561-.05-.2301-.0459-.0662-.0996-.1266-.16-.18-.0807-.0423-.1643-.079-.25-.1099-.113-.0116-.2269-.0116-.34 0h-.4c-.0106.0061-.0227.0094-.035.0094s-.0244-.0033-.035-.0094c0 0 0-.06 0-.11-.0031-.0433-.0031-.0868 0-.13-.0024-.04-.0024-.0801 0-.12 0-.05 0-.0801 0-.0801h.38c.0951-.0042.1893-.021.28-.0499.0783-.0182.1505-.0561.21-.1101.0565-.0492.101-.1108.13-.18.0296-.0627.0466-.1306.05-.1999 0-.08 0-.1301 0-.1801-.0245-.0583-.0583-.1123-.1-.16-.0396-.0411-.0931-.0661-.15-.07-.0754-.0194-.1546-.0194-.23 0-.0861-.0141-.1739-.0141-.26 0-.0846.0109-.1643.0456-.23.1001l-.18.0799c-.0172.0081-.036.0122-.055.0122s-.0378-.0041-.055-.0122v-.0799c-.0195-.0406-.0296-.085-.0296-.13s.0101-.0895.0296-.13v-.2701c-.0045-.0093-.0067-.0196-.0067-.03s.0022-.0206.0067-.03c0 0 0 .0001 0-.0499l.13-.07.2-.11.31-.07c.1268-.0369.2579-.0571.39-.06.157-.0023.313.0248.46.0799.1251.0268.2398.0894.33.1801.0971.0695.1705.1672.21.2799.0545.1227.0818.2558.08.3901.0243.1019.0243.208 0 .31-.0242.0914-.0612.1789-.11.26-.0595.0675-.1266.1279-.2.18-.0882.0578-.1867.0985-.29.1199.1184.0184.2332.0556.34.11.0963.0448.1843.1056.26.18.0705.0692.1221.1553.15.25.0487.0964.076.2021.08.31z" fill="#fff"/><path d="m10.1102 42.78c.017.069.017.141 0 .21 0 0-.0499.08-.0699.08h-.34004v.72h-.07s-.06002 0-.11002 0h-.32999c-.0433.0022-.08669.0022-.13 0v-.72h-1.47s-.04999 0-.04999-.06 0 0 0-.1c-.01722-.0588-.01722-.1212 0-.18v-.15c.01375-.0422.01375-.0877 0-.13 0 0 0-.05 0-.1.0202-.0243.03701-.0512.04999-.08l1.13-2h.06.07001.16c.0759-.0153.15408-.0153.22998 0 .07558-.0182.15443-.0182.23001 0 .05944-.0116.12056-.0116.18 0h.08001v2.19h.27004s.05 0 .07.07 0 .11 0 .23zm-1.12994-2-.95001 1.68h1z" fill="#fff"/><path d="m22.4499 42.6001c-.0035.1842-.0373.3667-.1.54-.0722.152-.1782.2854-.31.39-.125.1124-.2764.1915-.44.23-.1909.0616-.3896.0952-.59.1h-.31c-.0905-.03-.1848-.0468-.28-.05l-.1801-.08c-.05 0-.0999 0-.0999-.05h-.0501v-.06s0 0 0-.1v-.25c.0056-.0126.0084-.0263.0084-.04 0-.0138-.0028-.0274-.0084-.04h.0501l.0799.05c.05.0042.1001.0042.15 0 .0726.0373.15.0642.2301.08.1027.0161.2072.0161.31 0 .1027.0161.2072.0161.3099 0 .0823-.0186.1604-.0525.2301-.1.0602-.0458.1055-.1084.1299-.18.0256-.0916.0256-.1884 0-.28.0097-.0797.0097-.1603 0-.24-.0355-.0737-.0909-.136-.1599-.18-.0667-.0527-.146-.0872-.2301-.1-.1095-.0143-.2204-.0143-.33 0h-.31-.2299c-.042.0153-.0881.0153-.1301 0 0 0 0-.08 0-.15v-1.57c0-.08 0-.13 0-.16.0191-.0199.0427-.0348.0689-.0435.0261-.0087.054-.011.0811-.0065h1.7301.0499v.08.15.23c0 .02-.05.08-.07.08h-1.31v.8c.0658-.0153.1343-.0153.2 0h.21c.1733-.0018.3457.0252.5101.08.1435.0247.278.0868.3899.18.0996.0921.1781.2047.23.33.076.1408.1107.3003.1001.46z" fill="#fff"/><path d="m35.0008 54.3301c.0149.153.0149.307 0 .4599.0019.1562-.0217.3116-.07.4601-.0373.1549-.098.3033-.18.44-.0732.1371-.1716.2592-.29.36-.1164.1081-.257.187-.41.23-.1912.0599-.3897.0935-.59.1h-.26c-.0691-.0048-.1368-.0217-.2-.05-.0593.0127-.1207.0127-.18 0-.0358.0108-.0741.0108-.11 0 0 0 0-.06 0-.08-.015-.0523-.015-.1077 0-.16v-.15c0-.05 0-.08 0-.1h.16.13c.0666.0046.1334.0046.2 0h.26c.1358-.0045.2688-.0386.39-.1.1126-.0544.2091-.1371.28-.24.0613-.1045.1116-.2151.15-.33 0-.1 0-.2601 0-.3801l-.3.1501c-.1444.0329-.2919.0496-.44.05-.1671.0069-.3338-.0204-.49-.0801-.1274-.048-.2408-.1271-.33-.2299-.0816-.0968-.1428-.2091-.18-.3301-.0374-.1505-.0575-.3048-.06-.4599-.0036-.1669.0235-.333.08-.49.043-.153.1218-.2936.23-.41.1266-.1016.2641-.1888.41-.26.1749-.054.357-.0809.54-.08.1555-.0273.3146-.0273.47 0 .1119.0348.2169.0889.31.16.0979.0737.1767.1697.23.28.0619.1042.1122.2148.15.33 0 .13.05.26.08.42v.46zm-.72-.1101c.0173-.1595.0173-.3204 0-.4799-.0174-.1175-.0511-.2319-.1-.34-.0396-.0703-.1037-.1237-.18-.15-.0743-.0267-.1556-.0267-.23 0-.0763-.0103-.1537-.0103-.23 0l-.16.13c-.0414.0658-.0749.1363-.1.21-.0164.0825-.0164.1675 0 .25-.0164.0859-.0164.1741 0 .2599.021.0624.0477.1227.08.1801.0449.0489.0952.0925.15.1299.076.0142.154.0142.23 0 .1057-.0045.2102-.0247.31-.06.0955-.0228.1845-.0673.26-.13z" fill="#fff"/><path d="m22.5286 55.33c.0024.1505-.0248.3-.08.44-.0448.1373-.137.2542-.26.33-.1159.1047-.2573.1772-.41.21-.1822.0509-.3709.0745-.56.07-.1826.0053-.3648-.0183-.54-.07-.1429-.0269-.2768-.0887-.39-.18-.0983-.0774-.1771-.1767-.23-.29-.0747-.1231-.1096-.2663-.1-.41.0002-.0955.0172-.1903.05-.28.03-.0967.0813-.1856.15-.26.0572-.0789.1284-.1467.21-.2.0982-.087.2096-.1579.33-.21-.0947-.0423-.1798-.1036-.25-.18-.0762-.0524-.1466-.1127-.21-.18-.0549-.0768-.0987-.161-.13-.25-.028-.0944-.0448-.1917-.05-.29.0016-.1307.0288-.2598.08-.38.047-.1223.1266-.2295.23-.31.1135-.0916.2421-.1627.38-.21.179-.0266.361-.0266.54 0 .1722-.0287.3479-.0287.52 0 .1284.0415.2498.1022.36.18.0833.084.151.1823.2.29.0362.1133.0564.2311.06.35.0165.0859.0165.1741 0 .26 0 .08-.08.16-.13.23-.0583.0836-.1253.1606-.2.23-.0831.068-.1699.1314-.26.19.1126.0378.2176.0954.31.17.0895.0666.1673.1477.23.24.0533.0706.097.1479.13.23.0237.0918.0237.1882 0 .28zm-.8-1.75c0-.08 0-.13 0-.18-.0254-.0517-.0632-.0964-.11-.13 0 0-.07-.07-.15-.07-.069-.0169-.141-.0169-.21 0-.1187-.0097-.2366.026-.33.1-.0413.0361-.0743.0807-.0968.1308-.0224.05-.0338.1044-.0332.1592v.18c.0184.053.0535.0986.1.13.0355.0554.0882.0975.15.12l.23.16c.1153-.0713.2197-.1589.31-.26.0765-.0861.1222-.1951.13-.31zm.08 1.8c.0144-.0591.0144-.1209 0-.18-.0313-.0592-.0758-.1106-.13-.15-.0557-.058-.1159-.1114-.18-.16l-.25-.15-.23.15c-.063.0427-.1173.097-.16.16-.0433.0425-.0774.0936-.1.15-.0172.0588-.0172.1212 0 .18-.0085.063-.0011.1272.0217.1866.0227.0594.0599.1121.1083.1534.1325.0789.2864.114.44.1.1438.0103.2871-.0247.41-.1.0447-.0442.0794-.0973.1018-.1559.0224-.0587.032-.1214.0282-.1841z" fill="#fff"/><path d="m35.0001 42.5999c.0027.1783-.0313.3554-.0999.52-.0564.1492-.1376.2878-.2401.41-.1149.117-.2552.2059-.41.26-.1705.0723-.3548.1065-.5399.1-.143.0147-.2871.0147-.43 0-.1222-.0416-.237-.1024-.3401-.18-.0947-.0688-.1732-.1575-.2299-.26-.057-.1041-.1007-.215-.13-.33-.0381-.1444-.0649-.2915-.0801-.44-.0106-.1632-.0106-.3268 0-.49-.0093-.1465-.0093-.2935 0-.44 0-.15.0601-.3.0801-.46.0435-.1433.1039-.2809.1799-.41.0677-.1379.163-.2604.28-.36.128-.1047.2692-.1922.4201-.26.1915-.0559.3904-.0829.5899-.08h.2l.2101.06h.1499.08v.06.08.23c-.01.0326-.01.0675 0 .1h-.06c-.0225.0085-.0474.0085-.07 0-.0432.0033-.0867.0033-.13 0-.0599.0045-.12.0045-.18 0h-.25c-.1309-.0006-.2604.0266-.38.08-.1026.0489-.1867.1296-.24.23-.0696.1-.1205.2118-.15.33-.0159.1362-.0159.2738 0 .41l.15-.07.16-.08c.0678-.0119.1346-.0286.2-.05h.23c.1644.0042.3282.0209.4901.05.1223.047.2295.1266.31.23.0867.097.1485.2137.1799.34.0524.1373.0795.283.0801.43zm-.7199.08c0-.1 0-.18 0-.26-.0237-.0649-.0575-.1256-.1001-.18-.0339-.0441-.0787-.0785-.13-.1-.0764-.0088-.1535-.0088-.23 0h-.15-.16c-.0459.0221-.0895.0489-.13.08-.0479.0183-.092.0454-.13.08-.0169.1596-.0169.3205 0 .48.0162.1081.05.2129.1.31.0372.0727.0923.1346.16.18.0726.032.1508.049.23.05.0797.0036.159-.0136.23-.05.0342-.0067.066-.0223.0923-.0451s.0462-.052.0577-.0849c.0519-.0571.0896-.1256.11-.2.0113-.0863.0113-.1737 0-.26z" fill="#fff"/><path clip-rule="evenodd" d="m11.9381 50.3201h-6.35998c-.26521 0-.51955.1053-.70709.2929-.18753.1875-.29291.4419-.29291.7071v6.3499c0 .2653.10538.5197.29291.7072.18754.1875.44188.2928.70709.2928h6.35998c.2653 0 .5196-.1053.7071-.2928.1876-.1875.2929-.4419.2929-.7072v-6.3499c0-.2652-.1053-.5196-.2929-.7071-.1875-.1876-.4418-.2929-.7071-.2929z" fill="#8d8d8d" fill-rule="evenodd"/><path d="m10.0017 52.9999v.26c-.01.0258-.01.0543 0 .0801 0 0 0 .0699-.05996.0999l-1.17999 2.78s-.00002 0-.05002 0c-.02658-.003-.05341-.003-.07999 0h-.13-.17002-.23999c-.0433.0022-.0867.0022-.13 0h-.04999c-.00551-.0126-.00836-.0262-.00836-.04 0-.0137.00285-.0273.00836-.0399l1.28-2.8501h-1.51001c-.05 0-.07999.0001-.10999-.0799-.01232-.0762-.01232-.1539 0-.2301v-.1499c.00932-.0361.00932-.074 0-.1101l.06-.05h2.28s0 0 .06.05c.05996.05 0 .06 0 .08v.2z" fill="#fff"/><g clip-rule="evenodd" fill-rule="evenodd"><path d="m36.8494 4.53003h-31.24002c-.26522 0-.51956.10537-.7071.29291-.18753.18753-.2929.44187-.2929.70709v14.68007c0 .2652.10537.5195.2929.707.18754.1876.44188.293.7071.293h31.24002c.2652 0 .5196-.1054.7071-.293.1876-.1875.2929-.4418.2929-.707v-14.68007c0-.26522-.1053-.51956-.2929-.70709-.1875-.18754-.4419-.29291-.7071-.29291zm-27.85001 3.85001h24.61001v9.52006h-24.76v-9.52006z" fill="#006ea4"/><path d="m7.77185 17.9h27.14995.1001v-.08-9.33999-.10001h-.1001-27.14995-.09997v.10001 9.33999.08z" fill="#fff"/><path d="m26.4414 12.6501.23.26.28-.26.39-2.08-.62.5099z" fill="#000"/><path d="m26.2792 10.46h.98l-.62.54h-.46l-.23-.28z" fill="#000"/><path d="m26.36 13.16.31-.25.2.25-.36 1.91-.28.28-.23-.28z" fill="#000"/><path d="m30.8598 12.55.28-1.47-.21-.2599-.3.2599-.29 1.47.24.2601z" fill="#000"/><path d="m30.6316 10.46.2299.26-.31.28h-1.47l-.2299-.28.31-.26z" fill="#000"/><path d="m30.2387 12.65.23.26-.31.25h-1.4899l-.2-.25.3099-.26z" fill="#000"/><path d="m28.5692 13.24-.2-.26-.31.26-.36 2.01.61-.5201z" fill="#000"/><path d="m28.3896 14.8101h1.4699l.2.26-.31.25h-1.98z" fill="#000"/><path d="m33.6606 13.24-.2-.26-.31.26-.26 1.4899.21.2601.3-.2601z" fill="#000"/><path d="m32.6789 15.3201h-1.56l-.24-.25.34-.26h1.57l.2.26z" fill="#000"/><path d="m33.0695 13.16h-1.57l-.23-.25.33-.26h1.57l.21.26z" fill="#000"/><path d="m33.7912 12.55.26-1.47-.21-.2599-.31.2599-.25 1.47.2.2601z" fill="#000"/><path d="m31.9102 11-.25-.28.33-.26h1.57l.2.26-.3.28z" fill="#000"/></g></svg>