<svg fill="none" height="166" viewBox="0 0 167 166" width="167" xmlns="http://www.w3.org/2000/svg"><path d="m164.928 41.49c-.15 1-.309 1.9401-.469 2.9201s-.341 1.94-.521 2.93c-4.62 25.4-14.87 55.8299-37.26 78.2099s-52.7995 32.63-78.1995 37.26l-2.9402.51c-1 .17-1.9999.32-2.9099.47-24.21 3.73-40.10007 0-40.10007 0s-3.72-15.89 0-40.1c.15-1 .30022-1.93.47022-2.92s.34001-1.94.51001-2.92c4.63-25.4099 14.88974-55.8299 37.26974-78.2099s52.8002-32.64006 78.2007-37.27006l2.929-.50989c1-.16 2-.32008 2.92-.46008 24.21-3.73 39 1.91003 39 1.91003s4.82 13.9799 1.1 38.1799z" fill="#ea5624"/><g fill="#a33f16"><path d="m48.4788 162.81-2.9402.51c-1 .17-1.9999.32-2.9099.47-.0099-.093-.0099-.187 0-.28-.2695-4.123-1.1353-8.185-2.5701-12.06-.35-1-.7399-1.88-1.1499-2.79s-.8801-1.86-1.3801-2.76c-1.7473-3.219-3.9016-6.201-6.4099-8.87l-.8899-.91c-.4-.4-.8002-.79-1.2102-1.16-.73-.68-1.4898-1.33-2.2598-1.94-2.2868-1.843-4.7604-3.442-7.3801-4.77-.9-.45-1.79-.87-2.7-1.26s-1.83-.73-2.77-1c-3.5708-1.23-7.29095-1.973-11.06007-2.21h-.29004c.15-1 .29997-1.93.46997-2.92s.34001-1.94.51001-2.92c4.23363.297 8.40973 1.151 12.42013 2.54.9267.32 1.8467.67 2.7601 1.05.9099.37 1.8199.78 2.6999 1.22 3.4144 1.661 6.6173 3.726 9.54 6.15.77.63 1.52 1.28 2.24 2 .41.38.82.77 1.21 1.17s.5999.6.8899.92c3.3508 3.522 6.1492 7.531 8.3 11.89.46.9.8901 1.83 1.2701 2.77s.75 1.87 1.09 2.81c1.3719 3.99 2.219 8.142 2.5201 12.35z"/><path d="m164.93 41.49c-.15 1-.31 1.94-.47 2.92s-.34 1.9401-.52 2.9301c-4.957-.347-9.831-1.4567-14.45-3.2901-.92-.37-1.83-.7599-2.73-1.1899s-1.78-.8701-2.65-1.3501c-3.095-1.6762-5.995-3.6883-8.65-6-.74-.65-1.46-1.32-2.16-2l-.22-.21c-.63-.63-1.24-1.27-1.82-1.93-2.921-3.2416-5.384-6.8687-7.32-10.7799-.45-.9-.89-1.83-1.28-2.78s-.75-1.8501-1.08-2.8001c-1.42-4.0631-2.294-8.29671-2.6-12.58996l2.93-.51001c1-.16 2-.31996 2.92-.45996.005.08994.005.18009 0 .27002.274 4.16105 1.15 8.26032 2.6 12.16991.36 1 .75 1.8901 1.16 2.8001s.9 1.85 1.38 2.75c1.519 2.7751 3.344 5.3713 5.44 7.74.59.67 1.19 1.3099 1.82 1.9399l.22.2101c.7.7 1.43 1.36 2.17 2 2.026 1.7403 4.212 3.2839 6.53 4.61.85.49 1.74 1 2.64 1.4s1.79.8299 2.7 1.1899c4.185 1.6946 8.615 2.7075 13.12 3 .105-.0253.213-.0388.32-.04z"/><path d="m14.3016 136.37c-.3412-.003-.6793-.064-1-.18-.7309-.279-1.3238-.832-1.6526-1.542s-.3674-1.52-.1074-2.258l6.6301-18.06c.3504-.612.9051-1.081 1.5669-1.325.6618-.243 1.3884-.246 2.052-.007.6636.238 1.2222.703 1.5771 1.313.355.609.4839 1.324.3641 2.019l-6.6402 18.06c-.2078.575-.5863 1.073-1.0849 1.427-.4987.354-1.0937.547-1.7051.553z"/><path d="m31.9513 152.92c-.6954-.067-1.3456-.374-1.8386-.869s-.7978-1.147-.8618-1.842c-.064-.696.1168-1.392.5112-1.969.3944-.576.9777-.997 1.6492-1.19l18.8999-3.57c.4094-.153.8473-.214 1.283-.18.4356.034.8587.162 1.2395.377.3807.214.7098.51.9646.865.2547.355.4289.761.5102 1.19.0813.43.0678.872-.0395 1.295-.1074.424-.3061.819-.5821 1.158-.2759.339-.6225.613-1.0156.804s-.8231.294-1.26.301l-18.9099 3.58c-.1817.032-.3657.048-.5501.05z"/><path d="m22.9696 143.93c-.5772-.017-1.1373-.2-1.6128-.528-.4756-.328-.8466-.786-1.0684-1.319-.2217-.533-.2847-1.119-.1816-1.687.103-.568.3678-1.095.7627-1.516l16.8801-16.88c.5778-.407 1.2804-.596 1.9844-.536.704.061 1.3641.368 1.8638.868.4996.5.8067 1.159.8674 1.863s-.1289 1.407-.5357 1.985l-16.8701 16.88c-.5563.552-1.3063.864-2.0898.87z"/><path d="m143.989 53.39c-.341.0019-.68-.059-1-.1799-.731-.2789-1.324-.8323-1.653-1.5422-.328-.7098-.367-1.5201-.107-2.2579l6.63-18.0599c.074-.4318.243-.842.492-1.2018.25-.3598.576-.6605.955-.881.378-.2205.8-.3554 1.237-.3953.436-.0398.876.0164 1.288.1647s.787.385 1.098.6936.55.6817.702 1.0928c.151.4111.211.8503.174 1.2869-.036.4365-.168.8599-.386 1.2401l-6.63 18.0599c-.208.5766-.589 1.0756-1.089 1.4296-.501.354-1.098.546-1.711.5504z"/><path d="m114.051 22.35c-.691-.0723-1.335-.3818-1.822-.8757-.488-.4938-.789-1.1416-.853-1.8327-.064-.6912.114-1.3831.504-1.9578.389-.5747.965-.9966 1.631-1.1939l18.9-3.5799c.712-.0189 1.408.2165 1.963.6639.554.4474.932 1.0776 1.064 1.7779.132.7002.011 1.4247-.342 2.0437-.353.6189-.915 1.0921-1.585 1.3346l-18.91 3.5699c-.181.0369-.366.0537-.55.05z"/><path d="m125.071 44.65c-.579-.0173-1.14-.2014-1.616-.5303-.476-.3288-.847-.7883-1.068-1.3231-.22-.5347-.282-1.122-.177-1.6909s.373-1.0952.771-1.5156l16.88-16.87c.577-.4067 1.28-.5965 1.984-.5358s1.364.3679 1.864.8676c.499.4996.807 1.1596.867 1.8636.061.704-.129 1.4067-.535 1.9845l-16.9 16.88c-.271.2745-.593.4927-.948.642-.356.1493-.737.2268-1.122.228z"/><path d="m48.6981 118.19c-.5764-.019-1.135-.204-1.6091-.532s-.8437-.786-1.0642-1.319c-.2206-.533-.2827-1.118-.1792-1.685.1034-.568.368-1.093.7624-1.514l67.21-67.2099c.577-.4136 1.283-.6089 1.991-.5512s1.372.3647 1.875.8662c.502.5016.811 1.1654.871 1.8731.059.7077-.135 1.4136-.547 1.9919l-67.21 67.2199c-.5604.551-1.3143.859-2.0999.86z"/><path d="m98.7686 84.3601h-32.46c-.7015-.1157-1.339-.4769-1.7991-1.0191-.46-.5421-.7126-1.23-.7126-1.941s.2526-1.3989.7126-1.941c.4601-.5422 1.0976-.9032 1.7991-1.019h32.46c.4294-.0708.8693-.0474 1.2884.0688.42.1161.809.3221 1.141.6037s.598.6322.781 1.0272.278.825.278 1.2603-.095.8654-.278 1.2604-.449.7454-.781 1.0271c-.332.2816-.721.4876-1.141.6037-.4191.1162-.859.1397-1.2884.0689z"/><path d="m82.5411 100.55c-.7957 0-1.5587-.316-2.1213-.8786-.5627-.5626-.8787-1.3257-.8787-2.1214v-32.4599c-.0755-.4312-.0558-.8739.0579-1.2966.1136-.4228.3185-.8156.6001-1.1508.2815-.3352.6332-.6046 1.03-.7896.3968-.1849.8293-.2807 1.2671-.2807s.8702.0958 1.2671.2807c.3968.185.7484.4544 1.03.7896s.4864.728.6001 1.1508c.1137.4227.1334.8654.0579 1.2966v32.4599c.0003.7803-.3034 1.53-.8467 2.0901-.5433.5599-1.2836.8869-2.0635.9099z"/><path d="m73.0498 110.08h-32.46c-.4294.071-.869.047-1.2885-.069s-.8088-.322-1.1407-.604c-.3318-.281-.5986-.632-.7814-1.027-.1829-.395-.2776-.825-.2776-1.26s.0947-.865.2776-1.26c.1828-.395.4496-.746.7814-1.027.3319-.282.7212-.488 1.1407-.604s.8591-.14 1.2885-.069h32.46c.4295-.071.8693-.047 1.2888.069s.8088.322 1.1406.604c.3319.281.5984.632.7813 1.027s.2776.825.2776 1.26-.0947.865-.2776 1.26-.4494.746-.7813 1.027c-.3318.282-.7211.488-1.1406.604s-.8593.14-1.2888.069z"/><path d="m56.8203 126.31c-.7956 0-1.5587-.316-2.1213-.879-.5626-.562-.8787-1.325-.8787-2.121v-32.4699c.1157-.7015.4769-1.3392 1.0191-1.7992.5421-.46 1.2299-.7125 1.9409-.7125s1.399.2525 1.9411.7125c.5422.46.9034 1.0977 1.0191 1.7992v32.4699c.0003.782-.3049 1.533-.8504 2.094-.5454.56-1.2881.885-2.0698.906z"/><path d="m126.2 56.92h-32.4595c-.4312.0755-.8739.0558-1.2967-.0579-.4227-.1136-.8156-.3185-1.1508-.6001-.3352-.2815-.6047-.633-.7896-1.0299-.1849-.3968-.2807-.8293-.2807-1.2671 0-.4377.0958-.8702.2807-1.267.1849-.3969.4544-.7485.7896-1.0301s.7281-.4864 1.1508-.6001c.4228-.1136.8655-.1334 1.2967-.0578h32.4595c.432-.0756.874-.0558 1.297.0578.423.1137.815.3185 1.151.6001.335.2816.604.6332.789 1.0301.185.3968.281.8293.281 1.267 0 .4378-.096.8703-.281 1.2671-.185.3969-.454.7484-.789 1.0299-.336.2816-.728.4865-1.151.6001-.423.1137-.865.1334-1.297.0579z"/><path d="m109.97 73.16c-.787-.0131-1.538-.3349-2.089-.8961-.552-.5612-.862-1.3168-.861-2.1039v-32.4699c0-.7957.316-1.5588.878-2.1214.563-.5626 1.326-.8786 2.122-.8786.786.0131 1.537.3349 2.089.8961.551.5612.861 1.3168.861 2.1039v32.4699c0 .7957-.316 1.5588-.879 2.1214s-1.326.8786-2.121.8786z"/></g></svg>