<svg fill="none" height="107" viewBox="0 0 170 107" width="170" xmlns="http://www.w3.org/2000/svg"><path d="m121.49 105.55-67.6703-29.74-48.13988-21.26c-2.20404-.9716-3.94699-2.758-4.86401-4.9853-.917017-2.2273-.936957-4.723-.055909-6.9648l.109864-.2999c.927295-2.1006 2.597325-3.7849 4.689945-4.73l30.67019-32.18001c1.0532-2.15548 2.905-3.8156 5.1623-4.627808 2.2574-.8122037 4.7424-.7125575 6.9275.277768l51.8003 22.77005 64.1 28.18c.224.094.441.2043.65.33z" fill="#a83041"/><path d="m123.851 103.78-65.1294-28.64-46.3401-20.3701c-2.119-.9401-3.79363-2.6615-4.67479-4.8058-.88115-2.1442-.90087-4.5457-.05517-6.7041 0-.09.0701-.1901.1101-.2901.88963-2.0217 2.49596-3.6425 4.50976-4.5499l29.54-31.00004c1.0124-2.0743 2.7934-3.67231 4.9649-4.45465 2.1715-.78235 4.5626-.68741 6.6653.26465l49.8794 21.91994 61.691 27.13c.217.0872.428.1908.63.31z" fill="#e73147"/><path d="m168.718 64.12c-.811 1.7405-2.17 3.1668-3.87 4.06l-31.24 32.87c-1.051 2.164-2.899 3.837-5.157 4.669-2.257.831-4.749.756-6.953-.209l-67.6699-29.75 46.3599-52 63.8 28.06c2.202.9396 3.95 2.7023 4.871 4.9123s.942 4.6923.059 6.9177z" fill="#1d9695"/><path d="m163.891 62.22c-.767 1.6289-2.04 2.9656-3.63 3.81l-29.29 30.81c-.987 2.03-2.72 3.6-4.837 4.381-2.118.781-4.455.712-6.523-.191l-63.4704-27.91 43.47-48.71 59.8304 26.3c2.061.884 3.697 2.5369 4.56 4.6076.862 2.0707.884 4.3961.06 6.4824z" fill="#1eb4b3"/></svg>